<svg width="80" height="81" viewBox="0 0 80 81" fill="none" xmlns="http://www.w3.org/2000/svg">
    <path d="M79.5837 13.5042L34.4191 58.7083L17.6357 41.925L23.217 36.3437L34.4191 47.5458L74.0024 7.96249L79.5837 13.5042ZM70.8357 33.4542C71.3503 35.7104 71.667 38.0854 71.667 40.5C71.667 57.9958 57.4962 72.1667 40.0003 72.1667C22.5045 72.1667 8.33366 57.9958 8.33366 40.5C8.33366 23.0042 22.5045 8.83332 40.0003 8.83332C46.2545 8.83332 52.0337 10.6542 56.942 13.7812L62.642 8.08124C56.2295 3.56874 48.4316 0.916656 40.0003 0.916656C18.1503 0.916656 0.416992 18.65 0.416992 40.5C0.416992 62.35 18.1503 80.0833 40.0003 80.0833C61.8503 80.0833 79.5837 62.35 79.5837 40.5C79.5837 35.7896 78.7128 31.2771 77.2087 27.0812L70.8357 33.4542Z" fill="#57C055"/>
</svg>
