<svg width="20" height="20" viewBox="0 0 20 20" fill="none" xmlns="http://www.w3.org/2000/svg">
<path d="M9.98958 15C9.07986 15 8.20833 15.1493 7.375 15.4479C6.54167 15.7465 5.75 16.2153 5 16.8542V17.0834H15V16.9792C14.3056 16.3542 13.5243 15.8681 12.6563 15.5209C11.7882 15.1736 10.8993 15 9.98958 15ZM3.75 16.25C4.55556 15.4584 5.49653 14.8438 6.57292 14.4063C7.64931 13.9688 8.79167 13.75 10 13.75C11.2083 13.75 12.3472 13.9688 13.4167 14.4063C14.4861 14.8438 15.4306 15.4584 16.25 16.25V4.16669H3.75V16.25ZM10 11.7917C9.20833 11.7917 8.53819 11.5174 7.98958 10.9688C7.44097 10.4202 7.16667 9.75002 7.16667 8.95835C7.16667 8.16669 7.44097 7.49655 7.98958 6.94794C8.53819 6.39933 9.20833 6.12502 10 6.12502C10.7917 6.12502 11.4618 6.39933 12.0104 6.94794C12.559 7.49655 12.8333 8.16669 12.8333 8.95835C12.8333 9.75002 12.559 10.4202 12.0104 10.9688C11.4618 11.5174 10.7917 11.7917 10 11.7917ZM10.0049 10.5417C10.4461 10.5417 10.8194 10.3873 11.125 10.0785C11.4306 9.76962 11.5833 9.39462 11.5833 8.95346C11.5833 8.51228 11.4289 8.13891 11.1201 7.83335C10.8113 7.5278 10.4363 7.37502 9.9951 7.37502C9.55392 7.37502 9.18056 7.52943 8.875 7.83825C8.56944 8.14708 8.41667 8.52208 8.41667 8.96325C8.41667 9.40443 8.57108 9.7778 8.8799 10.0834C9.18873 10.3889 9.56373 10.5417 10.0049 10.5417ZM3.75 18.3334C3.41667 18.3334 3.125 18.2084 2.875 17.9584C2.625 17.7084 2.5 17.4167 2.5 17.0834V4.16669C2.5 3.83335 2.625 3.54169 2.875 3.29169C3.125 3.04169 3.41667 2.91669 3.75 2.91669H5.10417V1.66669H6.45833V2.91669H13.5417V1.66669H14.8958V2.91669H16.25C16.5833 2.91669 16.875 3.04169 17.125 3.29169C17.375 3.54169 17.5 3.83335 17.5 4.16669V17.0834C17.5 17.4167 17.375 17.7084 17.125 17.9584C16.875 18.2084 16.5833 18.3334 16.25 18.3334H3.75ZM10 17.0834H15H5H10Z" fill="#121212"/>
</svg>
