<svg width="24" height="24" viewBox="0 0 24 24" fill="none" xmlns="http://www.w3.org/2000/svg">
<path d="M19.5 1.5H6C5.20435 1.5 4.44129 1.81607 3.87868 2.37868C3.31607 2.94129 3 3.70435 3 4.5V6H2.25C2.05109 6 1.86032 6.07902 1.71967 6.21967C1.57902 6.36032 1.5 6.55109 1.5 6.75C1.5 6.94891 1.57902 7.13968 1.71967 7.28033C1.86032 7.42098 2.05109 7.5 2.25 7.5H3V11.25H2.25C2.05109 11.25 1.86032 11.329 1.71967 11.4697C1.57902 11.6103 1.5 11.8011 1.5 12C1.5 12.1989 1.57902 12.3897 1.71967 12.5303C1.86032 12.671 2.05109 12.75 2.25 12.75H3V16.5H2.25C2.05109 16.5 1.86032 16.579 1.71967 16.7197C1.57902 16.8603 1.5 17.0511 1.5 17.25C1.5 17.4489 1.57902 17.6397 1.71967 17.7803C1.86032 17.921 2.05109 18 2.25 18H3V19.5C3 20.2956 3.31607 21.0587 3.87868 21.6213C4.44129 22.1839 5.20435 22.5 6 22.5H19.5C20.2956 22.5 21.0587 22.1839 21.6213 21.6213C22.1839 21.0587 22.5 20.2956 22.5 19.5V4.5C22.5 3.70435 22.1839 2.94129 21.6213 2.37868C21.0587 1.81607 20.2956 1.5 19.5 1.5ZM21 19.5C21 19.8978 20.842 20.2794 20.5607 20.5607C20.2794 20.842 19.8978 21 19.5 21H6C5.60218 21 5.22064 20.842 4.93934 20.5607C4.65804 20.2794 4.5 19.8978 4.5 19.5V18H5.25C5.44891 18 5.63968 17.921 5.78033 17.7803C5.92098 17.6397 6 17.4489 6 17.25C6 17.0511 5.92098 16.8603 5.78033 16.7197C5.63968 16.579 5.44891 16.5 5.25 16.5H4.5V12.75H5.25C5.44891 12.75 5.63968 12.671 5.78033 12.5303C5.92098 12.3897 6 12.1989 6 12C6 11.8011 5.92098 11.6103 5.78033 11.4697C5.63968 11.329 5.44891 11.25 5.25 11.25H4.5V7.5H5.25C5.44891 7.5 5.63968 7.42098 5.78033 7.28033C5.92098 7.13968 6 6.94891 6 6.75C6 6.55109 5.92098 6.36032 5.78033 6.21967C5.63968 6.07902 5.44891 6 5.25 6H4.5V4.5C4.5 4.10218 4.65804 3.72064 4.93934 3.43934C5.22064 3.15804 5.60218 3 6 3H19.5C19.8978 3 20.2794 3.15804 20.5607 3.43934C20.842 3.72064 21 4.10218 21 4.5V19.5Z" fill="#121212"/>
<path d="M12.75 13.5C11.5565 13.5 10.4119 13.9741 9.56802 14.8181C8.72411 15.662 8.25 16.8066 8.25 18H9.75C9.75 17.2044 10.0661 16.4413 10.6287 15.8787C11.1913 15.3161 11.9544 15 12.75 15C13.5456 15 14.3087 15.3161 14.8713 15.8787C15.4339 16.4413 15.75 17.2044 15.75 18H17.25C17.25 16.8066 16.7759 15.662 15.932 14.8181C15.0881 13.9741 13.9435 13.5 12.75 13.5ZM12.75 12C13.1441 11.9999 13.5343 11.9222 13.8983 11.7713C14.2623 11.6204 14.5931 11.3993 14.8716 11.1206C15.1502 10.8419 15.3712 10.511 15.5219 10.1469C15.6726 9.78282 15.7501 9.3926 15.75 8.99854C15.7499 8.60447 15.6722 8.21429 15.5213 7.85026C15.3704 7.48623 15.1493 7.15548 14.8706 6.8769C14.5919 6.59833 14.261 6.37738 13.8969 6.22667C13.5328 6.07596 13.1426 5.99844 12.7485 5.99854C11.9527 5.99873 11.1895 6.31507 10.6269 6.87797C10.0643 7.44086 9.7483 8.20419 9.7485 9.00004C9.7487 9.79588 10.065 10.5591 10.6279 11.1217C11.1908 11.6843 11.9542 12.0002 12.75 12ZM12.75 7.51204C12.9454 7.51204 13.1389 7.55052 13.3194 7.6253C13.5 7.70008 13.664 7.80969 13.8022 7.94786C13.9403 8.08603 14.05 8.25007 14.1247 8.4306C14.1995 8.61113 14.238 8.80463 14.238 9.00004C14.238 9.19544 14.1995 9.38894 14.1247 9.56947C14.05 9.75 13.9403 9.91404 13.8022 10.0522C13.664 10.1904 13.5 10.3 13.3194 10.3748C13.1389 10.4495 12.9454 10.488 12.75 10.488C12.3554 10.488 11.9769 10.3313 11.6978 10.0522C11.4188 9.77316 11.262 9.39468 11.262 9.00004C11.262 8.60539 11.4188 8.22691 11.6978 7.94786C11.9769 7.66881 12.3554 7.51204 12.75 7.51204Z" fill="#121212"/>
</svg>
