<svg width="24" height="24" viewBox="0 0 24 24" fill="none" xmlns="http://www.w3.org/2000/svg">
<g opacity="0.9">
<path fill-rule="evenodd" clip-rule="evenodd" d="M0 12.4999C0 15.4425 1.12959 18.1305 2.98467 20.1665H20.4008C22.2559 18.1305 23.3855 15.4425 23.3855 12.4999C23.3855 6.15894 18.14 1 11.6927 1C5.24543 1 0 6.15894 0 12.4999ZM6.97985 11.1833H16.039C16.4405 11.1833 16.8029 10.953 16.9673 10.5909C17.1317 10.2288 17.0633 9.80811 16.7956 9.51331L14.2434 6.71561C14.1542 6.61764 14.0463 6.53792 13.9257 6.48101C13.8052 6.4241 13.6744 6.39111 13.5409 6.38393C13.4074 6.37676 13.2738 6.39553 13.1476 6.43918C13.0215 6.48283 12.9054 6.55051 12.8058 6.63833C12.7062 6.72606 12.6252 6.83223 12.5673 6.95079C12.5094 7.06934 12.4759 7.19795 12.4686 7.32926C12.4613 7.46057 12.4804 7.592 12.5248 7.71605C12.5692 7.8401 12.638 7.95433 12.7273 8.05221L13.756 9.17988H6.97985C6.41675 9.17988 5.96132 9.6278 5.96132 10.1816C5.96132 10.7354 6.41675 11.1833 6.97985 11.1833ZM8.77537 17.407C8.97617 17.6288 9.25408 17.7404 9.53345 17.7404C9.78464 17.7406 10.0269 17.6488 10.213 17.4828C10.3126 17.3951 10.3936 17.2889 10.4515 17.1704C10.5094 17.0518 10.5429 16.9232 10.5502 16.7919C10.5575 16.6606 10.5384 16.5292 10.494 16.4051C10.4496 16.2811 10.3808 16.1668 10.2915 16.069L9.26281 14.9413H16.039C16.6021 14.9413 17.0575 14.4934 17.0575 13.9396C17.0575 13.3857 16.6021 12.9378 16.039 12.9378H6.9813C6.57971 12.9378 6.21595 13.1696 6.05153 13.5317C5.88711 13.8938 5.9555 14.3145 6.22322 14.6093L8.77537 17.407Z" fill="white"/>
<path d="M23.8005 19.2047C23.9297 19.5727 24 19.9694 24 20.3823C24 22.3803 22.3531 24 20.3216 24H3.6784C1.64687 24 0 22.3803 0 20.3823C0 20.052 0.0450027 19.732 0.129306 19.428L0.199579 19.204L0.280772 19.4132C0.804872 20.6548 2.01079 21.5463 3.43847 21.6367L3.6784 21.6443H20.3216C21.9337 21.6443 23.3036 20.6243 23.8005 19.2047Z" fill="white"/>
</g>
</svg>
