<svg width="20" height="20" viewBox="0 0 20 20" fill="none" xmlns="http://www.w3.org/2000/svg">
<path d="M17.0744 9.286C17.3621 9.72467 17.3621 10.2753 17.0744 10.714C16.168 12.0955 13.8094 15 9.99862 15C6.18778 15 3.8292 12.0955 2.92285 10.714C2.63509 10.2753 2.63509 9.72467 2.92285 9.286C3.8292 7.90446 6.18778 5 9.99862 5C13.8094 5 16.168 7.90446 17.0744 9.286Z" stroke="white" stroke-opacity="0.6" stroke-width="1.25" stroke-linecap="round"/>
<path d="M12.5 10C12.5 11.3807 11.3807 12.5 10 12.5C8.61927 12.5 7.5 11.3807 7.5 10C7.5 8.61925 8.61927 7.5 10 7.5C11.3807 7.5 12.5 8.61925 12.5 10Z" stroke="white" stroke-opacity="0.6" stroke-width="1.25" stroke-linecap="round"/>
</svg>
