<svg width="28" height="28" viewBox="0 0 28 28" fill="none" xmlns="http://www.w3.org/2000/svg">
<path d="M8.85249 17.5606L8.86391 17.5546L8.87511 17.5481C9.30696 17.2998 9.66803 16.8544 9.74553 16.2566C9.82157 15.6699 9.60975 15.0623 9.16387 14.4858C8.65152 13.7238 8.16444 12.7787 7.80617 11.8286C7.44117 10.8606 7.2304 9.94167 7.2304 9.2348C7.2304 5.28664 9.8099 2.75 13 2.75C16.1293 2.75 18.7372 5.32274 18.7372 9.236C18.7372 9.92296 18.5257 10.8238 18.1485 11.7936C17.7787 12.7442 17.2697 13.7103 16.7163 14.5289C16.2809 15.0819 16.0957 15.6851 16.1857 16.2597C16.275 16.8295 16.624 17.2815 17.0725 17.524C17.1764 17.5823 17.8612 17.9605 18.5524 18.3423C19.0908 18.6397 19.6331 18.9392 19.908 19.0915C19.9086 19.0918 19.9092 19.0921 19.9098 19.0925L19.9744 19.1288L19.9771 19.1302C21.0658 19.7358 21.8595 20.1839 22.3894 20.4978C23.0791 20.9602 23.52 21.32 23.8039 21.6746C24.0637 21.9992 24.206 22.3372 24.25 22.8007V23.6C24.25 23.8167 24.2073 24.0312 24.1244 24.2314C24.0415 24.4316 23.9199 24.6135 23.7667 24.7667C23.6135 24.9199 23.4316 25.0415 23.2314 25.1244C23.0312 25.2073 22.8167 25.25 22.6 25.25H3.4C3.18332 25.25 2.96876 25.2073 2.76857 25.1244C2.56839 25.0415 2.38649 24.9199 2.23327 24.7667C2.08006 24.6135 1.95852 24.4316 1.8756 24.2314C1.79268 24.0312 1.75 23.8167 1.75 23.6V22.7672C1.75 22.3507 1.86055 22.0418 2.11453 21.7212C2.39321 21.3695 2.85145 20.9954 3.58801 20.5029C4.60732 19.8754 7.58424 18.233 8.85249 17.5606Z" stroke="#007AFF" stroke-width="1.5"/>
<rect x="21" y="4" width="6" height="2" rx="1" fill="#007AFF"/>
<rect x="22" y="8" width="5" height="2" rx="1" fill="#007AFF"/>
<rect x="23" y="12" width="4" height="2" rx="1" fill="#007AFF"/>
</svg>
