<svg width="24" height="24" viewBox="0 0 24 24" fill="none" xmlns="http://www.w3.org/2000/svg">
<path d="M24 11.9874C23.9975 9.61455 23.2916 7.29566 21.9714 5.3239C20.6513 3.35213 18.7762 1.81602 16.5832 0.909729C14.3902 0.00344053 11.9777 -0.232335 9.65076 0.232207C7.32378 0.696749 5.18677 1.84075 3.50984 3.51961C1.83292 5.19846 0.691375 7.33679 0.229513 9.66431C-0.232352 11.9918 0.00620016 14.404 0.915012 16.596C1.82383 18.7879 3.36209 20.6612 5.33537 21.9791C7.30866 23.297 9.62836 24.0002 12.0013 24C13.5779 23.9992 15.1389 23.6878 16.5952 23.0837C18.0515 22.4795 19.3745 21.5944 20.4887 20.4789C21.6029 19.3634 22.4865 18.0394 23.0889 16.5824C23.6914 15.1255 24.001 13.5641 24 11.9874Z" fill="#007AFF"/>
<path d="M13.8866 4.63523L13.8691 4.63523C13.8595 4.63748 13.8502 4.64086 13.8414 4.64528L13.8226 4.65281L13.7975 4.66286L13.7748 4.6704C13.7678 4.67478 13.7602 4.67817 13.7522 4.68045C13.7448 4.68485 13.7367 4.68823 13.7284 4.6905C13.7233 4.70055 13.7095 4.70055 13.7095 4.70055C13.702 4.70658 13.6935 4.71125 13.6844 4.71437L13.663 4.72441L13.6367 4.73949C13.6313 4.74224 13.6262 4.74561 13.6216 4.74954C13.6128 4.75456 13.604 4.76712 13.594 4.76712C13.5899 4.77117 13.5852 4.77456 13.5801 4.77717C13.5703 4.78349 13.5611 4.79064 13.5525 4.79853L13.5387 4.81109L13.5161 4.82868C13.5085 4.8337 13.5035 4.84124 13.496 4.84752C13.4898 4.85173 13.4839 4.85634 13.4784 4.86134C13.4671 4.8739 13.4545 4.88395 13.442 4.89651L13.4068 4.93545L13.3917 4.95303C13.3867 4.96004 13.3812 4.96675 13.3754 4.97313L13.3616 5.00077L13.3515 5.0171L13.3302 5.04473L13.3214 5.05855C13.3158 5.06824 13.3095 5.07748 13.3025 5.08619C13.3009 5.09222 13.2979 5.09781 13.2937 5.10252L13.2787 5.13015C13.277 5.13581 13.274 5.14099 13.2699 5.14522C13.2646 5.15437 13.2604 5.16406 13.2573 5.17412C13.2549 5.18048 13.2515 5.18642 13.2473 5.1917C13.2428 5.19961 13.2395 5.20805 13.2372 5.21683L13.1895 5.23441L13.1819 5.25702L13.1731 5.2834L13.1644 5.3035L13.1556 5.33113C13.1559 5.33741 13.1559 5.3437 13.1556 5.34998L13.1556 5.37887C13.1541 5.38507 13.1541 5.39151 13.1556 5.39771L13.148 5.43037L13.148 5.44921C13.1468 5.45965 13.1468 5.47018 13.148 5.48062L13.148 5.50197C13.1467 5.51198 13.1467 5.52211 13.148 5.53212L13.148 18.2808C13.1432 18.4167 13.1659 18.5521 13.2146 18.679C13.2633 18.806 13.337 18.9218 13.4314 19.0196C13.5259 19.1175 13.639 19.1952 13.7642 19.2484C13.8893 19.3015 14.0239 19.3289 14.1599 19.3289C14.2958 19.3289 14.4304 19.3015 14.5555 19.2484C14.6807 19.1952 14.7938 19.1175 14.8883 19.0196C14.9827 18.9218 15.0565 18.806 15.1052 18.679C15.1538 18.5521 15.1765 18.4167 15.1717 18.2808L15.1717 8.14491L15.8136 8.80565C15.9061 8.90192 16.017 8.97853 16.1399 9.03085C16.2627 9.08318 16.3948 9.11015 16.5283 9.11015C16.6618 9.11015 16.794 9.08318 16.9168 9.03085C17.0396 8.97853 17.1506 8.90192 17.2431 8.80565C17.4328 8.60779 17.5387 8.34428 17.5387 8.07017C17.5387 7.79606 17.4328 7.53255 17.2431 7.33469L14.8777 4.89651L14.8401 4.86134C14.8345 4.856 14.8286 4.85097 14.8225 4.84626C14.8149 4.84124 14.8112 4.82742 14.8036 4.82742C14.7964 4.82117 14.7889 4.8153 14.781 4.80983L14.7659 4.79853L14.7383 4.77843C14.7343 4.774 14.7296 4.77019 14.7245 4.76712C14.7144 4.7621 14.7069 4.74954 14.6969 4.74954C14.6918 4.74692 14.6871 4.74353 14.683 4.73949C14.6717 4.73446 14.6655 4.72441 14.6554 4.72441C14.6498 4.72212 14.6446 4.7187 14.6403 4.71437C14.6318 4.70853 14.6225 4.70388 14.6127 4.70055C14.6069 4.69835 14.6014 4.69539 14.5964 4.69175C14.5883 4.68741 14.5799 4.68364 14.5712 4.68045C14.5639 4.67698 14.5564 4.67404 14.5486 4.67166L14.526 4.66286C14.5185 4.66035 14.5097 4.65281 14.5022 4.65281L14.4821 4.64528C14.472 4.64276 14.4594 4.63523 14.4544 4.63523L14.4381 4.63523L14.4079 4.62769C14.403 4.62629 14.3978 4.62629 14.3929 4.62769L14.3615 4.62015L14.3439 4.62015C14.3334 4.61895 14.3229 4.61895 14.3125 4.62015L14.2924 4.62015C14.2824 4.61894 14.2722 4.61894 14.2622 4.62015L14.1643 4.62015C14.1479 4.6188 14.1316 4.6188 14.1153 4.62015C14.1057 4.61886 14.096 4.61886 14.0864 4.62015C14.078 4.61892 14.0696 4.61892 14.0612 4.62015L14.0324 4.62015L14.0123 4.62015L13.9796 4.62015L13.9633 4.62015L13.9306 4.62769L13.9155 4.62769L13.8866 4.63523Z" fill="white"/>
<path d="M9.74135 19.3761L9.79159 19.3761L9.82174 19.3485L9.87073 19.3485C9.88703 19.3499 9.90342 19.3499 9.91972 19.3485C9.92809 19.3491 9.93648 19.3491 9.94484 19.3485C9.95275 19.3497 9.9608 19.3497 9.96871 19.3485L10.0516 19.3485C10.0571 19.3481 10.0625 19.3481 10.0679 19.3485L10.1006 19.3422C10.1055 19.3404 10.1108 19.3404 10.1157 19.3422L10.1446 19.3359L10.1622 19.3359C10.1719 19.3349 10.1813 19.3319 10.1898 19.3272L10.2086 19.3184L10.2338 19.3096L10.2564 19.3008C10.2639 19.2983 10.2714 19.2907 10.279 19.2907L10.3028 19.2807C10.3092 19.2783 10.3152 19.2749 10.3204 19.2706C10.3284 19.2649 10.3374 19.2607 10.3468 19.2581C10.3521 19.2552 10.3572 19.2518 10.3619 19.248C10.3707 19.2423 10.3799 19.2372 10.3895 19.2329C10.3946 19.2303 10.3993 19.2269 10.4033 19.2229C10.4134 19.2166 10.4259 19.2066 10.431 19.2041C10.436 19.2015 10.4448 19.1953 10.4448 19.1953C10.4548 19.1892 10.464 19.182 10.4724 19.1739L10.4875 19.1613L10.5101 19.1425C10.5176 19.1387 10.5214 19.1312 10.529 19.1249C10.5356 19.1213 10.5415 19.1167 10.5465 19.1111L10.5842 19.0747L10.6194 19.037L10.6332 19.0181C10.6382 19.0119 10.6508 19.0068 10.6508 18.9993C10.6575 18.992 10.6634 18.984 10.6684 18.9754L10.6797 18.9604L10.6998 18.9327L10.7098 18.9177C10.7149 18.9076 10.7274 18.8988 10.7274 18.89C10.7298 18.8841 10.7332 18.8785 10.7375 18.8737L10.7525 18.8461C10.7542 18.8404 10.7572 18.8352 10.7613 18.831C10.7666 18.8223 10.7708 18.813 10.7739 18.8033C10.7763 18.7966 10.7796 18.7902 10.784 18.7845C10.7888 18.7768 10.7922 18.7683 10.794 18.7594L10.804 18.7368L10.8116 18.7142L10.8204 18.6878L10.8292 18.6689L10.838 18.6413L10.838 18.6225L10.8455 18.5923C10.8471 18.5861 10.8471 18.5796 10.8455 18.5735L10.853 18.5408L10.853 18.4705C10.8544 18.46 10.8544 18.4495 10.853 18.4391L10.853 5.68914C10.8578 5.55326 10.8352 5.41782 10.7865 5.29087C10.7378 5.16393 10.6641 5.0481 10.5696 4.95029C10.4752 4.85247 10.362 4.77467 10.2369 4.72154C10.1117 4.66841 9.97717 4.64102 9.84121 4.64102C9.70525 4.64102 9.57069 4.66841 9.44554 4.72154C9.32039 4.77467 9.20723 4.85247 9.1128 4.95029C9.01837 5.0481 8.94461 5.16393 8.89592 5.29087C8.84722 5.41782 8.8246 5.55326 8.82938 5.68914L8.82938 15.8263L8.18749 15.1668C8.0951 15.0704 7.98414 14.9936 7.86131 14.9412C7.73847 14.8888 7.6063 14.8617 7.47274 14.8617C7.33918 14.8617 7.20701 14.8888 7.08418 14.9412C6.96134 14.9936 6.85039 15.0704 6.75799 15.1668C6.56816 15.3641 6.46212 15.6272 6.46212 15.901C6.46212 16.1748 6.56816 16.4379 6.75799 16.6352L9.12458 19.0985L9.16226 19.135C9.16785 19.1403 9.17372 19.1453 9.17985 19.15C9.18738 19.1588 9.19367 19.1626 9.2012 19.1701C9.2081 19.1771 9.21567 19.1835 9.22381 19.189L9.23889 19.2015C9.24768 19.2091 9.25647 19.2141 9.26652 19.2216C9.2709 19.2253 9.27551 19.2287 9.28034 19.2317C9.29039 19.2367 9.29793 19.2443 9.30798 19.2505C9.31347 19.2526 9.31858 19.2555 9.32305 19.2593C9.33181 19.2655 9.34105 19.271 9.35068 19.2757C9.35566 19.2785 9.3603 19.2818 9.3645 19.2857C9.37321 19.2909 9.38248 19.2951 9.39214 19.2983C9.3959 19.3071 9.40344 19.3071 9.40972 19.3071C9.41642 19.3131 9.42471 19.317 9.43359 19.3184C9.44113 19.3209 9.44866 19.3284 9.45494 19.3284L9.47756 19.3372L9.50268 19.346L9.52278 19.3535C9.53283 19.356 9.54162 19.3636 9.54916 19.3636C9.55543 19.3632 9.56172 19.3632 9.568 19.3636L9.59689 19.3699C9.60175 19.3717 9.60711 19.3717 9.61196 19.3699L9.64337 19.3761L9.66095 19.3761C9.6718 19.3774 9.68277 19.3774 9.69361 19.3761L9.71246 19.3761C9.72205 19.3773 9.73175 19.3773 9.74135 19.3761Z" fill="white"/>
</svg>
