<svg width="24" height="24" viewBox="0 0 24 24" fill="none" xmlns="http://www.w3.org/2000/svg">
<path fill-rule="evenodd" clip-rule="evenodd" d="M15 7.5C15 9.15685 13.6569 10.5 12 10.5C10.3432 10.5 9.00001 9.15685 9.00001 7.5C9.00001 5.84315 10.3432 4.5 12 4.5C13.6569 4.5 15 5.84315 15 7.5ZM16 7.5C16 9.70914 14.2092 11.5 12 11.5C9.79087 11.5 8.00001 9.70914 8.00001 7.5C8.00001 5.29086 9.79087 3.5 12 3.5C14.2092 3.5 16 5.29086 16 7.5ZM18.0015 19.5H17.9929H17.9843H17.9756H17.967H17.9583H17.9497H17.941H17.9323H17.9235H17.9148H17.9061H17.8973H17.8885H17.8797H17.8709H17.8621H17.8532H17.8444H17.8355H17.8266H17.8177H17.8088H17.7998H17.7909H17.7819H17.773H17.764H17.7549H17.7459H17.7369H17.7278H17.7188H17.7097H17.7006H17.6915H17.6823H17.6732H17.664H17.6549H17.6457H17.6365H17.6272H17.618H17.6088H17.5995H17.5902H17.5809H17.5716H17.5623H17.553H17.5436H17.5343H17.5249H17.5155H17.5061H17.4967H17.4872H17.4778H17.4683H17.4588H17.4493H17.4398H17.4303H17.4208H17.4112H17.4016H17.3921H17.3825H17.3729H17.3632H17.3536H17.3439H17.3343H17.3246H17.3149H17.3052H17.2955H17.2857H17.276H17.2662H17.2564H17.2466H17.2368H17.227H17.2172H17.2073H17.1975H17.1876H17.1777H17.1678H17.1579H17.148H17.138H17.1281H17.1181H17.1081H17.0981H17.0881H17.0781H17.068H17.058H17.0479H17.0378H17.0277H17.0176H17.0075H16.9974H16.9872H16.977H16.9669H16.9567H16.9465H16.9363H16.926H16.9158H16.9055H16.8953H16.885H16.8747H16.8644H16.8541H16.8437H16.8334H16.823H16.8126H16.8022H16.7918H16.7814H16.771H16.7606H16.7501H16.7396H16.7292H16.7187H16.7082H16.6976H16.6871H16.6766H16.666H16.6554H16.6449H16.6343H16.6237H16.613H16.6024H16.5918H16.5811H16.5704H16.5597H16.549H16.5383H16.5276H16.5169H16.5061H16.4954H16.4846H16.4738H16.463H16.4522H16.4414H16.4305H16.4197H16.4088H16.398H16.3871H16.3762H16.3653H16.3544H16.3434H16.3325H16.3215H16.3105H16.2996H16.2886H16.2776H16.2665H16.2555H16.2445H16.2334H16.2223H16.2113H16.2002H16.1891H16.178H16.1668H16.1557H16.1445H16.1334H16.1222H16.111H16.0998H16.0886H16.0774H16.0661H16.0549H16.0436H16.0324H16.0211H16.0098H15.9985H15.9872H15.9758H15.9645H15.9531H15.9418H15.9304H15.919H15.9076H15.8962H15.8848H15.8734H15.8619H15.8505H15.839H15.8275H15.816H15.8045H15.793H15.7815H15.77H15.7584H15.7468H15.7353H15.7237H15.7121H15.7005H15.6889H15.6773H15.6656H15.654H15.6423H15.6307H15.619H15.6073H15.5956H15.5839H15.5722H15.5604H15.5487H15.5369H15.5251H15.5134H15.5016H15.4898H15.478H15.4661H15.4543H15.4425H15.4306H15.4188H15.4069H15.395H15.3831H15.3712H15.3593H15.3473H15.3354H15.3235H15.3115H15.2995H15.2875H15.2755H15.2635H15.2515H15.2395H15.2275H15.2154H15.2034H15.1913H15.1792H15.1672H15.1551H15.143H15.1308H15.1187H15.1066H15.0944H15.0823H15.0701H15.0579H15.0457H15.0335H15.0213H15.0091H14.9969H14.9847H14.9724H14.9601H14.9479H14.9356H14.9233H14.911H14.8987H14.8864H14.8741H14.8617H14.8494H14.837H14.8247H14.8123H14.7999H14.7875H14.7751H14.7627H14.7503H14.7378H14.7254H14.7129H14.7005H14.688H14.6755H14.663H14.6505H14.638H14.6255H14.613H14.6004H14.5879H14.5753H14.5628H14.5502H14.5376H14.525H14.5124H14.4998H14.4872H14.4745H14.4619H14.4492H14.4366H14.4239H14.4112H14.3986H14.3859H14.3732H14.3604H14.3477H14.335H14.3223H14.3095H14.2967H14.284H14.2712H14.2584H14.2456H14.2328H14.22H14.2072H14.1944H14.1815H14.1687H14.1558H14.143H14.1301H14.1172H14.1043H14.0914H14.0785H14.0656H14.0527H14.0397H14.0268H14.0138H14.0009H13.9879H13.9749H13.962H13.949H13.936H13.923H13.9099H13.8969H13.8839H13.8708H13.8578H13.8447H13.8317H13.8186H13.8055H13.7924H13.7793H13.7662H13.7531H13.74H13.7268H13.7137H13.7005H13.6874H13.6742H13.661H13.6479H13.6347H13.6215H13.6083H13.5951H13.5818H13.5686H13.5554H13.5421H13.5289H13.5156H13.5023H13.4891H13.4758H13.4625H13.4492H13.4359H13.4226H13.4093H13.3959H13.3826H13.3693H13.3559H13.3425H13.3292H13.3158H13.3024H13.289H13.2756H13.2622H13.2488H13.2354H13.222H13.2085H13.1951H13.1817H13.1682H13.1547H13.1413H13.1278H13.1143H13.1008H13.0873H13.0738H13.0603H13.0468H13.0333H13.0197H13.0062H12.9926H12.9791H12.9655H12.952H12.9384H12.9248H12.9112H12.8976H12.884H12.8704H12.8568H12.8432H12.8295H12.8159H12.8022H12.7886H12.7749H12.7613H12.7476H12.7339H12.7202H12.7065H12.6929H12.6791H12.6654H12.6517H12.638H12.6243H12.6105H12.5968H12.583H12.5693H12.5555H12.5418H12.528H12.5142H12.5004H12.4866H12.4728H12.459H12.4452H12.4314H12.4176H12.4037H12.3899H12.376H12.3622H12.3483H12.3345H12.3206H12.3067H12.2929H12.279H12.2651H12.2512H12.2373H12.2234H12.2094H12.1955H12.1816H12.1677H12.1537H12.1398H12.1258H12.1119H12.0979H12.0839H12.07H12.056H12.042H12.028H12.014H12H11.986H11.972H11.958H11.944H11.9301H11.9161H11.9021H11.8882H11.8742H11.8602H11.8463H11.8324H11.8184H11.8045H11.7906H11.7767H11.7628H11.7488H11.735H11.7211H11.7072H11.6933H11.6794H11.6656H11.6517H11.6378H11.624H11.6101H11.5963H11.5825H11.5686H11.5548H11.541H11.5272H11.5134H11.4996H11.4858H11.472H11.4583H11.4445H11.4307H11.417H11.4032H11.3895H11.3758H11.362H11.3483H11.3346H11.3209H11.3072H11.2935H11.2798H11.2661H11.2524H11.2388H11.2251H11.2114H11.1978H11.1841H11.1705H11.1569H11.1432H11.1296H11.116H11.1024H11.0888H11.0752H11.0616H11.0481H11.0345H11.0209H11.0074H10.9938H10.9803H10.9668H10.9532H10.9397H10.9262H10.9127H10.8992H10.8857H10.8722H10.8588H10.8453H10.8318H10.8184H10.8049H10.7915H10.778H10.7646H10.7512H10.7378H10.7244H10.711H10.6976H10.6842H10.6708H10.6575H10.6441H10.6308H10.6174H10.6041H10.5908H10.5774H10.5641H10.5508H10.5375H10.5242H10.511H10.4977H10.4844H10.4711H10.4579H10.4447H10.4314H10.4182H10.405H10.3918H10.3786H10.3654H10.3522H10.339H10.3258H10.3126H10.2995H10.2863H10.2732H10.2601H10.2469H10.2338H10.2207H10.2076H10.1945H10.1814H10.1684H10.1553H10.1422H10.1292H10.1162H10.1031H10.0901H10.0771H10.0641H10.0511H10.0381H10.0251H10.0121H9.99914H9.98618H9.97323H9.96029H9.94736H9.93444H9.92152H9.90861H9.89571H9.88282H9.86994H9.85707H9.8442H9.83135H9.8185H9.80567H9.79284H9.78002H9.7672H9.7544H9.74161H9.72882H9.71605H9.70328H9.69052H9.67777H9.66503H9.6523H9.63958H9.62686H9.61416H9.60147H9.58878H9.5761H9.56343H9.55078H9.53813H9.52549H9.51285H9.50023H9.48762H9.47502H9.46242H9.44984H9.43726H9.42469H9.41214H9.39959H9.38705H9.37452H9.362H9.34949H9.33699H9.3245H9.31202H9.29955H9.28709H9.27463H9.26219H9.24976H9.23733H9.22492H9.21251H9.20012H9.18773H9.17536H9.16299H9.15064H9.13829H9.12595H9.11363H9.10131H9.089H9.07671H9.06442H9.05214H9.03987H9.02762H9.01537H9.00313H8.9909H8.97869H8.96648H8.95428H8.9421H8.92992H8.91775H8.9056H8.89345H8.88131H8.86919H8.85707H8.84496H8.83287H8.82078H8.80871H8.79664H8.78459H8.77255H8.76051H8.74849H8.73648H8.72448H8.71248H8.7005H8.68853H8.67657H8.66462H8.65268H8.64075H8.62884H8.61693H8.60503H8.59315H8.58127H8.56941H8.55755H8.54571H8.53388H8.52205H8.51024H8.49844H8.48665H8.47488H8.46311H8.45135H8.43961H8.42787H8.41615H8.40443H8.39273H8.38104H8.36936H8.35769H8.34604H8.33439H8.32275H8.31113H8.29952H8.28791H8.27632H8.26474H8.25317H8.24162H8.23007H8.21854H8.20701H8.1955H8.184H8.17251H8.16103H8.14956H8.13811H8.12667H8.11523H8.10381H8.0924H8.081H8.06962H8.05824H8.04688H8.03553H8.02419H8.01286H8.00154H7.99024H7.97894H7.96766H7.95639H7.94513H7.93389H7.92265H7.91143H7.90022H7.88902H7.87783H7.86666H7.85549H7.84434H7.8332H7.82207H7.81096H7.79985H7.78876H7.77768H7.76661H7.75556H7.74451H7.73348H7.72246H7.71146H7.70046H7.68948H7.67851H7.66755H7.6566H7.64567H7.63475H7.62384H7.61294H7.60206H7.59118H7.58032H7.56948H7.55864H7.54782H7.53701H7.52621H7.51542H7.50465H7.49389H7.48314H7.47241H7.46169H7.45098H7.44028H7.4296H7.41892H7.40826H7.39762H7.38698H7.37636H7.36576H7.35516H7.34458H7.33401H7.32345H7.31291H7.30238H7.29186H7.28135H7.27086H7.26038H7.24991H7.23946H7.22902H7.21859H7.20818H7.19778H7.18739H7.17701H7.16665H7.1563H7.14597H7.13565H7.12534H7.11504H7.10476H7.09449H7.08423H7.07399H7.06376H7.05355H7.04334H7.03315H7.02298H7.01282H7.00267H6.99253H6.98241H6.9723H6.96221H6.95213H6.94206H6.932H6.92196H6.91194H6.90192H6.89192H6.88194H6.87197H6.86201H6.85206H6.84213H6.83221H6.82231H6.81242H6.80254H6.79268H6.78284H6.773H6.76318H6.75337H6.74358H6.7338H6.72404H6.71429H6.70455H6.69483H6.68512H6.67543H6.66575H6.65608H6.64643H6.63679H6.62717H6.61756H6.60797H6.59839H6.58882H6.57927H6.56973H6.56021H6.5507H6.5412H6.53172H6.52226H6.51281H6.50337H6.49395H6.48454H6.47514H6.46576H6.4564H6.44705H6.43772H6.42839H6.41909H6.4098H6.40052H6.39126H6.38201H6.37278H6.36356H6.35436H6.34517H6.33599H6.32683H6.31769H6.30856H6.29945H6.29035H6.28126H6.27219H6.26314H6.2541H6.24507H6.23606H6.22707H6.21809H6.20913H6.20018H6.19124H6.18232H6.17342H6.16453H6.15566H6.1468H6.13795H6.12913H6.12031H6.11152H6.10273H6.09397H6.08521H6.07648H6.06776H6.05905H6.05036H6.04169H6.03303H6.02438H6.01576H6.00714H5.99855C5.71599 19.5 5.47726 19.3826 5.33527 19.2301C5.20463 19.0898 5.1577 18.9298 5.20088 18.7479C5.94359 15.6196 8.68151 13.5 12 13.5C15.3185 13.5 18.0564 15.6196 18.7991 18.7479C18.8423 18.9298 18.7954 19.0898 18.6648 19.2301C18.5228 19.3826 18.284 19.5 18.0015 19.5ZM19.7721 18.5169C20.0272 19.5916 19.106 20.5 18.0015 20.5H12H5.99855C4.89398 20.5 3.97278 19.5916 4.22793 18.5169C5.08211 14.9191 8.23777 12.5 12 12.5C15.7622 12.5 18.9179 14.9191 19.7721 18.5169Z" fill="#121212"/>
</svg>
