<svg width="24" height="24" viewBox="0 0 24 24" fill="none" xmlns="http://www.w3.org/2000/svg">
<g opacity="0.9">
<path d="M24 20.3822C24 19.9694 23.9297 19.5727 23.8005 19.2047C23.3036 20.6243 21.9337 21.6443 20.3216 21.6443H3.6784L3.43847 21.6367C2.01079 21.5463 0.804872 20.6548 0.280772 19.4132L0.199579 19.204L0.129306 19.428C0.0450027 19.732 0 20.0519 0 20.3822C0 22.3803 1.64687 24 3.6784 24H20.3216C22.3531 24 24 22.3803 24 20.3822Z" fill="white"/>
<path fill-rule="evenodd" clip-rule="evenodd" d="M23.5713 12.3805C23.5713 6.09524 18.3906 1 12 1C5.60936 1 0.428726 6.09524 0.428726 12.3805C0.428726 15.3338 1.5725 18.0244 3.44814 20.047H20.5519C22.4275 18.0244 23.5713 15.3338 23.5713 12.3805ZM11.2622 17.501C11.6686 17.9007 12.3273 17.9007 12.7337 17.501L17.044 13.2619C17.4504 12.8622 17.4504 12.2143 17.044 11.8146C16.8411 11.6145 16.5747 11.5147 16.3082 11.5147C16.0418 11.5147 15.7754 11.615 15.5725 11.8146L13.0387 14.3066V8.22213C13.0387 7.65664 12.573 7.1986 11.998 7.1986C11.423 7.1986 10.9573 7.65664 10.9573 8.22213V14.3066L8.42354 11.8146C8.01715 11.4149 7.3584 11.4149 6.95202 11.8146C6.54563 12.2143 6.54563 12.8622 6.95202 13.2619L11.2622 17.501Z" fill="white"/>
</g>
</svg>
