<svg width="44" height="44" viewBox="0 0 44 44" fill="none" xmlns="http://www.w3.org/2000/svg">
<g clip-path="url(#clip0_1431_45066)">
<path d="M42 4.64474V39.3553C42 41.9277 39.8897 44 37.3237 44H6.67626C4.08633 44 2 41.9039 2 39.3553V4.64474C2 2.07227 4.11031 0 6.67626 0H37.3237C39.9137 0 42 2.07227 42 4.64474Z" fill="#E44C4C"/>
<path opacity="0.7" d="M42 4.77713V13.6148C36.964 16.3341 29.8657 18 22 18C14.1343 18 7.03597 16.3096 2 13.6148V4.77713C2 2.13134 4.11031 0 6.67626 0H37.3237C39.9137 0 42 2.13134 42 4.77713Z" fill="#FFE1E1"/>
<path d="M15.6494 18.2778C15.6494 19.112 15.8137 19.938 16.1329 20.7086C16.4522 21.4793 16.92 22.1795 17.5099 22.7694C18.0997 23.3592 18.8 23.8271 19.5706 24.1463C20.3413 24.4656 21.1673 24.6299 22.0015 24.6299C22.8356 24.6299 23.6616 24.4656 24.4323 24.1463C25.2029 23.8271 25.9032 23.3592 26.493 22.7694C27.0829 22.1795 27.5507 21.4793 27.87 20.7086C28.1892 19.938 28.3535 19.112 28.3535 18.2778C28.3535 17.4437 28.1892 16.6177 27.87 15.847C27.5507 15.0763 27.0829 14.3761 26.493 13.7863C25.9032 13.1964 25.2029 12.7285 24.4323 12.4093C23.6616 12.0901 22.8356 11.9258 22.0015 11.9258C21.1673 11.9258 20.3413 12.0901 19.5706 12.4093C18.8 12.7285 18.0997 13.1964 17.5099 13.7863C16.92 14.3761 16.4522 15.0763 16.1329 15.847C15.8137 16.6177 15.6494 17.4437 15.6494 18.2778Z" fill="white"/>
<path opacity="0.7" d="M24.4078 19.0376C24.5977 19.0376 24.7666 19.122 24.8932 19.2275C25.0198 19.333 25.0831 19.5229 25.0831 19.7129C25.0831 20.0927 24.7666 20.3882 24.4078 20.3882H22.6985V21.8021C22.6985 22.1819 22.3819 22.4774 22.0232 22.4774H21.9176C21.5378 22.4774 21.2423 22.1608 21.2423 21.8021V20.4093H19.5752C19.3853 20.4093 19.2164 20.3249 19.0898 20.2193C18.9632 20.0927 18.8999 19.9239 18.8999 19.734C18.8999 19.3541 19.2164 19.0587 19.5752 19.0587H21.2423V18.2778H19.5752C19.3853 18.2778 19.2164 18.1934 19.0898 18.0879C18.9632 17.9613 18.8999 17.7925 18.8999 17.6025C18.8999 17.2227 19.2164 16.9272 19.5752 16.9272H21.0102L19.3853 15.3023C19.1109 15.028 19.1109 14.6059 19.3853 14.3316L19.4486 14.2683C19.7229 13.9939 20.145 13.9939 20.4193 14.2683L21.981 15.8299L23.5426 14.2683C23.8169 13.9939 24.239 13.9939 24.5133 14.2683L24.5766 14.3316C24.851 14.6059 24.851 15.028 24.5766 15.3023L22.9517 16.9272H24.4289C24.8088 16.9272 25.1042 17.2438 25.1042 17.6025C25.1042 17.9824 24.7877 18.2778 24.4289 18.2778H22.7196V19.0587H24.4078V19.0376Z" fill="#E44C4C"/>
</g>
<defs>
<clipPath id="clip0_1431_45066">
<rect width="44" height="44" fill="white"/>
</clipPath>
</defs>
</svg>
