<svg width="44" height="44" viewBox="0 0 44 44" fill="none" xmlns="http://www.w3.org/2000/svg">
<g clip-path="url(#clip0_1431_45165)">
<path d="M41.9995 4.64474V39.3553C41.9995 41.9277 39.8892 44 37.3233 44H6.67577C4.08584 44 1.99951 41.9039 1.99951 39.3553V4.64474C1.99951 2.07227 4.10982 0 6.67577 0H37.3233C39.9132 0 41.9995 2.07227 41.9995 4.64474Z" fill="#E44C4C"/>
<path opacity="0.7" d="M41.9995 4.77713V13.6148C36.9635 16.3341 29.8652 18 21.9995 18C14.1338 18 7.03548 16.3096 1.99951 13.6148V4.77713C1.99951 2.13134 4.10982 0 6.67577 0H37.3233C39.9132 0 41.9995 2.13134 41.9995 4.77713Z" fill="#F75B5B"/>
<path d="M15.6479 17.0727C15.6479 17.9069 15.8122 18.7329 16.1315 19.5036C16.4507 20.2742 16.9186 20.9745 17.5084 21.5643C18.0983 22.1542 18.7985 22.622 19.5692 22.9413C20.3398 23.2605 21.1658 23.4248 22 23.4248C22.8341 23.4248 23.6601 23.2605 24.4308 22.9413C25.2015 22.622 25.9017 22.1542 26.4916 21.5643C27.0814 20.9745 27.5493 20.2742 27.8685 19.5036C28.1877 18.7329 28.352 17.9069 28.352 17.0727C28.352 16.2386 28.1877 15.4126 27.8685 14.6419C27.5493 13.8713 27.0814 13.171 26.4916 12.5812C25.9017 11.9913 25.2015 11.5234 24.4308 11.2042C23.6601 10.885 22.8341 10.7207 22 10.7207C21.1658 10.7207 20.3398 10.885 19.5692 11.2042C18.7985 11.5234 18.0983 11.9913 17.5084 12.5812C16.9186 13.171 16.4507 13.8713 16.1315 14.6419C15.8122 15.4126 15.6479 16.2386 15.6479 17.0727Z" fill="white"/>
<path opacity="0.7" d="M24.4063 17.8325C24.5963 17.8325 24.7651 17.9169 24.8917 18.0224C25.0183 18.1279 25.0816 18.3179 25.0816 18.5078C25.0816 18.8876 24.7651 19.1831 24.4063 19.1831H22.697V20.597C22.697 20.9768 22.3804 21.2723 22.0217 21.2723H21.9162C21.5363 21.2723 21.2409 20.9557 21.2409 20.597V19.2042H19.5737C19.3838 19.2042 19.215 19.1198 19.0884 19.0143C18.9617 18.8876 18.8984 18.7188 18.8984 18.5289C18.8984 18.149 19.215 17.8536 19.5737 17.8536H21.2409V17.0728H19.5737C19.3838 17.0728 19.215 16.9884 19.0884 16.8828C18.9617 16.7562 18.8984 16.5874 18.8984 16.3975C18.8984 16.0176 19.215 15.7222 19.5737 15.7222H21.0087L19.3838 14.0972C19.1095 13.8229 19.1095 13.4008 19.3838 13.1265L19.4471 13.0632C19.7215 12.7888 20.1435 12.7888 20.4179 13.0632L21.9795 14.6248L23.5411 13.0632C23.8155 12.7888 24.2375 12.7888 24.5119 13.0632L24.5752 13.1265C24.8495 13.4008 24.8495 13.8229 24.5752 14.0972L22.9502 15.7222H24.4275C24.8073 15.7222 25.1028 16.0387 25.1028 16.3975C25.1028 16.7773 24.7862 17.0728 24.4275 17.0728H22.7181V17.8536H24.4063V17.8325Z" fill="#E44C4C"/>
</g>
<defs>
<clipPath id="clip0_1431_45165">
<rect width="44" height="44" fill="white"/>
</clipPath>
</defs>
</svg>
