<svg width="20" height="20" viewBox="0 0 20 20" fill="none" xmlns="http://www.w3.org/2000/svg">
<path fill-rule="evenodd" clip-rule="evenodd" d="M2.29199 4.58335C2.29199 3.3177 3.31801 2.29169 4.58366 2.29169H6.25033C6.5955 2.29169 6.87533 2.57151 6.87533 2.91669C6.87533 3.26187 6.5955 3.54169 6.25033 3.54169H4.58366C4.00836 3.54169 3.54199 4.00806 3.54199 4.58335V6.25002C3.54199 6.5952 3.26217 6.87502 2.91699 6.87502C2.57181 6.87502 2.29199 6.5952 2.29199 6.25002V4.58335ZM13.1253 2.91669C13.1253 2.57151 13.4051 2.29169 13.7503 2.29169H15.417C16.6827 2.29169 17.7087 3.31771 17.7087 4.58335V6.25002C17.7087 6.5952 17.4288 6.87502 17.0837 6.87502C16.7385 6.87502 16.4587 6.5952 16.4587 6.25002V4.58335C16.4587 4.00805 15.9923 3.54169 15.417 3.54169H13.7503C13.4051 3.54169 13.1253 3.26187 13.1253 2.91669ZM5.37536 10C5.37536 9.65484 5.65518 9.37502 6.00036 9.37502H14.0003C14.3455 9.37502 14.6253 9.65484 14.6253 10C14.6253 10.3452 14.3455 10.625 14.0003 10.625H6.00036C5.65518 10.625 5.37536 10.3452 5.37536 10ZM2.91699 13.125C3.26217 13.125 3.54199 13.4048 3.54199 13.75V15.4167C3.54199 15.992 4.00836 16.4584 4.58366 16.4584H6.25033C6.5955 16.4584 6.87533 16.7382 6.87533 17.0834C6.87533 17.4285 6.5955 17.7084 6.25033 17.7084H4.58366C3.31801 17.7084 2.29199 16.6824 2.29199 15.4167V13.75C2.29199 13.4048 2.57181 13.125 2.91699 13.125ZM17.0837 13.125C17.4288 13.125 17.7087 13.4048 17.7087 13.75V15.4167C17.7087 16.6824 16.6827 17.7084 15.417 17.7084H13.7503C13.4051 17.7084 13.1253 17.4285 13.1253 17.0834C13.1253 16.7382 13.4051 16.4584 13.7503 16.4584H15.417C15.9923 16.4584 16.4587 15.992 16.4587 15.4167V13.75C16.4587 13.4048 16.7385 13.125 17.0837 13.125Z" fill="black"/>
</svg>
