<svg width="24" height="24" viewBox="0 0 24 24" fill="none" xmlns="http://www.w3.org/2000/svg">
    <path d="M19 9.5V6C19 4.8954 17.9554 4 16.6667 4H7.33333C6.04467 4 5 4.8954 5 6V20L7.66667 18.5L9.5 20M9.08333 8H15.5M9.08333 11H12.5833" stroke="#121212" stroke-width="1.5" stroke-linecap="round"/>
    <path d="M16 13.8421V16.4737C16 16.7644 16.2356 17 16.5263 17H19.1579M16 22C13.2386 22 11 19.7614 11 17C11 14.2386 13.2386 12 16 12C18.7614 12 21 14.2386 21 17C21 19.7614 18.7614 22 16 22Z" stroke="#121212" stroke-width="1.5" stroke-linecap="round"/>
</svg>
