<svg width="17" height="16" viewBox="0 0 17 16" fill="none" xmlns="http://www.w3.org/2000/svg">
<path fill-rule="evenodd" clip-rule="evenodd" d="M0.5 8C0.5 3.58182 4.08182 0 8.5 0C10.6217 0 12.6566 0.842855 14.1569 2.34315C15.6571 3.84344 16.5 5.87827 16.5 8C16.5 12.4182 12.9182 16 8.5 16C4.08182 16 0.5 12.4182 0.5 8ZM9.98115 3.99997H11.6666L10.1386 7.03379H10.9699V8.15742H9.56551L9.27315 8.71888V9.29197H10.9699V10.4156H9.27315V12H7.7226V10.4156H6.01497V9.29197H7.7226V8.71888L7.4306 8.15742H6.01497V7.03379H6.85751L5.31824 3.99997H7.01497L8.49787 7.23597L9.98115 3.99997Z" fill="#FF3D44"/>
</svg>
