<svg width="17" height="16" viewBox="0 0 17 16" fill="none" xmlns="http://www.w3.org/2000/svg">
<path d="M9.38172 8.55031V7.17498C11.3282 7.25687 12.7896 7.59283 12.7896 7.99808C12.7896 8.46212 10.862 8.83797 8.48513 8.83797C6.10822 8.83797 4.18067 8.46212 4.18067 7.99808C4.18067 7.59493 5.62319 7.26107 7.55284 7.17708V8.55031H9.38172Z" fill="#1BA27A"/>
<path fill-rule="evenodd" clip-rule="evenodd" d="M0.5 8C0.5 3.58215 4.08215 0 8.5 0C12.9178 0 16.5 3.58215 16.5 8C16.5 12.4178 12.9178 16 8.5 16C4.08215 16 0.5 12.4178 0.5 8ZM9.38189 9.20105C11.6223 9.10656 13.3168 8.66562 13.3168 8.13648C13.3168 7.60735 11.6244 7.1664 9.38189 7.07402V5.86247H12.2543V4.0336H4.67848V5.86457H7.55302V7.07612C5.3273 7.1727 3.65171 7.61155 3.65171 8.13858C3.65171 8.66562 5.3315 9.10446 7.55302 9.20105V13.0583H9.38189V9.20105Z" fill="#1BA27A"/>
</svg>
