<svg width="24" height="24" viewBox="0 0 24 24" fill="none" xmlns="http://www.w3.org/2000/svg">
<path d="M12 1L21 5.2516V12.5488C21 16.4553 17.7929 20.5578 12.6907 22.0101L12.4773 22.0693L12 22.1927L11.5171 22.0677C6.456 20.7141 3.1944 16.7377 3.00771 12.8548L3.00154 12.6887L3 5.25211L12 1ZM11.9995 2.7064L4.54234 6.22874L4.5444 12.6686C4.6236 15.7929 7.26343 19.162 11.4955 20.457L11.7012 20.5182L11.91 20.5758L11.999 20.5989L12.0843 20.5773C16.4985 19.3965 19.2823 16.0177 19.4489 12.8497L19.4551 12.699L19.4571 12.5488V6.22874L11.9995 2.7064ZM14.9782 8.96855C15.2794 8.66736 15.7678 8.66737 16.069 8.96858C16.3702 9.26981 16.3702 9.75819 16.069 10.0594L12.0191 14.1093C11.8456 14.2828 11.5644 14.2828 11.391 14.1093L8.79594 11.5143C8.49474 11.2131 8.49474 10.7247 8.79594 10.4235C9.09717 10.1223 9.58555 10.1223 9.88674 10.4236L11.4897 12.0269C11.6083 12.1456 11.8007 12.1456 11.9194 12.0269L14.9782 8.96855Z" fill="#1677FF"/>
</svg>
