<svg width="29" height="30" viewBox="0 0 29 30" fill="none" xmlns="http://www.w3.org/2000/svg">
<path fill-rule="evenodd" clip-rule="evenodd" d="M17.9702 4.05892C17.7266 3.72393 17.2575 3.64987 16.9225 3.8935C16.5875 4.13713 16.5135 4.60619 16.7571 4.94118L19.5272 8.75005H5C4.58579 8.75005 4.25 9.08584 4.25 9.50005C4.25 9.91427 4.58579 10.2501 5 10.2501H21C21.2821 10.2501 21.5403 10.0918 21.6683 9.84039C21.7963 9.58901 21.7725 9.28706 21.6066 9.05892L17.9702 4.05892ZM5.00004 14.7501C4.70593 14.7501 4.43897 14.922 4.31726 15.1897C4.19556 15.4575 4.24158 15.7716 4.43497 15.9932L8.79861 20.9932C9.07097 21.3053 9.54475 21.3375 9.85683 21.0651C10.1689 20.7928 10.2011 20.319 9.92874 20.0069L6.65004 16.2501H21C21.4143 16.2501 21.75 15.9143 21.75 15.5001C21.75 15.0858 21.4143 14.7501 21 14.7501H5.00004Z" fill="#007AFF"/>
</svg>
