<svg width="24" height="24" viewBox="0 0 24 24" fill="none" xmlns="http://www.w3.org/2000/svg">
<g opacity="0.9">
<path d="M24 20.3822C24 19.9694 23.9297 19.5727 23.8005 19.2047C23.3036 20.6243 21.9337 21.6443 20.3216 21.6443H3.6784L3.43847 21.6367C2.01079 21.5463 0.804872 20.6548 0.280772 19.4132L0.199579 19.204L0.129306 19.428C0.0450027 19.732 0 20.0519 0 20.3822C0 22.3803 1.64687 24 3.6784 24H20.3216C22.3531 24 24 22.3803 24 20.3822Z" fill="white"/>
<path fill-rule="evenodd" clip-rule="evenodd" d="M23.5713 12.3805C23.5713 6.09524 18.3906 1 12 1C5.60936 1 0.428726 6.09524 0.428726 12.3805C0.428726 15.3338 1.5725 18.0244 3.44814 20.047H20.5519C22.4275 18.0244 23.5713 15.3338 23.5713 12.3805ZM11.2622 7.49898C11.6686 7.0993 12.3273 7.0993 12.7337 7.49898L17.044 11.7381C17.4504 12.1378 17.4504 12.7857 17.044 13.1854C16.8411 13.3855 16.5747 13.4853 16.3082 13.4853C16.0418 13.4853 15.7754 13.385 15.5725 13.1854L13.0387 10.6934V16.7779C13.0387 17.3434 12.573 17.8014 11.998 17.8014C11.423 17.8014 10.9573 17.3434 10.9573 16.7779V10.6934L8.42354 13.1854C8.01715 13.5851 7.3584 13.5851 6.95202 13.1854C6.54563 12.7857 6.54563 12.1378 6.95202 11.7381L11.2622 7.49898Z" fill="white"/>
</g>
</svg>
