<svg width="20" height="20" viewBox="0 0 20 20" fill="none" xmlns="http://www.w3.org/2000/svg">
    <path d="M1.85938 19.1458C1.37327 19.1458 0.969797 18.9851 0.648963 18.6635C0.327435 18.3427 0.166672 17.9392 0.166672 17.4531V4.17187C0.166672 3.68576 0.327435 3.28194 0.648963 2.96042C0.969797 2.63958 1.37327 2.47917 1.85938 2.47917H10.349L9.3073 3.52083H1.85938C1.68577 3.52083 1.53403 3.58576 1.40417 3.71562C1.27362 3.84618 1.20834 3.99826 1.20834 4.17187V17.4531C1.20834 17.6267 1.27362 17.7785 1.40417 17.9083C1.53403 18.0389 1.68577 18.1042 1.85938 18.1042H15.1406C15.3142 18.1042 15.466 18.0389 15.5958 17.9083C15.7264 17.7785 15.7917 17.6267 15.7917 17.4531V10.0052L16.8333 8.96354V17.4531C16.8333 17.9392 16.6729 18.3427 16.3521 18.6635C16.0306 18.9851 15.6267 19.1458 15.1406 19.1458H1.85938ZM13.5781 2.76562L14.3594 3.49479L7.45834 10.3698V11.8542H8.91667L15.8698 4.95312L16.5729 5.68229L9.77605 12.4792C9.65452 12.6181 9.50695 12.7222 9.33334 12.7917C9.15973 12.8611 8.98612 12.8958 8.8125 12.8958H7.25001C7.00695 12.8958 6.8073 12.8177 6.65105 12.6615C6.4948 12.5052 6.41667 12.3056 6.41667 12.0625V10.5C6.41667 10.3264 6.45139 10.1528 6.52084 9.97917C6.59028 9.80555 6.68577 9.65799 6.8073 9.53646L13.5781 2.76562ZM16.5729 5.68229L13.5781 2.76562L15.7656 0.604167C16.0781 0.274305 16.4733 0.109375 16.951 0.109375C17.4281 0.109375 17.8229 0.274305 18.1354 0.604167L18.7083 1.17708C19.0382 1.50694 19.2031 1.90208 19.2031 2.3625C19.2031 2.82222 19.0382 3.21701 18.7083 3.54687L16.5729 5.68229Z" fill="#243BB3"/>
</svg>