<svg width="20" height="20" viewBox="0 0 20 20" fill="none" xmlns="http://www.w3.org/2000/svg">
<g id="Icon - Chat">
<mask id="mask0_2169_163508" style="mask-type:alpha" maskUnits="userSpaceOnUse" x="0" y="0" width="20" height="20">
<rect id="Bounding box" width="20" height="20" fill="#243BB3"/>
</mask>
<g mask="url(#mask0_2169_163508)">
<path id="arrow_forward_ios" d="M6.22915 17.3125C6.10415 17.1875 6.04165 17.0383 6.04165 16.865C6.04165 16.6911 6.10415 16.5417 6.22915 16.4167L12.6458 10L6.20831 3.5625C6.08331 3.4375 6.02081 3.29167 6.02081 3.125C6.02081 2.95833 6.09026 2.8125 6.22915 2.6875C6.35415 2.5625 6.50359 2.5 6.67748 2.5C6.85081 2.5 6.99998 2.5625 7.12498 2.6875L13.9583 9.52083C14.0278 9.60417 14.0764 9.68389 14.1041 9.76C14.1319 9.83667 14.1458 9.91667 14.1458 10C14.1458 10.0833 14.1319 10.1631 14.1041 10.2392C14.0764 10.3158 14.0278 10.3958 13.9583 10.4792L7.10415 17.3333C6.97915 17.4583 6.83692 17.5208 6.67748 17.5208C6.51748 17.5208 6.36804 17.4514 6.22915 17.3125Z" fill="#121212"/>
</g>
</g>
</svg>
