<svg width="20" height="20" viewBox="0 0 20 20" fill="none" xmlns="http://www.w3.org/2000/svg">
<path d="M10.0714 15.4C9.33415 15.5053 9.02295 14.5628 9.54957 14.0361L9.69307 13.8926C9.77068 13.815 9.87595 13.7714 9.98571 13.7714V13.7714C12.9 13.7714 15.0429 12.6571 16.6714 10.3429C16.3658 9.93532 16.0298 9.55806 15.6816 9.21108C15.3139 8.8446 15.3098 8.23724 15.7021 7.89721V7.89721C16.0146 7.6264 16.4798 7.61704 16.7746 7.907C17.4828 8.60366 18.0906 9.44546 18.6429 10.3429C16.6714 13.7714 13.7571 15.4 10.0714 15.4V15.4ZM3.99676 12.3014C3.71338 12.632 3.207 12.6525 2.92052 12.3246C2.42352 11.7557 1.93883 11.0951 1.5 10.3429C3.47143 6.91429 6.38571 5.28571 10.0714 5.28571V5.28571C10.4194 5.28571 10.5936 5.70639 10.3476 5.95242L9.53087 6.76913C9.38204 6.91796 9.18373 7.00615 8.97429 7.02708C6.56136 7.26818 4.695 8.37344 3.3 10.3429C3.4925 10.6316 3.71201 10.9203 3.94338 11.1788C4.22539 11.4937 4.27189 11.9804 3.99676 12.3014V12.3014ZM14.3571 4.6C14.6885 4.26863 15.2258 4.26863 15.5571 4.6V4.6C15.8885 4.93137 15.8885 5.46863 15.5571 5.8L5.95714 15.4C5.62577 15.7314 5.08851 15.7314 4.75714 15.4V15.4C4.42577 15.0686 4.42577 14.5314 4.75714 14.2L14.3571 4.6Z" fill="white"/>
</svg>
