<svg width="24" height="24" viewBox="0 0 24 24" fill="none" xmlns="http://www.w3.org/2000/svg">
<rect width="24" height="24" rx="4" fill="#FF9500"/>
<path d="M10.3574 11.7208C10.7994 12.1633 11.3474 12.3846 12.0012 12.3846C12.655 12.3846 13.203 12.1633 13.645 11.7208C14.0876 11.2787 14.3089 10.7308 14.3089 10.0769C14.3089 9.42306 14.0876 8.87485 13.645 8.43229C13.203 7.99024 12.655 7.76921 12.0012 7.76921C11.3474 7.76921 10.7994 7.99024 10.3574 8.43229C9.91479 8.87485 9.69351 9.42306 9.69351 10.0769C9.69351 10.7308 9.91479 11.2787 10.3574 11.7208Z" fill="white"/>
<path fill-rule="evenodd" clip-rule="evenodd" d="M19 12C19 15.866 15.866 19 12 19C8.13401 19 5 15.866 5 12C5 8.13401 8.13401 5 12 5C15.866 5 19 8.13401 19 12ZM7.63867 15.3514C7.66832 15.3545 7.699 15.3562 7.73077 15.3562C8.38462 14.8946 9.07692 14.5262 9.80769 14.2508C10.5385 13.9749 11.3333 13.8369 12.1923 13.8369C13.0513 13.8369 13.8462 13.9749 14.5769 14.2508C15.2352 14.4988 15.8623 14.8225 16.4582 15.2216C17.1136 14.3162 17.5 13.2032 17.5 12C17.5 8.96243 15.0376 6.5 12 6.5C8.96243 6.5 6.5 8.96243 6.5 12C6.5 13.2613 6.9246 14.4235 7.63867 15.3514Z" fill="white"/>
</svg>
