<svg width="24" height="24" viewBox="0 0 24 24" fill="none" xmlns="http://www.w3.org/2000/svg">
<path fill-rule="evenodd" clip-rule="evenodd" d="M6.57256 2.83945C7.77415 1.63787 9.40328 0.961946 11.1026 0.959961C14.6381 0.959961 17.5136 3.83546 17.5136 7.36946C17.5136 10.9035 14.6366 13.779 11.1026 13.779C8.98023 13.7821 6.94578 14.6268 5.44534 16.1278C3.9449 17.6288 3.10095 19.6636 3.09857 21.786C3.08634 21.9817 2.99995 22.1655 2.85698 22.2998C2.71402 22.4341 2.52523 22.5089 2.32907 22.5089C2.13291 22.5089 1.94413 22.4341 1.80116 22.2998C1.65819 22.1655 1.5718 21.9817 1.55957 21.786C1.55957 17.8065 4.08857 14.2215 7.78457 12.843C5.88707 11.6895 4.69307 9.60746 4.69307 7.36946C4.69506 5.67017 5.37098 4.04104 6.57256 2.83945ZM14.5458 10.8142C15.4592 9.9009 15.973 8.66261 15.9746 7.37096C15.973 6.07945 15.4591 4.84132 14.5457 3.92822C13.6324 3.01513 12.3941 2.50165 11.1026 2.50046C9.81132 2.50205 8.57341 3.0157 7.66036 3.92875C6.74731 4.8418 6.23366 6.07971 6.23207 7.37096C6.23326 8.66247 6.74674 9.90076 7.65983 10.8141C8.57293 11.7275 9.81106 12.2414 11.1026 12.243C12.3942 12.2414 13.6325 11.7276 14.5458 10.8142Z" fill="#121212"/>
<path d="M17.4051 22.7824C17.539 22.9162 17.7203 22.9916 17.9096 22.992C18.0033 22.992 18.0961 22.9734 18.1827 22.9374C18.2693 22.9014 18.3478 22.8486 18.4139 22.7821C18.48 22.7156 18.5323 22.6367 18.5677 22.5499C18.6032 22.4631 18.6212 22.3702 18.6206 22.2765V19.0664H21.8365C22.026 19.0662 22.2078 18.9907 22.3417 18.8565C22.4756 18.7224 22.5507 18.5405 22.5505 18.3509C22.5503 18.1614 22.4748 17.9796 22.3406 17.8457C22.2064 17.7118 22.0245 17.6367 21.835 17.6369H18.6206V14.4255C18.6228 14.2989 18.5914 14.1739 18.5294 14.0635C18.4675 13.953 18.3773 13.8611 18.2681 13.797C18.1587 13.7335 18.0345 13.7001 17.9081 13.7004C17.7817 13.7006 17.6576 13.7344 17.5485 13.7984C17.4394 13.8623 17.3493 13.954 17.2873 14.0642C17.2253 14.1744 17.1936 14.299 17.1956 14.4255V17.6369H13.984C13.7948 17.6381 13.6138 17.7136 13.4799 17.8472C13.346 17.9809 13.2701 18.1618 13.2685 18.3509C13.2697 18.5403 13.3454 18.7216 13.4793 18.8555C13.6133 18.9895 13.7946 19.0652 13.984 19.0664H17.1956V22.278C17.196 22.4672 17.2713 22.6486 17.4051 22.7824Z" fill="#121212"/>
</svg>
