<svg width="24" height="24" viewBox="0 0 24 24" fill="none" xmlns="http://www.w3.org/2000/svg">
<path fill-rule="evenodd" clip-rule="evenodd" d="M21 1.75C21 1.47386 20.7761 1.25 20.5 1.25C20.2239 1.25 20 1.47386 20 1.75V3.75H18C17.7239 3.75 17.5 3.97386 17.5 4.25C17.5 4.52614 17.7239 4.75 18 4.75H20V6.75C20 7.02614 20.2239 7.25 20.5 7.25C20.7761 7.25 21 7.02614 21 6.75V4.75H23C23.2761 4.75 23.5 4.52614 23.5 4.25C23.5 3.97386 23.2761 3.75 23 3.75H21V1.75Z" fill="white"/>
<circle cx="12.3242" cy="7" r="4.5" fill="white"/>
<path d="M21.6114 19.5147C21.8491 20.5933 20.9308 21.5 19.8262 21.5C18.088 21.5 15.3739 21.5 12.3242 21.5C9.2745 21.5 6.56042 21.5 4.82219 21.5C3.71762 21.5 2.79931 20.5933 3.03704 19.5147C3.95888 15.3319 7.76678 12.5 12.3242 12.5C16.8817 12.5 20.6896 15.3319 21.6114 19.5147Z" fill="white"/>
</svg>
