<svg width="28" height="28" viewBox="0 0 28 28" fill="none" xmlns="http://www.w3.org/2000/svg">
<path d="M2.33398 25.6668C2.33398 21.2224 6.72498 14.8123 13.6051 14.8123M13.6051 14.8123C17.0452 14.8123 19.834 12.0188 19.834 8.57291C19.834 5.12697 17.0453 2.3335 13.6052 2.3335C10.1652 2.3335 7.37644 5.12697 7.37644 8.57291C7.37644 12.0188 10.165 14.8123 13.6051 14.8123Z" stroke="#007AFF" stroke-width="1.5" stroke-linecap="round"/>
<path d="M26.084 20.9998C26.084 23.7416 23.6158 26.0832 20.4173 26.0832C19.4345 26.0832 18.8741 25.881 18.5102 25.6914C18.3406 25.603 18.2062 25.5142 18.0594 25.4171C18.037 25.4022 18.0143 25.3872 17.9911 25.372L17.9856 25.3684C17.8371 25.2707 17.6032 25.1168 17.3284 25.0462C16.7658 24.9015 16.0673 25.0022 15.4821 25.1343C14.999 25.2433 14.5031 25.3961 14.063 25.5481C14.3603 24.5788 14.6987 23.2761 14.7498 22.2022C14.7653 21.8761 14.7599 21.5916 14.755 21.3346C14.7527 21.2178 14.7506 21.1067 14.7506 20.9998C14.7506 18.2581 17.2188 15.9165 20.4173 15.9165C23.6158 15.9165 26.084 18.2581 26.084 20.9998Z" stroke="#007AFF" stroke-width="1.5" stroke-linecap="round"/>
<path d="M18.666 21.0002L19.8327 22.1668L22.166 19.8335" stroke="#007AFF" stroke-width="1.5" stroke-linecap="round" stroke-linejoin="round"/>
</svg>
