<svg width="32" height="32" viewBox="0 0 32 32" fill="none" xmlns="http://www.w3.org/2000/svg">
<path d="M16 31C7.71625 31 1 24.2838 1 16C1 7.715 7.71625 1 16 1C24.2838 1 31 7.715 31 16C31 24.2838 24.2838 31 16 31ZM16 2.875C8.75 2.875 2.875 8.75 2.875 16C2.875 23.2488 8.75 29.125 16 29.125C23.2488 29.125 29.125 23.2488 29.125 16C29.125 8.75 23.2488 2.875 16 2.875ZM21.625 16.9375H16.9375V21.625C16.9375 21.8736 16.8387 22.1121 16.6629 22.2879C16.4871 22.4637 16.2486 22.5625 16 22.5625C15.7514 22.5625 15.5129 22.4637 15.3371 22.2879C15.1613 22.1121 15.0625 21.8736 15.0625 21.625V16.9375H10.375C10.1264 16.9375 9.8879 16.8387 9.71209 16.6629C9.53627 16.4871 9.4375 16.2486 9.4375 16C9.4375 15.7514 9.53627 15.5129 9.71209 15.3371C9.8879 15.1613 10.1264 15.0625 10.375 15.0625H15.0625V10.375C15.0625 10.1264 15.1613 9.8879 15.3371 9.71209C15.5129 9.53627 15.7514 9.4375 16 9.4375C16.2486 9.4375 16.4871 9.53627 16.6629 9.71209C16.8387 9.8879 16.9375 10.1264 16.9375 10.375V15.0625H21.625C21.8736 15.0625 22.1121 15.1613 22.2879 15.3371C22.4637 15.5129 22.5625 15.7514 22.5625 16C22.5625 16.2486 22.4637 16.4871 22.2879 16.6629C22.1121 16.8387 21.8736 16.9375 21.625 16.9375Z" fill="#121212"/>
</svg>
