<svg width="40" height="40" viewBox="0 0 40 40" fill="none" xmlns="http://www.w3.org/2000/svg">
<rect width="40" height="40" rx="20" fill="#F6F6F6"/>
<path fill-rule="evenodd" clip-rule="evenodd" d="M28.75 11C28.75 10.5858 28.4142 10.25 28 10.25C27.5858 10.25 27.25 10.5858 27.25 11V12.75H25.5C25.0858 12.75 24.75 13.0858 24.75 13.5C24.75 13.9142 25.0858 14.25 25.5 14.25H27.25V16C27.25 16.4142 27.5858 16.75 28 16.75C28.4142 16.75 28.75 16.4142 28.75 16V14.25H30.5C30.9142 14.25 31.25 13.9142 31.25 13.5C31.25 13.0858 30.9142 12.75 30.5 12.75H28.75V11Z" fill="#007BFC"/>
<circle cx="20.3242" cy="15" r="3.75" stroke="#007BFC" stroke-width="1.5"/>
<path d="M27.8262 28.75H27.816H27.8058H27.7956H27.7853H27.775H27.7647H27.7544H27.7441H27.7337H27.7233H27.7129H27.7024H27.692H27.6815H27.671H27.6604H27.6499H27.6393H27.6287H27.6181H27.6075H27.5968H27.5861H27.5754H27.5647H27.554H27.5432H27.5324H27.5216H27.5108H27.4999H27.489H27.4782H27.4672H27.4563H27.4453H27.4344H27.4234H27.4123H27.4013H27.3902H27.3791H27.368H27.3569H27.3457H27.3346H27.3234H27.3122H27.3009H27.2897H27.2784H27.2671H27.2558H27.2444H27.2331H27.2217H27.2103H27.1989H27.1874H27.176H27.1645H27.153H27.1415H27.1299H27.1184H27.1068H27.0952H27.0835H27.0719H27.0602H27.0485H27.0368H27.0251H27.0133H27.0016H26.9898H26.978H26.9661H26.9543H26.9424H26.9305H26.9186H26.9067H26.8947H26.8828H26.8708H26.8588H26.8467H26.8347H26.8226H26.8105H26.7984H26.7863H26.7741H26.762H26.7498H26.7376H26.7254H26.7131H26.7008H26.6886H26.6763H26.6639H26.6516H26.6392H26.6268H26.6144H26.602H26.5896H26.5771H26.5646H26.5521H26.5396H26.5271H26.5145H26.502H26.4894H26.4768H26.4641H26.4515H26.4388H26.4261H26.4134H26.4007H26.3879H26.3752H26.3624H26.3496H26.3368H26.3239H26.3111H26.2982H26.2853H26.2724H26.2595H26.2465H26.2336H26.2206H26.2076H26.1946H26.1815H26.1685H26.1554H26.1423H26.1292H26.116H26.1029H26.0897H26.0765H26.0633H26.0501H26.0369H26.0236H26.0103H25.997H25.9837H25.9704H25.957H25.9437H25.9303H25.9169H25.9035H25.89H25.8766H25.8631H25.8496H25.8361H25.8226H25.8091H25.7955H25.7819H25.7683H25.7547H25.7411H25.7274H25.7138H25.7001H25.6864H25.6727H25.6589H25.6452H25.6314H25.6176H25.6038H25.59H25.5762H25.5623H25.5485H25.5346H25.5207H25.5067H25.4928H25.4789H25.4649H25.4509H25.4369H25.4229H25.4088H25.3948H25.3807H25.3666H25.3525H25.3384H25.3243H25.3101H25.2959H25.2817H25.2675H25.2533H25.2391H25.2248H25.2106H25.1963H25.182H25.1677H25.1533H25.139H25.1246H25.1102H25.0958H25.0814H25.067H25.0525H25.0381H25.0236H25.0091H24.9946H24.9801H24.9655H24.951H24.9364H24.9218H24.9072H24.8926H24.878H24.8633H24.8486H24.834H24.8193H24.8045H24.7898H24.7751H24.7603H24.7455H24.7307H24.7159H24.7011H24.6863H24.6714H24.6566H24.6417H24.6268H24.6119H24.5969H24.582H24.567H24.5521H24.5371H24.5221H24.5071H24.492H24.477H24.4619H24.4468H24.4318H24.4166H24.4015H24.3864H24.3712H24.3561H24.3409H24.3257H24.3105H24.2953H24.28H24.2648H24.2495H24.2342H24.2189H24.2036H24.1883H24.173H24.1576H24.1422H24.1269H24.1115H24.0961H24.0806H24.0652H24.0497H24.0343H24.0188H24.0033H23.9878H23.9723H23.9567H23.9412H23.9256H23.91H23.8945H23.8789H23.8632H23.8476H23.832H23.8163H23.8006H23.7849H23.7692H23.7535H23.7378H23.7221H23.7063H23.6905H23.6748H23.659H23.6432H23.6273H23.6115H23.5957H23.5798H23.5639H23.548H23.5321H23.5162H23.5003H23.4844H23.4684H23.4524H23.4365H23.4205H23.4045H23.3884H23.3724H23.3564H23.3403H23.3243H23.3082H23.2921H23.276H23.2599H23.2437H23.2276H23.2114H23.1953H23.1791H23.1629H23.1467H23.1305H23.1142H23.098H23.0817H23.0655H23.0492H23.0329H23.0166H23.0003H22.9839H22.9676H22.9512H22.9349H22.9185H22.9021H22.8857H22.8693H22.8529H22.8364H22.82H22.8035H22.7871H22.7706H22.7541H22.7376H22.721H22.7045H22.688H22.6714H22.6549H22.6383H22.6217H22.6051H22.5885H22.5719H22.5552H22.5386H22.5219H22.5052H22.4886H22.4719H22.4552H22.4385H22.4217H22.405H22.3883H22.3715H22.3547H22.3379H22.3212H22.3043H22.2875H22.2707H22.2539H22.237H22.2202H22.2033H22.1864H22.1695H22.1526H22.1357H22.1188H22.1019H22.0849H22.068H22.051H22.034H22.0171H22.0001H21.9831H21.966H21.949H21.932H21.9149H21.8979H21.8808H21.8637H21.8466H21.8295H21.8124H21.7953H21.7782H21.7611H21.7439H21.7267H21.7096H21.6924H21.6752H21.658H21.6408H21.6236H21.6064H21.5891H21.5719H21.5546H21.5374H21.5201H21.5028H21.4855H21.4682H21.4509H21.4336H21.4162H21.3989H21.3815H21.3642H21.3468H21.3294H21.312H21.2946H21.2772H21.2598H21.2424H21.2249H21.2075H21.19H21.1726H21.1551H21.1376H21.1201H21.1026H21.0851H21.0676H21.0501H21.0325H21.015H20.9974H20.9799H20.9623H20.9447H20.9272H20.9096H20.892H20.8743H20.8567H20.8391H20.8214H20.8038H20.7861H20.7685H20.7508H20.7331H20.7154H20.6977H20.68H20.6623H20.6446H20.6269H20.6091H20.5914H20.5736H20.5559H20.5381H20.5203H20.5025H20.4847H20.4669H20.4491H20.4313H20.4135H20.3956H20.3778H20.3599H20.3421H20.3242H20.3064H20.2885H20.2706H20.2528H20.235H20.2171H20.1993H20.1815H20.1637H20.1459H20.1281H20.1103H20.0926H20.0748H20.0571H20.0393H20.0216H20.0038H19.9861H19.9684H19.9507H19.933H19.9153H19.8976H19.88H19.8623H19.8446H19.827H19.8094H19.7917H19.7741H19.7565H19.7389H19.7213H19.7037H19.6861H19.6685H19.651H19.6334H19.6159H19.5984H19.5808H19.5633H19.5458H19.5283H19.5108H19.4933H19.4759H19.4584H19.4409H19.4235H19.4061H19.3886H19.3712H19.3538H19.3364H19.319H19.3016H19.2843H19.2669H19.2496H19.2322H19.2149H19.1976H19.1802H19.1629H19.1456H19.1284H19.1111H19.0938H19.0766H19.0593H19.0421H19.0248H19.0076H18.9904H18.9732H18.956H18.9389H18.9217H18.9045H18.8874H18.8702H18.8531H18.836H18.8189H18.8018H18.7847H18.7676H18.7506H18.7335H18.7165H18.6994H18.6824H18.6654H18.6484H18.6314H18.6144H18.5974H18.5805H18.5635H18.5466H18.5296H18.5127H18.4958H18.4789H18.462H18.4451H18.4283H18.4114H18.3946H18.3777H18.3609H18.3441H18.3273H18.3105H18.2937H18.2769H18.2602H18.2434H18.2267H18.21H18.1933H18.1766H18.1599H18.1432H18.1265H18.1099H18.0932H18.0766H18.06H18.0433H18.0267H18.0102H17.9936H17.977H17.9605H17.9439H17.9274H17.9109H17.8944H17.8779H17.8614H17.8449H17.8284H17.812H17.7956H17.7791H17.7627H17.7463H17.7299H17.7136H17.6972H17.6808H17.6645H17.6482H17.6319H17.6155H17.5993H17.583H17.5667H17.5505H17.5342H17.518H17.5018H17.4856H17.4694H17.4532H17.437H17.4209H17.4047H17.3886H17.3725H17.3564H17.3403H17.3242H17.3081H17.2921H17.276H17.26H17.244H17.228H17.212H17.196H17.18H17.1641H17.1481H17.1322H17.1163H17.1004H17.0845H17.0686H17.0528H17.0369H17.0211H17.0053H16.9895H16.9737H16.9579H16.9421H16.9264H16.9106H16.8949H16.8792H16.8635H16.8478H16.8321H16.8165H16.8008H16.7852H16.7696H16.754H16.7384H16.7228H16.7072H16.6917H16.6762H16.6606H16.6451H16.6296H16.6142H16.5987H16.5832H16.5678H16.5524H16.537H16.5216H16.5062H16.4908H16.4755H16.4601H16.4448H16.4295H16.4142H16.3989H16.3837H16.3684H16.3532H16.3379H16.3227H16.3075H16.2924H16.2772H16.262H16.2469H16.2318H16.2167H16.2016H16.1865H16.1715H16.1564H16.1414H16.1264H16.1114H16.0964H16.0814H16.0664H16.0515H16.0366H16.0217H16.0068H15.9919H15.977H15.9622H15.9473H15.9325H15.9177H15.9029H15.8881H15.8734H15.8586H15.8439H15.8292H15.8145H15.7998H15.7851H15.7705H15.7558H15.7412H15.7266H15.712H15.6975H15.6829H15.6684H15.6538H15.6393H15.6248H15.6104H15.5959H15.5814H15.567H15.5526H15.5382H15.5238H15.5095H15.4951H15.4808H15.4665H15.4522H15.4379H15.4236H15.4094H15.3951H15.3809H15.3667H15.3525H15.3383H15.3242H15.31H15.2959H15.2818H15.2677H15.2537H15.2396H15.2256H15.2115H15.1975H15.1836H15.1696H15.1556H15.1417H15.1278H15.1139H15.1H15.0861H15.0723H15.0584H15.0446H15.0308H15.017H15.0032H14.9895H14.9758H14.962H14.9483H14.9347H14.921H14.9074H14.8937H14.8801H14.8665H14.8529H14.8394H14.8258H14.8123H14.7988H14.7853H14.7718H14.7584H14.745H14.7315H14.7181H14.7048H14.6914H14.678H14.6647H14.6514H14.6381H14.6248H14.6116H14.5983H14.5851H14.5719H14.5587H14.5455H14.5324H14.5193H14.5062H14.4931H14.48H14.4669H14.4539H14.4409H14.4279H14.4149H14.4019H14.389H14.376H14.3631H14.3502H14.3373H14.3245H14.3117H14.2988H14.286H14.2733H14.2605H14.2477H14.235H14.2223H14.2096H14.197H14.1843H14.1717H14.1591H14.1465H14.1339H14.1213H14.1088H14.0963H14.0838H14.0713H14.0589H14.0464H14.034H14.0216H14.0092H13.9969H13.9845H13.9722H13.9599H13.9476H13.9353H13.9231H13.9109H13.8986H13.8865H13.8743H13.8621H13.85H13.8379H13.8258H13.8137H13.8017H13.7897H13.7777H13.7657H13.7537H13.7417H13.7298H13.7179H13.706H13.6941H13.6823H13.6705H13.6587H13.6469H13.6351H13.6234H13.6116H13.5999H13.5882H13.5766H13.5649H13.5533H13.5417H13.5301H13.5185H13.507H13.4955H13.4839H13.4725H13.461H13.4496H13.4381H13.4267H13.4154H13.404H13.3927H13.3813H13.37H13.3588H13.3475H13.3363H13.3251H13.3139H13.3027H13.2915H13.2804H13.2693H13.2582H13.2472H13.2361H13.2251H13.2141H13.2031H13.1921H13.1812H13.1703H13.1594H13.1485H13.1377H13.1268H13.116H13.1052H13.0945H13.0837H13.073H13.0623H13.0516H13.041H13.0303H13.0197H13.0091H12.9985H12.988H12.9775H12.967H12.9565H12.946H12.9356H12.9252H12.9148H12.9044H12.894H12.8837H12.8734H12.8631H12.8528H12.8426H12.8324H12.8222C12.074 28.75 11.6598 28.1737 11.7695 27.6761C12.6068 23.8766 16.0767 21.25 20.3242 21.25C24.5718 21.25 28.0416 23.8766 28.879 27.6761C28.9887 28.1737 28.5744 28.75 27.8262 28.75Z" stroke="#007BFC" stroke-width="1.5"/>
</svg>
