<svg width="20" height="20" viewBox="0 0 20 20" fill="none" xmlns="http://www.w3.org/2000/svg">
<rect x="0.75" y="0.75" width="18.5001" height="18.5" rx="9.25" fill="#007AFF"/>
<path fill-rule="evenodd" clip-rule="evenodd" d="M10 6C9.44772 6 9 6.44772 9 7V13C9 13.5523 9.44772 14 10 14C10.5523 14 11 13.5523 11 13V7C11 6.44772 10.5523 6 10 6ZM5 9C5 8.44772 5.44772 8 6 8C6.55228 8 7 8.44772 7 9V11C7 11.5523 6.55228 12 6 12C5.44772 12 5 11.5523 5 11V9ZM13 9C13 8.44772 13.4477 8 14 8C14.5523 8 15 8.44772 15 9V11C15 11.5523 14.5523 12 14 12C13.4477 12 13 11.5523 13 11V9Z" fill="white"/>
<rect x="0.75" y="0.75" width="18.5001" height="18.5" rx="9.25" stroke="#F3F3F3" stroke-width="1.5"/>
</svg>
