<svg width="29" height="30" viewBox="0 0 29 30" fill="none" xmlns="http://www.w3.org/2000/svg">
<rect y="0.5" width="29" height="29" rx="6" fill="#59A7D6"/>
<path fill-rule="evenodd" clip-rule="evenodd" d="M14.5 24C19.4706 24 23.5 19.9706 23.5 15C23.5 10.0294 19.4706 6 14.5 6C9.52944 6 5.5 10.0294 5.5 15C5.5 19.9706 9.52944 24 14.5 24ZM13.25 10.25C13.25 10.5815 13.3817 10.8995 13.6161 11.1339C13.8505 11.3683 14.1685 11.5 14.5 11.5C14.8315 11.5 15.1495 11.3683 15.3839 11.1339C15.6183 10.8995 15.75 10.5815 15.75 10.25C15.75 9.91848 15.6183 9.60054 15.3839 9.36612C15.1495 9.1317 14.8315 9 14.5 9C14.1685 9 13.8505 9.1317 13.6161 9.36612C13.3817 9.60054 13.25 9.91848 13.25 10.25ZM15.75 19.9995C15.75 20.6904 15.1909 21.2495 14.5 21.2495C13.8091 21.2495 13.25 20.6904 13.25 19.9995V12.5054H15.7471V19.9995H15.75Z" fill="white"/>
</svg>
