<svg width="28" height="28" viewBox="0 0 28 28" fill="none" xmlns="http://www.w3.org/2000/svg">
<path d="M14 2.33301C7.56001 2.33301 2.33334 7.55967 2.33334 13.9997C2.33334 20.4397 7.56001 25.6663 14 25.6663C20.44 25.6663 25.6667 20.4397 25.6667 13.9997C25.6667 7.55967 20.44 2.33301 14 2.33301ZM14 6.99967C16.2517 6.99967 18.0833 8.83134 18.0833 11.083C18.0833 13.3347 16.2517 15.1663 14 15.1663C11.7483 15.1663 9.91668 13.3347 9.91668 11.083C9.91668 8.83134 11.7483 6.99967 14 6.99967ZM14 23.333C11.6317 23.333 8.83168 22.3763 6.83668 19.973C8.80834 18.433 11.2933 17.4997 14 17.4997C16.7067 17.4997 19.1917 18.433 21.1633 19.973C19.1683 22.3763 16.3683 23.333 14 23.333Z" fill="#121212"/>
</svg>
