<svg width="28" height="28" viewBox="0 0 28 28" fill="none" xmlns="http://www.w3.org/2000/svg">
<path fill-rule="evenodd" clip-rule="evenodd" d="M2.33331 8.71143C2.33331 6.47775 4.07443 4.66699 6.2222 4.66699H21.7778C23.9255 4.66699 25.6666 6.47775 25.6666 8.71144V16.1392L21.5759 12.6825C20.2859 11.5925 18.3823 11.8422 17.393 13.2312L10.1975 23.3337H6.2222C4.07443 23.3337 2.33331 21.5229 2.33331 19.2892V8.71143ZM9.5128 9.33366C9.5128 10.3646 8.70921 11.2003 7.71793 11.2003C6.72665 11.2003 5.92306 10.3646 5.92306 9.33366C5.92306 8.30273 6.72665 7.46699 7.71793 7.46699C8.70921 7.46699 9.5128 8.30273 9.5128 9.33366Z" fill="#121212"/>
<path d="M12.6173 23.3337H21.7778C23.9255 23.3337 25.6666 21.5229 25.6666 19.2892V18.7448L20.3497 14.252C19.9198 13.8887 19.2852 13.9719 18.9554 14.4349L12.6173 23.3337Z" fill="#121212"/>
</svg>
