<svg width="24" height="24" viewBox="0 0 24 24" fill="none" xmlns="http://www.w3.org/2000/svg">
<path d="M7 6.39706C7.27566 6.39706 7.5291 6.24584 7.66002 6.00326L8.8237 3.84702C8.86387 3.7726 8.92298 3.75 8.96247 3.75H15.0375C15.077 3.75 15.1361 3.7726 15.1763 3.84702L16.34 6.00326C16.4709 6.24584 16.7243 6.39706 17 6.39706L20.16 6.39706C20.7222 6.39706 21.25 6.89256 21.25 7.59529V19.0518C21.25 19.7545 20.7222 20.25 20.16 20.25H3.84C3.27782 20.25 2.75 19.7545 2.75 19.0518V7.59529C2.75 6.89256 3.27782 6.39706 3.84 6.39706H7Z" stroke="black" stroke-width="1.5" stroke-linejoin="round"/>
<path d="M12 16.75C14.0711 16.75 15.75 15.0711 15.75 13C15.75 10.9289 14.0711 9.25 12 9.25C9.92892 9.25 8.25 10.9289 8.25 13C8.25 15.0711 9.92892 16.75 12 16.75Z" stroke="black" stroke-width="1.5" stroke-linejoin="round"/>
</svg>
