<svg width="28" height="28" viewBox="0 0 28 28" fill="none" xmlns="http://www.w3.org/2000/svg">
<path d="M13.9929 2.33301C19.1127 2.33301 23.3334 6.67055 23.3334 12.0371C23.3334 14.7413 22.4078 17.2519 20.8842 19.3798C19.2035 21.7271 17.1319 23.7722 14.8 25.3775C14.2664 25.7485 13.7847 25.7765 13.199 25.3775C10.8539 23.7722 8.78229 21.7271 7.11592 19.3798C5.59128 17.2519 4.66675 14.7413 4.66675 12.0371C4.66675 6.67055 8.88748 2.33301 13.9929 2.33301ZM13.9929 9.07265C12.2999 9.07265 10.9192 10.5554 10.9192 12.3392C10.9192 14.137 12.2999 15.551 13.9929 15.551C15.6869 15.551 17.0809 14.137 17.0809 12.3392C17.0809 10.5554 15.6869 9.07265 13.9929 9.07265Z" fill="#121212"/>
</svg>
