<svg width="28" height="28" viewBox="0 0 28 28" fill="none" xmlns="http://www.w3.org/2000/svg">
<path d="M4.66669 6.2219C4.66669 4.07412 6.33816 2.33301 8.40002 2.33301H19.6C21.6619 2.33301 23.3334 4.07412 23.3334 6.2219V7.36338C22.5821 7.70055 21.6665 8.06013 20.6498 8.39348C18.5351 9.08681 16.1084 9.62467 14 9.62467C10.747 9.62467 7.14544 8.34889 4.66669 7.24594V6.2219Z" fill="#121212"/>
<path fill-rule="evenodd" clip-rule="evenodd" d="M21.2102 10.2482C21.9612 10.002 22.6786 9.73606 23.3334 9.46651V21.7775C23.3334 23.9252 21.6619 25.6663 19.6 25.6663H8.40002C6.33816 25.6663 4.66669 23.9252 4.66669 21.7775V9.35171C7.23263 10.4305 10.7281 11.5691 14 11.5691C16.3716 11.5691 19.0005 10.9727 21.2102 10.2482ZM12.557 13.9997H11.2L13.0348 17.3167H11.8212V17.9458H13.3884L13.398 17.9553V18.7464H11.8212V19.3755H13.398V20.8052H14.6021V19.3755H16.1884V18.7464H14.6021V17.9553L14.6116 17.9458H16.1884V17.3167H14.9652L16.8 13.9997H15.443L14 16.8687L12.557 13.9997Z" fill="#121212"/>
</svg>
