<svg width="16" height="16" viewBox="0 0 16 16" fill="none" xmlns="http://www.w3.org/2000/svg">
<path d="M4.58407 14.5934C3.94496 14.5934 3.4646 14.4326 3.14298 14.111C2.82549 13.7894 2.66675 13.3049 2.66675 12.6576L2.66675 3.27507C2.66675 2.63184 2.82549 2.14735 3.14298 1.82161C3.4646 1.49588 3.94496 1.33301 4.58407 1.33301L7.52189 1.33301C7.75279 1.33301 7.95483 1.3495 8.12801 1.38249C8.30531 1.41135 8.46818 1.46908 8.61662 1.55566C8.76506 1.63813 8.91762 1.75977 9.0743 1.92057L12.4822 5.3903C12.6471 5.55935 12.7708 5.72016 12.8533 5.87272C12.9399 6.02116 12.9976 6.18609 13.0264 6.36751C13.0553 6.54894 13.0697 6.77365 13.0697 7.04167L13.0697 12.6576C13.0697 13.3008 12.9089 13.7832 12.5873 14.1048C12.2698 14.4306 11.7915 14.5934 11.1524 14.5934L4.58407 14.5934ZM4.62736 13.5977L11.1029 13.5977C11.4246 13.5977 11.6658 13.5152 11.8266 13.3503C11.9915 13.1853 12.074 12.9482 12.074 12.639L12.074 7.08496H8.54858C8.161 7.08496 7.87031 6.98806 7.67651 6.79427C7.48272 6.60048 7.38582 6.30979 7.38582 5.9222L7.38582 2.32878L4.63354 2.32878C4.31193 2.32878 4.06866 2.4133 3.90373 2.58236C3.74292 2.75141 3.66252 2.9885 3.66252 3.29362L3.66252 12.639C3.66252 12.9482 3.74292 13.1853 3.90373 13.3503C4.06866 13.5152 4.30987 13.5977 4.62736 13.5977ZM8.65991 6.15104H11.8822L8.31974 2.52051V5.80469C8.31974 5.92839 8.34448 6.01704 8.39396 6.07064C8.44756 6.12424 8.53621 6.15104 8.65991 6.15104Z" fill="#121212"/>
</svg>
