<svg width="28" height="28" viewBox="0 0 28 28" fill="none" xmlns="http://www.w3.org/2000/svg">
<path d="M18.0832 14.5833C18.0832 16.8385 16.255 18.6667 13.9999 18.6667C11.7447 18.6667 9.91654 16.8385 9.91654 14.5833C9.91654 12.3282 11.7447 10.5 13.9999 10.5C16.255 10.5 18.0832 12.3282 18.0832 14.5833Z" fill="#121212"/>
<path fill-rule="evenodd" clip-rule="evenodd" d="M10.4562 3.5C10.071 3.5 9.71538 3.70639 9.52428 4.04081L8.16665 6.41666H4.47998C3.29441 6.41666 2.33331 7.37776 2.33331 8.56333V21.1867C2.33331 22.3722 3.29441 23.3333 4.47998 23.3333H23.52C24.7055 23.3333 25.6666 22.3722 25.6666 21.1867V8.56333C25.6666 7.37776 24.7055 6.41666 23.52 6.41666L19.8333 6.41667L18.4757 4.04081C18.2846 3.70639 17.9289 3.5 17.5438 3.5H10.4562ZM19.8333 14.5833C19.8333 17.805 17.2216 20.4167 14 20.4167C10.7783 20.4167 8.16663 17.805 8.16663 14.5833C8.16663 11.3617 10.7783 8.75 14 8.75C17.2216 8.75 19.8333 11.3617 19.8333 14.5833ZM19.5416 9.91667C20.0249 9.91667 20.4166 9.52492 20.4166 9.04167C20.4166 8.55842 20.0249 8.16667 19.5416 8.16667C19.0584 8.16667 18.6666 8.55842 18.6666 9.04167C18.6666 9.52492 19.0584 9.91667 19.5416 9.91667Z" fill="#121212"/>
</svg>
