<svg width="16" height="16" viewBox="0 0 16 16" fill="none" xmlns="http://www.w3.org/2000/svg">
<path fill-rule="evenodd" clip-rule="evenodd" d="M7.33325 6.33366C7.33325 7.25413 6.58706 8.00033 5.66659 8.00033C4.74611 8.00033 3.99992 7.25413 3.99992 6.33366C3.99992 5.41318 4.74611 4.66699 5.66659 4.66699C6.58706 4.66699 7.33325 5.41318 7.33325 6.33366ZM6.33325 6.33366C6.33325 6.70185 6.03478 7.00033 5.66659 7.00033C5.2984 7.00033 4.99992 6.70185 4.99992 6.33366C4.99992 5.96547 5.2984 5.66699 5.66659 5.66699C6.03478 5.66699 6.33325 5.96547 6.33325 6.33366Z" fill="#121212"/>
<path fill-rule="evenodd" clip-rule="evenodd" d="M2.92055 2.66699C2.04391 2.66699 1.33325 3.41318 1.33325 4.33366L1.33325 11.667C1.33325 12.5875 2.04391 13.3337 2.92055 13.3337L13.0793 13.3337C13.9559 13.3337 14.6666 12.5875 14.6666 11.667L14.6666 4.33366C14.6666 3.41318 13.9559 2.66699 13.0793 2.66699L2.92055 2.66699ZM13.0793 3.66699L2.92055 3.66699C2.64161 3.66699 2.33325 3.91893 2.33325 4.33366L2.33325 10.3185L3.52988 9.16618C4.22167 8.50002 5.31029 8.48062 6.02537 9.1217L6.98382 9.98097L9.0421 7.95388C9.78545 7.22178 10.9891 7.25676 11.6886 8.03078L13.6666 10.2192L13.6666 4.33366C13.6666 3.91893 13.3582 3.66699 13.0793 3.66699ZM2.92055 12.3337C2.64452 12.3337 2.33968 12.0869 2.33335 11.6799L2.34672 11.6938L4.22353 9.8865C4.53797 9.5837 5.0328 9.57488 5.35784 9.86628L7.01598 11.3528L9.74379 8.66636C10.0817 8.33359 10.6288 8.34949 10.9468 8.70132L13.629 11.6689L13.6666 11.6349V11.667C13.6666 12.0817 13.3582 12.3337 13.0793 12.3337L2.92055 12.3337Z" fill="#121212"/>
</svg>
