<svg width="36" height="36" viewBox="0 0 36 36" fill="none" xmlns="http://www.w3.org/2000/svg">
<path fill-rule="evenodd" clip-rule="evenodd" d="M18 36C27.9411 36 36 27.9411 36 18C36 8.05887 27.9411 0 18 0C8.05887 0 0 8.05887 0 18C0 27.9411 8.05887 36 18 36ZM17.9994 33.6925C26.6661 33.6925 33.6917 26.6668 33.6917 18.0002C33.6917 9.33355 26.6661 2.30786 17.9994 2.30786C9.33281 2.30786 2.30713 9.33355 2.30713 18.0002C2.30713 26.6668 9.33281 33.6925 17.9994 33.6925Z" fill="white"/>
<path d="M16.4032 20.4153L12.0752 19.5032L20.6881 8.66162L19.2289 15.5865L23.5569 16.4985L14.944 27.3401L16.4032 20.4153Z" fill="#F8F8F8"/>
</svg>
