<svg width="16" height="16" viewBox="0 0 16 16" fill="none" xmlns="http://www.w3.org/2000/svg">
<path d="M3.99992 10C3.82311 10 3.65354 9.92976 3.52851 9.80474C3.40349 9.67971 3.33325 9.51014 3.33325 9.33333V6.66667C3.33325 6.48986 3.40349 6.32029 3.52851 6.19526C3.65354 6.07024 3.82311 6 3.99992 6H5.99976V10H3.99992Z" fill="white"/>
<path fill-rule="evenodd" clip-rule="evenodd" d="M11.9999 4H3.33325C2.80282 4 2.29411 4.21071 1.91904 4.58579C1.54397 4.96086 1.33325 5.46957 1.33325 6V10C1.33325 10.5304 1.54397 11.0391 1.91904 11.4142C2.29411 11.7893 2.80282 12 3.33325 12H11.9999C12.5304 12 13.0391 11.7893 13.4141 11.4142C13.7892 11.0391 13.9999 10.5304 13.9999 10C14.1767 10 14.3463 9.92976 14.4713 9.80474C14.5963 9.67971 14.6666 9.51014 14.6666 9.33333V6.66667C14.6666 6.48986 14.5963 6.32029 14.4713 6.19526C14.3463 6.07024 14.1767 6 13.9999 6C13.9999 5.46957 13.7892 4.96086 13.4141 4.58579C13.0391 4.21071 12.5304 4 11.9999 4ZM11.9999 5.33333H3.33325C3.15644 5.33333 2.98687 5.40357 2.86185 5.5286C2.73682 5.65362 2.66659 5.82319 2.66659 6V10C2.66659 10.1768 2.73682 10.3464 2.86185 10.4714C2.98687 10.5964 3.15644 10.6667 3.33325 10.6667H11.9999C12.1767 10.6667 12.3463 10.5964 12.4713 10.4714C12.5963 10.3464 12.6666 10.1768 12.6666 10V6C12.6666 5.82319 12.5963 5.65362 12.4713 5.5286C12.3463 5.40357 12.1767 5.33333 11.9999 5.33333Z" fill="white"/>
</svg>
