<svg width="24" height="24" viewBox="0 0 24 24" fill="none" xmlns="http://www.w3.org/2000/svg">
    <path fill-rule="evenodd" clip-rule="evenodd" d="M6.25 4C6.25 3.58579 6.58579 3.25 7 3.25H14C15.4321 3.25 16.6337 3.77081 17.4751 4.65435C18.3112 5.53227 18.75 6.72402 18.75 8C18.75 9.27598 18.3112 10.4677 17.4751 11.3456C17.2748 11.556 17.0541 11.7457 16.8148 11.9128C17.1991 12.1006 17.5608 12.324 17.8898 12.5775C18.9534 13.3972 19.75 14.5964 19.75 16C19.75 18.704 17.314 20.75 14.5 20.75H7C6.58579 20.75 6.25 20.4142 6.25 20V12V4ZM14 11.25C15.0531 11.25 15.8516 10.8754 16.3889 10.3112C16.9315 9.74141 17.25 8.93316 17.25 8C17.25 7.06684 16.9315 6.25859 16.3889 5.6888C15.8516 5.12462 15.0531 4.75 14 4.75H7.75V11.25H14ZM7.75 12.75H14C15.0721 12.75 16.1621 13.1398 16.9742 13.7656C17.7892 14.3937 18.25 15.1945 18.25 16C18.25 17.7143 16.6566 19.25 14.5 19.25H7.75V12.75Z" fill="#121212"/>
</svg>
