<svg width="24" height="24" viewBox="0 0 24 24" fill="none" xmlns="http://www.w3.org/2000/svg">
    <path fill-rule="evenodd" clip-rule="evenodd"
        d="M2.63421 1.13546C3.74054 0.186967 5.40631 0.314922 6.3548 1.42126C6.43347 1.51302 6.50575 1.61007 6.57111 1.71174L8.57166 4.8235C9.31378 5.96987 9.22211 7.45586 8.34627 8.47716L7.53165 9.38745C6.84235 10.1577 6.85101 11.3323 7.55173 12.1141C8.18977 13.0041 8.89079 13.8312 9.65482 14.5952L10.0421 14.9719C10.6963 15.5911 11.3942 16.1666 12.1359 16.6983C12.8786 17.364 13.9758 17.4051 14.7441 16.8165L14.8625 16.7184L15.7728 15.9037C16.7477 15.0677 18.146 14.9462 19.2681 15.5823L19.4265 15.6783L22.5383 17.6789C22.6399 17.7443 22.737 17.8165 22.8287 17.8952C23.9351 18.8437 24.063 20.5095 23.1145 21.6158C20.5509 24.1794 14.9303 25.1747 7.22103 17.6364L6.91564 17.3344C-0.950601 9.46813 0.0368403 3.73283 2.63421 1.13546Z"
        fill="#007AFF" fill-opacity="1" />
</svg>