<svg width="19" height="14" viewBox="0 0 19 14" fill="none" xmlns="http://www.w3.org/2000/svg">
<path d="M0.203125 9.33116C0.203125 9.00911 0.464192 8.74805 0.786234 8.74805H2.7688C3.09085 8.74805 3.35191 9.00911 3.35191 9.33116V13.4129H0.203125V9.33116Z" fill="white"/>
<path d="M5.35156 7.0001C5.35156 6.67806 5.61263 6.41699 5.93467 6.41699H7.91724C8.23928 6.41699 8.50035 6.67806 8.50035 7.0001V13.4143H5.35156V7.0001Z" fill="white"/>
<path d="M10.5 3.96592C10.5 3.64388 10.7611 3.38281 11.0831 3.38281H13.0657C13.3877 3.38281 13.6488 3.64388 13.6488 3.96592V13.4123H10.5V3.96592Z" fill="white"/>
<path d="M15.6484 1.16807C15.6484 0.846027 15.9095 0.584961 16.2315 0.584961H18.2141C18.5362 0.584961 18.7972 0.846028 18.7972 1.16807V13.4134H15.6484V1.16807Z" fill="white"/>
</svg>
