<svg width="28" height="28" viewBox="0 0 28 28" fill="none" xmlns="http://www.w3.org/2000/svg">
    <path fill-rule="evenodd" clip-rule="evenodd"
        d="M8.22065 19.4227H4.75C3.23122 19.4227 2 18.1915 2 16.6727V11.3148C2 9.79602 3.23122 8.5648 4.75 8.5648H8.22065L16.1489 3.10403C16.6399 2.81521 17.2465 3.1618 17.2465 3.72501V24.275C17.2465 24.8382 16.6399 25.1848 16.1489 24.896L8.22065 19.4227ZM18.1068 11.2496C18.4867 10.8253 19.1387 10.7893 19.5629 11.1692C20.5867 12.086 21.2812 13.2965 21.2812 14.6875C21.2812 16.0785 20.5867 17.289 19.5629 18.2058C19.1387 18.5857 18.4867 18.5497 18.1068 18.1254C17.7268 17.7012 17.7628 17.0492 18.1871 16.6693C18.8945 16.0357 19.2188 15.3475 19.2188 14.6875C19.2188 14.0275 18.8945 13.3393 18.1871 12.7058C17.7628 12.3258 17.7268 11.6738 18.1068 11.2496ZM21.6276 7.7337C21.2044 7.35256 20.5523 7.38667 20.1712 7.80988C19.7901 8.2331 19.8242 8.88516 20.2474 9.2663C21.7264 10.5982 22.6562 12.5322 22.6562 14.6875C22.6562 16.8428 21.7264 18.7768 20.2474 20.1087C19.8242 20.4898 19.7901 21.1419 20.1712 21.5651C20.5523 21.9883 21.2044 22.0224 21.6276 21.6413C23.5243 19.9332 24.7188 17.4493 24.7188 14.6875C24.7188 11.9257 23.5243 9.4418 21.6276 7.7337Z"
        fill="black" fill-opacity="1" />
</svg>
