<svg width="52" height="52" viewBox="0 0 52 52" fill="none" xmlns="http://www.w3.org/2000/svg">
<path fill-rule="evenodd" clip-rule="evenodd" d="M26 52C40.3594 52 52 40.3594 52 26C52 11.6406 40.3594 0 26 0C11.6406 0 0 11.6406 0 26C0 40.3594 11.6406 52 26 52ZM16.75 31.4227H20.2207L28.1489 36.896C28.6399 37.1848 29.2465 36.8382 29.2465 36.275V15.725C29.2465 15.1618 28.6399 14.8152 28.1489 15.104L20.2207 20.5648H16.75C15.2312 20.5648 14 21.796 14 23.3148V28.6727C14 30.1915 15.2312 31.4227 16.75 31.4227ZM31.5629 23.1693C31.1387 22.7893 30.4867 22.8253 30.1068 23.2496C29.7268 23.6738 29.7628 24.3258 30.1871 24.7058C30.8945 25.3393 31.2188 26.0275 31.2188 26.6875C31.2188 27.3475 30.8945 28.0357 30.1871 28.6693C29.7628 29.0492 29.7268 29.7012 30.1068 30.1254C30.4867 30.5497 31.1387 30.5857 31.5629 30.2058C32.5867 29.289 33.2812 28.0785 33.2812 26.6875C33.2812 25.2965 32.5867 24.086 31.5629 23.1693ZM32.1712 19.8099C32.5523 19.3867 33.2044 19.3526 33.6276 19.7337C35.5243 21.4418 36.7188 23.9257 36.7188 26.6875C36.7188 29.4493 35.5243 31.9332 33.6276 33.6413C33.2044 34.0224 32.5523 33.9883 32.1712 33.5651C31.7901 33.1419 31.8242 32.4898 32.2474 32.1087C33.7263 30.7768 34.6562 28.8428 34.6562 26.6875C34.6562 24.5322 33.7263 22.5982 32.2474 21.2663C31.8242 20.8852 31.7901 20.2331 32.1712 19.8099Z" fill="white"/>
</svg>
