<svg width="24" height="24" viewBox="0 0 24 24" fill="none" xmlns="http://www.w3.org/2000/svg">
<path fill-rule="evenodd" clip-rule="evenodd" d="M14.5303 15.4697C14.266 15.0186 13.9082 14.6608 13.457 14.3965C13.0059 14.1322 12.5091 14 11.9668 14C11.4199 14 10.9209 14.1322 10.4697 14.3965C10.0231 14.6608 9.66536 15.0186 9.39648 15.4697C9.13216 15.9163 9 16.4108 9 16.9531C9 17.5 9.13216 17.999 9.39648 18.4502C9.66536 18.9014 10.0231 19.2614 10.4697 19.5303C10.9209 19.7992 11.4199 19.9336 11.9668 19.9336C12.5137 19.9336 13.0104 19.7992 13.457 19.5303C13.9082 19.2614 14.266 18.9014 14.5303 18.4502C14.7992 17.999 14.9336 17.5 14.9336 16.9531C14.9336 16.4108 14.7992 15.9163 14.5303 15.4697ZM11.2405 18.2434C11.4489 18.367 11.6799 18.4336 11.9668 18.4336C12.255 18.4336 12.482 18.3664 12.6834 18.2452L12.6891 18.2417C12.9239 18.1018 13.1002 17.9238 13.236 17.692L13.2417 17.6823C13.3663 17.4731 13.4336 17.2413 13.4336 16.9531C13.4336 16.6719 13.3676 16.4468 13.2452 16.2434L13.2406 16.2357L13.236 16.228C13.1015 15.9984 12.9284 15.8252 12.6988 15.6907C12.4864 15.5663 12.2529 15.5 11.9668 15.5C11.675 15.5 11.4405 15.5668 11.2308 15.6891C11.0047 15.8235 10.8275 15.9992 10.6862 16.2356C10.5658 16.4398 10.5 16.6679 10.5 16.9531C10.5 17.244 10.5664 17.478 10.688 17.6873C10.8304 17.9245 11.0101 18.1041 11.2405 18.2434Z" fill="black"/>
<path fill-rule="evenodd" clip-rule="evenodd" d="M21.5303 15.4697C21.266 15.0186 20.9082 14.6608 20.457 14.3965C20.0059 14.1322 19.5091 14 18.9668 14C18.4199 14 17.9209 14.1322 17.4697 14.3965C17.0231 14.6608 16.6654 15.0186 16.3965 15.4697C16.1322 15.9163 16 16.4108 16 16.9531C16 17.5 16.1322 17.999 16.3965 18.4502C16.6654 18.9014 17.0231 19.2614 17.4697 19.5303C17.9209 19.7992 18.4199 19.9336 18.9668 19.9336C19.5137 19.9336 20.0104 19.7992 20.457 19.5303C20.9082 19.2614 21.266 18.9014 21.5303 18.4502C21.7992 17.999 21.9336 17.5 21.9336 16.9531C21.9336 16.4108 21.7992 15.9163 21.5303 15.4697ZM18.2405 18.2434C18.4489 18.367 18.6799 18.4336 18.9668 18.4336C19.255 18.4336 19.482 18.3664 19.6834 18.2452L19.6891 18.2417C19.9239 18.1018 20.1002 17.9238 20.236 17.692L20.2417 17.6823C20.3663 17.4731 20.4336 17.2413 20.4336 16.9531C20.4336 16.6719 20.3676 16.4468 20.2452 16.2434L20.2406 16.2357L20.236 16.228C20.1015 15.9984 19.9284 15.8252 19.6988 15.6907C19.4864 15.5663 19.2529 15.5 18.9668 15.5C18.675 15.5 18.4405 15.5668 18.2308 15.6891C18.0047 15.8235 17.8275 15.9992 17.6862 16.2356C17.5658 16.4398 17.5 16.6679 17.5 16.9531C17.5 17.244 17.5664 17.478 17.688 17.6873C17.8304 17.9245 18.0101 18.1041 18.2405 18.2434Z" fill="black"/>
<path fill-rule="evenodd" clip-rule="evenodd" d="M7.53027 15.4697C7.26595 15.0186 6.9082 14.6608 6.45703 14.3965C6.00586 14.1322 5.50911 14 4.9668 14C4.41992 14 3.9209 14.1322 3.46973 14.3965C3.02311 14.6608 2.66536 15.0186 2.39648 15.4697C2.13216 15.9163 2 16.4108 2 16.9531C2 17.5 2.13216 17.999 2.39648 18.4502C2.66536 18.9014 3.02311 19.2614 3.46973 19.5303C3.9209 19.7992 4.41992 19.9336 4.9668 19.9336C5.51367 19.9336 6.01042 19.7992 6.45703 19.5303C6.9082 19.2614 7.26595 18.9014 7.53027 18.4502C7.79915 17.999 7.93359 17.5 7.93359 16.9531C7.93359 16.4108 7.79915 15.9163 7.53027 15.4697ZM4.24047 18.2434C4.44885 18.367 4.67991 18.4336 4.9668 18.4336C5.25501 18.4336 5.482 18.3664 5.68336 18.2452L5.68911 18.2417C5.92393 18.1018 6.10021 17.9238 6.23603 17.692L6.24171 17.6823C6.36633 17.4731 6.43359 17.2413 6.43359 16.9531C6.43359 16.6719 6.36764 16.4468 6.24519 16.2434L6.24056 16.2357L6.23603 16.228C6.10154 15.9984 5.92835 15.8252 5.69879 15.6907C5.48636 15.5663 5.25292 15.5 4.9668 15.5C4.67503 15.5 4.44051 15.5668 4.23079 15.6891C4.00473 15.8235 3.82753 15.9992 3.68623 16.2356C3.56581 16.4398 3.5 16.6679 3.5 16.9531C3.5 17.244 3.56644 17.478 3.68798 17.6873C3.83036 17.9245 4.01009 18.1041 4.24047 18.2434Z" fill="black"/>
<path fill-rule="evenodd" clip-rule="evenodd" d="M5.75 5L5.75 11.5H4.25L4.25 4.75C4.25 4.05964 4.80964 3.5 5.5 3.5L18.5 3.5C19.1904 3.5 19.75 4.05964 19.75 4.75V11.25C19.75 11.6642 19.4142 12 19 12C18.5858 12 18.25 11.6642 18.25 11.25V5L5.75 5Z" fill="black"/>
<path fill-rule="evenodd" clip-rule="evenodd" d="M9.03033 7.96978C9.32322 8.26268 9.32322 8.73755 9.03033 9.03044L5.53033 12.5304C5.23744 12.8233 4.76256 12.8233 4.46967 12.5304L0.96967 9.03044C0.676777 8.73755 0.676777 8.26268 0.96967 7.96978C1.26256 7.67689 1.73744 7.67689 2.03033 7.96978L5 10.9395L7.96967 7.96978C8.26256 7.67689 8.73744 7.67689 9.03033 7.96978Z" fill="black"/>
</svg>
