<svg width="24" height="24" viewBox="0 0 24 24" fill="none" xmlns="http://www.w3.org/2000/svg">
<path d="M7.89607 3C8.29605 3 8.66453 3.2169 8.85863 3.56658L10.2054 5.99243C10.3817 6.31006 10.3899 6.69424 10.2275 7.01918L8.93014 9.61391C8.93014 9.61391 9.30612 11.5469 10.8796 13.1204C12.4531 14.6939 14.3796 15.0634 14.3796 15.0634L16.9739 13.7662C17.2991 13.6036 17.6835 13.612 18.0013 13.7887L20.434 15.1412C20.7833 15.3354 21 15.7037 21 16.1034V18.8963C21 20.3185 19.6789 21.3458 18.3313 20.891C15.5635 19.9572 11.2672 18.179 8.54415 15.4559C5.82099 12.7328 4.04284 8.43644 3.10894 5.6687C2.65423 4.32107 3.68147 3 5.10371 3H7.89607Z" stroke="#007AFF" stroke-width="1.5" stroke-linejoin="round"/>
<path fill-rule="evenodd" clip-rule="evenodd" d="M17.5 3.75C17.5 3.33579 17.1642 3 16.75 3C16.3358 3 16 3.33579 16 3.75V7.75C16 7.94193 16.0732 8.13387 16.2197 8.28031C16.2202 8.28085 16.2207 8.28138 16.2213 8.28192C16.2928 8.35303 16.3751 8.40676 16.4629 8.44309C16.5507 8.47949 16.6469 8.4997 16.7477 8.5C16.7485 8.5 16.7492 8.5 16.75 8.5H16.7504H20.75C21.1642 8.5 21.5 8.16421 21.5 7.75C21.5 7.33579 21.1642 7 20.75 7H18.5607L20.7806 4.78035C21.0735 4.48747 21.0735 4.01259 20.7806 3.71969C20.4877 3.42678 20.0128 3.42677 19.7199 3.71965L17.5 5.93943V3.75Z" fill="#007AFF"/>
</svg>
