<svg width="72" height="72" viewBox="0 0 72 72" fill="none" xmlns="http://www.w3.org/2000/svg">
<path fill-rule="evenodd" clip-rule="evenodd" d="M35.9984 6C32.4333 6 29.3983 8.57587 28.2597 12.1771C25.3853 13.5137 22.8393 15.5697 20.7949 18.1473L12.5359 9.62593C11.7292 8.79365 10.4188 8.79103 9.60903 9.62007C8.79922 10.4491 8.79667 11.7959 9.60332 12.6282L59.4641 64.0728C60.2707 64.9051 61.5812 64.9077 62.391 64.0787C63.2008 63.2496 63.2033 61.9029 62.3967 61.0706L58.2993 56.843H59.9481C61.6336 56.843 63 55.4767 63 53.7911C63 52.5526 62.2623 51.4864 61.2023 51.008C60.8837 50.8642 60.5789 50.6764 60.372 50.3947L58.4798 47.8174C57.6189 46.6448 56.9144 45.3651 56.384 44.0106C55.6589 42.1586 55.2867 40.1873 55.2867 38.1984V27.7554C55.2867 26.5439 55.1236 25.3313 54.6793 24.2042C52.5377 18.771 48.6102 14.4417 43.7403 12.1771C42.6017 8.57587 39.5667 6 36.0016 6L35.9998 33.8352L35.9993 33.8347L35.9984 6ZM16.7133 27.7554C16.7133 27.1956 16.7481 26.6356 16.8294 26.0838L36.0003 45.8637L46.6416 56.843H36H12.0519C10.3664 56.843 9 55.4767 9 53.7911C9 52.5526 9.73774 51.4864 10.7977 51.008C11.1163 50.8642 11.4211 50.6764 11.628 50.3947L13.5202 47.8174C14.3811 46.6448 15.0856 45.3651 15.616 44.0106C16.3411 42.1586 16.7133 40.1873 16.7133 38.1984V27.7554ZM44.9473 59.2467C43.6435 63.1702 40.1317 65.9842 36 65.9994C31.8683 65.9842 28.3565 63.1702 27.0527 59.2467H44.9473Z" fill="#945CD9"/>
</svg>
