<svg width="40" height="40" viewBox="0 0 40 40" fill="none" xmlns="http://www.w3.org/2000/svg">
<path d="M0 12C0 5.37258 5.37258 0 12 0H28C34.6274 0 40 5.37258 40 12V28C40 34.6274 34.6274 40 28 40H12C5.37258 40 0 34.6274 0 28V12Z" fill="url(#paint0_linear_7372_325759)"/>
<path fill-rule="evenodd" clip-rule="evenodd" d="M21.8453 11.9705C23.5869 12.8027 24.9583 14.487 25.5871 16.5848H25.5881V21.7017L25.94 22.6364C26.1105 23.0893 26.3381 23.5186 26.6171 23.914L27.3389 24.9365C27.75 25.0686 28.0474 25.4541 28.0474 25.909C28.0474 26.4205 27.6715 26.8441 27.1809 26.9187L29.1182 28.8635C29.3969 29.1432 29.396 29.5959 29.1163 29.8745C28.8445 30.1452 28.4096 30.1521 28.1295 29.8958C28.1052 29.8604 28.0773 29.8266 28.0459 29.795L10.8229 12.5047C10.8149 12.4967 10.8068 12.489 10.7986 12.4814C10.6073 12.2026 10.636 11.8184 10.8842 11.5712C11.1639 11.2926 11.6166 11.2934 11.8952 11.5732L14.3933 14.081C15.0634 13.1718 15.9097 12.448 16.8696 11.9835C17.2358 10.7783 18.2123 9.91626 19.3594 9.91626C20.5024 9.91626 21.476 10.7721 21.8453 11.9705ZM23.1742 26.9303L13.1559 16.8728V21.6977L12.8025 22.6364C12.632 23.0893 12.4045 23.5186 12.1254 23.914L11.4094 24.9282C10.9844 25.0518 10.6738 25.4441 10.6738 25.909C10.6738 26.4731 11.1311 26.9303 11.6951 26.9303H23.1742ZM19.3711 29.9923C18.0371 29.9923 16.9022 29.0491 16.4816 27.7326H22.2606C21.84 29.0491 20.7051 29.9923 19.3711 29.9923Z" fill="white"/>
<defs>
<linearGradient id="paint0_linear_7372_325759" x1="20" y1="0" x2="20" y2="40" gradientUnits="userSpaceOnUse">
<stop stop-color="#FF835F"/>
<stop offset="1" stop-color="#FE5568"/>
</linearGradient>
</defs>
</svg>
