<svg width="24" height="24" viewBox="0 0 24 24" fill="none" xmlns="http://www.w3.org/2000/svg">
<path d="M6.08838 20.3901C5.80062 20.3901 5.58203 20.321 5.43262 20.1826C5.2832 20.0498 5.20573 19.881 5.2002 19.6763C5.19466 19.4771 5.26383 19.2806 5.40771 19.0869C5.53499 18.9264 5.68717 18.7189 5.86426 18.4644C6.04134 18.2153 6.21842 17.9525 6.39551 17.6758C6.57259 17.3991 6.72477 17.139 6.85205 16.8955C5.9777 16.4915 5.21126 15.9658 4.55273 15.3184C3.89974 14.6709 3.39063 13.9404 3.02539 13.127C2.66569 12.3135 2.48584 11.453 2.48584 10.5454C2.48584 9.49951 2.72656 8.52002 3.20801 7.60693C3.69499 6.69385 4.36735 5.89421 5.2251 5.20801C6.08838 4.51628 7.09001 3.97673 8.22998 3.58936C9.36995 3.19645 10.5929 3 11.8989 3C13.2049 3 14.4279 3.19645 15.5679 3.58936C16.7078 3.97673 17.7067 4.51628 18.5645 5.20801C19.4277 5.89421 20.1001 6.69385 20.5815 7.60693C21.0685 8.52002 21.312 9.49951 21.312 10.5454C21.312 11.4142 21.146 12.236 20.814 13.0107C20.4875 13.7799 20.0199 14.48 19.4111 15.1108C18.8079 15.7417 18.0858 16.284 17.2446 16.7378C16.409 17.186 15.4793 17.5264 14.4556 17.7588C13.4318 17.9912 12.3416 18.0908 11.1851 18.0576C10.6261 18.4616 10.0229 18.8407 9.37549 19.1948C8.72803 19.549 8.111 19.8368 7.52441 20.0581C6.93783 20.2795 6.45915 20.3901 6.08838 20.3901ZM6.95996 19.0122C7.20898 18.9071 7.52441 18.7466 7.90625 18.5308C8.28809 18.3149 8.68376 18.0742 9.09326 17.8086C9.50277 17.5485 9.8763 17.2967 10.2139 17.0532C10.3688 16.9315 10.5182 16.8429 10.6621 16.7876C10.8115 16.7267 10.972 16.6963 11.1436 16.6963C11.3096 16.7018 11.4562 16.7074 11.5835 16.7129C11.7108 16.7129 11.8159 16.7129 11.8989 16.7129C13.0168 16.7129 14.0627 16.5524 15.0366 16.2314C16.0106 15.9105 16.8628 15.4678 17.5933 14.9033C18.3293 14.3389 18.9048 13.6831 19.3198 12.936C19.7349 12.189 19.9424 11.3921 19.9424 10.5454C19.9424 9.6932 19.7349 8.89632 19.3198 8.15479C18.9048 7.40771 18.3293 6.75195 17.5933 6.1875C16.8628 5.61751 16.0106 5.17204 15.0366 4.85107C14.0627 4.53011 13.0168 4.36963 11.8989 4.36963C10.7811 4.36963 9.73519 4.53011 8.76123 4.85107C7.78727 5.17204 6.93229 5.61751 6.19629 6.1875C5.46582 6.75195 4.89307 7.40771 4.47803 8.15479C4.06852 8.89632 3.86377 9.6932 3.86377 10.5454C3.86377 11.2814 4.02425 11.9814 4.34521 12.6455C4.66618 13.3096 5.13102 13.9183 5.73975 14.4717C6.354 15.0195 7.09554 15.4954 7.96436 15.8994C8.22998 16.0267 8.38493 16.1816 8.4292 16.3643C8.47347 16.5469 8.4375 16.7461 8.32129 16.9619C8.17741 17.2275 7.96436 17.5485 7.68213 17.9248C7.3999 18.3066 7.14258 18.6414 6.91016 18.9292C6.88802 18.9569 6.88249 18.979 6.89355 18.9956C6.90462 19.0177 6.92676 19.0233 6.95996 19.0122ZM10.9941 14.563C10.8558 14.563 10.7285 14.5326 10.6123 14.4717C10.5016 14.4108 10.3937 14.314 10.2886 14.1812L8.26318 11.6909C8.1359 11.5194 8.07227 11.3478 8.07227 11.1763C8.07227 10.9937 8.13314 10.8387 8.25488 10.7114C8.38216 10.5786 8.53434 10.5122 8.71143 10.5122C8.82764 10.5122 8.93278 10.5371 9.02686 10.5869C9.12646 10.6312 9.22607 10.7197 9.32568 10.8525L10.9609 12.9692L14.4058 7.44092C14.5607 7.19189 14.7544 7.06738 14.9868 7.06738C15.1584 7.06738 15.3133 7.12272 15.4517 7.2334C15.59 7.34408 15.6592 7.49072 15.6592 7.67334C15.6592 7.76742 15.637 7.86149 15.5928 7.95557C15.554 8.04411 15.5098 8.12712 15.46 8.20459L11.6665 14.1812C11.5005 14.4357 11.2764 14.563 10.9941 14.563Z" fill="black"/>
</svg>
