<svg width="24" height="24" viewBox="0 0 24 24" fill="none" xmlns="http://www.w3.org/2000/svg">
<path d="M4.03906 16.0776C3.4082 16.0776 2.93506 15.9168 2.61963 15.5952C2.3042 15.2674 2.14648 14.7695 2.14648 14.1016L2.14648 10.5483C2.14648 9.87419 2.3042 9.3763 2.61963 9.05469C2.93506 8.72689 3.4082 8.56299 4.03906 8.56299L6.69238 8.56299C6.78516 8.56299 6.85938 8.53516 6.91504 8.47949L11.0991 4.76855C11.3465 4.55208 11.5537 4.39128 11.7207 4.28613C11.8939 4.18099 12.0918 4.12842 12.3145 4.12842C12.6237 4.12842 12.8773 4.23665 13.0752 4.45312C13.2793 4.66341 13.3813 4.92008 13.3813 5.22314L13.3813 19.4546C13.3813 19.7515 13.2824 19.9989 13.0845 20.1968C12.8866 20.3947 12.6361 20.4937 12.333 20.4937C12.1104 20.4937 11.9032 20.4442 11.7114 20.3452C11.5259 20.2524 11.3218 20.1071 11.0991 19.9092L6.91504 16.1611C6.85319 16.1055 6.77897 16.0776 6.69238 16.0776H4.03906ZM4.104 14.7231H7.07275C7.19027 14.7231 7.2985 14.7417 7.39746 14.7788C7.49642 14.8097 7.59847 14.8716 7.70361 14.9644L11.665 18.5361C11.7145 18.5856 11.764 18.6104 11.8135 18.6104C11.8939 18.6104 11.9341 18.564 11.9341 18.4712L11.9341 6.1416C11.9341 6.05501 11.8939 6.01172 11.8135 6.01172C11.7826 6.01172 11.7547 6.0179 11.73 6.03027C11.7052 6.04264 11.6805 6.0612 11.6558 6.08594L7.70361 9.67627C7.59847 9.77523 7.49642 9.84017 7.39746 9.87109C7.2985 9.90202 7.19027 9.91748 7.07275 9.91748H4.104C3.93083 9.91748 3.80094 9.96077 3.71436 10.0474C3.63395 10.1278 3.59375 10.2546 3.59375 10.4277L3.59375 14.2222C3.59375 14.3953 3.63395 14.5221 3.71436 14.6025C3.80094 14.6829 3.93083 14.7231 4.104 14.7231ZM16.5078 16.2539C16.3223 16.124 16.2171 15.957 16.1924 15.7529C16.1676 15.5488 16.2264 15.3478 16.3687 15.1499C16.6346 14.7726 16.8418 14.3397 16.9902 13.8511C17.1387 13.3563 17.2129 12.8398 17.2129 12.3018C17.2129 11.7637 17.1387 11.2472 16.9902 10.7524C16.848 10.2576 16.6408 9.82471 16.3687 9.45361C16.2202 9.26188 16.1584 9.06396 16.1831 8.85986C16.214 8.64958 16.3223 8.47949 16.5078 8.34961C16.6686 8.23828 16.8449 8.20117 17.0366 8.23828C17.2284 8.27539 17.3861 8.38363 17.5098 8.56299C17.8685 9.03304 18.1468 9.59587 18.3447 10.2515C18.5488 10.9071 18.6509 11.5905 18.6509 12.3018C18.6509 13.013 18.5488 13.6965 18.3447 14.3521C18.1468 15.0076 17.8685 15.5705 17.5098 16.0405C17.3861 16.2199 17.2284 16.3281 17.0366 16.3652C16.8449 16.3962 16.6686 16.359 16.5078 16.2539ZM19.9497 18.6753C19.7827 18.5578 19.6868 18.4032 19.6621 18.2114C19.6374 18.0135 19.6899 17.8187 19.8198 17.627C20.3208 16.9033 20.7104 16.0838 20.9888 15.1685C21.2733 14.2469 21.4155 13.2913 21.4155 12.3018C21.4155 11.3122 21.2764 10.3566 20.998 9.43506C20.7197 8.51351 20.327 7.69401 19.8198 6.97656C19.6838 6.78483 19.6281 6.5931 19.6528 6.40137C19.6838 6.20345 19.7827 6.04574 19.9497 5.92822C20.1229 5.81071 20.3053 5.77051 20.4971 5.80762C20.6888 5.84473 20.8465 5.95296 20.9702 6.13232C21.5701 6.93636 22.034 7.87956 22.3618 8.96191C22.6896 10.0443 22.8535 11.1576 22.8535 12.3018C22.8535 13.446 22.6865 14.5562 22.3525 15.6323C22.0247 16.7085 21.564 17.6548 20.9702 18.4712C20.8465 18.6506 20.6888 18.7588 20.4971 18.7959C20.3053 18.8268 20.1229 18.7866 19.9497 18.6753Z" fill="black"/>
</svg>
