<svg width="24" height="24" viewBox="0 0 24 24" fill="none" xmlns="http://www.w3.org/2000/svg">
<rect x="1.75" y="4.75" width="15.5" height="14.5" rx="3.25" stroke="#007AFF" stroke-width="1.5"/>
<path d="M17.25 10.4924C17.25 10.4148 17.2861 10.3416 17.3476 10.2942L21.8476 6.83271C22.012 6.70624 22.25 6.82345 22.25 7.03086V16.9691C22.25 17.1766 22.012 17.2938 21.8476 17.1673L17.3476 13.7058L16.8903 14.3002L17.3476 13.7058C17.2861 13.6584 17.25 13.5852 17.25 13.5076V10.4924Z" stroke="#007AFF" stroke-width="1.5"/>
<path fill-rule="evenodd" clip-rule="evenodd" d="M8.5 9.75C8.5 9.33579 8.16421 9 7.75 9C7.33579 9 7 9.33579 7 9.75V13.75C7 13.9419 7.07322 14.1339 7.21965 14.2803C7.22019 14.2808 7.22073 14.2814 7.22126 14.2819C7.2928 14.353 7.3751 14.4068 7.4629 14.4431C7.55067 14.4795 7.64686 14.4997 7.74772 14.5C7.74848 14.5 7.74924 14.5 7.75 14.5H7.75039H11.75C12.1642 14.5 12.5 14.1642 12.5 13.75C12.5 13.3358 12.1642 13 11.75 13H9.56075L11.7806 10.7803C12.0735 10.4875 12.0735 10.0126 11.7806 9.71969C11.4877 9.42678 11.0128 9.42677 10.7199 9.71965L8.5 11.9394V9.75Z" fill="#007AFF"/>
</svg>
