<svg width="22" height="22" viewBox="0 0 22 22" fill="none" xmlns="http://www.w3.org/2000/svg">
<path fill-rule="evenodd" clip-rule="evenodd" d="M4 3.66699C1.79086 3.66699 0 5.45786 0 7.667V14.3337C0 16.5428 1.79086 18.3337 4 18.3337H11.5833C13.7925 18.3337 15.5833 16.5428 15.5833 14.3337V7.66699C15.5833 5.45785 13.7925 3.66699 11.5833 3.66699H4ZM16.7929 8.8741C16.6054 9.06164 16.5 9.31599 16.5 9.58121V12.4194C16.5 12.6847 16.6054 12.939 16.7929 13.1266L20.2929 16.6266C20.9229 17.2565 22 16.8103 22 15.9194V6.08121C22 5.1903 20.9229 4.74414 20.2929 5.3741L16.7929 8.8741Z" fill="#007AFF"/>
</svg>
