<svg width="40" height="40" viewBox="0 0 40 40" fill="none" xmlns="http://www.w3.org/2000/svg">
<path d="M0 12C0 5.37258 5.37258 0 12 0H28C34.6274 0 40 5.37258 40 12V28C40 34.6274 34.6274 40 28 40H12C5.37258 40 0 34.6274 0 28V12Z" fill="url(#paint0_linear_7372_325753)"/>
<path d="M13.0537 28.8213C12.7139 28.8213 12.4971 28.71 12.4033 28.4873C12.3154 28.2705 12.3564 28.0508 12.5264 27.8281C12.6377 27.6816 12.7959 27.4854 13.001 27.2393C13.2119 26.999 13.4287 26.7354 13.6514 26.4482C13.874 26.1611 14.0674 25.8828 14.2314 25.6133C14.2666 25.5488 14.2725 25.4873 14.249 25.4287C14.2314 25.3643 14.1904 25.3145 14.126 25.2793C13.1885 24.7754 12.377 24.1748 11.6914 23.4775C11.0117 22.7744 10.4873 22.001 10.1182 21.1572C9.75488 20.3135 9.57324 19.4229 9.57324 18.4854C9.57324 17.3779 9.82812 16.3408 10.3379 15.374C10.8535 14.4072 11.5654 13.5605 12.4736 12.834C13.3877 12.1016 14.4482 11.5303 15.6553 11.1201C16.8623 10.7041 18.1572 10.4961 19.54 10.4961C20.9229 10.4961 22.2178 10.7041 23.4248 11.1201C24.6318 11.5303 25.6895 12.1016 26.5977 12.834C27.5117 13.5605 28.2236 14.4072 28.7334 15.374C29.249 16.3408 29.5068 17.3779 29.5068 18.4854C29.5068 19.3584 29.3457 20.1934 29.0234 20.9902C28.7012 21.7871 28.2354 22.5195 27.626 23.1875C27.0166 23.8496 26.2783 24.4268 25.4111 24.9189C24.5498 25.4111 23.5771 25.792 22.4932 26.0615C21.4092 26.3311 20.2344 26.4658 18.9688 26.4658C18.916 26.4658 18.8604 26.4629 18.8018 26.457C18.7432 26.457 18.6846 26.4541 18.626 26.4482C18.5674 26.4482 18.5059 26.46 18.4414 26.4834C18.377 26.5068 18.3066 26.5449 18.2305 26.5977C17.8555 26.8672 17.4248 27.1309 16.9385 27.3887C16.458 27.6523 15.9688 27.8926 15.4707 28.1094C14.9785 28.3262 14.5186 28.499 14.0908 28.6279C13.6631 28.7568 13.3174 28.8213 13.0537 28.8213ZM18.5557 22.8623C18.708 22.8623 18.8457 22.8271 18.9688 22.7568C19.0918 22.6865 19.2002 22.5811 19.2939 22.4404L23.4248 15.9277C23.4775 15.8398 23.5273 15.7461 23.5742 15.6465C23.6211 15.5469 23.6445 15.4473 23.6445 15.3477C23.6445 15.1426 23.5684 14.9814 23.416 14.8643C23.2637 14.7412 23.0938 14.6797 22.9062 14.6797C22.6484 14.6797 22.4375 14.8145 22.2734 15.084L18.5205 21.1133L16.7363 18.8105C16.625 18.6641 16.5166 18.5645 16.4111 18.5117C16.3115 18.459 16.1973 18.4326 16.0684 18.4326C15.8691 18.4326 15.7021 18.5059 15.5674 18.6523C15.4326 18.793 15.3652 18.9629 15.3652 19.1621C15.3652 19.2617 15.3828 19.3613 15.418 19.4609C15.459 19.5547 15.5117 19.6455 15.5762 19.7334L17.7822 22.4404C17.8994 22.5928 18.0195 22.7012 18.1426 22.7656C18.2656 22.8301 18.4033 22.8623 18.5557 22.8623Z" fill="white"/>
<defs>
<linearGradient id="paint0_linear_7372_325753" x1="20" y1="0" x2="20" y2="40" gradientUnits="userSpaceOnUse">
<stop stop-color="#70D1FC"/>
<stop offset="1" stop-color="#35A6F2"/>
</linearGradient>
</defs>
</svg>
