<svg width="24" height="24" viewBox="0 0 24 24" fill="none" xmlns="http://www.w3.org/2000/svg">
<rect x="1.75" y="4.75" width="15.5" height="14.5" rx="3.25" stroke="#5AC63A" stroke-width="1.5"/>
<path d="M17.25 10.4924C17.25 10.4148 17.2861 10.3416 17.3476 10.2942L21.8476 6.83271C22.012 6.70624 22.25 6.82345 22.25 7.03086V16.9691C22.25 17.1766 22.012 17.2938 21.8476 17.1673L17.3476 13.7058L16.8903 14.3002L17.3476 13.7058C17.2861 13.6584 17.25 13.5852 17.25 13.5076V10.4924Z" stroke="#5AC63A" stroke-width="1.5"/>
<path fill-rule="evenodd" clip-rule="evenodd" d="M11.0004 13.75C11.0004 14.1642 11.3361 14.5 11.7504 14.5C12.1646 14.5 12.5004 14.1642 12.5004 13.75V9.75C12.5004 9.33579 12.1646 9 11.7504 9H7.75036C7.33615 9 7.00036 9.33579 7.00036 9.75C7.00036 10.1642 7.33615 10.5 7.75036 10.5H9.9395L7.21969 13.2196C6.92678 13.5125 6.92677 13.9874 7.21965 14.2803C7.51253 14.5732 7.98741 14.5732 8.28031 14.2803L11.0004 11.5605V13.75Z" fill="#5AC63A"/>
</svg>
