<svg width="24" height="24" viewBox="0 0 24 24" fill="none" xmlns="http://www.w3.org/2000/svg">
    <path fill-rule="evenodd" clip-rule="evenodd" d="M0 5.5C0 3.29086 1.79086 1.5 4 1.5H20C22.2091 1.5 24 3.29086 24 5.5V16.5C24 18.7091 22.2091 20.5 20 20.5H16.1667L12.7717 22.537C12.2967 22.822 11.7033 22.822 11.2283 22.537L7.83333 20.5H4C1.79086 20.5 0 18.7091 0 16.5V5.5ZM8 11C8 12.1046 7.10457 13 6 13C4.89543 13 4 12.1046 4 11C4 9.89543 4.89543 9 6 9C7.10457 9 8 9.89543 8 11ZM14 11C14 12.1046 13.1046 13 12 13C10.8954 13 10 12.1046 10 11C10 9.89543 10.8954 9 12 9C13.1046 9 14 9.89543 14 11ZM18 13C19.1046 13 20 12.1046 20 11C20 9.89543 19.1046 9 18 9C16.8954 9 16 9.89543 16 11C16 12.1046 16.8954 13 18 13Z" fill="#006EE5"/>
</svg>
