<svg width="72" height="72" viewBox="0 0 72 72" fill="none" xmlns="http://www.w3.org/2000/svg">
<path fill-rule="evenodd" clip-rule="evenodd" d="M12 28.5C16.1421 28.5 19.5 31.8579 19.5 36C19.5 40.1421 16.1421 43.5 12 43.5C7.85786 43.5 4.5 40.1421 4.5 36C4.5 31.8579 7.85786 28.5 12 28.5ZM36 28.5C40.1421 28.5 43.5 31.8579 43.5 36C43.5 40.1421 40.1421 43.5 36 43.5C31.8579 43.5 28.5 40.1421 28.5 36C28.5 31.8579 31.8579 28.5 36 28.5ZM67.4993 36C67.4993 31.8579 64.1414 28.5 59.9993 28.5C55.8571 28.5 52.4993 31.8579 52.4993 36C52.4993 40.1421 55.8571 43.5 59.9993 43.5C64.1414 43.5 67.4993 40.1421 67.4993 36Z" fill="#945CD9"/>
</svg>
