<svg width="24" height="24" viewBox="0 0 24 24" fill="none" xmlns="http://www.w3.org/2000/svg">
<path d="M7.28711 16.0776C6.65625 16.0776 6.18311 15.9168 5.86768 15.5952C5.55225 15.2674 5.39453 14.7695 5.39453 14.1016V10.5483C5.39453 10.2762 5.42236 10.035 5.47803 9.82471C5.53369 9.61442 5.61719 9.43506 5.72852 9.28662L6.8418 10.3999V14.2222C6.8418 14.3953 6.882 14.5221 6.9624 14.6025C7.04899 14.6829 7.17887 14.7231 7.35205 14.7231L10.3579 14.7231C10.4754 14.7231 10.5713 14.7355 10.6455 14.7603C10.7197 14.785 10.8032 14.8407 10.896 14.9272L15.377 18.9443L16.4531 20.0112C16.348 20.172 16.2212 20.2926 16.0728 20.373C15.9243 20.4535 15.7604 20.4937 15.5811 20.4937C15.3584 20.4937 15.1543 20.4442 14.9688 20.3452C14.7832 20.2524 14.576 20.1071 14.3472 19.9092L10.1631 16.1611C10.1012 16.1055 10.027 16.0776 9.94043 16.0776H7.28711ZM16.6294 14.7139L15.1821 13.2666L15.1821 6.1416C15.1821 6.05501 15.1419 6.01172 15.0615 6.01172C15.0306 6.01172 15.0028 6.0179 14.978 6.03027C14.9533 6.04264 14.9285 6.0612 14.9038 6.08594L11.2856 9.37012L10.293 8.36816L14.3472 4.76855C14.5946 4.55208 14.8018 4.39128 14.9688 4.28613C15.1419 4.18099 15.3398 4.12842 15.5625 4.12842C15.8717 4.12842 16.1253 4.23665 16.3232 4.45312C16.5273 4.66341 16.6294 4.92008 16.6294 5.22314V14.7139ZM19.6538 21.4678L3.75244 5.58496C3.61637 5.44889 3.54834 5.2819 3.54834 5.08398C3.54834 4.87988 3.61637 4.7098 3.75244 4.57373C3.89469 4.43148 4.06478 4.36344 4.2627 4.36963C4.46061 4.36963 4.6307 4.43766 4.77295 4.57373L20.6558 20.4565C20.798 20.5988 20.8691 20.7658 20.8691 20.9575C20.8691 21.1554 20.798 21.3255 20.6558 21.4678C20.5259 21.61 20.3589 21.6812 20.1548 21.6812C19.9569 21.6812 19.7899 21.61 19.6538 21.4678Z" fill="black"/>
</svg>
