<svg width="40" height="40" viewBox="0 0 40 40" fill="none" xmlns="http://www.w3.org/2000/svg">
<path d="M0 12C0 5.37258 5.37258 0 12 0H28C34.6274 0 40 5.37258 40 12V28C40 34.6274 34.6274 40 28 40H12C5.37258 40 0 34.6274 0 28V12Z" fill="url(#paint0_linear_7372_260978)"/>
<path d="M20 19C22.2091 19 24 17.2091 24 15C24 12.7909 22.2091 11 20 11C17.7909 11 16 12.7909 16 15C16 17.2091 17.7909 19 20 19Z" fill="white"/>
<path d="M12.2035 25.7615C13.5281 22.9566 16.5206 21 20 21C23.4794 21 26.4719 22.9566 27.7965 25.7615C28.5913 27.4446 26.9337 29 24.9722 29H15.0278C13.0663 29 11.4087 27.4446 12.2035 25.7615Z" fill="white"/>
<defs>
<linearGradient id="paint0_linear_7372_260978" x1="20" y1="0" x2="20" y2="40" gradientUnits="userSpaceOnUse">
<stop stop-color="#70D1FC"/>
<stop offset="1" stop-color="#35A6F2"/>
</linearGradient>
</defs>
</svg>
