<svg width="40" height="40" viewBox="0 0 40 40" fill="none" xmlns="http://www.w3.org/2000/svg">
<rect width="40" height="40" rx="12" fill="url(#paint0_linear_7372_260976)"/>
<path d="M14.5459 24.041C14.3633 24.041 14.2111 23.9912 14.0894 23.8916C13.9676 23.792 13.8846 23.6564 13.8403 23.4849L13.5166 22.1401C13.4059 22.0959 13.298 22.0544 13.1929 22.0156C13.0877 21.9714 12.9854 21.9243 12.8857 21.8745L11.707 22.605C11.5576 22.6935 11.4027 22.7323 11.2422 22.7212C11.0817 22.7046 10.9378 22.6326 10.8105 22.5054L10.022 21.7085C9.90023 21.5812 9.82829 21.4373 9.80615 21.2769C9.78955 21.1108 9.82829 20.9504 9.92236 20.7954L10.6528 19.6333C10.603 19.5337 10.556 19.4341 10.5117 19.3345C10.4674 19.2293 10.4287 19.1242 10.3955 19.019L9.04248 18.6953C8.87093 18.651 8.73535 18.5708 8.63574 18.4546C8.53613 18.3328 8.48633 18.1807 8.48633 17.998V16.8857C8.48633 16.5094 8.67171 16.277 9.04248 16.1885L10.3789 15.8481C10.4232 15.7375 10.4647 15.6323 10.5034 15.5327C10.5477 15.4276 10.592 15.328 10.6362 15.2339L9.92236 14.0469C9.83382 13.8864 9.79232 13.7287 9.79785 13.5737C9.80339 13.4188 9.87256 13.2804 10.0054 13.1587L10.8105 12.3618C10.9378 12.2456 11.0789 12.1764 11.2339 12.1543C11.3888 12.1266 11.541 12.1571 11.6904 12.2456L12.8774 12.9844C12.9771 12.9346 13.0794 12.8875 13.1846 12.8433C13.2952 12.799 13.4059 12.7575 13.5166 12.7188L13.8403 11.3574C13.8846 11.1914 13.9676 11.0586 14.0894 10.959C14.2111 10.8538 14.3633 10.8013 14.5459 10.8013H15.6748C15.8519 10.8013 16.0013 10.8538 16.123 10.959C16.2503 11.0586 16.3333 11.1914 16.3721 11.3574L16.7041 12.7354C16.8203 12.7686 16.931 12.8073 17.0361 12.8516C17.1413 12.8958 17.2381 12.9429 17.3267 12.9927L18.5303 12.2456C18.6742 12.1626 18.8236 12.1322 18.9785 12.1543C19.139 12.1764 19.2801 12.2456 19.4019 12.3618L20.2153 13.1587C20.3426 13.2804 20.409 13.4188 20.4146 13.5737C20.4256 13.7287 20.3869 13.8864 20.2983 14.0469L19.5845 15.2339C19.6287 15.328 19.6702 15.4276 19.709 15.5327C19.7533 15.6323 19.7948 15.7375 19.8335 15.8481L21.1699 16.1885C21.5407 16.277 21.7261 16.5094 21.7261 16.8857V17.998C21.7261 18.1807 21.6763 18.3328 21.5767 18.4546C21.4826 18.5708 21.347 18.651 21.1699 18.6953L19.8169 19.019C19.7892 19.1242 19.7533 19.2293 19.709 19.3345C19.6647 19.4341 19.6177 19.5337 19.5679 19.6333L20.29 20.7954C20.3841 20.9504 20.4229 21.1108 20.4062 21.2769C20.3896 21.4373 20.3205 21.5812 20.1987 21.7085L19.4019 22.5054C19.2801 22.6326 19.139 22.7046 18.9785 22.7212C18.818 22.7323 18.6631 22.6935 18.5137 22.605L17.3267 21.8745C17.2326 21.9243 17.133 21.9714 17.0278 22.0156C16.9227 22.0544 16.8148 22.0959 16.7041 22.1401L16.3721 23.4849C16.3333 23.6564 16.2503 23.792 16.123 23.8916C16.0013 23.9912 15.8519 24.041 15.6748 24.041H14.5459ZM15.1104 19.4341C15.4811 19.4341 15.8187 19.3455 16.123 19.1685C16.4329 18.9858 16.6792 18.7424 16.8618 18.438C17.0444 18.1281 17.1357 17.785 17.1357 17.4087C17.1357 17.0435 17.0444 16.7059 16.8618 16.396C16.6792 16.0861 16.4329 15.8426 16.123 15.6655C15.8187 15.4829 15.4811 15.3916 15.1104 15.3916C14.734 15.3916 14.3937 15.4829 14.0894 15.6655C13.785 15.8426 13.5415 16.0861 13.3589 16.396C13.1763 16.7059 13.085 17.0435 13.085 17.4087C13.085 17.785 13.1763 18.1281 13.3589 18.438C13.5415 18.7424 13.785 18.9858 14.0894 19.1685C14.3937 19.3455 14.734 19.4341 15.1104 19.4341ZM25.4863 29.2207C25.3258 29.2207 25.1903 29.1764 25.0796 29.0879C24.9744 29.0049 24.9025 28.8887 24.8638 28.7393L24.5815 27.5771C24.493 27.5384 24.4017 27.4997 24.3076 27.4609C24.2191 27.4277 24.1333 27.389 24.0503 27.3447L23.0293 27.9756C22.902 28.0586 22.7664 28.0918 22.6226 28.0752C22.4842 28.0641 22.3597 28.006 22.249 27.9009L21.585 27.2202C21.4743 27.1095 21.4106 26.9795 21.394 26.8301C21.3774 26.6862 21.4134 26.5534 21.502 26.4316L22.1245 25.4189C22.0858 25.3359 22.047 25.2502 22.0083 25.1616C21.9751 25.0731 21.9447 24.9845 21.917 24.896L20.7383 24.6221C20.5889 24.5889 20.4699 24.5197 20.3813 24.4146C20.2983 24.3039 20.2568 24.1683 20.2568 24.0078V23.0698C20.2568 22.9093 20.2983 22.7765 20.3813 22.6714C20.4699 22.5607 20.5889 22.486 20.7383 22.4473L21.9004 22.1733C21.9336 22.0682 21.9668 21.9714 22 21.8828C22.0387 21.7943 22.0747 21.714 22.1079 21.6421L21.502 20.6128C21.4134 20.48 21.3747 20.3472 21.3857 20.2144C21.3968 20.076 21.4604 19.9487 21.5767 19.8325L22.249 19.1685C22.3597 19.0633 22.4842 19.0024 22.6226 18.9858C22.7609 18.9692 22.891 18.9969 23.0127 19.0688L24.042 19.6997C24.125 19.6554 24.2135 19.6167 24.3076 19.5835C24.4017 19.5503 24.493 19.5143 24.5815 19.4756L24.8638 18.2969C24.9025 18.153 24.9744 18.0368 25.0796 17.9482C25.1903 17.8597 25.3258 17.8154 25.4863 17.8154H26.4326C26.5931 17.8154 26.7259 17.8597 26.8311 17.9482C26.9417 18.0368 27.0164 18.153 27.0552 18.2969L27.3208 19.4922C27.4204 19.5199 27.5173 19.5558 27.6113 19.6001C27.7054 19.6388 27.7912 19.6748 27.8687 19.708L28.8979 19.0688C29.0252 18.9914 29.1553 18.9637 29.2881 18.9858C29.4264 19.0024 29.5509 19.0633 29.6616 19.1685L30.3506 19.8325C30.4613 19.9487 30.5194 20.076 30.5249 20.2144C30.536 20.3472 30.5 20.48 30.417 20.6128L29.8027 21.6421C29.8802 21.7804 29.9521 21.9575 30.0186 22.1733L31.1807 22.4473C31.4961 22.5247 31.6538 22.7323 31.6538 23.0698V24.0078C31.6538 24.3454 31.4961 24.5501 31.1807 24.6221L30.0103 24.896C29.9771 24.9845 29.9411 25.0731 29.9023 25.1616C29.8691 25.2502 29.8332 25.3359 29.7944 25.4189L30.417 26.4316C30.5 26.5589 30.5332 26.6945 30.5166 26.8384C30.5 26.9823 30.4391 27.1095 30.334 27.2202L29.6616 27.9009C29.5509 28.006 29.4264 28.0641 29.2881 28.0752C29.1497 28.0918 29.0169 28.0586 28.8896 27.9756L27.8687 27.3447C27.7856 27.389 27.6971 27.4277 27.603 27.4609C27.5145 27.4997 27.4204 27.5384 27.3208 27.5771L27.0552 28.7393C27.0164 28.8887 26.9417 29.0049 26.8311 29.0879C26.7259 29.1764 26.5931 29.2207 26.4326 29.2207H25.4863ZM25.9595 25.1201C26.4022 25.1201 26.7785 24.9624 27.0884 24.647C27.4038 24.3315 27.5615 23.9525 27.5615 23.5098C27.5615 23.0726 27.4038 22.6963 27.0884 22.3809C26.7785 22.0654 26.4022 21.9077 25.9595 21.9077C25.5168 21.9077 25.1377 22.0654 24.8223 22.3809C24.5124 22.6963 24.3574 23.0726 24.3574 23.5098C24.3574 23.9525 24.5124 24.3315 24.8223 24.647C25.1377 24.9624 25.5168 25.1201 25.9595 25.1201Z" fill="white"/>
<defs>
<linearGradient id="paint0_linear_7372_260976" x1="20" y1="0" x2="20" y2="40" gradientUnits="userSpaceOnUse">
<stop stop-color="#DF9DF1"/>
<stop offset="1" stop-color="#D76FEC"/>
</linearGradient>
</defs>
</svg>
