<svg width="40" height="40" viewBox="0 0 40 40" fill="none" xmlns="http://www.w3.org/2000/svg">
<rect width="40" height="40" rx="12" fill="url(#paint0_linear_7372_260977)"/>
<path d="M17 19C19.2091 19 21 17.2091 21 15C21 12.7909 19.2091 11 17 11C14.7909 11 13 12.7909 13 15C13 17.2091 14.7909 19 17 19Z" fill="white"/>
<path d="M9.20348 25.7615C10.5281 22.9566 13.5206 21 17 21C20.4794 21 23.4719 22.9566 24.7965 25.7615C25.5913 27.4446 23.9337 29 21.9722 29H12.0278C10.0663 29 8.40866 27.4446 9.20348 25.7615Z" fill="white"/>
<path d="M28 16.1111C28 17.8293 26.6569 19.2222 25 19.2222C23.3431 19.2222 22 17.8293 22 16.1111C22 14.3929 23.3431 13 25 13C26.6569 13 28 14.3929 28 16.1111Z" fill="white"/>
<path d="M22.0335 21.4868C23.6726 22.5429 24.9837 24.0994 25.7711 25.9519C25.9228 26.3088 25.9951 26.661 25.9998 27H28.7292C30.2003 27 31.4435 25.7902 30.8474 24.4812C29.8539 22.2996 27.6096 20.7778 25 20.7778C23.9293 20.7778 22.9201 21.034 22.0335 21.4868Z" fill="white"/>
<defs>
<linearGradient id="paint0_linear_7372_260977" x1="20" y1="0" x2="20" y2="40" gradientUnits="userSpaceOnUse">
<stop stop-color="#99DD7C"/>
<stop offset="1" stop-color="#60CE6C"/>
</linearGradient>
</defs>
</svg>
