<svg width="24" height="24" viewBox="0 0 24 24" fill="none" xmlns="http://www.w3.org/2000/svg">
<path fill-rule="evenodd" clip-rule="evenodd" d="M2.5 17C2.5 18.5188 3.73122 19.75 5.25 19.75H13.25C14.7688 19.75 16 18.5188 16 17V15C16 14.5858 15.6642 14.25 15.25 14.25C14.8358 14.25 14.5 14.5858 14.5 15V17C14.5 17.6904 13.9404 18.25 13.25 18.25H5.25C4.55964 18.25 4 17.6904 4 17V7C4 6.30964 4.55964 5.75 5.25 5.75H13.25C13.9404 5.75 14.5 6.30964 14.5 7V9C14.5 9.41421 14.8358 9.75 15.25 9.75C15.6642 9.75 16 9.41421 16 9V7C16 5.48122 14.7688 4.25 13.25 4.25H5.25C3.73122 4.25 2.5 5.48122 2.5 7V17ZM9 12C9 12.4142 9.33579 12.75 9.75 12.75H18.9393L17.2197 14.4697C16.9268 14.7626 16.9268 15.2374 17.2197 15.5303C17.5126 15.8232 17.9874 15.8232 18.2803 15.5303L21.2803 12.5303C21.5732 12.2374 21.5732 11.7626 21.2803 11.4697L18.2803 8.46967C17.9874 8.17678 17.5126 8.17678 17.2197 8.46967C16.9268 8.76256 16.9268 9.23744 17.2197 9.53033L18.9393 11.25H9.75C9.33579 11.25 9 11.5858 9 12Z" fill="#EB4B35"/>
</svg>
