<svg width="20" height="20" viewBox="0 0 20 20" fill="none" xmlns="http://www.w3.org/2000/svg">
<path fill-rule="evenodd" clip-rule="evenodd" d="M18.3333 10C18.3333 14.6024 14.6024 18.3333 10 18.3333C5.39763 18.3333 1.66667 14.6024 1.66667 10C1.66667 5.39763 5.39763 1.66667 10 1.66667C14.6024 1.66667 18.3333 5.39763 18.3333 10ZM6.96967 6.96967C7.26257 6.67678 7.73744 6.67678 8.03034 6.96967L10 8.93934L11.9697 6.96967C12.2626 6.67678 12.7374 6.67678 13.0303 6.96967C13.3232 7.26257 13.3232 7.73744 13.0303 8.03034L11.0607 10L13.0303 11.9697C13.3232 12.2626 13.3232 12.7374 13.0303 13.0303C12.7374 13.3232 12.2626 13.3232 11.9697 13.0303L10 11.0607L8.03034 13.0303C7.73744 13.3232 7.26257 13.3232 6.96967 13.0303C6.67678 12.7374 6.67678 12.2626 6.96967 11.9697L8.93934 10L6.96967 8.03034C6.67678 7.73744 6.67678 7.26257 6.96967 6.96967Z" fill="#797979"/>
</svg>
