<svg width="14" height="14" viewBox="0 0 14 14" fill="none" xmlns="http://www.w3.org/2000/svg">
<path fill-rule="evenodd" clip-rule="evenodd" d="M2.05025 11.9489C4.78392 14.6825 9.21608 14.6825 11.9497 11.9489C14.6834 9.21518 14.6834 4.78303 11.9497 2.04936C9.21608 -0.684313 4.78392 -0.684313 2.05025 2.04936C-0.683417 4.78303 -0.683417 9.21518 2.05025 11.9489ZM10.182 3.81712C10.5725 4.20765 10.5725 4.84081 10.182 5.23134L8.41421 6.99911L10.182 8.76688C10.5725 9.1574 10.5725 9.79057 10.182 10.1811C9.79145 10.5716 9.15828 10.5716 8.76776 10.1811L6.99999 8.41333L5.23223 10.1811C4.84171 10.5716 4.20854 10.5716 3.81802 10.1811C3.4275 9.79056 3.4275 9.1574 3.81802 8.76687L5.58578 6.99911L3.81801 5.23135C3.42749 4.84082 3.42749 4.20766 3.81801 3.81713C4.20854 3.42661 4.8417 3.42661 5.23223 3.81713L6.99999 5.5849L8.76777 3.81712C9.15829 3.4266 9.79146 3.4266 10.182 3.81712Z" fill="#121212" fill-opacity="0.24"/>
</svg>
