<svg width="32" height="32" viewBox="0 0 32 32" fill="none" xmlns="http://www.w3.org/2000/svg">
<g clip-path="url(#clip0_1536_725992)">
<circle cx="16" cy="16" r="15.25" stroke="white" stroke-width="1.5"/>
<path fill-rule="evenodd" clip-rule="evenodd" d="M10.1299 9.06928C9.83705 8.77639 9.36217 8.77639 9.06928 9.06928C8.77639 9.36217 8.77639 9.83705 9.06928 10.1299L14.9389 15.9996L9.06928 21.8693C8.77639 22.1622 8.77639 22.637 9.06928 22.9299C9.36217 23.2228 9.83705 23.2228 10.1299 22.9299L15.9996 17.0603L21.8693 22.9299C22.1622 23.2228 22.637 23.2228 22.9299 22.9299C23.2228 22.637 23.2228 22.1622 22.9299 21.8693L17.0603 15.9996L22.9299 10.1299C23.2228 9.83705 23.2228 9.36217 22.9299 9.06928C22.637 8.77639 22.1622 8.77639 21.8693 9.06928L15.9996 14.9389L10.1299 9.06928Z" fill="white"/>
</g>
<defs>
<clipPath id="clip0_1536_725992">
<rect width="32" height="32" fill="white"/>
</clipPath>
</defs>
</svg>
