<svg width="24" height="24" viewBox="0 0 24 24" fill="none" xmlns="http://www.w3.org/2000/svg">
<path fill-rule="evenodd" clip-rule="evenodd" d="M2.75 12C2.75 6.89137 6.89137 2.75 12 2.75C17.1086 2.75 21.25 6.89137 21.25 12C21.25 17.1086 17.1086 21.25 12 21.25C6.89137 21.25 2.75 17.1086 2.75 12ZM12 1.25C6.06294 1.25 1.25 6.06294 1.25 12C1.25 17.9371 6.06294 22.75 12 22.75C17.9371 22.75 22.75 17.9371 22.75 12C22.75 6.06294 17.9371 1.25 12 1.25ZM7.46943 7.46967C7.76232 7.17678 8.23719 7.17678 8.53009 7.46967L11.9998 10.9393L15.4694 7.46967C15.7623 7.17678 16.2372 7.17678 16.5301 7.46967C16.823 7.76256 16.823 8.23744 16.5301 8.53033L13.0604 12L16.5301 15.4697C16.823 15.7626 16.823 16.2374 16.5301 16.5303C16.2372 16.8232 15.7623 16.8232 15.4694 16.5303L11.9998 13.0607L8.53009 16.5303C8.23719 16.8232 7.76232 16.8232 7.46943 16.5303C7.17653 16.2374 7.17653 15.7626 7.46943 15.4697L10.9391 12L7.46943 8.53033C7.17653 8.23744 7.17653 7.76256 7.46943 7.46967Z" fill="black"/>
</svg>
