<svg width="20" height="20" viewBox="0 0 20 20" fill="none" xmlns="http://www.w3.org/2000/svg">
<path fill-rule="evenodd" clip-rule="evenodd" d="M10 19C15 19 19 15.7025 19 11C19 6 15.1869 2 10 2C5.02944 2 0.70812 6.03801 1 11C1.1235 13.0994 2 14.5 3 16C3.24007 16.3601 2 19 2 19C2 19 4.5 17.7757 5 18C6.16904 18.5245 8 19 10 19ZM6 12C6.55229 12 7 11.5523 7 11C7 10.4477 6.55229 10 6 10C5.44772 10 5 10.4477 5 11C5 11.5523 5.44772 12 6 12ZM10 12C10.5523 12 11 11.5523 11 11C11 10.4477 10.5523 10 10 10C9.44772 10 9 10.4477 9 11C9 11.5523 9.44772 12 10 12ZM15 11C15 11.5523 14.5523 12 14 12C13.4477 12 13 11.5523 13 11C13 10.4477 13.4477 10 14 10C14.5523 10 15 10.4477 15 11Z" fill="#007AFF"/>
</svg>
