<svg width="40" height="40" viewBox="0 0 40 40" fill="none" xmlns="http://www.w3.org/2000/svg">
<g clip-path="url(#clip0_492_675)">
<g opacity="0.9" filter="url(#filter0_d_492_675)">
<path d="M19.8102 4.00104C22.0099 3.97686 24.0767 4.37572 26.0105 5.1976C27.9444 6.01948 29.6425 7.13748 31.105 8.5516C32.5674 9.96571 33.7217 11.6336 34.5678 13.5554C35.4138 15.4772 35.8489 17.5379 35.8731 19.7376C35.8973 21.8165 35.5407 23.7745 34.8034 25.6117C34.0662 27.4488 33.0388 29.0744 31.7214 30.4886C30.404 31.9027 28.8569 33.069 27.0802 33.9876C25.3035 34.9062 23.3878 35.4742 21.3331 35.6918C20.8013 35.7643 20.2332 35.8247 19.6289 35.8731C19.0245 35.9214 18.3537 35.9577 17.6165 35.9819C16.8792 36.006 16.0573 36.006 15.1508 35.9819C14.2443 35.9577 13.223 35.8852 12.0869 35.7643C9.57291 35.5226 7.70554 35.2083 6.48481 34.8216C5.26407 34.4348 4.77457 34.2172 5.0163 34.1689C6.29747 33.9513 7.39734 33.6008 8.31591 33.1174C8.79937 32.8515 8.9988 32.4707 8.91419 31.9752C8.82959 31.4797 8.5939 31.0143 8.20713 30.5792C6.97431 29.2255 5.97718 27.6482 5.21573 25.8474C4.45428 24.0465 4.04938 22.1066 4.00104 20.0277C3.97686 17.828 4.37572 15.7612 5.1976 13.8273C6.01948 11.8935 7.14352 10.2014 8.56973 8.75102C9.99593 7.30065 11.676 6.15243 13.6098 5.30638C15.5436 4.46032 17.6104 4.02521 19.8102 4.00104ZM26.8808 19.9552C26.8808 20.5837 27.0983 21.1215 27.5334 21.5687C27.9685 22.0159 28.5003 22.2395 29.1288 22.2395C29.7573 22.2395 30.2952 22.0159 30.7424 21.5687C31.1896 21.1215 31.4132 20.5837 31.4132 19.9552C31.4132 19.3267 31.1896 18.7949 30.7424 18.3598C30.2952 17.9247 29.7573 17.7071 29.1288 17.7071C28.5003 17.7071 27.9685 17.9247 27.5334 18.3598C27.0983 18.7949 26.8808 19.3267 26.8808 19.9552ZM17.7796 19.9552C17.7796 20.5837 18.0093 21.1276 18.4686 21.5869C18.9278 22.0462 19.4717 22.2758 20.1002 22.2758C20.7529 22.2758 21.3028 22.0462 21.75 21.5869C22.1972 21.1276 22.4208 20.5837 22.4208 19.9552C22.4208 19.3025 22.1972 18.7526 21.75 18.3054C21.3028 17.8582 20.7529 17.6346 20.1002 17.6346C19.4717 17.6346 18.9278 17.8582 18.4686 18.3054C18.0093 18.7526 17.7796 19.3025 17.7796 19.9552ZM8.78729 19.9189C8.78729 20.5474 9.01089 21.0913 9.45809 21.5506C9.90529 22.0099 10.4431 22.2395 11.0716 22.2395C11.7243 22.2395 12.2742 22.0099 12.7214 21.5506C13.1686 21.0913 13.3922 20.5474 13.3922 19.9189C13.3922 19.2904 13.1686 18.7526 12.7214 18.3054C12.2742 17.8582 11.7243 17.6346 11.0716 17.6346C10.4431 17.6346 9.90529 17.8582 9.45809 18.3054C9.01089 18.7526 8.78729 19.2904 8.78729 19.9189Z" fill="white"/>
</g>
</g>
<defs>
<filter id="filter0_d_492_675" x="0" y="0" width="39.8743" height="40" filterUnits="userSpaceOnUse" color-interpolation-filters="sRGB">
<feFlood flood-opacity="0" result="BackgroundImageFix"/>
<feColorMatrix in="SourceAlpha" type="matrix" values="0 0 0 0 0 0 0 0 0 0 0 0 0 0 0 0 0 0 127 0" result="hardAlpha"/>
<feOffset/>
<feGaussianBlur stdDeviation="2"/>
<feComposite in2="hardAlpha" operator="out"/>
<feColorMatrix type="matrix" values="0 0 0 0 0 0 0 0 0 0 0 0 0 0 0 0 0 0 0.16 0"/>
<feBlend mode="normal" in2="BackgroundImageFix" result="effect1_dropShadow_492_675"/>
<feBlend mode="normal" in="SourceGraphic" in2="effect1_dropShadow_492_675" result="shape"/>
</filter>
<clipPath id="clip0_492_675">
<rect width="40" height="40" fill="white"/>
</clipPath>
</defs>
</svg>
