<svg width="20" height="20" viewBox="0 0 20 20" fill="none" xmlns="http://www.w3.org/2000/svg">
<path d="M8 10C8 10.5523 7.55228 11 7 11C6.44772 11 6 10.5523 6 10C6 9.44771 6.44772 9 7 9C7.55228 9 8 9.44771 8 10Z" fill="#121212"/>
<path d="M11 10C11 10.5523 10.5523 11 10 11C9.44771 11 9 10.5523 9 10C9 9.44771 9.44771 9 10 9C10.5523 9 11 9.44771 11 10Z" fill="#121212"/>
<path d="M14 10C14 10.5523 13.5523 11 13 11C12.4477 11 12 10.5523 12 10C12 9.44771 12.4477 9 13 9C13.5523 9 14 9.44771 14 10Z" fill="#121212"/>
<path fill-rule="evenodd" clip-rule="evenodd" d="M3.60588 17.5123C3.87858 17.5799 4.1967 17.6423 4.56026 17.6997C4.99091 17.7677 5.4853 17.8285 6.04345 17.8822C6.61151 17.9426 7.12217 17.9788 7.57541 17.9909C8.02865 18.003 8.43959 18.003 8.80823 17.9909C9.17687 17.9788 9.51227 17.9607 9.81443 17.9365C10.1166 17.9124 10.4006 17.8822 10.6665 17.8459C11.6939 17.7371 12.6517 17.4531 13.5401 16.9938C14.4284 16.5345 15.202 15.9513 15.8607 15.2443C16.5194 14.5372 17.0331 13.7244 17.4017 12.8058C17.7704 11.8873 17.9486 10.9083 17.9366 9.86882C17.9245 8.76895 17.7069 7.73858 17.2839 6.7777C16.8609 5.81682 16.2837 4.98286 15.5525 4.2758C14.8213 3.56874 13.9722 3.00974 13.0053 2.5988C12.0383 2.18786 11.005 1.98843 9.90508 2.00052C8.80521 2.0126 7.77181 2.23016 6.8049 2.65319C5.83798 3.07621 4.99797 3.65032 4.28486 4.37551C3.57176 5.1007 3.00974 5.94675 2.5988 6.91367C2.18786 7.88059 1.98843 8.91399 2.00052 10.0139C2.02469 11.0533 2.22714 12.0232 2.60786 12.9237C2.98859 13.8241 3.48716 14.6128 4.10357 15.2896C4.29695 15.5072 4.41479 15.7398 4.4571 15.9876C4.48813 16.1694 4.44272 16.3203 4.32086 16.4403C4.27663 16.4838 4.22233 16.5233 4.15796 16.5587C3.99539 16.6442 3.82148 16.7215 3.6362 16.7904C3.56408 16.8172 3.49024 16.8428 3.41467 16.8671C3.13592 16.9567 2.83374 17.0292 2.50815 17.0844C2.46515 17.093 2.46843 17.1124 2.51799 17.1424L2.51998 17.1436C2.61126 17.198 2.85206 17.2871 3.2424 17.4108C3.35296 17.4458 3.47412 17.4796 3.60588 17.5123ZM16.7366 9.88277C16.747 10.7725 16.595 11.5941 16.2881 12.3589C15.9731 13.1437 15.5382 13.83 14.9827 14.4263C14.4212 15.029 13.7593 15.5296 12.989 15.9278C12.2374 16.3164 11.4242 16.559 10.5402 16.6526L10.5223 16.6545L10.5044 16.6569C10.2632 16.6898 10.0015 16.7177 9.71874 16.7404C9.43883 16.7628 9.12259 16.78 8.76891 16.7916C8.42867 16.8027 8.04202 16.803 7.6074 16.7914C7.19276 16.7803 6.71459 16.7468 6.17039 16.6889L6.1583 16.6877C5.95521 16.6681 5.76308 16.6478 5.58163 16.6268C5.67733 16.3385 5.68478 16.048 5.63998 15.7856C5.55424 15.2835 5.31895 14.8507 5.00046 14.4924L4.99565 14.487L4.99078 14.4816C4.47184 13.9118 4.04457 13.2402 3.71313 12.4564C3.3958 11.7059 3.22203 10.8885 3.20037 9.99332C3.19098 9.05407 3.36101 8.18819 3.7032 7.38304C4.05725 6.54997 4.53639 5.83122 5.14049 5.21688C5.74226 4.60491 6.45377 4.11662 7.28588 3.75258C8.09897 3.39685 8.97256 3.21084 9.91827 3.20045C10.8604 3.19009 11.7286 3.36012 12.5359 3.7032C13.372 4.05852 14.0963 4.53703 14.7183 5.13847C15.3342 5.73396 15.8232 6.43797 16.1856 7.26122C16.5402 8.06675 16.7262 8.93706 16.7366 9.88277Z" fill="#121212"/>
</svg>
