<svg width="29" height="30" viewBox="0 0 29 30" fill="none" xmlns="http://www.w3.org/2000/svg">
<path fill-rule="evenodd" clip-rule="evenodd" d="M21.1663 4.41699H7.83301C7.00458 4.41699 6.33301 5.08856 6.33301 5.91699V19.0837H6.36575H6.39886H6.43209H6.46544H6.49891H6.53249H6.56619H6.60001H6.63394H6.66799H6.70215H6.73642H6.77081H6.8053H6.83991H6.87463H6.90945H6.94439H6.97943H7.01458H7.04983H7.08519H7.12066H7.15623H7.1919H7.22768H7.26356H7.29954H7.33562H7.3718H7.40808H7.44446H7.48093H7.51751H7.55418H7.59094H7.6278H7.66476H7.7018H7.73894H7.77618H7.8135H7.85091H7.88842H7.92601H7.96369H8.00146H8.03932H8.07726H8.11529H8.1534H8.1916H8.22988H8.26824H8.30669H8.34521H8.38382H8.42251H8.46127H8.50012H8.53904H8.57804H8.61711H8.65626H8.69549H8.73479H8.77416H8.81361H8.85313H8.89271H8.93237H8.9721H9.0119H9.05177H9.0917H9.1317H9.17177H9.2119H9.2521H9.29236H9.33269H9.37307H9.41352H9.45403H9.49461H9.53524H9.57593H9.61667H9.65748H9.69834H9.73926H9.78024H9.82127H9.86235H9.90348H9.94467H9.98591H10.0272H10.0685H10.1099H10.1514H10.1929H10.2344H10.276H10.3176H10.3593H10.401H10.4428H10.4846H10.5264H10.5683H10.6103H10.6522H10.6942H10.7363H10.7784H10.8205H10.8627H10.9049H10.9471H10.9894H11.0317H11.074H11.1164H11.1588H11.2012H11.2437H11.2862H11.3287H11.3713H11.4138H11.4564H11.4991H11.5417H11.5844H11.6271H11.6698H11.7126H11.7554H11.7982H11.841H11.8838H11.9267H11.9695H12.0124H12.0553H12.0982H12.1412H12.1841H12.2271H12.2701H12.3131H12.3561H12.3991H12.4421H12.4851H12.5282H12.5712H12.6143H12.6573H12.7004H12.7435H12.7865H12.8296H12.8727H12.9158H12.9589H13.002H13.0451H13.0882H13.1313H13.1743H13.2174H13.2605H13.3036H13.3467H13.3897H13.4328H13.4758H13.5189H13.5619H13.6049H13.648H13.691H13.734H13.777H13.8199H13.8629H13.9058H13.9488H13.9917H14.0346H14.0775H14.1203H14.1632H14.206H14.2488H14.2916H14.3344H14.3771H14.4198H14.4625H14.5052H14.5478H14.5905H14.633H14.6756H14.7182H14.7607H14.8032H14.8456H14.888H14.9304H14.9728H15.0151H15.0574H15.0997H15.1419H15.1841H15.2262H15.2683H15.3104H15.3525H15.3945H15.4364H15.4783H15.5202H15.562H15.6038H15.6456H15.6873H15.729H15.7706H15.8121H15.8537H15.8951H15.9366H15.9779H16.0193H16.0605H16.1018H16.1429H16.184H16.2251H16.2661H16.3071H16.348H16.3888H16.4296H16.4703H16.511H16.5516H16.5922H16.6327H16.6731H16.7135H16.7538H16.794H16.8342H16.8743H16.9143H16.9543H16.9942H17.0341H17.0738H17.1135H17.1532H17.1927H17.2322H17.2717H17.311H17.3503H17.3895H17.4286H17.4677H17.5066H17.5455H17.5844H17.6231H17.6618H17.7003H17.7388H17.7773H17.8156H17.8538H17.892H17.9301H17.9681H18.006H18.0438H18.0816H18.1192H18.1568H18.1943H18.2316H18.2689H18.3061H18.3433H18.3803H18.4172H18.454H18.4908H18.5274H18.5639H18.6004H18.6367H18.673H18.7091H18.7452H18.7811H18.8169H18.8527H18.8883H18.9239H18.9593H18.9946H19.0298H19.065H19.1H19.1349H19.1697H19.2043H19.2389H19.2734H19.3077H19.3419H19.3761H19.4101H19.444H19.4777H19.5114H19.545H19.5784H19.6117H19.6449H19.678H19.7109H19.7437H19.7765H19.809H19.8415H19.8738H19.9061H19.9381H19.9701H20.002H20.0337H20.0652H20.0967H20.128H20.1592H20.1903H20.2212H20.252H20.2827H20.3132H20.3436H20.3739H20.404H20.434H20.4638H20.4935H20.5231H20.5526H20.5818H20.611H20.64H20.6689H20.6976H20.7262H20.7546H20.7829H20.8111H20.8391H20.8669H20.8946H20.9222H20.9496H20.9768H21.0039H21.0309H21.0577H21.0843H21.1108H21.1372H21.1634H21.1894H21.2153H21.241H21.2665H21.2919H21.3172H21.3422H21.3671H21.3919H21.4165H21.4409H21.4652H21.4893H21.5132H21.537H21.5606H21.584H21.6073H21.6304H21.6533H21.676H21.6986H21.721H21.7433H21.7653H21.7872H21.809H21.8305H21.8519H21.8731H21.8941H21.9149H21.9355H21.956H21.9763H21.9964H22.0164H22.0361H22.0557H22.0751H22.0942H22.1133H22.1321H22.1507H22.1692H22.1874H22.2055H22.2234H22.2411H22.2586H22.2759H22.293H22.3099H22.3267H22.3432H22.3595H22.3757H22.3916H22.4074H22.4229H22.4383H22.4534H22.4684H22.4831H22.4977H22.512H22.5261H22.5401H22.5538H22.5673H22.5807H22.5938H22.6067H22.6194H22.6319H22.6441H22.6562H22.6663V5.91699C22.6663 5.08857 21.9948 4.41699 21.1663 4.41699ZM6.33301 24.0837V20.5837H6.36575H6.39886H6.43209H6.46544H6.49891H6.53249H6.56619H6.60001H6.63394H6.66799H6.70215H6.73642H6.77081H6.8053H6.83991H6.87463H6.90945H6.94439H6.97943H7.01458H7.04983H7.08519H7.12066H7.15623H7.1919H7.22768H7.26356H7.29954H7.33562H7.3718H7.40808H7.44446H7.48093H7.51751H7.55418H7.59094H7.6278H7.66476H7.7018H7.73894H7.77618H7.8135H7.85091H7.88842H7.92601H7.96369H8.00146H8.03932H8.07726H8.11529H8.1534H8.1916H8.22988H8.26824H8.30669H8.34521H8.38382H8.42251H8.46127H8.50012H8.53904H8.57804H8.61711H8.65626H8.69549H8.73479H8.77416H8.81361H8.85313H8.89271H8.93237H8.9721H9.0119H9.05177H9.0917H9.1317H9.17177H9.2119H9.2521H9.29236H9.33269H9.37307H9.41352H9.45403H9.49461H9.53524H9.57593H9.61667H9.65748H9.69834H9.73926H9.78024H9.82127H9.86235H9.90348H9.94467H9.98591H10.0272H10.0685H10.1099H10.1514H10.1929H10.2344H10.276H10.3176H10.3593H10.401H10.4428H10.4846H10.5264H10.5683H10.6103H10.6522H10.6942H10.7363H10.7784H10.8205H10.8627H10.9049H10.9471H10.9894H11.0317H11.074H11.1164H11.1588H11.2012H11.2437H11.2862H11.3287H11.3713H11.4138H11.4564H11.4991H11.5417H11.5844H11.6271H11.6698H11.7126H11.7554H11.7982H11.841H11.8838H11.9267H11.9695H12.0124H12.0553H12.0982H12.1412H12.1841H12.2271H12.2701H12.3131H12.3561H12.3991H12.4421H12.4851H12.5282H12.5712H12.6143H12.6573H12.7004H12.7435H12.7865H12.8296H12.8727H12.9158H12.9589H13.002H13.0451H13.0882H13.1313H13.1743H13.2174H13.2605H13.3036H13.3467H13.3897H13.4328H13.4758H13.5189H13.5619H13.6049H13.648H13.691H13.734H13.777H13.8199H13.8629H13.9058H13.9488H13.9917H14.0346H14.0775H14.1203H14.1632H14.206H14.2488H14.2916H14.3344H14.3771H14.4198H14.4625H14.5052H14.5478H14.5905H14.633H14.6756H14.7182H14.7607H14.8032H14.8456H14.888H14.9304H14.9728H15.0151H15.0574H15.0997H15.1419H15.1841H15.2262H15.2683H15.3104H15.3525H15.3945H15.4364H15.4783H15.5202H15.562H15.6038H15.6456H15.6873H15.729H15.7706H15.8121H15.8537H15.8951H15.9366H15.9779H16.0193H16.0605H16.1018H16.1429H16.184H16.2251H16.2661H16.3071H16.348H16.3888H16.4296H16.4703H16.511H16.5516H16.5922H16.6327H16.6731H16.7135H16.7538H16.794H16.8342H16.8743H16.9143H16.9543H16.9942H17.0341H17.0738H17.1135H17.1532H17.1927H17.2322H17.2717H17.311H17.3503H17.3895H17.4286H17.4677H17.5066H17.5455H17.5844H17.6231H17.6618H17.7003H17.7388H17.7773H17.8156H17.8538H17.892H17.9301H17.9681H18.006H18.0438H18.0816H18.1192H18.1568H18.1943H18.2316H18.2689H18.3061H18.3433H18.3803H18.4172H18.454H18.4908H18.5274H18.5639H18.6004H18.6367H18.673H18.7091H18.7452H18.7811H18.8169H18.8527H18.8883H18.9239H18.9593H18.9946H19.0298H19.065H19.1H19.1349H19.1697H19.2043H19.2389H19.2734H19.3077H19.3419H19.3761H19.4101H19.444H19.4777H19.5114H19.545H19.5784H19.6117H19.6449H19.678H19.7109H19.7437H19.7765H19.809H19.8415H19.8738H19.9061H19.9381H19.9701H20.002H20.0337H20.0652H20.0967H20.128H20.1592H20.1903H20.2212H20.252H20.2827H20.3132H20.3436H20.3739H20.404H20.434H20.4638H20.4935H20.5231H20.5526H20.5818H20.611H20.64H20.6689H20.6976H20.7262H20.7546H20.7829H20.8111H20.8391H20.8669H20.8946H20.9222H20.9496H20.9768H21.0039H21.0309H21.0577H21.0843H21.1108H21.1372H21.1634H21.1894H21.2153H21.241H21.2665H21.2919H21.3172H21.3422H21.3671H21.3919H21.4165H21.4409H21.4652H21.4893H21.5132H21.537H21.5606H21.584H21.6073H21.6304H21.6533H21.676H21.6986H21.721H21.7433H21.7653H21.7872H21.809H21.8305H21.8519H21.8731H21.8941H21.9149H21.9355H21.956H21.9763H21.9964H22.0164H22.0361H22.0557H22.0751H22.0942H22.1133H22.1321H22.1507H22.1692H22.1874H22.2055H22.2234H22.2411H22.2586H22.2759H22.293H22.3099H22.3267H22.3432H22.3595H22.3757H22.3916H22.4074H22.4229H22.4383H22.4534H22.4684H22.4831H22.4977H22.512H22.5261H22.5401H22.5538H22.5673H22.5807H22.5938H22.6067H22.6194H22.6319H22.6441H22.6562H22.6663V24.0837C22.6663 24.9121 21.9948 25.5837 21.1663 25.5837H7.83301C7.00458 25.5837 6.33301 24.9121 6.33301 24.0837ZM7.83301 2.91699C6.17615 2.91699 4.83301 4.26014 4.83301 5.91699V24.0837C4.83301 25.7405 6.17616 27.0837 7.83301 27.0837H21.1663C22.8232 27.0837 24.1663 25.7405 24.1663 24.0837V5.91699C24.1663 4.26014 22.8232 2.91699 21.1663 2.91699H7.83301ZM10.8747 7.00033C10.4605 7.00033 10.1247 7.33611 10.1247 7.75033C10.1247 8.16454 10.4605 8.50033 10.8747 8.50033H10.8883H10.9021H10.9158H10.9297H10.9435H10.9575H10.9714H10.9855H10.9996H11.0137H11.0279H11.0421H11.0564H11.0708H11.0852H11.0996H11.1141H11.1286H11.1432H11.1579H11.1726H11.1873H11.2021H11.2169H11.2318H11.2467H11.2617H11.2767H11.2918H11.3069H11.322H11.3372H11.3525H11.3678H11.3831H11.3985H11.4139H11.4294H11.4449H11.4604H11.476H11.4916H11.5073H11.523H11.5388H11.5546H11.5704H11.5863H11.6022H11.6182H11.6342H11.6502H11.6663H11.6824H11.6985H11.7147H11.731H11.7472H11.7635H11.7798H11.7962H11.8126H11.8291H11.8455H11.862H11.8786H11.8952H11.9118H11.9284H11.9451H11.9618H11.9786H11.9954H12.0122H12.029H12.0459H12.0628H12.0797H12.0967H12.1137H12.1307H12.1478H12.1649H12.182H12.1991H12.2163H12.2335H12.2507H12.268H12.2853H12.3026H12.3199H12.3373H12.3546H12.3721H12.3895H12.407H12.4244H12.442H12.4595H12.4771H12.4946H12.5122H12.5299H12.5475H12.5652H12.5829H12.6006H12.6184H12.6361H12.6539H12.6717H12.6895H12.7074H12.7252H12.7431H12.761H12.7789H12.7969H12.8148H12.8328H12.8508H12.8688H12.8868H12.9048H12.9229H12.941H12.959H12.9772H12.9953H13.0134H13.0315H13.0497H13.0679H13.0861H13.1043H13.1225H13.1407H13.1589H13.1772H13.1954H13.2137H13.232H13.2503H13.2686H13.2869H13.3052H13.3235H13.3419H13.3602H13.3786H13.397H13.4153H13.4337H13.4521H13.4705H13.4889H13.5073H13.5257H13.5441H13.5625H13.581H13.5994H13.6179H13.6363H13.6547H13.6732H13.6916H13.7101H13.7286H13.747H13.7655H13.7839H13.8024H13.8209H13.8393H13.8578H13.8763H13.8947H13.9132H13.9317H13.9501H13.9686H13.9871H14.0055H14.024H14.0424H14.0609H14.0793H14.0978H14.1162H14.1347H14.1531H14.1715H14.1899H14.2084H14.2268H14.2452H14.2636H14.282H14.3003H14.3187H14.3371H14.3555H14.3738H14.3922H14.4105H14.4288H14.4471H14.4654H14.4837H14.502H14.5203H14.5386H14.5568H14.5751H14.5933H14.6115H14.6297H14.6479H14.6661H14.6843H14.7024H14.7206H14.7387H14.7568H14.7749H14.793H14.8111H14.8291H14.8471H14.8652H14.8832H14.9011H14.9191H14.937H14.955H14.9729H14.9908H15.0087H15.0265H15.0443H15.0622H15.08H15.0977H15.1155H15.1332H15.1509H15.1686H15.1863H15.2039H15.2215H15.2391H15.2567H15.2743H15.2918H15.3093H15.3268H15.3442H15.3617H15.3791H15.3965H15.4138H15.4311H15.4484H15.4657H15.483H15.5002H15.5174H15.5345H15.5517H15.5688H15.5858H15.6029H15.6199H15.6369H15.6538H15.6708H15.6877H15.7045H15.7214H15.7382H15.7549H15.7717H15.7884H15.805H15.8217H15.8383H15.8549H15.8714H15.8879H15.9043H15.9208H15.9372H15.9535H15.9699H15.9861H16.0024H16.0186H16.0348H16.0509H16.067H16.0831H16.0991H16.1151H16.131H16.1469H16.1628H16.1786H16.1944H16.2101H16.2258H16.2415H16.2571H16.2727H16.2882H16.3037H16.3192H16.3346H16.3499H16.3653H16.3805H16.3958H16.4109H16.4261H16.4412H16.4562H16.4712H16.4862H16.5011H16.516H16.5308H16.5455H16.5603H16.5749H16.5896H16.6041H16.6187H16.6331H16.6476H16.6619H16.6763H16.6905H16.7048H16.7189H16.7331H16.7471H16.7612H16.7751H16.789H16.8029H16.8167H16.8304H16.8441H16.8578H16.8714H16.8849H16.8984H16.9118H16.9252H16.9385H16.9518H16.965H16.9781H16.9912H17.0042H17.0172H17.0301H17.0429H17.0557H17.0685H17.0812H17.0938H17.1063H17.1188H17.1312H17.1436H17.1559H17.1682H17.1804H17.1925H17.2046H17.2166H17.2285H17.2404H17.2522H17.2639H17.2756H17.2872H17.2988H17.3103H17.3217H17.333H17.3443H17.3555H17.3667H17.3778H17.3888H17.3998H17.4106H17.4215H17.4322H17.4429H17.4535H17.464H17.4745H17.4849H17.4952H17.5055H17.5157H17.5258H17.5358H17.5458H17.5557H17.5655H17.5753H17.5849H17.5945H17.6041H17.6135H17.6229H17.6322H17.6415H17.6506H17.6597H17.6687H17.6776H17.6865H17.6953H17.7039H17.7126H17.7211H17.7296H17.738H17.7463H17.7545H17.7626H17.7707H17.7787H17.7866H17.7944H17.8022H17.8098H17.8174H17.8249H17.8323H17.8397H17.8469H17.8541H17.8612H17.8682H17.8751H17.8819H17.8887H17.8953H17.9019H17.9084H17.9148H17.9211H17.9274H17.9335H17.9396H17.9456H17.9514H17.9572H17.963H17.9686H17.9741H17.9795H17.9849H17.9902H17.9953H18.0004H18.0054H18.0103H18.0151H18.0198H18.0245H18.029H18.0334H18.0378H18.042H18.0462H18.0502H18.0542H18.0581H18.0619H18.0656H18.0691H18.0726H18.076H18.0793H18.0825H18.0857H18.0887H18.0916H18.0944H18.0971H18.0997H18.1023H18.1047H18.107H18.1092H18.1113H18.1134H18.1153H18.1171H18.1188H18.1204H18.122H18.1234H18.1247C18.5389 8.50033 18.8747 8.16454 18.8747 7.75033C18.8747 7.33611 18.5389 7.00033 18.1247 7.00033H18.1234H18.122H18.1204H18.1188H18.1171H18.1153H18.1134H18.1113H18.1092H18.107H18.1047H18.1023H18.0997H18.0971H18.0944H18.0916H18.0887H18.0857H18.0825H18.0793H18.076H18.0726H18.0691H18.0656H18.0619H18.0581H18.0542H18.0502H18.0462H18.042H18.0378H18.0334H18.029H18.0245H18.0198H18.0151H18.0103H18.0054H18.0004H17.9953H17.9902H17.9849H17.9795H17.9741H17.9686H17.963H17.9572H17.9514H17.9456H17.9396H17.9335H17.9274H17.9211H17.9148H17.9084H17.9019H17.8953H17.8887H17.8819H17.8751H17.8682H17.8612H17.8541H17.8469H17.8397H17.8323H17.8249H17.8174H17.8098H17.8022H17.7944H17.7866H17.7787H17.7707H17.7626H17.7545H17.7463H17.738H17.7296H17.7211H17.7126H17.7039H17.6953H17.6865H17.6776H17.6687H17.6597H17.6506H17.6415H17.6322H17.6229H17.6135H17.6041H17.5945H17.5849H17.5753H17.5655H17.5557H17.5458H17.5358H17.5258H17.5157H17.5055H17.4952H17.4849H17.4745H17.464H17.4535H17.4429H17.4322H17.4215H17.4106H17.3998H17.3888H17.3778H17.3667H17.3555H17.3443H17.333H17.3217H17.3103H17.2988H17.2872H17.2756H17.2639H17.2522H17.2404H17.2285H17.2166H17.2046H17.1925H17.1804H17.1682H17.1559H17.1436H17.1312H17.1188H17.1063H17.0938H17.0812H17.0685H17.0557H17.0429H17.0301H17.0172H17.0042H16.9912H16.9781H16.965H16.9518H16.9385H16.9252H16.9118H16.8984H16.8849H16.8714H16.8578H16.8441H16.8304H16.8167H16.8029H16.789H16.7751H16.7612H16.7471H16.7331H16.7189H16.7048H16.6905H16.6763H16.6619H16.6476H16.6331H16.6187H16.6041H16.5896H16.5749H16.5603H16.5455H16.5308H16.516H16.5011H16.4862H16.4712H16.4562H16.4412H16.4261H16.4109H16.3958H16.3805H16.3653H16.3499H16.3346H16.3192H16.3037H16.2882H16.2727H16.2571H16.2415H16.2258H16.2101H16.1944H16.1786H16.1628H16.1469H16.131H16.1151H16.0991H16.0831H16.067H16.0509H16.0348H16.0186H16.0024H15.9861H15.9699H15.9535H15.9372H15.9208H15.9043H15.8879H15.8714H15.8549H15.8383H15.8217H15.805H15.7884H15.7717H15.7549H15.7382H15.7214H15.7045H15.6877H15.6708H15.6538H15.6369H15.6199H15.6029H15.5858H15.5688H15.5517H15.5345H15.5174H15.5002H15.483H15.4657H15.4484H15.4311H15.4138H15.3965H15.3791H15.3617H15.3442H15.3268H15.3093H15.2918H15.2743H15.2567H15.2391H15.2215H15.2039H15.1863H15.1686H15.1509H15.1332H15.1155H15.0977H15.08H15.0622H15.0443H15.0265H15.0087H14.9908H14.9729H14.955H14.937H14.9191H14.9011H14.8832H14.8652H14.8471H14.8291H14.8111H14.793H14.7749H14.7568H14.7387H14.7206H14.7024H14.6843H14.6661H14.6479H14.6297H14.6115H14.5933H14.5751H14.5568H14.5386H14.5203H14.502H14.4837H14.4654H14.4471H14.4288H14.4105H14.3922H14.3738H14.3555H14.3371H14.3187H14.3003H14.282H14.2636H14.2452H14.2268H14.2084H14.1899H14.1715H14.1531H14.1347H14.1162H14.0978H14.0793H14.0609H14.0424H14.024H14.0055H13.9871H13.9686H13.9501H13.9317H13.9132H13.8947H13.8763H13.8578H13.8393H13.8209H13.8024H13.7839H13.7655H13.747H13.7286H13.7101H13.6916H13.6732H13.6547H13.6363H13.6179H13.5994H13.581H13.5625H13.5441H13.5257H13.5073H13.4889H13.4705H13.4521H13.4337H13.4153H13.397H13.3786H13.3602H13.3419H13.3235H13.3052H13.2869H13.2686H13.2503H13.232H13.2137H13.1954H13.1772H13.1589H13.1407H13.1225H13.1043H13.0861H13.0679H13.0497H13.0315H13.0134H12.9953H12.9772H12.959H12.941H12.9229H12.9048H12.8868H12.8688H12.8508H12.8328H12.8148H12.7969H12.7789H12.761H12.7431H12.7252H12.7074H12.6895H12.6717H12.6539H12.6361H12.6184H12.6006H12.5829H12.5652H12.5475H12.5299H12.5122H12.4946H12.4771H12.4595H12.442H12.4244H12.407H12.3895H12.3721H12.3546H12.3373H12.3199H12.3026H12.2853H12.268H12.2507H12.2335H12.2163H12.1991H12.182H12.1649H12.1478H12.1307H12.1137H12.0967H12.0797H12.0628H12.0459H12.029H12.0122H11.9954H11.9786H11.9618H11.9451H11.9284H11.9118H11.8952H11.8786H11.862H11.8455H11.8291H11.8126H11.7962H11.7798H11.7635H11.7472H11.731H11.7147H11.6985H11.6824H11.6663H11.6502H11.6342H11.6182H11.6022H11.5863H11.5704H11.5546H11.5388H11.523H11.5073H11.4916H11.476H11.4604H11.4449H11.4294H11.4139H11.3985H11.3831H11.3678H11.3525H11.3372H11.322H11.3069H11.2918H11.2767H11.2617H11.2467H11.2318H11.2169H11.2021H11.1873H11.1726H11.1579H11.1432H11.1286H11.1141H11.0996H11.0852H11.0708H11.0564H11.0421H11.0279H11.0137H10.9996H10.9855H10.9714H10.9575H10.9435H10.9297H10.9158H10.9021H10.8883H10.8747Z" fill="#007AFF"/>
</svg>
