<svg width="26" height="26" viewBox="0 0 26 26" fill="none" xmlns="http://www.w3.org/2000/svg">
    <path
        d="M12.75 0.5C5.85 0.5 0.25 6.1 0.25 13C0.25 19.9 5.85 25.5 12.75 25.5C19.65 25.5 25.25 19.9 25.25 13C25.25 6.1 19.65 0.5 12.75 0.5ZM12.75 5.5C15.1625 5.5 17.125 7.4625 17.125 9.875C17.125 12.2875 15.1625 14.25 12.75 14.25C10.3375 14.25 8.375 12.2875 8.375 9.875C8.375 7.4625 10.3375 5.5 12.75 5.5ZM12.75 23C10.2125 23 7.2125 21.975 5.075 19.4C7.1875 17.75 9.85 16.75 12.75 16.75C15.65 16.75 18.3125 17.75 20.425 19.4C18.2875 21.975 15.2875 23 12.75 23Z"
        fill="#007AFF" fill-opacity="1" />
</svg>