<svg width="24" height="24" viewBox="0 0 24 24" fill="none" xmlns="http://www.w3.org/2000/svg">
<path fill-rule="evenodd" clip-rule="evenodd" d="M10.5027 1.75C8.98391 1.75 7.80371 2.88618 7.80371 3.81066C7.80371 4.22487 8.08848 4.5 8.5027 4.5C8.91691 4.5 9.13032 4.22487 9.13032 3.81066C9.13032 3.5 9.31234 3.25 10.0027 3.25L13.7527 3.25V7.20002C13.7527 7.96967 15.1654 9.25 16.1319 9.25H19.7527V15.5C19.7527 16.1904 19.1931 16.75 18.5027 16.75H18.0027C17.5885 16.75 17.2527 17.0858 17.2527 17.5C17.2527 17.9142 17.5885 18.25 18.0027 18.25H18.5027C20.0215 18.25 21.2527 17.0188 21.2527 15.5V8.5C21.2527 8.30109 21.1737 8.11032 21.033 7.96967L15.033 1.96967C14.8924 1.82902 14.7016 1.75 14.5027 1.75L10.5027 1.75ZM18.692 7.75L15.2527 4.31066V7.5C15.2527 7.63807 15.3646 7.75 15.5027 7.75H18.692ZM4.25 8.5C4.25 7.80964 4.80964 7.25 5.5 7.25L8.75 7.25V11C8.75 12.2426 9.75736 13.25 11 13.25H14.75V19.5C14.75 20.1904 14.1904 20.75 13.5 20.75H5.5C4.80964 20.75 4.25 20.1904 4.25 19.5L4.25 8.5ZM13.6893 11.75L10.25 8.31066V11C10.25 11.4142 10.5858 11.75 11 11.75H13.6893ZM5.5 5.75C3.98122 5.75 2.75 6.98122 2.75 8.5L2.75 19.5C2.75 21.0188 3.98122 22.25 5.5 22.25H13.5C15.0188 22.25 16.25 21.0188 16.25 19.5V12.5C16.25 12.3011 16.171 12.1103 16.0303 11.9697L10.0303 5.96967C9.88968 5.82902 9.69891 5.75 9.5 5.75L5.5 5.75Z" fill="black"/>
</svg>
