<svg width="24" height="24" viewBox="0 0 24 24" fill="none" xmlns="http://www.w3.org/2000/svg">
<path fill-rule="evenodd" clip-rule="evenodd" d="M3.42 10.25C3.42 6.72791 6.59476 3.75 10.67 3.75C14.7452 3.75 17.92 6.72791 17.92 10.25C17.92 13.7721 14.7452 16.75 10.67 16.75H10.6655H10.6611H10.6566H10.6522H10.6478H10.6433H10.6389H10.6346H10.6302H10.6258H10.6215H10.6171H10.6128H10.6085H10.6042H10.5999H10.5956H10.5913H10.587H10.5828H10.5785H10.5743H10.5701H10.5659H10.5617H10.5575H10.5533H10.5492H10.545H10.5409H10.5367H10.5326H10.5285H10.5244H10.5203H10.5162H10.5121H10.5081H10.504H10.5H10.4959H10.4919H10.4879H10.4839H10.4799H10.4759H10.4719H10.4679H10.464H10.46H10.4561H10.4522H10.4482H10.4443H10.4404H10.4365H10.4326H10.4288H10.4249H10.421H10.4172H10.4133H10.4095H10.4057H10.4019H10.3981H10.3943H10.3905H10.3867H10.3829H10.3791H10.3754H10.3716H10.3679H10.3641H10.3604H10.3567H10.353H10.3493H10.3456H10.3419H10.3382H10.3345H10.3308H10.3272H10.3235H10.3199H10.3162H10.3126H10.309H10.3054H10.3018H10.2981H10.2945H10.291H10.2874H10.2838H10.2802H10.2766H10.2731H10.2695H10.266H10.2624H10.2589H10.2554H10.2519H10.2483H10.2448H10.2413H10.2378H10.2343H10.2308H10.2274H10.2239H10.2204H10.2169H10.2135H10.21H10.2066H10.2031H10.1997H10.1963H10.1928H10.1894H10.186H10.1826H10.1792H10.1757H10.1723H10.169H10.1656H10.1622H10.1588H10.1554H10.152H10.1487H10.1453H10.1419H10.1386H10.1352H10.1319H10.1285H10.1252H10.1219H10.1185H10.1152H10.1119H10.1086H10.1052H10.1019H10.0986H10.0953H10.092H10.0887H10.0854H10.0821H10.0788H10.0755H10.0722H10.0689H10.0657H10.0624H10.0591H10.0558H10.0526H10.0493H10.046H10.0428H10.0395H10.0363H10.033H10.0297H10.0265H10.0232H10.02H10.0168H10.0135H10.0103H10.007H10.0038H10.0006H9.99732H9.99409H9.99085H9.98763H9.9844H9.98117H9.97794H9.97472H9.9715H9.96827H9.96505H9.96183H9.95861H9.95539H9.95218H9.94896H9.94574H9.94253H9.93931H9.9361H9.93288H9.92967H9.92646H9.92325H9.92003H9.91682H9.91361H9.9104H9.90718H9.90397H9.90076H9.89755H9.89433H9.89112H9.88791H9.88469H9.88148H9.87827H9.87505H9.87183H9.86862H9.8654H9.86218H9.85896H9.85574H9.85252H9.8493H9.84608H9.84286H9.83963H9.8364H9.83318H9.82995H9.82672H9.82348H9.82025H9.81702H9.81378H9.81054H9.8073H9.80406H9.80081H9.79757H9.79432H9.79107H9.78782H9.78456H9.78131H9.77805H9.77479H9.77152H9.76826H9.76499H9.76172H9.75844H9.75517H9.75189H9.74861H9.74532H9.74203H9.73874H9.73545H9.73215H9.72885H9.72555H9.72224H9.71893H9.71562H9.7123H9.70898H9.70566H9.70233H9.699H9.69566H9.69232H9.68898H9.68563H9.68228H9.67893H9.67557H9.67221H9.66884H9.66547H9.66209H9.65871H9.65533H9.65194H9.64855H9.64515H9.64175H9.63834H9.63493H9.63151H9.62809H9.62466H9.62123H9.61779H9.61435H9.6109H9.60745H9.60399H9.60053H9.59706H9.59359H9.59011H9.58662H9.58313H9.57964H9.57613H9.57262H9.56911H9.56559H9.56206H9.55853H9.555H9.55145H9.5479H9.54434H9.54078H9.53721H9.53364H9.53005H9.52646H9.52287H9.51927H9.51566H9.51204H9.50842H9.50479H9.50115H9.49751H9.49386H9.4902H9.48653H9.48286H9.47918H9.4755H9.4718H9.4681H9.46439H9.46067H9.45695H9.45322H9.44947H9.44573H9.44197H9.43821H9.43443H9.43065H9.42687H9.42307H9.41926H9.41545H9.41163H9.4078H9.40396H9.40012H9.39626H9.3924H9.38852H9.38464H9.38075H9.37685H9.37294H9.36903H9.3651H9.36117H9.35722H9.35327H9.34931H9.34533H9.34135H9.33736H9.33336H9.32935H9.32533H9.3213H9.31726H9.31321H9.30915H9.30508H9.301H9.29692H9.29282H9.28871H9.28459H9.28046H9.27632H9.27217H9.26801H9.26384H9.25965H9.25546H9.25126H9.24704H9.24282H9.23858H9.23434H9.23008H9.22581H9.22153H9.21724H9.21294H9.20863H9.2043H9.19997H9.19562H9.19126H9.18689H9.18251H9.17812H9.17371H9.16929H9.16487H9.16042H9.15597H9.15151H9.14703H9.14254H9.13804H9.13353H9.129H9.12446H9.11991H9.11535H9.11078H9.10619H9.10159H9.09698H9.09235H9.08771H9.08306H9.07839H9.07372H9.06903H9.06432H9.05961H9.05488H9.05013H9.04538H9.04061H9.03582H9.03103H9.02622H9.02139H9.01655H9.0117H9.00684H9.00196H8.99707H8.99216H8.98724H8.9823H8.97735H8.97239H8.96741H8.96242H8.95741H8.95239H8.94736H8.94231H8.93724H8.93216H8.92707H8.92196H8.91684H8.9117H8.90655H8.90138H8.8962H8.891H8.88578H8.88056H8.87531H8.87005H8.86478H8.85949H8.85418H8.84886H8.84352H8.83817H8.8328H8.82742H8.82202H8.8166H8.81117H8.80572H8.80025H8.79477H8.78928H8.78376H8.77824H8.77269H8.76713H8.76155H8.75595H8.75034H8.74471H8.73907H8.73629C8.525 16.7215 8.33837 16.7636 8.18664 16.8222C8.03629 16.8803 7.88183 16.9706 7.75228 17.047L7.64642 17.1098C7.36985 17.2741 6.97753 17.5072 6.34729 17.8228C6.56705 17.3893 6.66981 16.947 6.68424 16.5699C6.69151 16.3799 6.6772 16.184 6.6297 16.0024C6.59073 15.8533 6.49319 15.5713 6.22555 15.3847C4.50061 14.1823 3.42 12.318 3.42 10.25ZM4.87526 18.2855C4.87536 18.2854 4.8779 18.2856 4.88259 18.2863C4.87751 18.286 4.87516 18.2856 4.87526 18.2855ZM10.67 2.25C5.90868 2.25 1.92 5.76396 1.92 10.25C1.92 12.7889 3.21049 15.031 5.18599 16.4851C5.18591 16.4938 5.1857 16.5029 5.18533 16.5126C5.17907 16.6762 5.12973 16.9115 5.00352 17.156C4.90097 17.3548 4.71161 17.5472 4.46754 17.7952C4.4268 17.8366 4.38453 17.8796 4.3409 17.9244L4.33701 17.9284C4.2279 18.0403 4.03509 18.2382 3.92828 18.4568C3.87026 18.5755 3.77713 18.8192 3.858 19.1107C3.94653 19.4298 4.18255 19.5999 4.35187 19.6792C4.56769 19.7803 4.79976 19.7899 4.9544 19.7862C5.1336 19.7818 5.33158 19.7547 5.53853 19.7096C5.9543 19.619 6.45724 19.4449 7.00541 19.1708C7.69296 18.827 8.12899 18.5679 8.41167 18.3999L8.41169 18.3999L8.51433 18.3391C8.58204 18.2991 8.6311 18.2709 8.66997 18.25H8.67H8.67585H8.68168H8.6875H8.6933H8.69908H8.70484H8.71059H8.71632H8.72203H8.72773H8.73341H8.73907H8.74471H8.75034H8.75595H8.76155H8.76713H8.77269H8.77824H8.78376H8.78928H8.79477H8.80025H8.80572H8.81117H8.8166H8.82202H8.82742H8.8328H8.83817H8.84352H8.84886H8.85418H8.85949H8.86478H8.87005H8.87531H8.88056H8.88578H8.891H8.8962H8.90138H8.90655H8.9117H8.91684H8.92196H8.92707H8.93216H8.93724H8.94231H8.94736H8.95239H8.95741H8.96242H8.96741H8.97239H8.97735H8.9823H8.98724H8.99216H8.99707H9.00196H9.00684H9.0117H9.01655H9.02139H9.02622H9.03103H9.03582H9.04061H9.04538H9.05013H9.05488H9.05961H9.06432H9.06903H9.07372H9.07839H9.08306H9.08771H9.09235H9.09698H9.10159H9.10619H9.11078H9.11535H9.11991H9.12446H9.129H9.13353H9.13804H9.14254H9.14703H9.15151H9.15597H9.16042H9.16487H9.16929H9.17371H9.17812H9.18251H9.18689H9.19126H9.19562H9.19997H9.2043H9.20863H9.21294H9.21724H9.22153H9.22581H9.23008H9.23434H9.23858H9.24282H9.24704H9.25126H9.25546H9.25965H9.26384H9.26801H9.27217H9.27632H9.28046H9.28459H9.28871H9.29282H9.29692H9.301H9.30508H9.30915H9.31321H9.31726H9.3213H9.32533H9.32935H9.33336H9.33736H9.34135H9.34533H9.34931H9.35327H9.35722H9.36117H9.3651H9.36903H9.37294H9.37685H9.38075H9.38464H9.38852H9.3924H9.39626H9.40012H9.40396H9.4078H9.41163H9.41545H9.41926H9.42307H9.42687H9.43065H9.43443H9.43821H9.44197H9.44573H9.44947H9.45322H9.45695H9.46067H9.46439H9.4681H9.4718H9.4755H9.47918H9.48286H9.48653H9.4902H9.49386H9.49751H9.50115H9.50479H9.50842H9.51204H9.51566H9.51927H9.52287H9.52646H9.53005H9.53364H9.53721H9.54078H9.54434H9.5479H9.55145H9.555H9.55853H9.56206H9.56559H9.56911H9.57262H9.57613H9.57964H9.58313H9.58662H9.59011H9.59359H9.59706H9.60053H9.60399H9.60745H9.6109H9.61435H9.61779H9.62123H9.62466H9.62809H9.63151H9.63493H9.63834H9.64175H9.64515H9.64855H9.65194H9.65533H9.65871H9.66209H9.66547H9.66884H9.67221H9.67557H9.67893H9.68228H9.68563H9.68898H9.69232H9.69566H9.699H9.70233H9.70566H9.70898H9.7123H9.71562H9.71893H9.72224H9.72555H9.72885H9.73215H9.73545H9.73874H9.74203H9.74532H9.74861H9.75189H9.75517H9.75844H9.76172H9.76499H9.76826H9.77152H9.77479H9.77805H9.78131H9.78456H9.78782H9.79107H9.79432H9.79757H9.80081H9.80406H9.8073H9.81054H9.81378H9.81702H9.82025H9.82348H9.82672H9.82995H9.83318H9.8364H9.83963H9.84286H9.84608H9.8493H9.85252H9.85574H9.85896H9.86218H9.8654H9.86862H9.87183H9.87505H9.87827H9.88148H9.88469H9.88791H9.89112H9.89433H9.89755H9.90076H9.90397H9.90718H9.9104H9.91361H9.91682H9.92003H9.92325H9.92646H9.92967H9.93288H9.9361H9.93931H9.94253H9.94574H9.94896H9.95218H9.95539H9.95861H9.96183H9.96505H9.96827H9.9715H9.97472H9.97794H9.98117H9.9844H9.98763H9.99085H9.99409H9.99732H10.0006H10.0038H10.007H10.0103H10.0135H10.0168H10.02H10.0232H10.0265H10.0297H10.033H10.0363H10.0395H10.0428H10.046H10.0493H10.0526H10.0558H10.0591H10.0624H10.0657H10.0689H10.0722H10.0755H10.0788H10.0821H10.0854H10.0887H10.092H10.0953H10.0986H10.1019H10.1052H10.1086H10.1119H10.1152H10.1185H10.1219H10.1252H10.1285H10.1319H10.1352H10.1386H10.1419H10.1453H10.1487H10.152H10.1554H10.1588H10.1622H10.1656H10.169H10.1723H10.1757H10.1792H10.1826H10.186H10.1894H10.1928H10.1963H10.1997H10.2031H10.2066H10.21H10.2135H10.2169H10.2204H10.2239H10.2274H10.2308H10.2343H10.2378H10.2413H10.2448H10.2483H10.2519H10.2554H10.2589H10.2624H10.266H10.2695H10.2731H10.2766H10.2802H10.2838H10.2874H10.291H10.2945H10.2981H10.3018H10.3054H10.309H10.3126H10.3162H10.3199H10.3235H10.3272H10.3308H10.3345H10.3382H10.3419H10.3456H10.3493H10.353H10.3567H10.3604H10.3641H10.3679H10.3716H10.3754H10.3791H10.3829H10.3867H10.3905H10.3943H10.3981H10.4019H10.4057H10.4095H10.4133H10.4172H10.421H10.4249H10.4288H10.4326H10.4365H10.4404H10.4443H10.4482H10.4522H10.4561H10.46H10.464H10.4679H10.4719H10.4759H10.4799H10.4839H10.4879H10.4919H10.4959H10.5H10.504H10.5081H10.5121H10.5162H10.5203H10.5244H10.5285H10.5326H10.5367H10.5409H10.545H10.5492H10.5533H10.5575H10.5617H10.5659H10.5701H10.5743H10.5785H10.5828H10.587H10.5913H10.5956H10.5999H10.6042H10.6085H10.6128H10.6171H10.6215H10.6258H10.6302H10.6346H10.6389H10.6433H10.6478H10.6522H10.6566H10.6611H10.6655H10.67C15.4313 18.25 19.42 14.736 19.42 10.25C19.42 5.76396 15.4313 2.25 10.67 2.25ZM21.3594 8.70456C21.1962 8.32384 20.7553 8.14747 20.3746 8.31064C19.9938 8.47381 19.8175 8.91472 19.9806 9.29544C20.2013 9.81038 20.4793 10.7309 20.5598 11.7467C20.6408 12.7684 20.5156 13.7995 20.0269 14.6141C19.4484 15.5782 18.9351 16.2462 18.5387 16.6844C18.3404 16.9037 18.1742 17.0624 18.0468 17.1707C17.9831 17.2249 17.9315 17.2643 17.8927 17.2917C17.8558 17.3175 17.8369 17.3279 17.8347 17.3291C17.8345 17.3292 17.8344 17.3292 17.8346 17.3292C17.5681 17.4624 17.4057 17.7408 17.421 18.0384L18.17 18C17.421 18.0384 17.421 18.0385 17.421 18.0387L17.421 18.0389L17.421 18.0396L17.4211 18.0412L17.4214 18.0458L17.4223 18.0608C17.423 18.0732 17.4241 18.0904 17.4257 18.112C17.4288 18.155 17.4337 18.2156 17.4409 18.2898C17.4553 18.4374 17.4794 18.6422 17.5186 18.8717C17.5706 19.1755 17.6576 19.5784 17.8109 19.956C17.7004 19.9176 17.5977 19.8753 17.5054 19.8292C17.2016 19.6773 17.0423 19.5486 16.8552 19.3974C16.784 19.3398 16.7088 19.2791 16.62 19.2125C16.4608 19.0931 16.2667 18.9673 16.0115 18.878C15.7581 18.7893 15.4835 18.75 15.17 18.75C14.8613 18.75 14.5656 18.7885 14.2998 18.8288C14.2206 18.8408 14.1451 18.8527 14.0718 18.8643C13.8853 18.8939 13.7124 18.9212 13.5247 18.9421C13.0345 18.9965 12.525 18.9944 11.9072 18.7885C11.5142 18.6575 11.0895 18.8699 10.9585 19.2628C10.8275 19.6558 11.0399 20.0805 11.4328 20.2115C12.315 20.5056 13.0555 20.5035 13.6903 20.4329C13.9155 20.4079 14.1394 20.3724 14.3362 20.3413C14.4024 20.3308 14.4655 20.3208 14.5245 20.3118C14.7744 20.274 14.9787 20.25 15.17 20.25C15.3565 20.25 15.4569 20.2732 15.516 20.2938C15.5733 20.3139 15.6292 20.3444 15.72 20.4125C15.7554 20.439 15.7978 20.4735 15.8476 20.514L15.8476 20.514C16.0484 20.6772 16.3694 20.9382 16.8346 21.1708C17.3322 21.4196 17.917 21.56 18.4124 21.6403C18.9152 21.7219 19.3803 21.75 19.67 21.75C19.992 21.75 20.2781 21.5444 20.3808 21.2392C20.4835 20.9341 20.38 20.5975 20.1236 20.4027L20.1235 20.4027L20.1235 20.4026L20.1197 20.3998L20.1015 20.3856C20.0849 20.3726 20.0598 20.3527 20.0284 20.3272C19.9652 20.2758 19.878 20.2029 19.7831 20.1174C19.5786 19.9333 19.3933 19.7396 19.3027 19.5973C19.1721 19.3921 19.0657 19.0197 18.9972 18.6189C18.9817 18.5283 18.9691 18.442 18.9588 18.3633C19.1674 18.1923 19.4013 17.967 19.6513 17.6906C20.1216 17.1705 20.6916 16.4218 21.3131 15.3859C22.0244 14.2005 22.1492 12.8149 22.0552 11.6283C21.9607 10.4358 21.6387 9.35629 21.3594 8.70456Z" fill="black"/>
</svg>
