<svg width="29" height="30" viewBox="0 0 29 30" fill="none" xmlns="http://www.w3.org/2000/svg">
<rect y="0.5" width="29" height="29" rx="6" fill="#65C466"/>
<path d="M22.32 8.57143V10.1786C22.32 11.5949 18.7927 12.75 14.445 12.75C10.0973 12.75 6.57001 11.5949 6.57001 10.1786V8.57143C6.57001 7.15513 10.0973 6 14.445 6C18.7927 6 22.32 7.15513 22.32 8.57143ZM21.5802 12.6164C21.9055 12.4564 22.32 12.6813 22.32 13.0438V15.8036C22.32 17.2199 18.7927 18.375 14.445 18.375C10.0973 18.375 6.57001 17.2199 6.57001 15.8036V13.0438C6.57001 12.6813 6.98456 12.4564 7.30985 12.6164C9.07892 13.4864 11.7658 13.8951 14.445 13.8951C17.1242 13.8951 19.8111 13.4864 21.5802 12.6164ZM21.5802 18.2414C21.9055 18.0814 22.32 18.3063 22.32 18.6688V21.4286C22.32 22.8449 18.7927 24 14.445 24C10.0973 24 6.57001 22.8449 6.57001 21.4286V18.6688C6.57001 18.3063 6.98456 18.0814 7.30985 18.2414C9.07892 19.1114 11.7658 19.5201 14.445 19.5201C17.1242 19.5201 19.8111 19.1114 21.5802 18.2414Z" fill="white"/>
</svg>
