<svg width="24" height="24" viewBox="0 0 24 24" fill="none" xmlns="http://www.w3.org/2000/svg">
    <path fill-rule="evenodd" clip-rule="evenodd"
        d="M9.50723 3.75C9.50723 3.33579 9.84302 3 10.2572 3H13.7437C14.1579 3 14.4937 3.33579 14.4937 3.75V4.92627H9.50723V3.75ZM15.9937 3.75V4.92627H18.4867H20.1078C20.522 4.92627 20.8578 5.26206 20.8578 5.67627C20.8578 6.09048 20.522 6.42627 20.1078 6.42627H19.1877L18.28 19.8509C18.1824 21.2944 16.9831 22.4154 15.5363 22.4154H8.46417C7.0174 22.4154 5.81804 21.2944 5.72044 19.8509L4.81275 6.42627H3.8916C3.47739 6.42627 3.1416 6.09048 3.1416 5.67627C3.1416 5.26206 3.47739 4.92627 3.8916 4.92627H5.51375H8.00723V3.75C8.00723 2.50736 9.01459 1.5 10.2572 1.5H13.7437C14.9864 1.5 15.9937 2.50736 15.9937 3.75ZM6.31617 6.42627H17.6843L16.7835 19.7497C16.7391 20.4058 16.1939 20.9154 15.5363 20.9154H8.46417C7.80655 20.9154 7.26138 20.4058 7.21702 19.7497L6.31617 6.42627ZM15.4512 18.2835C15.4268 18.697 15.0717 19.0123 14.6583 18.9879C14.2448 18.9634 13.9294 18.6084 13.9539 18.1949L14.4944 9.05825C14.5189 8.64475 14.8739 8.32939 15.2874 8.35385C15.7009 8.37831 16.0162 8.73334 15.9918 9.14683L15.4512 18.2835ZM12.0004 8.35254C11.5862 8.35254 11.2504 8.68833 11.2504 9.10254V18.2392C11.2504 18.6534 11.5862 18.9892 12.0004 18.9892C12.4146 18.9892 12.7504 18.6534 12.7504 18.2392V9.10254C12.7504 8.68833 12.4146 8.35254 12.0004 8.35254ZM8.00854 9.14683C7.98408 8.73334 8.29945 8.37831 8.71294 8.35385C9.12643 8.32939 9.48146 8.64475 9.50592 9.05825L10.0465 18.1949C10.0709 18.6084 9.75556 18.9634 9.34207 18.9879C8.92858 19.0123 8.57354 18.697 8.54908 18.2835L8.00854 9.14683Z"
        fill="#EB4B35" />
</svg>
