<svg fill="none" height="16" viewBox="0 0 16 16" width="16" xmlns="http://www.w3.org/2000/svg">
    <g clip-path="url(#clip0_3875_24448)">
        <path
            d="M11.5387 11.633C12.9947 10.7283 13.9716 9.44087 14.4694 8.66632C14.7325 8.2569 14.7325 7.74294 14.4694 7.33352C13.6407 6.04408 11.4843 3.33325 8.00005 3.33325C7.16635 3.33325 6.40867 3.48846 5.72701 3.74226M4.44136 4.37931C4.13339 4.57199 3.84698 4.78171 3.58214 4.99992C2.6044 5.80551 1.92059 6.72684 1.5307 7.33352C1.2676 7.74294 1.2676 8.2569 1.5307 8.66632C2.35937 9.95572 4.51582 12.6666 8.00005 12.6666C8.46849 12.6666 8.91293 12.6176 9.33337 12.5296C9.64364 12.4647 9.94083 12.3786 10.225 12.2753"
            stroke="#121212" stroke-linecap="round" />
        <path
            d="M3.70655 0.928483C3.93012 0.766396 4.24275 0.816236 4.40484 1.0398L14.0715 14.3731C14.2336 14.5967 14.1838 14.9093 13.9602 15.0714C13.7366 15.2335 13.424 15.1837 13.2619 14.9601L3.59523 1.62677C3.43314 1.4032 3.48298 1.09057 3.70655 0.928483Z"
            fill="#121212" />
    </g>
    <defs>
        <clipPath id="clip0_3875_24448">
            <rect fill="white" height="16" width="16" />
        </clipPath>
    </defs>
</svg>
