<svg fill="none" height="16" viewBox="0 0 16 16" width="16" xmlns="http://www.w3.org/2000/svg">
    <path clip-rule="evenodd" d="M10 1.5C10.2761 1.5 10.5 1.72386 10.5 2C10.5 2.27614 10.2761 2.5 10 2.5H6C5.72386 2.5 5.5 2.27614 5.5 2C5.5 1.72386 5.72386 1.5 6 1.5H10ZM14 4.5C14.2761 4.5 14.5 4.27614 14.5 4C14.5 3.72386 14.2761 3.5 14 3.5H2C1.72386 3.5 1.5 3.72386 1.5 4C1.5 4.27614 1.72386 4.5 2 4.5H3.5V12.6667C3.5 13.6792 4.32081 14.5 5.33333 14.5H10.6666C11.6791 14.5 12.4999 13.6792 12.4999 12.6667L12.5 4.5H14ZM4.5 12.6667V4.5H11.5L11.4999 12.6667C11.4999 13.1269 11.1268 13.5 10.6666 13.5H5.33333C4.8731 13.5 4.5 13.1269 4.5 12.6667ZM9.5 6.66667C9.5 6.39052 9.72386 6.16667 10 6.16667C10.2761 6.16667 10.5 6.39052 10.5 6.66667V11.3333C10.5 11.6095 10.2761 11.8333 10 11.8333C9.72386 11.8333 9.5 11.6095 9.5 11.3333V6.66667ZM8 6.16667C7.72386 6.16667 7.5 6.39052 7.5 6.66667L7.5 11.3333C7.5 11.6095 7.72386 11.8333 8 11.8333C8.27614 11.8333 8.5 11.6095 8.5 11.3333L8.5 6.66667C8.5 6.39052 8.27614 6.16667 8 6.16667ZM5.5 6.66667C5.5 6.39052 5.72386 6.16667 6 6.16667C6.27614 6.16667 6.5 6.39052 6.5 6.66667L6.5 11.3333C6.5 11.6095 6.27614 11.8333 6 11.8333C5.72386 11.8333 5.5 11.6095 5.5 11.3333L5.5 6.66667Z"
        fill="#EB4B35"
        fill-rule="evenodd" />
</svg>
