<svg fill="none" height="16" viewBox="0 0 16 16" width="16" xmlns="http://www.w3.org/2000/svg">
    <path
        d="M5.09596 10.2368L2.75204 12.5793C2.5671 12.7641 2.5671 13.0638 2.75205 13.2486C2.937 13.4335 3.23685 13.4335 3.42179 13.2486L5.7657 10.9061L5.09596 10.2368Z"
        fill="#121212" />
    <path clip-rule="evenodd" d="M2.34008 7.48265L8.52142 13.6601C9.07464 14.213 10.0055 14.0716 10.3694 13.3794C10.8779 12.4123 10.9981 11.3066 10.7864 10.2862C10.6853 9.79909 10.7522 9.34968 10.9972 9.05267L13.5459 5.96206C14.1975 5.17188 14.1419 4.01628 13.4174 3.29224L12.7069 2.58221C11.9867 1.86247 10.8389 1.80273 10.0477 2.44381L6.88353 5.00794C6.59243 5.24384 6.15743 5.31132 5.68522 5.21868C4.67598 5.02067 3.57362 5.13544 2.62092 5.63569C1.92834 5.99938 1.78688 6.92977 2.34008 7.48265ZM10.2257 8.41644C9.7198 9.02986 9.67017 9.82901 9.80724 10.4894C9.97554 11.3004 9.87682 12.1675 9.48432 12.9141C9.43413 13.0095 9.30508 13.0295 9.2283 12.9528L3.04699 6.77533C2.96094 6.6927 3 6.56611 3.08583 6.52104C3.81485 6.13826 4.6816 6.04083 5.49269 6.19996C6.13891 6.32675 6.91306 6.27112 7.51311 5.78487L10.6773 3.22074C11.0708 2.90186 11.6419 2.93164 12 3.28954L12.7105 3.99957C13.0705 4.35934 13.0981 4.93328 12.7744 5.32583L10.2257 8.41644Z"
        fill="#121212"
        fill-rule="evenodd" />
</svg>
