<svg width="148" height="149" viewBox="0 0 148 149" fill="none" xmlns="http://www.w3.org/2000/svg">
<g id="graphic" clip-path="url(#clip0_5661_203523)">
<circle id="Ellipse 111" cx="74" cy="75" r="74" fill="#121212" fill-opacity="0.32"/>
<g id="Mask group">
<mask id="mask0_5661_203523" style="mask-type:alpha" maskUnits="userSpaceOnUse" x="0" y="1" width="148" height="148">
<circle id="Ellipse 112" cx="74" cy="75" r="74" fill="#FEFEFE"/>
</mask>
<g mask="url(#mask0_5661_203523)">
<g id="Group">
<path id="path44" d="M28.5396 41.5568C28.5396 41.5568 30.7952 40.2187 32.1751 41.9392C33.0111 42.9814 32.8572 44.4847 32.8572 44.4847C32.8572 44.4847 34.8494 43.3978 36.4191 44.9713C37.7169 46.2717 37.2654 48.1298 37.2654 48.1298C37.2654 48.1298 40.4612 48.5028 41.563 50.7534C42.6657 53.0043 41.8631 54.6671 41.8631 54.6671L27.1756 55.9066L24.5167 45.1635L28.5396 41.5568Z" fill="#CBCBCB"/>
<path id="path46" d="M20.3961 51.8185C21.5372 51.5127 22.2171 50.3358 21.9114 49.1946C21.7696 48.6656 21.4346 48.2152 20.9686 47.9267C20.8918 47.8799 20.7917 47.9036 20.7446 47.9795C20.6969 48.0561 20.721 48.1562 20.797 48.2036C21.1928 48.4481 21.4767 48.8303 21.5969 49.2789C21.8562 50.2464 21.2798 51.2447 20.3119 51.5041C19.3443 51.7633 18.346 51.187 18.0868 50.2194C17.8275 49.2518 18.4038 48.2536 19.3714 47.9943C19.4582 47.9711 19.5098 47.8818 19.4865 47.795C19.4632 47.7082 19.3739 47.6567 19.2872 47.6799C18.1465 47.9856 17.4667 49.163 17.7723 50.3037C18.0781 51.4448 19.2554 52.1241 20.3961 51.8185Z" fill="#CBCBCB"/>
<path id="path236" d="M41.3446 138.237C41.3446 138.237 20.7037 133.395 18.298 117.793C15.3384 98.6001 20.5826 89.1963 20.5826 89.1963L34.0675 105.29L38.1142 124.737L43.4469 128.595L46.4143 134.884L41.3446 138.237Z" fill="#CBCBCB"/>
<path id="path238" d="M46.9517 131.042C47.2904 130.36 47.0012 129.512 46.291 129.114C43.4867 127.54 37.3935 123.667 37.1067 124.179C36.7402 124.832 34.8516 132.388 34.8516 132.388C34.8516 132.388 30.8603 130.394 30.0412 133.49C29.4121 135.865 30.5347 139.656 31.0912 141.292C31.2677 141.811 31.2879 142.356 31.1478 142.868C30.5465 145.072 29.1492 151.279 31.9593 152.956C35.3947 155.007 35.7809 153.384 36.1474 152.731C36.4617 152.171 44.6414 135.697 46.9517 131.042Z" fill="#CBCBCB"/>
<path id="path240" d="M19.7316 87.7561C19.7316 87.7561 9.19595 89.4896 8.76671 80.5784C8.3544 72.0283 12.3716 69.2779 12.3716 69.2779L19.8289 80.8032L19.7316 87.7561Z" fill="#CBCBCB"/>
<path id="path242" d="M27.1346 105.29C27.1346 105.29 28.3165 142.676 29.9019 146.631C31.4869 150.585 40.1494 146.631 40.1494 146.631L42.1958 106.12L27.1346 105.29Z" fill="#CBCBCB"/>
<path id="path244" d="M18.5186 79.7815C18.5186 79.7815 11.4849 80.9473 9.21241 72.7236C6.93991 64.4999 18.1726 54.0432 18.1726 54.0432L18.5186 79.7815Z" fill="#CBCBCB"/>
<path id="path246" d="M18.2978 81.468C18.2978 81.468 16.8317 89.4235 16.8317 95.3551C16.8317 101.287 16.1086 107.797 16.8317 108.376C17.5552 108.954 24.7355 110.897 33.4162 110.463C42.0965 110.029 44.7006 108.082 44.5556 107.392C44.4111 106.701 43.3985 106.12 43.3985 106.12C43.3985 106.12 43.9771 88.9721 41.6625 84.3824C39.3475 79.7927 29.4797 78.7906 29.4797 78.7906H18.8676L18.2978 81.468Z" fill="#CBCBCB"/>
<path id="path248" d="M26.126 102.331C26.2246 102.326 26.2931 102.249 26.2883 102.16L25.7697 92.901C25.7654 92.8112 25.6838 92.7374 25.5987 92.7474C25.5089 92.7522 25.4399 92.8294 25.4451 92.9188L25.9637 102.178C25.968 102.264 26.0397 102.331 26.126 102.331Z" fill="#CBCBCB"/>
<path id="path250" d="M33.1903 80.7864C33.1903 80.7864 24.9297 82.6288 20.7922 80.6137C16.6543 78.5981 18.9863 67.0117 18.9863 67.0117C18.9863 67.0117 21.234 51.1428 24.4579 50.8043C27.6822 50.4662 30.5276 50.8937 30.5276 50.8937L34.5049 64.379L33.1903 80.7864Z" fill="#CBCBCB"/>
<path id="path252" d="M25.8011 50.3715C25.8011 50.3715 25.2603 50.529 24.4578 50.8042L30.0045 51.1509C30.0045 51.1509 30.751 58.9094 31.0218 67.8071C31.2115 74.112 31.0193 79.7998 30.8847 82.5762L38.7134 82.3861C38.7134 82.3861 42.4477 56.82 39.4955 54.0788C36.5434 51.3376 29.2246 50.4196 29.2246 50.4196L25.8011 50.3715Z" fill="#CBCBCB"/>
<path id="path254" d="M17.2942 82.9067L21.693 82.7991C21.4447 79.4186 21.0146 71.365 21.7867 63.3327C22.7715 53.116 24.3518 50.9373 24.449 50.8084C22.3336 51.5297 18.4097 53.0722 17.6879 54.7375C16.6918 57.0417 17.2942 82.9067 17.2942 82.9067Z" fill="#CBCBCB"/>
<path id="path256" d="M20.2159 75.5298L12.8629 83.1724L22.5014 96.0322L31.7312 89.1249L20.2159 75.5298Z" fill="#CBCBCB"/>
<path id="path258" d="M19.0013 76.8155L11.6478 84.458L21.2859 97.3179L30.5161 90.411L19.0013 76.8155Z" fill="#CBCBCB"/>
<path id="path260" d="M39.2845 157.141C40.0467 157.135 40.6708 156.492 40.7047 155.679C40.837 152.466 41.5275 145.278 40.9416 145.255C40.1938 145.224 32.6016 146.965 32.6016 146.965C32.6016 146.965 32.5704 142.504 29.4394 143.176C27.0367 143.692 24.1661 146.411 22.9604 147.648C22.5776 148.041 22.1015 148.306 21.5811 148.413C19.3442 148.876 13.1773 150.444 12.956 153.708C12.686 157.7 14.307 157.309 15.0548 157.339C15.6968 157.366 34.089 157.191 39.2845 157.141Z" fill="#CBCBCB"/>
<path id="path262" d="M31.5704 78.8168C31.5704 78.8168 23.7534 80.1093 22.2087 81.532C20.6645 82.9543 24.4105 88.412 25.3736 89.2974C26.3362 90.1823 33.1971 85.6899 33.1971 85.6899L34.1897 81.769L31.5704 78.8168Z" fill="#CBCBCB"/>
<path id="path264" d="M22.2091 81.532C22.2091 81.532 18.9423 86.2015 19.4822 88.1286C20.0217 90.056 23.9578 84.0983 23.9578 84.0983L22.2091 81.532Z" fill="#CBCBCB"/>
<path id="path266" d="M27.964 88.0018C27.964 88.0018 32.0116 87.4297 31.213 88.8971C30.4145 90.3645 26.0895 90.1093 25.3738 89.2973C24.6581 88.4848 26.9163 86.2674 26.9163 86.2674L27.964 88.0018Z" fill="#CBCBCB"/>
<path id="path268" d="M28.4877 88.4438C28.5068 88.4438 28.5268 88.4404 28.5459 88.4334L29.7086 87.9907C29.7642 87.9695 29.8037 87.9196 29.8119 87.8605C29.8202 87.8019 29.7954 87.7434 29.7473 87.7078L28.8206 87.0216C28.7495 86.9699 28.647 86.9834 28.5928 87.0559C28.5394 87.1279 28.5546 87.2295 28.6271 87.2833L29.3145 87.7924L28.4296 88.1288C28.3458 88.1613 28.3037 88.2551 28.3354 88.3392C28.3601 88.4039 28.4222 88.4438 28.4877 88.4438Z" fill="#CBCBCB"/>
<path id="path270" d="M22.6789 85.6001C22.7444 85.6001 22.8056 85.5606 22.8308 85.4964C23.1003 84.7989 23.6215 83.6132 23.8741 83.3983C23.9423 83.3398 23.951 83.2373 23.8928 83.1688C23.8347 83.1002 23.7322 83.0919 23.6632 83.1501C23.2648 83.4891 22.6012 85.1865 22.5274 85.3788C22.4944 85.4625 22.5365 85.5571 22.6203 85.5892C22.6394 85.5971 22.6593 85.6001 22.6789 85.6001Z" fill="#CBCBCB"/>
<path id="path272" d="M23.9155 87.573C23.975 87.573 24.0319 87.5404 24.0609 87.4836L25.4654 84.7098C25.5058 84.6295 25.4741 84.5314 25.3934 84.4911C25.3144 84.4511 25.2154 84.4824 25.1746 84.5627L23.7701 87.3369C23.7298 87.4172 23.7615 87.5148 23.8422 87.5556C23.8656 87.5678 23.8904 87.573 23.9155 87.573Z" fill="#CBCBCB"/>
<path id="path274" d="M26.6786 46.7841L27.6303 50.9864C27.6303 50.9864 27.1463 52.3662 24.7329 53.1224C22.9353 53.6863 22.1424 52.877 22.1424 52.877L21.753 49.0996L25.9708 47.1176L26.6786 46.7841Z" fill="#CBCBCB"/>
<path id="path276" d="M26.6138 46.5292C26.6286 46.6465 26.6159 46.7919 26.583 46.9625C26.1183 49.2747 23.0076 50.8977 21.9711 51.232L21.7525 49.0997L26.6138 46.5292Z" fill="#CBCBCB"/>
<path id="path278" d="M18.6464 39.7331C18.6464 39.7331 17.6341 45.5018 19.1668 48.2319C20.6991 50.9625 23.2564 49.8531 24.7163 48.899C26.1756 47.9445 26.6791 46.7851 26.6791 46.7851C26.6791 46.7851 28.2938 46.9285 28.9548 45.2987C29.6159 43.6693 28.6148 42.2257 27.6741 42.067C26.7336 41.9088 25.8698 42.7702 25.8698 42.7702L26.2958 41.0614C26.2958 41.0614 21.0849 34.1708 18.6464 39.7331Z" fill="#CBCBCB"/>
<path id="path280" d="M20.3184 46.0713C20.3671 46.0583 20.4092 46.0227 20.4285 45.9722C20.4607 45.888 20.4184 45.7938 20.3344 45.7619C19.9889 45.6312 19.7674 45.425 19.6751 45.1496C19.4597 44.5032 19.9814 43.6665 19.9863 43.658C20.0347 43.5821 20.0123 43.4816 19.936 43.4333C19.859 43.3857 19.759 43.4084 19.7119 43.4839C19.6865 43.5235 19.1026 44.4618 19.3667 45.2529C19.4912 45.6252 19.778 45.8989 20.2183 46.0667C20.2517 46.0788 20.2866 46.0798 20.3184 46.0713Z" fill="#CBCBCB"/>
<path id="path282" d="M26.7022 45.1477C26.7429 45.1368 26.7798 45.1103 26.8019 45.0702L27.8414 43.2182C27.8856 43.1398 27.8576 43.0404 27.7788 42.9963C27.7014 42.9524 27.601 42.9802 27.5574 43.0588L26.518 44.9113C26.4738 44.9896 26.5017 45.0887 26.5805 45.1327C26.6186 45.1544 26.6624 45.1584 26.7022 45.1477Z" fill="#CBCBCB"/>
<path id="path284" d="M28.0986 44.3717C28.1741 44.3515 28.2262 44.2796 28.2187 44.1994C28.2099 44.1096 28.1304 44.0442 28.041 44.0529L27.0257 44.1492C26.932 44.1582 26.8701 44.2372 26.8787 44.3266C26.8875 44.4163 26.967 44.4817 27.0563 44.4731L28.0716 44.3767C28.0813 44.3759 28.0898 44.3741 28.0986 44.3717Z" fill="#CBCBCB"/>
<path id="path286" d="M18.4172 42.2847C18.4252 42.2826 18.4334 42.2795 18.441 42.2761L19.3243 41.8817C19.4066 41.8453 19.4436 41.7486 19.4069 41.6668C19.37 41.5846 19.2714 41.5485 19.192 41.5842L18.3088 41.979C18.2264 42.0155 18.1893 42.1117 18.2262 42.1939C18.2594 42.2677 18.3409 42.3051 18.4172 42.2847Z" fill="#CBCBCB"/>
<path id="path288" d="M22.4111 41.9196C22.4677 41.9044 22.5144 41.8591 22.5277 41.798C22.5478 41.7104 22.4921 41.6234 22.4046 41.6037L20.6954 41.22C20.6069 41.1997 20.5202 41.2553 20.5011 41.3431C20.481 41.4307 20.5362 41.5179 20.6241 41.5375L22.3333 41.9211C22.36 41.927 22.3863 41.9262 22.4111 41.9196Z" fill="#CBCBCB"/>
<path id="path290" d="M18.9571 44.4203C19.0233 44.4026 19.074 44.3436 19.0775 44.2712L19.1285 43.2592C19.1314 43.2045 19.1066 43.1522 19.0629 43.1199L18.6851 42.8401C18.6125 42.7872 18.5108 42.8019 18.4574 42.8742C18.404 42.9465 18.4188 43.0485 18.4911 43.102L18.7988 43.33L18.7528 44.2549C18.7477 44.3448 18.8171 44.421 18.9068 44.4257C18.9241 44.4265 18.9411 44.4246 18.9571 44.4203Z" fill="#CBCBCB"/>
<path id="path292" d="M21.6497 44.0078C21.7159 43.9901 21.7662 43.9312 21.7697 43.8588L21.8207 42.8468C21.8237 42.7907 21.7974 42.738 21.7519 42.7057L21.2364 42.3415C21.1626 42.2889 21.0617 42.3065 21.0092 42.3804C20.9575 42.454 20.9752 42.5553 21.0488 42.607L21.4912 42.9198L21.445 43.8425C21.4403 43.9323 21.5093 44.0086 21.599 44.0133C21.6163 44.0141 21.6333 44.0122 21.6497 44.0078Z" fill="#CBCBCB"/>
<path id="path294" d="M21.5987 47.4722C22.2376 47.301 22.7644 46.4248 22.8326 46.3072C22.8778 46.2295 22.8515 46.1296 22.7734 46.0845C22.6963 46.04 22.5963 46.0659 22.5511 46.1436C22.3616 46.4693 21.7654 47.2878 21.2812 47.1628C21.1942 47.1398 21.1058 47.1923 21.0832 47.2792C21.0604 47.3666 21.1128 47.455 21.1997 47.4776C21.3354 47.5126 21.4691 47.5069 21.5987 47.4722Z" fill="#CBCBCB"/>
<path id="path296" d="M38.0755 53.0598C38.0755 53.0598 50.6116 61.021 50.5126 73.301C50.4132 85.5805 33.7953 89.2549 33.7953 89.2549L28.6847 76.6055L37.2235 71.7233L38.0755 53.0598Z" fill="#CBCBCB"/>
<path id="path298" d="M23.1921 51.2622C23.1921 51.2622 20.8185 54.9726 19.4431 60.212C18.0677 65.4515 17.1173 69.48 17.1173 69.48C17.1173 69.48 15.7245 58.624 17.688 54.7378C18.6502 52.8338 23.1921 51.2622 23.1921 51.2622Z" fill="#CBCBCB"/>
<path id="path300" d="M43.3987 106.282C43.4725 106.282 43.5388 106.232 43.5566 106.157C43.5779 106.07 43.5241 105.982 43.4364 105.961L42.0797 105.637C41.9899 105.615 41.9048 105.67 41.8839 105.758C41.8627 105.845 41.9165 105.933 42.0042 105.953L43.3609 106.278C43.3735 106.281 43.3865 106.282 43.3987 106.282Z" fill="#CBCBCB"/>
<path id="path302" d="M28.9633 148.275C28.9794 148.275 28.9959 148.273 29.0119 148.268L32.6498 147.12C32.7362 147.093 32.7835 147.002 32.7562 146.917C32.7297 146.831 32.6381 146.783 32.5526 146.81L28.9143 147.957C28.8283 147.985 28.781 148.076 28.808 148.161C28.8297 148.231 28.8939 148.275 28.9633 148.275Z" fill="#CBCBCB"/>
<path id="path306" d="M31.0674 75.4058C31.1017 75.4058 31.1364 75.3949 31.1659 75.3723C31.2189 75.332 36.5051 71.3165 38.5216 70.6034C38.6062 70.5734 38.6505 70.4801 38.6205 70.3955C38.5906 70.3104 38.496 70.2675 38.4131 70.2965C36.3489 71.0266 31.1872 74.947 30.9684 75.1137C30.8972 75.1679 30.8833 75.2704 30.9376 75.3415C30.9697 75.3836 31.0188 75.4058 31.0674 75.4058Z" fill="#CBCBCB"/>
<path id="path308" d="M36.8879 68.3124C36.9508 68.3124 37.0272 68.3285 37.1205 68.3732C37.3006 68.4595 37.403 68.5867 37.4343 68.7616C37.5567 69.4513 36.6057 70.6977 35.9959 71.3848C36.0137 70.4035 36.1565 68.7195 36.6982 68.3701C36.742 68.3419 36.8028 68.3124 36.8879 68.3124ZM35.8332 71.9629C35.8762 71.9629 35.9187 71.9455 35.9499 71.9139C36.0315 71.8297 37.9564 69.8427 37.755 68.7047C37.7051 68.4231 37.5389 68.2126 37.2611 68.0798C36.9221 67.9174 36.6721 67.9995 36.5215 68.0967C35.6275 68.6739 35.6635 71.485 35.6704 71.8036C35.6722 71.8691 35.7125 71.9273 35.7737 71.9516C35.7933 71.9594 35.8132 71.9629 35.8332 71.9629Z" fill="#CBCBCB"/>
<path id="path310" d="M17.1716 57.2877C17.1716 57.2877 20.2505 61.2945 20.1169 62.8843C19.9832 64.4741 18.8326 63.6707 18.8326 63.6707C18.8326 63.6707 19.5266 65.4515 18.8027 65.8247C18.0783 66.198 17.5371 65.0327 17.5371 65.0327C17.5371 65.0327 17.5423 66.5695 16.6738 66.6016C15.8054 66.6342 12.269 62.4785 12.2026 61.2511C12.1358 60.0237 13.6748 60.3423 13.6748 60.3423C13.6748 60.3423 13.2968 58.4257 13.9964 58.0203C14.6969 57.6149 15.7246 58.624 15.7246 58.624C15.7246 58.624 15.6187 56.036 17.1716 57.2877Z" fill="#CBCBCB"/>
<path id="path312" d="M16.6526 65.3688C16.6526 65.3688 17.4 69.4719 15.0876 69.4511C10.2479 69.4077 12.2517 61.8971 12.2517 61.8971L16.6526 65.3688Z" fill="#CBCBCB"/>
<path id="path314" d="M15.9425 77.7861C15.9893 77.7861 16.0358 77.7662 16.0679 77.7271C17.4572 76.0414 17.2875 69.7425 17.2801 69.4752C17.2775 69.3854 17.2033 69.3155 17.1126 69.3172C17.0227 69.3198 16.952 69.3949 16.9546 69.4847C16.9568 69.549 17.1286 75.9286 15.817 77.5201C15.7598 77.5895 15.7693 77.692 15.8387 77.7492C15.8691 77.7744 15.906 77.7861 15.9425 77.7861Z" fill="#CBCBCB"/>
<path id="path316" d="M18.833 63.8333C18.8603 63.8333 18.8881 63.8267 18.9133 63.812C18.9914 63.7677 19.0192 63.6683 18.9745 63.5902L16.3435 58.9745C16.2983 58.8959 16.1989 58.869 16.1213 58.9137C16.0431 58.9584 16.0158 59.0578 16.0601 59.1355L18.6915 63.7512C18.7214 63.8042 18.7766 63.8333 18.833 63.8333Z" fill="#CBCBCB"/>
<path id="path318" d="M17.098 65.1982C17.1271 65.1982 17.1566 65.1909 17.1826 65.1744C17.2594 65.1275 17.2838 65.0272 17.2369 64.9509L14.6888 60.7839C14.6419 60.7066 14.5408 60.6828 14.4648 60.7301C14.3884 60.7765 14.3641 60.8768 14.4106 60.9536L16.9587 65.1206C16.9899 65.1709 17.0433 65.1982 17.098 65.1982Z" fill="#CBCBCB"/>
<path id="path320" d="M26.2549 53.0728C26.3808 53.0728 26.5123 53.0667 26.6512 53.0541C28.3347 52.8992 30.0096 51.7612 30.0794 51.7125C30.1536 51.6618 30.1727 51.5606 30.122 51.4864C30.0707 51.4122 29.9696 51.3936 29.8958 51.4443C29.8793 51.4556 28.2193 52.5828 26.6212 52.7299C24.9398 52.8853 24.3617 51.9426 24.3379 51.9027C24.2927 51.8254 24.1925 51.7985 24.1161 51.8441C24.0384 51.8888 24.0115 51.9877 24.0562 52.0654C24.0818 52.1097 24.6543 53.0728 26.2549 53.0728Z" fill="#CBCBCB"/>
<path id="path614" d="M28.4646 49.929C29.6054 49.6233 30.2852 48.4463 29.9795 47.3052C29.8376 46.7757 29.5031 46.3257 29.0372 46.0372C28.9599 45.9905 28.8598 46.0142 28.8127 46.0901C28.7654 46.1666 28.7892 46.2672 28.8656 46.3141C29.2609 46.5587 29.5447 46.9405 29.665 47.3895C29.9243 48.357 29.348 49.3553 28.3804 49.6146C27.4124 49.8739 26.4145 49.2975 26.1553 48.3299C25.896 47.3623 26.472 46.3642 27.44 46.1048C27.5267 46.0816 27.5783 45.9922 27.555 45.9055C27.5318 45.8187 27.4425 45.7671 27.3557 45.7904C26.215 46.096 25.5351 47.273 25.8409 48.4141C26.1466 49.5553 27.3239 50.2346 28.4646 49.929Z" fill="#CBCBCB"/>
<path id="path616" d="M25.87 42.77C25.87 42.77 24.9727 42.8154 23.8704 41.9884C22.7677 41.1614 22.4683 39.3446 22.4683 39.3446C22.4683 39.3446 21.6384 39.9669 20.5488 40.2588C19.4589 40.5509 18.582 40.1491 18.582 40.1491C18.582 40.1491 17.3499 39.6678 17.2112 38.357C17.0721 37.0463 18.5162 36.959 18.5162 36.959C18.5162 36.959 19.4486 35.7602 21.3825 35.2924C23.3163 34.8241 24.1818 35.7402 24.1818 35.7402C24.1818 35.7402 25.9113 35.3397 26.7817 35.9988C27.6521 36.658 27.9755 37.8649 27.9755 37.8649C27.9755 37.8649 28.8094 37.8917 29.4836 39.4351C30.1579 40.979 28.7543 42.8558 28.7543 42.8558C28.7543 42.8558 27.4994 41.6774 25.87 42.77Z" fill="#CBCBCB"/>
<path id="path618" d="M26.824 36.8238C26.824 36.8238 28.0898 31.4428 30.9635 33.3687C34.2085 35.5434 29.9863 39.971 28.025 38.7989C26.0633 37.627 26.824 36.8238 26.824 36.8238Z" fill="#CBCBCB"/>
</g>
<g id="Group_2">
<path id="path460" d="M76.7217 38.3088C76.7217 38.3088 79.0444 43.859 81.6452 48.3381C85.6987 55.3191 94.7823 62.4488 100.717 64.379L105.554 56.4441C105.554 56.4441 95.8073 47.4799 93.4232 43.2262C91.7626 40.2634 89.6405 35.326 85.7339 33.9569C81.5597 32.4939 76.7217 38.3088 76.7217 38.3088Z" fill="#CBCBCB"/>
<path id="path434" d="M104.046 62.437C103.951 62.2111 103.815 61.7509 104.034 61.3311C104.257 60.9045 104.775 60.6528 105.575 60.5822C105.669 60.5741 105.751 60.6428 105.761 60.7384C105.769 60.8333 105.699 60.9164 105.604 60.9248C104.931 60.9836 104.505 61.1734 104.34 61.4887C104.127 61.8932 104.409 62.402 104.412 62.4068C104.454 62.4876 104.43 62.5939 104.347 62.641C104.265 62.6876 104.159 62.6592 104.113 62.5772C104.109 62.5695 104.08 62.5188 104.046 62.437Z" fill="#CBCBCB"/>
<g id="Group 1463">
<path id="path384" d="M52.2395 120.711L51.5696 130.527L63.5301 130.889L63.8416 121.384L52.2395 120.711Z" fill="#CBCBCB"/>
<path id="path384_2" d="M73.5451 115.592L75.4471 125.245L87.0912 122.488L84.924 113.229L73.5451 115.592Z" fill="#CBCBCB"/>
<path id="path386" d="M70.3448 62.8656C70.3448 62.8656 75.3092 80.3632 73.2386 97.1771C71.168 113.991 66.7667 123.987 66.7667 123.987L46.575 124.129L53.7992 93.4733L56.4397 60.6313L70.3448 62.8656Z" fill="#CBCBCB"/>
<path id="path386_2" d="M78.1485 58.1454C78.1485 58.1454 87.4862 73.7536 89.8527 90.5285C92.2192 107.303 90.5646 118.1 90.5646 118.1L71.1023 123.48L70.1184 91.9995L64.1403 59.5984L78.1485 58.1454Z" fill="#CBCBCB"/>
<path id="path392" d="M52.2337 139.038C51.4152 138.982 50.7847 138.252 50.7998 137.376C50.8603 133.913 50.5714 126.141 51.2033 126.153C52.0095 126.167 60.0624 128.518 60.0624 128.518C60.0624 128.518 60.3781 123.723 63.7017 124.644C66.2523 125.351 69.1674 128.455 70.386 129.862C70.7725 130.309 71.2676 130.623 71.8205 130.771C74.1965 131.409 80.7282 133.486 80.7598 137.01C80.7983 141.318 79.0798 140.796 78.2738 140.781C77.582 140.769 57.8178 139.42 52.2337 139.038Z" fill="#CBCBCB"/>
<path id="path402" d="M57.5495 39.2386C57.5495 39.2386 53.0816 41.98 49.7053 46.6067C46.2289 51.3714 46.0503 60.7828 46.0503 60.7828L52.0376 62.41C52.0376 62.41 54.7079 55.67 57.8888 53.0314C61.0698 50.3928 63.8549 48.7217 63.8549 48.7217L57.5495 39.2386Z" fill="#CBCBCB"/>
<path id="path406" d="M53.3842 59.0691C53.3842 59.0691 51.0047 66.656 49.9484 68.1814C48.892 69.7075 45.7124 73.8807 45.0706 73.026C44.4224 72.1624 46.182 69.4732 46.182 69.4732C46.182 69.4732 44.2108 72.0297 43.4811 72.2544C42.7503 72.4787 42.3661 71.5266 43.0258 70.1139C43.6846 68.7 45.3663 66.1719 45.3663 66.1719C45.3663 66.1719 42.3549 68.3949 41.6014 69.0168C40.6233 69.8257 39.0034 69.4417 40.5561 67.5541C41.5905 66.2973 43.4952 64.3295 43.4952 64.3295C43.4952 64.3295 39.922 65.8694 39.6161 65.5206C39.3102 65.1718 39.4002 64.7782 40.2042 64.0124C41.0078 63.246 44.1876 61.6173 44.498 61.1027C44.6242 60.8937 44.8797 60.2913 45.1379 59.6504C45.5953 58.5155 46.7858 57.8583 47.9886 58.0785L53.3842 59.0691Z" fill="#CBCBCB"/>
<path id="path406_2" d="M100.889 55.1051C100.889 55.1051 107.194 58.1311 108.322 59.1358C109.45 60.1407 112.463 63.0882 111.532 63.3712C110.59 63.6571 108.578 61.9562 108.578 61.9562C108.578 61.9562 110.419 63.7778 110.445 64.3195C110.471 64.8619 109.514 64.9504 108.392 64.2384C107.269 63.5268 105.384 61.9089 105.384 61.9089C105.384 61.9089 106.669 64.3826 107.05 65.0137C107.546 65.833 106.804 66.8734 105.469 65.4617C104.58 64.5214 103.257 62.8536 103.257 62.8536C103.257 62.8536 103.786 65.587 103.395 65.7327C103.004 65.8784 102.669 65.7443 102.17 65.0522C101.67 64.3603 100.965 61.8803 100.573 61.5729C100.414 61.4479 99.9298 61.1621 99.4111 60.8672C98.4924 60.345 98.1856 59.4078 98.6778 58.6234L100.889 55.1051Z" fill="#CBCBCB"/>
<path id="path408" d="M46.5323 69.3945C46.4853 69.4071 46.4333 69.3997 46.3903 69.3699C46.3122 69.3161 46.2927 69.2088 46.3466 69.131L48.1124 66.5811C48.1662 66.5027 48.2739 66.4845 48.3511 66.5371C48.4294 66.5916 48.449 66.6988 48.3947 66.7767L46.6293 69.3265C46.6052 69.3615 46.5705 69.3843 46.5323 69.3945Z" fill="#CBCBCB"/>
<path id="path410" d="M45.5125 66.4531C45.4565 66.4681 45.3936 66.4543 45.3484 66.4102C45.2802 66.3444 45.2785 66.2353 45.3443 66.1678L46.8026 64.6572C46.8693 64.5894 46.9774 64.5861 47.0458 64.6525C47.1142 64.7189 47.1159 64.8281 47.05 64.8956L45.5916 66.4055C45.569 66.4294 45.5419 66.4452 45.5125 66.4531Z" fill="#CBCBCB"/>
<path id="path412" d="M43.1542 64.7763C43.0818 64.7957 43.003 64.7662 42.9626 64.6995C42.9135 64.6179 42.9393 64.512 43.0208 64.4632L45.284 63.0992C45.3664 63.048 45.4706 63.0763 45.5199 63.1578C45.5685 63.2387 45.5429 63.3445 45.4612 63.3935L43.1985 64.758C43.184 64.7662 43.1695 64.7722 43.1542 64.7763Z" fill="#CBCBCB"/>
<path id="path436" d="M73.3315 31.9973L75.6806 30.9045C78.1517 30.8226 79.5097 30.7031 82.8787 33.0362L81.8588 61.9509L59.1904 59.39L61.4714 48.039L73.3315 31.9973Z" fill="#CBCBCB"/>
<path id="path438" d="M60.7613 42.9581L56.2106 63.9426L66.6315 65.2712C66.6315 65.2712 74.6063 31.1869 74.8456 30.795C71.7786 30.0412 65.4671 30.121 62.4233 31.8141L60.7613 42.9581Z" fill="#CBCBCB"/>
<path id="path440" d="M86.555 51.6607L84.4582 65.605H77.9968C77.7114 57.1003 82.4373 42.6079 81.0902 33.5517C80.9911 32.8949 80.628 32.0229 80.5125 31.4941C82.1299 32.2898 85.1529 33.3062 86.5551 34.8411C87.6575 36.048 86.555 51.6607 86.555 51.6607Z" fill="#CBCBCB"/>
<path id="path442" d="M72.902 26.7404L72.5176 31.0866C72.5176 31.0866 73.2445 32.4214 75.9402 32.9035C77.9483 33.2631 78.6965 32.9069 78.6965 32.9069L78.6091 30.6774L78.5204 28.5023L73.7087 26.9942L72.902 26.7404Z" fill="#CBCBCB"/>
<path id="path444" d="M73.7075 27.0001C73.7075 27.1287 73.7419 27.2828 73.8004 27.4615C74.6187 29.8815 77.4128 30.6517 78.5722 30.8677L78.5124 28.5467L73.7075 27.0001Z" fill="#CBCBCB"/>
<path id="path446" d="M82.4755 20.1546C82.4755 20.1546 82.7273 26.4922 80.6874 29.2006C78.6481 31.9092 76.0632 30.3487 74.635 29.1132C73.2067 27.8782 72.8342 26.561 72.8342 26.561C72.8342 26.561 71.0798 26.4818 70.6066 24.637C70.1327 22.7921 71.4161 21.3875 72.4489 21.3538C73.481 21.3199 74.2834 22.3693 74.2834 22.3693L74.0729 20.474C74.0729 20.474 80.6627 13.8316 82.4755 20.1546Z" fill="#CBCBCB"/>
<path id="path62" d="M82.1061 22.1115C82.1061 22.1115 87.1478 19.5107 85.9086 17.3535C84.6694 15.1956 80.9223 15.9484 80.9223 15.9484C80.9223 15.9484 76.5241 13.5135 73.2975 14.8701C70.0702 16.2268 71.0142 23.1431 71.0142 23.1431L82.1061 22.1115Z" fill="#CBCBCB"/>
<path id="path84" d="M82.1737 21.3749C82.1737 21.3749 82.3331 20.2779 81.3306 19.494C80.3276 18.7091 79.2166 18.9179 79.2166 18.9179C79.2166 18.9179 78.4091 20.8443 76.3749 20.6286C74.3406 20.4129 73.4658 19.359 73.4658 19.359L72.7326 18.2606L73.0729 16.3411L78.2305 15.6663L83.3989 16.7041L84.0277 19.776L82.1737 21.3749Z" fill="#CBCBCB"/>
<path id="path450" d="M73.2727 24.732C73.2269 24.7197 73.1869 24.6884 73.1634 24.643L72.1101 22.5374C72.068 22.4528 72.1021 22.3494 72.1867 22.3073C72.2718 22.2632 72.3748 22.2986 72.4176 22.3834L73.471 24.489C73.5137 24.5738 73.4788 24.6776 73.3944 24.7191C73.3548 24.7391 73.3119 24.7425 73.2727 24.732Z" fill="#CBCBCB"/>
<path id="path452" d="M71.5122 24.0132C71.4364 23.9929 71.3817 23.9234 71.3849 23.8424C71.3877 23.7471 71.4669 23.6722 71.5614 23.6754L72.9839 23.7177C73.0793 23.7176 73.1542 23.7996 73.1508 23.8948C73.148 23.9902 73.069 24.0644 72.9736 24.0617L71.5513 24.0187C71.5378 24.0187 71.5248 24.0166 71.5122 24.0132Z" fill="#CBCBCB"/>
<path id="path458" d="M63.6287 31.3419C63.6287 31.3419 57.0689 34.136 50.6574 42.2066C45.2757 48.9819 42.1846 60.352 42.1846 60.352L52.0236 65.0523C52.0236 65.0523 55.6586 56.4717 58.7214 53.276C61.7841 50.0803 64.6668 49.7393 64.6668 49.7393L64.1701 38.5859L63.6287 31.3419Z" fill="#CBCBCB"/>
<path id="path470" d="M78.7271 34.8481C75.4585 34.8481 74.3355 32.7369 74.3231 32.7115C74.2798 32.6276 74.3135 32.5238 74.3974 32.4811C74.484 32.435 74.5865 32.4708 74.6291 32.5547C74.6869 32.6661 76.0891 35.2752 80.6182 34.2863C80.7131 34.2664 80.8025 34.3255 80.8225 34.417C80.8431 34.5098 80.784 34.6019 80.6911 34.6219C79.9642 34.7814 79.3109 34.8481 78.7271 34.8481Z" fill="#CBCBCB"/>
</g>
</g>
<g id="Group_3">
<path id="path14" d="M127.507 130.082C127.507 130.082 130.861 134.663 130.991 135.557C131.122 136.45 128.558 138.068 128.558 138.068L134.737 145.556H121.041L120.368 131.106L127.507 130.082Z" fill="#CBCBCB"/>
<path id="path30" d="M126.632 35.4711C126.632 35.4711 123.48 30.9979 119.516 33.4169C115.668 35.7651 116.598 40.5472 116.598 40.5472L124.201 38.3469L126.632 35.4711Z" fill="#CBCBCB"/>
<path id="path32" d="M123.4 144.45L112.632 144.191L112.915 131.187L123.684 131.446L123.4 144.45Z" fill="#CBCBCB"/>
<path id="path34" d="M111.604 79.2595C111.604 79.2595 109.795 85.6077 109.691 98.0757C109.601 108.841 107.585 132.728 108.407 133.862C109.228 134.995 125.983 134.347 126.64 134.023C127.297 133.7 127.461 126.251 127.461 126.251C127.461 126.251 138.631 107.791 140.11 104.715C141.588 101.638 131.896 74.819 131.896 74.819L111.604 79.2595Z" fill="#CBCBCB"/>
<path id="path36" d="M115.896 48.4678C115.896 48.4678 108.166 51.4278 107.199 55.9464C106.233 60.465 112.997 78.5382 114.769 79.1618C116.54 79.7849 130.713 76.513 132.001 75.4222C133.29 74.3314 131.841 63.1137 131.518 61.5557C131.196 59.9972 129.908 53.7648 128.136 51.116C126.365 48.4677 124.915 48.2926 123.143 48.2926C121.372 48.2926 115.896 48.4678 115.896 48.4678Z" fill="#CBCBCB"/>
<path id="path38" d="M120.621 33.2839C120.621 33.2839 116.574 29.322 110.859 34.9231C105.143 40.5241 108.672 45.1809 111.742 45.1041C114.868 45.0262 116.744 40.8881 116.744 40.8881L120.621 33.2839Z" fill="#CBCBCB"/>
<path id="path120" d="M117.766 44.0514L117.064 48.2876C117.064 48.2876 117.626 49.632 120.071 50.2444C121.892 50.7004 122.61 50.3908 122.61 50.3908L122.709 48.2028L122.802 46.0682L118.49 44.3418L117.766 44.0514Z" fill="#CBCBCB"/>
<path id="path122" d="M118.049 43.7737C118.01 43.8851 117.994 44.0296 117.991 44.2028C117.98 46.5531 120.18 48.0601 121.125 48.5951L121.767 46.5573L118.049 43.7737Z" fill="#CBCBCB"/>
<path id="path124" d="M126.684 38.0402C126.684 38.0402 126.511 43.8743 124.466 46.231C122.42 48.5876 120.147 46.9901 118.915 45.7647C117.682 44.5397 117.424 43.3066 117.424 43.3066C117.424 43.3066 115.819 43.1217 115.502 41.398C115.185 39.6744 116.453 38.4663 117.403 38.5013C118.352 38.5363 119.022 39.5507 119.022 39.5507L118.95 37.7975C118.95 37.7975 125.423 32.1198 126.684 38.0402Z" fill="#CBCBCB"/>
<path id="path126" d="M123.825 43.8111C123.737 43.7603 123.707 43.6477 123.758 43.5598C124.619 42.0682 124.255 41.1508 124.251 41.1414C124.213 41.0481 124.256 40.9401 124.349 40.9009C124.442 40.8617 124.549 40.9041 124.59 40.9967C124.608 41.0398 125.038 42.0779 124.077 43.7438C124.026 43.8318 123.913 43.8619 123.825 43.8111Z" fill="#CBCBCB"/>
<path id="path128" d="M121.838 44.8124C121.475 44.6031 121.08 44.1947 121.036 43.5128C121.03 43.4115 121.107 43.3239 121.208 43.3173C121.31 43.3109 121.397 43.3879 121.404 43.4891C121.462 44.4012 122.279 44.6062 122.313 44.6137C122.411 44.6361 122.473 44.7361 122.45 44.8345C122.427 44.9333 122.329 44.9951 122.23 44.9721C122.121 44.9473 121.982 44.8956 121.838 44.8124Z" fill="#CBCBCB"/>
<path id="path130" d="M117.79 41.7332C117.756 41.7134 117.727 41.682 117.711 41.6418L116.875 39.5331C116.837 39.4386 116.884 39.3315 116.978 39.2942C117.072 39.2567 117.18 39.303 117.217 39.3975L118.053 41.5061C118.091 41.6007 118.045 41.7078 117.95 41.7451C117.896 41.7665 117.837 41.7604 117.79 41.7332Z" fill="#CBCBCB"/>
<path id="path132" d="M116.25 40.8441C116.195 40.8122 116.158 40.7528 116.158 40.6843C116.158 40.5829 116.24 40.5008 116.342 40.5007L117.53 40.5022C117.632 40.5029 117.714 40.5848 117.714 40.6864C117.714 40.7878 117.631 40.8704 117.53 40.8701L116.342 40.8686C116.308 40.8686 116.277 40.8597 116.25 40.8441Z" fill="#CBCBCB"/>
<path id="path278_2" d="M113.932 151.083C113.206 151.047 112.635 150.402 112.633 149.612C112.624 146.493 112.664 139.27 113.223 139.268C113.937 139.267 120.674 141.466 120.674 141.466C120.674 141.466 120.867 137.142 123.827 137.91C126.098 138.499 128.734 141.241 129.838 142.486C130.189 142.881 130.633 143.155 131.125 143.278C133.24 143.809 139.061 145.558 139.152 148.732C139.264 152.61 137.733 152.171 137.019 152.173C136.406 152.175 118.883 151.324 113.932 151.083Z" fill="#CBCBCB"/>
<path id="path294_2" d="M119.022 39.5506C119.022 39.5506 120.89 40.971 123.444 39.3641C125.998 37.7574 126.324 36.7479 126.324 36.7479L126.604 39.8195C126.604 39.8195 127.723 38.326 127.573 36.9554C127.423 35.5852 126.633 35.4712 126.633 35.4712L121.517 34.4003L118.543 37.4759L119.022 39.5506Z" fill="#CBCBCB"/>
<path id="path296_2" d="M108.057 53.819C108.057 53.819 100.989 60.442 105.046 75.2845C108.261 87.0487 108.034 84.9706 113.522 88.4182C116.455 90.2605 120.583 92.5032 120.583 92.5032L130.316 85.076L117.273 71.5784L108.057 53.819Z" fill="#CBCBCB"/>
<path id="path330" d="M122.523 41.1563C122.456 41.1176 122.418 41.0397 122.434 40.9601L122.622 40.0415C122.633 39.9888 122.666 39.9434 122.713 39.9177L123.292 39.5955C123.381 39.5464 123.493 39.5774 123.543 39.667C123.592 39.7561 123.56 39.8679 123.471 39.9175L122.966 40.1979L122.795 41.0337C122.774 41.1334 122.677 41.1974 122.578 41.1772C122.558 41.1731 122.539 41.1658 122.523 41.1563Z" fill="#CBCBCB"/>
<path id="path332" d="M125.472 42.1745C125.406 42.136 125.368 42.0581 125.384 41.9784L125.572 41.0602C125.582 41.0101 125.613 40.967 125.656 40.94L126.336 40.5222C126.422 40.4694 126.535 40.4955 126.589 40.5828C126.642 40.6691 126.615 40.7825 126.528 40.8356L125.917 41.2121L125.745 42.0523C125.724 42.1521 125.627 42.2161 125.528 42.1956C125.507 42.1913 125.489 42.1841 125.472 42.1745Z" fill="#CBCBCB"/>
<path id="path334" d="M126.512 39.9791C126.504 39.9745 126.496 39.9695 126.489 39.9635L125.84 39.4458C125.761 39.3824 125.748 39.2662 125.811 39.1872C125.875 39.1077 125.991 39.0938 126.07 39.1581L126.718 39.6761C126.798 39.7391 126.81 39.8553 126.747 39.9344C126.69 40.0066 126.589 40.0238 126.512 39.9791Z" fill="#CBCBCB"/>
<path id="path336" d="M123.619 39.0059C123.569 38.9772 123.534 38.9261 123.528 38.8643C123.518 38.7633 123.592 38.6734 123.693 38.6633L124.724 38.5618C124.825 38.551 124.915 38.6251 124.925 38.7267C124.935 38.8277 124.862 38.9176 124.76 38.9277L123.729 39.0292C123.689 39.0334 123.651 39.0245 123.619 39.0059Z" fill="#CBCBCB"/>
<path id="path354" d="M115.699 72.3331C115.326 73.236 114.84 74.7216 115.145 75.4196C115.17 75.4774 115.205 75.5353 115.224 75.5236C115.393 75.4244 115.591 73.8984 115.699 72.3331ZM115.217 75.9238C115.151 75.9238 115.069 75.8681 114.985 75.6744C114.419 74.383 115.711 71.6814 115.766 71.5667C115.797 71.5041 115.845 71.485 115.886 71.5205C115.927 71.5556 115.951 71.6368 115.947 71.7217C115.898 72.6405 115.707 75.6568 115.285 75.9042C115.265 75.9159 115.242 75.9238 115.217 75.9238Z" fill="#CBCBCB"/>
<path id="path428" d="M114.94 90.2927C114.891 90.2927 114.849 90.2068 114.843 90.0899C114.836 89.9632 114.874 89.847 114.928 89.8309C114.986 89.8136 116.363 89.3456 116.86 84.9388C116.874 84.8158 116.928 84.741 116.98 84.7744C117.032 84.8078 117.063 84.9345 117.049 85.0581C116.517 89.7784 114.968 90.2859 114.952 90.2909C114.948 90.2921 114.944 90.2927 114.94 90.2927Z" fill="#CBCBCB"/>
<path id="path430" d="M118.081 51.6084C116.242 51.6084 114.919 49.8835 114.901 49.8598C114.832 49.7679 114.822 49.6036 114.879 49.4922C114.937 49.3815 115.039 49.3661 115.107 49.4574C115.13 49.488 117.439 52.4844 120.132 50.2721C120.213 50.2059 120.31 50.2575 120.35 50.3856C120.391 50.5144 120.36 50.6711 120.28 50.7373C119.503 51.3751 118.757 51.6084 118.081 51.6084Z" fill="#CBCBCB"/>
<path id="path432" d="M128.309 144.45C128.235 144.45 128.162 144.401 128.127 144.316C128.076 144.197 128.117 144.051 128.218 143.991L131.126 142.265C131.227 142.206 131.349 142.255 131.4 142.374C131.45 142.494 131.409 142.64 131.308 142.699L128.4 144.425C128.371 144.443 128.34 144.45 128.309 144.45Z" fill="#CBCBCB"/>
</g>
<g id="Group_4">
<path id="path372" d="M97.0729 85.2132L90.3763 69.1414C90.3763 69.1414 85.9827 68.2124 85.6494 66.0271C83.9788 55.0717 97.5585 50.2075 96.767 63.5565C96.767 63.5565 120.068 77.6365 114.119 90.327C108.623 102.051 97.073 99.8678 97.073 99.8678L97.0729 85.2132Z" fill="#F5F5F5"/>
<path id="path408_2" d="M98.1059 64.3932L92.0668 69.4876C91.716 69.7836 91.1918 69.7391 90.8958 69.3883L83.1073 60.1556C82.8117 59.8052 82.8558 59.2806 83.2067 58.9847L89.2458 53.8902C89.5966 53.5942 90.1215 53.6387 90.4171 53.9892L98.2056 63.2218C98.5016 63.5727 98.4567 64.0972 98.1059 64.3932Z" fill="#F5F5F5"/>
<path id="path460_2" d="M94.1443 70.2989L94.0481 70.3547C93.8812 70.4164 93.6966 70.3313 93.6339 70.1652C92.1635 66.1758 87.6819 63.1973 87.6378 63.167C87.4881 63.0694 87.4475 62.8695 87.545 62.7216C87.6451 62.5747 87.8415 62.532 87.9895 62.6295C88.1816 62.7555 92.6938 65.7503 94.2385 69.9414C94.2868 70.0725 94.2446 70.2142 94.1443 70.2989Z" fill="#F5F5F5"/>
<path id="path644" d="M70.8678 94.0826L91.0466 83.8747L89.0505 73.6544L103.186 66.4373C103.186 66.4373 121.012 78.8805 116.193 92.5071C112.389 103.263 80.5793 105.662 80.5793 105.662L70.8678 94.0826Z" fill="#F5F5F5"/>
<path id="path654" d="M92.9598 122.688C92.9598 122.688 118.157 218.366 117.89 220.031C117.624 221.695 85.9189 229.617 85.9189 229.617L69.2534 166.091L70.7082 128.053L92.9598 122.688Z" fill="#F5F5F5"/>
<path id="path656" d="M59.2442 109.582C59.2442 109.582 53.4772 130.24 51.8421 140.513C50.2071 150.785 39.4341 227.019 39.4341 228.183C39.4341 229.346 55.2403 230.277 61.7806 230.277C68.3223 230.277 76.864 229.449 76.864 229.449C76.864 229.449 79.4409 138.649 80.1244 137.718C80.8065 136.787 93.5053 126.25 93.5053 126.25L86.0387 116.941L59.2442 109.582Z" fill="#F5F5F5"/>
<path id="path658" d="M49.6318 122.526C49.6318 122.526 62.8927 69.9508 65.68 67.8034C68.4672 65.6547 84.8006 66.6409 91.0329 74.973C97.2653 83.3064 97.0735 126.063 97.0735 126.063L49.6318 122.526Z" fill="#F5F5F5"/>
<path id="path678" d="M74.0633 181.219C73.8869 181.219 73.7427 181.075 73.7414 180.898L73.6062 142.217C73.6049 142.088 73.6809 141.972 73.798 141.921L85.8444 136.585C86.0027 136.511 86.1958 136.586 86.2679 136.748C86.3413 136.912 86.2666 137.101 86.1044 137.173L74.2499 142.424L74.3851 180.896C74.3864 181.072 74.2435 181.219 74.0645 181.219H74.0633Z" fill="#F5F5F5"/>
<path id="path680" d="M53.9429 126.394C53.2181 126.394 52.7559 126.255 52.7405 126.25C52.5718 126.196 52.4791 126.017 52.5319 125.847C52.5847 125.677 52.7701 125.587 52.9349 125.637C53.1177 125.694 57.4962 126.964 60.4302 120.351C60.5023 120.189 60.6915 120.117 60.855 120.187C61.0172 120.26 61.0906 120.45 61.0185 120.612C58.7913 125.633 55.6436 126.394 53.9429 126.394Z" fill="#F5F5F5"/>
<path id="path688" d="M88.4668 54.3259C88.4668 54.3259 94.681 48.5319 92.3657 45.2374C90.0498 41.9439 85.6323 44.873 85.6323 44.873C85.6323 44.873 78.205 41.2122 73.2329 43.3588C68.2608 45.5053 70.8242 56.1203 70.8242 56.1203L88.4668 54.3259Z" fill="#F5F5F5"/>
<path id="path690" d="M72.4833 61.6109L70.52 68.7856C70.52 68.7856 71.7044 71.0824 76.1112 71.8188C79.3954 72.3685 80.6198 71.7196 80.6198 71.7196L80.4846 67.8368L80.3468 64.0531L72.4833 61.6109Z" fill="#F5F5F5"/>
<path id="path692" d="M72.4834 61.6108C72.4847 61.818 72.5426 62.0704 72.6417 62.3613C74.018 66.2943 78.5896 67.5045 80.4847 67.8367L80.3469 64.053L72.4834 61.6108Z" fill="#F5F5F5"/>
<path id="path694" d="M89.0372 52.1013C89.0372 52.1013 86.8627 62.2197 82.5402 65.6718C78.217 69.1251 74.7671 65.6096 73.0105 63.0776C71.2557 60.5452 71.2005 58.3132 71.2005 58.3132C71.2005 58.3132 68.4626 57.4757 68.4622 54.3686C68.4624 51.2603 71.0608 49.5613 72.7063 49.9271C74.3501 50.2934 75.1925 52.2768 75.1925 52.2768L75.63 49.1965C75.63 49.1965 88.7391 41.376 89.0372 52.1013Z" fill="#F5F5F5"/>
<path id="path696" d="M71.9246 57.4422L71.73 57.2928L69.6093 53.6377C69.5197 53.4844 69.5724 53.2879 69.7256 53.1984C69.8802 53.1092 70.0766 53.1618 70.1658 53.3163L72.2857 56.9699C72.3752 57.1231 72.3226 57.3196 72.169 57.4104L71.9246 57.4422Z" fill="#F5F5F5"/>
<path id="path698" d="M69.0898 56.124C68.9319 56.0817 68.829 55.9235 68.8571 55.7591C68.8866 55.5844 69.0528 55.4664 69.2287 55.4962L71.5277 55.8896C71.6989 55.9075 71.8202 56.0866 71.791 56.26C71.7612 56.436 71.5949 56.554 71.419 56.5242L69.12 56.1308L69.0898 56.124Z" fill="#F5F5F5"/>
<path id="path706" d="M88.4661 54.3253C88.4661 54.3253 88.661 52.5974 87.11 51.5013C85.5591 50.4052 83.8851 50.8688 83.8851 50.8688C83.8851 50.8688 82.7409 53.9707 79.6514 53.8891C76.5612 53.8086 75.1921 52.2764 75.1921 52.2764L74.0365 50.6578L74.4722 47.627L82.2563 45.9295L90.1283 46.8992L91.0326 50.8405L88.4661 54.3253Z" fill="#F5F5F5"/>
<path id="path708" d="M85.6324 44.873C85.6324 44.873 87.8365 41.2741 83.1403 40.2753C78.4435 39.2775 75.4556 44.2004 75.4556 44.2004L85.6324 44.873Z" fill="#F5F5F5"/>
<path id="path716" d="M65.658 67.8158C65.658 67.8158 53.3268 77.8439 44.1056 91.5789C36.639 102.7 49.6318 131.368 49.6318 131.368L64.0004 122.526L57.9216 101.711L65.658 67.8158Z" fill="#F5F5F5"/>
<path id="path754" d="M63.2059 92.0018C62.96 92.0069 62.7965 92.0842 62.6704 92.2438C62.5313 92.4189 62.5506 92.5515 62.5815 92.6493C62.8892 93.5763 65.7125 94.7234 67.9706 95.4224C66.6008 93.9998 64.4187 92.0018 63.2059 92.0018ZM80.6194 104.505L80.4353 104.447L68.8383 96.3455C67.9758 96.1112 62.5429 94.5792 61.97 92.8502C61.8541 92.4987 61.9224 92.1511 62.1657 91.8447C62.4103 91.5344 62.7566 91.3684 63.1673 91.3594C65.2709 91.3581 68.8036 95.3581 69.2169 95.8344L80.8036 103.919C80.9503 104.021 80.9851 104.222 80.8834 104.367L80.6194 104.505Z" fill="#F5F5F5"/>
<path id="path756" d="M77.5247 72.3445C72.6879 72.3445 70.2868 69.0114 70.2572 68.9702C70.1555 68.8247 70.1903 68.6252 70.3358 68.5222C70.48 68.4192 70.6808 68.4552 70.7838 68.6007C70.9241 68.8002 74.3074 73.4568 81.4281 70.9979C81.5955 70.9361 81.7796 71.03 81.8362 71.1974C81.8942 71.3648 81.8066 71.5489 81.638 71.6068C80.1124 72.1333 78.7413 72.3445 77.5247 72.3445Z" fill="#F5F5F5"/>
<path id="path758" d="M91.9423 111.963C91.7737 111.963 91.632 111.831 91.6218 111.661L90.7115 97.953C90.6987 97.7754 90.8339 97.6222 91.0102 97.6106C91.1956 97.5861 91.3411 97.7329 91.354 97.9105L92.2642 111.619C92.2758 111.797 92.1406 111.95 91.9642 111.961L91.9423 111.963Z" fill="#F5F5F5"/>
<path id="path762" d="M95.514 115.926L95.3698 115.891L90.8896 113.665C90.73 113.585 90.6656 113.393 90.7441 113.234C90.8239 113.074 91.0183 113.011 91.1754 113.09L95.6569 115.316C95.8152 115.395 95.8809 115.587 95.8024 115.747C95.7457 115.86 95.6311 115.926 95.514 115.926Z" fill="#F5F5F5"/>
</g>
</g>
</g>
<path id="Vector 1222" d="M126.987 141.679C122.35 141.666 121.665 137.193 121.902 134.959C123.494 133.763 127.316 132.022 129.872 134.626C132.428 137.231 135.704 139.015 135.704 139.015C135.704 139.015 131.625 141.691 126.987 141.679Z" fill="#FEFEFE"/>
<path id="Vector 1219" d="M76.7532 121.787C77.3038 118.775 80.6535 118.794 82.2595 119.18C82.9478 120.339 83.7737 123.003 81.5712 124.393C79.3687 125.784 75.606 126.71 74 127C74.6883 126.517 76.2025 124.799 76.7532 121.787Z" fill="#DCDCDC"/>
<path id="Vector 1220" d="M35.1646 96.4384C34.7975 93.8028 32.5644 93.8197 31.4937 94.1576C31.0348 95.1713 30.4842 97.5028 31.9525 98.7192C33.4209 99.9356 35.9293 100.747 37 101C36.5411 100.578 35.5316 99.074 35.1646 96.4384Z" fill="#FEFEFE"/>
<path id="Vector 1224" opacity="0.2" d="M93.8587 27.0901C93.4304 24.831 90.8251 24.8455 89.576 25.1351C89.0406 26.004 88.3982 28.0024 90.1113 29.045C91.8244 30.0877 94.7509 30.7828 96 31C95.4647 30.638 94.2869 29.3491 93.8587 27.0901Z" fill="#FEFEFE"/>
<path id="Vector 1223" opacity="0.2" d="M51.9758 22.918C54.1595 21.6411 53.2566 19.344 52.5322 18.355C51.4537 18.2273 51.6065 18.7569 51.1151 20.6858C50.6237 22.6146 48.5118 22.8741 48.5118 22.8741C48.5118 22.8741 49.7921 24.1948 51.9758 22.918Z" fill="white"/>
</g>
<defs>
<clipPath id="clip0_5661_203523">
<rect width="148" height="148" fill="white" transform="translate(0 0.5)"/>
</clipPath>
</defs>
</svg>
