<svg width="24" height="24" viewBox="0 0 24 24" fill="none" xmlns="http://www.w3.org/2000/svg">
    <path d="M21 12H4" stroke="#121212" stroke-width="1.5" stroke-linecap="round"/>
    <path fill-rule="evenodd" clip-rule="evenodd" d="M3 18.75C3 18.3358 3.33579 18 3.75 18H6C6.41421 18 6.75 18.3358 6.75 18.75C6.75 19.1642 6.41421 19.5 6 19.5H3.75C3.33579 19.5 3 19.1642 3 18.75Z" fill="#121212"/>
    <path fill-rule="evenodd" clip-rule="evenodd" d="M3 5.75C3 5.33579 3.33579 5 3.75 5H6C6.41421 5 6.75 5.33579 6.75 5.75C6.75 6.16421 6.41421 6.5 6 6.5H3.75C3.33579 6.5 3 6.16421 3 5.75Z" fill="#121212"/>
    <path fill-rule="evenodd" clip-rule="evenodd" d="M18 18.75C18 18.3358 18.3358 18 18.75 18H21C21.4142 18 21.75 18.3358 21.75 18.75C21.75 19.1642 21.4142 19.5 21 19.5H18.75C18.3358 19.5 18 19.1642 18 18.75Z" fill="#121212"/>
    <path fill-rule="evenodd" clip-rule="evenodd" d="M18 5.75C18 5.33579 18.3358 5 18.75 5H21C21.4142 5 21.75 5.33579 21.75 5.75C21.75 6.16421 21.4142 6.5 21 6.5H18.75C18.3358 6.5 18 6.16421 18 5.75Z" fill="#121212"/>
    <path fill-rule="evenodd" clip-rule="evenodd" d="M13 18.75C13 18.3358 13.3358 18 13.75 18H16C16.4142 18 16.75 18.3358 16.75 18.75C16.75 19.1642 16.4142 19.5 16 19.5H13.75C13.3358 19.5 13 19.1642 13 18.75Z" fill="#121212"/>
    <path fill-rule="evenodd" clip-rule="evenodd" d="M13 5.75C13 5.33579 13.3358 5 13.75 5H16C16.4142 5 16.75 5.33579 16.75 5.75C16.75 6.16421 16.4142 6.5 16 6.5H13.75C13.3358 6.5 13 6.16421 13 5.75Z" fill="#121212"/>
    <path fill-rule="evenodd" clip-rule="evenodd" d="M8 18.75C8 18.3358 8.33579 18 8.75 18H11C11.4142 18 11.75 18.3358 11.75 18.75C11.75 19.1642 11.4142 19.5 11 19.5H8.75C8.33579 19.5 8 19.1642 8 18.75Z" fill="#121212"/>
    <path fill-rule="evenodd" clip-rule="evenodd" d="M8 5.75C8 5.33579 8.33579 5 8.75 5H11C11.4142 5 11.75 5.33579 11.75 5.75C11.75 6.16421 11.4142 6.5 11 6.5H8.75C8.33579 6.5 8 6.16421 8 5.75Z" fill="#121212"/>
</svg>
