<svg width="56" height="56" viewBox="0 0 56 56" fill="none" xmlns="http://www.w3.org/2000/svg">
<rect width="56" height="56" rx="28" fill="#121212" fill-opacity="0.32"/>
<rect x="0.25" y="0.25" width="55.5" height="55.5" rx="27.75" stroke="#FCFCFC" stroke-opacity="0.32" stroke-width="0.5"/>
<path fill-rule="evenodd" clip-rule="evenodd" d="M28 17.2083C28.4832 17.2083 28.875 17.6001 28.875 18.0833V29.3875L32.0479 26.2146C32.3897 25.8729 32.9437 25.8729 33.2854 26.2146C33.6271 26.5563 33.6271 27.1103 33.2854 27.452L28 32.7374L22.7146 27.452C22.3729 27.1103 22.3729 26.5563 22.7146 26.2146C23.0563 25.8729 23.6103 25.8729 23.9521 26.2146L27.125 29.3875V18.0833C27.125 17.6001 27.5168 17.2083 28 17.2083Z" fill="#FEFEFE"/>
<path fill-rule="evenodd" clip-rule="evenodd" d="M38.5 30.625C38.9832 30.625 39.375 31.0167 39.375 31.5V35C39.375 36.7719 37.9386 38.2083 36.1667 38.2083H19.8333C18.0614 38.2083 16.625 36.7719 16.625 35V32.1481C16.625 31.6649 17.0168 31.2731 17.5 31.2731C17.9832 31.2731 18.375 31.6649 18.375 32.1481V35C18.375 35.8054 19.0279 36.4583 19.8333 36.4583H36.1667C36.9721 36.4583 37.625 35.8054 37.625 35V31.5C37.625 31.0167 38.0168 30.625 38.5 30.625Z" fill="#FEFEFE"/>
</svg>
