<svg width="24" height="24" viewBox="0 0 24 24" fill="none" xmlns="http://www.w3.org/2000/svg">
<path fill-rule="evenodd" clip-rule="evenodd" d="M12 2.75C12.4142 2.75 12.75 3.08579 12.75 3.5V13.1893L15.4697 10.4697C15.7626 10.1768 16.2374 10.1768 16.5303 10.4697C16.8232 10.7626 16.8232 11.2374 16.5303 11.5303L12 16.0607L7.46967 11.5303C7.17678 11.2374 7.17678 10.7626 7.46967 10.4697C7.76256 10.1768 8.23744 10.1768 8.53033 10.4697L11.25 13.1893V3.5C11.25 3.08579 11.5858 2.75 12 2.75Z" fill="#121212"/>
<path fill-rule="evenodd" clip-rule="evenodd" d="M21 14.25C21.4142 14.25 21.75 14.5858 21.75 15V18C21.75 19.5188 20.5188 20.75 19 20.75H5C3.48122 20.75 2.25 19.5188 2.25 18V15.5556C2.25 15.1413 2.58579 14.8056 3 14.8056C3.41421 14.8056 3.75 15.1413 3.75 15.5556V18C3.75 18.6904 4.30964 19.25 5 19.25H19C19.6904 19.25 20.25 18.6904 20.25 18V15C20.25 14.5858 20.5858 14.25 21 14.25Z" fill="#121212"/>
</svg>
