<svg width="24" height="24" viewBox="0 0 24 24" fill="none" xmlns="http://www.w3.org/2000/svg">
<path fill-rule="evenodd" clip-rule="evenodd" d="M21.5166 3.54375C21.8169 3.25846 21.829 2.78374 21.5438 2.48344C21.2585 2.18313 20.7837 2.17096 20.4834 2.45625L10.4834 11.9563C10.1831 12.2415 10.171 12.7163 10.4563 13.0166C10.7415 13.3169 11.2163 13.329 11.5166 13.0438L21.5166 3.54375ZM6 3.25C4.48122 3.25 3.25 4.48122 3.25 6V18C3.25 19.5188 4.48122 20.75 6 20.75H18C19.5188 20.75 20.75 19.5188 20.75 18V10.303C20.75 9.88882 20.4142 9.55303 20 9.55303C19.5858 9.55303 19.25 9.88882 19.25 10.303V18C19.25 18.6904 18.6904 19.25 18 19.25H6C5.30964 19.25 4.75 18.6904 4.75 18V6C4.75 5.30965 5.30965 4.75 6 4.75H13.697C14.1112 4.75 14.447 4.41422 14.447 4C14.447 3.58579 14.1112 3.25 13.697 3.25H6Z" fill="#007AFF"/>
</svg>
