<svg width="24" height="24" viewBox="0 0 24 24" fill="none" xmlns="http://www.w3.org/2000/svg">
<path fill-rule="evenodd" clip-rule="evenodd" d="M21.6344 2.39734C21.9672 2.7477 21.953 3.30154 21.6027 3.63437L11.6027 13.1344C11.2523 13.4672 10.6985 13.453 10.3656 13.1027C10.0328 12.7523 10.047 12.1985 10.3973 11.8656L20.3973 2.36563C20.7477 2.03279 21.3015 2.04699 21.6344 2.39734Z" fill="#121212"/>
<path fill-rule="evenodd" clip-rule="evenodd" d="M3.125 6C3.125 4.41218 4.41218 3.125 6 3.125H13.697C14.1802 3.125 14.572 3.51675 14.572 4C14.572 4.48325 14.1802 4.875 13.697 4.875H6C5.37868 4.875 4.875 5.37868 4.875 6V18C4.875 18.6213 5.37868 19.125 6 19.125H18C18.6213 19.125 19.125 18.6213 19.125 18V10.303C19.125 9.81978 19.5168 9.42803 20 9.42803C20.4832 9.42803 20.875 9.81978 20.875 10.303V18C20.875 19.5878 19.5878 20.875 18 20.875H6C4.41218 20.875 3.125 19.5878 3.125 18V6Z" fill="#121212"/>
</svg>
