<svg width="60" height="60" viewBox="0 0 60 60" fill="none" xmlns="http://www.w3.org/2000/svg">
<g clip-path="url(#clip0_57_1528)">
<circle cx="30.5" cy="29.9999" r="30" fill="#F6F6F6"/>
<path d="M39.917 10.6992L44.2828 22.1521L42.1019 21.6981L40.8536 24.7899L37.7205 23.7345L35.6166 29.0889L28.6904 25.6206L26.348 30.1956L23.5618 29.0965L20.5203 34.8001L17.1412 32.6537L10.1875 14.4132L30.3783 6.7158L39.917 10.6992Z" fill="#D3D3D3"/>
<path d="M30.3787 6.71612L39.917 10.6982L32.9146 13.3679L30.3787 6.71612Z" fill="#A6A6A6"/>
<path d="M45.1291 24.4581L51.5353 41.261L24.342 51.6293L17.9876 34.9599L21.3667 37.1064L24.4078 31.403L27.1942 32.502L29.5368 27.9268L36.4628 31.3953L38.5666 26.0407L41.7 27.096L42.9482 24.0045L45.1291 24.4581Z" fill="#D3D3D3"/>
</g>
<defs>
<clipPath id="clip0_57_1528">
<rect width="60" height="60" fill="white"/>
</clipPath>
</defs>
</svg>
