<svg width="18" height="18" viewBox="0 0 18 18" fill="none" xmlns="http://www.w3.org/2000/svg">
<path fill-rule="evenodd" clip-rule="evenodd" d="M9.89711 0H2C0.895431 0 0 0.89543 0 2V16C0 17.1046 0.89543 18 2 18H16C17.1046 18 18 17.1046 18 16V9.18773C17.9845 9.12773 17.9763 9.06483 17.9763 9V8C17.9763 7.30964 17.4167 6.75 16.7263 6.75H12.5C11.5335 6.75 10.75 5.9665 10.75 5V1.1856C10.75 0.634064 10.3928 0.165956 9.89711 0ZM17.8351 5.48268C17.2134 2.66964 14.8995 0.492325 12.0157 0.0731528C12.1663 0.413281 12.25 0.789669 12.25 1.1856V5C12.25 5.13807 12.3619 5.25 12.5 5.25H16.7263C17.1208 5.25 17.4959 5.33307 17.8351 5.48268Z" fill="white"/>
</svg>
