<svg width="32" height="32" viewBox="0 0 32 32" fill="none" xmlns="http://www.w3.org/2000/svg">
<path d="M9.55192 4.07956H22.4319C22.8639 4.07956 23.1999 3.69556 23.1999 3.21556C23.1999 2.73556 22.8639 2.35156 22.4319 2.35156H9.55192C9.11992 2.35156 8.78392 2.73556 8.78392 3.21556C8.78392 3.69556 9.13592 4.07956 9.55192 4.07956ZM22.5919 6.03156H9.40792C8.57592 6.03156 7.91992 6.70356 7.91992 7.51956V11.8396C7.91992 12.2236 8.06392 12.5756 8.31992 12.8636L11.0079 15.7436C11.2639 16.0156 11.4079 16.3836 11.4079 16.7676V28.1596C11.4079 28.9916 12.0799 29.6476 12.8959 29.6476H19.1039C19.9359 29.6476 20.5919 28.9756 20.5919 28.1596V16.8796C20.5919 16.5116 20.7359 16.1596 20.9759 15.8716L23.6959 12.8636C23.9359 12.5916 24.0799 12.2396 24.0799 11.8556V7.51956C24.0799 6.70356 23.4079 6.03156 22.5919 6.03156ZM16.9439 21.2476H15.9999C15.4719 21.2476 15.0559 20.8156 15.0559 20.3036V18.4636C15.0559 17.9356 15.4879 17.5196 15.9999 17.5196C16.5119 17.5196 16.9439 17.9516 16.9439 18.4636V21.2476Z" fill="white"/>
</svg>
