<svg width="14" height="12" viewBox="0 0 14 12" fill="none" xmlns="http://www.w3.org/2000/svg">
<path fill-rule="evenodd" clip-rule="evenodd" d="M7.49557 10.5925V8.48788C6.41171 8.13922 5.43638 8.3315 4.54441 8.80022C3.45614 9.37209 2.51088 10.3537 1.7892 11.2809C1.50693 11.6435 1.01384 11.7671 0.593908 11.5804C0.173976 11.3938 -0.0646884 10.9449 0.0153641 10.4924C0.4103 8.25994 1.17168 6.27217 2.58396 4.9034C3.82122 3.70425 5.45574 3.07681 7.49557 3.06576V1.33328C7.49557 0.926328 7.74219 0.559962 8.11922 0.406806C8.49626 0.253649 8.9285 0.344253 9.21229 0.635929L13.7168 5.26556C14.0945 5.65375 14.0945 6.27208 13.7168 6.66027L9.21229 11.2899C8.9285 11.5816 8.49626 11.6722 8.11922 11.519C7.74219 11.3659 7.49557 10.9995 7.49557 10.5925Z" fill="#121212" fill-opacity="0.32"/>
</svg>
