<svg width="24" height="24" viewBox="0 0 24 24" fill="none" xmlns="http://www.w3.org/2000/svg">
<path fill-rule="evenodd" clip-rule="evenodd" d="M11 9.5C11 10.8807 9.88071 12 8.5 12C7.11929 12 6 10.8807 6 9.5C6 8.11929 7.11929 7 8.5 7C9.88071 7 11 8.11929 11 9.5ZM9.5 9.5C9.5 10.0523 9.05228 10.5 8.5 10.5C7.94772 10.5 7.5 10.0523 7.5 9.5C7.5 8.94772 7.94772 8.5 8.5 8.5C9.05228 8.5 9.5 8.94772 9.5 9.5Z" fill="black"/>
<path fill-rule="evenodd" clip-rule="evenodd" d="M4.38095 4C3.06599 4 2 5.11929 2 6.5V17.5C2 18.8807 3.06599 20 4.38095 20H19.619C20.934 20 22 18.8807 22 17.5V6.5C22 5.11929 20.934 4 19.619 4H4.38095ZM19.619 5.5H4.38095C3.96254 5.5 3.5 5.87791 3.5 6.5V15.4773L5.29495 13.7488C6.33262 12.7495 7.96556 12.7204 9.03818 13.6821L10.4758 14.971L13.5633 11.9303C14.6783 10.8322 16.4837 10.8847 17.5331 12.0457L20.5 15.3283V6.5C20.5 5.87791 20.0375 5.5 19.619 5.5ZM4.38095 18.5C3.96691 18.5 3.50965 18.1299 3.50015 17.5194L3.5202 17.5402L6.33541 14.8293C6.80708 14.3751 7.54933 14.3618 8.03688 14.7989L10.5241 17.0288L14.6158 12.9991C15.1226 12.4999 15.9433 12.5237 16.4203 13.0515L20.4436 17.5029L20.5 17.4519V17.5C20.5 18.1221 20.0375 18.5 19.619 18.5H4.38095Z" fill="black"/>
</svg>
