<svg width="29" height="30" viewBox="0 0 29 30" fill="none" xmlns="http://www.w3.org/2000/svg">
<rect y="0.5" width="29" height="29" rx="6" fill="#8E8E93"/>
<path d="M14.4902 24.2852C14.373 24.2852 14.2526 24.2819 14.1289 24.2754C14.0117 24.2689 13.8945 24.2624 13.7773 24.2559L13.25 25.2617C13.1849 25.3854 13.097 25.4733 12.9863 25.5254C12.8757 25.584 12.752 25.6035 12.6152 25.584C12.4785 25.5514 12.3678 25.4928 12.2832 25.4082C12.2051 25.3236 12.1562 25.2096 12.1367 25.0664L11.9805 23.9434C11.4987 23.8066 11.0527 23.6439 10.6426 23.4551L9.79297 24.2168C9.69531 24.3145 9.58464 24.3698 9.46094 24.3828C9.33724 24.3958 9.21354 24.3665 9.08984 24.2949C8.97266 24.2298 8.89128 24.1387 8.8457 24.0215C8.80013 23.9108 8.79036 23.7871 8.81641 23.6504L9.05078 22.5469C8.86198 22.4102 8.67318 22.2637 8.48438 22.1074C8.30208 21.9577 8.1263 21.7949 7.95703 21.6191L6.91211 22.0586C6.64518 22.1628 6.41406 22.1042 6.21875 21.8828C6.13411 21.7786 6.08529 21.668 6.07227 21.5508C6.06576 21.4271 6.10156 21.3034 6.17969 21.1797L6.78516 20.2324C6.64844 20.0306 6.52148 19.8288 6.4043 19.627C6.28711 19.4186 6.17643 19.207 6.07227 18.9922L4.93945 19.0312C4.80273 19.0378 4.68229 19.0085 4.57812 18.9434C4.47396 18.8783 4.39583 18.7773 4.34375 18.6406C4.30469 18.5104 4.30143 18.3867 4.33398 18.2695C4.36654 18.1523 4.43815 18.0514 4.54883 17.9668L5.44727 17.2734C5.38867 17.0391 5.33659 16.8079 5.29102 16.5801C5.25195 16.3457 5.22266 16.1048 5.20312 15.8574L4.11914 15.5156C3.98242 15.4766 3.87826 15.4082 3.80664 15.3105C3.73503 15.2064 3.69922 15.0859 3.69922 14.9492C3.69922 14.806 3.73503 14.6855 3.80664 14.5879C3.87826 14.4902 3.98242 14.4219 4.11914 14.3828L5.20312 14.041C5.22266 13.7936 5.25195 13.556 5.29102 13.3281C5.33659 13.0938 5.38867 12.8594 5.44727 12.625L4.54883 11.9316C4.30794 11.7493 4.24284 11.5247 4.35352 11.2578C4.39909 11.1276 4.47396 11.0299 4.57812 10.9648C4.68229 10.8932 4.80599 10.8607 4.94922 10.8672L6.07227 10.9062C6.17643 10.6914 6.28711 10.4831 6.4043 10.2812C6.52148 10.0729 6.64844 9.87109 6.78516 9.67578L6.17969 8.71875C6.01693 8.46484 6.02995 8.23047 6.21875 8.01562C6.31641 7.91146 6.42383 7.8431 6.54102 7.81055C6.6582 7.77799 6.7819 7.78776 6.91211 7.83984L7.95703 8.26953C8.13281 8.10677 8.30859 7.95052 8.48438 7.80078C8.66667 7.64453 8.85547 7.49805 9.05078 7.36133L8.81641 6.24805C8.78385 6.11133 8.79036 5.98763 8.83594 5.87695C8.88802 5.75977 8.97266 5.66862 9.08984 5.60352C9.21354 5.53841 9.33724 5.51237 9.46094 5.52539C9.58464 5.5319 9.69857 5.58398 9.80273 5.68164L10.6328 6.44336C10.8477 6.3457 11.0658 6.25456 11.2871 6.16992C11.5085 6.08529 11.7363 6.01042 11.9707 5.94531L12.1367 4.82227C12.1562 4.68555 12.2051 4.57487 12.2832 4.49023C12.3678 4.39909 12.4818 4.34049 12.625 4.31445C12.7552 4.29492 12.8757 4.3112 12.9863 4.36328C13.097 4.41536 13.1849 4.50651 13.25 4.63672L13.7773 5.63281C13.8945 5.6263 14.0117 5.62305 14.1289 5.62305C14.2526 5.61654 14.373 5.61328 14.4902 5.61328C14.6139 5.61328 14.7344 5.61654 14.8516 5.62305C14.9688 5.62305 15.0859 5.6263 15.2031 5.63281L15.7402 4.62695C15.8053 4.50326 15.89 4.41536 15.9941 4.36328C16.1048 4.30469 16.2318 4.28841 16.375 4.31445C16.5052 4.34701 16.6126 4.4056 16.6973 4.49023C16.7819 4.57487 16.8307 4.68555 16.8438 4.82227L17 5.94531C17.2344 6.01042 17.4622 6.08529 17.6836 6.16992C17.9115 6.24805 18.1296 6.33594 18.3379 6.43359L19.1875 5.68164C19.2917 5.58398 19.4023 5.52865 19.5195 5.51562C19.6432 5.5026 19.7702 5.5319 19.9004 5.60352C20.0176 5.66862 20.099 5.75977 20.1445 5.87695C20.1901 5.98763 20.1999 6.11133 20.1738 6.24805L19.9297 7.35156C20.1185 7.48828 20.304 7.63477 20.4863 7.79102C20.6751 7.94076 20.8542 8.10026 21.0234 8.26953L22.0781 7.83984C22.3451 7.72917 22.5762 7.78451 22.7715 8.00586C22.8561 8.11654 22.9017 8.23372 22.9082 8.35742C22.9147 8.47461 22.8789 8.59505 22.8008 8.71875L22.2051 9.66602C22.3353 9.86133 22.459 10.0632 22.5762 10.2715C22.6999 10.4733 22.8138 10.6816 22.918 10.8965L24.041 10.8672C24.1842 10.8607 24.3047 10.89 24.4023 10.9551C24.5065 11.0202 24.5846 11.1211 24.6367 11.2578C24.6823 11.388 24.6888 11.5117 24.6562 11.6289C24.6237 11.7461 24.5488 11.847 24.4316 11.9316L23.5332 12.625C23.5983 12.8529 23.6504 13.084 23.6895 13.3184C23.7285 13.5527 23.7611 13.7936 23.7871 14.041L24.8613 14.3828C24.998 14.4219 25.1022 14.4902 25.1738 14.5879C25.252 14.6855 25.291 14.806 25.291 14.9492C25.291 15.0859 25.252 15.2064 25.1738 15.3105C25.1022 15.4082 24.998 15.4766 24.8613 15.5156L23.7871 15.8574C23.7611 16.1048 23.7285 16.3457 23.6895 16.5801C23.6504 16.8079 23.5983 17.0391 23.5332 17.2734L24.4414 17.9668C24.5521 18.0514 24.6237 18.1523 24.6562 18.2695C24.6953 18.3867 24.6888 18.5072 24.6367 18.6309C24.5846 18.7676 24.5065 18.8717 24.4023 18.9434C24.3047 19.0085 24.1842 19.0378 24.041 19.0312L22.918 18.9922C22.8138 19.2005 22.6999 19.4089 22.5762 19.6172C22.459 19.819 22.3353 20.0208 22.2051 20.2227L22.8105 21.1797C22.8887 21.2969 22.9212 21.4173 22.9082 21.541C22.9017 21.6647 22.8529 21.7786 22.7617 21.8828C22.6706 21.987 22.5664 22.0553 22.4492 22.0879C22.332 22.1204 22.2051 22.1107 22.0684 22.0586L21.0234 21.6289C20.8542 21.7917 20.6784 21.9479 20.4961 22.0977C20.3138 22.2539 20.125 22.4004 19.9297 22.5371L20.1738 23.6504C20.1999 23.7871 20.1901 23.9108 20.1445 24.0215C20.099 24.1322 20.0143 24.2233 19.8906 24.2949C19.7669 24.36 19.6432 24.3861 19.5195 24.373C19.3958 24.3665 19.2852 24.3145 19.1875 24.2168L18.3477 23.4551C18.1328 23.5527 17.9147 23.6406 17.6934 23.7188C17.472 23.8034 17.2441 23.8783 17.0098 23.9434L16.8438 25.0762C16.8307 25.2129 16.7819 25.3236 16.6973 25.4082C16.6126 25.4993 16.502 25.5579 16.3652 25.584C16.2285 25.597 16.1048 25.5775 15.9941 25.5254C15.89 25.4733 15.8053 25.3854 15.7402 25.2617L15.2031 24.2559C15.0859 24.2624 14.9688 24.2689 14.8516 24.2754C14.7344 24.2819 14.6139 24.2852 14.4902 24.2852ZM14.4902 22.6641C15.5579 22.6641 16.5573 22.4622 17.4883 22.0586C18.4193 21.6615 19.2396 21.1113 19.9492 20.4082C20.6589 19.6986 21.2122 18.8783 21.6094 17.9473C22.0065 17.0163 22.2051 16.0169 22.2051 14.9492C22.2051 13.8815 22.0065 12.8822 21.6094 11.9512C21.2122 11.0202 20.6589 10.1999 19.9492 9.49023C19.2396 8.7806 18.4193 8.22721 17.4883 7.83008C16.5573 7.43294 15.5579 7.23438 14.4902 7.23438C13.429 7.23438 12.4297 7.43294 11.4922 7.83008C10.5612 8.22721 9.74089 8.7806 9.03125 9.49023C8.32812 10.1999 7.77474 11.0202 7.37109 11.9512C6.97396 12.8822 6.77539 13.8815 6.77539 14.9492C6.77539 16.0169 6.97396 17.0163 7.37109 17.9473C7.77474 18.8783 8.32812 19.6986 9.03125 20.4082C9.74089 21.1113 10.5612 21.6615 11.4922 22.0586C12.4297 22.4622 13.429 22.6641 14.4902 22.6641ZM12.791 13.4551L9.48047 7.80078L10.6816 7.12695L13.9434 12.7227L12.791 13.4551ZM16.668 15.6133V14.2656H23.1621V15.6133H16.668ZM13.9629 17.2051L10.5742 22.7715L9.38281 22.0684L12.8203 16.4629L13.9629 17.2051ZM14.5 17.5078C14.0247 17.5078 13.5918 17.3939 13.2012 17.166C12.8171 16.9316 12.5111 16.6224 12.2832 16.2383C12.0553 15.8477 11.9414 15.418 11.9414 14.9492C11.9414 14.474 12.0553 14.0443 12.2832 13.6602C12.5111 13.276 12.8171 12.9701 13.2012 12.7422C13.5918 12.5078 14.0247 12.3906 14.5 12.3906C14.9688 12.3906 15.3952 12.5078 15.7793 12.7422C16.1699 12.9701 16.4792 13.276 16.707 13.6602C16.9414 14.0443 17.0586 14.474 17.0586 14.9492C17.0586 15.418 16.9414 15.8477 16.707 16.2383C16.4792 16.6224 16.1699 16.9316 15.7793 17.166C15.3952 17.3939 14.9688 17.5078 14.5 17.5078ZM14.5 16.043C14.7995 16.043 15.0566 15.9355 15.2715 15.7207C15.4863 15.5059 15.5938 15.2487 15.5938 14.9492C15.5938 14.6497 15.4863 14.3926 15.2715 14.1777C15.0566 13.9629 14.7995 13.8555 14.5 13.8555C14.2005 13.8555 13.9434 13.9629 13.7285 14.1777C13.5137 14.3926 13.4062 14.6497 13.4062 14.9492C13.4062 15.2487 13.5137 15.5059 13.7285 15.7207C13.9434 15.9355 14.2005 16.043 14.5 16.043Z" fill="white"/>
</svg>
