<svg width="60" height="60" viewBox="0 0 60 60" fill="none" xmlns="http://www.w3.org/2000/svg">
<rect width="60" height="60" rx="30" fill="#121212" fill-opacity="0.06"/>
<path d="M14 33.125V31.5V25C14 21.6863 16.6863 19 20 19H42C45.3137 19 48 21.6863 48 25V38C48 41.3137 45.3137 44 42 44H31H20C19.1078 44 18.2611 43.8053 17.5 43.456" stroke="#121212" stroke-width="2" stroke-linecap="round"/>
<rect x="9" y="35" width="19" height="7" rx="3.5" fill="#121212" fill-opacity="0.32"/>
<path d="M12.5 40C11.6716 40 11 39.3284 11 38.5C11 37.6716 11.6716 37 12.5 37C13.3284 37 14 37.6716 14 38.5C14 39.3284 13.3284 40 12.5 40Z" fill="#121212"/>
<path d="M18.5 40C17.6716 40 17 39.3284 17 38.5C17 37.6716 17.6716 37 18.5 37C19.3284 37 20 37.6716 20 38.5C20 39.3284 19.3284 40 18.5 40Z" fill="#121212"/>
<path d="M24.5 40C23.6716 40 23 39.3284 23 38.5C23 37.6716 23.6716 37 24.5 37C25.3284 37 26 37.6716 26 38.5C26 39.3284 25.3284 40 24.5 40Z" fill="#121212"/>
<path d="M42 26L34.6038 31.9874C32.7238 33.5093 30.1137 33.7535 27.984 32.6068L18.5 26" stroke="#121212" stroke-width="2" stroke-linecap="round"/>
</svg>
