<svg width="40" height="40" viewBox="0 0 40 40" fill="none" xmlns="http://www.w3.org/2000/svg">
<path d="M17.3242 18.75C19.3953 18.75 21.0742 17.0711 21.0742 15C21.0742 12.9289 19.3953 11.25 17.3242 11.25C15.2532 11.25 13.5742 12.9289 13.5742 15C13.5742 17.0711 15.2532 18.75 17.3242 18.75Z" stroke="#007AFF" stroke-width="1.5"/>
<path d="M25.8789 27.6761C25.9886 28.1737 25.5743 28.75 24.8261 28.75H24.8159H24.8057H24.7955H24.7852H24.7749H24.7646H24.7543H24.744H24.7336H24.7232H24.7128H24.7023H24.6919H24.6814H24.6709H24.6603H24.6498H24.6392H24.6286H24.618H24.6074H24.5967H24.586H24.5753H24.5646H24.5539H24.5431H24.5323H24.5215H24.5107H24.4998H24.4889H24.4781H24.4671H24.4562H24.4452H24.4343H24.4233H24.4122H24.4012H24.3901H24.379H24.3679H24.3568H24.3456H24.3345H24.3233H24.3121H24.3008H24.2896H24.2783H24.267H24.2557H24.2443H24.233H24.2216H24.2102H24.1988H24.1873H24.1759H24.1644H24.1529H24.1414H24.1298H24.1183H24.1067H24.0951H24.0834H24.0718H24.0601H24.0484H24.0367H24.025H24.0132H24.0015H23.9897H23.9779H23.966H23.9542H23.9423H23.9304H23.9185H23.9066H23.8946H23.8827H23.8707H23.8587H23.8466H23.8346H23.8225H23.8104H23.7983H23.7862H23.774H23.7619H23.7497H23.7375H23.7253H23.713H23.7007H23.6885H23.6762H23.6638H23.6515H23.6391H23.6267H23.6143H23.6019H23.5895H23.577H23.5645H23.552H23.5395H23.527H23.5144H23.5019H23.4893H23.4767H23.464H23.4514H23.4387H23.426H23.4133H23.4006H23.3878H23.3751H23.3623H23.3495H23.3367H23.3238H23.311H23.2981H23.2852H23.2723H23.2594H23.2464H23.2335H23.2205H23.2075H23.1945H23.1814H23.1684H23.1553H23.1422H23.1291H23.1159H23.1028H23.0896H23.0764H23.0632H23.05H23.0368H23.0235H23.0102H22.9969H22.9836H22.9703H22.9569H22.9436H22.9302H22.9168H22.9034H22.8899H22.8765H22.863H22.8495H22.836H22.8225H22.809H22.7954H22.7818H22.7682H22.7546H22.741H22.7273H22.7137H22.7H22.6863H22.6726H22.6588H22.6451H22.6313H22.6175H22.6037H22.5899H22.5761H22.5622H22.5484H22.5345H22.5206H22.5066H22.4927H22.4788H22.4648H22.4508H22.4368H22.4228H22.4087H22.3947H22.3806H22.3665H22.3524H22.3383H22.3242H22.31H22.2958H22.2816H22.2674H22.2532H22.239H22.2247H22.2105H22.1962H22.1819H22.1676H22.1532H22.1389H22.1245H22.1101H22.0957H22.0813H22.0669H22.0524H22.038H22.0235H22.009H21.9945H21.98H21.9654H21.9509H21.9363H21.9217H21.9071H21.8925H21.8779H21.8632H21.8485H21.8339H21.8192H21.8044H21.7897H21.775H21.7602H21.7454H21.7306H21.7158H21.701H21.6862H21.6713H21.6565H21.6416H21.6267H21.6118H21.5968H21.5819H21.5669H21.552H21.537H21.522H21.507H21.4919H21.4769H21.4618H21.4467H21.4317H21.4165H21.4014H21.3863H21.3711H21.356H21.3408H21.3256H21.3104H21.2952H21.2799H21.2647H21.2494H21.2341H21.2188H21.2035H21.1882H21.1729H21.1575H21.1421H21.1268H21.1114H21.096H21.0805H21.0651H21.0496H21.0342H21.0187H21.0032H20.9877H20.9722H20.9566H20.9411H20.9255H20.9099H20.8944H20.8788H20.8631H20.8475H20.8319H20.8162H20.8005H20.7848H20.7691H20.7534H20.7377H20.722H20.7062H20.6904H20.6747H20.6589H20.6431H20.6272H20.6114H20.5956H20.5797H20.5638H20.5479H20.532H20.5161H20.5002H20.4843H20.4683H20.4523H20.4364H20.4204H20.4044H20.3883H20.3723H20.3563H20.3402H20.3242H20.3081H20.292H20.2759H20.2598H20.2436H20.2275H20.2113H20.1952H20.179H20.1628H20.1466H20.1304H20.1141H20.0979H20.0816H20.0654H20.0491H20.0328H20.0165H20.0002H19.9838H19.9675H19.9511H19.9348H19.9184H19.902H19.8856H19.8692H19.8528H19.8363H19.8199H19.8034H19.787H19.7705H19.754H19.7375H19.7209H19.7044H19.6879H19.6713H19.6548H19.6382H19.6216H19.605H19.5884H19.5718H19.5551H19.5385H19.5218H19.5051H19.4885H19.4718H19.4551H19.4384H19.4216H19.4049H19.3882H19.3714H19.3546H19.3378H19.3211H19.3042H19.2874H19.2706H19.2538H19.2369H19.2201H19.2032H19.1863H19.1694H19.1525H19.1356H19.1187H19.1018H19.0848H19.0679H19.0509H19.0339H19.017H19H18.983H18.9659H18.9489H18.9319H18.9148H18.8978H18.8807H18.8636H18.8465H18.8294H18.8123H18.7952H18.7781H18.761H18.7438H18.7266H18.7095H18.6923H18.6751H18.6579H18.6407H18.6235H18.6063H18.589H18.5718H18.5545H18.5373H18.52H18.5027H18.4854H18.4681H18.4508H18.4335H18.4161H18.3988H18.3814H18.3641H18.3467H18.3293H18.3119H18.2945H18.2771H18.2597H18.2423H18.2248H18.2074H18.1899H18.1725H18.155H18.1375H18.12H18.1025H18.085H18.0675H18.05H18.0324H18.0149H17.9974H17.9798H17.9623H17.9447H17.9271H17.9095H17.8919H17.8743H17.8567H17.839H17.8214H17.8037H17.7861H17.7684H17.7507H17.7331H17.7154H17.6977H17.68H17.6623H17.6445H17.6268H17.6091H17.5913H17.5736H17.5558H17.538H17.5202H17.5025H17.4847H17.4669H17.449H17.4312H17.4134H17.3956H17.3777H17.3599H17.342H17.3242H17.3063H17.2884H17.2706H17.2527H17.2349H17.2171H17.1993H17.1814H17.1636H17.1458H17.1281H17.1103H17.0925H17.0747H17.057H17.0392H17.0215H17.0038H16.9861H16.9683H16.9506H16.9329H16.9152H16.8976H16.8799H16.8622H16.8446H16.8269H16.8093H16.7917H16.774H16.7564H16.7388H16.7212H16.7036H16.6861H16.6685H16.6509H16.6334H16.6158H16.5983H16.5808H16.5632H16.5457H16.5282H16.5108H16.4933H16.4758H16.4583H16.4409H16.4234H16.406H16.3886H16.3712H16.3537H16.3363H16.319H16.3016H16.2842H16.2668H16.2495H16.2321H16.2148H16.1975H16.1802H16.1629H16.1456H16.1283H16.111H16.0937H16.0765H16.0592H16.042H16.0248H16.0076H15.9904H15.9732H15.956H15.9388H15.9216H15.9045H15.8873H15.8702H15.8531H15.8359H15.8188H15.8017H15.7846H15.7676H15.7505H15.7334H15.7164H15.6994H15.6823H15.6653H15.6483H15.6313H15.6143H15.5974H15.5804H15.5634H15.5465H15.5296H15.5126H15.4957H15.4788H15.4619H15.4451H15.4282H15.4113H15.3945H15.3777H15.3608H15.344H15.3272H15.3104H15.2936H15.2769H15.2601H15.2434H15.2266H15.2099H15.1932H15.1765H15.1598H15.1431H15.1265H15.1098H15.0932H15.0765H15.0599H15.0433H15.0267H15.0101H14.9935H14.977H14.9604H14.9439H14.9273H14.9108H14.8943H14.8778H14.8613H14.8448H14.8284H14.8119H14.7955H14.7791H14.7627H14.7463H14.7299H14.7135H14.6971H14.6808H14.6644H14.6481H14.6318H14.6155H14.5992H14.5829H14.5666H14.5504H14.5341H14.5179H14.5017H14.4855H14.4693H14.4531H14.4369H14.4208H14.4046H14.3885H14.3724H14.3563H14.3402H14.3241H14.308H14.292H14.276H14.2599H14.2439H14.2279H14.2119H14.1959H14.18H14.164H14.1481H14.1322H14.1162H14.1003H14.0845H14.0686H14.0527H14.0369H14.021H14.0052H13.9894H13.9736H13.9578H13.9421H13.9263H13.9106H13.8948H13.8791H13.8634H13.8477H13.8321H13.8164H13.8008H13.7851H13.7695H13.7539H13.7383H13.7227H13.7072H13.6916H13.6761H13.6606H13.6451H13.6296H13.6141H13.5986H13.5832H13.5677H13.5523H13.5369H13.5215H13.5061H13.4908H13.4754H13.4601H13.4447H13.4294H13.4141H13.3989H13.3836H13.3683H13.3531H13.3379H13.3227H13.3075H13.2923H13.2771H13.262H13.2468H13.2317H13.2166H13.2015H13.1865H13.1714H13.1563H13.1413H13.1263H13.1113H13.0963H13.0813H13.0664H13.0514H13.0365H13.0216H13.0067H12.9918H12.9769H12.9621H12.9473H12.9324H12.9176H12.9028H12.8881H12.8733H12.8586H12.8438H12.8291H12.8144H12.7997H12.7851H12.7704H12.7558H12.7412H12.7266H12.712H12.6974H12.6828H12.6683H12.6538H12.6393H12.6248H12.6103H12.5958H12.5814H12.567H12.5525H12.5381H12.5238H12.5094H12.495H12.4807H12.4664H12.4521H12.4378H12.4235H12.4093H12.395H12.3808H12.3666H12.3524H12.3383H12.3241H12.31H12.2959H12.2818H12.2677H12.2536H12.2395H12.2255H12.2115H12.1975H12.1835H12.1695H12.1556H12.1416H12.1277H12.1138H12.0999H12.086H12.0722H12.0584H12.0445H12.0307H12.0169H12.0032H11.9894H11.9757H11.962H11.9483H11.9346H11.9209H11.9073H11.8937H11.8801H11.8665H11.8529H11.8393H11.8258H11.8123H11.7987H11.7853H11.7718H11.7583H11.7449H11.7315H11.7181H11.7047H11.6913H11.678H11.6646H11.6513H11.638H11.6248H11.6115H11.5983H11.585H11.5718H11.5587H11.5455H11.5323H11.5192H11.5061H11.493H11.4799H11.4669H11.4538H11.4408H11.4278H11.4148H11.4018H11.3889H11.376H11.363H11.3502H11.3373H11.3244H11.3116H11.2988H11.286H11.2732H11.2604H11.2477H11.235H11.2222H11.2096H11.1969H11.1842H11.1716H11.159H11.1464H11.1338H11.1213H11.1087H11.0962H11.0837H11.0713H11.0588H11.0464H11.0339H11.0215H11.0091H10.9968H10.9844H10.9721H10.9598H10.9475H10.9353H10.923H10.9108H10.8986H10.8864H10.8742H10.8621H10.85H10.8378H10.8258H10.8137H10.8016H10.7896H10.7776H10.7656H10.7536H10.7417H10.7298H10.7178H10.706H10.6941H10.6822H10.6704H10.6586H10.6468H10.635H10.6233H10.6116H10.5998H10.5882H10.5765H10.5648H10.5532H10.5416H10.53H10.5185H10.5069H10.4954H10.4839H10.4724H10.4609H10.4495H10.4381H10.4267H10.4153H10.4039H10.3926H10.3813H10.37H10.3587H10.3474H10.3362H10.325H10.3138H10.3026H10.2915H10.2803H10.2692H10.2582H10.2471H10.236H10.225H10.214H10.203H10.1921H10.1811H10.1702H10.1593H10.1485H10.1376H10.1268H10.116H10.1052H10.0944H10.0837H10.0729H10.0622H10.0516H10.0409H10.0303H10.0196H10.009H9.99847H9.98792H9.97739H9.96689H9.9564H9.94594H9.9355H9.92508H9.91469H9.90431H9.89396H9.88363H9.87333H9.86304H9.85278H9.84254H9.83232H9.82212C9.07398 28.75 8.65972 28.1737 8.7694 27.6761C9.60676 23.8766 13.0766 21.25 17.3242 21.25C21.5717 21.25 25.0415 23.8766 25.8789 27.6761Z" stroke="#007AFF" stroke-width="1.5"/>
<path fill-rule="evenodd" clip-rule="evenodd" d="M25.0559 15C25.0559 16.6568 23.7127 18 22.0559 18C22.0524 18 22.0488 18 22.0453 18C21.7634 18.5283 21.4093 18.9938 21 19.3754C21.3387 19.4569 21.6923 19.5 22.0559 19.5C24.5412 19.5 26.5559 17.4853 26.5559 15C26.5559 12.5147 24.5412 10.5 22.0559 10.5C21.6923 10.5 21.3387 10.5431 21 10.6246C21.4093 11.0062 21.7634 11.4717 22.0453 12C22.0488 12 22.0524 12 22.0559 12C23.7127 12 25.0559 13.3432 25.0559 15Z" fill="#5128D4"/>
<path fill-rule="evenodd" clip-rule="evenodd" d="M29.8579 27.8875C29.8106 27.9381 29.705 28 29.5577 28H26.6866C26.7437 28.486 26.7732 28.9866 26.7732 29.5H29.5577C30.6623 29.5 31.5806 28.5933 31.3429 27.5147C30.4225 23.3387 26.6255 20.5093 22.078 20.5C22.8781 20.9515 23.6061 21.5456 24.2374 22.2611C27.1152 22.9732 29.2706 25.0816 29.878 27.8375C29.8802 27.8472 29.8806 27.853 29.8807 27.8558C29.8792 27.8593 29.8737 27.8706 29.8579 27.8875Z" fill="#5128D4"/>
<path fill-rule="evenodd" clip-rule="evenodd" d="M26.7732 29.5H29.5577C30.6623 29.5 31.5806 28.5933 31.3429 27.5147C30.4225 23.3387 26.6255 20.5093 22.078 20.5C22.8781 20.9515 23.6061 21.5456 24.2374 22.2611C27.1152 22.9732 29.2706 25.0816 29.878 27.8375C29.8802 27.8472 29.8806 27.853 29.8807 27.8558C29.8792 27.8593 29.8737 27.8706 29.8579 27.8875C29.8106 27.9381 29.705 28 29.5577 28H26.6866C26.7437 28.486 26.7732 28.9866 26.7732 29.5ZM21 19.3754C21.3387 19.4569 21.6923 19.5 22.0559 19.5C24.5412 19.5 26.5559 17.4853 26.5559 15C26.5559 12.5147 24.5412 10.5 22.0559 10.5C21.6923 10.5 21.3387 10.5431 21 10.6246C21.4093 11.0062 21.7634 11.4717 22.0453 12L22.0559 12C23.7127 12 25.0559 13.3432 25.0559 15C25.0559 16.6568 23.7127 18 22.0559 18L22.0453 18C21.7634 18.5283 21.4093 18.9938 21 19.3754Z" fill="#007AFF"/>
</svg>
