<svg width="20" height="20" viewBox="0 0 20 20" fill="none" xmlns="http://www.w3.org/2000/svg">
<path d="M8 2C10.2205 2 12 3.77948 12 6C12 8.22052 10.2205 10 8 10C5.78028 10 4 8.22052 4 6C4 3.77948 5.78028 2 8 2Z" fill="white"/>
<path d="M8 11C4.81933 11 2.13414 13.1214 1.28208 16.0264C0.971198 17.0863 1.89543 18 3 18H13C14.1046 18 15.0288 17.0863 14.7179 16.0264C13.8659 13.1214 11.1807 11 8 11Z" fill="white"/>
<path fill-rule="evenodd" clip-rule="evenodd" d="M12.1856 3.25223C12.701 4.03913 12.9999 4.98252 12.9999 6C12.9999 7.34618 12.4767 8.56268 11.6211 9.45864C12.1629 9.80182 12.8068 10 13.4998 10C15.4427 10 16.9998 8.44296 16.9998 6.5C16.9998 4.55704 15.4427 3 13.4998 3C13.0342 3 12.5908 3.08945 12.1856 3.25223ZM15.665 17C15.7964 16.7092 15.833 16.3744 15.738 16.0227C15.1754 13.9398 13.7444 12.1831 11.8292 11.1141C12.2078 11.0393 12.5992 11 12.9997 11C15.6257 11 17.8576 12.6869 18.671 15.0362C19.0324 16.08 18.1043 17 16.9997 17H15.665Z" fill="white"/>
</svg>
