<svg width="24" height="24" viewBox="0 0 24 24" fill="none" xmlns="http://www.w3.org/2000/svg">
    <rect x="0.75" y="3.75" width="22.5" height="16.5" rx="3.25" stroke="white"
        stroke-width="1.5" />
    <path
        d="M5.45391 8.86H6.54391V11.87H10.2839V8.86H11.3739V16H10.2839V12.8H6.54391V16H5.45391V8.86ZM12.7781 8.86H15.3781C16.5281 8.86 17.3981 9.18 17.9981 9.83C18.5581 10.43 18.8381 11.3 18.8381 12.43C18.8381 13.55 18.5481 14.42 17.9781 15.04C17.3781 15.68 16.5081 16 15.3581 16H12.7781V8.86ZM13.8681 9.79V15.07H15.1581C16.0581 15.07 16.7281 14.85 17.1481 14.42C17.5581 13.99 17.7681 13.33 17.7681 12.43C17.7681 11.51 17.5581 10.85 17.1581 10.43C16.7381 10 16.0781 9.79 15.1781 9.79H13.8681Z"
        fill="white" />
</svg>