<svg width="40" height="40" viewBox="0 0 40 40" fill="none" xmlns="http://www.w3.org/2000/svg">
<path fill-rule="evenodd" clip-rule="evenodd" d="M31.8924 9.42315C32.1841 9.12905 32.1821 8.65418 31.888 8.3625C31.5939 8.07082 31.1191 8.07278 30.8274 8.36689L26.0644 13.1694C26.0555 13.1644 26.0465 13.1593 26.0376 13.1542L23.1702 16.0454C23.1771 16.0526 23.1839 16.0598 23.1907 16.067L21.7403 17.5294C21.7337 17.522 21.727 17.5147 21.7203 17.5073L17.3 21.9643C17.3074 21.971 17.3148 21.9776 17.3222 21.9842L15.872 23.4464C15.8647 23.4397 15.8575 23.433 15.8502 23.4262L12.9829 26.3173C12.992 26.3221 13.0012 26.327 13.0104 26.3318L8.13961 31.243C7.84793 31.5371 7.8499 32.012 8.144 32.3037C8.4381 32.5953 8.91297 32.5934 9.20465 32.2993L14.4625 26.9978C15.9342 27.5745 17.5911 27.9359 19.4053 27.9359C26.71 27.9359 31.8624 21.7073 31.8624 19.6311C31.8624 18.4548 30.1436 15.9456 27.3618 13.9914L31.8924 9.42315ZM24.0627 17.3179L22.4672 18.9266C22.519 19.153 22.5464 19.3887 22.5464 19.6308C22.5464 21.3662 21.1396 22.773 19.4043 22.773C19.1712 22.773 18.944 22.7476 18.7254 22.6994L17.13 24.3081C17.8171 24.6429 18.5889 24.8307 19.4046 24.8307C22.2763 24.8307 24.6043 22.5028 24.6043 19.6311C24.6043 18.8001 24.4094 18.0146 24.0627 17.3179ZM19.4053 11.3264C21.0934 11.3264 22.6828 11.6783 24.1249 12.2426L21.5127 14.8765C20.8684 14.5904 20.1551 14.4314 19.4046 14.4314C16.5329 14.4314 14.205 16.7594 14.205 19.6311C14.205 20.3968 14.3705 21.1238 14.6677 21.7784L11.242 25.2324C8.50565 23.2546 6.94824 20.7323 6.94824 19.6311C6.94824 17.8423 11.7927 11.3264 19.4053 11.3264ZM19.4043 16.4887C19.5655 16.4887 19.7239 16.5008 19.8785 16.5242L16.3017 20.1308C16.2756 19.968 16.2621 19.801 16.2621 19.6308C16.2621 17.8954 17.6689 16.4887 19.4043 16.4887Z" fill="white"/>
</svg>
