<svg width="24" height="24" viewBox="0 0 24 24" fill="none" xmlns="http://www.w3.org/2000/svg">
    <path
        d="M1.80566 17.7656C1.58366 17.7656 1.39388 17.6868 1.23633 17.5293C1.07878 17.3646 1 17.1676 1 16.9385C1 16.7165 1.07878 16.5267 1.23633 16.3691C1.39388 16.2116 1.58366 16.1328 1.80566 16.1328H22.1836C22.4056 16.1328 22.5954 16.2116 22.7529 16.3691C22.9176 16.5267 23 16.7165 23 16.9385C23 17.1676 22.9176 17.3646 22.7529 17.5293C22.5954 17.6868 22.4056 17.7656 22.1836 17.7656H1.80566ZM1.80566 13.0713C1.58366 13.0713 1.39388 12.9925 1.23633 12.835C1.07878 12.6774 1 12.4876 1 12.2656C1 12.0365 1.07878 11.8431 1.23633 11.6855C1.39388 11.5208 1.58366 11.4385 1.80566 11.4385H22.1836C22.4056 11.4385 22.5954 11.5208 22.7529 11.6855C22.9176 11.8431 23 12.0365 23 12.2656C23 12.4876 22.9176 12.6774 22.7529 12.835C22.5954 12.9925 22.4056 13.0713 22.1836 13.0713H1.80566ZM1.80566 8.3877C1.58366 8.3877 1.39388 8.30892 1.23633 8.15137C1.07878 7.99382 1 7.80404 1 7.58203C1 7.35286 1.07878 7.15951 1.23633 7.00195C1.39388 6.8444 1.58366 6.76562 1.80566 6.76562H22.1836C22.4056 6.76562 22.5954 6.8444 22.7529 7.00195C22.9176 7.15951 23 7.35286 23 7.58203C23 7.80404 22.9176 7.99382 22.7529 8.15137C22.5954 8.30892 22.4056 8.3877 22.1836 8.3877H1.80566Z"
        fill="black" />
</svg>
