<svg width="20" height="21" viewBox="0 0 20 21" fill="none" xmlns="http://www.w3.org/2000/svg">
<path d="M6.14844 3.3901C5.97644 3.07853 4.81937 2.05363 4.15463 2.72185C3.48988 3.39007 2.82552 4.05835 2.82552 4.05835C2.16097 4.7266 1.75796 6.19886 2.16089 7.3996C2.98846 9.86566 4.40003 12.3241 6.81312 14.7503C9.22616 17.1767 10.2711 17.6864 11.4653 18.0916C12.6594 18.4968 15.4531 18.7598 16.7821 18.0916C18.1111 17.4233 18.3829 15.6911 17.4469 14.7503C16.7821 14.0821 14.7883 12.7456 14.7883 12.7456C14.1237 12.7456 13.0826 13.269 12.7945 13.4138L11.4653 14.0821C10.427 14.6041 10.2012 14.1476 8.80685 12.7456C7.41253 11.3436 6.81319 10.0726 6.81319 9.40438C6.81319 8.73613 7.47765 8.06785 7.47765 8.06785C7.62159 7.77832 8.807 7.39963 7.47779 5.39488L6.14844 3.3901Z" fill="#EB4B35"/>
<path fill-rule="evenodd" clip-rule="evenodd" d="M15.2504 8.5C15.2504 8.91421 15.5861 9.25 16.0004 9.25C16.4146 9.25 16.7504 8.91421 16.7504 8.5V4.5C16.7504 4.08579 16.4146 3.75 16.0004 3.75H12.0004C11.5861 3.75 11.2504 4.08579 11.2504 4.5C11.2504 4.91421 11.5861 5.25 12.0004 5.25H14.1895L11.4697 7.96962C11.1768 8.2625 11.1768 8.73738 11.4697 9.03028C11.7625 9.32319 12.2374 9.3232 12.5303 9.03032L15.2504 6.31046V8.5Z" fill="#EB4B35"/>
</svg>
