<svg width="24" height="24" viewBox="0 0 24 24" fill="none" xmlns="http://www.w3.org/2000/svg">
<path fill-rule="evenodd" clip-rule="evenodd" d="M0.75 5.5C0.75 3.98122 1.98122 2.75 3.5 2.75H17.5C19.0188 2.75 20.25 3.98122 20.25 5.5V9.5C20.25 9.91421 19.9142 10.25 19.5 10.25C19.0858 10.25 18.75 9.91421 18.75 9.5V5.5C18.75 4.80964 18.1904 4.25 17.5 4.25H3.5C2.80964 4.25 2.25 4.80964 2.25 5.5V13.5C2.25 14.1904 2.80964 14.75 3.5 14.75H7.5C7.91421 14.75 8.25 15.0858 8.25 15.5C8.25 15.9142 7.91421 16.25 7.5 16.25H3.5C1.98122 16.25 0.75 15.0188 0.75 13.5V5.5ZM3.96967 5.96967C4.26256 5.67678 4.73744 5.67678 5.03033 5.96967L7.25 8.18934V6.5C7.25 6.08579 7.58579 5.75 8 5.75C8.41421 5.75 8.75 6.08579 8.75 6.5V10C8.75 10.4142 8.41421 10.75 8 10.75H4.5C4.08579 10.75 3.75 10.4142 3.75 10C3.75 9.58579 4.08579 9.25 4.5 9.25H6.18934L3.96967 7.03033C3.67678 6.73744 3.67678 6.26256 3.96967 5.96967ZM11.5 11.75C10.5335 11.75 9.75 12.5335 9.75 13.5V19.5C9.75 20.4665 10.5335 21.25 11.5 21.25H21.5C22.4665 21.25 23.25 20.4665 23.25 19.5V13.5C23.25 12.5335 22.4665 11.75 21.5 11.75H11.5ZM11.25 13.5C11.25 13.3619 11.3619 13.25 11.5 13.25H21.5C21.6381 13.25 21.75 13.3619 21.75 13.5V19.5C21.75 19.6381 21.6381 19.75 21.5 19.75H11.5C11.3619 19.75 11.25 19.6381 11.25 19.5V13.5Z" fill="black"/>
</svg>
