<svg width="20" height="21" viewBox="0 0 20 21" fill="none" xmlns="http://www.w3.org/2000/svg">
<path d="M6.14844 3.3901C5.97644 3.07853 4.81937 2.05363 4.15463 2.72185C3.48988 3.39007 2.82552 4.05835 2.82552 4.05835C2.16097 4.7266 1.75796 6.19886 2.16089 7.3996C2.98846 9.86566 4.40003 12.3241 6.81312 14.7503C9.22616 17.1767 10.2711 17.6864 11.4653 18.0916C12.6594 18.4968 15.4531 18.7598 16.7821 18.0916C18.1111 17.4233 18.3829 15.6911 17.4469 14.7503C16.7821 14.0821 14.7883 12.7456 14.7883 12.7456C14.1237 12.7456 13.0826 13.269 12.7945 13.4138L11.4653 14.0821C10.427 14.6041 10.2012 14.1476 8.80685 12.7456C7.41253 11.3436 6.81319 10.0726 6.81319 9.40438C6.81319 8.73613 7.47765 8.06785 7.47765 8.06785C7.62159 7.77832 8.807 7.39963 7.47779 5.39488L6.14844 3.3901Z" fill="#EB4B35"/>
<path fill-rule="evenodd" clip-rule="evenodd" d="M12.75 4.5C12.75 4.08579 12.4142 3.75 12 3.75C11.5858 3.75 11.25 4.08579 11.25 4.5V8.5C11.25 8.69193 11.3232 8.88387 11.4697 9.03031C11.4702 9.03085 11.4707 9.03138 11.4713 9.03192C11.5428 9.10303 11.6251 9.15676 11.7129 9.19309C11.8007 9.22949 11.8969 9.2497 11.9977 9.25C11.9985 9.25 11.9992 9.25 12 9.25H12.0004H16C16.4142 9.25 16.75 8.91421 16.75 8.5C16.75 8.08579 16.4142 7.75 16 7.75H13.8107L16.0306 5.53035C16.3235 5.23747 16.3235 4.76259 16.0306 4.46969C15.7377 4.17678 15.2628 4.17677 14.9699 4.46965L12.75 6.68943V4.5Z" fill="#EB4B35"/>
</svg>
