<svg width="24" height="24" viewBox="0 0 24 24" fill="none" xmlns="http://www.w3.org/2000/svg">
<path d="M2.625 9.4C2.625 8.41969 3.41969 7.625 4.4 7.625H14.6C15.5803 7.625 16.375 8.41969 16.375 9.4V19.6C16.375 20.5803 15.5803 21.375 14.6 21.375H4.4C3.41969 21.375 2.625 20.5803 2.625 19.6V9.4Z" stroke="#121212" stroke-width="1.25" stroke-linecap="round"/>
<path fill-rule="evenodd" clip-rule="evenodd" d="M9.4 3.2498H19.6C20.2351 3.2498 20.75 3.76468 20.75 4.3998V14.5998C20.75 15.2349 20.2351 15.7498 19.6 15.7498H18.0001V16.9998H19.6C20.9255 16.9998 22 15.9253 22 14.5998V4.3998C22 3.07432 20.9255 1.9998 19.6 1.9998H9.4C8.07452 1.9998 7 3.07432 7 4.3998V6.0002H8.25V4.3998C8.25 3.76468 8.76487 3.2498 9.4 3.2498Z" fill="#121212"/>
</svg>
