<svg width="20" height="21" viewBox="0 0 20 21" fill="none" xmlns="http://www.w3.org/2000/svg">
<path fill-rule="evenodd" clip-rule="evenodd" d="M10.0005 2.49976C8.34363 2.49976 7.00049 3.8429 7.00049 5.49976V10.4998C7.00049 12.1566 8.34363 13.4998 10.0005 13.4998C11.6573 13.4998 13.0005 12.1566 13.0005 10.4998V5.49976C13.0005 3.8429 11.6573 2.49976 10.0005 2.49976ZM5.00049 9.74976C5.4147 9.74976 5.75049 10.0855 5.75049 10.4998C5.75049 12.9934 7.63714 14.7498 10.0005 14.7498C12.3638 14.7498 14.2505 12.9934 14.2505 10.4998C14.2505 10.0855 14.5863 9.74976 15.0005 9.74976C15.4147 9.74976 15.7505 10.0855 15.7505 10.4998C15.7505 13.5841 13.5598 15.8583 10.7505 16.204V18.4998C10.7505 18.914 10.4147 19.2498 10.0005 19.2498C9.58627 19.2498 9.25049 18.914 9.25049 18.4998V16.204C6.44117 15.8583 4.25049 13.5841 4.25049 10.4998C4.25049 10.0855 4.58627 9.74976 5.00049 9.74976Z" fill="#007AFF"/>
</svg>
