<svg width="20" height="21" viewBox="0 0 20 21" fill="none" xmlns="http://www.w3.org/2000/svg">
<path fill-rule="evenodd" clip-rule="evenodd" d="M1 7.5C1 5.29086 2.79086 3.5 5 3.5H12C14.2091 3.5 16 5.29086 16 7.5V7.64286L17.4188 6.62946C18.0806 6.15669 19 6.62982 19 7.44319V13.5568C19 14.3702 18.0806 14.8433 17.4188 14.3705L16 13.3571V13.5C16 15.7091 14.2091 17.5 12 17.5H5C2.79086 17.5 1 15.7091 1 13.5V7.5ZM10.0004 12.25C10.0004 12.6642 10.3361 13 10.7504 13C11.1646 13 11.5004 12.6642 11.5004 12.25V8.25C11.5004 7.83579 11.1646 7.5 10.7504 7.5H6.75036C6.33615 7.5 6.00036 7.83579 6.00036 8.25C6.00036 8.66421 6.33615 9 6.75036 9H8.9395L6.21969 11.7196C5.92678 12.0125 5.92677 12.4874 6.21965 12.7803C6.51253 13.0732 6.98741 13.0732 7.28031 12.7803L10.0004 10.0605V12.25Z" fill="#EB4B35"/>
</svg>
