<svg width="26" height="25" viewBox="0 0 26 25" fill="none" xmlns="http://www.w3.org/2000/svg">
<path fill-rule="evenodd" clip-rule="evenodd" d="M12.75 25C19.6536 25 25.25 19.4036 25.25 12.5C25.25 5.59644 19.6536 0 12.75 0C5.84644 0 0.25 5.59644 0.25 12.5C0.25 19.4036 5.84644 25 12.75 25ZM10.9532 9.68758L18.5375 6.31679C18.7885 6.20521 19.045 6.46173 18.9335 6.71277L15.5627 14.2971C15.3616 14.7495 14.9998 15.1113 14.5473 15.3124L6.96301 18.6832C6.71197 18.7948 6.45546 18.5383 6.56703 18.2872L9.93783 10.7029C10.1389 10.2505 10.5007 9.88868 10.9532 9.68758ZM14.2502 12.5C14.2502 13.3284 13.5787 14 12.7502 14C11.9218 14 11.2502 13.3284 11.2502 12.5C11.2502 11.6716 11.9218 11 12.7502 11C13.5787 11 14.2502 11.6716 14.2502 12.5Z" fill="#007AFF"/>
</svg>
