<svg width="24" height="24" viewBox="0 0 24 24" fill="none" xmlns="http://www.w3.org/2000/svg">
<path d="M19.5 4.5L13.5 10.5M13.5 10.5H19.5M13.5 10.5V4.5" stroke="#121212" stroke-opacity="0.28" stroke-width="1.25" stroke-linecap="round" stroke-linejoin="round"/>
<path fill-rule="evenodd" clip-rule="evenodd" d="M3.4746 4.49732C4.34043 3.75502 5.64407 3.85516 6.38637 4.72098C6.44794 4.7928 6.5045 4.86875 6.55565 4.94832L8.1213 7.38361C8.70209 8.28077 8.63035 9.44372 7.9449 10.243L7.30737 10.9554C6.76793 11.5582 6.7747 12.4775 7.32309 13.0893C7.82243 13.7858 8.37106 14.4331 8.96899 15.031L9.27206 15.3259C9.78404 15.8105 10.3302 16.2608 10.9107 16.6769C11.4919 17.1979 12.3506 17.23 12.9519 16.7694L13.0446 16.6926L13.757 16.0551C14.52 15.4008 15.6143 15.3057 16.4925 15.8035L16.6164 15.8787L19.0517 17.4444C19.1312 17.4955 19.2072 17.5521 19.279 17.6136C20.1448 18.3559 20.245 19.6596 19.5027 20.5254C17.4964 22.5317 13.0976 23.3106 7.06429 17.4111L6.82528 17.1747C0.669095 11.0185 1.44188 6.53004 3.4746 4.49732Z" fill="#121212" fill-opacity="0.28"/>
</svg>
