<svg width="24" height="24" viewBox="0 0 24 24" fill="none" xmlns="http://www.w3.org/2000/svg">
<path d="M18.792 7.84801C18.672 7.84801 18.528 7.84801 18.408 7.87201C17.472 5.08801 14.784 3.16801 11.832 3.16801C8.856 3.14401 6.24 5.01601 5.28 7.84801C2.736 7.77601 0.599998 9.86401 0.599998 12.432C0.599998 14.976 2.664 17.04 5.208 17.04H7.824C7.776 16.992 7.752 16.92 7.704 16.872C7.32 16.152 7.368 15.288 7.848 14.616L10.224 11.232C10.632 10.656 11.304 10.296 12 10.296C12.72 10.296 13.368 10.632 13.776 11.232L16.152 14.616C16.608 15.288 16.68 16.152 16.296 16.872C16.272 16.944 16.224 16.992 16.176 17.04H18.768C21.312 17.04 23.376 14.976 23.376 12.432C23.4 9.88801 21.336 7.84801 18.792 7.84801ZM11.856 6.91201C10.464 6.91201 9.24 7.82401 8.808 9.14401C8.712 9.48001 8.4 9.69601 8.064 9.69601C7.992 9.69601 7.92 9.69601 7.824 9.67201C7.416 9.55201 7.2 9.12001 7.32 8.71201C7.92 6.72001 9.744 5.37601 11.832 5.37601C12.264 5.37601 12.6 5.71201 12.6 6.14401C12.624 6.57601 12.288 6.91201 11.856 6.91201Z" fill="white"/>
<path d="M12.384 12.1921C12.192 11.9281 11.784 11.9281 11.592 12.1921L9.216 15.5761C9 15.8881 9.216 16.3201 9.6 16.3201H10.92V20.4001C10.92 20.6401 11.112 20.8561 11.376 20.8561H12.576C12.816 20.8561 13.032 20.6641 13.032 20.4001V16.3201H14.352C14.736 16.3201 14.976 15.8881 14.736 15.5761L12.384 12.1921Z" fill="white"/>
</svg>
