<svg width="21" height="21" viewBox="0 0 21 21" fill="none" xmlns="http://www.w3.org/2000/svg">
<path fill-rule="evenodd" clip-rule="evenodd" d="M9.66345 8.79054C9.78737 8.66674 9.9113 8.60483 10.0972 8.60483C10.2831 8.60483 10.407 8.66674 10.5309 8.79054C10.7787 9.03816 10.7787 9.40959 10.5309 9.65721C10.0352 10.1524 9.72541 10.8334 9.72541 11.5762C9.72541 12.3191 10.0352 13 10.5309 13.4953L14.0626 17.0238C14.5583 17.5191 15.2399 17.8286 15.9834 17.8286C16.7269 17.8286 17.4085 17.5191 17.9041 17.0238C18.9575 15.9714 18.9575 14.2381 17.9041 13.1858L16.2932 11.5762C16.0453 11.3286 16.0453 10.9572 16.2932 10.7096C16.541 10.462 16.9128 10.462 17.1606 10.7096L18.7716 12.3191C20.3206 13.8667 20.3206 16.3429 18.7716 17.8905C18.0281 18.6333 17.0367 19.0667 15.9834 19.0667C14.9301 19.0667 13.9387 18.6333 13.1952 17.8905L9.66345 14.3619C8.91993 13.6191 8.48621 12.6286 8.48621 11.5762C8.48621 10.5239 8.91993 9.5334 9.66345 8.79054ZM3.77725 2.90952C4.52077 2.10476 5.57409 1.73333 6.56545 1.73333C7.55681 1.73333 8.61013 2.16666 9.35365 2.90952L12.8854 6.43806C13.6289 7.18092 14.0626 8.17138 14.0626 9.22376C14.0626 10.2761 13.6289 11.2666 12.8854 12.0095C12.6375 12.2571 12.2658 12.2571 12.0179 12.0095C11.7701 11.7618 11.7701 11.3904 12.0179 11.1428C12.5136 10.6476 12.8234 9.96661 12.8234 9.22376C12.8234 8.48091 12.5136 7.79996 12.0179 7.30473L8.48621 3.77618C7.43289 2.7238 5.69801 2.7238 4.64469 3.77618C4.14901 4.27141 3.83921 4.95236 3.83921 5.69521C3.83921 6.43806 4.14901 7.11901 4.64469 7.61425L6.25565 9.22376C6.50349 9.47138 6.50349 9.8428 6.25565 10.0904C6.00781 10.338 5.63605 10.338 5.38821 10.0904L3.77725 8.48091C3.03373 7.73806 2.60001 6.74759 2.60001 5.69521C2.60001 4.64284 3.03373 3.65237 3.77725 2.90952Z" fill="black"/>
</svg>
