<svg width="29" height="30" viewBox="0 0 29 30" fill="none" xmlns="http://www.w3.org/2000/svg">
<rect y="0.5" width="29" height="29" rx="6" fill="#A356D7"/>
<path d="M9.96875 15C9.96875 14.2649 10.0038 13.5474 10.0667 12.8546C10.0883 12.6174 9.90316 12.4107 9.66503 12.4107H6.11011C5.93368 12.4107 5.77716 12.5261 5.73207 12.6966C5.53867 13.4281 5.4375 14.1989 5.4375 15C5.4375 15.3193 5.45794 15.6318 5.48892 15.9424C5.50901 16.1437 5.68027 16.2946 5.88257 16.2946H9.58261C9.81304 16.2946 9.99545 16.1005 9.98614 15.8702C9.97455 15.5834 9.96875 15.2946 9.96875 15ZM11.2634 15C11.2634 15.3112 11.2699 15.6159 11.2828 15.9187C11.2918 16.13 11.4672 16.2946 11.6787 16.2946H17.3342C17.5457 16.2946 17.7211 16.13 17.7301 15.9187C17.7431 15.6159 17.7496 15.3112 17.7496 15C17.7496 14.2267 17.7118 13.4817 17.6525 12.7729C17.6353 12.5674 17.4626 12.4107 17.2564 12.4107H11.7566C11.5503 12.4107 11.3776 12.5674 11.3604 12.7729C11.3011 13.4817 11.2634 14.2267 11.2634 15ZM23.2679 12.6966C23.2228 12.5261 23.0663 12.4107 22.8899 12.4107H19.335C19.0968 12.4107 18.9117 12.6174 18.9333 12.8546C18.9962 13.5474 19.0312 14.2649 19.0312 15C19.0312 15.2946 19.0255 15.5834 19.0139 15.8702C19.0045 16.1005 19.187 16.2946 19.4174 16.2946H23.1279C23.3257 16.2946 23.4949 16.1502 23.5155 15.9535C23.5485 15.6392 23.5625 15.3231 23.5625 15C23.5625 14.1989 23.4613 13.4281 23.2679 12.6966ZM16.9524 11.1161C17.2 11.1161 17.3884 10.8927 17.3408 10.6497C16.7924 7.84679 15.7277 5.9375 14.5 5.9375C13.2723 5.9375 12.2076 7.84679 11.6592 10.6497C11.6116 10.8927 11.8 11.1161 12.0476 11.1161H16.9524ZM22.0622 11.1161C22.356 11.1161 22.548 10.8103 22.4036 10.5544C21.414 8.8006 19.8541 7.40443 17.981 6.62914C17.6365 6.48654 17.331 6.88462 17.4978 7.2181C17.9871 8.19656 18.3819 9.40909 18.6469 10.7851C18.6837 10.976 18.8495 11.1161 19.0439 11.1161H22.0622ZM11.516 7.21604C11.6829 6.88291 11.378 6.48492 11.0335 6.62684C9.15323 7.40142 7.59769 8.79797 6.60003 10.5527C6.4544 10.8088 6.64635 11.1161 6.94098 11.1161H9.95819C10.1517 11.1161 10.317 10.9773 10.3546 10.7876C10.6279 9.40956 11.0254 8.19544 11.516 7.21604ZM6.34832 17.5893C6.08104 17.5893 5.88906 17.8466 5.97999 18.0979C6.84416 20.4865 8.68479 22.4025 11.0245 23.3687C11.37 23.5114 11.6773 23.1105 11.5105 22.776C10.8773 21.506 10.4056 19.8353 10.1551 17.943C10.1285 17.7417 9.95799 17.5893 9.75494 17.5893H6.34832ZM11.8381 17.5893C11.6003 17.5893 11.4147 17.7961 11.4448 18.032C11.8927 21.5444 13.083 24.0625 14.5 24.0625C15.917 24.0625 17.1073 21.5444 17.5552 18.032C17.5853 17.7961 17.3997 17.5893 17.1619 17.5893H11.8381ZM17.4905 22.7766C17.3231 23.1108 17.63 23.5114 17.9755 23.3687C20.3152 22.4025 22.1558 20.4865 23.02 18.0979C23.1109 17.8466 22.919 17.5893 22.6517 17.5893H19.2469C19.043 17.5893 18.8722 17.7428 18.8463 17.945C18.6036 19.8367 18.1263 21.5069 17.4905 22.7766Z" fill="white"/>
</svg>
