<svg width="20" height="20" viewBox="0 0 20 20" fill="none" xmlns="http://www.w3.org/2000/svg">
    <path opacity="0.9"
        d="M9.59782 16.9009C9.58461 16.8908 9.55799 16.871 9.51924 16.8421C9.2327 16.6288 8.28283 15.9218 7.18537 14.9901C5.92154 13.9173 4.51403 12.5892 3.72462 11.4253L3.7239 11.4242L3.72294 11.4228C3.16932 10.611 2.5 9.62962 2.5 8.24348C2.5 5.91006 4.35769 4.03302 6.60288 4.03302C7.74944 4.03302 8.84717 4.52471 9.6354 5.38987L10.0089 5.79984L10.3781 5.38597C11.1536 4.51666 12.2385 4.03302 13.3971 4.03302C15.6516 4.03302 17.5 5.90934 17.5 8.24348C17.5 9.60273 16.8785 10.5391 16.2986 11.3924M9.59782 16.9009C9.59866 16.9015 9.59944 16.9021 9.60017 16.9027L9.29456 17.2984L9.59688 16.9002C9.5972 16.9004 9.59751 16.9007 9.59782 16.9009ZM9.59782 16.9009C9.71537 16.9898 9.84748 17.033 10.005 17.033C10.1533 17.033 10.2889 16.9859 10.4054 16.8985L10.414 16.892L10.4141 16.8921C10.4917 16.8365 11.5608 16.0592 12.8144 14.9938C14.0781 13.92 15.4858 12.5894 16.2754 11.4253L16.2816 11.4162L16.2817 11.4162L16.2986 11.3924M16.2986 11.3924C16.2976 11.3938 16.2966 11.3953 16.2957 11.3967L16.7092 11.6778L16.3017 11.3881L16.2986 11.3924Z"
        stroke="white" />
</svg>
