<svg width="24" height="24" viewBox="0 0 24 24" fill="none" xmlns="http://www.w3.org/2000/svg">
<path d="M11.8159 8.52051C12.3472 8.61458 12.7899 8.75293 13.144 8.93555C13.4982 9.11263 13.8053 9.33398 14.0654 9.59961C14.7406 10.2692 15.1888 11.008 15.4102 11.8159C15.6315 12.6183 15.6287 13.4207 15.4019 14.2231C15.1805 15.0256 14.7378 15.7588 14.0737 16.4229L11.2349 19.27C10.5763 19.9285 9.84587 20.3685 9.04346 20.5898C8.24105 20.8167 7.43587 20.8195 6.62793 20.5981C5.82552 20.3768 5.08675 19.9285 4.41162 19.2534C3.74202 18.5838 3.29655 17.8478 3.0752 17.0454C2.85384 16.2375 2.85384 15.4323 3.0752 14.6299C3.30208 13.8275 3.74479 13.0942 4.40332 12.4302L6.84375 9.99805C6.79948 10.2692 6.79118 10.5542 6.81885 10.853C6.85205 11.1463 6.92676 11.423 7.04297 11.6831L5.41602 13.3101C4.93457 13.7915 4.61361 14.3228 4.45312 14.9038C4.29264 15.4849 4.29264 16.0687 4.45312 16.6553C4.61361 17.2363 4.93457 17.7703 5.41602 18.2573C5.89746 18.7388 6.42871 19.057 7.00977 19.2119C7.59635 19.3724 8.18018 19.3724 8.76123 19.2119C9.34229 19.0514 9.87354 18.7305 10.355 18.249L13.0693 15.543C13.5508 15.0615 13.869 14.5303 14.0239 13.9492C14.1844 13.3682 14.1844 12.7871 14.0239 12.2061C13.8634 11.6195 13.5425 11.0827 13.061 10.5957C12.7899 10.3245 12.4661 10.1087 12.0898 9.94824C11.7191 9.78776 11.2598 9.68538 10.7119 9.64111L11.8159 8.52051ZM11.6084 15.3604C11.0771 15.2663 10.6344 15.1307 10.2803 14.9536C9.92611 14.771 9.61898 14.5469 9.35889 14.2812C8.68376 13.6117 8.23551 12.8757 8.01416 12.0732C7.79281 11.2653 7.79281 10.4601 8.01416 9.65771C8.24105 8.85531 8.68652 8.12207 9.35059 7.45801L12.1812 4.61914C12.8452 3.95508 13.5785 3.51237 14.3809 3.29102C15.1833 3.06413 15.9857 3.06136 16.7881 3.28271C17.596 3.50407 18.3376 3.95231 19.0127 4.62744C19.6823 5.29704 20.1278 6.03581 20.3491 6.84375C20.5705 7.64616 20.5677 8.44857 20.3408 9.25098C20.1195 10.0534 19.6795 10.7866 19.021 11.4507L16.5806 13.8828C16.6248 13.6117 16.6304 13.3294 16.5972 13.0361C16.5695 12.7428 16.4976 12.4634 16.3813 12.1978L18.0083 10.5708C18.4897 10.0894 18.8107 9.55811 18.9712 8.97705C19.1317 8.396 19.1317 7.81494 18.9712 7.23389C18.8107 6.6473 18.4897 6.11328 18.0083 5.63184C17.5213 5.14486 16.9873 4.82389 16.4062 4.66895C15.8252 4.50846 15.2441 4.50846 14.6631 4.66895C14.082 4.82943 13.548 5.15039 13.061 5.63184L10.355 8.33789C9.87354 8.81934 9.55257 9.35059 9.39209 9.93164C9.23161 10.5127 9.23161 11.0965 9.39209 11.6831C9.55257 12.2642 9.8763 12.7982 10.3633 13.2852C10.6344 13.5563 10.9554 13.7721 11.3262 13.9326C11.7025 14.0931 12.1646 14.1955 12.7124 14.2397L11.6084 15.3604Z" fill="#007AFF"/>
</svg>
