<svg width="20" height="20" viewBox="0 0 20 20" fill="none" xmlns="http://www.w3.org/2000/svg">
<path fill-rule="evenodd" clip-rule="evenodd" d="M9.29178 8.45261C9.41093 8.33356 9.53009 8.27404 9.70882 8.27404C9.88755 8.27404 10.0067 8.33356 10.1259 8.45261C10.3642 8.6907 10.3642 9.04784 10.1259 9.28594C9.64924 9.76212 9.35136 10.4169 9.35136 11.1312C9.35136 11.8454 9.64924 12.5002 10.1259 12.9764L13.5217 16.3692C13.9984 16.8454 14.6537 17.143 15.3686 17.143C16.0836 17.143 16.7389 16.8454 17.2155 16.3692C18.2283 15.3573 18.2283 13.6907 17.2155 12.6788L15.6665 11.1312C15.4282 10.8931 15.4282 10.5359 15.6665 10.2978C15.9048 10.0597 16.2623 10.0597 16.5006 10.2978L18.0496 11.8454C19.539 13.3335 19.539 15.7145 18.0496 17.2026C17.3347 17.9168 16.3814 18.3335 15.3686 18.3335C14.3558 18.3335 13.4026 17.9168 12.6877 17.2026L9.29178 13.8097C8.57685 13.0954 8.15981 12.1431 8.15981 11.1312C8.15981 10.1193 8.57685 9.16689 9.29178 8.45261ZM3.63196 2.79777C4.34689 2.02397 5.3597 1.66683 6.31293 1.66683C7.26616 1.66683 8.27897 2.08349 8.99389 2.79777L12.3898 6.19061C13.1047 6.90489 13.5217 7.85726 13.5217 8.86916C13.5217 9.88106 13.1047 10.8334 12.3898 11.5477C12.1515 11.7858 11.794 11.7858 11.5557 11.5477C11.3174 11.3096 11.3174 10.9525 11.5557 10.7144C12.0323 10.2382 12.3302 9.58344 12.3302 8.86916C12.3302 8.15488 12.0323 7.50012 11.5557 7.02394L8.15981 3.6311C7.14701 2.6192 5.47885 2.6192 4.46604 3.6311C3.98942 4.10729 3.69154 4.76205 3.69154 5.47633C3.69154 6.19061 3.98942 6.84537 4.46604 7.32155L6.01504 8.86916C6.25335 9.10725 6.25335 9.4644 6.01504 9.70249C5.77674 9.94058 5.41927 9.94058 5.18096 9.70249L3.63196 8.15488C2.91704 7.4406 2.5 6.48823 2.5 5.47633C2.5 4.46443 2.91704 3.51205 3.63196 2.79777Z" fill="#007AFF"/>
</svg>
