<svg width="29" height="30" viewBox="0 0 29 30" fill="none" xmlns="http://www.w3.org/2000/svg">
<rect y="0.5" width="29" height="29" rx="6" fill="#F19937"/>
<path d="M14.2316 10.9716V9.45579H9.29435C7.12886 9.45579 7.08555 11.1882 7.08555 12.2709V18.854H5.52631C5.42526 19.3882 5.56096 20.4565 6.91223 20.4565H14.2316V18.854H8.55801V12.2709C8.55801 11.8378 8.60132 10.9716 10.2038 10.9716H14.2316Z" fill="white"/>
<path fill-rule="evenodd" clip-rule="evenodd" d="M16.5704 7.93994H21.4644C23.0236 7.93994 23.5 9.32586 23.5 10.0188V20.0234C23.5 20.9329 22.6771 22.059 21.4644 22.059H17.4799C16.094 22.059 14.9679 20.8896 14.9679 20.0234V10.0188C14.9679 8.67621 15.8775 7.93994 16.5704 7.93994ZM16.3972 10.2787V19.8935C16.4549 20.0811 16.709 20.4565 17.2634 20.4565H20.0785C21.4211 20.4565 22.0708 20.4565 22.0708 20.0234V10.2787C22.0708 9.75896 21.9408 9.54241 21.4644 9.54241C20.988 9.54241 20.8148 9.67234 20.7282 10.2787C20.6505 10.8221 19.9466 10.8089 19.4896 10.8003C19.4367 10.7993 19.3872 10.7984 19.3422 10.7984C19.298 10.7984 19.2483 10.7993 19.1946 10.8003C18.723 10.8089 17.9431 10.8231 17.8264 10.2787C17.6965 9.67234 17.4799 9.45579 17.2634 9.45579C17.0468 9.45579 16.3972 9.45579 16.3972 10.2787Z" fill="white"/>
</svg>
