<svg width="24" height="24" viewBox="0 0 24 24" fill="none" xmlns="http://www.w3.org/2000/svg">
    <path d="M18 15C18.6303 13.8662 19 12.4872 19 11C19 9.51275 18.6303 8.13383 18 7"
        stroke="#007AFF" stroke-width="1.5" stroke-linecap="round" />
    <path d="M6 15C5.36967 13.8662 5 12.4872 5 11C5 9.51275 5.36967 8.13383 6 7" stroke="#007AFF"
        stroke-width="1.5" stroke-linecap="round" />
    <path opacity="0.5" d="M4 18C2.73933 16.0158 2 13.6027 2 11C2 8.39732 2.73933 5.98421 4 4"
        stroke="#007AFF" stroke-width="1.5" stroke-linecap="round" />
    <path opacity="0.5" d="M20 18C21.2607 16.0158 22 13.6027 22 11C22 8.39732 21.2607 5.98421 20 4"
        stroke="#007AFF" stroke-width="1.5" stroke-linecap="round" />
    <path
        d="M7.5 4.53638C7.5 3.7016 7.70097 2.94371 8.10292 2.2627C8.51218 1.57437 9.05664 1.02517 9.7363 0.615103C10.416 0.205034 11.1687 0 11.9945 0C12.835 0 13.595 0.205034 14.2747 0.615103C14.9543 1.02517 15.4951 1.57437 15.8971 2.2627C16.299 2.94371 16.5 3.7016 16.5 4.53638C16.5 5.22471 16.3575 5.86545 16.0725 6.45858C15.7948 7.04439 15.4074 7.54966 14.9105 7.97437C14.4208 8.39176 13.8618 8.68833 13.2333 8.86407V19.2989C13.2333 20.0018 13.1894 20.6426 13.1017 21.2211C13.0213 21.7995 12.9153 22.2938 12.7838 22.7039C12.6596 23.1213 12.5244 23.4398 12.3782 23.6595C12.2393 23.8865 12.1114 24 11.9945 24C11.8776 24 11.7497 23.8865 11.6108 23.6595C11.472 23.4325 11.3368 23.1103 11.2052 22.6929C11.0737 22.2828 10.9641 21.7886 10.8764 21.2101C10.796 20.6389 10.7558 20.0018 10.7558 19.2989V8.86407C10.1273 8.68833 9.56821 8.39176 9.07856 7.97437C8.58892 7.54966 8.20158 7.04439 7.91657 6.45858C7.63886 5.86545 7.5 5.22471 7.5 4.53638ZM10.7119 4.78902C11.1358 4.78902 11.4976 4.63524 11.7972 4.32769C12.1041 4.02014 12.2576 3.65767 12.2576 3.24027C12.2576 2.82288 12.1041 2.46407 11.7972 2.16384C11.4976 1.85629 11.1358 1.70252 10.7119 1.70252C10.3027 1.70252 9.94458 1.85629 9.63764 2.16384C9.33069 2.46407 9.17722 2.82288 9.17722 3.24027C9.17722 3.65767 9.33069 4.02014 9.63764 4.32769C9.94458 4.63524 10.3027 4.78902 10.7119 4.78902Z"
        fill="#007AFF" />
</svg>
