<svg width="20" height="24" viewBox="0 0 20 24" fill="none" xmlns="http://www.w3.org/2000/svg">
    <path d="M9.99229 0C15.4778 0 20 4.46147 20 9.98131C20 12.7628 19.0082 15.3452 17.3759 17.5339C15.5751 19.9482 13.3555 22.0518 10.8571 23.7029C10.2853 24.0845 9.76926 24.1133 9.14171 23.7029C6.6291 22.0518 4.40951 19.9482 2.62412 17.5339C0.990569 15.3452 0 12.7628 0 9.98131C0 4.46147 4.52221 0 9.99229 0ZM9.99229 6.9322C8.17842 6.9322 6.69909 8.45735 6.69909 10.2921C6.69909 12.1412 8.17842 13.5956 9.99229 13.5956C11.8073 13.5956 13.3009 12.1412 13.3009 10.2921C13.3009 8.45735 11.8073 6.9322 9.99229 6.9322Z" fill="#007AFF"/>
</svg>
