<svg width="29" height="30" viewBox="0 0 29 30" fill="none" xmlns="http://www.w3.org/2000/svg">
<rect y="0.5" width="29" height="29" rx="6" fill="#EB4E3D"/>
<path d="M23.0686 15.1911L19.3034 11.4259C19.0882 11.2107 18.7202 11.3631 18.7202 11.6675V13.9317H12.5488C11.9859 13.9317 11.5295 14.5674 11.5295 15.3514C11.5295 16.1354 11.9859 16.7711 12.5488 16.7711H18.7202V19.1978C18.7202 19.5022 19.0882 19.6546 19.3034 19.4394L23.0686 15.6742C23.202 15.5408 23.202 15.3245 23.0686 15.1911Z" fill="white"/>
<path d="M15.2003 20.6117H8.07608L8.07936 9.38826H15.2003V13.3165H17.445V9.38824C17.445 8.15055 16.438 7.14355 15.2003 7.14355H8.07608C6.83838 7.14355 5.83139 8.15055 5.83139 9.38824V20.6117C5.83139 21.8494 6.83838 22.8564 8.07608 22.8564H15.2003C16.438 22.8564 17.445 21.8494 17.445 20.6117V17.3864H15.2003V20.6117ZM8.0758 9.38824L8.07608 8.2659V9.38824H8.0758Z" fill="white"/>
</svg>
