<svg width="40" height="40" viewBox="0 0 40 40" fill="none" xmlns="http://www.w3.org/2000/svg">
<rect width="40" height="40" rx="8" fill="#EB4B35"/>
<path fill-rule="evenodd" clip-rule="evenodd" d="M22.7502 12.7V16.3H28.1502C28.6783 16.294 29.1823 16.5203 29.5289 16.9188C29.8754 17.3173 30 18.3609 30 19C30 22.0982 28.7082 26.47 28.7082 26.47C28.5736 27.3575 27.8057 28.0102 26.9082 28H18C16.8954 28 16 27.1046 16 26V18.1L19.9502 10C21.4414 10 22.7502 11.2088 22.7502 12.7ZM13 18.0005C14.1046 18.0005 15 18.8959 15 20.0005V26.0001C15 27.1047 14.1046 28.0001 13 28.0001C11.8954 28.0001 11 27.1047 11 26.0001V20.0005C11 18.8959 11.8954 18.0005 13 18.0005Z" fill="white"/>
</svg>
