<svg width="40" height="40" viewBox="0 0 40 40" fill="none" xmlns="http://www.w3.org/2000/svg">
<rect width="40" height="40" rx="20" fill="url(#paint0_linear_122_1008)"/>
<rect width="40" height="40" rx="20" fill="url(#paint1_linear_122_1008)"/>
<path d="M20 19.18C23.3 16.18 25 14.64 25 12.69C25 11.19 23.75 10 22.25 10C21.39 10 20.57 10.36 20 11C19.43 10.36 18.61 10 17.69 10C16.19 10 15 11.25 15 12.75C15 14.64 16.7 16.18 20 19.18ZM19.18 20C16.18 16.7 14.64 15 12.69 15C11.19 15 10 16.25 10 17.75C10 18.61 10.36 19.43 11 20C10.36 20.57 10 21.39 10 22.31C10 23.81 11.25 25 12.75 25C14.64 25 16.18 23.3 19.18 20ZM20.83 20C23.82 23.3 25.36 25 27.31 25C28.81 25 30 23.75 30 22.25C30 21.39 29.64 20.57 29 20C29.64 19.43 30 18.61 30 17.69C30 16.19 28.75 15 27.25 15C25.36 15 23.82 16.7 20.83 20ZM20 20.82C16.7 23.82 15 25.36 15 27.31C15 28.81 16.25 30 17.75 30C18.61 30 19.43 29.64 20 29C20.57 29.64 21.39 30 22.31 30C23.81 30 25 28.75 25 27.25C25 25.36 23.3 23.82 20 20.82Z" fill="url(#paint2_linear_122_1008)"/>
<defs>
<linearGradient id="paint0_linear_122_1008" x1="6" y1="1.92225e-07" x2="33.5" y2="45.5" gradientUnits="userSpaceOnUse">
<stop stop-color="#FDFDFD"/>
<stop offset="0.0001" stop-color="#DDD5CE"/>
<stop offset="1" stop-color="#383A3F"/>
</linearGradient>
<linearGradient id="paint1_linear_122_1008" x1="35" y1="38" x2="3.5" y2="-7.5" gradientUnits="userSpaceOnUse">
<stop stop-color="#EAE3D9"/>
<stop offset="1" stop-color="#F5F7F8"/>
</linearGradient>
<linearGradient id="paint2_linear_122_1008" x1="15" y1="11.5" x2="23.5" y2="30" gradientUnits="userSpaceOnUse">
<stop stop-color="#FAAB34"/>
<stop offset="1" stop-color="#CB8010"/>
</linearGradient>
</defs>
</svg>
