<svg width="20" height="20" viewBox="0 0 20 20" fill="none" xmlns="http://www.w3.org/2000/svg">
    <path
        d="M6.25 3.78032C6.25 3.08467 6.41748 2.45309 6.75244 1.88558C7.09348 1.31198 7.5472 0.85431 8.11358 0.512586C8.67996 0.170862 9.30725 0 9.99543 0C10.6958 0 11.3292 0.170862 11.8956 0.512586C12.4619 0.85431 12.9126 1.31198 13.2476 1.88558C13.5825 2.45309 13.75 3.08467 13.75 3.78032C13.75 4.35393 13.6312 4.88787 13.3937 5.38215C13.1623 5.87033 12.8395 6.29138 12.4254 6.64531C12.0174 6.99313 11.5515 7.24027 11.0277 7.38673V16.0824C11.0277 16.6682 10.9912 17.2021 10.9181 17.6842C10.8511 18.1663 10.7628 18.5782 10.6532 18.9199C10.5496 19.2677 10.437 19.5332 10.3152 19.7162C10.1995 19.9054 10.0929 20 9.99543 20C9.89799 20 9.79141 19.9054 9.6757 19.7162C9.55999 19.5271 9.44732 19.2586 9.3377 18.9108C9.22808 18.569 9.13672 18.1571 9.06364 17.6751C8.99665 17.1991 8.96315 16.6682 8.96315 16.0824V7.38673C8.4394 7.24027 7.97351 6.99313 7.56547 6.64531C7.15743 6.29138 6.83465 5.87033 6.59714 5.38215C6.36571 4.88787 6.25 4.35393 6.25 3.78032ZM8.92661 3.99085C9.27984 3.99085 9.5813 3.8627 9.831 3.60641C10.0868 3.35011 10.2147 3.04805 10.2147 2.70023C10.2147 2.3524 10.0868 2.05339 9.831 1.8032C9.5813 1.54691 9.27984 1.41876 8.92661 1.41876C8.58557 1.41876 8.28715 1.54691 8.03136 1.8032C7.77558 2.05339 7.64769 2.3524 7.64769 2.70023C7.64769 3.04805 7.77558 3.35011 8.03136 3.60641C8.28715 3.8627 8.58557 3.99085 8.92661 3.99085Z"
        fill="white" />
</svg>
