<svg width="30" height="30" viewBox="0 0 30 30" fill="none" xmlns="http://www.w3.org/2000/svg">
<path d="M0 15C0 6.71573 6.71573 0 15 0C23.2843 0 30 6.71573 30 15C30 23.2843 23.2843 30 15 30C6.71573 30 0 23.2843 0 15Z" fill="url(#paint0_linear_2294_134042)"/>
<path fill-rule="evenodd" clip-rule="evenodd" d="M19.0909 26.2846C17.8142 26.7476 16.4366 27 15 27C10.0462 27 5.79352 23.9983 3.96155 19.7145C5.8679 19.0006 8.05687 18.6429 9.54544 18.6429C12.7227 18.6429 19.0909 20.2725 19.0909 23.5179V26.2846ZM22.1798 24.616C22.0609 24.7049 21.9404 24.7916 21.8182 24.8762V23.5179C21.8182 21.4564 20.7136 19.8825 19.1318 18.7125C19.6091 18.6707 20.0591 18.6429 20.4545 18.6429C21.9431 18.6429 24.1321 19.0006 26.0384 19.7145C25.2021 21.6701 23.8614 23.3584 22.1798 24.616ZM24.5318 11.6786C24.5318 13.9907 22.7182 15.8571 20.4545 15.8571C18.1909 15.8571 16.3636 13.9907 16.3636 11.6786C16.3636 9.36643 18.1909 7.5 20.4545 7.5C22.7182 7.5 24.5318 9.36643 24.5318 11.6786ZM13.6227 11.6786C13.6227 13.9907 11.8091 15.8571 9.54544 15.8571C7.2818 15.8571 5.45453 13.9907 5.45453 11.6786C5.45453 9.36643 7.2818 7.5 9.54544 7.5C11.8091 7.5 13.6227 9.36643 13.6227 11.6786Z" fill="white"/>
<defs>
<linearGradient id="paint0_linear_2294_134042" x1="15" y1="0" x2="15" y2="30" gradientUnits="userSpaceOnUse">
<stop stop-color="#999DA9"/>
<stop offset="1" stop-color="#878A93"/>
</linearGradient>
</defs>
</svg>
