<svg width="24" height="24" viewBox="0 0 24 24" fill="none" xmlns="http://www.w3.org/2000/svg">
<path fill-rule="evenodd" clip-rule="evenodd" d="M12.5886 7.53511C12.4512 7.36144 12.2386 7.25 12 7.25C11.8634 7.25 11.7354 7.28651 11.6251 7.35031C11.5521 7.39232 11.486 7.44676 11.43 7.5121L7.82999 11.7121C7.56042 12.0266 7.59684 12.5001 7.91133 12.7696C8.22583 13.0392 8.6993 13.0028 8.96887 12.6883L11.25 10.027L11.25 16C11.25 16.4142 11.5858 16.75 12 16.75C12.4142 16.75 12.75 16.4142 12.75 16L12.75 10.0283L15.03 12.6883C15.2996 13.0028 15.773 13.0392 16.0875 12.7696C16.402 12.5001 16.4384 12.0266 16.1689 11.7121L12.5886 7.53511Z" fill="black"/>
<circle cx="12" cy="12" r="9.25" stroke="black" stroke-width="1.5"/>
</svg>
