<svg width="24" height="24" viewBox="0 0 24 24" fill="none" xmlns="http://www.w3.org/2000/svg">
<path d="M2 22.1807C3.0858 19.8678 3.69774 19.5 5.41309 19.5C7.41309 19.5 9.5 20 9.41309 18.5C9.35781 17.546 9.47157 17.0726 9.646 16.8302C9.87028 16.5186 10.0158 16.235 9.69635 16.022L8.18116 15.012C7.85076 14.7918 7.89656 14.2928 8.26153 14.1364L10.1916 13.3092C10.6152 13.1277 10.8598 12.6803 10.7841 12.2257L10.6941 11.6855C10.5325 10.7149 11.1009 9.7708 12.0345 9.45959L12.256 9.38573C12.8546 9.18617 13.1211 8.48949 12.804 7.94397C12.0514 6.64949 11.021 4.91137 10.4134 4C10.0379 3.43675 9.94146 2.70459 9.97932 2" stroke="black" stroke-width="1.5" stroke-linecap="round"/>
<path d="M13.9131 14C14.9131 15 14.9131 17.5 13.9131 18.5" stroke="black" stroke-width="1.5" stroke-linecap="round"/>
<path d="M16.4131 12C17.7464 13 19.5 16.5 16.4131 20.5" stroke="black" stroke-width="1.5" stroke-linecap="round"/>
<path d="M18.9131 9.5C21.0798 11.5 23.4131 17 18.9131 22.5" stroke="black" stroke-width="1.5" stroke-linecap="round"/>
</svg>
