<svg width="24" height="24" viewBox="0 0 24 24" fill="none" xmlns="http://www.w3.org/2000/svg">
<path d="M5.94043 16.9209L5.94043 9.4917C5.94043 8.19124 6.21159 7.05404 6.75391 6.08008C7.29622 5.10059 8.0516 4.33968 9.02002 3.79736C9.98844 3.24951 11.1174 2.97559 12.4067 2.97559C13.6629 2.97559 14.7614 3.24674 15.7021 3.78906C16.6484 4.33138 17.3817 5.08952 17.9019 6.06348C18.4276 7.0319 18.6904 8.16634 18.6904 9.4668C18.6904 10.1475 18.6157 10.7424 18.4663 11.2515C18.3224 11.755 18.126 12.2005 17.877 12.5879C17.6279 12.9753 17.3429 13.3377 17.022 13.6753C16.7065 14.0073 16.3745 14.3421 16.0259 14.6797C15.6772 15.0173 15.3314 15.388 14.9883 15.792C14.6507 16.196 14.3381 16.6636 14.0503 17.1948L13.3032 18.5312C12.9103 19.234 12.404 19.7653 11.7842 20.125C11.1644 20.4902 10.4367 20.6729 9.60107 20.6729C8.85954 20.6729 8.21484 20.5179 7.66699 20.208C7.11914 19.9036 6.69303 19.4692 6.38867 18.9048C6.08984 18.3459 5.94043 17.6846 5.94043 16.9209ZM7.19385 16.8379C7.19385 17.6292 7.41243 18.2518 7.84961 18.7056C8.29232 19.1593 8.89551 19.3862 9.65918 19.3862C10.2292 19.3862 10.7217 19.2617 11.1367 19.0127C11.5573 18.7637 11.9142 18.3818 12.2075 17.8672L12.9297 16.6304C13.234 16.1102 13.555 15.6509 13.8926 15.2524C14.2301 14.8485 14.5649 14.4805 14.897 14.1484C15.2345 13.8109 15.5555 13.4844 15.8599 13.1689C16.1642 12.848 16.4354 12.5104 16.6733 12.1562C16.9113 11.8021 17.0967 11.4092 17.2295 10.9775C17.3678 10.5404 17.437 10.0368 17.437 9.4668C17.437 8.4209 17.2267 7.50505 16.8062 6.71924C16.3911 5.93343 15.8045 5.32194 15.0464 4.88477C14.2938 4.44759 13.4139 4.229 12.4067 4.229C11.3664 4.229 10.4533 4.44759 9.66748 4.88477C8.88721 5.32194 8.27848 5.9362 7.84131 6.72754C7.40967 7.51335 7.19385 8.43473 7.19385 9.4917L7.19385 16.8379ZM8.96191 13.7168C8.79036 13.7168 8.64372 13.6559 8.52197 13.5342C8.40023 13.4069 8.33936 13.2575 8.33936 13.0859L8.33936 9.44189C8.33936 8.66715 8.50814 7.98649 8.8457 7.3999C9.18327 6.81331 9.65641 6.35677 10.2651 6.03027C10.8794 5.70378 11.5905 5.54053 12.3984 5.54053C13.1787 5.54053 13.8594 5.70378 14.4404 6.03027C15.027 6.35677 15.4836 6.81331 15.8101 7.3999C16.1366 7.98649 16.2998 8.66715 16.2998 9.44189C16.2998 9.61344 16.2362 9.76286 16.1089 9.89014C15.9871 10.0119 15.8405 10.0728 15.6689 10.0728C15.5029 10.0728 15.3563 10.0119 15.229 9.89014C15.1073 9.76286 15.0464 9.61344 15.0464 9.44189C15.0464 8.63949 14.8057 7.99756 14.3242 7.51611C13.8428 7.03467 13.2008 6.79395 12.3984 6.79395C11.834 6.79395 11.3415 6.90462 10.9209 7.12598C10.5003 7.34733 10.1738 7.65723 9.94141 8.05566C9.70898 8.44857 9.59277 8.91064 9.59277 9.44189L9.59277 13.0859C9.59277 13.2575 9.52913 13.4069 9.40186 13.5342C9.28011 13.6559 9.13346 13.7168 8.96191 13.7168ZM8.89551 11.2515V9.99805H11.6846C12.3542 9.99805 12.8937 10.1862 13.3032 10.5625C13.7127 10.9388 13.9175 11.4313 13.9175 12.04C13.9175 12.2946 13.8649 12.5685 13.7598 12.8618C13.6602 13.1496 13.5246 13.4014 13.353 13.6172L12.2739 14.9868C12.13 15.1694 11.9585 15.2607 11.7593 15.2607C11.5877 15.2607 11.4383 15.1999 11.311 15.0781C11.1893 14.9564 11.1284 14.8097 11.1284 14.6382C11.1284 14.4777 11.1838 14.3283 11.2944 14.1899L12.2905 12.9365C12.3901 12.8148 12.4704 12.6764 12.5313 12.5215C12.5921 12.361 12.6226 12.2171 12.6226 12.0898C12.6226 11.8408 12.5396 11.6388 12.3735 11.4839C12.2075 11.3289 11.9834 11.2515 11.7012 11.2515L8.89551 11.2515Z" fill="black"/>
</svg>
