<svg width="24" height="24" viewBox="0 0 24 24" fill="none" xmlns="http://www.w3.org/2000/svg">
<path fill-rule="evenodd" clip-rule="evenodd" d="M12.0083 6.75H15.1283L13.6283 8.25H12.717C12.7156 8.5198 12.7255 8.8156 12.7504 9.12797L11.4137 10.4646C11.2676 9.66553 11.2141 8.89878 11.217 8.25H10.0001C9.58587 8.25 9.25009 7.91421 9.25009 7.5C9.25009 7.08579 9.58587 6.75 10.0001 6.75L11.9913 6.75H12.0083ZM14.9883 14.0979C14.4212 13.6784 13.9803 13.1177 13.6436 12.4773L12.5438 13.5772C12.8314 14.0497 13.1786 14.495 13.5966 14.8873C12.9868 15.1593 12.4271 15.3307 11.9477 15.4466C11.5782 15.536 11.2556 15.5928 10.9838 15.6389L10.9037 15.6523C10.8535 15.6607 10.8018 15.6694 10.7497 15.6785L10.6575 15.4634L8.87096 17.25H9.79125L11.3107 20.7954C11.4739 21.1762 11.9148 21.3525 12.2955 21.1894C12.6762 21.0262 12.8526 20.5853 12.6894 20.2046L11.3575 17.0967C11.618 17.0517 11.938 16.9923 12.3005 16.9046C13.0546 16.7221 13.9895 16.4181 15.0075 15.8603C17.7805 17.3371 20.1567 17.4336 21.1472 17.2354C21.5534 17.1542 21.8168 16.759 21.7355 16.3529C21.6543 15.9467 21.2591 15.6833 20.853 15.7646C20.3034 15.8745 18.576 15.8746 16.3777 14.866C17.2541 13.9904 17.8069 12.8459 18.1542 11.7213C18.5248 10.5212 18.6826 9.27743 18.7319 8.25H20.0001C20.4143 8.25 20.7501 7.91421 20.7501 7.5C20.7501 7.08579 20.4143 6.75 20.0001 6.75H19.371L17.1768 8.94418C17.1016 9.69093 16.961 10.5016 16.721 11.2787C16.3617 12.4419 15.8051 13.4512 14.9883 14.0979ZM8.18945 9.70456L9.38474 12.4936L8.24237 13.6359L7.50009 11.9039L5.85178 15.75H6.12832L2.78845 19.0899L6.81073 9.70456C6.92891 9.4288 7.20007 9.25 7.50009 9.25C7.80011 9.25 8.07126 9.4288 8.18945 9.70456ZM12.4698 2.96967C12.7627 2.67678 13.2375 2.67678 13.5304 2.96967L15.5304 4.96967C15.8233 5.26256 15.8233 5.73744 15.5304 6.03033C15.2375 6.32322 14.7627 6.32322 14.4698 6.03033L12.4698 4.03033C12.1769 3.73744 12.1769 3.26256 12.4698 2.96967ZM20.5304 4.53033C20.8233 4.23744 20.8233 3.76256 20.5304 3.46967C20.2375 3.17678 19.7626 3.17678 19.4697 3.46967L3.4697 19.4697C3.17681 19.7626 3.17681 20.2374 3.4697 20.5303C3.76259 20.8232 4.23747 20.8232 4.53036 20.5303L20.5304 4.53033Z" fill="black"/>
</svg>
