<svg width="24" height="24" viewBox="0 0 24 24" fill="none" xmlns="http://www.w3.org/2000/svg">
<path fill-rule="evenodd" clip-rule="evenodd" d="M9.75 5C9.75 4.58579 10.0858 4.25 10.5 4.25H13.5C13.9142 4.25 14.25 4.58579 14.25 5V5.75L9.75 5.75V5ZM15.75 5V5.75H18H19.5C19.9142 5.75 20.25 6.08579 20.25 6.5C20.25 6.91421 19.9142 7.25 19.5 7.25H18.6983L17.8808 18.6959C17.778 20.135 16.5805 21.25 15.1378 21.25H8.86224C7.41948 21.25 6.22202 20.135 6.11923 18.6959L5.30166 7.25H4.5C4.08579 7.25 3.75 6.91421 3.75 6.5C3.75 6.08579 4.08579 5.75 4.5 5.75H6H8.25V5C8.25 3.75736 9.25736 2.75 10.5 2.75L13.5 2.75C14.7426 2.75 15.75 3.75736 15.75 5ZM6.80548 7.25L17.1945 7.25L16.3846 18.5891C16.3379 19.2432 15.7936 19.75 15.1378 19.75H8.86224C8.20644 19.75 7.66214 19.2432 7.61542 18.5891L6.80548 7.25ZM15.2485 17.5468C15.2227 17.9602 14.8666 18.2744 14.4532 18.2485C14.0398 18.2227 13.7256 17.8666 13.7515 17.4532L14.2515 9.45322C14.2773 9.03981 14.6334 8.72562 15.0468 8.75146C15.4602 8.7773 15.7744 9.13338 15.7485 9.54678L15.2485 17.5468ZM12 8.75C11.5858 8.75 11.25 9.08579 11.25 9.5L11.25 17.5C11.25 17.9142 11.5858 18.25 12 18.25C12.4142 18.25 12.75 17.9142 12.75 17.5L12.75 9.5C12.75 9.08579 12.4142 8.75 12 8.75ZM8.25146 9.54678C8.22562 9.13338 8.53981 8.7773 8.95322 8.75146C9.36662 8.72562 9.7227 9.03981 9.74854 9.45322L10.2485 17.4532C10.2744 17.8666 9.96019 18.2227 9.54678 18.2485C9.13338 18.2744 8.7773 17.9602 8.75146 17.5468L8.25146 9.54678Z" fill="#EB4B35"/>
</svg>
