<svg width="24" height="24" viewBox="0 0 24 24" fill="none" xmlns="http://www.w3.org/2000/svg">
<path d="M7.56489 12C7.56489 12.5304 7.36168 13.0391 7 13.4142C6.63832 13.7893 6.14779 14 5.6363 14C5.12481 14 4.63427 13.7893 4.27259 13.4142C3.91091 13.0391 3.70773 12.5304 3.70773 12C3.70773 11.4696 3.91091 10.9609 4.27259 10.5858C4.63427 10.2107 5.12481 10 5.6363 10C6.14779 10 6.63832 10.2107 7 10.5858C7.36168 10.9609 7.56489 11.4696 7.56489 12ZM13.9284 12C13.9284 12.5304 13.7253 13.0391 13.3636 13.4142C13.0019 13.7893 12.5114 14 11.9999 14C11.4884 14 10.9979 13.7893 10.6362 13.4142C10.2745 13.0391 10.0713 12.5304 10.0713 12C10.0713 11.4696 10.2745 10.9609 10.6362 10.5858C10.9979 10.2107 11.4884 10 11.9999 10C12.5114 10 13.0019 10.2107 13.3636 10.5858C13.7253 10.9609 13.9284 11.4696 13.9284 12ZM20.2922 12C20.2922 12.5304 20.089 13.0391 19.7274 13.4142C19.3657 13.7893 18.8752 14 18.3637 14C17.8522 14 17.3616 13.7893 17 13.4142C16.6383 13.0391 16.4351 12.5304 16.4351 12C16.4351 11.4696 16.6383 10.9609 17 10.5858C17.3616 10.2107 17.8522 10 18.3637 10C18.8752 10 19.3657 10.2107 19.7274 10.5858C20.089 10.9609 20.2922 11.4696 20.2922 12Z" fill="white"/>
</svg>
