<svg width="24" height="24" viewBox="0 0 24 24" fill="none" xmlns="http://www.w3.org/2000/svg">
<path fill-rule="evenodd" clip-rule="evenodd" d="M18.8103 5.18973L18 3L17.1897 5.18973L15 6L17.1897 6.81027L18 9L18.8103 6.81027L21 6L18.8103 5.18973ZM10.2002 5.73077C10.0904 5.44535 9.81836 5.25516 9.51259 5.2501C9.20683 5.24505 8.92862 5.42614 8.80947 5.70777L3.30947 18.7078C3.14807 19.0892 3.32649 19.5293 3.70796 19.6907C4.08944 19.8521 4.52953 19.6737 4.69092 19.2922L6.61263 14.75H12.062L13.8002 19.2692C13.9489 19.6558 14.3828 19.8487 14.7694 19.7C15.156 19.5513 15.3489 19.1174 15.2002 18.7308L10.2002 5.73077ZM11.4851 13.25H7.24725L9.46707 8.00314L11.4851 13.25ZM18.75 11C18.75 10.5858 18.4142 10.25 18 10.25C17.5858 10.25 17.25 10.5858 17.25 11V19C17.25 19.4142 17.5858 19.75 18 19.75C18.4142 19.75 18.75 19.4142 18.75 19V11Z" fill="black"/>
</svg>
