<svg width="24" height="24" viewBox="0 0 24 24" fill="none" xmlns="http://www.w3.org/2000/svg">
<path fill-rule="evenodd" clip-rule="evenodd" d="M9.73443 3.01947C9.44154 2.72658 8.96666 2.72658 8.67377 3.01947C8.38088 3.31237 8.38088 3.78724 8.67377 4.08013L11.2628 6.66917C11.5557 6.96206 12.0306 6.96206 12.3235 6.66917C12.6164 6.37627 12.6164 5.9014 12.3235 5.60851L9.73443 3.01947ZM5.32031 7.97754C4.9061 7.97754 4.57031 8.31333 4.57031 8.72754C4.57031 9.14175 4.9061 9.47754 5.32031 9.47754H7.11912C7.09397 10.7048 7.22861 12.3146 7.69148 13.9048C8.15843 15.5091 8.98048 17.1605 10.3735 18.35C9.45036 18.7926 8.60451 19.0573 7.8937 19.2293C7.40766 19.3469 6.98384 19.4214 6.63081 19.4812L6.52751 19.4986L6.52748 19.4986C6.23973 19.5469 5.93817 19.5975 5.7306 19.6667C5.33765 19.7977 5.12528 20.2224 5.25626 20.6154C5.38725 21.0083 5.81199 21.2207 6.20494 21.0897C6.29573 21.0594 6.48331 21.0276 6.87835 20.9607L6.87841 20.9607L6.88147 20.9602C7.24259 20.8989 7.7081 20.8175 8.24646 20.6872C9.23389 20.4483 10.4632 20.0463 11.8008 19.2986C15.3973 21.244 18.4696 21.3611 19.707 21.1136C20.1131 21.0324 20.3765 20.6372 20.2953 20.2311C20.214 19.8249 19.8189 19.5615 19.4127 19.6428C18.6238 19.8006 16.211 19.7854 13.1907 18.3255C14.4236 17.2039 15.191 15.6619 15.6651 14.1269C16.1636 12.5125 16.3612 10.8324 16.4123 9.47754H18.2655C18.6797 9.47754 19.0155 9.14175 19.0155 8.72754C19.0155 8.31333 18.6797 7.97754 18.2655 7.97754H15.6766L7.91763 7.97754C7.91193 7.97747 7.90624 7.97747 7.90057 7.97754H5.32031ZM8.61943 9.47754C8.59415 10.5725 8.71214 12.0442 9.13171 13.4856C9.60426 15.1092 10.4327 16.6097 11.7819 17.5434C12.9622 16.6732 13.7415 15.272 14.2319 13.6843C14.6757 12.2472 14.8603 10.7269 14.9112 9.47754H8.61943Z" fill="black"/>
</svg>
