<svg width="24" height="24" viewBox="0 0 24 24" fill="none" xmlns="http://www.w3.org/2000/svg">
    <path
        d="M7.56562 12C7.56562 12.5305 7.36241 13.0392 7.00073 13.4142C6.63906 13.7893 6.14852 14 5.63703 14C5.12554 14 4.635 13.7893 4.27332 13.4142C3.91165 13.0392 3.70846 12.5305 3.70846 12C3.70846 11.4696 3.91165 10.9609 4.27332 10.5858C4.635 10.2107 5.12554 10 5.63703 10C6.14852 10 6.63906 10.2107 7.00073 10.5858C7.36241 10.9609 7.56562 11.4696 7.56562 12ZM13.9292 12C13.9292 12.5305 13.726 13.0392 13.3643 13.4142C13.0026 13.7893 12.5121 14 12.0006 14C11.4891 14 10.9986 13.7893 10.6369 13.4142C10.2752 13.0392 10.072 12.5305 10.072 12C10.072 11.4696 10.2752 10.9609 10.6369 10.5858C10.9986 10.2107 11.4891 10 12.0006 10C12.5121 10 13.0026 10.2107 13.3643 10.5858C13.726 10.9609 13.9292 11.4696 13.9292 12ZM20.293 12C20.293 12.5305 20.0898 13.0392 19.7281 13.4142C19.3664 13.7893 18.8759 14 18.3644 14C17.8529 14 17.3624 13.7893 17.0007 13.4142C16.639 13.0392 16.4358 12.5305 16.4358 12C16.4358 11.4696 16.639 10.9609 17.0007 10.5858C17.3624 10.2107 17.8529 10 18.3644 10C18.8759 10 19.3664 10.2107 19.7281 10.5858C20.0898 10.9609 20.293 11.4696 20.293 12Z"
        fill="#121212" fill-opacity="0.48" />
</svg>
