<svg width="24" height="24" viewBox="0 0 24 24" fill="none" xmlns="http://www.w3.org/2000/svg">
<path fill-rule="evenodd" clip-rule="evenodd" d="M3.99866 2H19.9987C21.0987 2 21.9987 2.9 21.9987 4V16C21.9987 17.1 21.0987 18 19.9987 18H5.99866L3.70711 20.2916C3.07695 20.9217 1.99951 20.4751 2 19.5839L2.00866 4C2.00866 2.9 2.89866 2 3.99866 2ZM8.49866 10C8.49866 9.44772 8.05094 9 7.49866 9C6.94637 9 6.49866 9.44772 6.49866 10V10.5C6.49866 11.0523 6.94637 11.5 7.49866 11.5C8.05094 11.5 8.49866 11.0523 8.49866 10.5V10ZM12.9987 10C12.9987 9.44772 12.5509 9 11.9987 9C11.4464 9 10.9987 9.44772 10.9987 10V10.5C10.9987 11.0523 11.4464 11.5 11.9987 11.5C12.5509 11.5 12.9987 11.0523 12.9987 10.5V10ZM15.9987 9C16.5509 9 16.9987 9.44772 16.9987 10V10.5C16.9987 11.0523 16.5509 11.5 15.9987 11.5C15.4464 11.5 14.9987 11.0523 14.9987 10.5V10C14.9987 9.44772 15.4464 9 15.9987 9Z" fill="#5128D4"/>
</svg>
