<svg width="24" height="24" viewBox="0 0 24 24" fill="none" xmlns="http://www.w3.org/2000/svg">
<path fill-rule="evenodd" clip-rule="evenodd" d="M4 9.22266C4.55228 9.22266 5 9.67037 5 10.2227C5 13.9396 8.10727 17.0004 12 17.0004C15.8927 17.0004 19 13.9396 19 10.2227C19 9.67037 19.4477 9.22266 20 9.22266C20.5523 9.22266 21 9.67037 21 10.2227C21 14.7638 17.4792 18.4624 13 18.9467V22.0004C13 22.5526 12.5523 23.0004 12 23.0004C11.4477 23.0004 11 22.5526 11 22.0004V18.9467C6.5208 18.4624 3 14.7638 3 10.2227C3 9.67037 3.44772 9.22266 4 9.22266Z" fill="white"/>
<path d="M12 1C9.23857 1 7 3.23858 7 6V10C7 12.7614 9.23857 15 12 15C14.7614 15 17 12.7614 17 10V6C17 3.23857 14.7614 1 12 1Z" fill="white"/>
</svg>
