<svg width="25" height="24" viewBox="0 0 25 24" fill="none" xmlns="http://www.w3.org/2000/svg">
<path fill-rule="evenodd" clip-rule="evenodd" d="M6.70703 2.95221L18.63 5.57488C18.7411 5.06965 18.451 4.45323 18.0229 4.35905C17.9508 4.34319 17.8115 4.31193 17.6307 4.27133C17.0378 4.13825 15.9979 3.9048 15.41 3.7843C15.4065 3.76414 15.4029 3.74299 15.3991 3.72098C15.3209 3.26382 15.1786 2.43291 14.7387 2.3361L11.5001 1.6237C11.1839 1.55415 10.6228 2.29776 10.3818 2.67826L7.6372 2.07453C7.19806 1.97793 6.81334 2.46893 6.70703 2.95221ZM7.01544 6.653H18.1154L16.957 19.9033C16.9028 20.5232 16.3838 20.9988 15.7616 20.9988H9.26921C8.64352 20.9988 8.12284 20.518 8.07302 19.8943L7.01544 6.653ZM9.83543 7.90487C10.0836 7.89094 10.296 8.08081 10.3099 8.32895L10.8865 18.5996C10.9004 18.8477 10.7106 19.0601 10.4624 19.0741C10.2143 19.088 10.0018 18.8981 9.98792 18.65L9.41136 8.37939C9.39743 8.13125 9.58729 7.9188 9.83543 7.90487ZM13.1289 8.35417C13.1289 8.10564 12.9274 7.90417 12.6789 7.90417C12.4304 7.90417 12.2289 8.10564 12.2289 8.35417V18.6248C12.2289 18.8733 12.4304 19.0748 12.6789 19.0748C12.9274 19.0748 13.1289 18.8733 13.1289 18.6248V8.35417ZM15.5208 7.90493C15.7689 7.91943 15.9583 8.13232 15.9438 8.38042L15.3436 18.651C15.3291 18.8991 15.1162 19.0885 14.8681 19.074C14.62 19.0595 14.4306 18.8466 14.4451 18.5985L15.0453 8.32791C15.0598 8.07981 15.2727 7.89044 15.5208 7.90493Z" fill="white"/>
</svg>
