<svg width="25" height="24" viewBox="0 0 25 24" fill="none" xmlns="http://www.w3.org/2000/svg">
<path fill-rule="evenodd" clip-rule="evenodd" d="M6.396 5.5733H18.604C18.604 5.05598 18.1883 4.51627 17.7499 4.51627C17.676 4.51627 17.5333 4.51566 17.348 4.51486C16.7404 4.51225 15.6746 4.50766 15.0745 4.51627C15.0668 4.49733 15.0587 4.47745 15.0503 4.45676C14.8756 4.02708 14.5582 3.24614 14.1078 3.24609H10.7917C10.468 3.24609 10.0798 4.09288 9.92614 4.51627H7.1159C6.66626 4.51627 6.396 5.07846 6.396 5.5733ZM7.01528 6.65352H18.1153L16.9569 19.9038C16.9027 20.5237 16.3837 20.9993 15.7614 20.9993H9.26906C8.64337 20.9993 8.12269 20.5186 8.07287 19.8949L7.01528 6.65352ZM9.83523 7.90579C10.0834 7.89186 10.2958 8.08172 10.3097 8.32986L10.8863 18.6005C10.9002 18.8486 10.7104 19.061 10.4622 19.075C10.2141 19.0889 10.0016 18.899 9.98772 18.6509L9.41116 8.3803C9.39723 8.13216 9.58709 7.91972 9.83523 7.90579ZM13.1287 8.35508C13.1287 8.10655 12.9272 7.90508 12.6787 7.90508C12.4302 7.90508 12.2287 8.10655 12.2287 8.35508V18.6257C12.2287 18.8742 12.4302 19.0757 12.6787 19.0757C12.9272 19.0757 13.1287 18.8742 13.1287 18.6257V8.35508ZM15.5206 7.90585C15.7687 7.92034 15.9581 8.13323 15.9436 8.38133L15.3434 18.6519C15.3289 18.9 15.116 19.0894 14.8679 19.0749C14.6198 19.0604 14.4304 18.8475 14.4449 18.5994L15.0451 8.32883C15.0596 8.08072 15.2725 7.89135 15.5206 7.90585Z" fill="white"/>
</svg>
