<svg width="33" height="32" viewBox="0 0 33 32" fill="none" xmlns="http://www.w3.org/2000/svg">
<path d="M16.2698 3.76239C16.3565 3.56091 16.6422 3.5609 16.729 3.7624L19.9018 11.1299L20.5906 10.8333L19.9018 11.1299C20.1551 11.7182 20.7097 12.1211 21.3475 12.1803L29.3348 12.9211C29.5533 12.9413 29.6416 13.213 29.4767 13.3578L23.4503 18.652C22.969 19.0748 22.7572 19.7267 22.8981 20.3515L24.6617 28.1769C24.71 28.3909 24.4789 28.5588 24.2902 28.4468L17.3929 24.3513C16.8421 24.0243 16.1567 24.0243 15.6059 24.3513L8.70853 28.4468C8.5199 28.5588 8.28877 28.3909 8.33701 28.1769L10.1007 20.3515C10.2415 19.7267 10.0297 19.0748 9.54849 18.652L3.522 13.3578L3.02701 13.9213L3.522 13.3578C3.35719 13.213 3.44546 12.9413 3.66391 12.9211L11.6513 12.1803C12.2891 12.1211 12.8436 11.7182 13.097 11.1299L16.2698 3.76239Z" stroke="black" stroke-width="1.5"/>
</svg>
