<svg width="24" height="24" viewBox="0 0 24 24" fill="none" xmlns="http://www.w3.org/2000/svg">
<circle cx="7" cy="7" r="4" fill="white"/>
<ellipse cx="7" cy="17" rx="4" ry="4" fill="white"/>
<ellipse cx="17" cy="7" rx="4" ry="4" fill="white"/>
<path fill-rule="evenodd" clip-rule="evenodd" d="M13.4 19.3998L13.4 13.9998C13.4 13.6684 13.6687 13.3998 14 13.3998L19.4 13.3998C19.7314 13.3998 20 13.6684 20 13.9998C20 14.3312 19.7314 14.5998 19.4 14.5998H15.4486L19.9243 19.0755C20.1586 19.3099 20.1586 19.6898 19.9243 19.9241C19.69 20.1584 19.3101 20.1584 19.0758 19.9241L14.6 15.4483L14.6 19.3998C14.6 19.7312 14.3314 19.9998 14 19.9998C13.6687 19.9998 13.4 19.7312 13.4 19.3998Z" fill="white"/>
</svg>
