<svg width="8" height="8" viewBox="0 0 8 8" fill="none" xmlns="http://www.w3.org/2000/svg">
<path d="M4.0001 1.628L7.24117 4.86963C7.28242 4.91092 7.3314 4.94368 7.38531 4.96604C7.43922 4.9884 7.497 4.99992 7.55537 4.99994C7.61373 4.99997 7.67153 4.9885 7.72546 4.96619C7.77939 4.94388 7.8284 4.91117 7.86969 4.86991C7.91097 4.82866 7.94373 4.77969 7.96609 4.72577C7.98845 4.67186 7.99997 4.61408 8 4.55571C8.00003 4.49735 7.98856 4.43955 7.96625 4.38562C7.94394 4.33169 7.91122 4.28268 7.86997 4.24139L4.31337 0.686494C4.2721 0.645174 4.22309 0.612394 4.16914 0.590029C4.11519 0.567664 4.05736 0.556152 3.99897 0.556152C3.94057 0.556152 3.88274 0.567664 3.82879 0.590029C3.77484 0.612394 3.72583 0.645174 3.68456 0.686494L0.13023 4.24083C0.0889418 4.28211 0.0561905 4.33113 0.0338456 4.38508C0.0115008 4.43902 6.15237e-10 4.49684 0 4.55523C-6.15237e-10 4.61362 0.0115008 4.67144 0.0338456 4.72538C0.0561905 4.77933 0.0889418 4.82834 0.13023 4.86963C0.171518 4.91092 0.220533 4.94367 0.274479 4.96602C0.328424 4.98836 0.386242 4.99986 0.444632 4.99986C0.503022 4.99986 0.56084 4.98836 0.614785 4.96602C0.66873 4.94367 0.717746 4.91092 0.759034 4.86963L4.0001 1.628Z" fill="white" fill-opacity="0.2"/>
<path opacity="0.4" d="M4.0001 4.628L7.24117 7.86963C7.28242 7.91092 7.3314 7.94368 7.38531 7.96604C7.43922 7.9884 7.497 7.99992 7.55537 7.99994C7.61373 7.99997 7.67153 7.9885 7.72546 7.96619C7.77939 7.94388 7.8284 7.91117 7.86969 7.86991C7.91097 7.82866 7.94373 7.77969 7.96609 7.72577C7.98845 7.67186 7.99997 7.61408 8 7.55571C8.00003 7.49735 7.98856 7.43955 7.96625 7.38562C7.94394 7.33169 7.91122 7.28268 7.86997 7.24139L4.31337 3.68649C4.2721 3.64517 4.22309 3.61239 4.16914 3.59003C4.11519 3.56766 4.05736 3.55615 3.99897 3.55615C3.94057 3.55615 3.88274 3.56766 3.82879 3.59003C3.77484 3.61239 3.72583 3.64517 3.68456 3.68649L0.13023 7.24083C0.0889418 7.28211 0.0561905 7.33113 0.0338456 7.38508C0.0115008 7.43902 6.15237e-10 7.49684 0 7.55523C-6.15237e-10 7.61362 0.0115008 7.67144 0.0338456 7.72538C0.0561905 7.77933 0.0889418 7.82834 0.13023 7.86963C0.171518 7.91092 0.220533 7.94367 0.274479 7.96602C0.328424 7.98836 0.386242 7.99986 0.444632 7.99986C0.503022 7.99986 0.56084 7.98836 0.614785 7.96602C0.66873 7.94367 0.717746 7.91092 0.759034 7.86963L4.0001 4.628Z" fill="white" fill-opacity="0.2"/>
</svg>
