<svg width="24" height="24" viewBox="0 0 24 24" fill="none" xmlns="http://www.w3.org/2000/svg">
<path fill-rule="evenodd" clip-rule="evenodd" d="M2 7C2 5.89543 2.89543 5 4 5H14C15.1046 5 16 5.89543 16 7V17C16 18.1046 15.1046 19 14 19H4C2.89543 19 2 18.1046 2 17V7ZM17 9L20.6286 7.54856C21.2855 7.28581 22 7.76957 22 8.47703V15.523C22 16.2304 21.2855 16.7142 20.6286 16.4514L17 15V9ZM4.375 14.5C4.375 14.8452 4.65482 15.125 5 15.125C5.34518 15.125 5.625 14.8452 5.625 14.5V11.1287L9.03544 14.9181C9.15397 15.0498 9.32282 15.125 9.5 15.125C9.67718 15.125 9.84603 15.0498 9.96456 14.9181L14.4646 9.9181C14.6955 9.66153 14.6747 9.26635 14.4181 9.03544C14.1615 8.80453 13.7664 8.82533 13.5354 9.0819L9.5 13.5657L6.40335 10.125H9.5C9.84518 10.125 10.125 9.84518 10.125 9.5C10.125 9.15482 9.84518 8.875 9.5 8.875L5 8.875C4.65482 8.875 4.375 9.15482 4.375 9.5V14.5Z" fill="#EB4B35"/>
</svg>
