<svg width="24" height="24" viewBox="0 0 24 24" fill="none" xmlns="http://www.w3.org/2000/svg">
<path d="M6.2 4.7L12 10.5L18 4.5M6.2 4.7L6 10.5M6.2 4.7L12 4.5" stroke="#EB4B35" stroke-width="1.25" stroke-linecap="round" stroke-linejoin="round"/>
<path fill-rule="evenodd" clip-rule="evenodd" d="M22.5 19.3178C22.4191 20.3209 21.4995 21.0716 20.446 20.9946C20.3586 20.9882 20.2718 20.9761 20.1862 20.9583L17.5651 20.4159C16.5969 20.2185 15.8821 19.4484 15.8075 18.5222L15.7585 17.6802C15.717 16.9677 15.1103 16.3985 14.3502 16.3589C13.5668 16.2359 12.7834 16.1744 12 16.1744L11.6083 16.1795C10.9555 16.1966 10.3026 16.2564 9.64976 16.3589C8.92769 16.3965 8.34409 16.9121 8.25196 17.5744L8.24154 17.6802L8.19249 18.5222C8.12131 19.4063 7.46673 20.1482 6.56528 20.3855L6.43486 20.4159L3.81385 20.9583C3.72821 20.9761 3.6414 20.9882 3.55402 20.9946C2.50054 21.0716 1.58092 20.3209 1.5 19.3178C1.5 16.8148 3.87135 13.5851 11.6886 13.5017L12 13.5C20.0658 13.5 22.5 16.7819 22.5 19.3178Z" fill="#EB4B35"/>
</svg>
