<svg width="24" height="24" viewBox="0 0 24 24" fill="none" xmlns="http://www.w3.org/2000/svg">
<path fill-rule="evenodd" clip-rule="evenodd" d="M8.49286 19.7452L8.49127 19.7444C8.08249 19.5595 7.67433 19.5159 7.34391 19.5159C6.51795 19.5159 5.53327 19.8183 4.82857 20.0348L4.71322 20.0702C4.26475 20.2074 3.90173 20.3144 3.61022 20.3869C3.6889 20.0232 3.80191 19.6001 3.93043 19.1231L3.94016 19.087C4.08237 18.5594 4.24359 17.9612 4.34 17.4336C4.38975 17.1613 4.43138 16.8612 4.43733 16.5661C4.44276 16.2964 4.42352 15.8849 4.24053 15.4757L4.23957 15.4736C3.76414 14.4151 3.5 13.2416 3.5 12C3.5 7.30462 7.30462 3.5 12 3.5C15.6579 3.5 18.7783 5.81241 19.9763 9.05622C20.6963 9.46934 21.3459 9.99122 21.9027 10.5995C21.2213 5.73898 17.0453 2 12 2C6.47619 2 2 6.47619 2 12C2 13.4568 2.31041 14.8395 2.87125 16.0882C3.07313 16.5395 2.7809 17.624 2.4821 18.7328C2.13873 20.007 1.78669 21.3135 2.16578 21.7284C2.33862 21.9189 2.61023 21.9965 2.9418 21.9965C3.54454 21.9965 4.34923 21.7502 5.15215 21.5045C5.95152 21.2599 6.74912 21.0159 7.34391 21.0159C7.5485 21.0159 7.72487 21.0441 7.87302 21.1111C8.72538 21.4979 9.64078 21.7683 10.5995 21.9027C9.99139 21.346 9.46961 20.6966 9.05653 19.9768C8.86531 19.9062 8.67733 19.8289 8.49286 19.7452ZM3.50285 21.1531L3.50265 21.1502C3.50532 21.1676 3.50412 21.1701 3.50285 21.1531Z" fill="#2C2C2C"/>
<path d="M18.1663 20.7837L18.1671 20.7833C18.3863 20.6842 18.608 20.6595 18.7937 20.6595C19.2657 20.6595 19.8364 20.8347 20.2652 20.9662C20.2866 20.9728 20.3076 20.9792 20.3282 20.9856C20.7121 21.103 21.0062 21.1887 21.2238 21.2265C21.18 20.9562 21.0903 20.6198 20.9866 20.2348L20.9815 20.2162C20.8956 19.8974 20.8003 19.5436 20.7436 19.2332C20.7144 19.0737 20.6909 18.9024 20.6876 18.7366C20.6845 18.5836 20.6961 18.3625 20.7926 18.1467L20.7931 18.1456C21.0869 17.4915 21.25 16.7665 21.25 16C21.25 13.0999 18.9001 10.75 16 10.75C13.1019 10.75 10.75 13.1001 10.75 16C10.75 18.9001 13.0999 21.25 16 21.25C16.7736 21.25 17.5062 21.0832 18.1663 20.7837ZM21.2461 21.5175C21.2462 21.5177 21.2468 21.515 21.2474 21.5091C21.2463 21.5144 21.246 21.5174 21.2461 21.5175Z" stroke="#2C2C2C" stroke-width="1.5"/>
</svg>
