<svg width="24" height="24" viewBox="0 0 24 24" fill="none" xmlns="http://www.w3.org/2000/svg">
<path d="M4.69507 2.73169L22.3048 20.3414" stroke="white" stroke-width="1.5" stroke-linecap="round"/>
<path fill-rule="evenodd" clip-rule="evenodd" d="M9.93932 6.99998H8.06064L9.56064 8.49998H11H11.4393L9.93932 6.99998ZM16.5 11.4393V4.91476L12.694 7.63334L11.6187 6.55805L16.4188 3.12944C17.0806 2.65667 18 3.1298 18 3.94317V12.9393L16.5 11.4393ZM16.5 13.5607V15.4393L18 16.9393V15.0607L16.5 13.5607ZM5 9.99998C5 8.93106 5.55904 7.99271 6.4007 7.46136L7.51833 8.57899C6.92618 8.77964 6.5 9.34004 6.5 9.99998V14C6.5 14.8284 7.17157 15.5 8 15.5H11H11.4807L11.8719 15.7794L16.5 19.0852V17.5607L18 19.0607V20.0568C18 20.8702 17.0806 21.3433 16.4188 20.8705L11 17H8C6.34315 17 5 15.6568 5 14V9.99998Z" fill="white"/>
</svg>
