<svg width="29" height="30" viewBox="0 0 29 30" fill="none" xmlns="http://www.w3.org/2000/svg">
<rect y="0.5" width="29" height="29" rx="6" fill="#3478F6"/>
<path fill-rule="evenodd" clip-rule="evenodd" d="M5.5 10C5.5 8.34315 6.84315 7 8.5 7H20.5C21.9592 7 23.175 8.04173 23.4444 9.42204C23.3686 9.52747 23.2811 9.63724 23.1828 9.74522C23.0239 9.91988 22.8641 10.059 22.7228 10.1492C22.6533 10.1936 22.597 10.2206 22.5553 10.2355C22.5178 10.249 22.5001 10.25 22.4995 10.25H22.4953H22.4905H22.4857H22.4808H22.4759H22.4709H22.4659H22.4608H22.4556H22.4504H22.4452H22.4398H22.4345H22.4291H22.4236H22.4181H22.4125H22.4069H22.4012H22.3955H22.3897H22.3839H22.378H22.3721H22.3661H22.3601H22.354H22.3479H22.3417H22.3355H22.3292H22.3229H22.3165H22.3101H22.3036H22.2971H22.2905H22.2839H22.2772H22.2705H22.2637H22.2569H22.2501H22.2432H22.2362H22.2292H22.2222H22.2151H22.208H22.2008H22.1936H22.1863H22.179H22.1716H22.1642H22.1567H22.1492H22.1417H22.1341H22.1265H22.1188H22.1111H22.1033H22.0955H22.0877H22.0798H22.0718H22.0639H22.0558H22.0478H22.0397H22.0315H22.0233H22.0151H22.0068H21.9985H21.9902H21.9818H21.9733H21.9649H21.9563H21.9478H21.9392H21.9306H21.9219H21.9132H21.9044H21.8956H21.8868H21.8779H21.869H21.8601H21.8511H21.8421H21.833H21.8239H21.8148H21.8056H21.7964H21.7871H21.7779H21.7685H21.7592H21.7498H21.7404H21.7309H21.7214H21.7119H21.7023H21.6927H21.6831H21.6734H21.6637H21.6539H21.6442H21.6344H21.6245H21.6146H21.6047H21.5948H21.5848H21.5748H21.5648H21.5547H21.5446H21.5344H21.5243H21.5141H21.5038H21.4936H21.4833H21.4729H21.4626H21.4522H21.4418H21.4313H21.4209H21.4103H21.3998H21.3892H21.3786H21.368H21.3574H21.3467H21.336H21.3252H21.3145H21.3037H21.2928H21.282H21.2711H21.2602H21.2493H21.2383H21.2273H21.2163H21.2053H21.1942H21.1831H21.172H21.1609H21.1497H21.1385H21.1273H21.116H21.1048H21.0935H21.0821H21.0708H21.0594H21.0481H21.0366H21.0252H21.0137H21.0023H20.9908H20.9792H20.9677H20.9561H20.9445H20.9329H20.9213H20.9096H20.8979H20.8862H20.8745H20.8627H20.851H20.8392H20.8274H20.8156H20.8037H20.7918H20.78H20.7681H20.7561H20.7442H20.7322H20.7202H20.7082H20.6962H20.6842H20.6721H20.6601H20.648H20.6359H20.6238H20.6116H20.5995H20.5873H20.5751H20.5629H20.5507H20.5384H20.5262H20.5139H20.5016H20.4893H20.477H20.4647H20.4523H20.44H20.4276H20.4152H20.4028H20.3904H20.378H20.3655H20.3531H20.3406H20.3281H20.3156H20.3031H20.2906H20.2781H20.2655H20.253H20.2404H20.2278H20.2153H20.2027H20.19H20.1774H20.1648H20.1522H20.1395H20.1269H20.1142H20.1015H20.0888H20.0761H20.0634H20.0507H20.038H20.0252H20.0125H19.9998H19.987H19.9742H19.9615H19.9487H19.9359H19.9231H19.9103H19.8975H19.8847H19.8719H19.859H19.8462H19.8334H19.8205H19.8077H19.7948H19.782H19.7691H19.7563H19.7434H19.7305H19.7176H19.7048H19.6919H19.679H19.6661H19.6532H19.6403H19.6274H19.6145H19.6016H19.5887H19.5758H19.5629H19.5499H19.537H19.5241H19.5112H19.4983H19.4854H19.4724H19.4595H19.4466H19.4337H19.4208H19.4078H19.3949H19.382H19.3691H19.3562H19.3433H19.3304H19.3174H19.3045H19.2916H19.2787H19.2658H19.2529H19.24H19.2271H19.2142H19.2014H19.1885H19.1756H19.1627H19.1498H19.137H19.1241H19.1113H19.0984H19.0856H19.0727H19.0599H19.047H19.0342H19.0214H19.0086H18.9958H18.983H18.9702H18.9574H18.9446H18.9318H18.9191H18.9063H18.8936H18.8808H18.8681H18.8554H18.8426H18.8299H18.8172H18.8045H18.7918H18.7792H18.7665H18.7539H18.7412H18.7286H18.716H18.7033H18.6907H18.6781H18.6656H18.653H18.6404H18.6279H18.6154H18.6028H18.5903H18.5778H18.5653H18.5529H18.5404H18.528H18.5155H18.5031H18.4907H18.4783H18.4659H18.4536H18.4412H18.4289H18.4166H18.4043H18.392H18.3797H18.3674H18.3552H18.343H18.3307H18.3185H18.3064H18.2942H18.2821H18.2699H18.2578H18.2457H18.2336H18.2216H18.2095H18.1975H18.1855H18.1735H18.1615H18.1496H18.1377H18.1257H18.1139H18.102H18.0901H18.0783H18.0665H18.0547H18.0429H18.0312H18.0194H18.0077H17.996H17.9844H17.9727H17.9611H17.9495H17.9379H17.9263H17.9148H17.9033H17.8918H17.8803H17.8689H17.8574H17.8461H17.8347H17.8233H17.812H17.8007H17.7894H17.7782H17.7669H17.7557H17.7445H17.7334H17.7223H17.7112H17.7001H17.689H17.678H17.667H17.656H17.6451H17.6342H17.6233H17.6124H17.6016H17.5908H17.58H17.5693H17.5585H17.5478H17.5372H17.5265H17.5159H17.5053H17.4948H17.4843H17.4738H17.4633H17.4529H17.4425H17.4321H17.4218H17.4115H17.4012H17.391H17.3807H17.3706H17.3604H17.3503H17.3402H17.3301H17.3201H17.3101H17.3002H17.2902H17.2804H17.2705H17.2607H17.2509H17.2411H17.2314H17.2217H17.2121H17.2024H17.1929H17.1833H17.1738H17.1643H17.1549H17.1455H17.1361H17.1268H17.1175H17.1082H17.099H17.0898H17.0807H17.0715H17.0625H17.0534H17.0444H17.0355H17.0265H17.0177H17.0088H17C16.5826 10.25 15.9505 10.3394 15.3936 10.6401C14.8043 10.9583 14.25 11.5532 14.25 12.5V12.507V12.5141V12.5212V12.5284V12.5356V12.5428V12.55V12.5573V12.5646V12.5719V12.5793V12.5867V12.5941V12.6016V12.6091V12.6166V12.6242V12.6318V12.6394V12.647V12.6547V12.6624V12.6701V12.6779V12.6857V12.6935V12.7014V12.7093V12.7172V12.7251V12.7331V12.7411V12.7491V12.7572V12.7653V12.7734V12.7815V12.7897V12.7979V12.8061V12.8144V12.8226V12.831V12.8393V12.8477V12.856V12.8645V12.8729V12.8814V12.8899V12.8984V12.9069V12.9155V12.9241V12.9327V12.9414V12.9501V12.9588V12.9675V12.9763V12.985V12.9938V13.0027V13.0115V13.0204V13.0293V13.0382V13.0472V13.0562V13.0652V13.0742V13.0832V13.0923V13.1014V13.1105V13.1196V13.1288V13.138V13.1472V13.1564V13.1657V13.1749V13.1842V13.1936V13.2029V13.2123V13.2216V13.2311V13.2405V13.2499V13.2594V13.2689V13.2784V13.2879V13.2975V13.3071V13.3166V13.3263V13.3359V13.3456V13.3552V13.3649V13.3746V13.3844V13.3941V13.4039V13.4137V13.4235V13.4333V13.4432V13.453V13.4629V13.4728V13.4827V13.4927V13.5026V13.5126V13.5226V13.5326V13.5426V13.5527V13.5627V13.5728V13.5829V13.593V13.6031V13.6133V13.6234V13.6336V13.6438V13.654V13.6642V13.6745V13.6847V13.695V13.7053V13.7156V13.7259V13.7362V13.7466V13.7569V13.7673V13.7777V13.7881V13.7985V13.809V13.8194V13.8299V13.8403V13.8508V13.8613V13.8719V13.8824V13.8929V13.9035V13.914V13.9246V13.9352V13.9458V13.9564V13.967V13.9777V13.9883V13.999V14.0097V14.0204V14.0311V14.0418V14.0525V14.0632V14.074V14.0847V14.0955V14.1062V14.117V14.1278V14.1386V14.1494V14.1602V14.1711V14.1819V14.1928V14.2036V14.2145V14.2254V14.2363V14.2472V14.2581V14.269V14.2799V14.2908V14.3018V14.3127V14.3237V14.3346V14.3456V14.3566V14.3675V14.3785V14.3895V14.4005V14.4115V14.4226V14.4336V14.4446V14.4556V14.4667V14.4777V14.4888V14.4998V14.5109V14.522V14.5331V14.5441V14.5552V14.5663V14.5774V14.5885V14.5996V14.6107V14.6218V14.633V14.6441V14.6552V14.6663V14.6775V14.6886V14.6997V14.7109V14.722V14.7332V14.7443V14.7555V14.7666V14.7778V14.789V14.8001V14.8113V14.8225V14.8336V14.8448V14.856V14.8672V14.8783V14.8895V14.9007V14.9119V14.923V14.9342V14.9454V14.9566V14.9678V14.979V14.9901V15.0013V15.0125V15.0237V15.0349V15.046V15.0572V15.0684V15.0796V15.0908V15.1019V15.1131V15.1243V15.1354V15.1466V15.1578V15.1689V15.1801V15.1913V15.2024V15.2136V15.2247V15.2359V15.247V15.2582V15.2693V15.2805V15.2916V15.3027V15.3138V15.325V15.3361V15.3472V15.3583V15.3694V15.3805V15.3916V15.4027V15.4138V15.4249V15.4359V15.447V15.4581V15.4691V15.4802V15.4912V15.5023V15.5133V15.5243V15.5354V15.5464V15.5574V15.5684V15.5794V15.5904V15.6014V15.6124V15.6233V15.6343V15.6452V15.6562V15.6671V15.678V15.689V15.6999V15.7108V15.7217V15.7326V15.7434V15.7543V15.7652V15.776V15.7869V15.7977V15.8085V15.8193V15.8301V15.8409V15.8517V15.8625V15.8733V15.884V15.8947V15.9055V15.9162V15.9269V15.9376V15.9483V15.959V15.9696V15.9803V15.9909V16.0016V16.0122V16.0228V16.0334V16.0439V16.0545V16.0651V16.0756V16.0861V16.0966V16.1072V16.1176V16.1281V16.1386V16.149V16.1595V16.1699V16.1803V16.1907V16.2011V16.2114V16.2218V16.2321V16.2424V16.2527V16.263V16.2733V16.2835V16.2938V16.304V16.3142V16.3244V16.3346V16.3447V16.3549V16.365V16.3751V16.3852V16.3953V16.4054V16.4154V16.4254V16.4355V16.4455V16.4554V16.4654V16.4753V16.4852V16.4951V16.505V16.5149V16.5248V16.5346V16.5444V16.5542V16.564V16.5737V16.5834V16.5932V16.6029V16.6125V16.6222V16.6318V16.6414V16.651V16.6606V16.6702V16.6797V16.6892V16.6987V16.7082V16.7176V16.7271V16.7365V16.7459V16.7552V16.7646V16.7739V16.7832V16.7925V16.8017V16.8109V16.8202V16.8293V16.8385V16.8476V16.8568V16.8659V16.8749V16.884V16.893V16.902V16.911V16.9199V16.9289V16.9378V16.9467V16.9555V16.9643V16.9731V16.9819V16.9907V16.9994V17.0081V17.0168V17.0255V17.0341V17.0427V17.0513V17.0598V17.0683V17.0768V17.0853V17.0938V17.1022V17.1106V17.1189V17.1273V17.1356V17.1439V17.1521V17.1604V17.1686V17.1767V17.1849V17.193V17.2011V17.2092V17.2172V17.2252V17.2332V17.2411V17.249V17.2569V17.2648V17.2726V17.2804V17.2882V17.2959V17.3036V17.3113V17.3189V17.3266V17.3342V17.3417V17.3492V17.3567V17.3642V17.3716V17.379V17.3864V17.3938V17.4011V17.4083V17.4156V17.4228V17.43V17.4371V17.4442V17.4513V17.4584V17.4654V17.4724V17.4793V17.4863V17.4931V17.5C14.25 17.9232 14.4114 18.4907 14.859 18.9569C15.3248 19.4421 16.0339 19.75 17 19.75H17.0094H17.0188H17.0283H17.0377H17.0472H17.0568H17.0663H17.0759H17.0856H17.0952H17.1049H17.1146H17.1243H17.1341H17.1439H17.1537H17.1636H17.1734H17.1833H17.1933H17.2032H17.2132H17.2232H17.2332H17.2433H17.2534H17.2635H17.2736H17.2838H17.294H17.3042H17.3145H17.3247H17.335H17.3453H17.3557H17.366H17.3764H17.3868H17.3973H17.4077H17.4182H17.4287H17.4393H17.4498H17.4604H17.471H17.4816H17.4923H17.503H17.5137H17.5244H17.5351H17.5459H17.5567H17.5675H17.5783H17.5891H17.6H17.6109H17.6218H17.6328H17.6437H17.6547H17.6657H17.6767H17.6877H17.6988H17.7099H17.721H17.7321H17.7432H17.7544H17.7656H17.7768H17.788H17.7992H17.8104H17.8217H17.833H17.8443H17.8556H17.867H17.8783H17.8897H17.9011H17.9125H17.924H17.9354H17.9469H17.9584H17.9699H17.9814H17.9929H18.0045H18.016H18.0276H18.0392H18.0508H18.0624H18.0741H18.0857H18.0974H18.1091H18.1208H18.1325H18.1442H18.156H18.1678H18.1795H18.1913H18.2031H18.2149H18.2268H18.2386H18.2505H18.2623H18.2742H18.2861H18.298H18.31H18.3219H18.3338H18.3458H18.3578H18.3697H18.3817H18.3938H18.4058H18.4178H18.4298H18.4419H18.4539H18.466H18.4781H18.4902H18.5023H18.5144H18.5265H18.5387H18.5508H18.563H18.5751H18.5873H18.5995H18.6117H18.6239H18.6361H18.6483H18.6605H18.6728H18.685H18.6972H18.7095H18.7218H18.734H18.7463H18.7586H18.7709H18.7832H18.7955H18.8078H18.8201H18.8325H18.8448H18.8571H18.8695H18.8818H18.8942H18.9066H18.9189H18.9313H18.9437H18.9561H18.9685H18.9809H18.9933H19.0057H19.0181H19.0305H19.0429H19.0553H19.0677H19.0802H19.0926H19.105H19.1175H19.1299H19.1423H19.1548H19.1672H19.1797H19.1921H19.2046H19.2171H19.2295H19.242H19.2544H19.2669H19.2794H19.2918H19.3043H19.3168H19.3292H19.3417H19.3542H19.3666H19.3791H19.3916H19.404H19.4165H19.429H19.4414H19.4539H19.4664H19.4788H19.4913H19.5038H19.5162H19.5287H19.5412H19.5536H19.5661H19.5785H19.591H19.6034H19.6159H19.6283H19.6407H19.6532H19.6656H19.678H19.6905H19.7029H19.7153H19.7277H19.7401H19.7525H19.7649H19.7773H19.7897H19.8021H19.8145H19.8269H19.8393H19.8516H19.864H19.8764H19.8887H19.9011H19.9134H19.9257H19.9381H19.9504H19.9627H19.975H19.9873H19.9996H20.0119H20.0242H20.0364H20.0487H20.061H20.0732H20.0854H20.0977H20.1099H20.1221H20.1343H20.1465H20.1587H20.1709H20.1831H20.1952H20.2074H20.2195H20.2317H20.2438H20.2559H20.268H20.2801H20.2922H20.3043H20.3163H20.3284H20.3404H20.3524H20.3645H20.3765H20.3885H20.4004H20.4124H20.4244H20.4363H20.4482H20.4602H20.4721H20.484H20.4959H20.5077H20.5196H20.5314H20.5433H20.5551H20.5669H20.5787H20.5904H20.6022H20.614H20.6257H20.6374H20.6491H20.6608H20.6725H20.6841H20.6958H20.7074H20.719H20.7306H20.7422H20.7538H20.7653H20.7768H20.7883H20.7998H20.8113H20.8228H20.8342H20.8457H20.8571H20.8685H20.8799H20.8912H20.9026H20.9139H20.9252H20.9365H20.9478H20.959H20.9702H20.9815H20.9926H21.0038H21.015H21.0261H21.0372H21.0483H21.0594H21.0705H21.0815H21.0925H21.1035H21.1145H21.1254H21.1364H21.1473H21.1582H21.1691H21.1799H21.1907H21.2015H21.2123H21.2231H21.2338H21.2445H21.2552H21.2659H21.2766H21.2872H21.2978H21.3084H21.3189H21.3295H21.34H21.3505H21.3609H21.3714H21.3818H21.3922H21.4025H21.4129H21.4232H21.4335H21.4438H21.454H21.4642H21.4744H21.4846H21.4947H21.5048H21.5149H21.525H21.535H21.545H21.555H21.5649H21.5749H21.5848H21.5946H21.6045H21.6143H21.6241H21.6339H21.6436H21.6533H21.663H21.6726H21.6823H21.6919H21.7014H21.711H21.7205H21.7299H21.7394H21.7488H21.7582H21.7676H21.7769H21.7862H21.7955H21.8047H21.8139H21.8231H21.8322H21.8414H21.8504H21.8595H21.8685H21.8775H21.8865H21.8954H21.9043H21.9132H21.922H21.9308H21.9396H21.9483H21.957H21.9657H21.9743H21.9829H21.9915H22H22.0085H22.017H22.0254H22.0338H22.0422H22.0505H22.0588H22.0671H22.0753H22.0835H22.0917H22.0998H22.1079H22.1159H22.1239H22.1319H22.1399H22.1478H22.1557H22.1635H22.1713H22.1791H22.1868H22.1945H22.2021H22.2097H22.2173H22.2249H22.2324H22.2398H22.2473H22.2546H22.262H22.2693H22.2766H22.2838H22.291H22.2982H22.3053H22.3124H22.3194H22.3264H22.3334H22.3403H22.3472H22.354H22.3608H22.3676H22.3743H22.381H22.3876H22.3942H22.4008H22.4073H22.4138H22.4202H22.4266H22.4329H22.4393H22.4455H22.4517H22.4579H22.4641H22.4702H22.4762H22.4822H22.4882H22.4941H22.5C22.9865 19.75 23.3143 19.8554 23.5 19.9842V20C23.5 21.6569 22.1569 23 20.5 23H8.5C6.84315 23 5.5 21.6569 5.5 20V10ZM22.5 11.75C22.885 11.75 23.2303 11.5999 23.5 11.4324V18.3696C23.1801 18.2863 22.8407 18.25 22.5 18.25H22.4941H22.4882H22.4822H22.4762H22.4702H22.4641H22.4579H22.4517H22.4455H22.4393H22.4329H22.4266H22.4202H22.4138H22.4073H22.4008H22.3942H22.3876H22.381H22.3743H22.3676H22.3608H22.354H22.3472H22.3403H22.3334H22.3264H22.3194H22.3124H22.3053H22.2982H22.291H22.2838H22.2766H22.2693H22.262H22.2546H22.2473H22.2398H22.2324H22.2249H22.2173H22.2097H22.2021H22.1945H22.1868H22.1791H22.1713H22.1635H22.1557H22.1478H22.1399H22.1319H22.1239H22.1159H22.1079H22.0998H22.0917H22.0835H22.0753H22.0671H22.0588H22.0505H22.0422H22.0338H22.0254H22.017H22.0085H22H21.9915H21.9829H21.9743H21.9657H21.957H21.9483H21.9396H21.9308H21.922H21.9132H21.9043H21.8954H21.8865H21.8775H21.8685H21.8595H21.8504H21.8414H21.8322H21.8231H21.8139H21.8047H21.7955H21.7862H21.7769H21.7676H21.7582H21.7488H21.7394H21.7299H21.7205H21.711H21.7014H21.6919H21.6823H21.6726H21.663H21.6533H21.6436H21.6339H21.6241H21.6143H21.6045H21.5946H21.5848H21.5749H21.5649H21.555H21.545H21.535H21.525H21.5149H21.5048H21.4947H21.4846H21.4744H21.4642H21.454H21.4438H21.4335H21.4232H21.4129H21.4025H21.3922H21.3818H21.3714H21.3609H21.3505H21.34H21.3295H21.3189H21.3084H21.2978H21.2872H21.2766H21.2659H21.2552H21.2445H21.2338H21.2231H21.2123H21.2015H21.1907H21.1799H21.1691H21.1582H21.1473H21.1364H21.1254H21.1145H21.1035H21.0925H21.0815H21.0705H21.0594H21.0483H21.0372H21.0261H21.015H21.0038H20.9926H20.9815H20.9702H20.959H20.9478H20.9365H20.9252H20.9139H20.9026H20.8912H20.8799H20.8685H20.8571H20.8457H20.8342H20.8228H20.8113H20.7998H20.7883H20.7768H20.7653H20.7538H20.7422H20.7306H20.719H20.7074H20.6958H20.6841H20.6725H20.6608H20.6491H20.6374H20.6257H20.614H20.6022H20.5904H20.5787H20.5669H20.5551H20.5433H20.5314H20.5196H20.5077H20.4959H20.484H20.4721H20.4602H20.4482H20.4363H20.4244H20.4124H20.4004H20.3885H20.3765H20.3645H20.3524H20.3404H20.3284H20.3163H20.3043H20.2922H20.2801H20.268H20.2559H20.2438H20.2317H20.2195H20.2074H20.1952H20.1831H20.1709H20.1587H20.1465H20.1343H20.1221H20.1099H20.0977H20.0854H20.0732H20.061H20.0487H20.0364H20.0242H20.0119H19.9996H19.9873H19.975H19.9627H19.9504H19.9381H19.9257H19.9134H19.9011H19.8887H19.8764H19.864H19.8516H19.8393H19.8269H19.8145H19.8021H19.7897H19.7773H19.7649H19.7525H19.7401H19.7277H19.7153H19.7029H19.6905H19.678H19.6656H19.6532H19.6407H19.6283H19.6159H19.6034H19.591H19.5785H19.5661H19.5536H19.5412H19.5287H19.5162H19.5038H19.4913H19.4788H19.4664H19.4539H19.4414H19.429H19.4165H19.404H19.3916H19.3791H19.3666H19.3542H19.3417H19.3292H19.3168H19.3043H19.2918H19.2794H19.2669H19.2544H19.242H19.2295H19.2171H19.2046H19.1921H19.1797H19.1672H19.1548H19.1423H19.1299H19.1175H19.105H19.0926H19.0802H19.0677H19.0553H19.0429H19.0305H19.0181H19.0057H18.9933H18.9809H18.9685H18.9561H18.9437H18.9313H18.9189H18.9066H18.8942H18.8818H18.8695H18.8571H18.8448H18.8325H18.8201H18.8078H18.7955H18.7832H18.7709H18.7586H18.7463H18.734H18.7218H18.7095H18.6972H18.685H18.6728H18.6605H18.6483H18.6361H18.6239H18.6117H18.5995H18.5873H18.5751H18.563H18.5508H18.5387H18.5265H18.5144H18.5023H18.4902H18.4781H18.466H18.4539H18.4419H18.4298H18.4178H18.4058H18.3938H18.3817H18.3697H18.3578H18.3458H18.3338H18.3219H18.31H18.298H18.2861H18.2742H18.2623H18.2505H18.2386H18.2268H18.2149H18.2031H18.1913H18.1795H18.1678H18.156H18.1442H18.1325H18.1208H18.1091H18.0974H18.0857H18.0741H18.0624H18.0508H18.0392H18.0276H18.016H18.0045H17.9929H17.9814H17.9699H17.9584H17.9469H17.9354H17.924H17.9125H17.9011H17.8897H17.8783H17.867H17.8556H17.8443H17.833H17.8217H17.8104H17.7992H17.788H17.7768H17.7656H17.7544H17.7432H17.7321H17.721H17.7099H17.6988H17.6877H17.6767H17.6657H17.6547H17.6437H17.6328H17.6218H17.6109H17.6H17.5891H17.5783H17.5675H17.5567H17.5459H17.5351H17.5244H17.5137H17.503H17.4923H17.4816H17.471H17.4604H17.4498H17.4393H17.4287H17.4182H17.4077H17.3973H17.3868H17.3764H17.366H17.3557H17.3453H17.335H17.3247H17.3145H17.3042H17.294H17.2838H17.2736H17.2635H17.2534H17.2433H17.2332H17.2232H17.2132H17.2032H17.1933H17.1833H17.1734H17.1636H17.1537H17.1439H17.1341H17.1243H17.1146H17.1049H17.0952H17.0856H17.0759H17.0663H17.0568H17.0472H17.0377H17.0283H17.0188H17.0094H17C16.3661 18.25 16.0752 18.0579 15.941 17.9181C15.7886 17.7593 15.75 17.5768 15.75 17.5V17.4931V17.4863V17.4793V17.4724V17.4654V17.4584V17.4513V17.4442V17.4371V17.43V17.4228V17.4156V17.4083V17.4011V17.3938V17.3864V17.379V17.3716V17.3642V17.3567V17.3492V17.3417V17.3342V17.3266V17.3189V17.3113V17.3036V17.2959V17.2882V17.2804V17.2726V17.2648V17.2569V17.249V17.2411V17.2332V17.2252V17.2172V17.2092V17.2011V17.193V17.1849V17.1767V17.1686V17.1604V17.1521V17.1439V17.1356V17.1273V17.1189V17.1106V17.1022V17.0938V17.0853V17.0768V17.0683V17.0598V17.0513V17.0427V17.0341V17.0255V17.0168V17.0081V16.9994V16.9907V16.9819V16.9731V16.9643V16.9555V16.9467V16.9378V16.9289V16.9199V16.911V16.902V16.893V16.884V16.8749V16.8659V16.8568V16.8476V16.8385V16.8293V16.8202V16.8109V16.8017V16.7925V16.7832V16.7739V16.7646V16.7552V16.7459V16.7365V16.7271V16.7176V16.7082V16.6987V16.6892V16.6797V16.6702V16.6606V16.651V16.6414V16.6318V16.6222V16.6125V16.6029V16.5932V16.5834V16.5737V16.564V16.5542V16.5444V16.5346V16.5248V16.5149V16.505V16.4951V16.4852V16.4753V16.4654V16.4554V16.4455V16.4355V16.4254V16.4154V16.4054V16.3953V16.3852V16.3751V16.365V16.3549V16.3447V16.3346V16.3244V16.3142V16.304V16.2938V16.2835V16.2733V16.263V16.2527V16.2424V16.2321V16.2218V16.2114V16.2011V16.1907V16.1803V16.1699V16.1595V16.149V16.1386V16.1281V16.1176V16.1072V16.0966V16.0861V16.0756V16.0651V16.0545V16.0439V16.0334V16.0228V16.0122V16.0016V15.9909V15.9803V15.9696V15.959V15.9483V15.9376V15.9269V15.9162V15.9055V15.8947V15.884V15.8733V15.8625V15.8517V15.8409V15.8301V15.8193V15.8085V15.7977V15.7869V15.776V15.7652V15.7543V15.7434V15.7326V15.7217V15.7108V15.6999V15.689V15.678V15.6671V15.6562V15.6452V15.6343V15.6233V15.6124V15.6014V15.5904V15.5794V15.5684V15.5574V15.5464V15.5354V15.5243V15.5133V15.5023V15.4912V15.4802V15.4691V15.4581V15.447V15.4359V15.4249V15.4138V15.4027V15.3916V15.3805V15.3694V15.3583V15.3472V15.3361V15.325V15.3138V15.3027V15.2916V15.2805V15.2693V15.2582V15.247V15.2359V15.2247V15.2136V15.2024V15.1913V15.1801V15.1689V15.1578V15.1466V15.1354V15.1243V15.1131V15.1019V15.0908V15.0796V15.0684V15.0572V15.046V15.0349V15.0237V15.0125V15.0013V14.9901V14.979V14.9678V14.9566V14.9454V14.9342V14.923V14.9119V14.9007V14.8895V14.8783V14.8672V14.856V14.8448V14.8336V14.8225V14.8113V14.8001V14.789V14.7778V14.7666V14.7555V14.7443V14.7332V14.722V14.7109V14.6997V14.6886V14.6775V14.6663V14.6552V14.6441V14.633V14.6218V14.6107V14.5996V14.5885V14.5774V14.5663V14.5552V14.5441V14.5331V14.522V14.5109V14.4998V14.4888V14.4777V14.4667V14.4556V14.4446V14.4336V14.4226V14.4115V14.4005V14.3895V14.3785V14.3675V14.3566V14.3456V14.3346V14.3237V14.3127V14.3018V14.2908V14.2799V14.269V14.2581V14.2472V14.2363V14.2254V14.2145V14.2036V14.1928V14.1819V14.1711V14.1602V14.1494V14.1386V14.1278V14.117V14.1062V14.0955V14.0847V14.074V14.0632V14.0525V14.0418V14.0311V14.0204V14.0097V13.999V13.9883V13.9777V13.967V13.9564V13.9458V13.9352V13.9246V13.914V13.9035V13.8929V13.8824V13.8719V13.8613V13.8508V13.8403V13.8299V13.8194V13.809V13.7985V13.7881V13.7777V13.7673V13.7569V13.7466V13.7362V13.7259V13.7156V13.7053V13.695V13.6847V13.6745V13.6642V13.654V13.6438V13.6336V13.6234V13.6133V13.6031V13.593V13.5829V13.5728V13.5627V13.5527V13.5426V13.5326V13.5226V13.5126V13.5026V13.4927V13.4827V13.4728V13.4629V13.453V13.4432V13.4333V13.4235V13.4137V13.4039V13.3941V13.3844V13.3746V13.3649V13.3552V13.3456V13.3359V13.3263V13.3166V13.3071V13.2975V13.2879V13.2784V13.2689V13.2594V13.2499V13.2405V13.2311V13.2216V13.2123V13.2029V13.1936V13.1842V13.1749V13.1657V13.1564V13.1472V13.138V13.1288V13.1196V13.1105V13.1014V13.0923V13.0832V13.0742V13.0652V13.0562V13.0472V13.0382V13.0293V13.0204V13.0115V13.0027V12.9938V12.985V12.9763V12.9675V12.9588V12.9501V12.9414V12.9327V12.9241V12.9155V12.9069V12.8984V12.8899V12.8814V12.8729V12.8645V12.856V12.8477V12.8393V12.831V12.8226V12.8144V12.8061V12.7979V12.7897V12.7815V12.7734V12.7653V12.7572V12.7491V12.7411V12.7331V12.7251V12.7172V12.7093V12.7014V12.6935V12.6857V12.6779V12.6701V12.6624V12.6547V12.647V12.6394V12.6318V12.6242V12.6166V12.6091V12.6016V12.5941V12.5867V12.5793V12.5719V12.5646V12.5573V12.55V12.5428V12.5356V12.5284V12.5212V12.5141V12.507V12.5C15.75 12.2468 15.8624 12.0917 16.1064 11.9599C16.3828 11.8106 16.7508 11.75 17 11.75H17.0088H17.0177H17.0265H17.0355H17.0444H17.0534H17.0625H17.0715H17.0807H17.0898H17.099H17.1082H17.1175H17.1268H17.1361H17.1455H17.1549H17.1643H17.1738H17.1833H17.1929H17.2024H17.2121H17.2217H17.2314H17.2411H17.2509H17.2607H17.2705H17.2804H17.2902H17.3002H17.3101H17.3201H17.3301H17.3402H17.3503H17.3604H17.3706H17.3807H17.391H17.4012H17.4115H17.4218H17.4321H17.4425H17.4529H17.4633H17.4738H17.4843H17.4948H17.5053H17.5159H17.5265H17.5372H17.5478H17.5585H17.5693H17.58H17.5908H17.6016H17.6124H17.6233H17.6342H17.6451H17.656H17.667H17.678H17.689H17.7001H17.7112H17.7223H17.7334H17.7445H17.7557H17.7669H17.7782H17.7894H17.8007H17.812H17.8233H17.8347H17.8461H17.8574H17.8689H17.8803H17.8918H17.9033H17.9148H17.9263H17.9379H17.9495H17.9611H17.9727H17.9844H17.996H18.0077H18.0194H18.0312H18.0429H18.0547H18.0665H18.0783H18.0901H18.102H18.1139H18.1257H18.1377H18.1496H18.1615H18.1735H18.1855H18.1975H18.2095H18.2216H18.2336H18.2457H18.2578H18.2699H18.2821H18.2942H18.3064H18.3185H18.3307H18.343H18.3552H18.3674H18.3797H18.392H18.4043H18.4166H18.4289H18.4412H18.4536H18.4659H18.4783H18.4907H18.5031H18.5155H18.528H18.5404H18.5529H18.5653H18.5778H18.5903H18.6028H18.6154H18.6279H18.6404H18.653H18.6656H18.6781H18.6907H18.7033H18.716H18.7286H18.7412H18.7539H18.7665H18.7792H18.7918H18.8045H18.8172H18.8299H18.8426H18.8554H18.8681H18.8808H18.8936H18.9063H18.9191H18.9318H18.9446H18.9574H18.9702H18.983H18.9958H19.0086H19.0214H19.0342H19.047H19.0599H19.0727H19.0856H19.0984H19.1113H19.1241H19.137H19.1498H19.1627H19.1756H19.1885H19.2014H19.2142H19.2271H19.24H19.2529H19.2658H19.2787H19.2916H19.3045H19.3174H19.3304H19.3433H19.3562H19.3691H19.382H19.3949H19.4078H19.4208H19.4337H19.4466H19.4595H19.4724H19.4854H19.4983H19.5112H19.5241H19.537H19.5499H19.5629H19.5758H19.5887H19.6016H19.6145H19.6274H19.6403H19.6532H19.6661H19.679H19.6919H19.7048H19.7176H19.7305H19.7434H19.7563H19.7691H19.782H19.7948H19.8077H19.8205H19.8334H19.8462H19.859H19.8719H19.8847H19.8975H19.9103H19.9231H19.9359H19.9487H19.9615H19.9742H19.987H19.9998H20.0125H20.0252H20.038H20.0507H20.0634H20.0761H20.0888H20.1015H20.1142H20.1269H20.1395H20.1522H20.1648H20.1774H20.19H20.2027H20.2153H20.2278H20.2404H20.253H20.2655H20.2781H20.2906H20.3031H20.3156H20.3281H20.3406H20.3531H20.3655H20.378H20.3904H20.4028H20.4152H20.4276H20.44H20.4523H20.4647H20.477H20.4893H20.5016H20.5139H20.5262H20.5384H20.5507H20.5629H20.5751H20.5873H20.5995H20.6116H20.6238H20.6359H20.648H20.6601H20.6721H20.6842H20.6962H20.7082H20.7202H20.7322H20.7442H20.7561H20.7681H20.78H20.7918H20.8037H20.8156H20.8274H20.8392H20.851H20.8627H20.8745H20.8862H20.8979H20.9096H20.9213H20.9329H20.9445H20.9561H20.9677H20.9792H20.9908H21.0023H21.0137H21.0252H21.0366H21.0481H21.0594H21.0708H21.0821H21.0935H21.1048H21.116H21.1273H21.1385H21.1497H21.1609H21.172H21.1831H21.1942H21.2053H21.2163H21.2273H21.2383H21.2493H21.2602H21.2711H21.282H21.2928H21.3037H21.3145H21.3252H21.336H21.3467H21.3574H21.368H21.3786H21.3892H21.3998H21.4103H21.4209H21.4313H21.4418H21.4522H21.4626H21.4729H21.4833H21.4936H21.5038H21.5141H21.5243H21.5344H21.5446H21.5547H21.5648H21.5748H21.5848H21.5948H21.6047H21.6146H21.6245H21.6344H21.6442H21.6539H21.6637H21.6734H21.6831H21.6927H21.7023H21.7119H21.7214H21.7309H21.7404H21.7498H21.7592H21.7685H21.7779H21.7871H21.7964H21.8056H21.8148H21.8239H21.833H21.8421H21.8511H21.8601H21.869H21.8779H21.8868H21.8956H21.9044H21.9132H21.9219H21.9306H21.9392H21.9478H21.9563H21.9649H21.9733H21.9818H21.9902H21.9985H22.0068H22.0151H22.0233H22.0315H22.0397H22.0478H22.0558H22.0639H22.0718H22.0798H22.0877H22.0955H22.1033H22.1111H22.1188H22.1265H22.1341H22.1417H22.1492H22.1567H22.1642H22.1716H22.179H22.1863H22.1936H22.2008H22.208H22.2151H22.2222H22.2292H22.2362H22.2432H22.2501H22.2569H22.2637H22.2705H22.2772H22.2839H22.2905H22.2971H22.3036H22.3101H22.3165H22.3229H22.3292H22.3355H22.3417H22.3479H22.354H22.3601H22.3661H22.3721H22.378H22.3839H22.3897H22.3955H22.4012H22.4069H22.4125H22.4181H22.4236H22.4291H22.4345H22.4398H22.4452H22.4504H22.4556H22.4608H22.4659H22.4709H22.4759H22.4808H22.4857H22.4905H22.4953H22.5ZM18.5 16C19.1904 16 19.75 15.4404 19.75 14.75C19.75 14.0596 19.1904 13.5 18.5 13.5C17.8096 13.5 17.25 14.0596 17.25 14.75C17.25 15.4404 17.8096 16 18.5 16Z" fill="white"/>
</svg>
