<svg width="24" height="24" viewBox="0 0 24 24" fill="none" xmlns="http://www.w3.org/2000/svg">
<rect width="24" height="24" rx="12" fill="#E49E4C"/>
<circle cx="12" cy="12" r="12" fill="#E49E4C"/>
<path d="M11.0547 7.92969V13.3438C11.0911 13.9271 11.4375 14.237 12.0938 14.2734C12.6771 14.237 13.0052 13.9271 13.0781 13.3438V7.92969C13.0052 7.38281 12.6771 7.07292 12.0938 7C11.401 7.03646 11.0547 7.34635 11.0547 7.92969Z" fill="white"/>
<path d="M11 16.1875C11.0365 16.8073 11.401 17.1354 12.0938 17.1719C12.75 17.1354 13.1146 16.8073 13.1875 16.1875C13.1146 15.5312 12.75 15.1667 12.0938 15.0938C11.401 15.1667 11.0365 15.5312 11 16.1875Z" fill="white"/>
</svg>
