<svg width="29" height="30" viewBox="0 0 29 30" fill="none" xmlns="http://www.w3.org/2000/svg">
<rect y="0.5" width="29" height="29" rx="6" fill="#59A7D6"/>
<path fill-rule="evenodd" clip-rule="evenodd" d="M7.99536 18.3364C9.98003 20.5082 12.1813 22.6801 13.7689 23.3152C13.977 23.4584 14.223 23.5147 14.5001 23.497C14.7771 23.5147 15.0232 23.4584 15.2312 23.3152C16.8188 22.6801 19.0201 20.5082 21.0048 18.3364C23.1883 15.9469 24.0396 12.0895 23.1541 10.1947C22.5032 8.04483 20.7074 6.5 18.594 6.5C16.8665 6.5 15.3512 7.53216 14.5 9.0832C13.6487 7.53216 12.1334 6.5 10.4059 6.5C8.29207 6.5 6.49598 8.04544 5.84547 10.1959C4.96089 12.0912 5.81229 15.9474 7.99536 18.3364ZM11.698 15.5094C12.3867 14.6261 14.0052 12.5416 14.9694 11.2696C15.5204 10.563 15.7729 10.7397 15.8303 10.9163C15.7155 11.3285 15.417 12.3296 15.1416 13.0362C14.8661 13.7429 14.6824 14.2728 14.625 14.4495C14.5676 14.5673 14.5562 14.8028 14.9694 14.8028H16.8633C16.9781 14.8028 17.1733 14.8735 17.0355 15.1561C16.8633 15.5095 13.0754 20.2792 12.9033 20.2792C12.7311 20.2792 12.7311 20.1026 12.9033 19.5726C12.9893 19.3076 13.2046 18.7335 13.4198 18.1593C13.635 17.5852 13.8502 17.0111 13.9363 16.7461C14.058 16.3717 13.3842 16.3863 13.1345 16.3918C13.1106 16.3923 13.0905 16.3927 13.0754 16.3927H11.5258C11.1126 16.3927 11.4684 15.8039 11.698 15.5094Z" fill="white"/>
</svg>
