<svg width="24" height="24" viewBox="0 0 24 24" fill="none" xmlns="http://www.w3.org/2000/svg">
<rect width="24" height="24" rx="12" fill="black" fill-opacity="0.2"/>
<path fill-rule="evenodd" clip-rule="evenodd" d="M8.31964 7.25898C8.02674 6.96608 7.55187 6.96608 7.25898 7.25898C6.96608 7.55187 6.96608 8.02674 7.25898 8.31964L10.9392 11.9999L7.25901 15.6801C6.96611 15.973 6.96612 16.4479 7.25901 16.7408C7.5519 17.0336 8.02678 17.0336 8.31967 16.7408L11.9999 13.0605L15.68 16.7407C15.9729 17.0336 16.4478 17.0336 16.7407 16.7407C17.0336 16.4478 17.0336 15.9729 16.7407 15.68L13.0605 11.9999L16.7407 8.31968C17.0336 8.02679 17.0336 7.55191 16.7407 7.25902C16.4478 6.96613 15.9729 6.96613 15.68 7.25902L11.9999 10.9392L8.31964 7.25898Z" fill="white"/>
</svg>
