<svg width="148" height="148" viewBox="0 0 148 148" fill="none" xmlns="http://www.w3.org/2000/svg">
<g clip-path="url(#clip0_219_644)">
<circle cx="74.5" cy="75" r="66.5" fill="#E8E8E8"/>
<path d="M15.6016 85.7344C14.7171 82.541 16.5888 79.2351 19.7823 78.3506L62.9826 66.385C66.176 65.5004 69.4819 67.3722 70.3664 70.5657L82.5748 114.642C83.4593 117.836 81.5875 121.142 78.394 122.026L35.1938 133.992C32.0003 134.876 28.6944 133.004 27.8099 129.811L15.6016 85.7344Z" fill="#FEFEFE"/>
<rect x="19.0352" y="82.8031" width="48.6437" height="39.0968" rx="4" transform="rotate(-15.4817 19.0352 82.8031)" fill="#B8E1EA"/>
<mask id="mask0_219_644" style="mask-type:alpha" maskUnits="userSpaceOnUse" x="20" y="70" width="56" height="50">
<rect x="19.1893" y="82.9175" width="48.408" height="39.1473" rx="4" transform="rotate(-15.4817 19.1893 82.9175)" fill="#FFE7A8"/>
</mask>
<g mask="url(#mask0_219_644)">
<path d="M36.7179 103.833C28.3885 105.494 27.6805 113.859 26.2757 122.911L82.5192 107.332C75.3644 97.8848 67.7438 69.9853 55.9718 79.2812C48.2125 85.4084 53.0002 103.833 48.5002 106.783C44.5335 109.384 40.5002 103.078 36.7179 103.833Z" fill="#7B839E"/>
</g>
<path d="M95.95 47.9049C97.6761 45.0763 101.368 44.1825 104.197 45.9087L142.462 69.2595C145.29 70.9857 146.184 74.6781 144.458 77.5067L120.633 116.547C118.907 119.376 115.215 120.27 112.386 118.544L74.1217 95.1927C71.2931 93.4665 70.3993 89.7742 72.1255 86.9456L95.95 47.9049Z" fill="#FEFEFE"/>
<rect x="100.437" y="48.4071" width="48.6437" height="39.0968" rx="4" transform="rotate(31.3935 100.437 48.4071)" fill="#B8E1EA"/>
<mask id="mask1_219_644" style="mask-type:alpha" maskUnits="userSpaceOnUse" x="81" y="50" width="60" height="56">
<rect x="100.458" y="48.5978" width="48.408" height="39.1473" rx="4" transform="rotate(31.3935 100.458 48.5978)" fill="#FFE7A8"/>
</mask>
<g mask="url(#mask1_219_644)">
<path d="M97.0001 74.2834C90.2432 69.1371 83.6801 75.9463 76.113 81.1088L125.931 111.51C127.935 99.8296 143.089 75.1957 128.257 72.9583C118.48 71.4835 112.861 88.6753 102.5 84.7834C97.1756 82.7834 100.274 76.777 97.0001 74.2834Z" fill="#7B839E"/>
</g>
<path d="M36.4336 26.4259C36.0861 23.1305 38.4759 20.1773 41.7714 19.8298L86.351 15.1293C89.6465 14.7819 92.5996 17.1717 92.9471 20.4671L97.7429 65.951C98.0904 69.2464 95.7006 72.1996 92.4051 72.5471L47.8255 77.2475C44.5301 77.595 41.5769 75.2052 41.2294 71.9098L36.4336 26.4259Z" fill="#FEFEFE"/>
<rect x="40.3025" y="24.0989" width="48.6437" height="39.0968" rx="4" transform="rotate(-6.01904 40.3025 24.0989)" fill="#B8E1EA"/>
<mask id="mask2_219_644" style="mask-type:alpha" maskUnits="userSpaceOnUse" x="40" y="19" width="53" height="44">
<rect x="40.4356" y="24.2372" width="48.408" height="39.1473" rx="4" transform="rotate(-6.01904 40.4356 24.2372)" fill="#FFE7A8"/>
</mask>
<g mask="url(#mask2_219_644)">
<path d="M54.2871 47.7495C45.1873 49.3218 43.7244 56.1532 40.8506 64.8512L98.8899 58.7315C93.3857 48.2362 90.4556 19.4634 77.3154 26.6975C68.6544 31.4656 69.2199 50.4622 66 52.2831C62.7801 54.1041 60.5961 46.6594 54.2871 47.7495Z" fill="#7B839E"/>
</g>
<path d="M136.01 27.8339C136.01 27.8339 130.176 22.6804 131.288 21.1491C132.4 19.6177 133.393 19.3746 134.5 19C136.124 18.4505 137.101 20.2241 138.226 19.6136C139.352 19.0031 139.944 19.7955 139.944 19.7955C139.944 19.7955 141.07 19.185 141.678 19.4114C142.287 19.6385 142.098 20.4836 142.098 20.4836C142.098 20.4836 143.832 20.1002 143.502 21.5795C143.171 23.0589 140.291 26.1061 138.821 27.2755C137.351 28.4445 136.01 27.8339 136.01 27.8339Z" fill="#FF9C85"/>
<path d="M108.419 20.7912C108.419 20.7912 114.828 22.6357 120.723 22.5508C125.826 22.4769 132.528 19.5762 132.528 19.5762L137.274 28.1044C137.274 28.1044 124.83 39.755 116.282 35.9025C105.261 30.9349 108.419 20.7912 108.419 20.7912Z" fill="#F49B14"/>
<path d="M133 2.5C136.161 5.2759 137.914 5.34346 141 2.5C137.781 5.70277 138.131 7.44654 141 10.5C138.067 7.60609 136.305 7.76336 133 10.5C136.383 7.10617 136.159 5.37343 133 2.5Z" fill="#FF9900"/>
<path opacity="0.2" d="M120 -1.5C125.926 3.70482 129.213 3.83148 135 -1.5C128.964 4.50519 129.62 7.77477 135 13.5C129.501 8.07392 126.196 8.3688 120 13.5C126.343 7.13657 125.923 3.88768 120 -1.5Z" fill="#FF9900"/>
<path d="M121.986 23.2801C121.989 24.1862 122.083 25.5009 122.489 25.8586C122.564 25.9251 122.641 25.9473 122.734 25.9288C122.839 25.9103 122.873 25.86 122.893 25.8135C123.074 25.3982 122.519 24.2024 121.986 23.2801ZM122.676 26.3042C122.518 26.3042 122.371 26.2466 122.245 26.1357C121.501 25.4802 121.616 22.9239 121.631 22.635C121.635 22.5544 121.69 22.4864 121.768 22.4658C121.845 22.4473 121.927 22.4768 121.97 22.5441C122.139 22.805 123.6 25.1136 123.232 25.9605C123.154 26.1409 123.004 26.2554 122.8 26.2931L122.676 26.3042Z" fill="white"/>
<path d="M135.399 25.162L141.379 23.7165C141.727 23.6325 141.929 23.2379 141.832 22.8349L139.269 12.2295C139.171 11.827 138.811 11.568 138.463 11.652L132.483 13.0974C132.135 13.1814 131.933 13.5766 132.03 13.9792L134.593 24.5845C134.691 24.9875 135.052 25.246 135.399 25.162Z" fill="#47414B"/>
<path d="M143.976 19.8232C143.991 17.2991 140.573 13.7125 139.89 14.2668C139.89 14.2668 140.167 15.3753 140.167 15.9296C140.167 16.8041 138.549 15.0546 138.383 15.7952C138.217 16.5351 138.611 16.9766 138.611 16.9766C138.611 16.9766 137.596 16.7021 137.668 17.5962C137.741 18.4892 138.168 18.7974 138.168 18.7974C138.168 18.7974 137.071 18.9327 137.766 20.4477C138.462 21.9631 142.384 24.5207 143.216 23.9605C144.047 23.4003 143.966 21.428 143.976 19.8232Z" fill="#FF9C85"/>
<path d="M138.57 17.1479C138.516 17.1137 138.487 17.02 138.502 16.928C138.518 16.8292 138.58 16.7709 138.641 16.798L141.437 18.0089C141.502 18.0358 141.533 18.1368 141.517 18.2353C141.501 18.3338 141.439 18.3925 141.378 18.3653L138.582 17.1541L138.57 17.1479Z" fill="black"/>
<path d="M140.8 20.6822L138.126 18.9692C138.068 18.9318 138.039 18.8244 138.062 18.7295C138.085 18.6347 138.152 18.5881 138.21 18.6256L140.884 20.3385C140.942 20.3757 140.971 20.4833 140.948 20.5782C140.925 20.6731 140.858 20.7194 140.8 20.6822Z" fill="black"/>
<path d="M99.0124 127.098L99 120.913L110.589 120.5L111 129.026L105.275 130.5L99.0124 127.098Z" fill="#FF9C85"/>
<path d="M111.135 48.5C111.135 48.5 117.469 67.6044 116.972 87.9412C116.568 104.514 115.109 119.988 114.736 120.851C114.364 121.714 93 121.468 93 121.468L103.557 49.7324L111.135 48.5Z" fill="#29165C"/>
<path d="M76 122.105L78.0851 117.5L89 121.209L86.0567 128.5L80.1696 127.733L76 122.105Z" fill="#FF9C85"/>
<path d="M88.4888 48.5C88.4888 48.5 83.9847 57.0225 84.5938 69.3746C85.2023 81.7256 86.1757 86.0493 86.1757 86.0493C86.1757 86.0493 73.7603 116.434 74.0035 117.176C74.2473 117.916 91.2884 125.08 92.5055 124.462C93.7226 123.845 106.26 88.6428 106.869 86.4195C107.477 84.1962 105.773 49.735 105.773 49.735L88.4888 48.5Z" fill="#29165C"/>
<path d="M95.2065 121.5C95.1762 121.5 95.1459 121.493 95.1166 121.479C95.014 121.43 94.971 121.306 95.0206 121.204C95.075 121.093 101.006 106.226 103.5 94C105.388 84.7453 104.5 78 104.362 75.9391C104.39 75.8289 104.501 75.7625 104.613 75.791C104.724 75.819 104.791 75.9315 104.762 76.0412C105 77.5 105.828 84.7951 103.97 94C101.522 106.128 95.6151 120.93 95.393 121.384C95.3572 121.457 95.2832 121.5 95.2065 121.5Z" fill="white"/>
<path d="M93.6754 8.94204C93.6754 8.94204 85.6677 11.7964 86.0107 19.7013C86.3537 27.6062 101.683 27.4965 101.683 27.4965C101.683 27.4965 110.606 27.8256 112.666 22.1168C114.725 16.4075 106.603 13.4434 106.603 13.4434C106.603 13.4434 96.5353 6.74651 93.6754 8.94204Z" fill="black"/>
<path d="M93.1484 21.5C93.1484 21.5 79.7854 26.6456 76.4171 37.8874C73.239 48.4943 89.2669 49.5 89.2669 49.5C89.2669 49.5 88.5186 44.8053 92.386 43.57C96.2535 42.3348 98 43.8168 98 43.8168L89.5167 34.3045L93.1484 21.5Z" fill="#F49B14"/>
<path d="M99 15.5L99.4631 20.2602C99.4631 20.2602 100.45 21.5451 103.241 21.4988C105.321 21.4645 106 20.9247 106 20.9247L105.478 18.5419L104.965 16.2178L99.8569 15.604L99 15.5Z" fill="#FF9C85"/>
<path d="M100 15.5C100.027 15.6312 100.095 15.7831 100.195 15.9549C101.572 18.2767 104.717 18.5097 106 18.4997L105.453 16.1267L100 15.5Z" fill="black"/>
<path d="M105.314 5.05339C105.314 5.05339 108.606 10.955 107.901 14.4732C107.195 17.9908 103.903 17.7072 101.904 17.1968C99.9056 16.6859 98.9062 15.6079 98.9062 15.6079C98.9062 15.6079 97.1424 16.3457 95.7905 14.8134C94.438 13.2817 95.0261 11.352 96.0255 10.8416C97.0249 10.3306 98.3181 10.955 98.3181 10.955L97.2012 9.25262C97.2012 9.25262 100.493 -0.109873 105.314 5.05339Z" fill="#FF9C85"/>
<path d="M97.8289 13.5C97.7915 13.5 97.7541 13.4928 97.7231 13.4777L96.0649 12.6843C95.9906 12.6487 95.9783 12.5837 96.0371 12.5391C96.0959 12.4944 96.204 12.487 96.2769 12.5223L97.9351 13.3159C98.0094 13.3512 98.0217 13.4162 97.9629 13.4609C97.9291 13.4868 97.8794 13.5 97.8289 13.5Z" fill="black"/>
<path d="M96.2631 13.5C96.1721 13.5 96.0839 13.4659 96.0349 13.4047C95.9628 13.313 96.0061 13.1963 96.1315 13.1433L97.6057 12.5257C97.7331 12.4727 97.8934 12.5043 97.9648 12.596C98.0376 12.6878 97.9935 12.8044 97.8682 12.8569L96.394 13.475C96.352 13.4918 96.3072 13.5 96.2631 13.5Z" fill="black"/>
<path d="M97.66 10.5C97.66 10.5 100.446 10.0652 101.954 7.67568C103.463 5.28562 103.114 4.6337 103.114 4.6337L105.041 6.14878C105.68 6.6513 106.169 7.29947 106.462 8.0304L106.712 8.6533C106.712 8.6533 107.64 9.68522 107.988 5.77418C108.336 1.86367 100.794 -0.797812 96.1518 1.15744C91.5101 3.1127 93.3668 8.10995 93.3668 8.10995L97.66 10.5Z" fill="black"/>
<path d="M113.667 38.0055C113.667 38.0055 113.039 40.3682 113.039 40.8665C113.039 41.3647 112.411 47.0866 112.032 48.0831C111.658 49.0741 108.139 51.9406 100.715 51.4423C93.2969 50.944 88.5212 50.0707 87.3896 48.8278C86.2579 47.5849 87.7687 24.9383 89.6529 22.6988C91.5371 20.4594 96.5674 20.3362 96.5674 20.3362C96.5674 20.3362 96.1883 19.0933 97.1955 18.595C98.2027 18.0967 101.722 19.7147 103.612 19.8379C105.496 19.9611 106.249 19.3396 107.007 19.4684C107.76 19.5916 108.009 21.2096 108.009 21.2096C108.009 21.2096 110.589 22.8276 112.728 28.0511C114.861 33.2747 113.667 38.0055 113.667 38.0055Z" fill="#F49B14"/>
<path d="M95.1056 40.6393C96.9522 40.9742 97.5402 42.1192 98.2867 43.7584C98.6982 44.6618 100 45.768 100 46.6775C100 48.8987 97.9214 52.1072 97.0118 52.6003C96.1029 53.0945 95.3237 52.6003 95.3237 52.6003C95.3237 52.6003 93.8945 53.7108 93.1153 53.4643C92.3355 53.2177 91.9462 52.7241 91.9462 52.7241C91.9462 52.7241 90.517 53.8347 89.608 53.341C88.6985 52.8474 87.3996 50.0093 88.3092 49.5156C89.2181 49.022 89.9973 50.0093 89.9973 50.0093L89.4747 48.7404C88.8429 47.2056 88.6944 45.5092 89.1708 43.925C89.7623 41.957 91.2822 39.9474 95.1056 40.6393Z" fill="#FF9C85"/>
<path d="M99.5637 138.573C98.7154 138.542 98.0392 137.823 98.0263 136.933C97.9759 133.417 97.9293 125.278 98.5831 125.269C99.4168 125.256 107.313 127.644 107.313 127.644C107.313 127.644 107.483 122.769 110.949 123.594C113.609 124.228 116.724 127.282 118.029 128.669C118.443 129.109 118.966 129.413 119.542 129.545C122.019 130.116 128.839 132.007 128.987 135.582C129.168 139.952 127.374 139.478 126.541 139.49C125.825 139.5 105.349 138.777 99.5637 138.573Z" fill="#DE8C12"/>
<path d="M71.7583 132.73C71.0361 132.312 70.7882 131.363 71.1961 130.57C72.8067 127.436 76.0336 120.215 76.6049 120.509C77.3344 120.884 83.6282 126.646 83.6282 126.646C83.6282 126.646 86.0698 122.412 88.6905 124.745C90.7011 126.535 91.9676 130.677 92.4481 132.507C92.6002 133.089 92.9112 133.599 93.3484 133.982C95.2311 135.632 100.26 140.459 98.7064 143.689C96.8062 147.638 95.4728 146.389 94.7432 146.015C94.1173 145.692 76.6832 135.587 71.7583 132.73Z" fill="#F49B14"/>
<path d="M113.657 37.5C113.647 37.5 113.637 37.4994 113.627 37.4971C113.526 37.4782 113.458 37.3673 113.475 37.2501C114.378 30.825 111.064 24.894 111.031 24.8349C110.974 24.7355 110.998 24.6016 111.082 24.5361C111.167 24.4701 111.282 24.4971 111.339 24.597C111.373 24.6573 114.767 30.7251 113.839 37.3196C113.825 37.4253 113.746 37.5 113.657 37.5Z" fill="white"/>
<path d="M103.472 22.5C99.6128 22.5 97.1919 20.9236 97.0883 20.855C96.9926 20.7917 96.9716 20.6692 97.0405 20.5813C97.1093 20.4934 97.2443 20.474 97.3376 20.5368C97.3627 20.553 99.9037 22.1959 103.781 22.1038C103.915 22.1148 103.997 22.187 104 22.2954C104.003 22.4037 103.909 22.4937 103.792 22.4963C103.685 22.4989 103.577 22.5 103.472 22.5Z" fill="white"/>
<path d="M96.8019 40.5C96.7401 40.5 96.6789 40.4687 96.6403 40.4113C93.704 36.0077 87.2335 34.9267 87.1685 34.9161C87.0603 34.8993 86.9859 34.7922 87.0023 34.6783C87.0186 34.5639 87.1178 34.4847 87.2276 34.5025C87.5 34.546 93.931 35.6221 96.9639 40.1696C97.0267 40.2645 97.0056 40.3951 96.9159 40.4615C96.8815 40.4877 96.8414 40.5 96.8019 40.5Z" fill="white"/>
<path d="M90.7186 32.9666C90.6901 32.9666 90.6612 32.9685 90.6308 32.9734C90.4282 33.0027 90.4003 33.0985 90.3912 33.1302C90.2643 33.5663 90.9587 34.7669 91.6201 35.6863C91.6165 34.8646 91.5211 33.6384 91.1145 33.1625C91.0023 33.0313 90.8719 32.9666 90.7186 32.9666ZM91.7962 36.5C91.7454 36.5 91.6957 36.4745 91.6591 36.4278C91.3383 36.0191 89.7536 33.9308 90.0328 32.9728C90.0861 32.7912 90.2247 32.5629 90.5856 32.5094C90.8947 32.4664 91.1607 32.571 91.3779 32.8254C92.1317 33.7081 91.9921 36.179 91.986 36.2835C91.9804 36.3756 91.9317 36.4546 91.8607 36.4863C91.8398 36.495 91.818 36.5 91.7962 36.5Z" fill="white"/>
<path d="M92.1751 52.5C92.1018 52.5 92.0332 52.4551 92.0089 52.3841C91.9785 52.296 92.0285 52.2008 92.12 52.1716C92.1881 52.15 93.7842 51.6149 93.6405 49.6803C93.6339 49.5877 93.7063 49.5069 93.8029 49.5001C93.8981 49.4965 93.9831 49.5635 93.9901 49.656C94.153 51.8584 92.2488 52.4856 92.2297 52.4919C92.2115 52.4973 92.1928 52.5 92.1751 52.5Z" fill="black"/>
<path d="M95.2218 52.5C95.1603 52.5 95.0993 52.4813 95.055 52.4443C94.9745 52.377 94.9834 52.2744 95.0751 52.2148C95.0869 52.2074 96.2479 51.4339 96.5574 49.6427C96.5734 49.5536 96.684 49.4897 96.8053 49.5014C96.9272 49.5131 97.0136 49.5944 96.9982 49.684C96.6651 51.6074 95.4207 52.4261 95.3674 52.46C95.3254 52.487 95.2739 52.5 95.2218 52.5Z" fill="black"/>
<path d="M85.7862 130.5C85.7216 130.5 85.6583 130.469 85.616 130.412L83.0442 126.865C82.9723 126.765 82.99 126.623 83.0836 126.546C83.1778 126.471 83.312 126.49 83.384 126.588L85.9558 130.135C86.0277 130.234 86.01 130.377 85.9164 130.453C85.8775 130.485 85.8313 130.5 85.7862 130.5Z" fill="white"/>
<path d="M110.806 129.5C110.782 129.5 110.758 129.495 110.734 129.485L107.122 127.906C107.022 127.863 106.974 127.74 107.014 127.632C107.054 127.524 107.167 127.472 107.267 127.515L110.878 129.094C110.978 129.137 111.026 129.26 110.986 129.368C110.956 129.45 110.883 129.5 110.806 129.5Z" fill="white"/>
</g>
<defs>
<clipPath id="clip0_219_644">
<rect width="148" height="148" fill="white"/>
</clipPath>
</defs>
</svg>
