<svg width="40" height="40" viewBox="0 0 40 40" fill="none" xmlns="http://www.w3.org/2000/svg">
<rect width="40" height="40" rx="8" fill="#EB4B35"/>
<path fill-rule="evenodd" clip-rule="evenodd" d="M14 9C11.7909 9 10 10.7909 10 13V13.6321C12.0539 14.8796 16.8602 17.5354 20.5 17.5C23.76 17.4683 28.0758 15.2088 30 14.1002V13C30 10.7909 28.2091 9 26 9H14ZM30 16.7882C28.0511 17.3297 23.659 18.4494 20.5 18.5C16.997 18.5562 12.0858 17.3447 10 16.7808V27C10 29.2091 11.7909 31 14 31H26C28.2091 31 30 29.2091 30 27V16.7882Z" fill="white"/>
<circle cx="20" cy="19" r="3" fill="#EB4B35"/>
</svg>
