<svg width="29" height="30" viewBox="0 0 29 30" fill="none" xmlns="http://www.w3.org/2000/svg">
<rect y="0.5" width="29" height="29" rx="6" fill="#EB4E3D"/>
<path fill-rule="evenodd" clip-rule="evenodd" d="M11.8535 7.136C12.1608 6.18888 13.1175 5.25 14.25 5.25C15.3394 5.25 16.2661 6.11877 16.6086 7.02794C15.7705 7.84524 15.25 8.98684 15.25 10.25C15.25 12.7353 17.2647 14.75 19.75 14.75C20.0938 14.75 20.4285 14.7115 20.7502 14.6384V15.6526C20.7731 15.7109 20.7877 15.7736 20.7924 15.8392L20.8546 16.7094C20.9087 17.4663 21.1686 18.194 21.6063 18.8139L22.0199 19.3999H22.75V21.3986H5.75V19.3999H6.49729L6.90656 18.8201C7.34683 18.1964 7.60609 17.4631 7.65571 16.7013L7.71203 15.8365C7.71611 15.7739 7.72929 15.7139 7.75023 15.6578V11.2759L7.85207 11.2757C8.2517 9.38409 9.79418 7.82764 11.8535 7.136ZM14.2597 24.75C13.0268 24.75 11.9678 23.9267 11.5072 22.75H17.0121C16.5515 23.9267 15.4925 24.75 14.2597 24.75ZM19.75 13.75C21.683 13.75 23.25 12.183 23.25 10.25C23.25 8.317 21.683 6.75 19.75 6.75C17.817 6.75 16.25 8.317 16.25 10.25C16.25 12.183 17.817 13.75 19.75 13.75Z" fill="white"/>
</svg>
