<svg width="24" height="24" viewBox="0 0 24 24" fill="none" xmlns="http://www.w3.org/2000/svg">
    <path d="M8 12H19.5" stroke="#121212" stroke-width="1.5" stroke-linecap="round" stroke-linejoin="round"/>
    <path d="M8 6H19.5" stroke="#121212" stroke-width="1.5" stroke-linecap="round" stroke-linejoin="round"/>
    <path d="M8 18H19.5" stroke="#121212" stroke-width="1.5" stroke-linecap="round" stroke-linejoin="round"/>
    <path d="M3.78271 8V5.38281H3.73389L2.89893 5.93457V5.06787L3.78271 4.47705H4.81787V8H3.78271Z" fill="#121212"/>
    <path d="M2.61328 14V13.3115L3.69238 12.3618C3.87305 12.2039 4.01221 12.0754 4.10986 11.9761C4.20752 11.8752 4.27507 11.7905 4.3125 11.7222C4.35156 11.6538 4.37109 11.5887 4.37109 11.5269V11.5146C4.37109 11.4382 4.354 11.3722 4.31982 11.3169C4.28727 11.2616 4.23926 11.2192 4.17578 11.1899C4.11393 11.1606 4.03988 11.146 3.95361 11.146C3.8641 11.146 3.78434 11.1647 3.71436 11.2021C3.646 11.2396 3.59229 11.2909 3.55322 11.356C3.51416 11.4211 3.49463 11.4959 3.49463 11.5806V11.6025H2.55225V11.583C2.55225 11.3405 2.61165 11.1297 2.73047 10.9507C2.85091 10.77 3.01855 10.63 3.2334 10.5308C3.44987 10.4299 3.70215 10.3794 3.99023 10.3794C4.27018 10.3794 4.5127 10.4233 4.71777 10.5112C4.92448 10.5975 5.0848 10.7204 5.19873 10.8799C5.31266 11.0378 5.36963 11.2241 5.36963 11.439V11.4512C5.36963 11.583 5.34033 11.7148 5.28174 11.8467C5.22477 11.9785 5.13118 12.1177 5.00098 12.2642C4.87077 12.4106 4.69743 12.5726 4.48096 12.75L3.69238 13.397L3.98047 12.9551V13.397L3.69238 13.209H5.41357V14H2.61328Z" fill="#121212"/>
    <path d="M3.97559 20.0977C3.6875 20.0977 3.43441 20.0505 3.21631 19.9561C2.99821 19.8617 2.82568 19.7282 2.69873 19.5557C2.57178 19.3831 2.49935 19.1797 2.48145 18.9453L2.479 18.9136H3.46533L3.47021 18.9429C3.47998 19.008 3.50602 19.0674 3.54834 19.1211C3.59066 19.1748 3.64762 19.2171 3.71924 19.248C3.79085 19.279 3.87549 19.2944 3.97314 19.2944C4.0708 19.2944 4.15462 19.2782 4.22461 19.2456C4.2946 19.2114 4.34831 19.1659 4.38574 19.1089C4.42318 19.0503 4.44189 18.9836 4.44189 18.9087V18.9038C4.44189 18.7834 4.39469 18.6922 4.30029 18.6304C4.20589 18.5669 4.06917 18.5352 3.89014 18.5352H3.52637V17.854H3.89014C3.99756 17.854 4.0887 17.8402 4.16357 17.8125C4.23844 17.7848 4.29541 17.745 4.33447 17.6929C4.37516 17.6392 4.39551 17.5765 4.39551 17.5049V17.5C4.39551 17.4268 4.37842 17.3625 4.34424 17.3071C4.31006 17.2518 4.26042 17.2095 4.19531 17.1802C4.13184 17.1493 4.05615 17.1338 3.96826 17.1338C3.87712 17.1338 3.79736 17.1501 3.729 17.1826C3.66227 17.2135 3.60938 17.2583 3.57031 17.3169C3.53125 17.3739 3.50765 17.4406 3.49951 17.5171L3.49707 17.5391H2.56445L2.56689 17.5024C2.58154 17.2729 2.64827 17.0744 2.76709 16.9067C2.8859 16.7391 3.04704 16.6097 3.25049 16.5186C3.45557 16.4258 3.69482 16.3794 3.96826 16.3794C4.24984 16.3794 4.49398 16.4201 4.70068 16.5015C4.90739 16.5828 5.06689 16.6968 5.1792 16.8433C5.2915 16.9881 5.34766 17.159 5.34766 17.356V17.3608C5.34766 17.509 5.31429 17.6383 5.24756 17.749C5.18083 17.8581 5.09212 17.9468 4.98145 18.0151C4.8724 18.0835 4.75358 18.1307 4.625 18.1567V18.1763C4.89193 18.2039 5.10352 18.2869 5.25977 18.4253C5.41602 18.5636 5.49414 18.7467 5.49414 18.9746V18.9795C5.49414 19.209 5.43229 19.4076 5.30859 19.5752C5.18652 19.7428 5.01237 19.8722 4.78613 19.9634C4.5599 20.0529 4.28971 20.0977 3.97559 20.0977Z" fill="#121212"/>
</svg>
