<svg width="24" height="24" viewBox="0 0 24 24" fill="none" xmlns="http://www.w3.org/2000/svg">
<path fill-rule="evenodd" clip-rule="evenodd" d="M17.0571 8.74286H18.7714C20.0338 8.74286 21.0571 9.76617 21.0571 11.0286V19.7143C21.0571 20.9767 20.0338 22 18.7714 22H5.28571C4.02331 22 3 20.9767 3 19.7143V11.0286C3 9.76617 4.02331 8.74286 5.28571 8.74286H7V7.02857C7 4.25131 9.25131 2 12.0286 2C14.8058 2 17.0571 4.25143 17.0571 7.02857V8.74286ZM12.0286 3.6C10.1381 3.6 8.6 5.13806 8.6 7.02857V8.74286H15.4571V7.02857C15.4571 5.13806 13.9191 3.6 12.0286 3.6ZM18.7714 20.4C19.1496 20.4 19.4571 20.0923 19.4571 19.7143V11.0286C19.4571 10.6505 19.1496 10.3429 18.7714 10.3429H5.28571C4.90754 10.3429 4.6 10.6505 4.6 11.0286V19.7143C4.6 20.0923 4.90754 20.4 5.28571 20.4H18.7714ZM11.4635 13.0914C11.6135 12.9413 11.817 12.857 12.0292 12.857C12.2413 12.857 12.4448 12.9413 12.5949 13.0914C12.7449 13.2414 12.8292 13.4449 12.8292 13.657V17.5428C12.8292 17.6478 12.8085 17.7519 12.7683 17.8489C12.7281 17.946 12.6691 18.0342 12.5949 18.1084C12.5206 18.1827 12.4324 18.2417 12.3353 18.2819C12.2383 18.3221 12.1342 18.3428 12.0292 18.3428C11.9241 18.3428 11.8201 18.3221 11.723 18.2819C11.626 18.2417 11.5378 18.1827 11.4635 18.1084C11.3892 18.0342 11.3303 17.946 11.2901 17.8489C11.2499 17.7519 11.2292 17.6478 11.2292 17.5428V13.657C11.2292 13.4449 11.3135 13.2414 11.4635 13.0914Z" fill="#5AC63A"/>
</svg>
