<svg width="24" height="24" viewBox="0 0 24 24" fill="none" xmlns="http://www.w3.org/2000/svg">
    <path fill-rule="evenodd" clip-rule="evenodd"
        d="M2.75 12C2.75 6.89137 6.89137 2.75 12 2.75C17.1086 2.75 21.25 6.89137 21.25 12C21.25 15.1995 19.6256 18.0196 17.1564 19.6806L15.8902 12.9275C15.7749 12.3123 15.346 11.823 14.7876 11.6123L13.0001 6.25C13.0001 6.25 12.8343 5.25 12.0001 5.25C11.166 5.25 11.0001 6.25 11.0001 6.25L9.21271 11.6123C8.65428 11.823 8.22539 12.3123 8.11003 12.9275L6.8438 19.6807C4.37455 18.0198 2.75 15.1996 2.75 12ZM8.22393 20.4467C9.37694 20.9629 10.6549 21.25 12 21.25C13.3451 21.25 14.6232 20.9629 15.7763 20.4466C15.7711 20.4275 15.7667 20.408 15.763 20.3882L14.4159 13.2039C14.3938 13.0857 14.2905 13 14.1702 13H9.83006C9.70976 13 9.60651 13.0857 9.58434 13.2039L8.23729 20.3882C8.23357 20.408 8.2291 20.4275 8.22393 20.4467ZM12 1.25C6.06294 1.25 1.25 6.06294 1.25 12C1.25 17.9371 6.06294 22.75 12 22.75C17.9371 22.75 22.75 17.9371 22.75 12C22.75 6.06294 17.9371 1.25 12 1.25Z"
        fill="white" />
</svg>