<svg width="30" height="26" viewBox="0 0 30 26" fill="none" xmlns="http://www.w3.org/2000/svg">
<path fill-rule="evenodd" clip-rule="evenodd" d="M2 7C2 4.79086 3.79086 3 6 3H24C26.2091 3 28 4.79086 28 7V15.399L23.2539 11.5428C21.9271 10.4648 19.969 10.7118 18.9515 12.0855L10.8666 23H6C3.79086 23 2 21.2091 2 19V7ZM13.3556 23H24C26.2091 23 28 21.2091 28 19V17.976L21.9927 13.0951C21.5505 12.7357 20.8978 12.818 20.5586 13.2759L13.3556 23ZM10 8C10 9.10457 9.10457 10 8 10C6.89543 10 6 9.10457 6 8C6 6.89543 6.89543 6 8 6C9.10457 6 10 6.89543 10 8Z" fill="#007AFF"/>
</svg>
