<svg width="32" height="32" viewBox="0 0 32 32" fill="none" xmlns="http://www.w3.org/2000/svg">
<path fill-rule="evenodd" clip-rule="evenodd" d="M4 10.7693C4 8.56015 5.79086 6.76929 8 6.76929H24C26.2091 6.76929 28 8.56015 28 10.7693V18.1154L23.7924 14.6967C22.4656 13.6187 20.5075 13.8657 19.4899 15.2394L12.0889 25.2308H8C5.79086 25.2308 4 23.44 4 21.2308V10.7693ZM11.3846 11.3847C11.3846 12.4043 10.5581 13.2308 9.53846 13.2308C8.51886 13.2308 7.69231 12.4043 7.69231 11.3847C7.69231 10.3651 8.51886 9.53852 9.53846 9.53852C10.5581 9.53852 11.3846 10.3651 11.3846 11.3847Z" fill="#ADADAD"/>
<path d="M14.5778 25.2308H24C26.2091 25.2308 28 23.44 28 21.2308V20.6924L22.5312 16.249C22.0889 15.8896 21.4362 15.9719 21.097 16.4299L14.5778 25.2308Z" fill="#ADADAD"/>
</svg>
