<svg width="40" height="40" viewBox="0 0 40 40" fill="none" xmlns="http://www.w3.org/2000/svg">
<path fill-rule="evenodd" clip-rule="evenodd" d="M31.7833 17.0808L25.9337 20.9607C26.7572 25.0766 25.9591 26.8808 25.0284 28.9849C24.8952 29.286 24.7592 29.5933 24.625 29.9143L24.5338 30.0086L24.4433 30.1003C23.9773 30.5716 23.2167 30.5737 22.748 30.105C20.3228 27.5317 18.4456 25.6851 16.5683 23.8386C14.6911 21.992 12.8139 20.1455 10.3887 17.5721C9.9218 17.1053 9.9218 16.1817 10.3887 15.7149C14.1536 13.6413 16.3745 13.4074 19.1971 14.3493L23.2579 8.48916C24.3222 6.95327 26.5165 6.75357 27.8406 8.07208L32.242 12.4549C33.5873 13.7946 33.3656 16.0313 31.7833 17.0808ZM5.50391 34.6972L14.0346 23.4717L16.957 26.285L5.50391 34.6972Z" fill="white"/>
</svg>
