<svg width="24" height="24" viewBox="0 0 24 24" fill="none" xmlns="http://www.w3.org/2000/svg">
<path d="M7.64394 15.3552L4.12806 18.869C3.85065 19.1462 3.85066 19.5957 4.12807 19.8729C4.40549 20.1502 4.85527 20.1502 5.13269 19.8729L8.64855 16.3592L7.64394 15.3552Z" fill="#121212"/>
<path fill-rule="evenodd" clip-rule="evenodd" d="M3.51013 11.224L12.7821 20.4902C13.612 21.3195 15.0083 21.1074 15.5542 20.0692C16.3169 18.6185 16.4972 16.96 16.1796 15.4294C16.0279 14.6986 16.1283 14.0245 16.4958 13.579L20.3188 8.94309C21.2963 7.75782 21.2129 6.02442 20.1261 4.93836L19.0604 3.87332C17.9801 2.79371 16.2583 2.70409 15.0716 3.66572L10.3253 7.51192C9.88864 7.86575 9.23614 7.96699 8.52783 7.82802C7.01396 7.531 5.36044 7.70316 3.93137 8.45354C2.89251 8.99907 2.68033 10.3946 3.51013 11.224ZM15.3385 12.6247C14.5797 13.5448 14.5053 14.7435 14.7109 15.7342C14.9633 16.9506 14.8152 18.2513 14.2265 19.3711C14.1512 19.5143 13.9576 19.5443 13.8425 19.4292L4.57048 10.163C4.4414 10.0391 4.5 9.84916 4.62875 9.78156C5.72227 9.20738 7.0224 9.06124 8.23904 9.29994C9.20836 9.49012 10.3696 9.40669 11.2697 8.6773L16.016 4.8311C16.6062 4.35279 17.4629 4.39745 18.0001 4.93431L19.0658 5.99935C19.6058 6.53902 19.6471 7.39992 19.1616 7.98874L15.3385 12.6247Z" fill="#121212"/>
</svg>
