<svg width="29" height="30" viewBox="0 0 29 30" fill="none" xmlns="http://www.w3.org/2000/svg">
<rect y="0.5" width="29" height="29" rx="6" fill="#8E8E93"/>
<path fill-rule="evenodd" clip-rule="evenodd" d="M9.42156 13.7973L9.42117 10.3457C9.42117 8.61772 10.2586 7.4936 11.3337 6.83391C12.3702 6.19785 13.6062 6 14.5013 6C15.3983 6 16.5824 6.19857 17.5647 6.84546C18.5863 7.51819 19.3367 8.64544 19.3367 10.3457V13.6859C20.6658 14.2385 21.6004 15.5493 21.6004 17.0784V20.2612C21.6004 22.2894 19.9562 23.9336 17.928 23.9336H11.0728C9.04458 23.9336 7.40039 22.2894 7.40039 20.2612V17.0784C7.40039 15.6441 8.22268 14.4018 9.42156 13.7973ZM10.7677 10.3457C10.7677 9.13573 11.3176 8.42364 12.038 7.98161C12.7968 7.51595 13.7643 7.34655 14.5013 7.34655C15.2366 7.34655 16.1335 7.51523 16.8242 7.97006C17.4756 8.39905 17.9901 9.10801 17.9901 10.3457V13.4065C17.9695 13.4062 17.9487 13.406 17.928 13.406H11.0728C10.9702 13.406 10.8685 13.4102 10.768 13.4185L10.7677 10.3457Z" fill="white"/>
</svg>
