<svg width="24" height="24" viewBox="0 0 24 24" fill="none" xmlns="http://www.w3.org/2000/svg">
<path fill-rule="evenodd" clip-rule="evenodd" d="M11.7636 12.8086C11.8329 12.8687 11.9217 12.9016 12.0134 12.901C12.1058 12.901 12.1949 12.868 12.262 12.8075L17.4622 8.19914C17.4795 8.18409 17.4917 8.16403 17.497 8.14174C17.5023 8.11945 17.5005 8.09606 17.4919 8.07483C17.4823 8.05325 17.4665 8.03497 17.4465 8.02227C17.4266 8.00956 17.4034 8.00297 17.3797 8.00332L14.0068 8.01102L13.9936 3.34104C13.9931 3.29579 13.9833 3.25112 13.9648 3.20984C13.9462 3.16857 13.9193 3.13158 13.8858 3.10121C13.8159 3.03601 13.7239 2.99983 13.6283 3L10.3434 3.0077C10.2477 3.00783 10.1556 3.04441 10.086 3.11001C10.0527 3.1407 10.0261 3.17795 10.0079 3.21942C9.98976 3.26088 9.98037 3.30566 9.98036 3.35094L9.99356 8.02202L6.62061 8.03082C6.59697 8.03047 6.57374 8.03706 6.55379 8.04977C6.53385 8.06248 6.51807 8.08075 6.5084 8.10233C6.49953 8.1237 6.49763 8.14733 6.50296 8.16984C6.50829 8.19236 6.52059 8.21262 6.5381 8.22774L11.7636 12.8097V12.8086ZM22.2729 15.6707L18.9405 13.421H16.8575L20.3508 16.1721L16.5113 16.1223C16.4472 16.1301 16.3855 16.1512 16.33 16.1843C16.2746 16.2174 16.2267 16.2617 16.1895 16.3145L15.1231 18.8247H8.87638L7.80883 16.3145C7.7717 16.2616 7.72384 16.2172 7.66838 16.1841C7.61291 16.151 7.55109 16.1299 7.48695 16.1223H3.66947L7.14074 13.421H5.05659L1.72773 15.6719C1.20669 15.9752 0.894066 16.6746 1.03301 17.2269L1.65131 20.5233C1.79141 21.0745 2.41087 21.526 3.02801 21.526H20.9726C21.5897 21.526 22.2092 21.0745 22.3505 20.5233L22.9664 17.2269C23.1065 16.6746 22.7951 15.9752 22.274 15.6707H22.2729Z" fill="white"/>
</svg>
