<svg width="24" height="24" viewBox="0 0 24 24" fill="none" xmlns="http://www.w3.org/2000/svg">
<path d="M14.2222 13.7778V20M19.5556 13.7778V20M20 4.88889C20 4.39797 19.602 4 19.1111 4H14.6667C14.1757 4 13.7778 4.39797 13.7778 4.88889V9.33333C13.7778 9.82425 14.1757 10.2222 14.6667 10.2222H19.1111C19.602 10.2222 20 9.82425 20 9.33333V4.88889ZM10.2222 4.88889C10.2222 4.39797 9.82425 4 9.33333 4H4.88889C4.39797 4 4 4.39797 4 4.88889V9.33333C4 9.82425 4.39797 10.2222 4.88889 10.2222H9.33333C9.82425 10.2222 10.2222 9.82425 10.2222 9.33333V4.88889ZM10.2222 14.6667C10.2222 14.1757 9.82425 13.7778 9.33333 13.7778H4.88889C4.39797 13.7778 4 14.1757 4 14.6667V19.1111C4 19.602 4.39797 20 4.88889 20H9.33333C9.82425 20 10.2222 19.602 10.2222 19.1111V14.6667Z" stroke="#ADADAD" stroke-width="1.5" stroke-linecap="round"/>
</svg>
