<svg width="29" height="30" viewBox="0 0 29 30" fill="none" xmlns="http://www.w3.org/2000/svg">
<rect y="0.5" width="29" height="29" rx="6" fill="#65C466"/>
<path fill-rule="evenodd" clip-rule="evenodd" d="M6.9746 6.49732C7.84043 5.75502 9.14407 5.85516 9.88637 6.72098C9.94794 6.7928 10.0045 6.86875 10.0557 6.94832L11.6213 9.38361C12.2021 10.2808 12.1304 11.4437 11.4449 12.243L10.8074 12.9554C10.2679 13.5582 10.2747 14.4775 10.8231 15.0893C11.3224 15.7858 11.8711 16.4331 12.469 17.031L12.7721 17.3259C13.284 17.8105 13.8302 18.2608 14.4107 18.6769C14.9919 19.1979 15.8506 19.23 16.4519 18.7694L16.5446 18.6926L17.257 18.0551C18.02 17.4008 19.1143 17.3057 19.9925 17.8035L20.1164 17.8787L22.5517 19.4444C22.6312 19.4955 22.7072 19.5521 22.779 19.6136C23.6448 20.3559 23.745 21.6596 23.0027 22.5254C20.9964 24.5317 16.5976 25.3106 10.5643 19.4111L10.3253 19.1747C4.16909 13.0185 4.94188 8.53004 6.9746 6.49732Z" fill="white"/>
</svg>
