<svg width="32" height="32" viewBox="0 0 32 32" fill="none" xmlns="http://www.w3.org/2000/svg">
<path d="M6 8C6 5.79086 7.79086 4 10 4H22C24.2091 4 26 5.79086 26 8V9.1741C25.195 9.5209 24.2141 9.89076 23.1248 10.2336C20.859 10.9468 18.259 11.5 16 11.5C12.5146 11.5 8.6558 10.1878 6 9.0533V8Z" fill="#ADADAD"/>
<path fill-rule="evenodd" clip-rule="evenodd" d="M23.7252 12.1414C24.5298 11.8881 25.2985 11.6146 26 11.3373V24C26 26.2091 24.2091 28 22 28H10C7.79086 28 6 26.2091 6 24V11.2192C8.74923 12.3288 12.4943 13.5 16 13.5C18.541 13.5 21.3576 12.8866 23.7252 12.1414ZM14.4539 16H13L14.9659 19.4118H13.6655V20.0588H15.3447L15.3549 20.0686V20.8824H13.6655V21.5294H15.3549V23H16.6451V21.5294H18.3447V20.8824H16.6451V20.0686L16.6553 20.0588H18.3447V19.4118H17.0341L19 16H17.5461L16 18.951L14.4539 16Z" fill="#ADADAD"/>
</svg>
