<svg width="24" height="24" viewBox="0 0 24 24" fill="none" xmlns="http://www.w3.org/2000/svg">
<path d="M19.2772 11.0895C19.1039 10.9919 18.8989 10.9672 18.7073 11.0208C18.5158 11.0744 18.3533 11.2019 18.2557 11.3752C18.1582 11.5486 18.1335 11.7536 18.1871 11.9452C18.2407 12.1367 18.3681 12.2992 18.5415 12.3967L20.8255 13.6822C21.3018 13.9502 21.8955 13.6352 21.941 13.0905C21.9802 12.618 22 12.2567 22 12C22 6.47725 17.5227 2 12 2C6.47725 2 2 6.47725 2 12C2 17.5227 6.47725 22 12 22C15.3775 22 18.47 20.3117 20.3145 17.5577C20.3699 17.4759 20.4086 17.384 20.4283 17.2872C20.448 17.1904 20.4484 17.0906 20.4295 16.9936C20.4106 16.8967 20.3727 16.8044 20.318 16.7221C20.2633 16.6398 20.1929 16.5692 20.1108 16.5142C20.0287 16.4592 19.9366 16.421 19.8397 16.4017C19.7428 16.3825 19.643 16.3825 19.5461 16.4019C19.4493 16.4213 19.3572 16.4597 19.2752 16.5148C19.1931 16.5699 19.1228 16.6406 19.0682 16.723C17.4995 19.0655 14.872 20.5 12 20.5C7.3055 20.5 3.5 16.6945 3.5 12C3.5 7.3055 7.3055 3.5 12 3.5C16.6195 3.5 20.3783 7.185 20.497 11.776L19.2772 11.0895Z" fill="black"/>
</svg>
