<svg width="24" height="24" viewBox="0 0 24 24" fill="none" xmlns="http://www.w3.org/2000/svg">
<path d="M19.9475 4.45321C18.416 3.11273 16.2969 2.66467 14.2807 3.2633C14.1881 3.29014 14.1017 3.33507 14.0266 3.39549C13.9514 3.45591 13.889 3.53062 13.8429 3.61531C13.7968 3.7 13.7679 3.79299 13.758 3.8889C13.748 3.98481 13.7572 4.08175 13.7849 4.1741C13.8119 4.26663 13.8569 4.35292 13.9173 4.42799C13.9778 4.50306 14.0525 4.56543 14.1371 4.61152C14.2218 4.6576 14.3147 4.68648 14.4106 4.6965C14.5064 4.70652 14.6033 4.69748 14.6957 4.66989C16.2272 4.21817 17.8284 4.5487 18.9742 5.55866C19.9328 6.39967 20.4837 7.56388 20.5277 8.83459C20.5681 10.1053 20.098 11.3026 19.1983 12.1987L12.7933 18.6036C12.371 19.0296 11.6291 19.0296 11.2068 18.6036L4.8018 12.1987C3.90202 11.2989 3.43194 10.1053 3.47233 8.83459C3.51273 7.56388 4.06362 6.39967 5.02583 5.55866C6.81804 3.98312 9.60185 4.13003 11.3647 5.89286L13.3479 7.99357C13.627 8.28737 14.0897 8.30206 14.3872 8.02295C14.6847 7.74383 14.6957 7.28109 14.4166 6.98361L12.5215 4.97104L12.404 4.84985C10.0903 2.54715 6.42508 2.37087 4.0526 4.45321C2.78556 5.566 2.05472 7.10481 2.00331 8.78684C1.94822 10.4432 2.59092 12.0664 3.76247 13.238L10.1674 19.643C10.4077 19.8843 10.6933 20.0757 11.0078 20.2061C11.3223 20.3366 11.6595 20.4036 12 20.4032C12.6905 20.4032 13.3442 20.1351 13.8326 19.643L20.2376 13.238C21.4091 12.0664 22.0518 10.4432 21.9968 8.78684C21.9417 7.10848 21.2145 5.56967 19.9475 4.45321Z" fill="#121212"/>
</svg>
