<svg width="25" height="24" viewBox="0 0 25 24" fill="none" xmlns="http://www.w3.org/2000/svg">
<path d="M8.60176 21.7265C7.76 22.2629 6.65926 21.9854 6.14802 21.1121C5.90565 20.6975 5.83032 20.2023 5.93802 19.7316L7.02751 14.9663C7.04048 14.9108 7.03857 14.8528 7.02198 14.7984C7.00538 14.7439 6.97473 14.6951 6.93327 14.6571L3.36702 11.47C2.62625 10.8084 2.54075 9.65154 3.17401 8.88028C3.32469 8.69627 3.50941 8.54471 3.71753 8.43433C3.92564 8.32396 4.153 8.25696 4.3865 8.23721L9.06676 7.84619C9.16876 7.83746 9.26 7.76849 9.30177 7.66362L11.105 3.14037C11.4808 2.19808 12.5258 1.74809 13.4375 2.14371C13.8723 2.33324 14.2164 2.69155 14.3945 3.14037L16.1978 7.66338C16.2395 7.76849 16.3308 7.83772 16.4328 7.84619L21.1135 8.23745C22.095 8.31952 22.8218 9.21001 22.744 10.221C22.7075 10.7035 22.488 11.152 22.1328 11.4705L18.5665 14.6576C18.4835 14.7317 18.446 14.8517 18.4722 14.9666L19.5617 19.7319C19.7872 20.7178 19.2017 21.7111 18.246 21.9488C18.0181 22.0055 17.7816 22.0151 17.5501 21.9769C17.3186 21.9388 17.0968 21.8537 16.8977 21.7267L12.8905 19.1729C12.8483 19.1458 12.7996 19.1314 12.7498 19.1314C12.7 19.1314 12.6512 19.1458 12.609 19.1729L8.6015 21.7267L8.60176 21.7265ZM13.6825 17.866L17.6898 20.4198C17.7513 20.4588 17.8238 20.4709 17.8925 20.4537C18.0428 20.4162 18.14 20.2511 18.1018 20.0829L17.0123 15.3176C16.937 14.9898 16.9501 14.6471 17.0504 14.3264C17.1506 14.0056 17.3342 13.719 17.5813 13.4971L21.1475 10.3103C21.2058 10.2582 21.2425 10.1826 21.249 10.1C21.2623 9.92846 21.1438 9.78334 20.9918 9.77077L16.311 9.37924C15.983 9.351 15.6691 9.2301 15.404 9.02995C15.139 8.8298 14.9332 8.55824 14.8095 8.24541L13.0063 3.72241C12.9781 3.64975 12.923 3.59149 12.853 3.56037C12.7148 3.50037 12.5548 3.56933 12.4938 3.72241L10.6903 8.24541C10.5666 8.55824 10.3608 8.8298 10.0957 9.02995C9.83068 9.2301 9.51674 9.351 9.18875 9.37924L4.50826 9.77077C4.47215 9.77399 4.43703 9.78453 4.40493 9.80179C4.37283 9.81904 4.34438 9.84266 4.32125 9.87127C4.27025 9.93445 4.24502 10.0154 4.25085 10.0972C4.25668 10.179 4.2931 10.2553 4.35252 10.3103L7.91877 13.4974C8.16587 13.7192 8.34939 14.0059 8.44964 14.3266C8.54988 14.6473 8.56306 14.99 8.48776 15.3179L7.39827 20.0829C7.37964 20.1638 7.39236 20.2489 7.43375 20.3203C7.5155 20.4596 7.68177 20.5014 7.81025 20.4196L11.8178 17.866C12.0976 17.6874 12.4206 17.5928 12.7501 17.5928C13.0797 17.5928 13.4027 17.6874 13.6825 17.866Z" fill="#121212"/>
</svg>
