<svg width="24" height="24" viewBox="0 0 24 24" fill="none" xmlns="http://www.w3.org/2000/svg">
    <path
        d="M12.4369 8.0033H11.3818V13.154H11.3865L11.3818 13.1607L14.1076 14.9411L14.6846 14.0581L12.4369 12.5899V8.0033Z"
        fill="#121212" />
    <path
        d="M12 4.35077C7.78228 4.35077 4.35071 7.78234 4.35071 12C4.35071 16.2178 7.78228 19.6493 12 19.6493C16.2177 19.6493 19.6493 16.2178 19.6493 12C19.6492 7.78231 16.2177 4.35077 12 4.35077ZM12 18.5942C8.36391 18.5942 5.40578 15.6361 5.40578 12C5.40578 8.36397 8.36388 5.40584 12 5.40584C15.6361 5.40584 18.5942 8.36397 18.5942 12C18.5942 15.6361 15.6361 18.5942 12 18.5942Z"
        fill="#121212" />
</svg>
