<svg width="20" height="20" viewBox="0 0 20 20" fill="none" xmlns="http://www.w3.org/2000/svg">
    <g clip-path="url(#clip0_1563_23757)">
        <path
            d="M9.98437 0C11.1829 0.000177435 12.3487 0.391023 13.3051 1.11331C14.2616 1.8356 14.9565 2.84997 15.2846 4.0027C15.6128 5.15544 15.5562 6.38372 15.1235 7.50142C14.6909 8.61912 13.9056 9.56533 12.8869 10.1967C14.2059 10.5953 15.4282 11.2627 16.4769 12.1567C16.6221 12.2877 16.7105 12.4702 16.7233 12.6654C16.7361 12.8605 16.6723 13.053 16.5455 13.2019C16.4188 13.3509 16.2389 13.4445 16.0442 13.463C15.8495 13.4814 15.6552 13.4233 15.5027 13.3008C14.3115 12.2889 12.8648 11.6242 11.321 11.3797C9.77725 11.1351 8.19595 11.32 6.75027 11.9142C5.3046 12.5084 4.0503 13.4889 3.12473 14.7484C2.19915 16.0079 1.638 17.4978 1.50271 19.055C1.4858 19.2539 1.39057 19.438 1.23796 19.5667C1.08535 19.6954 0.887869 19.7582 0.688956 19.7412C0.490044 19.7243 0.305995 19.6291 0.177298 19.4765C0.0486014 19.3239 -0.0142011 19.1264 0.00270645 18.9275C0.175091 16.9307 0.942134 15.0314 2.20479 13.475C3.46744 11.9185 5.16771 10.7763 7.08604 10.1958C6.06797 9.56453 5.28329 8.61872 4.85079 7.5016C4.41829 6.38448 4.36152 5.15686 4.68907 4.00459C5.01662 2.85232 5.71066 1.83813 6.66613 1.11556C7.62159 0.392989 8.78645 0.00137387 9.98437 0ZM19.7527 14.7383L19.7777 14.7625C19.8472 14.8279 19.9026 14.9069 19.9404 14.9945C19.9783 15.0822 19.9978 15.1766 19.9978 15.2721C19.9978 15.3675 19.9783 15.462 19.9404 15.5496C19.9026 15.6373 19.8472 15.7162 19.7777 15.7817L15.9669 19.3742C15.8199 19.5057 15.6295 19.5784 15.4323 19.5784C15.235 19.5784 15.0447 19.5057 14.8977 19.3742L12.7102 17.3108C12.6407 17.2454 12.5853 17.1664 12.5475 17.0788C12.5097 16.9912 12.4901 16.8967 12.4901 16.8013C12.4901 16.7058 12.5097 16.6113 12.5475 16.5237C12.5853 16.4361 12.6407 16.3571 12.7102 16.2917L12.7352 16.2675C12.8745 16.1357 13.0589 16.0623 13.2506 16.0623C13.4423 16.0623 13.6268 16.1357 13.766 16.2675L15.4327 17.8383L18.7219 14.7375C18.8611 14.6058 19.0456 14.5323 19.2373 14.5323C19.429 14.5323 19.6134 14.6066 19.7527 14.7383ZM9.98437 1.50667C9.1916 1.50667 8.41663 1.74175 7.75746 2.18219C7.09829 2.62263 6.58454 3.24865 6.28116 3.98108C5.97777 4.7135 5.8984 5.51945 6.05306 6.29699C6.20772 7.07453 6.58948 7.78874 7.15005 8.34932C7.71063 8.90989 8.42484 9.29165 9.20238 9.44631C9.97993 9.60098 10.7859 9.5216 11.5183 9.21822C12.2507 8.91484 12.8767 8.40108 13.3172 7.74191C13.7576 7.08274 13.9927 6.30777 13.9927 5.515C13.9927 4.45192 13.5704 3.43239 12.8187 2.68068C12.067 1.92897 11.0474 1.50667 9.98437 1.50667Z"
            fill="black" fill-opacity="1" />
    </g>
    <defs>
        <clipPath id="clip0_1563_23757">
            <rect width="20" height="20" fill="white" />
        </clipPath>
    </defs>
</svg>
