<svg width="24" height="24" viewBox="0 0 24 24" fill="none" xmlns="http://www.w3.org/2000/svg">
    <path
        d="M16.756 16.756C16.5997 16.9122 16.3878 17 16.1668 17C15.9459 17 15.7339 16.9122 15.5777 16.756L8.6667 9.84505V14.5001C8.66671 14.6096 8.64517 14.718 8.6033 14.8191C8.56143 14.9202 8.50004 15.0121 8.42266 15.0895C8.34527 15.1669 8.2534 15.2283 8.15229 15.2702C8.05117 15.3121 7.9428 15.3336 7.83335 15.3336C7.7239 15.3336 7.61553 15.3121 7.51441 15.2702C7.4133 15.2283 7.32142 15.1669 7.24404 15.0895C7.16665 15.0121 7.10527 14.9202 7.0634 14.8191C7.02153 14.718 6.99998 14.6096 7 14.5001V7.83335C7 7.61233 7.0878 7.40036 7.24408 7.24408C7.40036 7.0878 7.61233 7 7.83335 7H14.5001C14.6096 6.99998 14.718 7.02153 14.8191 7.0634C14.9202 7.10527 15.0121 7.16665 15.0895 7.24404C15.1669 7.32142 15.2283 7.4133 15.2702 7.51441C15.3121 7.61553 15.3336 7.7239 15.3336 7.83335C15.3336 7.9428 15.3121 8.05117 15.2702 8.15229C15.2283 8.2534 15.1669 8.34527 15.0895 8.42266C15.0121 8.50004 14.9202 8.56143 14.8191 8.6033C14.718 8.64517 14.6096 8.66671 14.5001 8.6667H9.84505L16.756 15.5777C16.9122 15.7339 17 15.9459 17 16.1668C17 16.3878 16.9122 16.5997 16.756 16.756Z"
        fill="#121212" />
</svg>
