<svg width="18" height="16" viewBox="0 0 18 16" fill="none" xmlns="http://www.w3.org/2000/svg">
<path fill-rule="evenodd" clip-rule="evenodd" d="M7.4848 7.14124C7.93329 6.84156 8.46059 6.68161 8.99999 6.68161C9.72331 6.68161 10.417 6.96894 10.9285 7.48041C11.4399 7.99187 11.7273 8.68556 11.7273 9.40888C11.7273 9.94828 11.5673 10.4756 11.2676 10.9241C10.968 11.3726 10.542 11.7221 10.0437 11.9286C9.54533 12.135 8.99696 12.189 8.46792 12.0837C7.93889 11.9785 7.45293 11.7188 7.07152 11.3374C6.6901 10.9559 6.43035 10.47 6.32512 9.94094C6.21989 9.41191 6.2739 8.86354 6.48032 8.3652C6.68674 7.86685 7.0363 7.44091 7.4848 7.14124ZM9.75758 8.27506C9.53334 8.12522 9.26969 8.04524 8.99999 8.04524C8.63833 8.04524 8.29148 8.18891 8.03575 8.44464C7.78002 8.70038 7.63635 9.04722 7.63635 9.40888C7.63635 9.67858 7.71633 9.94223 7.86617 10.1665C8.01601 10.3907 8.22898 10.5655 8.47815 10.6687C8.72732 10.7719 9.0015 10.7989 9.26602 10.7463C9.53054 10.6937 9.77352 10.5638 9.96422 10.3731C10.1549 10.1824 10.2848 9.93943 10.3374 9.67491C10.39 9.41039 10.363 9.13621 10.2598 8.88704C10.1566 8.63787 9.98183 8.4249 9.75758 8.27506Z" fill="#121212"/>
<path fill-rule="evenodd" clip-rule="evenodd" d="M4.69544 0.772517H8.2909C8.7362 0.769026 9.1673 0.929079 9.50243 1.22232C9.83757 1.51556 10.0534 1.9216 10.1091 2.36343L10.1939 3.04541H14.9091C15.6324 3.04541 16.3261 3.33275 16.8376 3.84421C17.349 4.35567 17.6364 5.04937 17.6364 5.77268V13.0454C17.6364 13.7687 17.349 14.4624 16.8376 14.9739C16.3261 15.4853 15.6324 15.7727 14.9091 15.7727H3.09092C2.3676 15.7727 1.67391 15.4853 1.16245 14.9739C0.650984 14.4624 0.363647 13.7687 0.363647 13.0454V5.77268C0.363647 5.04937 0.650984 4.35567 1.16245 3.84421C1.60368 3.40297 2.18054 3.12854 2.79504 3.0615L2.87726 2.36343C2.93291 1.9216 3.14877 1.51556 3.48391 1.22232C3.81904 0.929079 4.25014 0.769026 4.69544 0.772517ZM8.6081 2.24945C8.52427 2.17568 8.41621 2.13535 8.30453 2.13615H4.69999C4.58832 2.13535 4.48026 2.17568 4.39642 2.24945C4.31258 2.32323 4.25884 2.42529 4.24544 2.53615L4.18181 3.04524H8.81817L8.75908 2.53615C8.74568 2.42529 8.69194 2.32323 8.6081 2.24945ZM15.8733 4.80845C15.6176 4.55271 15.2708 4.40905 14.9091 4.40905H3.09092C2.72926 4.40905 2.38242 4.55271 2.12668 4.80845C1.87095 5.06418 1.72728 5.41102 1.72728 5.77268V13.0454C1.72728 13.4071 1.87095 13.7539 2.12668 14.0096C2.38242 14.2654 2.72926 14.409 3.09092 14.409H14.9091C15.2708 14.409 15.6176 14.2654 15.8733 14.0096C16.1291 13.7539 16.2727 13.4071 16.2727 13.0454V5.77268C16.2727 5.41102 16.1291 5.06418 15.8733 4.80845Z" fill="#121212"/>
<path d="M13.3182 1.22706H14.6818C14.8626 1.22709 15.036 1.29894 15.1639 1.4268C15.2917 1.55467 15.3635 1.72807 15.3635 1.90888C15.3635 2.08969 15.2917 2.2631 15.1639 2.39096C15.036 2.51882 14.8626 2.59067 14.6818 2.5907H13.3182C13.1374 2.59067 12.964 2.51882 12.8361 2.39096C12.7083 2.2631 12.6365 2.08969 12.6365 1.90888C12.6365 1.72807 12.7083 1.55467 12.8361 1.4268C12.964 1.29894 13.1374 1.22709 13.3182 1.22706Z" fill="#121212"/>
</svg>
