<svg width="20" height="20" viewBox="0 0 20 20" fill="none" xmlns="http://www.w3.org/2000/svg">
    <g clip-path="url(#clip0_1563_23697)">
        <path
            d="M19.1999 16.7999C19.6418 16.7999 19.9999 16.4418 19.9999 15.9999C19.9999 15.5581 19.6418 15.1999 19.1999 15.1999L16.8 15.1999L16.8 12.7999C16.8 12.358 16.4418 11.9999 16 11.9999C15.5582 11.9999 15.2 12.358 15.2 12.7999L15.2 15.1999L12.7999 15.1999C12.3581 15.1999 12 15.5581 12 15.9999C12 16.4418 12.3581 16.7999 12.7999 16.7999H15.2L15.2 19.1999C15.2 19.6417 15.5582 19.9999 16 19.9999C16.4418 19.9999 16.8 19.6417 16.8 19.1999L16.8 16.7999L19.1999 16.7999Z"
            fill="black" />
        <path fill-rule="evenodd" clip-rule="evenodd"
            d="M13.3076 1.23758C12.3511 0.51529 11.1853 0.124445 9.98681 0.124268C8.78889 0.125641 7.62403 0.517256 6.66857 1.23983C5.7131 1.9624 5.01906 2.97659 4.69151 4.12886C4.36396 5.28113 4.42073 6.50875 4.85323 7.62587C5.28573 8.74299 6.07041 9.68879 7.08848 10.3201C5.17015 10.9005 3.46988 12.0428 2.20723 13.5992C0.944575 15.1557 0.177533 17.055 0.00514785 19.0518C-0.0117597 19.2507 0.0510429 19.4482 0.17974 19.6008C0.308437 19.7534 0.492485 19.8486 0.691398 19.8655C0.89031 19.8824 1.08779 19.8196 1.2404 19.6909C1.39301 19.5622 1.48824 19.3782 1.50515 19.1793C1.64044 17.6221 2.20159 16.1322 3.12717 14.8727C4.05274 13.6132 5.30704 12.6327 6.75272 12.0385C8.19839 11.4443 9.77969 11.2594 11.3235 11.5039C11.9186 11.5982 12.4993 11.7549 13.0564 11.9699C14.2782 12.4412 14.5001 11 13.8165 10.6519C13.5137 10.5266 13.2043 10.4161 12.8893 10.3209C13.9081 9.6896 14.6933 8.74339 15.126 7.62569C15.5587 6.50799 15.6152 5.27971 15.2871 4.12697C14.959 2.97423 14.264 1.95987 13.3076 1.23758ZM7.7599 2.30646C8.41907 1.86602 9.19404 1.63093 9.98681 1.63093C11.0499 1.63093 12.0694 2.05324 12.8211 2.80495C13.5728 3.55666 13.9951 4.57619 13.9951 5.63927C13.9951 6.43204 13.7601 7.20701 13.3196 7.86618C12.8792 8.52535 12.2532 9.0391 11.5207 9.34248C10.7883 9.64587 9.98237 9.72524 9.20483 9.57058C8.42729 9.41592 7.71307 9.03416 7.15249 8.47359C6.59192 7.91301 6.21016 7.1988 6.0555 6.42125C5.90084 5.64371 5.98022 4.83777 6.2836 4.10535C6.58698 3.37292 7.10074 2.7469 7.7599 2.30646Z"
            fill="black" />
    </g>
    <defs>
        <clipPath id="clip0_1563_23697">
            <rect width="20" height="20" fill="white" />
        </clipPath>
    </defs>
</svg>
