<svg width="18" height="18" viewBox="0 0 18 18" fill="none" xmlns="http://www.w3.org/2000/svg">
<path d="M15.4688 9C15.4688 5.42741 12.5726 2.53125 9 2.53125C7.64314 2.53125 6.38386 2.94901 5.34375 3.66292M2.53125 9C2.53125 12.5726 5.42741 15.4688 9 15.4688C10.3569 15.4688 11.6161 15.051 12.6562 14.3371" stroke="white" stroke-width="1.5" stroke-linecap="round" stroke-linejoin="round"/>
<path d="M15.3087 11.5992L13.1775 8.7575C13.0786 8.62565 13.1727 8.4375 13.3375 8.4375H17.6C17.7648 8.4375 17.8589 8.62565 17.76 8.7575L15.6288 11.5992C15.5487 11.7058 15.3888 11.7058 15.3087 11.5992Z" fill="white"/>
<path d="M0.24 8.39875L2.37125 5.55708C2.45125 5.45042 2.61125 5.45042 2.69125 5.55708L4.8225 8.39875C4.92139 8.5306 4.82731 8.71875 4.6625 8.71875H0.4C0.235191 8.71875 0.141115 8.5306 0.24 8.39875Z" fill="white"/>
</svg>
