<svg width="24" height="24" viewBox="0 0 24 24" fill="none" xmlns="http://www.w3.org/2000/svg">
<path d="M18.5 6H5C3.89543 6 3 6.89543 3 8C3 9.10457 3.89543 10 5 10H17.75C18.1642 10 18.5 9.66421 18.5 9.25C18.5 8.83579 18.8358 8.5 19.25 8.5H19.75C20.4404 8.5 21 7.94036 21 7.25C21 6.55964 20.4404 6 19.75 6H18.5ZM18.5 6V4.5M4.5 10L4.64711 10.1226C5.28168 10.6514 5.52587 11.5159 5.26173 12.2986L3.44543 17.6802C3.22665 18.3284 3.70878 19 4.39292 19H6.27924C6.70967 19 7.09181 18.7246 7.22792 18.3162L8.83333 13.5M8.83333 13.5H10.9914C11.8844 13.5 12.6691 12.908 12.9144 12.0494L13.5 10M8.83333 13.5L10 10" stroke="black" stroke-width="1.5" stroke-linecap="round"/>
</svg>
