<svg width="148" height="148" viewBox="0 0 148 148" fill="none" xmlns="http://www.w3.org/2000/svg">
<path d="M4.39902 103.885C4.37267 103.823 4.34651 103.76 4.32031 103.698C4.34622 103.76 4.37296 103.823 4.39902 103.885ZM4.7885 103.698H4.78806C4.78835 103.698 4.78835 103.698 4.7885 103.698ZM4.32031 103.698C4.32031 103.698 4.38125 103.697 4.49938 103.697C4.38168 103.697 4.32031 103.698 4.32031 103.698ZM4.71642 103.698C4.71206 103.698 4.70713 103.698 4.70276 103.698C4.70741 103.698 4.71177 103.698 4.71642 103.698ZM4.62929 103.697C4.62875 103.697 4.62759 103.697 4.62691 103.697C4.62774 103.697 4.62846 103.697 4.62929 103.697Z" fill="#E5ECF5"/>
<path d="M7.42257 105.746C7.34794 105.736 7.27547 105.725 7.20195 105.714C7.01024 105.484 6.81907 105.253 6.62891 105.022C6.89439 105.263 7.15904 105.505 7.42257 105.746Z" fill="#A1BCF0"/>
<path d="M7.94141 85.3582C7.94464 85.3558 7.94791 85.3535 7.95118 85.3511C7.94805 85.3535 7.94451 85.3558 7.94141 85.3582Z" fill="#DCE7F5"/>
<path d="M109.478 126.624C109.186 128.552 107.249 130.13 105.172 130.13H43.733C41.6566 130.13 39.698 128.555 39.3806 126.63L29.2079 64.9374C28.8907 63.0131 30.33 61.4383 32.4064 61.4383H115.555C117.632 61.4383 119.092 63.016 118.801 64.9443L109.478 126.624Z" fill="#5D6175"/>
<path d="M114.5 55.0642H32L37 127.947L107.5 126.064L114.5 55.0642Z" fill="#F5F5F9"/>
<path d="M107.364 125.918L114.334 55.2142H32.1606L37.1398 127.793L107.364 125.918Z" stroke="#121212" stroke-opacity="0.08" stroke-width="0.3"/>
<path d="M104.735 42.0642H38L43 114.947H108L116.266 53.7638L104.735 42.0642Z" fill="#F5F5F9"/>
<path d="M116.107 53.8166L104.672 42.2142H38.1606L43.1401 114.797H107.869L116.107 53.8166Z" stroke="#121212" stroke-opacity="0.08" stroke-width="0.3"/>
<path d="M104.734 42.0641L116.349 53.679H104.734V42.0641Z" fill="#CFCFDC"/>
<path d="M80 82.6059C78.3686 82.6081 76.6407 81.3345 76.1599 79.7756L73.7902 72.0887C73.3095 70.5298 71.5815 69.2545 69.9502 69.2545H27.8054C26.174 69.2545 25.0724 70.5683 25.3574 72.1748L35.6447 130.144C35.9297 131.75 37.4977 133.064 39.1291 133.064H112.134C113.766 133.064 115.309 131.746 115.565 130.135L122.644 85.4733C122.899 83.8621 121.774 82.5454 120.142 82.5475L80 82.6059Z" fill="#CFCFDC"/>
<path d="M112.138 133.064H39.1328C37.5317 133.064 35.9922 131.798 35.6658 130.233C35.6596 130.204 35.6539 130.174 35.6485 130.144L34.789 125.301L34.7695 125.191C42.0002 127.691 50.0367 129.085 58.5041 129.085C71.3157 129.085 83.3379 127.018 92.6802 120.51C110.407 108.163 115.734 90.7047 115.734 85.7367C115.734 84.6661 115.681 83.6052 115.581 82.5544L120.146 82.5475C120.147 82.5475 120.148 82.5475 120.15 82.5475C121.623 82.5475 122.683 83.6236 122.684 85.02C122.684 85.1681 122.672 85.3194 122.648 85.4733L117.434 118.369L116.631 123.43L115.569 130.135C115.367 131.405 114.365 132.493 113.15 132.897C113.136 132.902 113.122 132.906 113.108 132.911H113.107C112.795 133.01 112.468 133.064 112.138 133.064Z" fill="#A0A4B9"/>
<path opacity="0.45" d="M39.874 122.188C39.4696 122.188 39.0174 121.928 38.955 121.511L38.9442 121.439C38.8217 120.88 38.7738 120.295 38.6894 119.73C38.51 118.527 38.3309 117.324 38.1514 116.122C37.6112 112.501 37.0714 108.881 36.5316 105.261C35.9028 101.045 35.2739 96.8277 34.6451 92.6111C34.1287 89.1487 33.6123 85.686 33.0963 82.2232C32.879 80.7681 32.662 79.313 32.4451 77.8578C32.3708 77.3609 32.5618 76.8636 33.0923 76.7176C33.1626 76.6982 33.2372 76.6888 33.3139 76.6888C33.7182 76.6888 34.1705 76.9483 34.2325 77.3648L34.2433 77.438C34.3662 77.9958 34.4141 78.5818 34.4981 79.1468C34.6775 80.3497 34.857 81.5523 35.0364 82.7548C35.5763 86.375 36.1161 89.9952 36.6559 93.615C37.2847 97.8317 37.9136 102.049 38.5424 106.266C39.0588 109.728 39.5752 113.19 40.0916 116.653C40.3086 118.109 40.5255 119.564 40.7428 121.019C40.8167 121.516 40.626 122.013 40.0952 122.159C40.0253 122.178 39.9504 122.188 39.874 122.188Z" fill="white"/>
<path d="M126.301 62.731C126.299 62.7292 126.298 62.7274 126.296 62.7256C126.298 62.7274 126.299 62.7292 126.301 62.731ZM126.292 62.7203C126.291 62.7192 126.29 62.7181 126.289 62.7167C126.29 62.7181 126.291 62.7188 126.292 62.7203Z" fill="#DCE7F5"/>
<path d="M46.0052 31.0001C53.7366 31.0001 60.0039 37.2669 60.0039 44.9984C60.0039 48.4536 58.7495 51.6139 56.6749 54.0557L57.2593 61.2634L50.5715 58.2308C49.1395 58.7252 47.6049 58.9967 46.0052 58.9967C38.2746 58.9967 32.0069 52.7294 32.0069 44.9984C32.0069 37.2669 38.2746 31.0001 46.0052 31.0001Z" fill="#EB725F"/>
<path d="M47.7617 36.4193H44.2381L44.8929 47.691H47.1069L47.7617 36.4193ZM46.9714 52.1639C47.2272 51.9077 47.3553 51.5917 47.3553 51.2152C47.3553 50.8391 47.2272 50.5227 46.9714 50.2669C46.7147 50.0106 46.3992 49.882 46.0226 49.882C45.6461 49.882 45.3262 50.0106 45.0621 50.2669C44.799 50.5227 44.667 50.8391 44.667 51.2152C44.667 51.5917 44.799 51.9077 45.0621 52.1639C45.3262 52.4197 45.6461 52.5479 46.0226 52.5479C46.3992 52.5479 46.7147 52.4197 46.9714 52.1639Z" fill="#F2F2F2"/>
<path d="M57.2501 61.2634L56.6657 54.0557C56.6721 54.0479 56.6789 54.0401 56.6857 54.0318C56.6872 54.0303 56.6887 54.0283 56.6902 54.0269C56.6921 54.0244 56.6945 54.022 56.6965 54.0195C56.6985 54.0171 56.7004 54.0146 56.7024 54.0122C56.7038 54.0102 56.7048 54.0093 56.7063 54.0073C56.7092 54.0039 56.7126 54.0004 56.7156 53.9965C57.2306 53.3837 57.6927 52.7255 58.0977 52.0305C56.6672 52.2819 55.1843 52.4159 53.6648 52.4159C51.4479 52.4159 49.3093 52.1342 47.2959 51.6109C47.2357 51.8193 47.1257 52.0036 46.9653 52.164C46.7085 52.4198 46.3931 52.548 46.0165 52.548C45.6399 52.548 45.3201 52.4198 45.056 52.164C44.7929 51.9078 44.6608 51.5919 44.6608 51.2153C44.6608 51.0632 44.6824 50.9204 44.7259 50.7878C39.2 48.6678 34.9139 44.6428 33.0369 39.7044C32.3767 41.3187 32.0065 43.0823 31.9977 44.9324C31.9977 44.9333 31.9977 44.9333 31.9977 44.9338C31.9977 44.9407 31.9977 44.9475 31.9977 44.9539C31.9977 44.9558 31.9977 44.9578 31.9977 44.9598C31.9977 44.9651 31.9977 44.9705 31.9977 44.9759C31.9977 44.9837 31.9977 44.9906 31.9977 44.9984C31.9977 52.7294 38.2654 58.9967 45.9959 58.9967C47.5957 58.9967 49.1303 58.7252 50.5623 58.2308L57.2501 61.2634Z" fill="#D36E66"/>
<path d="M100.457 120.37C97.318 120.37 94.1792 119.173 91.7842 116.778C92.7601 117.754 93.8588 118.53 95.0314 119.108C96.7367 119.95 98.5972 120.37 100.457 120.37Z" fill="#F19D8F"/>
<path d="M83.512 98.8103L80.5674 95.8655L73.512 102.921L66.4567 95.8655L63.5119 98.8103L70.5672 105.866L63.5119 112.921L66.4567 115.866L73.512 108.81L80.5674 115.866L83.512 112.921L76.4569 105.866L83.512 98.8103Z" fill="#FEFEFE"/>
</svg>
