<svg width="38" height="31" viewBox="0 0 38 31" fill="none" xmlns="http://www.w3.org/2000/svg">
    <defs>
        <filter id="filter0_iiiiii_1899_94434" x="-2" y="-1" width="37" height="31" filterUnits="userSpaceOnUse" color-interpolation-filters="sRGB">
            <feFlood flood-opacity="0" result="BackgroundImageFix"/>
            <feBlend mode="normal" in="SourceGraphic" in2="BackgroundImageFix" result="shape"/>
            <feColorMatrix in="SourceAlpha" type="matrix" values="0 0 0 0 0 0 0 0 0 0 0 0 0 0 0 0 0 0 127 0" result="hardAlpha"/>
            <feOffset dx="-3" dy="3"/>
            <feGaussianBlur stdDeviation="1"/>
            <feComposite in2="hardAlpha" operator="arithmetic" k2="-1" k3="1"/>
            <feColorMatrix type="matrix" values="0 0 0 0 0.700387 0 0 0 0 0.583941 0 0 0 0 0.904167 0 0 0 1 0"/>
            <feBlend mode="normal" in2="shape" result="effect1_innerShadow_1899_94434"/>
            <feColorMatrix in="SourceAlpha" type="matrix" values="0 0 0 0 0 0 0 0 0 0 0 0 0 0 0 0 0 0 127 0" result="hardAlpha"/>
            <feOffset dx="-2" dy="2"/>
            <feGaussianBlur stdDeviation="1"/>
            <feComposite in2="hardAlpha" operator="arithmetic" k2="-1" k3="1"/>
            <feColorMatrix type="matrix" values="0 0 0 0 0.8125 0 0 0 0 0.825658 0 0 0 0 1 0 0 0 0.6 0"/>
            <feBlend mode="normal" in2="effect1_innerShadow_1899_94434" result="effect2_innerShadow_1899_94434"/>
            <feColorMatrix in="SourceAlpha" type="matrix" values="0 0 0 0 0 0 0 0 0 0 0 0 0 0 0 0 0 0 127 0" result="hardAlpha"/>
            <feOffset dx="-0.05" dy="0.5"/>
            <feGaussianBlur stdDeviation="0.5"/>
            <feComposite in2="hardAlpha" operator="arithmetic" k2="-1" k3="1"/>
            <feColorMatrix type="matrix" values="0 0 0 0 0.8125 0 0 0 0 0.825658 0 0 0 0 1 0 0 0 1 0"/>
            <feBlend mode="normal" in2="effect2_innerShadow_1899_94434" result="effect3_innerShadow_1899_94434"/>
            <feColorMatrix in="SourceAlpha" type="matrix" values="0 0 0 0 0 0 0 0 0 0 0 0 0 0 0 0 0 0 127 0" result="hardAlpha"/>
            <feOffset dy="-2"/>
            <feGaussianBlur stdDeviation="0.5"/>
            <feComposite in2="hardAlpha" operator="arithmetic" k2="-1" k3="1"/>
            <feColorMatrix type="matrix" values="0 0 0 0 1 0 0 0 0 1 0 0 0 0 1 0 0 0 0.25 0"/>
            <feBlend mode="normal" in2="effect3_innerShadow_1899_94434" result="effect4_innerShadow_1899_94434"/>
            <feColorMatrix in="SourceAlpha" type="matrix" values="0 0 0 0 0 0 0 0 0 0 0 0 0 0 0 0 0 0 127 0" result="hardAlpha"/>
            <feOffset dx="-1" dy="-1"/>
            <feGaussianBlur stdDeviation="0.25"/>
            <feComposite in2="hardAlpha" operator="arithmetic" k2="-1" k3="1"/>
            <feColorMatrix type="matrix" values="0 0 0 0 1 0 0 0 0 1 0 0 0 0 1 0 0 0 1 0"/>
            <feBlend mode="normal" in2="effect4_innerShadow_1899_94434" result="effect5_innerShadow_1899_94434"/>
            <feColorMatrix in="SourceAlpha" type="matrix" values="0 0 0 0 0 0 0 0 0 0 0 0 0 0 0 0 0 0 127 0" result="hardAlpha"/>
            <feOffset dx="-1" dy="1"/>
            <feGaussianBlur stdDeviation="0.5"/>
            <feComposite in2="hardAlpha" operator="arithmetic" k2="-1" k3="1"/>
            <feColorMatrix type="matrix" values="0 0 0 0 1 0 0 0 0 1 0 0 0 0 1 0 0 0 0.25 0"/>
            <feBlend mode="normal" in2="effect5_innerShadow_1899_94434" result="effect6_innerShadow_1899_94434"/>
        </filter>
        <filter id="filter1_ii_1899_94434" x="-4" y="2" width="31.5" height="25.5" filterUnits="userSpaceOnUse" color-interpolation-filters="sRGB">
            <feFlood flood-opacity="0" result="BackgroundImageFix"/>
            <feBlend mode="normal" in="SourceGraphic" in2="BackgroundImageFix" result="shape"/>
            <feColorMatrix in="SourceAlpha" type="matrix" values="0 0 0 0 0 0 0 0 0 0 0 0 0 0 0 0 0 0 127 0" result="hardAlpha"/>
            <feOffset dx="2" dy="2"/>
            <feGaussianBlur stdDeviation="2"/>
            <feComposite in2="hardAlpha" operator="arithmetic" k2="-1" k3="1"/>
            <feColorMatrix type="matrix" values="0 0 0 0 0 0 0 0 0 0 0 0 0 0 0 0 0 0 0.25 0"/>
            <feBlend mode="normal" in2="shape" result="effect1_innerShadow_1899_94434"/>
            <feColorMatrix in="SourceAlpha" type="matrix" values="0 0 0 0 0 0 0 0 0 0 0 0 0 0 0 0 0 0 127 0" result="hardAlpha"/>
            <feOffset dx="-4" dy="-4"/>
            <feGaussianBlur stdDeviation="2"/>
            <feComposite in2="hardAlpha" operator="arithmetic" k2="-1" k3="1"/>
            <feColorMatrix type="matrix" values="0 0 0 0 0 0 0 0 0 0 0 0 0 0 0 0 0 0 0.25 0"/>
            <feBlend mode="normal" in2="effect1_innerShadow_1899_94434" result="effect2_innerShadow_1899_94434"/>
        </filter>
        <filter id="filter2_iii_1899_94434" x="-0.5" y="5.5" width="26" height="20.5" filterUnits="userSpaceOnUse" color-interpolation-filters="sRGB">
            <feFlood flood-opacity="0" result="BackgroundImageFix"/>
            <feBlend mode="normal" in="SourceGraphic" in2="BackgroundImageFix" result="shape"/>
            <feColorMatrix in="SourceAlpha" type="matrix" values="0 0 0 0 0 0 0 0 0 0 0 0 0 0 0 0 0 0 127 0" result="hardAlpha"/>
            <feOffset dy="0.5"/>
            <feGaussianBlur stdDeviation="0.5"/>
            <feComposite in2="hardAlpha" operator="arithmetic" k2="-1" k3="1"/>
            <feColorMatrix type="matrix" values="0 0 0 0 1 0 0 0 0 1 0 0 0 0 1 0 0 0 0.25 0"/>
            <feBlend mode="normal" in2="shape" result="effect1_innerShadow_1899_94434"/>
            <feColorMatrix in="SourceAlpha" type="matrix" values="0 0 0 0 0 0 0 0 0 0 0 0 0 0 0 0 0 0 127 0" result="hardAlpha"/>
            <feOffset dx="-1" dy="-1"/>
            <feGaussianBlur stdDeviation="0.25"/>
            <feComposite in2="hardAlpha" operator="arithmetic" k2="-1" k3="1"/>
            <feColorMatrix type="matrix" values="0 0 0 0 1 0 0 0 0 1 0 0 0 0 1 0 0 0 0.25 0"/>
            <feBlend mode="normal" in2="effect1_innerShadow_1899_94434" result="effect2_innerShadow_1899_94434"/>
            <feColorMatrix in="SourceAlpha" type="matrix" values="0 0 0 0 0 0 0 0 0 0 0 0 0 0 0 0 0 0 127 0" result="hardAlpha"/>
            <feOffset dy="-0.5"/>
            <feGaussianBlur stdDeviation="0.25"/>
            <feComposite in2="hardAlpha" operator="arithmetic" k2="-1" k3="1"/>
            <feColorMatrix type="matrix" values="0 0 0 0 0.623529 0 0 0 0 0.584314 0 0 0 0 0.85098 0 0 0 1 0"/>
            <feBlend mode="normal" in2="effect2_innerShadow_1899_94434" result="effect3_innerShadow_1899_94434"/>
        </filter>
        <filter id="filter3_f_1899_94434" x="3.5" y="13.5195" width="3.51001" height="6.94971" filterUnits="userSpaceOnUse" color-interpolation-filters="sRGB">
            <feFlood flood-opacity="0" result="BackgroundImageFix"/>
            <feBlend mode="normal" in="SourceGraphic" in2="BackgroundImageFix" result="shape"/>
            <feGaussianBlur stdDeviation="0.25" result="effect1_foregroundBlur_1899_94434"/>
        </filter>
        <filter id="filter4_f_1899_94434" x="15.5" y="13.4785" width="4.3103" height="8.02197" filterUnits="userSpaceOnUse" color-interpolation-filters="sRGB">
            <feFlood flood-opacity="0" result="BackgroundImageFix"/>
            <feBlend mode="normal" in="SourceGraphic" in2="BackgroundImageFix" result="shape"/>
            <feGaussianBlur stdDeviation="0.25" result="effect1_foregroundBlur_1899_94434"/>
        </filter>
        <filter id="filter5_d_1899_94434" x="29.5" y="11.5" width="8" height="10" filterUnits="userSpaceOnUse" color-interpolation-filters="sRGB">
            <feFlood flood-opacity="0" result="BackgroundImageFix"/>
            <feColorMatrix in="SourceAlpha" type="matrix" values="0 0 0 0 0 0 0 0 0 0 0 0 0 0 0 0 0 0 127 0" result="hardAlpha"/>
            <feOffset dx="-0.5" dy="0.5"/>
            <feGaussianBlur stdDeviation="0.5"/>
            <feComposite in2="hardAlpha" operator="out"/>
            <feColorMatrix type="matrix" values="0 0 0 0 0 0 0 0 0 0 0 0 0 0 0 0 0 0 0.08 0"/>
            <feBlend mode="normal" in2="BackgroundImageFix" result="effect1_dropShadow_1899_94434"/>
            <feBlend mode="normal" in="SourceGraphic" in2="effect1_dropShadow_1899_94434" result="shape"/>
        </filter>
        <linearGradient id="paint0_linear_1899_94434" x1="33" y1="11" x2="33" y2="21" gradientUnits="userSpaceOnUse">
            <stop stop-color="#C4AEF7"/>
            <stop offset="1" stop-color="#9992D6"/>
        </linearGradient>
    </defs>
<g filter="url(#filter0_iiiiii_1899_94434)">
<path d="M35 16C35 25.665 27.165 28 17.5 28C7.83502 28 0 25.665 0 16C0 6.33502 6.33502 0 16 0C25.665 0 35 6.33502 35 16Z" fill="#DFDBFB"/>
</g>
<g filter="url(#filter1_ii_1899_94434)">
<path d="M25.5 17.5C25.5 25.5 19.6797 25.5 12.5 25.5C5.3203 25.5 0 22.5 0 18C0 11.6487 3 6 12.5 6C23 6 25.5 13 25.5 17.5Z" fill="#7C6CE9"/>
</g>
<path d="M25.25 17.5C25.25 19.4713 24.8913 20.9237 24.2626 21.9988C23.6362 23.07 22.7299 23.7873 21.5946 24.2699C20.4541 24.7547 19.084 25.0017 17.5402 25.1258C15.9968 25.2498 14.2974 25.25 12.5 25.25C8.94104 25.25 5.86328 24.5059 3.68452 23.2221C1.50869 21.9401 0.25 20.1363 0.25 18C0.25 14.8591 0.992248 11.9274 2.87534 9.78324C4.75307 7.64521 7.80091 6.25 12.5 6.25C17.6894 6.25 20.8639 7.97678 22.7459 10.2231C24.6353 12.4782 25.25 15.2902 25.25 17.5Z" stroke="black" stroke-opacity="0.08" stroke-width="0.5"/>
<g filter="url(#filter2_iii_1899_94434)">
<path fill-rule="evenodd" clip-rule="evenodd" d="M23.1835 21.3678C23.6664 20.542 24 19.3279 24 17.5C24 15.4912 23.4366 12.9939 21.7877 11.0258C20.1831 9.11067 17.3866 7.5 12.5 7.5C8.05546 7.5 5.39344 8.81033 3.81455 10.6081C2.20349 12.4425 1.5 15.0328 1.5 18C1.5 19.5675 2.40179 21.0155 4.31908 22.1452C6.25392 23.2852 9.09549 24 12.5 24C14.3098 24 15.9562 23.9991 17.44 23.8798C18.9265 23.7604 20.1437 23.5284 21.1056 23.1195C22.0362 22.7239 22.7146 22.1698 23.1835 21.3678ZM12.5 25.5C19.6797 25.5 25.5 25.5 25.5 17.5C25.5 13 23 6 12.5 6C3 6 0 11.6487 0 18C0 22.5 5.3203 25.5 12.5 25.5Z" fill="#C9B9F2"/>
</g>
<g filter="url(#filter3_f_1899_94434)">
<path fill-rule="evenodd" clip-rule="evenodd" d="M5.24775 14.0228C6.00144 13.9606 6.59538 14.8024 6.5 15.4999C6.31366 16.8627 6.33129 17.416 6.49311 18.4022C6.60669 19.0945 6.05257 20.0127 5.28071 19.9675C4.70747 19.9338 4.28704 19.6922 4.17346 19C3.9474 17.6222 3.93938 16.7072 4.16657 15.0457C4.26195 14.3482 4.66847 14.0706 5.24775 14.0228Z" fill="#8CDEF8"/>
</g>
<g filter="url(#filter4_f_1899_94434)">
<path fill-rule="evenodd" clip-rule="evenodd" d="M18 14.0001C18.8303 14.1417 19.1385 14.9558 19.2174 15.7805C19.3442 17.1061 19.3418 18.1271 19.2062 19.1668C19.0991 19.9883 18.8851 20.7786 18.0774 20.9628C17.2697 21.147 16.4656 20.6416 16.2814 19.834C15.9147 18.2264 15.9017 17.1588 16.2702 15.2202C16.4249 14.4064 17.1851 13.8612 18 14.0001Z" fill="#8CDEF8"/>
</g>
<ellipse cx="33" cy="16" rx="4" ry="5" fill="url(#paint0_linear_1899_94434)"/>
<g filter="url(#filter5_d_1899_94434)">
<ellipse cx="34" cy="16" rx="3" ry="4" fill="#F3F8FC"/>
</g>
<path d="M16.383 28.4201C16.0151 30.3265 16.5 29.4192 13.644 29.4192C10.7881 29.4192 11.3166 28.2861 11.4736 27.4727C11.6305 26.6593 12.8568 26.212 14.2125 26.4736C15.5682 26.7352 16.5399 27.6067 16.383 28.4201Z" fill="#7B69DB"/>
<ellipse cx="13.7388" cy="28.9285" rx="2.5" ry="1.5" transform="rotate(10.9229 13.7388 28.9285)" fill="#6663D3"/>
</svg>
