<svg width="24" height="24" viewBox="0 0 24 24" fill="none" xmlns="http://www.w3.org/2000/svg">
    <path fill-rule="evenodd" clip-rule="evenodd" d="M11.9996 2.5C11.7235 2.5 11.4996 2.72386 11.4996 3V13.6484L8.77924 10.4746C8.59953 10.2649 8.28388 10.2407 8.07421 10.4204C7.86455 10.6001 7.84027 10.9157 8.01998 11.1254L11.62 15.3254C11.715 15.4362 11.8536 15.5 11.9996 15.5C12.1456 15.5 12.2842 15.4362 12.3792 15.3254L15.9792 11.1254C16.1589 10.9157 16.1347 10.6001 15.925 10.4204C15.7153 10.2407 15.3997 10.2649 15.22 10.4746L12.4996 13.6484V3C12.4996 2.72386 12.2758 2.5 11.9996 2.5ZM20.3996 13.9C20.1235 13.9 19.8996 14.1239 19.8996 14.4V18.4C19.8996 19.2284 19.228 19.9 18.3996 19.9H5.59961C4.77118 19.9 4.09961 19.2284 4.09961 18.4V14.4C4.09961 14.1239 3.87575 13.9 3.59961 13.9C3.32347 13.9 3.09961 14.1239 3.09961 14.4V18.4C3.09961 19.7807 4.2189 20.9 5.59961 20.9H18.3996C19.7803 20.9 20.8996 19.7807 20.8996 18.4V14.4C20.8996 14.1239 20.6758 13.9 20.3996 13.9Z" fill="white"/>
</svg>