<svg width="148" height="148" viewBox="0 0 148 148" fill="none" xmlns="http://www.w3.org/2000/svg">
<path opacity="0.5" d="M99.6988 15.5954C99.6988 15.5954 97.1429 15.3894 95.4622 11.7475C94.616 9.91434 92.8498 10.9028 90.8829 11.9605C88.9422 13.0037 86.8062 14.1139 85.1648 12.6471C80.6505 8.61375 79.766 9.98265 78.2268 11.5754C77.0885 12.7534 75.5919 14.054 72.0046 13.3834C67.5929 12.559 64.8115 16.1348 66.499 18.4661C68.3715 21.0527 73.2045 21.2765 77.5935 20.7989C79.3508 20.6077 83.5935 18.4661 88.6462 20.4494C92.6605 22.0251 97.1364 18.9085 99.5195 19.5077C104.994 20.884 99.6988 15.5954 99.6988 15.5954Z" fill="#D1D1D1"/>
<path opacity="0.5" d="M71.9545 138.578C71.9545 138.578 69.6826 138.409 68.1886 135.43C67.4365 133.93 65.8665 134.739 64.1181 135.604C62.3931 136.458 60.4944 137.366 59.0354 136.166C55.0226 132.866 54.2365 133.986 52.8683 135.289C51.8564 136.253 50.5261 137.317 47.3374 136.768C43.4159 136.094 40.9435 139.019 42.4435 140.927C44.108 143.043 48.404 143.226 52.3054 142.835C53.8674 142.679 57.6387 140.927 62.1299 142.55C65.6982 143.839 69.6768 141.289 71.7951 141.779C76.6614 142.905 71.9545 138.578 71.9545 138.578Z" fill="#D1D1D1"/>
<path opacity="0.5" d="M123.187 96.6127C123.187 96.6127 120.064 96.3693 118.009 92.0652C116.975 89.8988 114.816 91.067 112.412 92.3169C110.041 93.5499 107.43 94.8618 105.424 93.1284C99.9061 88.3617 98.8251 89.9795 96.9438 91.8618C95.5526 93.254 93.7234 94.7911 89.339 93.9986C83.9469 93.0243 80.5473 97.2502 82.6099 100.005C84.8985 103.062 90.8055 103.327 96.1699 102.762C98.3176 102.536 103.503 100.005 109.679 102.349C114.585 104.212 120.056 100.528 122.968 101.236C129.659 102.863 123.187 96.6127 123.187 96.6127Z" fill="#D1D1D1"/>
<path d="M117.304 51.6923C113.314 46.3616 106.33 52.3586 109.656 57.6893C108.104 57.6893 105 58.2224 105 60.3547C105 63.0201 117.653 62.0205 121.644 60.3547C125.635 58.6889 126.965 63.02 131.953 61.3541C136.942 59.6882 149.23 59.6884 147.9 56.6898C146.57 53.6913 141.581 56.3567 140.916 55.024C140.251 53.6913 139.919 48.6937 133.6 52.6917C127.281 56.6898 131.937 45.362 124.288 46.0284C116.64 46.6947 121.295 57.023 117.304 51.6923Z" fill="#D1D1D1"/>
<path d="M16.8703 94.6538C12.6466 96.9505 6.42289 99.0726 9.98048 104.561C8.32032 104.561 5 105.11 5 107.306C5 110.05 18.5361 109.021 22.8054 107.306C27.0747 105.591 28.4976 110.05 33.8339 108.335C39.1703 106.62 52.316 106.62 50.893 103.532C49.4699 100.445 44.1336 103.189 43.422 101.817C42.7105 100.445 42.3548 95.299 35.5953 99.4156C28.8359 103.532 23.4481 91.0771 16.8703 94.6538Z" fill="#D1D1D1"/>
<path d="M112.254 104.52L103.113 113.661L95.7288 106.278L104.87 97.1356L112.254 104.52Z" fill="#4C575D"/>
<path d="M104.906 98.2196L96.8128 106.312C95.8284 107.297 94.2316 107.297 93.2473 106.312L89.1187 102.184L100.777 90.5254L104.906 94.6543C105.89 95.6388 105.89 97.2351 104.906 98.2196Z" fill="#272B2F"/>
<path opacity="0.34" d="M90.7306 93.2389C74.4313 109.537 48.0062 109.537 31.7068 93.2389C15.4075 76.9396 15.4075 50.5151 31.7068 34.2161C48.0062 17.9168 74.4313 17.9168 90.7306 34.2161C107.029 50.5151 107.029 76.9396 90.7306 93.2389Z" fill="#6990D2"/>
<path d="M30.0648 32.5741C21.7433 40.8954 17.1605 51.959 17.1605 63.7272C17.1605 75.4954 21.7433 86.5592 30.0648 94.8807C38.3861 103.202 49.4501 107.785 61.2177 107.785C72.9863 107.785 84.0499 103.202 92.3713 94.8807C100.693 86.5592 105.276 75.4954 105.276 63.7272C105.276 51.959 100.693 40.8954 92.3713 32.5741C84.0499 24.2528 72.9863 19.669 61.219 19.669C49.4501 19.669 38.3861 24.2528 30.0648 32.5741ZM96.0207 98.5297C91.3228 103.227 85.8448 106.865 79.7383 109.341C73.8403 111.733 67.6094 112.945 61.2177 112.945C54.8273 112.945 48.5962 111.733 42.6987 109.341C36.5916 106.865 31.1132 103.227 26.4157 98.5297C21.7181 93.8321 18.0806 88.3537 15.6042 82.2467C13.2126 76.3493 12 70.1183 12 63.7272C12 57.3359 13.2126 51.1051 15.6042 45.2071C18.0806 39.1005 21.7183 33.6225 26.4157 28.9247C31.1132 24.2268 36.5916 20.5891 42.6987 18.1125C48.5962 15.7215 54.8273 14.5085 61.219 14.5085C67.6094 14.5085 73.8403 15.7215 79.7383 18.1125C85.8448 20.5891 91.3228 24.2268 96.0207 28.9247C100.719 33.6225 104.356 39.1005 106.833 45.2071C109.224 51.1051 110.437 57.3359 110.437 63.7272C110.437 70.1183 109.224 76.3493 106.833 82.2467C104.356 88.3537 100.719 93.8321 96.0207 98.5297Z" fill="#272B2F"/>
<path opacity="0.67" d="M33.319 83.2244C33.8919 84.2515 33.5225 85.5479 32.4962 86.1199C31.4689 86.6927 30.1727 86.3233 29.6006 85.297C29.0277 84.2698 29.3963 82.9744 30.4234 82.4016C31.4498 81.8295 32.7461 82.1972 33.319 83.2244Z" fill="white"/>
<path opacity="0.67" d="M43.4817 44.3465C31.6379 56.4852 30.0131 57.9203 29.4284 76.2027C29.4 77.0831 28.9759 77.8959 28.121 78.112C27.2791 78.3264 26.4016 77.8923 26.0721 77.0867C20.7875 64.1993 23.1557 48.4337 32.1149 37.7398C33.1841 36.4619 34.4613 35.1854 36.107 34.9133C38.052 34.5906 39.9011 35.7531 41.5294 36.865C43.3995 38.1402 46.3698 41.3853 43.4817 44.3465Z" fill="white"/>
<path d="M135.257 136.663C132.141 139.779 127.089 139.779 123.974 136.663L100.797 113.487C99.9151 112.605 99.9151 111.173 100.797 110.29L108.884 102.205C109.766 101.322 111.198 101.322 112.08 102.205L135.257 125.38C138.372 128.496 138.372 133.548 135.257 136.663Z" fill="#272B2F"/>
</svg>
