<svg width="24" height="24" viewBox="0 0 24 24" fill="none" xmlns="http://www.w3.org/2000/svg">
<path fill-rule="evenodd" clip-rule="evenodd" d="M17.5 11C17.5 14.0376 15.0376 16.5 12 16.5C8.96243 16.5 6.5 14.0376 6.5 11C6.5 7.96243 8.96243 5.5 12 5.5C15.0376 5.5 17.5 7.96243 17.5 11ZM16.3974 16.4467C15.1956 17.4182 13.6657 18 12 18C8.13401 18 5 14.866 5 11C5 7.13401 8.13401 4 12 4C15.866 4 19 7.13401 19 11C19 12.6657 18.4182 14.1956 17.4467 15.3974C17.4759 15.4191 17.5038 15.4432 17.5303 15.4697L21.5303 19.4697C21.8232 19.7626 21.8232 20.2374 21.5303 20.5303C21.2374 20.8232 20.7626 20.8232 20.4697 20.5303L16.4697 16.5303C16.4432 16.5038 16.4191 16.4759 16.3974 16.4467Z" fill="black" fill-opacity="0.38"/>
</svg>
