<svg width="24" height="24" viewBox="0 0 24 24" fill="none" xmlns="http://www.w3.org/2000/svg">
<path fill-rule="evenodd" clip-rule="evenodd" d="M19.0678 2.25C19.4821 2.25 19.8178 2.58579 19.8178 3V4.75H21.5678C21.9821 4.75 22.3178 5.08579 22.3178 5.5C22.3178 5.91421 21.9821 6.25 21.5678 6.25H19.8178V8C19.8178 8.41421 19.4821 8.75 19.0678 8.75C18.6536 8.75 18.3178 8.41421 18.3178 8V6.25H16.5679C16.1536 6.25 15.8179 5.91421 15.8179 5.5C15.8179 5.08579 16.1536 4.75 16.5679 4.75H18.3178V3C18.3178 2.58579 18.6536 2.25 19.0678 2.25ZM11.2589 4.75C9.74012 4.75 8.5089 5.98122 8.5089 7.5C8.5089 9.01878 9.74012 10.25 11.2589 10.25C12.7777 10.25 14.0089 9.01878 14.0089 7.5C14.0089 5.98122 12.7777 4.75 11.2589 4.75ZM7.0089 7.5C7.0089 5.15279 8.91169 3.25 11.2589 3.25C13.6061 3.25 15.5089 5.15279 15.5089 7.5C15.5089 9.84721 13.6061 11.75 11.2589 11.75C8.91169 11.75 7.0089 9.84721 7.0089 7.5ZM11.2589 13.75C7.56094 13.75 4.54042 15.9768 3.72778 19.2023C3.61008 19.6695 3.99798 20.25 4.75764 20.25H17.7602C18.5198 20.25 18.9077 19.6695 18.79 19.2023C17.9774 15.9768 14.9569 13.75 11.2589 13.75ZM2.27323 18.8359C3.2741 14.8633 6.96048 12.25 11.2589 12.25C15.5573 12.25 19.2437 14.8633 20.2446 18.8359C20.6666 20.5109 19.2096 21.75 17.7602 21.75H4.75764C3.30817 21.75 1.85122 20.5109 2.27323 18.8359Z" fill="#5128D4"/>
</svg>
