<svg width="26" height="24" viewBox="0 0 26 24" fill="none" xmlns="http://www.w3.org/2000/svg">
    <path
        d="M25.4345 9.55153C25.2831 8.78172 24.8161 8.28954 24.2482 8.28954H24.122C22.431 8.28954 21.0554 6.91397 21.0554 5.22291C21.0554 4.68025 21.333 4.06188 21.333 4.06188C21.6359 3.38041 21.4088 2.56011 20.7904 2.11842L20.7399 2.09318L17.6607 0.376874L17.6102 0.364254C17.4083 0.275915 17.1937 0.225435 16.9413 0.225435C16.4618 0.225435 15.9948 0.427353 15.6793 0.74285C15.3512 1.08359 14.1776 2.1058 13.2689 2.1058C12.3603 2.1058 11.1866 1.08359 10.8459 0.730231C10.5304 0.402113 10.0635 0.200195 9.58392 0.200195C9.35676 0.200195 9.14223 0.250675 8.94031 0.326394L8.88983 0.339014L5.70962 2.1058L5.65914 2.13104C5.05338 2.54749 4.8136 3.38041 5.11648 4.06188C5.11648 4.06188 5.3815 4.68025 5.3815 5.22291C5.3815 6.91397 4.00593 8.28954 2.31487 8.28954H2.18867C1.59553 8.28954 1.1286 8.78172 1.0024 9.55153C0.989778 9.61463 0.75 10.9523 0.75 11.9998C0.75 13.0346 1.0024 14.3849 1.0024 14.448C1.15384 15.2179 1.62077 15.71 2.18867 15.71H2.32749C4.01855 15.71 5.39412 17.0856 5.39412 18.7767C5.39412 19.3193 5.14172 19.9377 5.1291 19.9377C4.82622 20.6192 5.05338 21.4395 5.67176 21.8812L5.697 21.9064L8.72577 23.6101L8.77625 23.6227C8.97817 23.711 9.19271 23.7615 9.41986 23.7615C9.89942 23.7615 10.379 23.5596 10.6819 23.2189C11.1235 22.7519 12.2846 21.7928 13.1427 21.7928C14.0766 21.7928 15.2881 22.8781 15.6288 23.2567C15.9443 23.5975 16.4113 23.7994 16.9161 23.7994C17.1432 23.7994 17.3578 23.7489 17.5597 23.6606L17.6102 23.6479L20.7651 21.919L20.8156 21.8938C21.4214 21.4773 21.6612 20.6444 21.3583 19.9629C21.3583 19.9629 21.0933 19.3446 21.0933 18.8019C21.0933 17.1108 22.4688 15.7353 24.1599 15.7353H24.2861C24.8792 15.7353 25.3462 15.2431 25.4976 14.4733C25.4976 14.4607 25.75 13.0977 25.75 12.025C25.6995 10.9523 25.4471 9.60201 25.4345 9.55153ZM13.168 16.4041C10.7197 16.4041 8.75101 14.4102 8.75101 11.9872C8.75101 9.53891 10.745 7.57021 13.168 7.57021C15.6162 7.57021 17.5849 9.56415 17.5849 11.9872C17.5849 14.4102 15.6036 16.4041 13.168 16.4041Z"
        fill="#007AFF" fill-opacity="1" />
</svg>