<svg width="28" height="28" viewBox="0 0 28 28" fill="none" xmlns="http://www.w3.org/2000/svg">
    <rect width="28" height="28" rx="8" fill="#EA445A"/>
    <path fill-rule="evenodd" clip-rule="evenodd" d="M14 23C18.9706 23 23 18.9706 23 14C23 9.02944 18.9706 5 14 5C9.02944 5 5 9.02944 5 14C5 18.9706 9.02944 23 14 23ZM14.75 8.00007C14.75 7.58586 14.4142 7.25007 14 7.25007C13.5858 7.25007 13.25 7.58586 13.25 8.00007V14C13.25 14.2309 13.3564 14.449 13.5384 14.5911C13.7205 14.7333 13.9578 14.7836 14.1819 14.7276L18.1819 13.7277C18.5837 13.6272 18.8281 13.22 18.7276 12.8182C18.6272 12.4163 18.22 12.172 17.8181 12.2725L14.75 13.0394V8.00007Z" fill="white"/>
</svg>
