<svg width="15" height="19" viewBox="0 0 15 19" fill="none" xmlns="http://www.w3.org/2000/svg">
<path d="M2.60645 18.7642C1.73763 18.7642 1.08464 18.5483 0.647461 18.1167C0.21582 17.6906 0 17.0487 0 16.1909V7.90674C0 7.04899 0.21582 6.40706 0.647461 5.98096C1.08464 5.54932 1.73763 5.3335 2.60645 5.3335H5.10498V6.66992H2.62305C2.20801 6.66992 1.88981 6.7806 1.66846 7.00195C1.4471 7.22331 1.33643 7.5498 1.33643 7.98145V16.1162C1.33643 16.5479 1.4471 16.8743 1.66846 17.0957C1.88981 17.3171 2.20801 17.4277 2.62305 17.4277H12.1025C12.512 17.4277 12.8302 17.3171 13.0571 17.0957C13.284 16.8743 13.3975 16.5479 13.3975 16.1162V7.98145C13.3975 7.5498 13.284 7.22331 13.0571 7.00195C12.8302 6.7806 12.512 6.66992 12.1025 6.66992H9.62891V5.3335H12.1274C12.9963 5.3335 13.6465 5.54932 14.0781 5.98096C14.5153 6.4126 14.7339 7.05452 14.7339 7.90674V16.1909C14.7339 17.0431 14.5153 17.6851 14.0781 18.1167C13.6465 18.5483 12.9963 18.7642 12.1274 18.7642H2.60645ZM7.36279 12.2646C7.18571 12.2646 7.03076 12.201 6.89795 12.0737C6.77067 11.9465 6.70703 11.7943 6.70703 11.6172V3.09229L6.75684 1.84717L6.19238 2.43652L4.93896 3.78125C4.82275 3.91406 4.67057 3.98047 4.48242 3.98047C4.30534 3.98047 4.16146 3.92513 4.05078 3.81445C3.9401 3.70378 3.88477 3.56266 3.88477 3.39111C3.88477 3.23617 3.94841 3.09229 4.07568 2.95947L6.88135 0.253418C6.96989 0.17041 7.05013 0.112305 7.12207 0.0791016C7.19954 0.0458984 7.27979 0.0292969 7.36279 0.0292969C7.45133 0.0292969 7.53158 0.0458984 7.60352 0.0791016C7.68099 0.112305 7.76123 0.17041 7.84424 0.253418L10.6499 2.95947C10.7827 3.09229 10.8491 3.23617 10.8491 3.39111C10.8491 3.56266 10.791 3.70378 10.6748 3.81445C10.5586 3.92513 10.4147 3.98047 10.2432 3.98047C10.0605 3.98047 9.91113 3.91406 9.79492 3.78125L8.5332 2.43652L7.97705 1.84717L8.02686 3.09229V11.6172C8.02686 11.7943 7.96045 11.9465 7.82764 12.0737C7.70036 12.201 7.54541 12.2646 7.36279 12.2646Z" fill="#007AFF"/>
</svg>
