<svg width="24" height="24" viewBox="0 0 24 24" fill="none" xmlns="http://www.w3.org/2000/svg">
<path d="M3 14.5831C3 14.2611 3.26107 14 3.58311 14H5.41689C5.73893 14 6 14.2611 6 14.5831V19H3V14.5831Z" fill="white"/>
<path d="M8 12.5831C8 12.2611 8.26107 12 8.58311 12H10.4169C10.7389 12 11 12.2611 11 12.5831V19H8V12.5831Z" fill="white"/>
<path d="M13 9.58311C13 9.26107 13.2611 9 13.5831 9H15.4169C15.7389 9 16 9.26107 16 9.58311V19H13V9.58311Z" fill="white"/>
<path opacity="0.36" d="M18 6.58311C18 6.26107 18.2611 6 18.5831 6H20.4169C20.7389 6 21 6.26107 21 6.58311V19H18V6.58311Z" fill="white"/>
</svg>
