<svg width="24" height="24" viewBox="0 0 24 24" fill="none" xmlns="http://www.w3.org/2000/svg">
<path fill-rule="evenodd" clip-rule="evenodd" d="M19.9258 6.15529C20.1922 5.83814 20.6653 5.79702 20.9825 6.06346C22.6733 7.48394 23.75 9.6165 23.75 11.9998C23.75 14.3832 22.6733 16.5157 20.9825 17.9362C20.6653 18.2026 20.1922 18.1615 19.9258 17.8444C19.6594 17.5272 19.7005 17.0541 20.0176 16.7877C21.3837 15.64 22.25 13.9215 22.25 11.9998C22.25 10.0782 21.3837 8.35963 20.0176 7.21197C19.7005 6.94553 19.6594 6.47244 19.9258 6.15529ZM17.7429 8.32123C17.9865 7.98619 18.4555 7.91203 18.7905 8.15559C19.9765 9.01775 20.75 10.4185 20.75 11.9998C20.75 13.5812 19.9765 14.9819 18.7905 15.8441C18.4555 16.0876 17.9865 16.0135 17.7429 15.6784C17.4993 15.3434 17.5735 14.8743 17.9085 14.6308C18.723 14.0387 19.25 13.0809 19.25 11.9998C19.25 10.9188 18.723 9.96094 17.9085 9.36887C17.5735 9.12531 17.4993 8.65626 17.7429 8.32123Z" fill="#121212"/>
<path fill-rule="evenodd" clip-rule="evenodd" d="M11.976 3.58553C13.5542 2.24727 16 3.35084 16 5.40121V18.5988C16 20.6494 13.5541 21.7526 11.9761 20.4145L7.71036 16.7972C7.64728 16.7437 7.56669 16.7142 7.48333 16.7142H3.82609C1.71301 16.7142 0 15.0281 0 12.9481V11.0519C0 8.97198 1.71299 7.28588 3.82609 7.28588H7.48333C7.56667 7.28588 7.64723 7.25643 7.71035 7.2029L11.976 3.58553Z" fill="#121212"/>
<path fill-rule="evenodd" clip-rule="evenodd" d="M11.976 3.58553C13.5542 2.24727 16 3.35084 16 5.40121V18.5988C16 20.6494 13.5541 21.7526 11.9761 20.4145L7.71036 16.7972C7.64728 16.7437 7.56669 16.7142 7.48333 16.7142H3.82609C1.71301 16.7142 0 15.0281 0 12.9481V11.0519C0 8.97198 1.71299 7.28588 3.82609 7.28588H7.48333C7.56667 7.28588 7.64723 7.25643 7.71035 7.2029L11.976 3.58553Z" fill="#121212"/>
</svg>
