<svg width="40" height="40" viewBox="0 0 40 40" fill="none" xmlns="http://www.w3.org/2000/svg">
<rect width="40" height="40" rx="8" fill="#EB4B35"/>
<path d="M19.0941 9.93739C19.4535 9.1688 20.5465 9.1688 20.9059 9.93738L23.1796 14.8003C23.3254 15.112 23.6211 15.3269 23.9626 15.3692L29.2902 16.0289C30.1322 16.1332 30.47 17.1727 29.85 17.752L25.9277 21.4172C25.6763 21.6522 25.5634 21.9998 25.6287 22.3377L26.6475 27.6084C26.8085 28.4414 25.9243 29.0839 25.1818 28.6733L20.4839 26.0756C20.1828 25.9091 19.8172 25.9091 19.5161 26.0756L14.8182 28.6733C14.0757 29.0839 13.1915 28.4414 13.3525 27.6084L14.3713 22.3377C14.4366 21.9998 14.3237 21.6522 14.0723 21.4172L10.15 17.752C9.53004 17.1727 9.86779 16.1332 10.7098 16.0289L16.0374 15.3692C16.3789 15.3269 16.6746 15.112 16.8204 14.8003L19.0941 9.93739Z" fill="white"/>
</svg>
