<svg width="16" height="16" viewBox="0 0 16 16" fill="none" xmlns="http://www.w3.org/2000/svg">
<path fill-rule="evenodd" clip-rule="evenodd" d="M7.27727 8.48019C8.68446 8.48019 9.82522 7.33943 9.82522 5.93223C9.82522 4.52504 8.68446 3.38428 7.27727 3.38428C5.87007 3.38428 4.72931 4.52504 4.72931 5.93223C4.72931 7.33943 5.87007 8.48019 7.27727 8.48019ZM11.5123 14.1416C12.145 14.1416 12.6712 13.6221 12.5334 13.0046C12.0064 10.6434 9.85353 9.04574 7.27776 9.04574C4.70199 9.04574 2.54908 10.6434 2.02212 13.0046C1.8843 13.6221 2.41048 14.1416 3.04322 14.1416H7.27776H11.5123Z" fill="#596A95"/>
<path fill-rule="evenodd" clip-rule="evenodd" d="M8.00928 2.40513C9.64846 2.74336 10.8808 4.19489 10.8808 5.93424C10.8808 6.18462 10.8552 6.42904 10.8066 6.66503C11.488 6.2077 11.9363 5.43019 11.9363 4.54796C11.9363 3.14076 10.7956 2 9.38838 2C8.88021 2 8.40678 2.14877 8.00928 2.40513ZM13.5591 12.7574H13.6234C14.2562 12.7574 14.7823 12.2378 14.6445 11.6203C14.1878 9.57387 12.5098 8.10101 10.3937 7.74467C10.2381 8.01189 10.0491 8.25727 9.8325 8.47512C11.6767 9.20829 13.1006 10.7348 13.5591 12.7574Z" fill="#596A95"/>
</svg>
