<svg width="30" height="26" viewBox="0 0 30 26" fill="none" xmlns="http://www.w3.org/2000/svg">
<path d="M9.26232 16.2658C9.26232 15.7107 9.71408 15.259 10.2691 15.259C10.8241 15.259 11.2759 15.7107 11.2759 16.2658C11.2759 16.8208 10.8241 17.2725 10.2691 17.2725C9.71408 17.2725 9.26232 16.8208 9.26232 16.2658Z" fill="#121212" fill-opacity="0.32"/>
<path fill-rule="evenodd" clip-rule="evenodd" d="M8.26519 2H21.7348C24.0868 2 26 3.91317 26 6.26519V19.8983C26 22.2503 24.0868 24.1635 21.7348 24.1635H8.26519C5.91317 24.1635 4 22.2503 4 19.8983V6.26519C4 3.91317 5.91317 2 8.26519 2ZM7.54094 16.267C7.54094 17.7714 8.76428 18.9948 10.2687 18.9948C11.7717 18.9948 12.9965 17.7714 12.9965 16.267C12.9965 14.7626 11.7731 13.5392 10.2687 13.5392C8.76428 13.5392 7.54094 14.7626 7.54094 16.267ZM10.5885 10.9592L13.1155 8.54263C13.4583 8.21421 13.4698 7.66923 13.1413 7.32503C13.0633 7.24329 12.97 7.17774 12.8666 7.13212C12.7632 7.0865 12.6519 7.06172 12.5389 7.05919C12.4259 7.05666 12.3136 7.07643 12.2083 7.11737C12.103 7.15831 12.0068 7.21962 11.9252 7.29778L9.98044 9.15789L8.95359 8.21851C8.78489 8.06489 8.56219 7.98437 8.33425 7.99458C8.10631 8.00479 7.8917 8.10491 7.73742 8.27301C7.58379 8.44171 7.50327 8.66441 7.51348 8.89235C7.5237 9.12029 7.62382 9.3349 7.79192 9.48918L9.41252 10.9721C9.57745 11.1227 9.7854 11.1973 9.99335 11.1973C10.2151 11.1979 10.4284 11.1126 10.5885 10.9592ZM15.5808 17.1275H22.0073C22.482 17.1275 22.8678 16.7417 22.8678 16.267C22.8678 15.7923 22.482 15.4065 22.0073 15.4065H15.5808C15.1061 15.4065 14.7203 15.7923 14.7203 16.267C14.7203 16.7417 15.1061 17.1275 15.5808 17.1275ZM15.5808 9.9897H22.0073C22.482 9.9897 22.8678 9.60391 22.8678 9.12921C22.8678 8.6545 22.482 8.26871 22.0073 8.26871H15.5808C15.1061 8.26871 14.7203 8.6545 14.7203 9.12921C14.7203 9.60391 15.1061 9.9897 15.5808 9.9897Z" fill="#121212" fill-opacity="1"/>
</svg>
