<svg width="148" height="148" viewBox="0 0 148 148" fill="none" xmlns="http://www.w3.org/2000/svg">
<g clip-path="url(#clip0_6148_1337833)">
<ellipse cx="74" cy="140" rx="74" ry="8.5" fill="#121212" fill-opacity="0.08"/>
<path d="M97.1507 6.89107C97.1507 6.89107 89.069 19.8757 99.979 21.2895C110.889 22.7032 97.1507 6.89107 97.1507 6.89107Z" fill="black"/>
<path d="M100.773 9.2505C100.773 9.2505 97.713 0.98873 94.1605 4.26993C90.6088 7.55189 97.4674 12.8799 97.4674 12.8799L100.773 9.2505Z" fill="black"/>
<path d="M113.175 24.7962C113.175 24.7962 120.477 27.3562 124.884 41.4087L115.463 47.5964L111.987 51.1611L113.175 24.7962Z" fill="black"/>
<path d="M119.125 122.402V128.94L129.877 128.479V122.402H119.125Z" fill="#FFAB94"/>
<path d="M92.5322 121.713V127.832L103.193 127.4V121.713H92.5322Z" fill="#FFAB94"/>
<path d="M115.689 54.2714C115.689 54.2714 123.999 67.4332 128.925 88.5079C133.418 107.731 134.385 123.629 134.385 123.629H114.953C114.953 123.629 112.791 107.957 112.216 101.755C111.639 95.5541 109.724 87.2523 109.724 87.2523C109.724 87.2523 107.057 123.024 106.421 123.629C105.785 124.235 87.1825 123.763 87.3815 122.941C87.5812 122.12 91.6001 64.2612 92.5324 60.4291C96.0291 46.0534 115.689 54.2714 115.689 54.2714Z" fill="#2B438A"/>
<path d="M105.84 137.945C105.84 139.025 105.477 140.26 104.735 140.571C103.991 140.882 97.9796 141.529 92.7195 141.072C87.6839 140.632 87.7517 140.813 87.3802 140.356C87.1985 140.122 86.4397 138.489 86.8451 137.444C86.8722 137.392 86.8888 137.332 86.9144 137.281C87.1224 136.753 87.338 136.244 87.494 135.881C87.6492 135.535 87.8391 135.208 88.0637 134.887C88.6078 134.136 89.6877 132.581 89.9643 131.778C90.3268 130.707 90.8799 128.392 91.2507 127.303C91.5318 126.493 94.8341 125.218 96.4257 124.644C96.9773 124.445 97.5689 124.397 98.1462 124.503C99.7529 124.798 103.07 125.454 103.629 125.921C104.363 126.535 104.735 131.631 104.735 132.4V133.169C104.735 133.885 105.227 135.302 105.547 136.477C105.632 136.77 105.702 137.047 105.754 137.297C105.806 137.548 105.84 137.764 105.84 137.945Z" fill="#6B2D2D"/>
<path d="M109.723 87.4404C109.605 87.4313 109.527 87.341 109.536 87.2367C109.542 87.1599 110.147 79.4582 110.323 76.0458C110.499 72.6358 110.506 71.0027 110.506 70.9869C110.506 70.9123 110.551 70.8452 110.618 70.815L116.914 68.0131C117.009 67.9717 117.119 68.0139 117.162 68.1089C117.204 68.2038 117.161 68.3146 117.067 68.3575L110.882 71.1105C110.877 71.5483 110.849 73.1678 110.7 76.0647C110.523 79.4823 109.918 87.1893 109.911 87.2662C109.904 87.3651 109.821 87.4404 109.723 87.4404Z" fill="#FF9500"/>
<path d="M101.496 24.3618C101.496 24.3618 95.8884 24.3414 92.8634 27.3559C89.8377 30.3703 92.3803 59.8717 92.3803 59.8717C92.3803 59.8717 102.837 61.125 108.561 59.8717C114.285 58.6177 117.539 56.8543 117.539 56.8543C117.539 56.8543 115.979 28.6965 114.405 25.7936C112.832 22.8908 101.496 24.3618 101.496 24.3618Z" fill="black"/>
<path d="M122.018 31.5685C122.018 31.5685 122.199 28.5361 121.364 26.5683C120.529 24.6002 118.094 21.8274 118.094 21.8274L122.385 15.9378C122.385 15.9378 134.365 22.8556 135.674 29.0765C136.752 34.1939 135.11 38.469 130.84 41.6153C126.886 44.5279 120.945 41.6152 120.945 41.6152L122.018 31.5685Z" fill="#FFAB94"/>
<path d="M115.691 17.9476C115.691 17.9476 111.659 15.1448 112.393 12.9997C112.504 12.6738 113.594 11.3766 116.211 12.5874C116.121 10.5279 122.359 14.9734 124.781 17.625C127.144 20.2126 121.164 20.4956 120.208 21.7935C119.014 23.414 117.296 21.5107 114.661 19.8029C110.99 17.4237 113.447 16.681 115.691 17.9476Z" fill="#FFAB94"/>
<path d="M118.711 13.5883C118.611 13.1808 118.391 12.8154 118.116 12.5003C116.723 11.3506 114.455 9.9076 113.424 10.1137C112.173 10.82 113.182 11.8103 113.182 11.8103C113.182 11.8103 111.573 10.912 111.335 12.2174C111.137 13.3083 112.335 13.5883 112.335 13.5883C112.335 13.5883 110.909 12.1846 111.194 13.8886C111.479 15.5919 114.944 17.9117 116.356 18.219C117.768 18.527 116.899 17.0705 116.899 17.0705C116.899 17.0705 118.277 17.5501 118.486 16.7158C118.707 15.833 117.607 15.2013 117.607 15.2013C117.607 15.2013 119.069 15.0531 118.711 13.5883Z" fill="#FFAB94"/>
<path d="M113.023 11.7554C113 11.8219 113.02 11.898 113.078 11.9437L117.089 15.1171C117.162 15.1744 117.269 15.1618 117.327 15.0888C117.382 15.0134 117.372 14.9092 117.299 14.8512L113.288 11.6778C113.214 11.6202 113.107 11.6329 113.05 11.7054C113.038 11.7214 113.029 11.7382 113.023 11.7554Z" fill="black"/>
<path d="M111.931 13.2624C111.908 13.3295 111.928 13.4059 111.988 13.4513L116.051 16.5863C116.126 16.6432 116.232 16.6297 116.289 16.5559C116.346 16.4816 116.332 16.3754 116.259 16.3186L112.194 13.1835C112.12 13.1265 112.015 13.1402 111.957 13.2141C111.946 13.2287 111.937 13.2458 111.931 13.2624Z" fill="black"/>
<path d="M116.114 17.0866C116.08 17.1349 116.087 17.2064 116.135 17.2606C116.193 17.3259 116.289 17.3414 116.349 17.2961C116.357 17.2907 117.205 17.2398 118.133 17.5612C118.932 17.8376 119.551 18.1563 120.117 19.5312C120.149 19.6083 120.238 19.6561 120.315 19.6379C120.392 19.6194 120.43 19.5422 120.398 19.4651C119.791 17.9911 119.096 17.6053 118.193 17.2924C117.106 16.9176 116.175 17.034 116.139 17.0613C116.129 17.0685 116.121 17.0769 116.114 17.0866Z" fill="black"/>
<path d="M113.589 24.9232C113.589 24.9232 116.767 26.2071 118.883 26.7714C119.92 27.0481 121.884 27.321 121.884 27.321C121.884 27.321 123.052 35.6533 125.304 40.468C126.021 42.0003 127.335 44.2942 127.335 44.2942C127.335 44.2942 116.988 46.5391 114.67 43.3735C112.351 40.2083 113.589 24.9232 113.589 24.9232Z" fill="black"/>
<path d="M86.1501 52.8339L84.5238 66.7823C84.5238 66.7823 83.7554 75.0041 84.0904 76.8836C84.4253 78.7631 88.2909 80.768 88.2909 80.768L88.3878 77.5566C88.3878 77.5566 87.8034 75.88 87.9689 74.4645C88.1386 73.0487 89.1733 74.5488 89.1733 74.5488L91.5663 70.372L93.9913 53.5055L86.1501 52.8339Z" fill="#FFAB94"/>
<path d="M86.3938 43.436C88.1731 36.7296 90.136 29.7957 92.9423 27.244L94.7518 46.4722L86.8684 45.5901C86.8684 45.5901 84.2024 51.6958 86.3938 43.436Z" fill="black"/>
<path d="M90.068 72.8692C90.01 72.8847 89.9434 72.8532 89.9064 72.7874C89.8196 72.6231 87.7675 68.7445 89.0201 66.8585C89.0677 66.79 89.1545 66.7808 89.2204 66.8384C89.2826 66.8965 89.2983 66.9988 89.2509 67.0681C88.1083 68.7855 90.1265 72.5952 90.1484 72.6333C90.189 72.7126 90.1689 72.8113 90.1027 72.854C90.0929 72.8607 90.0825 72.8653 90.068 72.8692Z" fill="black"/>
<path d="M99.9941 22.2525L100.027 25.9603C100.027 25.9603 101.442 27.1299 103.231 27.1299C105.648 27.1306 106.468 25.2609 106.468 25.2609L106.376 20.9156L99.9941 22.2525Z" fill="#FFAB94"/>
<path d="M99.9941 22.1555C99.9941 22.1555 101.724 25.717 104.459 25.2603C106.664 24.8933 106.375 21.2203 106.375 21.2203L99.9941 22.1555Z" fill="black"/>
<path d="M107.478 12.4801C107.478 12.4801 108.805 18.7863 106.799 21.8504C104.793 24.9131 102.104 24.069 100.891 23.1677C99.2532 21.9522 98.8937 20.2332 98.8937 20.2332C98.8937 20.2332 96.6781 20.7132 95.9071 18.9136C95.097 17.0236 96.4543 15.4644 97.5651 15.3551C98.6751 15.2458 98.807 15.4463 98.807 15.4463L98.4475 13.4183C98.4475 13.4183 105.078 5.79561 107.478 12.4801Z" fill="#FFAB94"/>
<path d="M106.458 15.4636C106.458 15.4636 109.801 13.9699 110.108 16.5736C110.462 19.5896 106.851 19.6777 106.851 19.6777L106.458 15.4636Z" fill="#FFAB94"/>
<path d="M108.178 18.1455C108.147 18.1455 108.115 18.1372 108.087 18.1214C107.995 18.0701 107.964 17.9556 108.014 17.8652L109.106 15.9201C109.157 15.8282 109.273 15.7973 109.362 15.8478C109.453 15.8983 109.484 16.0135 109.434 16.104L108.343 18.049C108.308 18.1108 108.244 18.1455 108.178 18.1455Z" fill="black"/>
<path d="M98.4907 18.374C98.4478 18.374 98.4048 18.3597 98.3702 18.3303L96.6308 16.8887C96.5502 16.8224 96.5397 16.704 96.606 16.6234C96.673 16.5435 96.7936 16.5322 96.8705 16.5985L98.6106 18.0402C98.6905 18.1065 98.7017 18.2248 98.6354 18.3055C98.5977 18.3499 98.5442 18.374 98.4907 18.374Z" fill="black"/>
<path d="M96.9111 18.6709C96.8553 18.6709 96.7988 18.646 96.7626 18.5978C96.6986 18.5164 96.7129 18.3981 96.7958 18.334L97.7951 17.5563C97.8749 17.4923 97.9948 17.5058 98.0588 17.5895C98.1229 17.6709 98.1086 17.7892 98.0257 17.8532L97.0264 18.631C96.9925 18.6573 96.9518 18.6709 96.9111 18.6709Z" fill="black"/>
<path d="M109.475 17.5459H108.514C108.41 17.5459 108.325 17.4615 108.325 17.3575C108.325 17.2535 108.41 17.1691 108.514 17.1691H109.475C109.578 17.1691 109.664 17.2535 109.664 17.3575C109.664 17.4615 109.578 17.5459 109.475 17.5459Z" fill="black"/>
<path d="M104.156 21C103.249 21 102.516 20.2539 102.482 20.217C102.409 20.1416 102.412 20.0226 102.485 19.9502C102.562 19.8794 102.681 19.8809 102.752 19.9547C102.761 19.9638 103.62 20.8478 104.515 20.5704C104.616 20.5426 104.719 20.5961 104.75 20.6955C104.78 20.7943 104.724 20.8998 104.625 20.9307C104.465 20.9796 104.308 21 104.156 21Z" fill="black"/>
<path d="M92.7958 68.2734C92.7362 68.2734 92.6782 68.2456 92.6413 68.1928C92.5817 68.1076 92.6028 67.9901 92.688 67.9306C95.93 65.6705 96.7771 62.3795 96.7854 62.3471C96.8102 62.2461 96.9142 62.1798 97.0137 62.2092C97.1147 62.2348 97.1757 62.3358 97.1516 62.4368C97.1169 62.5777 96.2661 65.8958 92.9035 68.2395C92.8711 68.2629 92.8334 68.2734 92.7958 68.2734Z" fill="#FF9500"/>
<path d="M146.79 140.105C147.048 140.075 147.227 139.825 147.186 139.556C146.995 138.281 146.297 134.716 144.315 133.172C141.881 131.273 136.719 130.436 134.861 129.165C133.002 127.896 130.953 124.876 129.818 125.42C128.685 125.963 126.519 128.516 123.468 128.089C120.417 127.661 119.02 126.893 118.183 127.619C117.345 128.345 116.681 138.707 117.022 139.331C117.363 139.954 121.682 139.464 122.055 139.571C122.428 139.679 123.533 137.229 124.231 137.613C124.93 137.996 125.769 139.171 126.799 139.722C127.76 140.237 143.699 140.461 146.79 140.105Z" fill="#6B2D2D"/>
<path d="M134.385 131.014C134.298 131.014 134.22 130.953 134.201 130.864C134.18 130.763 134.245 130.662 134.347 130.642C134.399 130.63 139.541 129.511 139.423 126.843C139.408 126.503 139.319 126.302 139.159 126.244C138.693 126.078 137.688 126.782 136.651 127.699C135.691 128.851 134.594 129.767 134.506 129.84C134.431 129.904 134.32 129.898 134.25 129.826C134.182 129.754 134.18 129.644 134.245 129.57C134.434 129.359 135.356 128.338 136.395 127.419C137.236 126.411 137.945 125.248 137.674 124.405C137.651 124.335 137.589 124.169 137.504 124.163C136.969 124.163 135.565 126.591 134.558 128.857C134.516 128.952 134.404 128.996 134.309 128.953C134.214 128.91 134.171 128.799 134.214 128.704C134.729 127.546 136.479 123.787 137.502 123.787C137.685 123.796 137.904 123.891 138.033 124.29C138.246 124.954 137.97 125.755 137.493 126.538C138.195 126.044 138.85 125.733 139.285 125.889C139.604 126.003 139.777 126.319 139.8 126.827C139.931 129.813 134.65 130.962 134.425 131.009C134.412 131.012 134.398 131.014 134.385 131.014Z" fill="black"/>
<path d="M98.4449 133.342C97.5925 133.342 96.9007 133.015 96.8872 133.009C96.7937 132.963 96.7545 132.851 96.7997 132.758C96.845 132.663 96.958 132.623 97.0514 132.67C97.1494 132.717 99.4766 133.808 100.623 131.558C100.857 131.097 100.866 130.861 100.796 130.795C100.543 130.556 99.1231 131.122 97.9595 131.806C97.8751 131.854 97.7704 131.833 97.7131 131.757C97.6558 131.682 97.6641 131.574 97.7327 131.508C98.3891 130.874 100.086 129.002 100.062 127.981C100.057 127.794 99.995 127.65 99.8707 127.541C99.7592 127.444 99.6438 127.412 99.5007 127.442C98.6084 127.632 97.3355 130.005 96.9211 130.904C96.8774 130.999 96.7636 131.039 96.6716 130.996C96.5767 130.952 96.5352 130.841 96.5789 130.746C96.7394 130.397 98.1856 127.335 99.4231 127.074C99.6808 127.02 99.9197 127.083 100.119 127.259C100.324 127.438 100.431 127.678 100.438 127.971C100.459 128.856 99.5112 130.112 98.7885 130.936C99.628 130.531 100.666 130.155 101.055 130.521C101.405 130.85 101.069 131.511 100.958 131.729C100.302 133.017 99.2934 133.342 98.4449 133.342Z" fill="black"/>
<path d="M99.0748 15.9336C99.0748 15.9336 101.981 14.7868 103.314 13.3902C104.143 12.5217 105.041 10.8469 105.041 10.8469C105.041 10.8469 106.497 11.6925 107.012 12.7935C107.528 13.8945 107.854 15.6638 107.854 15.6638C107.854 15.6638 108.888 12.6371 108.286 10.8469C107.218 7.67036 105.041 6.60792 100.566 7.10075C93.0731 8.63723 95.6533 15.1781 99.0748 15.9336Z" fill="black"/>
<path d="M35.4836 120.265C35.4836 120.265 29.5846 124.912 29.6957 125.628C29.8068 126.346 26.9674 135.618 26.9674 135.618L41.1084 131.84V120.265H35.4836Z" fill="#EFA459"/>
<path d="M49.998 122.692V129.152L36.6651 128.457V122.284L49.998 122.692Z" fill="white"/>
<path d="M58.8653 36.0545C58.8653 36.0545 69.7612 45.2639 67.4549 58.6754C65.1481 72.0874 50.3549 67.413 48.6848 64.6708C47.0146 61.9295 47.174 50.0779 47.174 50.0779L54.0137 35.4189L58.8653 36.0545Z" fill="#40507F"/>
<path d="M26.7184 51.2555C26.7184 51.2555 13.7425 74.2456 13.6353 83.3099C13.5282 92.3741 32.3309 122.443 32.3309 122.443C32.3309 122.443 37.4412 124.525 44.9478 124.285C52.4544 124.046 53.6338 123.192 53.6338 123.192C53.6338 123.192 52.3468 58.6978 49.3444 52.662C46.3419 46.6267 26.7184 51.2555 26.7184 51.2555Z" fill="#6C1844"/>
<path d="M19.0171 29.9426C19.0171 29.9426 18.8366 26.9101 19.6715 24.9424C20.5062 22.9742 22.9409 20.2014 22.9409 20.2014L18.6502 14.3118C18.6502 14.3118 6.67041 21.2297 5.36085 27.4506C4.2836 32.5679 5.9248 36.8431 10.1953 39.9893C14.1487 42.9019 20.0906 39.9893 20.0906 39.9893L19.0171 29.9426Z" fill="#FFAB94"/>
<path d="M25.3441 16.3216C25.3441 16.3216 29.3757 13.5189 28.6422 11.3737C28.5308 11.0478 27.4414 9.7506 24.8239 10.9614C24.9145 8.9019 18.6766 13.3474 16.2546 15.999C13.8911 18.5866 19.8715 18.8696 20.8277 20.1675C22.0215 21.788 23.7396 19.8847 26.3745 18.1769C30.0451 15.7978 27.5879 15.0551 25.3441 16.3216Z" fill="#FFAB94"/>
<path d="M22.3244 11.9623C22.4237 11.5549 22.644 11.1894 22.9195 10.8743C24.3123 9.72467 26.58 8.28162 27.6107 8.48777C28.8621 9.19403 27.8535 10.1843 27.8535 10.1843C27.8535 10.1843 29.4621 9.28599 29.6997 10.5914C29.8979 11.6824 28.7 11.9624 28.7 11.9624C28.7 11.9624 30.1257 10.5587 29.8413 12.2626C29.5566 13.9659 26.0911 16.2857 24.6788 16.5931C23.2667 16.901 24.1365 15.4445 24.1365 15.4445C24.1365 15.4445 22.7577 15.9241 22.5492 15.0899C22.3283 14.207 23.428 13.5753 23.428 13.5753C23.428 13.5753 21.9662 13.4271 22.3244 11.9623Z" fill="#FFAB94"/>
<path d="M28.0123 10.1295C28.0352 10.196 28.0156 10.272 27.9577 10.3177L23.9464 13.4911C23.8732 13.5485 23.7666 13.5358 23.7086 13.4628C23.6533 13.3874 23.6632 13.2832 23.7362 13.2252L27.7474 10.0518C27.8213 9.99424 27.9279 10.0069 27.9851 10.0795C27.997 10.0954 28.0063 10.1122 28.0123 10.1295Z" fill="black"/>
<path d="M29.104 11.6364C29.1271 11.7035 29.1069 11.7799 29.0475 11.8254L24.9837 14.9603C24.9096 15.0172 24.8035 15.0038 24.7459 14.9299C24.6895 14.8556 24.703 14.7494 24.7765 14.6927L28.8409 11.5575C28.9149 11.5006 29.0205 11.5143 29.0781 11.5881C29.0896 11.6028 29.0983 11.6198 29.104 11.6364Z" fill="black"/>
<path d="M24.9213 15.4606C24.9555 15.509 24.9484 15.5805 24.8999 15.6347C24.842 15.6999 24.7462 15.7154 24.6859 15.6701C24.678 15.6647 23.8306 15.6138 22.9018 15.9352C22.1031 16.2116 21.4838 16.5304 20.9178 17.9052C20.886 17.9823 20.7974 18.0301 20.72 18.0119C20.6429 17.9935 20.6053 17.9162 20.6371 17.8391C21.2443 16.3651 21.939 15.9793 22.842 15.6664C23.9293 15.2916 24.8606 15.4081 24.8966 15.4354C24.9064 15.4425 24.9144 15.4509 24.9213 15.4606Z" fill="black"/>
<path d="M38.4638 21.2813C38.4638 21.2813 45.0862 21.0606 48.5049 24.1396C51.923 27.2182 49.6796 54.0778 49.6796 54.0778C49.6796 54.0778 40.762 54.8212 34.379 54.0778C27.9955 53.3345 25.1114 52.3264 25.1114 52.3264C25.1114 52.3264 24.3635 27.6357 26.0728 24.667C27.7816 21.6974 38.4638 21.2813 38.4638 21.2813Z" fill="black"/>
<path d="M45.9578 22.4894C45.9578 22.4894 52.7359 23.9444 57.6695 29.8191C62.2295 35.2496 63.3311 41.8828 63.3311 41.8828C63.3311 41.8828 58.2455 40.1476 55.3694 40.1769C52.4933 40.2067 48.6923 41.4887 48.6923 41.4887L45.9578 22.4894Z" fill="black"/>
<path d="M31.3313 9.68104C31.3313 9.68104 28.343 4.87311 30.7058 3.77132C33.0692 2.66905 35.9775 5.27867 35.9775 5.27867C35.9775 5.27867 41.3235 5.63204 43.4153 8.45762C45.5076 11.2837 40.6371 16.4287 40.6371 16.4287L31.3313 9.68104Z" fill="black"/>
<path d="M39.8646 17.6413L40.3018 22.4482C40.3018 22.4482 39.497 23.9032 36.4994 24.3702C34.2665 24.7177 33.4333 24.3067 33.4333 24.3067L33.5254 21.8473L33.6186 19.449L38.9672 17.9016L39.8646 17.6413Z" fill="#FFAB94"/>
<path d="M39.2539 18.2696C39.2525 18.4188 39.2148 18.598 39.15 18.8056C37.4662 20.7445 34.9911 21.2396 33.531 21.2695L33.596 20.0129L39.2539 18.2696Z" fill="black"/>
<path d="M31.7988 8.3964C31.7988 8.3964 29.7261 14.7533 31.0428 18.0783C32.3595 21.4034 35.4571 20.5518 37.276 19.7031C39.0943 18.8548 39.8536 17.624 39.8536 17.624C39.8536 17.624 41.6754 18.0398 42.6893 16.3029C43.7032 14.566 42.7892 12.7774 41.7397 12.4509C40.6907 12.1244 39.5672 12.9617 39.5672 12.9617L40.3255 11.0984C40.3255 11.0984 35.4677 2.4962 31.7988 8.3964Z" fill="#FFAB94"/>
<path d="M39.7007 15.6221C39.7489 15.6221 39.7965 15.6058 39.8358 15.5734L42.2489 13.5549C42.3358 13.4819 42.3458 13.3542 42.2716 13.2688C42.1969 13.1833 42.0657 13.1741 41.9782 13.2466L39.5657 15.2651C39.4788 15.3381 39.4683 15.4658 39.543 15.5512C39.5839 15.5977 39.6426 15.6221 39.7007 15.6221Z" fill="black"/>
<path d="M41.7605 15.2168C41.8352 15.2168 41.9015 15.1757 41.9148 15.1179C41.929 15.0535 41.8715 14.9922 41.7864 14.9814L40.4836 14.8146C40.3952 14.8029 40.3176 14.8475 40.303 14.9119C40.2888 14.9764 40.3464 15.0374 40.4315 15.0484L41.7343 15.2149C41.7434 15.2162 41.7518 15.2168 41.7605 15.2168Z" fill="black"/>
<path d="M31.2749 9.66255C31.2749 9.66255 31.7344 8.66438 32.9858 8.55609C34.2382 8.44733 35.0442 9.22291 35.0442 9.22291C35.0442 9.22291 34.6734 11.2617 36.4715 12.1847C38.2697 13.1078 39.561 12.7059 39.561 12.7059L40.7593 12.1902L41.5127 10.4105L37.6123 7.05469L32.7797 5.11641L30.6039 7.32889L31.2749 9.66255Z" fill="black"/>
<path d="M33.9881 17.2373C34.0218 17.2373 35.0801 17.2231 35.4436 15.8977C35.4728 15.7914 35.4326 15.6736 35.3534 15.6342C35.2734 15.5942 35.1869 15.6496 35.1581 15.7558C34.8689 16.809 34.0429 16.8265 33.9913 16.8265C33.9056 16.8265 33.8374 16.9175 33.837 17.0303C33.8362 17.1431 33.9032 17.2357 33.9873 17.2373C33.9873 17.2373 33.9877 17.2373 33.9881 17.2373Z" fill="black"/>
<path d="M27.4459 23.2973C27.4459 23.2973 24.2682 24.5812 22.1526 25.1455C21.1155 25.4221 19.1512 25.695 19.1512 25.695C19.1512 25.695 17.9833 34.0274 15.7312 38.8421C15.0145 40.3744 13.7004 42.6683 13.7004 42.6683C13.7004 42.6683 24.0468 44.9132 26.3655 41.7475C28.6846 38.5823 27.4459 23.2973 27.4459 23.2973Z" fill="black"/>
<path d="M32.436 122.688C32.5512 122.682 32.6307 122.597 32.6247 122.498C31.3363 101.456 31.7923 67.2926 31.7973 66.9497C31.7983 66.886 31.7631 66.8261 31.7047 66.793L24.8291 62.9169C24.739 62.8671 24.6228 62.8944 24.5709 62.9802C24.5176 63.0659 24.5473 63.1761 24.6364 63.2264L31.4184 67.0488C31.3912 69.1555 30.9941 102.042 32.2477 122.519C32.2538 122.614 32.3368 122.688 32.436 122.688Z" fill="white"/>
<path d="M25.7343 84.6456C25.7737 84.6456 25.8139 84.6474 25.8555 84.6515C27.4342 84.7956 29.8349 87.5362 30.7387 88.6361C28.7937 87.9557 25.1414 86.4685 24.9013 85.3677C24.8624 85.1892 24.9239 85.0352 25.0946 84.8821C25.2713 84.7235 25.4813 84.6456 25.7343 84.6456ZM31.2387 89.1543C31.2933 89.1543 31.346 89.1294 31.3798 89.0836C31.4237 89.0234 31.4228 88.9418 31.3775 88.883C31.241 88.704 28.0069 84.5065 25.8884 84.3131C25.4813 84.276 25.1367 84.3833 24.8606 84.6316C24.5326 84.9256 24.5174 85.2327 24.5618 85.4388C24.9175 87.0664 30.5435 88.9378 31.1841 89.1457C31.2022 89.1516 31.2207 89.1543 31.2387 89.1543Z" fill="white"/>
<path d="M48.5996 62.084C48.6863 62.084 48.7641 62.0207 48.7814 61.9291C48.8017 61.8246 48.7368 61.7228 48.6363 61.7017C45.2812 60.9977 43.5044 56.5919 43.4865 56.5476C43.4469 56.4488 43.3384 56.4015 43.2438 56.4421C43.1492 56.4828 43.1036 56.5955 43.1428 56.6938C43.2176 56.8831 45.0113 61.3353 48.563 62.0799C48.5754 62.0824 48.5873 62.084 48.5996 62.084Z" fill="white"/>
<path d="M51.1936 126.293C51.1936 126.293 36.3811 125.638 36.2741 126.066C36.1671 126.494 35.8458 129.411 35.8458 129.411L21.4978 137.293C21.4978 137.293 16.5718 138.737 16.4649 141.194C16.3579 143.651 20.3197 143.973 21.6043 144.345C22.8894 144.716 48.0072 144.384 50.5513 143.962C52.4787 143.642 51.1936 126.293 51.1936 126.293Z" fill="#F7B369"/>
<path d="M32.6264 135.618C32.7014 135.618 32.7689 135.571 32.7934 135.5C32.8193 135.427 32.7924 135.345 32.7288 135.301L30.518 133.745L36.8773 134.251C36.9608 134.256 37.0259 134.213 37.0551 134.142C37.0844 134.072 37.0641 133.99 37.0051 133.942L33.7276 131.214C33.6526 131.153 33.5409 131.162 33.4786 131.236C33.4159 131.31 33.4253 131.42 33.4998 131.483L36.3539 133.857L29.9058 133.345C29.8195 133.337 29.7531 133.386 29.7257 133.46C29.6983 133.534 29.7247 133.617 29.7893 133.663L32.0308 135.239L25.537 134.93C25.4347 134.928 25.3564 135 25.3517 135.097C25.347 135.193 25.4229 135.275 25.5205 135.28L32.618 135.618C32.6208 135.618 32.6236 135.618 32.6264 135.618Z" fill="#2F2F68"/>
<path d="M56.9821 65.3174C61.9914 65.3174 64.0911 61.9675 64.1161 61.9265C64.1642 61.8468 64.1329 61.7463 64.0459 61.7018C63.9608 61.6582 63.8497 61.6855 63.8001 61.7661C63.6818 61.9605 60.8141 66.5072 53.4622 64.4753C53.3685 64.4493 53.266 64.4986 53.2377 64.5859C53.2088 64.6731 53.2627 64.7652 53.3584 64.7921C54.7045 65.1636 55.9102 65.3174 56.9821 65.3174Z" fill="#6876AA"/>
<path d="M67.8259 133.46H57.5742V126.626H67.8259V133.46Z" fill="#FFB5A9"/>
<path d="M85.4811 132.89H74.4697V126.055H85.4811V132.89Z" fill="#FFB5A9"/>
<path d="M58.9027 56.004C58.9027 56.004 55.2958 76.3176 53.9665 98.1497C52.6378 119.982 53.9665 128.145 53.9665 128.145C53.9665 128.145 70.863 129.095 71.6222 128.145C72.3819 127.196 73.1411 117.704 73.1411 117.704C73.1411 117.704 72.3819 128.335 73.1411 128.335C73.9003 128.335 88.1387 128.715 88.3289 127.765C88.5186 126.817 94.4036 99.2888 95.353 90.3664C96.3025 81.4435 85.08 54.5199 85.08 54.5199L58.9027 56.004Z" fill="#0F1F28"/>
<path d="M73.1268 122.081C72.9862 122.066 72.9013 121.961 72.9144 121.844L76.4598 89.8994C76.4734 89.7821 76.5822 89.7052 76.6956 89.7104C76.8129 89.7235 76.8977 89.8294 76.8847 89.9461L73.3393 121.891C73.3268 122 73.2345 122.081 73.1268 122.081Z" fill="#AF4D04"/>
<path d="M44 52.3489C44 47.487 44.7598 39.4865 53.1126 31.8456C61.466 24.2041 66.6391 23.6818 66.6391 23.6818L71.9073 23.1601C71.9073 23.1601 77.7929 22.2107 88.5662 29.0924C99.3402 35.9747 102.568 52.2065 102.568 52.2065L88.0922 56.003L88.5662 62.6509C82.455 64.4049 78.987 64.0625 72.7147 61.3695C66.8822 63.831 63.5393 64.4202 57.5508 64.1459L58.9031 56.003L61.6088 63.0781L55.4151 69.4854C55.4151 69.4854 43.9999 60.3899 44 52.3489Z" fill="black"/>
<path d="M62.6754 64.9999L61.1804 63.5049L56.6953 67.99L58.1903 69.485C58.1903 69.485 59.9063 68.7808 60.7533 67.99C61.6325 67.1691 62.6754 64.9999 62.6754 64.9999Z" fill="#FFB5A9"/>
<path d="M66.0554 24.3299C66.0554 24.3299 65.1669 36.8917 65.7997 47.0169C66.433 57.1416 67.4451 63.5049 67.4451 63.5049C67.4451 63.5049 69.9761 64.3273 72.0646 64.2641C74.1525 64.2009 75.8611 63.5049 75.8611 63.5049C75.8611 63.5049 76.1128 53.1326 75.4186 44.6118C74.722 36.0687 72.5709 23.0325 72.5709 23.0325L66.0554 24.3299Z" fill="black"/>
<path d="M59.762 53.6855C59.6395 53.6827 59.5461 53.5853 59.5484 53.4674C59.5495 53.4236 59.6093 49.0091 57.4024 46.0048C55.2017 43.0096 51.1569 42.1718 51.1164 42.1638C51.0008 42.1411 50.9256 42.0283 50.9484 41.9127C50.9718 41.7976 51.0805 41.7213 51.2001 41.7452C51.3721 41.7794 55.446 42.62 57.7464 45.7513C60.041 48.8747 59.9795 53.2897 59.9756 53.476C59.9733 53.5927 59.8782 53.6855 59.762 53.6855Z" fill="white" fill-opacity="0.51"/>
<path d="M45.4249 55.5426C45.3131 55.311 42.713 49.7825 45.3766 42.9542C48.0331 36.1431 54.9585 30.049 55.252 29.7934" stroke="white" stroke-opacity="0.51" stroke-width="0.5" stroke-linecap="round"/>
<path d="M55.5634 40.966C55.0906 40.9711 55.016 41.1437 54.9916 41.2C54.6948 41.8835 56.1523 43.9167 57.346 45.3001C57.3004 44.2624 57.1051 42.109 56.2741 41.2792C56.0629 41.0685 55.8293 40.966 55.5634 40.966ZM57.5733 46.0918C57.514 46.0918 57.4571 46.0673 57.4161 46.0223C57.0698 45.6441 54.0529 42.2901 54.5991 41.0303C54.7381 40.7097 55.0565 40.5445 55.5451 40.5388C55.9438 40.5388 56.2838 40.6858 56.5754 40.9774C57.8102 42.2093 57.7885 45.7307 57.7868 45.8805C57.7857 45.9676 57.731 46.0462 57.6496 46.0776C57.6251 46.0867 57.5989 46.0918 57.5733 46.0918Z" fill="white" fill-opacity="0.51"/>
<path d="M87.8238 51.6602C87.7076 51.6602 87.6125 51.5673 87.6102 51.4511C87.6063 51.2649 87.5442 46.8498 89.8388 43.7265C92.1392 40.5946 96.2131 39.7546 96.3851 39.7204C96.503 39.6959 96.6135 39.7728 96.6368 39.8878C96.6596 40.0034 96.5844 40.1156 96.4688 40.139C96.4284 40.147 92.3835 40.9842 90.1828 43.9794C87.9759 46.9837 88.0363 51.3987 88.0374 51.4426C88.0397 51.5605 87.9463 51.6579 87.8284 51.6602C87.8267 51.6602 87.825 51.6602 87.8238 51.6602Z" fill="#385432"/>
<path d="M92.0216 38.9406C91.755 38.9406 91.5221 39.0431 91.3108 39.2544C90.4793 40.0848 90.2845 42.2376 90.2389 43.2748C91.4327 41.8914 92.8901 39.8581 92.5934 39.1752C92.5689 39.1183 92.4943 38.9463 92.0341 38.9406C92.0301 38.9406 92.0256 38.9406 92.0216 38.9406ZM90.0117 44.0664C89.986 44.0664 89.9604 44.0618 89.9354 44.0522C89.8539 44.0208 89.7992 43.9428 89.7981 43.8551C89.7964 43.7059 89.7748 40.1844 91.0095 38.952C91.3011 38.6609 91.6411 38.5134 92.0216 38.5134C92.5285 38.5191 92.8468 38.6848 92.9858 39.0049C93.532 40.2653 90.5151 43.6188 90.1689 43.9969C90.1279 44.0419 90.0709 44.0664 90.0117 44.0664Z" fill="#385432"/>
<path d="M104.386 143.892C104.375 143.949 104.364 144.006 104.347 144.063C104.09 145.151 103.481 146.609 103.014 147.076C102.535 147.549 98.0988 147.355 93.1951 147.526C88.804 147.674 74.3776 147.224 74.0131 146.689C73.7397 146.279 73.5688 143.864 73.5062 143.238C73.4834 143.032 73.472 142.907 73.472 142.907C73.472 142.907 73.2955 131.556 74.1953 130.839C75.0952 130.116 85.3583 130.298 86.2638 130.839C87.158 131.38 92.0218 137.138 93.4685 137.679C94.9094 138.22 102.108 139.661 103.732 141.284C104.466 142.019 104.574 142.981 104.386 143.892Z" fill="#007AFF"/>
<path d="M70.4815 144.581C70.4815 145.868 70.1056 147.343 69.3424 147.708C68.5849 148.078 62.3998 148.858 56.9892 148.312C51.8178 147.787 50.7414 147.343 50.3598 146.791C50.1661 146.5 50.5762 145.082 51.0261 143.778C51.2368 143.152 51.459 142.548 51.6241 142.115C51.7779 141.699 51.9715 141.306 52.2051 140.93C52.7689 140.025 53.8738 138.168 54.1586 137.217C54.5345 135.93 55.104 133.167 55.4856 131.875C55.8672 130.587 57.3822 130.035 57.3822 130.035C57.3822 130.035 67.4459 129.483 68.2034 130.223C68.9665 130.958 69.3424 137.035 69.3424 137.952V138.874C69.3424 139.945 70.1341 142.303 70.3961 143.801C70.4473 144.103 70.4815 144.365 70.4815 144.581Z" fill="#007AFF"/>
<path d="M72.3766 125.068H53.6462C53.5277 125.068 53.4326 124.973 53.4326 124.855C53.4326 124.737 53.5277 124.641 53.6462 124.641H72.3766C72.4944 124.641 72.5901 124.737 72.5901 124.855C72.5901 124.973 72.4944 125.068 72.3766 125.068Z" fill="#AF4D04"/>
<path d="M88.9623 125.123H74.5046C74.3867 125.123 74.291 125.027 74.291 124.909C74.291 124.792 74.3867 124.696 74.5046 124.696H88.9623C89.0802 124.696 89.1759 124.792 89.1759 124.909C89.1759 125.027 89.0802 125.123 88.9623 125.123Z" fill="#AF4D04"/>
<path d="M69.1236 25.7783C66.4097 25.7783 65.8311 23.9427 65.8077 23.8641C65.7741 23.7513 65.8385 23.6334 65.9507 23.5993C66.0612 23.5634 66.1819 23.6283 66.2172 23.7411C66.2372 23.8072 66.7406 25.3512 69.1242 25.3512C69.1395 25.3512 69.1543 25.3512 69.1692 25.3512C72.3762 25.325 72.7982 23.2354 72.8022 23.2143C72.8239 23.0987 72.9332 23.0223 73.0517 23.0428C73.1673 23.0645 73.2442 23.1755 73.2231 23.2917C73.218 23.3162 72.7282 25.7493 69.1726 25.7783C69.1566 25.7783 69.1401 25.7783 69.1236 25.7783Z" fill="#385432"/>
<path d="M70.4815 144.581C70.4815 145.868 70.1056 147.343 69.3424 147.708C68.5849 148.078 62.3998 148.858 56.9892 148.312C51.8178 147.787 50.7414 147.343 50.3598 146.791C50.1661 146.5 50.5762 145.082 51.0261 143.778C52.8372 144.251 56.7386 145.071 61.6594 144.98C66.3125 144.889 69.0861 144.222 70.3961 143.801C70.4473 144.103 70.4815 144.365 70.4815 144.581Z" fill="white"/>
<path d="M104.346 144.063C104.09 145.151 103.481 146.609 103.014 147.076C102.535 147.549 98.0985 147.355 93.1948 147.526C88.8036 147.674 74.3773 147.224 74.0128 146.689C73.7394 146.279 73.5685 143.864 73.5059 143.238C73.5059 143.238 84.2986 144.377 94.3395 144.137C100.211 143.995 103.025 144.018 104.346 144.063Z" fill="white"/>
<path d="M64.4087 134.979C64.3626 134.979 64.3165 134.964 64.2777 134.934C62.122 133.258 58.3215 134.692 58.2833 134.706C58.1746 134.751 58.0504 134.695 58.0077 134.584C57.965 134.474 58.0196 134.35 58.1301 134.308C58.2947 134.245 62.1926 132.771 64.5397 134.596C64.6331 134.669 64.6496 134.803 64.5773 134.896C64.5351 134.95 64.4719 134.979 64.4087 134.979Z" fill="white"/>
<path d="M64.4088 137.353C64.3666 137.353 64.3239 137.34 64.2863 137.314C61.667 135.487 58.3221 136.843 58.2891 136.857C58.178 136.903 58.055 136.851 58.0095 136.743C57.9645 136.633 58.0157 136.508 58.1245 136.462C58.2703 136.403 61.72 135.003 64.5312 136.964C64.6281 137.031 64.6514 137.165 64.5842 137.261C64.5421 137.321 64.476 137.353 64.4088 137.353Z" fill="white"/>
<path d="M89.3258 140.443C89.3036 140.443 89.2808 140.44 89.2586 140.432C89.1476 140.396 89.0861 140.276 89.1231 140.164C89.1493 140.082 89.8151 138.159 93.4282 137.469C93.5478 137.444 93.656 137.523 93.6782 137.638C93.7005 137.754 93.6241 137.866 93.5085 137.888C90.1653 138.527 89.5343 140.28 89.528 140.298C89.4984 140.386 89.4147 140.443 89.3258 140.443Z" fill="white"/>
<path d="M88.9252 136.584C88.8255 136.584 88.7361 136.514 88.7162 136.413C88.6928 136.297 88.7674 136.185 88.8831 136.161L91.3839 135.655C91.5018 135.628 91.6129 135.707 91.6356 135.822C91.659 135.938 91.5844 136.05 91.4688 136.074L88.9674 136.58C88.9531 136.583 88.9389 136.584 88.9252 136.584Z" fill="white"/>
<path d="M87.2525 134.564C87.1477 134.564 87.0566 134.488 87.0412 134.381C87.0247 134.264 87.1061 134.156 87.2229 134.14L89.4219 133.83C89.5511 133.813 89.6468 133.896 89.6633 134.011C89.6799 134.128 89.5984 134.236 89.4816 134.253L87.2827 134.563C87.2724 134.564 87.2622 134.564 87.2525 134.564Z" fill="white"/>
<path d="M67.4197 140.444C67.393 140.444 67.3656 140.439 67.3394 140.428C59.7526 137.336 54.399 140.383 54.346 140.415C54.2441 140.474 54.1131 140.44 54.0539 140.338C53.9941 140.236 54.0282 140.106 54.1302 140.046C54.1854 140.014 59.7207 136.862 67.5006 140.033C67.6094 140.077 67.6624 140.202 67.6179 140.311C67.5838 140.394 67.504 140.444 67.4197 140.444Z" fill="white"/>
<path d="M78.4027 54.0342H108.252L114.352 37.0159C114.551 36.4583 114.135 35.8705 113.543 35.8705H85.5105C85.1517 35.8705 84.8271 36.0978 84.7075 36.4383L78.4027 54.0342Z" fill="#FF9500"/>
<path d="M108.076 53.7842H78.7578L84.9428 36.5227L84.9433 36.5212C85.0274 36.2817 85.2568 36.1205 85.5105 36.1205H113.543C113.963 36.1205 114.257 36.5377 114.116 36.9317L108.076 53.7842Z" stroke="white" stroke-opacity="0.5" stroke-width="0.5"/>
<path d="M70.1837 56.1338H107.91C108.593 56.1338 109.151 55.5785 109.151 54.8939V54.2743C109.151 53.5891 108.593 53.0338 107.91 53.0338H70.1837C69.3294 53.0338 68.6346 53.7281 68.6346 54.5841C68.6346 55.4401 69.3294 56.1338 70.1837 56.1338Z" fill="#E38C11"/>
<path d="M99.4791 56.256C99.4791 56.256 104.221 51.4152 102.146 51.0685C100.072 50.7212 97.4684 53.6447 97.4684 53.6447L99.4791 56.256Z" fill="#FFB5A9"/>
<path d="M96.616 57.2981C96.616 57.2981 99.0021 60.3773 99.9073 58.4368C100.812 56.4958 97.9114 50.0671 95.7371 50.5122C93.5633 50.9571 96.616 57.2981 96.616 57.2981Z" fill="#FFB5A9"/>
<path d="M93.6658 58.5969C93.6658 58.5969 96.0514 61.6764 96.9571 59.7357C97.862 57.7947 94.9615 51.3664 92.7869 51.811C90.6126 52.2562 93.6658 58.5969 93.6658 58.5969Z" fill="#FFB5A9"/>
<path d="M90.4626 59.0355C90.4626 59.0355 92.0786 62.0806 93.1605 60.5247C94.2424 58.9689 92.6825 52.9261 90.7198 52.986C88.7566 53.0461 90.4626 59.0355 90.4626 59.0355Z" fill="#FFB5A9"/>
<path d="M95.0894 53.2846C95.0992 53.2789 95.1107 53.2736 95.1217 53.2699C95.232 53.2285 95.3553 53.2849 95.3966 53.3952L96.8167 57.2229C96.8577 57.3327 96.803 57.459 96.6907 57.4969C96.5804 57.5382 96.4571 57.4818 96.4158 57.3715L94.9952 53.5441C94.9592 53.4452 95.0006 53.3358 95.0894 53.2846Z" fill="black"/>
<path d="M91.9098 54.7249C92.037 54.6673 92.1634 54.7153 92.2117 54.8229L93.8611 58.509C93.9096 58.6158 93.862 58.7452 93.7534 58.7908C93.6459 58.8391 93.5192 58.7905 93.4709 58.683L91.8218 54.9974C91.7762 54.8968 91.8156 54.7793 91.9098 54.7249Z" fill="black"/>
<path d="M65.9553 17.5867V23.5143C65.9553 23.5143 66.3211 25.191 69.5108 25.489C71.8883 25.7117 73.1416 23.5143 73.1416 23.5143L72.9587 21.7995L72.6683 19.1377L66.9181 17.8104L65.9553 17.5867Z" fill="#FFB5A9"/>
<path d="M66.7347 18.013C66.7454 18.1546 66.7986 18.3227 66.8838 18.5154C68.0553 21.1216 71.3569 21.723 72.7148 21.8574L72.4273 19.2921L66.7347 18.013Z" fill="black"/>
<path d="M73.8379 6.86092C73.8379 6.86092 76.5846 13.8089 75.4135 17.6318C74.2477 21.4546 70.8197 20.7466 68.7809 19.9403C66.7422 19.1341 65.8213 17.8174 65.8213 17.8174C65.8213 17.8174 63.8783 18.4261 62.6434 16.5627C61.4084 14.6993 62.2601 12.6269 63.3726 12.1796C64.4852 11.7316 65.768 12.5792 65.768 12.5792L64.8046 10.5551C64.8046 10.5551 69.3984 0.54978 73.8379 6.86092Z" fill="#FFB5A9"/>
<path d="M65.6664 15.4502C65.7287 15.4502 65.7967 15.4231 65.8363 15.3715C65.9099 15.2845 65.8872 15.1621 65.791 15.098L63.2255 13.3527C63.1348 13.2891 62.9989 13.3063 62.9309 13.3933C62.863 13.4803 62.88 13.6027 62.9763 13.6668L65.5418 15.4122C65.5758 15.4377 65.6211 15.4502 65.6664 15.4502Z" fill="black"/>
<path d="M63.0999 15.4502C63.1169 15.4502 63.1339 15.4479 63.1508 15.4439L64.8608 15.0209C64.974 14.9932 65.0476 14.8764 65.0193 14.7607C64.991 14.6445 64.8778 14.5743 64.7645 14.6019L63.0489 15.0243C62.9357 15.0525 62.8677 15.1693 62.896 15.285C62.9187 15.384 63.0037 15.4502 63.0999 15.4502Z" fill="black"/>
<path d="M72.0798 16.7324C72.1843 16.7324 72.2724 16.6571 72.2834 16.5516C72.3054 16.4352 72.2284 16.3257 72.1128 16.3074C72.1018 16.3057 71.0346 16.1203 70.5394 15.1386C70.4844 15.0337 70.3579 14.9938 70.2644 15.048C70.1598 15.1027 70.1214 15.2316 70.1764 15.3366C70.765 16.5145 71.9973 16.7222 72.0523 16.7301C72.0633 16.7318 72.0743 16.7324 72.0798 16.7324Z" fill="black"/>
<path d="M66.3332 13.3145C66.3332 13.3145 65.7642 10.6168 65.6951 10.3662C65.6259 10.1163 67.5722 7.09503 70.8213 6.65155C74.0278 6.21233 73.964 7.10728 73.964 7.10728C73.964 7.10728 74.7828 2.56425 74.2351 2.20925C73.6874 1.85425 73.3365 2.52055 73.3365 2.52055C73.3365 2.52055 72.6931 0.255159 70.9967 0.521676C69.6567 0.731157 69.3589 2.12077 69.3589 2.12077C69.3589 2.12077 68.859 0.298863 67.0404 1.00993C65.2271 1.72099 63.5414 6.16221 63.5414 6.16221C63.5414 6.16221 61.5899 5.85199 61.2389 7.4948C60.8826 9.13867 62.4076 13.1239 62.4076 13.1239C62.4076 13.1239 62.934 12.0462 64.3857 12.2466C65.8375 12.447 66.3332 13.3145 66.3332 13.3145Z" fill="black"/>
</g>
<defs>
<clipPath id="clip0_6148_1337833">
<rect width="148" height="148" fill="white"/>
</clipPath>
</defs>
</svg>
