<svg width="16" height="17" viewBox="0 0 16 17" fill="none" xmlns="http://www.w3.org/2000/svg">
<path fill-rule="evenodd" clip-rule="evenodd" d="M7.95239 0.5C8.34688 0.5 8.66668 0.819797 8.66668 1.21429V4.45238C8.66668 4.84687 8.34688 5.16667 7.95239 5.16667C7.5579 5.16667 7.23811 4.84687 7.23811 4.45238V1.21429C7.23811 0.819797 7.5579 0.5 7.95239 0.5ZM14.2224 2.66136C14.5013 2.94031 14.5013 3.39257 14.2224 3.67151L11.8384 6.05547C11.5595 6.33442 11.1072 6.33442 10.8283 6.05547C10.5493 5.77653 10.5493 5.32426 10.8283 5.04532L13.2122 2.66136C13.4912 2.38241 13.9434 2.38241 14.2224 2.66136ZM1.70081 2.9443C1.97976 2.66535 2.43202 2.66535 2.71097 2.9443L5.09493 5.32826C5.37387 5.6072 5.37387 6.05946 5.09493 6.33841C4.81598 6.61736 4.36372 6.61736 4.08477 6.33841L1.70081 3.95445C1.42187 3.6755 1.42187 3.22324 1.70081 2.9443ZM0 8.54762C0 8.15313 0.319797 7.83333 0.714286 7.83333H3.95238C4.34687 7.83333 4.66667 8.15313 4.66667 8.54762C4.66667 8.94211 4.34687 9.26191 3.95238 9.26191H0.714286C0.319797 9.26191 0 8.94211 0 8.54762ZM11.3333 8.54762C11.3333 8.15313 11.6531 7.83333 12.0476 7.83333H15.2857C15.6802 7.83333 16 8.15313 16 8.54762C16 8.94211 15.6802 9.26191 15.2857 9.26191H12.0476C11.6531 9.26191 11.3333 8.94211 11.3333 8.54762ZM5.28904 10.3944C5.56798 10.6734 5.56798 11.1256 5.28904 11.4046L2.90508 13.7885C2.62613 14.0675 2.17387 14.0675 1.89492 13.7885C1.61598 13.5096 1.61598 13.0573 1.89492 12.7784L4.27888 10.3944C4.55783 10.1155 5.01009 10.1155 5.28904 10.3944ZM9.89492 10.6045C10.1739 10.3255 10.6261 10.3255 10.9051 10.6045L13.289 12.9884C13.568 13.2674 13.568 13.7196 13.289 13.9986C13.0101 14.2775 12.5578 14.2775 12.2789 13.9986L9.89492 11.6146C9.61597 11.3357 9.61597 10.8834 9.89492 10.6045ZM7.95239 11.8333C8.34688 11.8333 8.66668 12.1531 8.66668 12.5476V15.7857C8.66668 16.1802 8.34688 16.5 7.95239 16.5C7.5579 16.5 7.23811 16.1802 7.23811 15.7857V12.5476C7.23811 12.1531 7.5579 11.8333 7.95239 11.8333Z" fill="#121212"/>
</svg>
