<svg width="20" height="20" viewBox="0 0 20 20" fill="none" xmlns="http://www.w3.org/2000/svg">
<path d="M2.5 4.80874H4.94626M13.3333 4.80874H11.0618M11.0618 4.80874C10.6156 7.57372 9.36008 9.35934 7.77362 10.6265M11.0618 4.80874H8.00405M2.5 13.3333C4.26981 12.6423 6.18716 11.8936 7.77362 10.6265M4.94626 4.80874C5.41489 7.50094 6.19377 9.27144 7.77362 10.6265M4.94626 4.80874H8.00405M7.77362 10.6265C8.089 10.897 8.43631 11.1509 8.81944 11.3924C9.20871 11.6376 9.63497 11.87 10.1023 12.0936M8.00405 4.80874V2.5" stroke="black" stroke-width="1.15" stroke-linecap="round"/>
<path d="M10.4753 16.0381L11.5695 13.6151M17.0782 16.0381L15.9661 13.6151M11.5695 13.6151L15.9661 13.6151M11.5695 13.6151L13.75 8.78631L15.9661 13.6151" stroke="black" stroke-width="1.15" stroke-linecap="round" stroke-linejoin="round"/>
</svg>
