<svg width="24" height="24" viewBox="0 0 24 24" fill="none" xmlns="http://www.w3.org/2000/svg">
<path fill-rule="evenodd" clip-rule="evenodd" d="M15.6742 7.66821C15.6742 10.1248 13.6828 12.1162 11.2262 12.1162C8.76965 12.1162 6.77822 10.1248 6.77822 7.66821C6.77822 5.21165 8.76965 3.22021 11.2262 3.22021C13.6828 3.22021 15.6742 5.21165 15.6742 7.66821ZM16.3376 4.94921C16.3376 4.67306 16.5615 4.44921 16.8376 4.44921H21.7798C22.056 4.44921 22.2798 4.67306 22.2798 4.94921C22.2798 5.22535 22.056 5.44921 21.7798 5.44921H16.8376C16.5615 5.44921 16.3376 5.22535 16.3376 4.94921ZM18.6194 22.0007C19.724 22.0007 20.6425 21.0937 20.4019 20.0157C19.482 15.8937 15.7237 13.1047 11.2271 13.1047C6.73057 13.1047 2.97221 15.8937 2.05229 20.0157C1.8117 21.0937 2.73026 22.0007 3.83482 22.0007H11.2271H18.6194Z" fill="white"/>
</svg>
