<svg width="24" height="24" viewBox="0 0 24 24" fill="none" xmlns="http://www.w3.org/2000/svg">
<path fill-rule="evenodd" clip-rule="evenodd" d="M2.75 3.5C2.75 3.08579 3.08579 2.75 3.5 2.75H4.5C4.91421 2.75 5.25 3.08579 5.25 3.5C5.25 3.91421 4.91421 4.25 4.5 4.25H3.5C3.08579 4.25 2.75 3.91421 2.75 3.5ZM7.5 2.75C7.08579 2.75 6.75 3.08579 6.75 3.5C6.75 3.91421 7.08579 4.25 7.5 4.25H11.5C11.9142 4.25 12.25 3.91421 12.25 3.5C12.25 3.08579 11.9142 2.75 11.5 2.75H7.5ZM14.5 2.75C14.0858 2.75 13.75 3.08579 13.75 3.5C13.75 3.91421 14.0858 4.25 14.5 4.25H21.5C21.9142 4.25 22.25 3.91421 22.25 3.5C22.25 3.08579 21.9142 2.75 21.5 2.75H14.5ZM14.5 20.75C14.0858 20.75 13.75 21.0858 13.75 21.5C13.75 21.9142 14.0858 22.25 14.5 22.25H21.5C21.9142 22.25 22.25 21.9142 22.25 21.5C22.25 21.0858 21.9142 20.75 21.5 20.75H14.5ZM6.75 21.5C6.75 21.0858 7.08579 20.75 7.5 20.75H11.5C11.9142 20.75 12.25 21.0858 12.25 21.5C12.25 21.9142 11.9142 22.25 11.5 22.25H7.5C7.08579 22.25 6.75 21.9142 6.75 21.5ZM3.5 20.75C3.08579 20.75 2.75 21.0858 2.75 21.5C2.75 21.9142 3.08579 22.25 3.5 22.25H4.5C4.91421 22.25 5.25 21.9142 5.25 21.5C5.25 21.0858 4.91421 20.75 4.5 20.75H3.5Z" fill="black"/>
</svg>
