<svg width="20" height="20" viewBox="0 0 20 20" fill="none" xmlns="http://www.w3.org/2000/svg">
<path fill-rule="evenodd" clip-rule="evenodd" d="M2.29163 4.58341C2.29163 3.31776 3.31764 2.29175 4.58329 2.29175H6.24996C6.59514 2.29175 6.87496 2.57157 6.87496 2.91675C6.87496 3.26193 6.59514 3.54175 6.24996 3.54175H4.58329C4.008 3.54175 3.54163 4.00812 3.54163 4.58341V6.25008C3.54163 6.59526 3.2618 6.87508 2.91663 6.87508C2.57145 6.87508 2.29163 6.59526 2.29163 6.25008V4.58341ZM13.125 2.91675C13.125 2.57157 13.4048 2.29175 13.75 2.29175H15.4166C16.6823 2.29175 17.7083 3.31777 17.7083 4.58341V6.25008C17.7083 6.59526 17.4285 6.87508 17.0833 6.87508C16.7381 6.87508 16.4583 6.59526 16.4583 6.25008V4.58341C16.4583 4.00811 15.9919 3.54175 15.4166 3.54175H13.75C13.4048 3.54175 13.125 3.26193 13.125 2.91675ZM5.37499 10.0001C5.37499 9.6549 5.65481 9.37508 5.99999 9.37508H14C14.3451 9.37508 14.625 9.6549 14.625 10.0001C14.625 10.3453 14.3451 10.6251 14 10.6251H5.99999C5.65481 10.6251 5.37499 10.3453 5.37499 10.0001ZM2.91663 13.1251C3.2618 13.1251 3.54163 13.4049 3.54163 13.7501V15.4167C3.54163 15.9921 4.00799 16.4584 4.58329 16.4584H6.24996C6.59514 16.4584 6.87496 16.7382 6.87496 17.0834C6.87496 17.4286 6.59514 17.7084 6.24996 17.7084H4.58329C3.31765 17.7084 2.29163 16.6824 2.29163 15.4167V13.7501C2.29163 13.4049 2.57145 13.1251 2.91663 13.1251ZM17.0833 13.1251C17.4285 13.1251 17.7083 13.4049 17.7083 13.7501V15.4167C17.7083 16.6824 16.6823 17.7084 15.4166 17.7084H13.75C13.4048 17.7084 13.125 17.4286 13.125 17.0834C13.125 16.7382 13.4048 16.4584 13.75 16.4584H15.4166C15.9919 16.4584 16.4583 15.9921 16.4583 15.4167V13.7501C16.4583 13.4049 16.7381 13.1251 17.0833 13.1251Z" fill="black"/>
</svg>
