<svg width="16" height="16" viewBox="0 0 16 16" fill="none" xmlns="http://www.w3.org/2000/svg">
    <path
        d="M12.8334 2C13.4965 2 14.1323 2.26339 14.6012 2.73223C15.07 3.20107 15.3334 3.83696 15.3334 4.5V11.5C15.3334 12.163 15.07 12.7989 14.6012 13.2678C14.1323 13.7366 13.4965 14 12.8334 14H3.16675C2.83844 14 2.51335 13.9353 2.21004 13.8097C1.90673 13.6841 1.63113 13.4999 1.39898 13.2678C0.93014 12.7989 0.666748 12.163 0.666748 11.5V4.5C0.666748 3.83696 0.93014 3.20107 1.39898 2.73223C1.86782 2.26339 2.50371 2 3.16675 2H12.8334ZM10.1017 8.011L10.0394 8.05233L2.98875 12.9897C3.04708 12.9963 3.10642 13 3.16675 13H12.8334C13.2312 13 13.6128 12.842 13.8941 12.5607C14.1754 12.2794 14.3334 11.8978 14.3334 11.5L14.3317 11.5673L12.1284 8.42067C11.9077 8.10537 11.5742 7.88698 11.197 7.81067C10.8198 7.73436 10.4277 7.80596 10.1017 8.01067V8.011ZM12.8334 3H3.16675C2.96977 3 2.77471 3.0388 2.59272 3.11418C2.41073 3.18956 2.24538 3.30005 2.10609 3.43934C1.9668 3.57863 1.85631 3.74399 1.78093 3.92597C1.70555 4.10796 1.66675 4.30302 1.66675 4.5V11.5C1.66675 11.8623 1.79541 12.1947 2.00908 12.454L9.46575 7.23333C9.99646 6.86185 10.6507 6.71089 11.2905 6.81224C11.9303 6.91359 12.5058 7.25935 12.8958 7.77667L12.9474 7.84733L14.3334 9.82667V4.5C14.3334 4.11441 14.1849 3.74363 13.9188 3.46463C13.6526 3.18562 13.2892 3.01983 12.9041 3.00167L12.8334 3ZM3.33341 3.66667C3.46474 3.66667 3.59477 3.69253 3.7161 3.74279C3.83742 3.79304 3.94766 3.8667 4.04052 3.95956C4.13338 4.05242 4.20704 4.16266 4.25729 4.28398C4.30755 4.40531 4.33342 4.53534 4.33342 4.66667C4.33342 4.79799 4.30755 4.92802 4.25729 5.04935C4.20704 5.17068 4.13338 5.28092 4.04052 5.37377C3.94766 5.46663 3.83742 5.54029 3.7161 5.59055C3.59477 5.6408 3.46474 5.66667 3.33341 5.66667C3.0682 5.66667 2.81384 5.56131 2.62631 5.37377C2.43877 5.18624 2.33341 4.93188 2.33341 4.66667C2.33341 4.40145 2.43877 4.1471 2.62631 3.95956C2.81384 3.77202 3.0682 3.66667 3.33341 3.66667Z"
        fill="white" fill-opacity="1" />
</svg>
