<svg width="28" height="28" viewBox="0 0 28 28" fill="none" xmlns="http://www.w3.org/2000/svg">
<rect width="28" height="28" rx="8" fill="#8E8E93"/>
<circle cx="14" cy="14" r="9" fill="white"/>
<path d="M15.5 18.9995C15.5 19.6904 14.9409 20.2495 14.25 20.2495C13.5591 20.2495 13 19.6904 13 18.9995V11.5054H15.4971V18.9995H15.5Z" fill="#8E8E93"/>
<path d="M13 9.25C13 9.58152 13.1317 9.89946 13.3661 10.1339C13.6005 10.3683 13.9185 10.5 14.25 10.5C14.5815 10.5 14.8995 10.3683 15.1339 10.1339C15.3683 9.89946 15.5 9.58152 15.5 9.25C15.5 8.91848 15.3683 8.60054 15.1339 8.36612C14.8995 8.1317 14.5815 8 14.25 8C13.9185 8 13.6005 8.1317 13.3661 8.36612C13.1317 8.60054 13 8.91848 13 9.25Z" fill="#8E8E93"/>
</svg>
