<svg width="24" height="24" viewBox="0 0 24 24" fill="none" xmlns="http://www.w3.org/2000/svg">
<path fill-rule="evenodd" clip-rule="evenodd" d="M18.2474 11.6585C18.6111 12.0741 19.2429 12.1163 19.6585 11.7526C20.0742 11.3889 20.1163 10.7571 19.7526 10.3415L12.7526 2.34149C12.5627 2.12448 12.2884 2 12 2C11.7117 2 11.4373 2.12448 11.2474 2.34149L4.24744 10.3415C3.88376 10.7571 3.92587 11.3889 4.34151 11.7526C4.75715 12.1163 5.38891 12.0741 5.75259 11.6585L11 5.66144V21C11 21.5523 11.4477 22 12 22C12.5523 22 13 21.5523 13 21V5.66146L18.2474 11.6585Z" fill="white"/>
</svg>
