<svg width="28" height="28" viewBox="0 0 28 28" fill="none" xmlns="http://www.w3.org/2000/svg">
<rect width="28" height="28" rx="8" fill="#121212" fill-opacity="0.48"/>
<path d="M19.8697 14.1698C21.9429 12.0965 21.9249 8.72904 19.8097 6.6678C17.8863 4.7983 14.7225 4.70243 12.7003 6.46107C10.7199 8.18377 10.3544 10.976 11.5977 13.0882L11.6007 13.0912L6.35475 18.3372C6.23491 18.457 6.166 18.6158 6.15701 18.7866L6.05515 21.0216C6.04317 21.2433 6.22592 21.426 6.44762 21.4141L9.66232 21.2732C9.88702 21.2643 10.0608 21.0785 10.0608 20.8568L10.0608 19.2869C10.0608 19.0412 10.2645 18.8375 10.5102 18.8375L12.1999 18.8375C12.5295 18.8375 12.7931 18.5739 12.7901 18.2473L12.7901 16.216C12.7901 16.0183 12.868 15.8325 13.0058 15.6947L13.623 15.0775C15.6183 16.1681 18.1739 15.8655 19.8697 14.1698ZM17.8084 8.78296C18.3357 9.31026 18.3387 10.1641 17.8144 10.6884C17.2871 11.2157 16.4362 11.2097 15.909 10.6824C15.3877 10.1611 15.3847 9.30726 15.909 8.78296C16.4362 8.25567 17.2871 8.26166 17.8084 8.78296Z" fill="white"/>
</svg>
