<svg width="167" height="171" viewBox="0 0 167 171" fill="none" xmlns="http://www.w3.org/2000/svg">
<path d="M72.8133 1.44134C54.7015 5.0637 36.919 17.9066 25.3933 28.7737C23.9663 30.0909 19.8609 34.5695 14.8555 41.9459C8.59869 51.1665 -0.621861 70.9248 0.695361 93.9762C2.01258 117.028 11.5624 139.75 28.6863 152.922C45.8102 166.094 82.6924 178.278 112.001 165.765C141.309 153.251 158.433 124.931 162.384 113.076C166.336 101.221 166.665 84.097 166.336 76.523C166.007 68.949 160.738 45.8976 156.128 38.6529C151.517 31.4082 142.626 19.5531 125.831 10.3326C109.037 1.11203 90.925 -2.18102 72.8133 1.44134Z" fill="white" fill-opacity="0.15"/>
<path d="M54.9423 14.943C47.0389 20.2119 43.7459 22.5171 31.8909 34.7014C25.8536 40.1898 12.7253 54.4597 8.51019 67.6319C3.24131 84.0972 6.20505 98.2573 8.51019 105.173C10.8153 112.088 19.7066 126.248 25.3048 131.188C30.903 136.127 34.8546 142.055 42.4287 147.653C50.0027 153.251 61.8577 159.837 74.042 161.813C86.2263 163.789 99.0692 161.155 106.973 158.52C114.876 155.886 123.438 148.97 130.024 143.372C154.393 124.272 162.625 99.5745 161.308 80.1455C159.991 60.7165 151.758 38.3237 131.012 22.8464C110.266 7.36901 94.1296 6.71041 83.9211 6.3811C73.7127 6.0518 62.8456 9.67416 54.9423 14.943Z" fill="white" fill-opacity="0.15"/>
</svg>
