<svg width="52" height="52" viewBox="0 0 52 52" fill="none" xmlns="http://www.w3.org/2000/svg">
<path fill-rule="evenodd" clip-rule="evenodd" d="M26 52C40.3594 52 52 40.3594 52 26C52 11.6406 40.3594 0 26 0C11.6406 0 0 11.6406 0 26C0 40.3594 11.6406 52 26 52ZM22.5574 34.9866C22.773 35.0901 23.0025 35.1419 23.2459 35.1419C23.5936 35.1419 23.8753 35.0314 24.0909 34.8106C24.3135 34.5897 24.4247 34.3136 24.4247 33.9823V18.1005C24.4247 17.7623 24.3135 17.4758 24.0909 17.2412C23.8684 16.9996 23.5797 16.8788 23.225 16.8788C22.9816 16.8788 22.7625 16.934 22.5678 17.0445C22.3731 17.1549 22.1436 17.3378 21.8793 17.5932L17.4352 21.7345C17.3656 21.7966 17.2787 21.8276 17.1744 21.8276H14.1803C13.4779 21.8276 12.9389 22.0209 12.5633 22.4074C12.1878 22.787 12 23.3496 12 24.095V27.9464C12 28.6987 12.1878 29.2647 12.5633 29.6443C12.9389 30.0239 13.4779 30.2137 14.1803 30.2137H17.1744C17.2787 30.2137 17.3656 30.2448 17.4352 30.3069L21.8793 34.4896C22.1157 34.7174 22.3418 34.883 22.5574 34.9866ZM35.1133 17.9796C34.9011 17.7593 34.5764 17.69 34.2927 17.8044C34.009 17.9189 33.8232 18.1941 33.8232 18.5V23.9822L30.9571 21.1161C30.6642 20.8232 30.1893 20.8232 29.8964 21.1161C29.6035 21.409 29.6035 21.8839 29.8964 22.1768L33.7929 26.0732L29.8964 29.9697C29.6035 30.2626 29.6035 30.7374 29.8964 31.0303C30.1893 31.3232 30.6642 31.3232 30.9571 31.0303L33.8232 28.1642V33.5C33.8232 33.8033 34.0059 34.0768 34.2862 34.1929C34.5664 34.309 34.889 34.2448 35.1035 34.0303L38.9571 30.1768C39.25 29.8839 39.25 29.409 38.9571 29.1161L35.9142 26.0732L38.9571 23.0303C39.2461 22.7413 39.2505 22.274 38.9669 21.9796L35.1133 17.9796ZM37.3661 29.6464L35.3232 27.6036V31.6893L37.3661 29.6464ZM35.3232 20.3595V24.5429L37.3759 22.4902L35.3232 20.3595Z" fill="white"/>
</svg>
