<svg width="20" height="20" viewBox="0 0 20 20" fill="none" xmlns="http://www.w3.org/2000/svg">
<path opacity="0.9" fill-rule="evenodd" clip-rule="evenodd" d="M10 3.03391L8.63321 6.20778C8.31472 6.94737 7.6176 7.45385 6.81579 7.52822L3.37489 7.84735L5.97105 10.128C6.57602 10.6595 6.8423 11.479 6.66525 12.2646L5.90547 15.6357L8.87679 13.8713C9.56918 13.4602 10.4309 13.4602 11.1233 13.8713L14.0946 15.6357L13.3348 12.2646C13.1578 11.479 13.424 10.6595 14.029 10.128L16.6252 7.84735L13.1843 7.52822C12.3824 7.45385 11.6853 6.94737 11.3668 6.20778L10 3.03391ZM10.9185 2.13273C10.5714 1.32677 9.42865 1.32677 9.08157 2.13273L7.53107 5.73315C7.3863 6.06932 7.06943 6.29955 6.70497 6.33335L2.80164 6.69537C1.92786 6.77641 1.57474 7.86322 2.234 8.44238L5.17907 11.0296C5.45405 11.2711 5.57509 11.6437 5.49461 12.0007L4.63272 15.8249C4.43978 16.6809 5.36428 17.3526 6.11881 16.9046L9.48946 14.9032C9.80419 14.7163 10.1959 14.7163 10.5106 14.9032L13.8812 16.9046C14.6358 17.3526 15.5603 16.6809 15.3673 15.8249L14.5054 12.0007C14.425 11.6437 14.546 11.2711 14.821 11.0296L17.766 8.44238C18.4253 7.86322 18.0722 6.77641 17.1984 6.69537L13.2951 6.33335C12.9306 6.29955 12.6138 6.06932 12.469 5.73315L10.9185 2.13273Z" fill="#121212"/>
</svg>
