<svg width="28" height="28" viewBox="0 0 28 28" fill="none" xmlns="http://www.w3.org/2000/svg">
<path d="M11.2459 23.1419C11.0025 23.1419 10.773 23.0901 10.5574 22.9866C10.3418 22.883 10.1157 22.7174 9.87928 22.4896L5.43517 18.3069C5.36562 18.2448 5.27869 18.2137 5.17437 18.2137H2.18033C1.47789 18.2137 0.938897 18.0239 0.563338 17.6443C0.187779 17.2647 0 16.6987 0 15.9464V12.095C0 11.3496 0.187779 10.787 0.563338 10.4074C0.938897 10.0209 1.47789 9.82765 2.18033 9.82765H5.17437C5.27869 9.82765 5.36562 9.79659 5.43517 9.73447L9.87928 5.59319C10.1436 5.33781 10.3731 5.1549 10.5678 5.04447C10.7625 4.93403 10.9816 4.87881 11.225 4.87881C11.5797 4.87881 11.8684 4.9996 12.0909 5.24118C12.3135 5.47585 12.4247 5.76229 12.4247 6.10049V21.9823C12.4247 22.3136 12.3135 22.5897 12.0909 22.8106C11.8753 23.0314 11.5936 23.1419 11.2459 23.1419Z" fill="black"/>
<path fill-rule="evenodd" clip-rule="evenodd" d="M22.2927 5.80444C22.5764 5.69002 22.9011 5.75935 23.1133 5.97964L26.9669 9.97965C27.2505 10.274 27.2461 10.7413 26.9571 11.0303L23.9142 14.0732L26.9571 17.1161C27.25 17.409 27.25 17.8839 26.9571 18.1768L23.1035 22.0303C22.889 22.2448 22.5664 22.309 22.2862 22.1929C22.0059 22.0768 21.8232 21.8033 21.8232 21.5L21.8232 16.1642L18.9571 19.0303C18.6642 19.3232 18.1893 19.3232 17.8964 19.0303C17.6035 18.7374 17.6035 18.2626 17.8964 17.9697L21.7929 14.0732L17.8964 10.1768C17.6035 9.88389 17.6035 9.40901 17.8964 9.11612C18.1893 8.82323 18.6642 8.82323 18.9571 9.11612L21.8232 11.9822V6.49999C21.8232 6.1941 22.009 5.91886 22.2927 5.80444ZM23.3232 15.6036L25.3661 17.6464L23.3232 19.6893V15.6036ZM23.3232 12.5429L23.3232 8.3595L25.3759 10.4902L23.3232 12.5429Z" fill="black"/>
</svg>
