<svg width="52" height="52" viewBox="0 0 52 52" fill="none" xmlns="http://www.w3.org/2000/svg">
<path fill-rule="evenodd" clip-rule="evenodd" d="M26 52C40.3594 52 52 40.3594 52 26C52 11.6406 40.3594 0 26 0C11.6406 0 0 11.6406 0 26C0 40.3594 11.6406 52 26 52ZM38.5188 31.3102V20.7146C38.5188 20.7146 38.5188 20.6708 38.5626 20.7584C38.5626 20.4081 38.5188 20.1016 38.3874 19.8827C38.2999 19.6638 38.0372 19.5324 37.5993 19.5324C37.3804 19.5762 37.1615 19.62 36.9426 19.7513C36.7288 19.8582 36.573 19.9651 36.4516 20.0484C36.4238 20.0675 36.3978 20.0853 36.3734 20.1016C36.0231 20.3643 35.5853 20.7146 35.0599 21.1962C34.5345 21.6778 34.0529 22.2032 33.5712 22.7724C33.0896 23.3416 32.6956 23.9108 32.3453 24.5237C31.995 25.0929 31.8199 25.6183 31.8199 26.1C31.8199 26.5816 31.995 27.0632 32.3015 27.6324C32.608 28.2016 33.0021 28.727 33.3961 29.2524C33.6879 29.6414 34.0036 29.9824 34.3078 30.3109C34.4145 30.4261 34.5197 30.5398 34.622 30.6534L34.6222 30.6536C35.0162 31.0476 35.3226 31.354 35.5415 31.5291C35.5788 31.6036 35.6794 31.6781 35.8164 31.7796C35.8405 31.7974 35.8656 31.816 35.8918 31.8356C35.9315 31.8621 35.9793 31.8967 36.0315 31.9344C36.1517 32.0212 36.2951 32.1248 36.4172 32.1859C36.5047 32.2297 36.6033 32.2844 36.7018 32.3391C36.8003 32.3938 36.8988 32.4486 36.9864 32.4924C37.2053 32.5799 37.3366 32.6237 37.468 32.6237C37.8182 32.6237 38.0809 32.4924 38.2561 32.2296C38.4312 31.9669 38.5188 31.6605 38.5188 31.3102ZM29.7621 18C30.7253 18 31.5134 18.7881 31.5134 19.7513V32.0107C31.5134 32.974 30.7253 33.7621 29.7621 33.7621H15.7513C14.7881 33.7621 14 32.974 14 32.0107V19.7513C14 18.7881 14.7881 18 15.7513 18H29.7621Z" fill="white"/>
</svg>
