<svg width="28" height="28" viewBox="0 0 28 28" fill="none" xmlns="http://www.w3.org/2000/svg">
<path d="M10.2727 15.0059C10.2727 12.9442 11.9502 11.2699 14.0088 11.2699C16.0673 11.2699 17.7417 12.9442 17.7448 15.0059C17.7448 17.0676 16.0705 18.7419 14.0088 18.7419C11.9471 18.7419 10.2727 17.0645 10.2727 15.0059Z" fill="white"/>
<path fill-rule="evenodd" clip-rule="evenodd" d="M20.2655 8.99883H22.7489C23.4393 8.99883 23.9984 9.55799 23.9953 10.2483V20.7505C23.9953 21.4408 23.4362 22 22.7458 22H5.24951C4.55916 22 4 21.4408 4 20.7505V10.2452C4 9.55486 4.55916 8.9957 5.24951 8.9957H7.72979C8.20461 8.9957 8.63569 8.73018 8.84811 8.30535L9.65404 6.69036C9.86646 6.26865 10.2975 6 10.7724 6H17.2261C17.7009 6 18.132 6.26864 18.3444 6.69348L19.1472 8.30535C19.3565 8.73018 19.7907 8.99883 20.2655 8.99883ZM9.02304 15.0027C9.02304 17.7517 11.2597 19.9883 14.0086 19.9883C16.7575 19.9883 18.9941 17.7517 18.9941 15.0027C18.9941 12.2538 16.7575 10.0172 14.0086 10.0172C11.2597 10.0172 9.02304 12.2538 9.02304 15.0027ZM20.4123 11.2604C20.4123 11.6884 20.7591 12.032 21.1839 12.032C21.6087 12.032 21.9524 11.6853 21.9555 11.2604C21.9555 10.8356 21.6087 10.492 21.1839 10.492C20.7591 10.492 20.4123 10.8356 20.4123 11.2604Z" fill="white"/>
</svg>
