<svg width="15" height="14" viewBox="0 0 15 14" fill="none" xmlns="http://www.w3.org/2000/svg">
<g clip-path="url(#clip0_1199_10349)">
<path d="M11.539 0H2.62993C1.22993 0 0.0844727 1.14545 0.0844727 2.54545V11.4545C0.0844727 12.8545 1.22993 14 2.62993 14H11.539C12.939 14 14.0845 12.8545 14.0845 11.4545V2.54545C14.0845 1.14545 12.939 0 11.539 0ZM12.8117 11.4545C12.8117 12.1545 12.239 12.7273 11.539 12.7273H2.62993C1.92993 12.7273 1.3572 12.1545 1.3572 11.4545V2.54545C1.3572 1.84545 1.92993 1.27273 2.62993 1.27273H11.539C12.239 1.27273 12.8117 1.84545 12.8117 2.54545V11.4545Z" fill="white"/>
<path d="M7.08446 4.13623C5.49355 4.13623 4.22083 5.40896 4.22083 6.99987C4.22083 8.59078 5.49355 9.8635 7.08446 9.8635C8.67537 9.8635 9.9481 8.59078 9.9481 6.99987C9.9481 5.40896 8.67537 4.13623 7.08446 4.13623ZM7.08446 8.59078C6.19355 8.59078 5.49355 7.89078 5.49355 6.99987C5.49355 6.10896 6.19355 5.40896 7.08446 5.40896C7.97537 5.40896 8.67537 6.10896 8.67537 6.99987C8.67537 7.89078 7.97537 8.59078 7.08446 8.59078Z" fill="white"/>
<path d="M9.62994 3.49996C9.62994 3.75312 9.73051 3.99591 9.90952 4.17492C10.0885 4.35393 10.3313 4.4545 10.5845 4.4545C10.8377 4.4545 11.0804 4.35393 11.2595 4.17492C11.4385 3.99591 11.539 3.75312 11.539 3.49996C11.539 3.24679 11.4385 3.004 11.2595 2.82499C11.0804 2.64598 10.8377 2.54541 10.5845 2.54541C10.3313 2.54541 10.0885 2.64598 9.90952 2.82499C9.73051 3.004 9.62994 3.24679 9.62994 3.49996Z" fill="white"/>
</g>
<defs>
<clipPath id="clip0_1199_10349">
<rect width="14" height="14" fill="white" transform="translate(0.0844727)"/>
</clipPath>
</defs>
</svg>
