<svg width="50" height="50" viewBox="0 0 50 50" fill="none" xmlns="http://www.w3.org/2000/svg">
<path d="M32.2915 26.9608C32.2915 30.751 29.0269 33.8235 24.9998 33.8235C20.9727 33.8235 17.7081 30.751 17.7081 26.9608C17.7081 23.1706 20.9727 20.098 24.9998 20.098C29.0269 20.098 32.2915 23.1706 32.2915 26.9608Z" fill="#007AFF"/>
<path fill-rule="evenodd" clip-rule="evenodd" d="M18.6718 8.33331C17.984 8.33331 17.3489 8.68018 17.0077 9.24224L14.5833 13.2353H7.99999C5.8829 13.2353 4.16666 14.8506 4.16666 16.8431V38.0588C4.16666 40.0514 5.8829 41.6666 7.99999 41.6666H42C44.1171 41.6666 45.8333 40.0514 45.8333 38.0588V16.8431C45.8333 14.8506 44.1171 13.2353 42 13.2353L35.4167 13.2353L32.9923 9.24224C32.6511 8.68018 32.016 8.33331 31.3282 8.33331H18.6718ZM35.4166 26.9608C35.4166 32.3754 30.753 36.7647 25 36.7647C19.247 36.7647 14.5833 32.3754 14.5833 26.9608C14.5833 21.5462 19.247 17.1568 25 17.1568C30.753 17.1568 35.4166 21.5462 35.4166 26.9608ZM34.8958 19.1176C35.7588 19.1176 36.4583 18.4592 36.4583 17.647C36.4583 16.8349 35.7588 16.1765 34.8958 16.1765C34.0329 16.1765 33.3333 16.8349 33.3333 17.647C33.3333 18.4592 34.0329 19.1176 34.8958 19.1176Z" fill="#007AFF"/>
</svg>
