<svg width="16" height="17" viewBox="0 0 16 17" fill="none" xmlns="http://www.w3.org/2000/svg">
<path d="M2.5 8.5C2.5 9.05228 2.94772 9.5 3.5 9.5C4.05228 9.5 4.5 9.05228 4.5 8.5C4.5 7.94772 4.05228 7.5 3.5 7.5C2.94772 7.5 2.5 7.94772 2.5 8.5Z" fill="#007AFF"/>
<path d="M5.67703 6.44202C6.20456 6.99618 6.49916 7.73176 6.5 8.49687C6.50084 9.26198 6.20785 9.9982 5.68153 10.5535" stroke="#007AFF" stroke-width="1.5" stroke-linecap="round"/>
<path d="M7.7971 4.32153C8.88806 5.4375 9.49931 6.93588 9.50024 8.49652C9.50118 10.0571 8.89172 11.5563 7.8021 12.6735" stroke="#007AFF" stroke-width="1.5" stroke-linecap="round"/>
<path d="M9.91594 2.20203C11.5707 3.87918 12.4988 6.14021 12.4998 8.49625C12.5007 10.8523 11.5743 13.1141 9.92093 14.7925" stroke="#007AFF" stroke-width="1.5" stroke-linecap="round"/>
</svg>
