<svg width="24" height="24" viewBox="0 0 24 24" fill="none" xmlns="http://www.w3.org/2000/svg">
<path fill-rule="evenodd" clip-rule="evenodd" d="M4.25 7C4.25 4.92893 5.92893 3.25 8 3.25L18 3.25C20.0711 3.25 21.75 4.92893 21.75 7V14C21.75 16.0711 20.0711 17.75 18 17.75H14.5293C14.029 17.75 13.5429 17.9168 13.148 18.224L9.46046 21.092C9.23435 21.2679 8.92781 21.2996 8.67049 21.1737C8.41316 21.0479 8.25 20.7864 8.25 20.5V17.75H8C5.92893 17.75 4.25 16.0711 4.25 14V13.5C4.25 13.0858 4.58579 12.75 5 12.75C5.41421 12.75 5.75 13.0858 5.75 13.5V14C5.75 15.2426 6.75736 16.25 8 16.25H8.5C9.19036 16.25 9.75 16.8096 9.75 17.5V18.9665L12.227 17.0399C12.8853 16.528 13.6954 16.25 14.5293 16.25H18C19.2426 16.25 20.25 15.2426 20.25 14V7C20.25 5.75736 19.2426 4.75 18 4.75L8 4.75C6.75736 4.75 5.75 5.75736 5.75 7V7.5C5.75 7.91421 5.41421 8.25 5 8.25C4.58579 8.25 4.25 7.91421 4.25 7.5V7ZM2.25 10.5C2.25 10.0858 2.58579 9.75 3 9.75H12.6893L10.9697 8.03033C10.6768 7.73744 10.6768 7.26256 10.9697 6.96967C11.2626 6.67678 11.7374 6.67678 12.0303 6.96967L15.0303 9.96967C15.3232 10.2626 15.3232 10.7374 15.0303 11.0303L12.0303 14.0303C11.7374 14.3232 11.2626 14.3232 10.9697 14.0303C10.6768 13.7374 10.6768 13.2626 10.9697 12.9697L12.6893 11.25H3C2.58579 11.25 2.25 10.9142 2.25 10.5Z" fill="#EB4B35"/>
</svg>
