<svg width="24" height="24" viewBox="0 0 24 24" fill="none" xmlns="http://www.w3.org/2000/svg">
<g clip-path="url(#clip0_541_496223)">
<path d="M3.66669 11.9998L3.66669 3.6665L20.3334 3.6665V11.9998" stroke="black" stroke-width="1.5" stroke-linecap="round" stroke-linejoin="round"/>
<path fill-rule="evenodd" clip-rule="evenodd" d="M6.16669 20.3335C7.5474 20.3335 8.66669 19.2142 8.66669 17.8335C8.66669 16.4528 7.5474 15.3335 6.16669 15.3335C4.78597 15.3335 3.66669 16.4528 3.66669 17.8335C3.66669 19.2142 4.78597 20.3335 6.16669 20.3335Z" stroke="black" stroke-width="1.5" stroke-linecap="round" stroke-linejoin="round"/>
<path d="M17 7C10.496 15.861 8.58527 18.9502 7.9344 19.6011C6.95811 20.5774 5.37518 20.5774 4.39886 19.6011" stroke="black" stroke-width="1.5" stroke-linecap="round" stroke-linejoin="round"/>
<path fill-rule="evenodd" clip-rule="evenodd" d="M17.8333 20.3335C19.214 20.3335 20.3333 19.2142 20.3333 17.8335C20.3333 16.4528 19.214 15.3335 17.8333 15.3335C16.4526 15.3335 15.3333 16.4528 15.3333 17.8335C15.3333 19.2142 16.4526 20.3335 17.8333 20.3335Z" stroke="black" stroke-width="1.5" stroke-linecap="round" stroke-linejoin="round"/>
<path d="M19.6011 19.6011C18.6248 20.5774 17.0419 20.5774 16.0656 19.6011C15.4147 18.9502 13.504 15.861 7 7" stroke="black" stroke-width="1.5" stroke-linecap="round" stroke-linejoin="round"/>
</g>
<defs>
<clipPath id="clip0_541_496223">
<rect width="20" height="20" fill="white" transform="translate(2 2)"/>
</clipPath>
</defs>
</svg>
