<svg width="24" height="24" viewBox="0 0 24 24" fill="none" xmlns="http://www.w3.org/2000/svg">
<path fill-rule="evenodd" clip-rule="evenodd" d="M12 2.75C12.4142 2.75 12.75 3.08579 12.75 3.5V4.78363C14.4651 4.93819 16.0288 5.61761 17.2793 6.66005L17.9697 5.96967C18.2626 5.67678 18.7374 5.67678 19.0303 5.96967C19.3232 6.26256 19.3232 6.73744 19.0303 7.03033L18.34 7.72071C19.5325 9.15133 20.25 10.9919 20.25 13C20.25 17.5563 16.5563 21.25 12 21.25C7.44365 21.25 3.75 17.5563 3.75 13C3.75 8.69647 7.04513 5.16255 11.25 4.78363V3.5C11.25 3.08579 11.5858 2.75 12 2.75ZM5.25 13C5.25 9.27208 8.27208 6.25 12 6.25C15.7279 6.25 18.75 9.27208 18.75 13C18.75 16.7279 15.7279 19.75 12 19.75C8.27208 19.75 5.25 16.7279 5.25 13ZM12 7.25C12.4142 7.25 12.75 7.58579 12.75 8V11.9999C13.0536 12.228 13.25 12.591 13.25 13C13.25 13.6904 12.6904 14.25 12 14.25C11.3096 14.25 10.75 13.6904 10.75 13C10.75 12.591 10.9464 12.228 11.25 11.9999V8C11.25 7.58579 11.5858 7.25 12 7.25Z" fill="black"/>
</svg>
