<svg width="72" height="72" viewBox="0 0 72 72" fill="none" xmlns="http://www.w3.org/2000/svg">
<path d="M28.2597 12.1771C29.3983 8.57587 32.4333 6 35.9984 6C35.9984 6 35.9994 36.9876 36 56.843C26.6477 56.843 12.0519 56.843 12.0519 56.843C10.3664 56.843 9 55.4767 9 53.7911C9 52.5526 9.73774 51.4864 10.7977 51.008C11.1163 50.8642 11.4211 50.6764 11.628 50.3947L13.5202 47.8174C14.3811 46.6448 15.0856 45.3651 15.616 44.0106C16.3411 42.1586 16.7133 40.1873 16.7133 38.1984V27.7554C16.7133 26.5439 16.8764 25.3313 17.3207 24.2042C19.4623 18.771 23.3898 14.4417 28.2597 12.1771Z" fill="#945CD9"/>
<path d="M36 56.843C36.0006 36.9876 36.0016 6 36.0016 6C39.5667 6 42.6017 8.57587 43.7403 12.1771C48.6102 14.4417 52.5377 18.771 54.6793 24.2042C55.1236 25.3313 55.2867 26.5439 55.2867 27.7554V38.1984C55.2867 40.1873 55.6589 42.1586 56.384 44.0106C56.9144 45.3651 57.6189 46.6448 58.4798 47.8174L60.372 50.3947C60.5789 50.6764 60.8837 50.8642 61.2023 51.008C62.2623 51.4864 63 52.5526 63 53.7911C63 55.4767 61.6336 56.843 59.9481 56.843C59.9481 56.843 45.3523 56.843 36 56.843Z" fill="#945CD9"/>
<path d="M27.0527 59.2467H44.9473C43.6435 63.1702 40.1317 65.9842 36 65.9994C31.8683 65.9842 28.3565 63.1702 27.0527 59.2467Z" fill="#945CD9"/>
</svg>
