<svg width="23" height="23" viewBox="0 0 23 23" fill="none" xmlns="http://www.w3.org/2000/svg">
<path fill-rule="evenodd" clip-rule="evenodd" d="M15.4333 10.3792C15.4333 13.5272 12.8813 16.0792 9.73333 16.0792C6.5853 16.0792 4.03333 13.5272 4.03333 10.3792C4.03333 7.23118 6.5853 4.6792 9.73333 4.6792C12.8813 4.6792 15.4333 7.23118 15.4333 10.3792ZM13.737 16.9578C12.5704 17.6693 11.1997 18.0792 9.73333 18.0792C5.48073 18.0792 2.03333 14.6318 2.03333 10.3792C2.03333 6.12661 5.48073 2.6792 9.73333 2.6792C13.9859 2.6792 17.4333 6.12661 17.4333 10.3792C17.4333 12.0812 16.8811 13.6543 15.946 14.9289L20.5107 19.4935C21.0964 20.0793 21.0964 21.0291 20.5107 21.6149C19.9249 22.2006 18.9751 22.2006 18.3893 21.6149L13.806 17.0315C13.782 17.0075 13.759 16.9829 13.737 16.9578Z" fill="#007AFF"/>
</svg>
