<svg width="23" height="22" viewBox="0 0 23 22" fill="none" xmlns="http://www.w3.org/2000/svg">
<path fill-rule="evenodd" clip-rule="evenodd" d="M3.43825 1.55257C4.40028 0.727798 5.84877 0.839062 6.67355 1.80109C6.74196 1.88088 6.8048 1.96528 6.86164 2.05369L8.60124 4.75957C9.24657 5.75641 9.16686 7.04857 8.40525 7.93666L7.69689 8.72822C7.0975 9.398 7.10503 10.4194 7.71435 11.0992C8.26917 11.8732 8.87876 12.5923 9.54313 13.2567L9.87988 13.5843C10.4487 14.1227 11.0556 14.6231 11.7006 15.0854C12.3464 15.6643 13.3005 15.7 13.9686 15.1883L14.0716 15.1029L14.8631 14.3946C15.7109 13.6676 16.9268 13.5619 17.9025 14.1151L18.0402 14.1986L20.7461 15.9382C20.8345 15.995 20.9189 16.0578 20.9987 16.1263C21.9607 16.951 22.072 18.3995 21.2472 19.3616C19.018 21.5908 14.1305 22.4562 7.42679 15.9012L7.16123 15.6386C0.321021 8.79837 1.17967 3.81116 3.43825 1.55257Z" fill="#007AFF"/>
</svg>
