<svg width="24" height="24" viewBox="0 0 24 24" fill="none" xmlns="http://www.w3.org/2000/svg">
<path fill-rule="evenodd" clip-rule="evenodd" d="M10.67 3.75C6.5948 3.75 3.42004 6.72791 3.42004 10.25C3.42004 12.318 4.50065 14.1823 6.2256 15.3847C6.49324 15.5713 6.59077 15.8533 6.62975 16.0024C6.67724 16.184 6.69156 16.3799 6.68428 16.5699C6.66986 16.947 6.5671 17.3893 6.34733 17.8228C6.97757 17.5072 7.36989 17.2741 7.64646 17.1098L7.75233 17.047C7.88187 16.9706 8.03634 16.8803 8.18668 16.8222C8.33842 16.7636 8.52505 16.7215 8.73633 16.75H8.73911H8.74476H8.75039H8.756H8.76159H8.76717H8.77274H8.77828H8.78381H8.78932H8.79482H8.8003H8.80577H8.81121H8.81665H8.82206H8.82746H8.83285H8.83821H8.84357H8.8489H8.85423H8.85953H8.86482H8.8701H8.87536H8.8806H8.88583H8.89104H8.89624H8.90142H8.90659H8.91175H8.91688H8.92201H8.92712H8.93221H8.93729H8.94235H8.9474H8.95244H8.95746H8.96247H8.96746H8.97244H8.9774H8.98235H8.98728H8.9922H8.99711H9.002H9.00688H9.01175H9.0166H9.02144H9.02626H9.03107H9.03587H9.04065H9.04542H9.05018H9.05492H9.05965H9.06437H9.06907H9.07376H9.07844H9.08311H9.08776H9.0924H9.09702H9.10163H9.10623H9.11082H9.1154H9.11996H9.12451H9.12905H9.13357H9.13809H9.14259H9.14708H9.15155H9.15602H9.16047H9.16491H9.16934H9.17376H9.17816H9.18255H9.18694H9.19131H9.19567H9.20001H9.20435H9.20867H9.21299H9.21729H9.22158H9.22586H9.23013H9.23438H9.23863H9.24287H9.24709H9.2513H9.25551H9.2597H9.26388H9.26805H9.27221H9.27636H9.2805H9.28463H9.28875H9.29286H9.29696H9.30105H9.30513H9.3092H9.31326H9.31731H9.32135H9.32538H9.32939H9.33341H9.33741H9.3414H9.34538H9.34935H9.35331H9.35727H9.36121H9.36515H9.36907H9.37299H9.3769H9.3808H9.38469H9.38857H9.39244H9.39631H9.40016H9.40401H9.40785H9.41168H9.4155H9.41931H9.42312H9.42691H9.4307H9.43448H9.43825H9.44202H9.44577H9.44952H9.45326H9.45699H9.46072H9.46444H9.46814H9.47185H9.47554H9.47923H9.48291H9.48658H9.49025H9.4939H9.49755H9.5012H9.50483H9.50846H9.51209H9.5157H9.51931H9.52291H9.52651H9.5301H9.53368H9.53726H9.54083H9.54439H9.54795H9.5515H9.55504H9.55858H9.56211H9.56564H9.56916H9.57267H9.57618H9.57968H9.58318H9.58667H9.59015H9.59363H9.59711H9.60058H9.60404H9.6075H9.61095H9.6144H9.61784H9.62127H9.62471H9.62813H9.63156H9.63497H9.63838H9.64179H9.6452H9.64859H9.65199H9.65538H9.65876H9.66214H9.66552H9.66889H9.67225H9.67562H9.67898H9.68233H9.68568H9.68903H9.69237H9.69571H9.69904H9.70237H9.7057H9.70903H9.71235H9.71566H9.71898H9.72229H9.72559H9.7289H9.7322H9.73549H9.73879H9.74208H9.74537H9.74865H9.75193H9.75521H9.75849H9.76176H9.76503H9.7683H9.77157H9.77483H9.77809H9.78135H9.78461H9.78786H9.79112H9.79437H9.79761H9.80086H9.8041H9.80735H9.81059H9.81383H9.81706H9.8203H9.82353H9.82676H9.82999H9.83322H9.83645H9.83968H9.8429H9.84613H9.84935H9.85257H9.85579H9.85901H9.86223H9.86545H9.86866H9.87188H9.8751H9.87831H9.88153H9.88474H9.88795H9.89117H9.89438H9.89759H9.9008H9.90402H9.90723H9.91044H9.91365H9.91687H9.92008H9.92329H9.9265H9.92972H9.93293H9.93614H9.93936H9.94257H9.94579H9.94901H9.95222H9.95544H9.95866H9.96188H9.9651H9.96832H9.97154H9.97476H9.97799H9.98121H9.98444H9.98767H9.9909H9.99413H9.99736H10.0006H10.0038H10.0071H10.0103H10.0136H10.0168H10.02H10.0233H10.0265H10.0298H10.033H10.0363H10.0396H10.0428H10.0461H10.0493H10.0526H10.0559H10.0592H10.0624H10.0657H10.069H10.0723H10.0756H10.0788H10.0821H10.0854H10.0887H10.092H10.0953H10.0987H10.102H10.1053H10.1086H10.1119H10.1152H10.1186H10.1219H10.1252H10.1286H10.1319H10.1353H10.1386H10.142H10.1454H10.1487H10.1521H10.1555H10.1588H10.1622H10.1656H10.169H10.1724H10.1758H10.1792H10.1826H10.186H10.1894H10.1929H10.1963H10.1997H10.2032H10.2066H10.2101H10.2135H10.217H10.2205H10.2239H10.2274H10.2309H10.2344H10.2379H10.2414H10.2449H10.2484H10.2519H10.2554H10.259H10.2625H10.266H10.2696H10.2731H10.2767H10.2803H10.2838H10.2874H10.291H10.2946H10.2982H10.3018H10.3054H10.309H10.3127H10.3163H10.3199H10.3236H10.3272H10.3309H10.3346H10.3382H10.3419H10.3456H10.3493H10.353H10.3567H10.3605H10.3642H10.3679H10.3717H10.3754H10.3792H10.3829H10.3867H10.3905H10.3943H10.3981H10.4019H10.4057H10.4096H10.4134H10.4172H10.4211H10.4249H10.4288H10.4327H10.4366H10.4405H10.4444H10.4483H10.4522H10.4561H10.4601H10.464H10.468H10.472H10.4759H10.4799H10.4839H10.4879H10.4919H10.496H10.5H10.504H10.5081H10.5122H10.5162H10.5203H10.5244H10.5285H10.5326H10.5368H10.5409H10.545H10.5492H10.5534H10.5575H10.5617H10.5659H10.5701H10.5744H10.5786H10.5828H10.5871H10.5914H10.5956H10.5999H10.6042H10.6085H10.6128H10.6172H10.6215H10.6259H10.6302H10.6346H10.639H10.6434H10.6478H10.6522H10.6567H10.6611H10.6656H10.67C14.7453 16.75 17.92 13.7721 17.92 10.25C17.92 6.72791 14.7453 3.75 10.67 3.75ZM4.87531 18.2855C4.8754 18.2854 4.87794 18.2856 4.88263 18.2863C4.87756 18.286 4.87521 18.2856 4.87531 18.2855ZM1.92004 10.25C1.92004 5.76396 5.90873 2.25 10.67 2.25C15.4314 2.25 19.42 5.76396 19.42 10.25C19.42 14.736 15.4314 18.25 10.67 18.25H10.6656H10.6611H10.6567H10.6522H10.6478H10.6434H10.639H10.6346H10.6302H10.6259H10.6215H10.6172H10.6128H10.6085H10.6042H10.5999H10.5956H10.5914H10.5871H10.5828H10.5786H10.5744H10.5701H10.5659H10.5617H10.5575H10.5534H10.5492H10.545H10.5409H10.5368H10.5326H10.5285H10.5244H10.5203H10.5162H10.5122H10.5081H10.504H10.5H10.496H10.4919H10.4879H10.4839H10.4799H10.4759H10.472H10.468H10.464H10.4601H10.4561H10.4522H10.4483H10.4444H10.4405H10.4366H10.4327H10.4288H10.4249H10.4211H10.4172H10.4134H10.4096H10.4057H10.4019H10.3981H10.3943H10.3905H10.3867H10.3829H10.3792H10.3754H10.3717H10.3679H10.3642H10.3605H10.3567H10.353H10.3493H10.3456H10.3419H10.3382H10.3346H10.3309H10.3272H10.3236H10.3199H10.3163H10.3127H10.309H10.3054H10.3018H10.2982H10.2946H10.291H10.2874H10.2838H10.2803H10.2767H10.2731H10.2696H10.266H10.2625H10.259H10.2554H10.2519H10.2484H10.2449H10.2414H10.2379H10.2344H10.2309H10.2274H10.2239H10.2205H10.217H10.2135H10.2101H10.2066H10.2032H10.1997H10.1963H10.1929H10.1894H10.186H10.1826H10.1792H10.1758H10.1724H10.169H10.1656H10.1622H10.1588H10.1555H10.1521H10.1487H10.1454H10.142H10.1386H10.1353H10.1319H10.1286H10.1252H10.1219H10.1186H10.1152H10.1119H10.1086H10.1053H10.102H10.0987H10.0953H10.092H10.0887H10.0854H10.0821H10.0788H10.0756H10.0723H10.069H10.0657H10.0624H10.0592H10.0559H10.0526H10.0493H10.0461H10.0428H10.0396H10.0363H10.033H10.0298H10.0265H10.0233H10.02H10.0168H10.0136H10.0103H10.0071H10.0038H10.0006H9.99736H9.99413H9.9909H9.98767H9.98444H9.98121H9.97799H9.97476H9.97154H9.96832H9.9651H9.96188H9.95866H9.95544H9.95222H9.94901H9.94579H9.94257H9.93936H9.93614H9.93293H9.92972H9.9265H9.92329H9.92008H9.91687H9.91365H9.91044H9.90723H9.90402H9.9008H9.89759H9.89438H9.89117H9.88795H9.88474H9.88153H9.87831H9.8751H9.87188H9.86866H9.86545H9.86223H9.85901H9.85579H9.85257H9.84935H9.84613H9.8429H9.83968H9.83645H9.83322H9.82999H9.82676H9.82353H9.8203H9.81706H9.81383H9.81059H9.80735H9.8041H9.80086H9.79761H9.79437H9.79112H9.78786H9.78461H9.78135H9.77809H9.77483H9.77157H9.7683H9.76503H9.76176H9.75849H9.75521H9.75193H9.74865H9.74537H9.74208H9.73879H9.73549H9.7322H9.7289H9.72559H9.72229H9.71898H9.71566H9.71235H9.70903H9.7057H9.70237H9.69904H9.69571H9.69237H9.68903H9.68568H9.68233H9.67898H9.67562H9.67225H9.66889H9.66552H9.66214H9.65876H9.65538H9.65199H9.64859H9.6452H9.64179H9.63838H9.63497H9.63156H9.62813H9.62471H9.62127H9.61784H9.6144H9.61095H9.6075H9.60404H9.60058H9.59711H9.59363H9.59015H9.58667H9.58318H9.57968H9.57618H9.57267H9.56916H9.56564H9.56211H9.55858H9.55504H9.5515H9.54795H9.54439H9.54083H9.53726H9.53368H9.5301H9.52651H9.52291H9.51931H9.5157H9.51209H9.50846H9.50483H9.5012H9.49755H9.4939H9.49025H9.48658H9.48291H9.47923H9.47554H9.47185H9.46814H9.46444H9.46072H9.45699H9.45326H9.44952H9.44577H9.44202H9.43825H9.43448H9.4307H9.42691H9.42312H9.41931H9.4155H9.41168H9.40785H9.40401H9.40016H9.39631H9.39244H9.38857H9.38469H9.3808H9.3769H9.37299H9.36907H9.36515H9.36121H9.35727H9.35331H9.34935H9.34538H9.3414H9.33741H9.33341H9.32939H9.32538H9.32135H9.31731H9.31326H9.3092H9.30513H9.30105H9.29696H9.29286H9.28875H9.28463H9.2805H9.27636H9.27221H9.26805H9.26388H9.2597H9.25551H9.2513H9.24709H9.24287H9.23863H9.23438H9.23013H9.22586H9.22158H9.21729H9.21299H9.20867H9.20435H9.20001H9.19567H9.19131H9.18694H9.18255H9.17816H9.17376H9.16934H9.16491H9.16047H9.15602H9.15155H9.14708H9.14259H9.13809H9.13357H9.12905H9.12451H9.11996H9.1154H9.11082H9.10623H9.10163H9.09702H9.0924H9.08776H9.08311H9.07844H9.07376H9.06907H9.06437H9.05965H9.05492H9.05018H9.04542H9.04065H9.03587H9.03107H9.02626H9.02144H9.0166H9.01175H9.00688H9.002H8.99711H8.9922H8.98728H8.98235H8.9774H8.97244H8.96746H8.96247H8.95746H8.95244H8.9474H8.94235H8.93729H8.93221H8.92712H8.92201H8.91688H8.91175H8.90659H8.90142H8.89624H8.89104H8.88583H8.8806H8.87536H8.8701H8.86482H8.85953H8.85423H8.8489H8.84357H8.83821H8.83285H8.82746H8.82206H8.81665H8.81121H8.80577H8.8003H8.79482H8.78932H8.78381H8.77828H8.77274H8.76717H8.76159H8.756H8.75039H8.74476H8.73911H8.73345H8.72777H8.72208H8.71636H8.71063H8.70489H8.69912H8.69334H8.68754H8.68173H8.67589H8.67004H8.67001C8.63115 18.2709 8.58209 18.2991 8.51438 18.3391L8.41174 18.3999L8.41172 18.3999L8.41168 18.3999C8.129 18.5679 7.69298 18.8271 7.00545 19.1708C6.45729 19.4449 5.95435 19.619 5.53858 19.7096C5.33163 19.7547 5.13364 19.7818 4.95444 19.7862C4.79981 19.7899 4.56773 19.7803 4.35191 19.6792C4.1826 19.5999 3.94658 19.4298 3.85805 19.1107C3.77717 18.8192 3.87031 18.5755 3.92833 18.4568C4.03514 18.2382 4.22795 18.0403 4.33705 17.9284L4.34094 17.9244C4.38458 17.8796 4.42684 17.8366 4.46758 17.7952C4.71165 17.5472 4.90101 17.3548 5.00357 17.156C5.12978 16.9115 5.17912 16.6762 5.18538 16.5126C5.18575 16.5029 5.18596 16.4938 5.18603 16.4851C3.21053 15.031 1.92004 12.7889 1.92004 10.25ZM20.3746 8.31064C20.7553 8.14747 21.1962 8.32384 21.3594 8.70456C21.6387 9.35629 21.9607 10.4358 22.0552 11.6283C22.1492 12.8149 22.0244 14.2005 21.3132 15.3859C20.6916 16.4218 20.1216 17.1705 19.6513 17.6906C19.4013 17.967 19.1675 18.1923 18.9588 18.3633C18.9691 18.442 18.9817 18.5283 18.9972 18.6189C19.0658 19.0197 19.1722 19.3921 19.3028 19.5973C19.3933 19.7396 19.5787 19.9333 19.7831 20.1174C19.878 20.2029 19.9652 20.2758 20.0284 20.3272C20.0599 20.3527 20.0849 20.3726 20.1016 20.3856L20.1198 20.3998L20.1235 20.4026L20.1236 20.4027L20.1237 20.4027C20.3801 20.5975 20.4836 20.9341 20.3809 21.2392C20.2781 21.5444 19.9921 21.75 19.67 21.75C19.3804 21.75 18.9152 21.7219 18.4125 21.6403C17.9171 21.56 17.3322 21.4196 16.8346 21.1708C16.3695 20.9382 16.0484 20.6772 15.8477 20.514L15.8476 20.514L15.8475 20.5139C15.7978 20.4734 15.7554 20.439 15.72 20.4125C15.6293 20.3444 15.5734 20.3139 15.516 20.2938C15.457 20.2732 15.3565 20.25 15.17 20.25C14.9787 20.25 14.7744 20.274 14.5246 20.3118C14.4655 20.3208 14.4024 20.3308 14.3363 20.3413C14.1395 20.3724 13.9156 20.4079 13.6904 20.4329C13.0555 20.5035 12.3151 20.5056 11.4329 20.2115C11.0399 20.0805 10.8275 19.6558 10.9585 19.2628C11.0895 18.8699 11.5143 18.6575 11.9072 18.7885C12.525 18.9944 13.0346 18.9965 13.5247 18.9421C13.7125 18.9212 13.8853 18.8939 14.0719 18.8643C14.1452 18.8527 14.2206 18.8408 14.2999 18.8288C14.5656 18.7885 14.8614 18.75 15.17 18.75C15.4836 18.75 15.7581 18.7893 16.0116 18.878C16.2667 18.9673 16.4608 19.0931 16.62 19.2125C16.7088 19.2791 16.784 19.3398 16.8552 19.3974C17.0424 19.5486 17.2016 19.6773 17.5055 19.8292C17.5977 19.8753 17.7005 19.9176 17.8109 19.956C17.6577 19.5784 17.5706 19.1755 17.5187 18.8717C17.4795 18.6422 17.4553 18.4374 17.4409 18.2898C17.4337 18.2156 17.4288 18.155 17.4257 18.112C17.4242 18.0904 17.4231 18.0732 17.4223 18.0608L17.4214 18.0458L17.4212 18.0412L17.4211 18.0396L17.4211 18.0389L17.421 18.0387C17.421 18.0385 17.421 18.0384 18.17 18L17.421 18.0384C17.4058 17.7408 17.5681 17.4624 17.8346 17.3292C17.8345 17.3292 17.8345 17.3292 17.8348 17.3291C17.837 17.3279 17.8559 17.3175 17.8927 17.2917C17.9316 17.2643 17.9831 17.2249 18.0468 17.1707C18.1743 17.0624 18.3405 16.9037 18.5388 16.6844C18.9351 16.2462 19.4485 15.5782 20.0269 14.6141C20.5157 13.7995 20.6408 12.7684 20.5599 11.7467C20.4794 10.7309 20.2014 9.81038 19.9807 9.29544C19.8175 8.91472 19.9939 8.47381 20.3746 8.31064ZM14.2005 6.96967C14.4933 7.26256 14.4933 7.73744 14.2005 8.03033L11.7308 10.5L14.2005 12.9697C14.4933 13.2626 14.4933 13.7374 14.2005 14.0303C13.9076 14.3232 13.4327 14.3232 13.1398 14.0303L10.6701 11.5607L8.20045 14.0303C7.90756 14.3232 7.43269 14.3232 7.13979 14.0303C6.8469 13.7374 6.8469 13.2626 7.13979 12.9697L9.60946 10.5L7.13979 8.03033C6.8469 7.73744 6.8469 7.26256 7.13979 6.96967C7.43269 6.67678 7.90756 6.67678 8.20045 6.96967L10.6701 9.43934L13.1398 6.96967C13.4327 6.67678 13.9076 6.67678 14.2005 6.96967Z" fill="black"/>
</svg>
