<svg width="20" height="20" viewBox="0 0 20 20" fill="none" xmlns="http://www.w3.org/2000/svg">
<path fill-rule="evenodd" clip-rule="evenodd" d="M16.5146 7.65675L13.0001 9.9998C13.4349 12.1729 13.114 13.2126 12.7574 14.3676C12.7038 14.5414 12.6494 14.7178 12.5966 14.901L12.5482 14.9511L12.5001 14.9998C12.2524 15.2502 11.8483 15.2514 11.5993 15.0023L9.06377 12.312L2.50049 17L7.43535 10.5841L4.99982 7.9998C4.75176 7.75176 4.75176 7.34961 4.99982 7.10157C7.0003 5.9998 8.0003 5.9998 9.50007 6.50029L12.0729 2.97232C12.4416 2.46676 13.1787 2.42015 13.6082 2.87525L16.6873 6.1384C17.1123 6.5888 17.0299 7.31325 16.5146 7.65675Z" fill="#121212"/>
</svg>
