<svg width="24" height="24" viewBox="0 0 24 24" fill="none" xmlns="http://www.w3.org/2000/svg">
<path fill-rule="evenodd" clip-rule="evenodd" d="M12.4699 2.96967C12.7628 2.67678 13.2376 2.67678 13.5305 2.96967L15.5305 4.96967C15.8234 5.26256 15.8234 5.73744 15.5305 6.03033C15.2376 6.32322 14.7628 6.32322 14.4699 6.03033L12.4699 4.03033C12.177 3.73744 12.177 3.26256 12.4699 2.96967ZM8.18955 9.70456C8.07137 9.4288 7.80021 9.25 7.50019 9.25C7.20017 9.25 6.92902 9.4288 6.81083 9.70456L2.31083 20.2046C2.14767 20.5853 2.32403 21.0262 2.70475 21.1894C3.08548 21.3525 3.52638 21.1762 3.68955 20.7954L5.20903 17.25H9.79136L11.3108 20.7954C11.474 21.1762 11.9149 21.3525 12.2956 21.1894C12.6764 21.0262 12.8527 20.5853 12.6896 20.2046L11.3576 17.0967C11.6181 17.0517 11.9381 16.9923 12.3006 16.9046C13.0547 16.7221 13.9896 16.4181 15.0076 15.8603C17.7806 17.3371 20.1568 17.4336 21.1473 17.2354C21.5535 17.1542 21.8169 16.759 21.7356 16.3529C21.6544 15.9467 21.2592 15.6833 20.8531 15.7646C20.3035 15.8745 18.5761 15.8746 16.3778 14.866C17.2542 13.9904 17.807 12.8459 18.1543 11.7213C18.5249 10.5212 18.6827 9.27743 18.732 8.25H20.0002C20.4144 8.25 20.7502 7.91421 20.7502 7.5C20.7502 7.08579 20.4144 6.75 20.0002 6.75H18.0002H12.0085C12.0028 6.74994 11.9971 6.74994 11.9914 6.75L10.0002 6.75C9.58598 6.75 9.25019 7.08579 9.25019 7.5C9.25019 7.91421 9.58598 8.25 10.0002 8.25H11.2171C11.2129 9.18855 11.3267 10.374 11.6682 11.5471C12.0121 12.7288 12.6057 13.9571 13.5967 14.8873C12.9869 15.1593 12.4272 15.3307 11.9478 15.4466C11.5783 15.536 11.2557 15.5928 10.9839 15.6389L10.9038 15.6523C10.8536 15.6607 10.8019 15.6694 10.7498 15.6785L8.18955 9.70456ZM14.9884 14.0979C15.8053 13.4512 16.3618 12.4419 16.7211 11.2787C17.0379 10.2529 17.1815 9.16849 17.2301 8.25L12.7171 8.25C12.713 9.06008 12.8106 10.1047 13.1084 11.1279C13.4552 12.3193 14.0484 13.4026 14.9884 14.0979ZM9.1485 15.75L7.50019 11.9039L5.85188 15.75H9.1485Z" fill="black"/>
</svg>
