<svg width="24" height="24" viewBox="0 0 24 24" fill="none" xmlns="http://www.w3.org/2000/svg">
    <path fill-rule="evenodd" clip-rule="evenodd"
        d="M4.35466 18.2306C4.28848 18.1021 4.28077 17.9501 4.3357 17.8143L4.64564 17.9396L4.3357 17.8143L4.33573 17.8142L4.33587 17.8138L4.33646 17.8124L4.33885 17.8065L4.34837 17.7829L4.38531 17.6909C4.4175 17.6107 4.4643 17.4936 4.52255 17.3469C4.63906 17.0534 4.80133 16.6413 4.98421 16.1673C5.35066 15.2177 5.79728 14.0264 6.12487 13.0436C6.41003 12.1882 6.56475 11.2534 6.72181 10.2901L6.72927 10.2443C6.88109 9.31274 7.03829 8.34823 7.33269 7.48959C7.63491 6.60815 8.09551 5.7939 8.8852 5.20676C9.67599 4.61881 10.7384 4.30176 12.1621 4.30176C13.5863 4.30176 14.6708 4.61891 15.4892 5.20042C15.8702 5.47109 16.1823 5.79112 16.4397 6.14555L15.7212 6.86404C15.5019 6.53198 15.2359 6.24713 14.91 6.0156C14.3034 5.5846 13.438 5.30176 12.1621 5.30176C10.8858 5.30176 10.0529 5.58471 9.48186 6.00926C8.90976 6.43461 8.54214 7.04537 8.27863 7.81392C8.01213 8.5912 7.8664 9.48412 7.70878 10.451C7.55404 11.4001 7.3884 12.4153 7.07356 13.3599C6.73841 14.3653 6.28503 15.574 5.91716 16.5273C5.88695 16.6056 5.85729 16.6823 5.8283 16.757L4.64564 17.9396L4.35466 18.2306ZM16.495 8.91872C16.5942 9.39674 16.6662 9.9036 16.728 10.4289C16.7626 10.7228 16.7942 11.0254 16.8261 11.3308C16.8948 11.9886 16.9648 12.6593 17.0689 13.284C17.2499 14.3697 17.6744 15.608 18.0439 16.5575C18.1835 16.9164 18.3169 17.2381 18.4292 17.5004L7.91227 17.5014L6.91217 18.5015L19.1993 18.5003C19.3706 18.5003 19.53 18.4125 19.6217 18.2677C19.7133 18.1229 19.7245 17.9413 19.6512 17.7864L19.6512 17.7864L19.6511 17.7862L19.6505 17.7851L19.6481 17.7799L19.6379 17.758C19.6288 17.7385 19.6152 17.7091 19.5977 17.6709C19.5626 17.5943 19.5119 17.4819 19.4497 17.3403C19.3253 17.0569 19.1558 16.6576 18.9758 16.1949C18.6129 15.2621 18.2189 14.1011 18.0553 13.1196C17.9562 12.5249 17.8918 11.9071 17.8251 11.267L17.8251 11.2669L17.825 11.2668C17.7924 10.9539 17.7592 10.6356 17.7212 10.3121C17.6333 9.56527 17.5204 8.8047 17.3244 8.08929L16.495 8.91872Z"
        fill="#EB4B35" />
    <path
        d="M13.1998 4.8001C13.1998 4.13736 12.6625 3.6001 11.9998 3.6001C11.3371 3.6001 10.7998 4.13736 10.7998 4.8001"
        stroke="#EB4B35" />
    <path
        d="M14.3996 18C14.3996 19.3255 13.3251 20.4 11.9996 20.4C10.6741 20.4 9.59961 19.3255 9.59961 18"
        stroke="#EB4B35" />
    <path d="M3.59961 20.3999L20.3996 3.5999" stroke="#EB4B35" stroke-linecap="round"
        stroke-linejoin="round" />
</svg>
