<svg width="24" height="24" viewBox="0 0 24 24" fill="none" xmlns="http://www.w3.org/2000/svg">
    <path fill-rule="evenodd" clip-rule="evenodd" d="M4.07708 17.8018C4.08467 17.7744 4.09386 17.7473 4.10467 17.7205L4.1047 17.7205L4.10483 17.7201L4.1054 17.7187L4.10776 17.7129L4.11721 17.6895L4.15401 17.5979C4.1861 17.5179 4.23279 17.4011 4.29092 17.2546C4.40721 16.9617 4.56917 16.5504 4.75171 16.0773C5.1178 15.1286 5.56273 13.9417 5.88844 12.9646C6.16617 12.1314 6.31816 11.2167 6.4758 10.2498L6.48487 10.1941L6.48488 10.1941C6.63549 9.2699 6.7956 8.28741 7.09694 7.40851C7.40883 6.49884 7.89268 5.63372 8.73677 5.00614C9.5825 4.37733 10.7023 4.05176 12.1628 4.05176C13.6241 4.05176 14.7634 4.37749 15.6347 4.99662C15.883 5.17303 16.1033 5.36879 16.299 5.57987L15.2371 6.64177C15.0964 6.48402 14.94 6.3431 14.7659 6.21939C14.2123 5.82603 13.4016 5.55176 12.1628 5.55176C10.9234 5.55176 10.1478 5.82618 9.63176 6.20988C9.11406 6.59479 8.76969 7.15467 8.51585 7.895C8.25753 8.64842 8.11474 9.51905 7.95625 10.4912L7.95506 10.4985L7.95506 10.4985C7.80122 11.4421 7.6329 12.4746 7.31146 13.4389C7.12891 13.9866 6.91173 14.5935 6.69248 15.1864L4.1429 17.736L4.07708 17.8018ZM16.3855 9.73608C16.4204 9.97073 16.4515 10.2117 16.4805 10.4581C16.5142 10.7449 16.5454 11.0434 16.5771 11.3467L16.5771 11.3468C16.6462 12.0086 16.7177 12.6928 16.823 13.3251C17.0083 14.4368 17.4406 15.6945 17.8116 16.6482C17.8955 16.8638 17.9772 17.0661 18.0535 17.2504L8.87021 17.2513L7.37006 18.7515L19.2 18.7503C19.4571 18.7502 19.6962 18.6186 19.8337 18.4014C19.9711 18.1843 19.9878 17.9118 19.8779 17.6795L19.8779 17.6795L19.8774 17.6785L19.8751 17.6736L19.8652 17.6525C19.8564 17.6334 19.843 17.6046 19.8257 17.5668C19.7912 17.4913 19.7409 17.3801 19.6794 17.2398C19.5561 16.9589 19.388 16.5629 19.2096 16.1043C18.8482 15.1756 18.4619 14.034 18.3026 13.0785C18.2048 12.4912 18.1417 11.8863 18.0755 11.2509C18.0427 10.9362 18.0092 10.6141 17.9702 10.2829C17.8989 9.677 17.8104 9.05397 17.6726 8.4489L16.3855 9.73608Z" fill="#EB4B35"/>
    <path d="M13.2 4.8001C13.2 4.13736 12.6627 3.6001 12 3.6001C11.3372 3.6001 10.8 4.13736 10.8 4.8001" stroke="#EB4B35" stroke-width="1.5"/>
    <path d="M14.4 18C14.4 19.3255 13.3255 20.4 12 20.4C10.6745 20.4 9.59998 19.3255 9.59998 18" stroke="#EB4B35" stroke-width="1.5"/>
    <path d="M3.59998 20.3999L20.4 3.5999" stroke="#EB4B35" stroke-width="1.5" stroke-linecap="round" stroke-linejoin="round"/>
</svg>
