<svg width="28" height="28" viewBox="0 0 28 28" fill="none" xmlns="http://www.w3.org/2000/svg">
<path d="M22.6747 11.5001C22.2924 7.5075 18.9682 4.375 14.875 4.375C11.7084 4.375 8.9976 6.2545 7.74723 8.95125C7.36535 8.82349 6.966 8.7556 6.56335 8.75C5.51914 8.75023 4.51775 9.16515 3.77938 9.90352C3.041 10.6419 2.62609 11.6433 2.62585 12.6875C2.62585 13.1197 2.71248 13.5284 2.8411 13.916C1.14973 14.9021 0.000854492 16.7116 0.000854492 18.8107C0.000854492 19.5576 0.147966 20.2972 0.43379 20.9873C0.719613 21.6773 1.13855 22.3043 1.66668 22.8324C2.7333 23.899 4.17994 24.4982 5.68835 24.4982V24.5H21.4375V24.4982C25.0626 24.4982 28 21.5609 28 17.9357C28 14.7367 25.7066 12.0794 22.6747 11.5001ZM21.4375 22.7482V22.75H5.68835C4.64433 22.7481 3.64362 22.3325 2.90555 21.5941C2.16747 20.8557 1.75224 19.8548 1.75085 18.8107C1.75085 17.4107 2.48848 16.1464 3.7231 15.4271C4.92273 14.7385 5.00498 14.602 4.50185 13.3648C4.42379 13.1475 4.38124 12.9191 4.37585 12.6884C4.37585 11.4818 5.35673 10.5009 6.56335 10.5009C6.56335 10.5009 7.13735 10.4597 7.74723 10.7021C8.75085 11.102 8.86023 10.7196 9.33448 9.688C10.3381 7.52412 12.5125 6.125 14.875 6.125C18.025 6.125 20.629 8.50762 20.9335 11.6672C21.0411 12.9202 21.0411 12.9203 22.3466 13.2186C23.4439 13.429 24.4337 14.0149 25.146 14.8757C25.8583 15.7365 26.2486 16.8185 26.25 17.9357C26.25 20.5896 24.0914 22.7482 21.4375 22.7482Z" fill="#121212"/>
</svg>
