<svg width="30" height="26" viewBox="0 0 30 26" fill="none" xmlns="http://www.w3.org/2000/svg">
<path d="M15 0.5C8.1 0.5 2.5 6.1 2.5 13C2.5 19.9 8.1 25.5 15 25.5C21.9 25.5 27.5 19.9 27.5 13C27.5 6.1 21.9 0.5 15 0.5ZM15 5.5C17.4125 5.5 19.375 7.4625 19.375 9.875C19.375 12.2875 17.4125 14.25 15 14.25C12.5875 14.25 10.625 12.2875 10.625 9.875C10.625 7.4625 12.5875 5.5 15 5.5ZM15 23C12.4625 23 9.4625 21.975 7.325 19.4C9.4375 17.75 12.1 16.75 15 16.75C17.9 16.75 20.5625 17.75 22.675 19.4C20.5375 21.975 17.5375 23 15 23Z" fill="#007AFF"/>
</svg>
