<svg width="16" height="14" viewBox="0 0 16 14" fill="none" xmlns="http://www.w3.org/2000/svg">
<path d="M9.39869 13.9986H5.82347C5.1391 13.9978 4.46694 13.8173 3.87419 13.4752C3.28145 13.1332 2.78889 12.6415 2.44579 12.0493L0.656069 8.94718C0.315043 8.35452 0.135559 7.68272 0.135559 6.99895C0.135559 6.31517 0.315043 5.64338 0.656069 5.05071L2.44579 1.94999C2.78902 1.3579 3.28158 0.866218 3.87429 0.524042C4.46699 0.181866 5.13909 0.0011706 5.82347 0H9.39658C10.081 0.000887563 10.7532 0.181464 11.346 0.523668C11.9387 0.865872 12.4312 1.35771 12.7743 1.94999L14.564 5.05142C14.905 5.64408 15.0845 6.31587 15.0845 6.99965C15.0845 7.68342 14.905 8.35522 14.564 8.94788L12.7743 12.05C12.4317 12.6422 11.9396 13.1341 11.3472 13.4763C10.7548 13.8185 10.0828 13.9991 9.39869 14V13.9986ZM3.51709 11.4314C3.75139 11.8358 4.08769 12.1717 4.49241 12.4054C4.89713 12.6392 5.3561 12.7626 5.82347 12.7635H9.39658C10.3456 12.7635 11.2292 12.2532 11.703 11.4314L13.4927 8.32999C13.7256 7.92478 13.8481 7.4656 13.8481 6.99824C13.8481 6.53089 13.7256 6.0717 13.4927 5.6665L11.703 2.56507C11.4687 2.16067 11.1324 1.82482 10.7276 1.59107C10.3229 1.35731 9.86395 1.23384 9.39658 1.23298H5.82347C4.87449 1.23298 3.99088 1.74332 3.51709 2.56507L1.72737 5.6665C1.49449 6.0717 1.37194 6.53089 1.37194 6.99824C1.37194 7.4656 1.49449 7.92478 1.72737 8.32999L3.51709 11.4314ZM7.61108 10.1689C6.77017 10.168 5.96397 9.83352 5.36936 9.23891C4.77475 8.64429 4.44029 7.8381 4.43936 6.99719C4.44029 6.15628 4.77475 5.35008 5.36936 4.75547C5.96397 4.16086 6.77017 3.8264 7.61108 3.82547C8.45199 3.8264 9.25819 4.16086 9.8528 4.75547C10.4474 5.35008 10.7819 6.15628 10.7828 6.99719C10.7819 7.8381 10.4474 8.64429 9.8528 9.23891C9.25819 9.83352 8.45199 10.168 7.61108 10.1689ZM7.61108 5.06126C7.09787 5.062 6.60589 5.2662 6.24299 5.6291C5.8801 5.992 5.67589 6.48398 5.67515 6.99719C5.67589 7.5104 5.8801 8.00238 6.24299 8.36528C6.60589 8.72817 7.09787 8.93237 7.61108 8.93312C8.12429 8.93237 8.61627 8.72817 8.97917 8.36528C9.34206 8.00238 9.54627 7.5104 9.54701 6.99719C9.54627 6.48398 9.34206 5.992 8.97917 5.6291C8.61627 5.2662 8.12429 5.062 7.61108 5.06126Z" fill="white"/>
</svg>
