<svg width="28" height="28" viewBox="0 0 28 28" fill="none" xmlns="http://www.w3.org/2000/svg">
<rect width="28" height="28" rx="8" fill="#65C466"/>
<g clip-path="url(#clip0_662_623)">
<path d="M21.875 7.57143V9.17857C21.875 10.5949 18.3477 11.75 14 11.75C9.65233 11.75 6.125 10.5949 6.125 9.17857V7.57143C6.125 6.15513 9.65233 5 14 5C18.3477 5 21.875 6.15513 21.875 7.57143ZM21.1352 11.6164C21.4604 11.4564 21.875 11.6813 21.875 12.0438V14.8036C21.875 16.2199 18.3477 17.375 14 17.375C9.65233 17.375 6.125 16.2199 6.125 14.8036V12.0438C6.125 11.6813 6.53956 11.4564 6.86485 11.6164C8.63391 12.4864 11.3208 12.8951 14 12.8951C16.6792 12.8951 19.3661 12.4864 21.1352 11.6164ZM21.1352 17.2414C21.4604 17.0814 21.875 17.3063 21.875 17.6688V20.4286C21.875 21.8449 18.3477 23 14 23C9.65233 23 6.125 21.8449 6.125 20.4286V17.6688C6.125 17.3063 6.53956 17.0814 6.86485 17.2414C8.63391 18.1114 11.3208 18.5201 14 18.5201C16.6792 18.5201 19.3661 18.1114 21.1352 17.2414Z" fill="white"/>
</g>
<defs>
<clipPath id="clip0_662_623">
<rect width="18" height="18" fill="white" transform="translate(5 5)"/>
</clipPath>
</defs>
</svg>
