<svg width="40" height="40" viewBox="0 0 40 40" fill="none" xmlns="http://www.w3.org/2000/svg">
<path fill-rule="evenodd" clip-rule="evenodd" d="M9.82617 9.28883H30.1729C30.1729 8.42664 29.48 7.52712 28.7493 7.52712C28.6262 7.52712 28.3884 7.5261 28.0795 7.52477C27.0669 7.52041 25.2905 7.51276 24.2904 7.52712C24.2775 7.49556 24.264 7.46242 24.25 7.42793C23.9589 6.7118 23.4299 5.41023 22.6792 5.41016H17.1523C16.6128 5.41016 15.9658 6.82147 15.7098 7.52712H11.026C10.2766 7.52712 9.82617 8.46411 9.82617 9.28883ZM10.8584 11.0902H29.3584L27.0487 32.8018C26.9405 33.8187 26.0825 34.5902 25.0599 34.5902H14.2348C13.1797 34.5902 12.3061 33.7706 12.2389 32.7176L10.8584 11.0902ZM15.2617 13.177C15.6752 13.1537 16.0293 13.4702 16.0525 13.8837L17.0135 31.0014C17.0367 31.415 16.7202 31.7691 16.3067 31.7923C15.8931 31.8155 15.539 31.4991 15.5158 31.0855L14.5549 13.9678C14.5317 13.5543 14.8481 13.2002 15.2617 13.177ZM20.751 13.9258C20.751 13.5116 20.4152 13.1758 20.001 13.1758C19.5868 13.1758 19.251 13.5116 19.251 13.9258V31.0435C19.251 31.4577 19.5868 31.7935 20.001 31.7935C20.4152 31.7935 20.751 31.4577 20.751 31.0435V13.9258ZM24.7375 13.1771C25.151 13.2012 25.4666 13.556 25.4424 13.9695L24.4421 31.0872C24.4179 31.5007 24.0631 31.8163 23.6496 31.7922C23.2361 31.768 22.9205 31.4132 22.9446 30.9997L23.945 13.882C23.9691 13.4685 24.324 13.1529 24.7375 13.1771Z" fill="white"/>
</svg>
