<svg width="148" height="148" viewBox="0 0 148 148" fill="none" xmlns="http://www.w3.org/2000/svg">
<ellipse cx="70" cy="141" rx="60" ry="5.5" fill="#121212" fill-opacity="0.08"/>
<path d="M46.7692 51.5273C44.8632 49.8536 42.8127 48.2329 40.9071 46.5593C35.9387 53.6616 32.2032 61.7602 30.3627 70.2771C29.3575 74.9299 28.9814 79.8019 29.1348 84.5411C30.3837 85.6413 31.6943 86.8172 32.9428 87.9177C33.1107 87.8256 33.198 87.6194 33.2045 87.4241C33.211 87.2287 33.1511 87.0399 33.0914 86.8561C32.8038 85.9658 32.5327 84.9627 32.2452 84.0724C32.3992 83.4274 32.5859 82.7979 32.7395 82.1528C32.9433 82.7142 33.1475 83.2758 33.3513 83.8372C33.4124 84.0058 33.4765 84.1794 33.5987 84.306C33.7206 84.4325 33.8667 84.4985 34.0236 84.4153C34.2795 82.1583 34.5356 79.9019 34.7915 77.6449C36.4773 72.5955 45.2489 54.403 46.7692 51.5273Z" fill="#FFB5A9"/>
<path d="M52.0555 128.975H42.8377V122.83H52.0555V128.975Z" fill="#FFB5A9"/>
<path d="M80.0419 128.464H70.1409V122.318H80.0419V128.464Z" fill="#FFB5A9"/>
<path d="M44.0327 59.331C44.0327 59.331 40.7895 77.5961 39.5943 97.2266C38.3995 116.858 39.5943 124.198 39.5943 124.198C39.5943 124.198 54.7868 125.051 55.4695 124.198C56.1526 123.344 60.0546 90.2282 60.0546 90.2282C60.0546 90.2282 68.5489 124.368 69.2315 124.368C69.9142 124.368 84.5163 124.71 84.6873 123.856C84.8579 123.003 81.3278 103.28 77.9254 90.2282C74.6225 77.5577 68.6883 57.9966 68.6883 57.9966L44.0327 59.331Z" fill="#0B1A4E"/>
<path d="M56.8218 118.744C56.6954 118.731 56.6191 118.636 56.6308 118.531L59.8187 89.8076C59.831 89.7021 59.9288 89.633 60.0307 89.6376C60.1362 89.6493 60.2125 89.7446 60.2007 89.8496L57.0129 118.573C57.0016 118.671 56.9186 118.744 56.8218 118.744Z" fill="#AF4D04"/>
<path d="M29.1434 58.459C31.1857 49.8981 31.3149 44.479 38.8254 37.6086C46.3364 30.7377 50.9879 30.2681 50.9879 30.2681L57.1569 29.655C58.9406 29.7798 62.2956 35.4582 70.7038 41.5532C68.7487 50.2471 70.7038 65.3075 70.7038 65.3075C65.2089 66.8846 60.8073 69.21 54.2588 69.084C49.7266 68.9968 45.0819 68.601 42.8161 66.6518L42.1843 61.8399L35.9051 77.2957H28.6602C28.6602 77.2957 27.4595 65.5175 29.1434 58.459Z" fill="black"/>
<path d="M86.3018 14.8865C86.3018 14.8865 88.3028 9.92917 88.4932 6.55837C88.684 3.18713 88.0168 1.99764 87.5405 1.89815C87.0642 1.7991 86.4922 3.88136 86.4922 3.88136C86.4922 3.88136 86.5878 0.708214 85.5395 0.510115C84.4917 0.312017 84.1105 3.08807 84.1105 3.08807C84.1105 3.08807 83.7293 0.807266 82.8718 1.20436C82.0143 1.60055 81.7284 6.75647 81.7284 6.75647C81.7284 6.75647 81.0617 4.1785 80.3945 4.4761C79.7278 4.77369 79.2515 8.54114 79.7278 9.92917C80.2042 11.3172 81.4428 13.0028 81.4428 13.0028L86.3018 14.8865Z" fill="#FFB5A9"/>
<path d="M55.7073 30.6218C55.7073 30.6218 69.7111 25.0621 71.8039 22.7404C73.8967 20.4187 78.8241 10.3915 78.8241 10.3915L88.5266 14.068C88.5266 14.068 84.5503 27.3843 79.9846 33.7691C75.4184 40.1543 62.2744 46.1297 62.2744 46.1297L55.7073 30.6218Z" fill="black"/>
<path d="M67.878 51.0636C68.051 51.1315 68.2214 51.05 68.2844 50.8927C70.2524 45.9812 72.5522 36.0568 72.5755 35.9575C72.6129 35.7936 72.5174 35.6356 72.3621 35.6052C72.2065 35.5756 72.0496 35.6842 72.0119 35.8488C71.9886 35.9482 69.7009 45.8236 67.7518 50.6877C67.6919 50.8356 67.7492 50.998 67.878 51.0636Z" fill="#676767"/>
<path d="M83.9008 12.1883C83.9588 12.1883 84.0084 12.1235 84.0139 12.0374C84.2206 8.90475 82.49 6.91115 82.4161 6.8281C82.3663 6.77184 82.2948 6.78523 82.2565 6.85846C82.2179 6.93168 82.2273 7.03661 82.2769 7.09331C82.2942 7.11251 83.981 9.06058 83.787 12.0048C83.781 12.0968 83.8269 12.1789 83.8895 12.1878C83.8932 12.1883 83.8971 12.1883 83.9008 12.1883Z" fill="black"/>
<path d="M72.6116 23.223C73.4498 23.6667 74.4853 24.3496 74.544 24.7945C74.5515 24.847 74.5478 24.9178 74.4584 25.0027C74.3735 25.0833 74.2808 25.1093 74.1691 25.0854C73.667 24.9771 72.9982 23.9303 72.6116 23.223ZM74.2435 25.4139C74.3881 25.4139 74.5227 25.358 74.6379 25.2484C74.8218 25.0739 74.8394 24.879 74.8214 24.7463C74.7066 23.8812 72.5667 22.8438 72.3234 22.7287C72.2684 22.7026 72.2049 22.7188 72.1652 22.7696C72.1256 22.8199 72.1181 22.8937 72.1465 22.953C72.2576 23.1842 73.2561 25.2142 74.1167 25.3998C74.1597 25.4092 74.202 25.4139 74.2435 25.4139Z" fill="#676767"/>
<path d="M29.1428 59.9087C29.1428 59.9087 30.8781 50.5135 33.0069 45.902C35.2223 41.1027 40.4854 35.994 40.7492 35.7642" stroke="white" stroke-opacity="0.51" stroke-width="0.5" stroke-linecap="round"/>
<path d="M42.7912 63.9315C42.7912 63.9315 42.9997 59.7082 43 57.0001C43.0004 54.2651 42.9764 50.1626 42.7887 50.0001" stroke="white" stroke-opacity="0.51" stroke-width="0.5" stroke-linecap="round"/>
<path d="M41.0296 45.8098C40.6045 45.8144 40.5374 45.9696 40.5154 46.0203C40.2486 46.6348 41.5591 48.463 42.6325 49.7069C42.5915 48.7739 42.4158 46.8376 41.6687 46.0915C41.4787 45.902 41.2687 45.8098 41.0296 45.8098ZM42.8368 50.4188C42.7835 50.4188 42.7323 50.3967 42.6954 50.3563C42.3841 50.0163 39.6715 47.0005 40.1626 45.8677C40.2875 45.5794 40.5738 45.4309 41.0132 45.4257C41.3717 45.4257 41.6774 45.5579 41.9396 45.8201C43.0498 46.9277 43.0304 50.0941 43.0288 50.2288C43.0278 50.3071 42.9786 50.3778 42.9054 50.406C42.8834 50.4142 42.8598 50.4188 42.8368 50.4188Z" fill="#676767"/>
<path d="M97.0408 138.355C97.0306 138.407 97.0203 138.458 97.005 138.509C96.7745 139.487 96.2266 140.798 95.8066 141.218C95.3765 141.643 91.3872 141.469 86.978 141.623C83.0296 141.756 70.0581 141.351 69.7303 140.87C69.4845 140.501 69.3309 138.33 69.2745 137.766C69.254 137.582 69.2438 137.469 69.2438 137.469C69.2438 137.469 69.0851 127.263 69.8942 126.618C70.7033 125.968 79.9314 126.131 80.7457 126.618C81.5497 127.104 85.923 132.282 87.2238 132.768C88.5194 133.255 94.9924 134.55 96.4519 136.01C97.1125 136.671 97.2098 137.536 97.0408 138.355Z" fill="#E57519"/>
<path d="M54.4423 138.976C54.4423 140.133 54.1043 141.46 53.4181 141.788C52.737 142.12 47.1755 142.822 42.3106 142.33C37.6607 141.859 36.6928 141.46 36.3497 140.963C36.1756 140.702 36.5443 139.427 36.9488 138.254C37.1383 137.691 37.338 137.148 37.4865 136.759C37.6248 136.385 37.7989 136.032 38.0089 135.693C38.5159 134.879 39.5094 133.21 39.7654 132.355C40.1034 131.197 40.6155 128.713 40.9586 127.551C41.3017 126.394 42.6639 125.897 42.6639 125.897C42.6639 125.897 51.7128 125.4 52.3939 126.066C53.0801 126.726 53.4181 132.191 53.4181 133.015V133.845C53.4181 134.807 54.1299 136.928 54.3655 138.274C54.4116 138.546 54.4423 138.782 54.4423 138.976Z" fill="#E57519"/>
<path d="M56.1467 121.43H39.3051C39.1986 121.43 39.1131 121.344 39.1131 121.238C39.1131 121.132 39.1986 121.046 39.3051 121.046H56.1467C56.2527 121.046 56.3387 121.132 56.3387 121.238C56.3387 121.344 56.2527 121.43 56.1467 121.43Z" fill="#AF4D04"/>
<path d="M84.0121 121.44L68.4574 121.48C68.3514 121.48 68.2654 121.394 68.2654 121.288C68.2654 121.182 68.3514 121.096 68.4574 121.096L84.0121 121.056C84.1181 121.056 84.2042 121.142 84.2042 121.248C84.2042 121.354 84.1181 121.44 84.0121 121.44Z" fill="#AF4D04"/>
<path d="M53.2217 32.1522C50.7815 32.1522 50.2612 30.5017 50.2402 30.431C50.21 30.3296 50.2679 30.2236 50.3688 30.1929C50.4681 30.1606 50.5767 30.219 50.6084 30.3204C50.6263 30.3798 51.0791 31.7681 53.2222 31.7681C53.236 31.7681 53.2493 31.7681 53.2627 31.7681C56.1463 31.7445 56.5258 29.8656 56.5294 29.8467C56.5488 29.7427 56.6472 29.6741 56.7537 29.6925C56.8576 29.712 56.9268 29.8119 56.9078 29.9163C56.9032 29.9383 56.4628 32.126 53.2657 32.1522C53.2514 32.1522 53.2365 32.1522 53.2217 32.1522Z" fill="#385432"/>
<path d="M54.4423 138.976C54.4423 140.133 54.1043 141.46 53.4181 141.788C52.737 142.12 47.1755 142.822 42.3106 142.33C37.6607 141.859 36.6928 141.46 36.3497 140.963C36.1756 140.702 36.5443 139.427 36.9488 138.254C38.5773 138.679 42.0852 139.416 46.5098 139.335C50.6937 139.253 53.1877 138.653 54.3655 138.274C54.4116 138.546 54.4423 138.782 54.4423 138.976Z" fill="white"/>
<path d="M97.0046 138.509C96.7741 139.487 96.2262 140.798 95.8063 141.218C95.3761 141.643 91.3868 141.469 86.9776 141.623C83.0293 141.756 70.0577 141.351 69.7299 140.87C69.4841 140.501 69.3305 138.33 69.2742 137.766C69.2742 137.766 78.9785 138.791 88.0069 138.576C93.2867 138.448 95.8165 138.468 97.0046 138.509Z" fill="white"/>
<path d="M48.9827 130.341C48.9413 130.341 48.8998 130.328 48.865 130.3C46.9266 128.794 43.5094 130.083 43.4751 130.096C43.3773 130.136 43.2656 130.086 43.2272 129.986C43.1888 129.887 43.238 129.776 43.3373 129.738C43.4853 129.681 46.9901 128.356 49.1005 129.997C49.1845 130.062 49.1993 130.182 49.1343 130.266C49.0964 130.315 49.0396 130.341 48.9827 130.341Z" fill="white"/>
<path d="M48.9828 132.476C48.9449 132.476 48.9065 132.465 48.8727 132.442C46.5175 130.799 43.5099 132.018 43.4802 132.031C43.3804 132.072 43.2698 132.025 43.2288 131.928C43.1883 131.83 43.2344 131.717 43.3323 131.676C43.4633 131.622 46.5652 130.363 49.0929 132.127C49.18 132.188 49.201 132.307 49.1405 132.394C49.1026 132.448 49.0432 132.476 48.9828 132.476Z" fill="white"/>
<path d="M83.4984 135.255C83.4784 135.255 83.4579 135.252 83.438 135.245C83.3381 135.212 83.2828 135.104 83.3161 135.003C83.3396 134.93 83.9383 133.201 87.1871 132.58C87.2946 132.558 87.3919 132.629 87.4119 132.733C87.4319 132.837 87.3632 132.937 87.2593 132.957C84.2532 133.532 83.6858 135.108 83.6802 135.124C83.6536 135.203 83.5783 135.255 83.4984 135.255Z" fill="white"/>
<path d="M83.1393 131.785C83.0497 131.785 82.9693 131.722 82.9514 131.631C82.9304 131.527 82.9974 131.426 83.1014 131.405L85.3501 130.95C85.4561 130.926 85.5559 130.996 85.5764 131.1C85.5974 131.204 85.5303 131.305 85.4264 131.326L83.1772 131.781C83.1644 131.784 83.1516 131.785 83.1393 131.785Z" fill="white"/>
<path d="M81.636 129.97C81.5418 129.97 81.4598 129.9 81.446 129.805C81.4312 129.7 81.5044 129.602 81.6094 129.588L83.5866 129.309C83.7028 129.294 83.7889 129.368 83.8037 129.472C83.8186 129.577 83.7453 129.675 83.6404 129.69L81.6631 129.968C81.6539 129.969 81.6447 129.97 81.636 129.97Z" fill="white"/>
<path d="M51.6898 135.256C51.6658 135.256 51.6412 135.251 51.6176 135.241C44.7959 132.461 39.9821 135.201 39.9345 135.229C39.8428 135.282 39.725 135.252 39.6718 135.16C39.618 135.069 39.6487 134.951 39.7404 134.898C39.7901 134.868 44.7672 132.035 51.7625 134.885C51.8604 134.925 51.908 135.038 51.868 135.136C51.8373 135.21 51.7656 135.256 51.6898 135.256Z" fill="white"/>
<path d="M50.3731 24.7873V30.1172C50.3731 30.1172 50.702 31.6248 53.5701 31.8928C55.7078 32.093 56.8347 30.1172 56.8347 30.1172L56.6703 28.5753L56.4091 26.1819L51.2388 24.9885L50.3731 24.7873Z" fill="#FFB5A9"/>
<path d="M51.0738 25.1701C51.0834 25.2973 51.1313 25.4485 51.2079 25.6217C52.2613 27.9651 55.2299 28.5059 56.4509 28.6268L56.1924 26.3201L51.0738 25.1701Z" fill="black"/>
<path d="M57.4619 15.1433C57.4619 15.1433 59.9316 21.3907 58.8786 24.828C57.8304 28.2654 54.748 27.6288 52.9149 26.9038C51.0817 26.1788 50.2537 24.995 50.2537 24.995C50.2537 24.995 48.5066 25.5422 47.3962 23.8668C46.2858 22.1913 47.0516 20.3279 48.052 19.9256C49.0523 19.5229 50.2058 20.2849 50.2058 20.2849L49.3395 18.4649C49.3395 18.4649 53.4701 9.46859 57.4619 15.1433Z" fill="#FFB5A9"/>
<path d="M50.1135 22.866C50.1695 22.866 50.2306 22.8417 50.2663 22.7953C50.3325 22.7171 50.3121 22.607 50.2255 22.5493L47.9187 20.98C47.8372 20.9229 47.715 20.9383 47.6539 21.0165C47.5928 21.0948 47.6081 21.2049 47.6947 21.2625L50.0015 22.8318C50.032 22.8548 50.0728 22.866 50.1135 22.866Z" fill="black"/>
<path d="M47.8061 22.866C47.8213 22.866 47.8366 22.864 47.8519 22.8603L49.3894 22.48C49.4912 22.4552 49.5574 22.3501 49.5319 22.2461C49.5065 22.1416 49.4046 22.0784 49.3028 22.1033L47.7602 22.4831C47.6584 22.5085 47.5973 22.6135 47.6228 22.7175C47.6431 22.8065 47.7195 22.866 47.8061 22.866Z" fill="black"/>
<path d="M54.0518 22.973C53.9705 23.02 53.9358 23.1182 53.9746 23.2053C54.0098 23.3059 54.119 23.3565 54.2172 23.3188C54.2265 23.3152 55.1409 22.9797 55.9678 23.5216C56.0579 23.5786 56.1743 23.5528 56.2228 23.4685C56.2796 23.3789 56.2516 23.2612 56.1616 23.2042C55.1736 22.5516 54.1207 22.9439 54.0743 22.9624C54.065 22.966 54.0561 22.9705 54.0518 22.973Z" fill="black"/>
<path d="M50.7128 20.9451C50.7128 20.9451 50.2012 18.5195 50.139 18.2942C50.0768 18.0694 51.8269 15.3529 54.7483 14.9541C57.6314 14.5592 57.574 15.3639 57.574 15.3639C57.574 15.3639 58.3104 11.279 57.8179 10.9598C57.3254 10.6406 57.0099 11.2397 57.0099 11.2397C57.0099 11.2397 56.4313 9.20275 54.9061 9.44239C53.7011 9.63075 53.4334 10.8802 53.4334 10.8802C53.4334 10.8802 52.9839 9.24205 51.3487 9.88141C49.7182 10.5208 48.2026 14.5141 48.2026 14.5141C48.2026 14.5141 46.4478 14.2352 46.1322 15.7123C45.8119 17.1904 47.183 20.7738 47.183 20.7738C47.183 20.7738 47.6564 19.8047 48.9617 19.9849C50.267 20.1651 50.7128 20.9451 50.7128 20.9451Z" fill="black"/>
<path d="M66.7499 22.1822L63.2742 22.4946" stroke="#121212" stroke-opacity="0.32" stroke-width="0.5" stroke-linecap="round"/>
<path d="M67.4999 25.4431L60.9999 23.2762" stroke="#121212" stroke-opacity="0.32" stroke-width="0.5" stroke-linecap="round"/>
<path d="M82.7719 50.085C82.7719 49.7692 82.7702 49.4746 82.767 49.2012C82.7637 48.9277 82.7605 48.6608 82.7572 48.4004C82.754 48.14 82.7491 47.8763 82.7426 47.6094C82.7393 47.3392 82.7361 47.0495 82.7328 46.7402C82.7296 46.4277 82.7263 46.0859 82.723 45.7148C82.7198 45.3438 82.7182 44.9255 82.7182 44.46C82.7182 44.4014 82.7214 44.3379 82.7279 44.2695C82.7377 44.1979 82.7556 44.1328 82.7816 44.0742C82.8109 44.0156 82.8533 43.9668 82.9086 43.9277C82.9639 43.8854 83.0388 43.8643 83.1332 43.8643C83.182 43.8643 83.2325 43.8822 83.2846 43.918C83.3399 43.9538 83.3904 44.001 83.4359 44.0596C83.4815 44.1149 83.5189 44.1768 83.5482 44.2451C83.5808 44.3135 83.5971 44.3818 83.5971 44.4502L83.6166 46.6475C83.6166 46.7093 83.6426 46.7402 83.6947 46.7402C84.2416 46.7402 84.7022 46.7419 85.0766 46.7451C85.4542 46.7451 85.765 46.7451 86.0092 46.7451C86.2533 46.7451 86.4421 46.7451 86.5756 46.7451C86.709 46.7451 86.8083 46.7451 86.8734 46.7451C86.9385 46.7451 86.9792 46.7435 86.9955 46.7402C87.015 46.7337 87.0297 46.7272 87.0395 46.7207C87.0329 46.3366 87.0199 45.9574 87.0004 45.583C86.9841 45.2054 86.976 44.8245 86.976 44.4404C86.976 44.3558 86.9825 44.276 86.9955 44.2012C87.0085 44.123 87.0313 44.0563 87.0639 44.001C87.0964 43.9424 87.1387 43.8968 87.1908 43.8643C87.2462 43.8317 87.3145 43.8154 87.3959 43.8154C87.5001 43.8154 87.5831 43.8398 87.6449 43.8887C87.7068 43.9375 87.7523 44.001 87.7816 44.0791C87.8142 44.154 87.8354 44.2402 87.8451 44.3379C87.8549 44.4355 87.8598 44.5332 87.8598 44.6309C87.8598 44.7415 87.8614 44.8652 87.8646 45.002C87.8679 45.1387 87.8728 45.2917 87.8793 45.4609C87.8858 45.6302 87.8923 45.8174 87.8988 46.0225C87.9086 46.2275 87.9184 46.4538 87.9281 46.7012C87.9379 46.7207 87.9493 46.7467 87.9623 46.7793C87.9786 46.8118 87.9916 46.8477 88.0014 46.8867C88.0144 46.9258 88.0242 46.9648 88.0307 47.0039C88.0404 47.043 88.0453 47.0771 88.0453 47.1064C88.0453 47.1357 88.0404 47.1732 88.0307 47.2188C88.0242 47.2611 88.0176 47.3018 88.0111 47.3408C87.9981 47.3864 87.9867 47.4336 87.977 47.4824C87.9965 47.9121 88.0128 48.2767 88.0258 48.5762C88.0388 48.8724 88.0486 49.1198 88.0551 49.3184C88.0616 49.5169 88.0665 49.6732 88.0697 49.7871C88.073 49.8978 88.0746 49.9824 88.0746 50.041C88.0746 50.1712 88.0323 50.2852 87.9477 50.3828C87.863 50.4772 87.7491 50.5244 87.6059 50.5244C87.4529 50.5244 87.3389 50.4723 87.2641 50.3682C87.1892 50.264 87.1518 50.0752 87.1518 49.8018L87.1225 47.6045C87.1029 47.6045 87.0688 47.6045 87.0199 47.6045C86.9711 47.6045 86.8962 47.6061 86.7953 47.6094C86.6944 47.6094 86.5626 47.611 86.3998 47.6143C86.237 47.6143 86.032 47.6159 85.7846 47.6191C85.5404 47.6191 85.2475 47.6208 84.9057 47.624C84.5671 47.624 84.17 47.624 83.7143 47.624C83.698 47.624 83.6801 47.6419 83.6605 47.6777C83.6443 47.7103 83.6361 47.7445 83.6361 47.7803C83.6361 48.1449 83.6492 48.529 83.6752 48.9326C83.7012 49.3363 83.7143 49.735 83.7143 50.1289C83.7143 50.1745 83.6964 50.2184 83.6605 50.2607C83.6247 50.3031 83.5808 50.3405 83.5287 50.373C83.4799 50.4056 83.4262 50.4316 83.3676 50.4512C83.309 50.4674 83.2569 50.4756 83.2113 50.4756C83.1658 50.4756 83.1169 50.4674 83.0648 50.4512C83.016 50.4349 82.9688 50.4105 82.9232 50.3779C82.8809 50.3421 82.8451 50.3014 82.8158 50.2559C82.7865 50.207 82.7719 50.1501 82.7719 50.085ZM89.6943 47.9023C89.6943 47.3978 89.7757 46.9697 89.9385 46.6182C90.1012 46.2666 90.3145 45.9818 90.5781 45.7637C90.8451 45.5423 91.1462 45.3828 91.4814 45.2852C91.82 45.1842 92.165 45.1338 92.5166 45.1338C92.9235 45.1338 93.2881 45.2005 93.6104 45.334C93.9359 45.4674 94.2109 45.6595 94.4355 45.9102C94.6602 46.1608 94.8327 46.4652 94.9531 46.8232C95.0736 47.1781 95.1338 47.5768 95.1338 48.0195C95.1338 48.2767 95.0996 48.5192 95.0312 48.7471C94.9629 48.9749 94.8685 49.1865 94.748 49.3818C94.6276 49.5739 94.4827 49.7464 94.3135 49.8994C94.1475 50.0524 93.9652 50.1842 93.7666 50.2949C93.568 50.4023 93.3581 50.4837 93.1367 50.5391C92.9154 50.5977 92.6908 50.627 92.4629 50.627C92.2155 50.627 91.9746 50.5879 91.7402 50.5098C91.5091 50.4349 91.291 50.3307 91.0859 50.1973C90.8809 50.0638 90.6921 49.9092 90.5195 49.7334C90.3503 49.5544 90.2038 49.3639 90.0801 49.1621C89.9596 48.9603 89.8652 48.752 89.7969 48.5371C89.7285 48.3223 89.6943 48.1107 89.6943 47.9023ZM90.5391 47.7803C90.5391 48.0212 90.5911 48.2637 90.6953 48.5078C90.7995 48.7487 90.9362 48.9668 91.1055 49.1621C91.278 49.3574 91.4733 49.5169 91.6914 49.6406C91.9128 49.7611 92.1374 49.8213 92.3652 49.8213C92.6126 49.8213 92.8519 49.779 93.083 49.6943C93.3174 49.6097 93.5225 49.486 93.6982 49.3232C93.8773 49.1605 94.0205 48.9619 94.1279 48.7275C94.2354 48.4932 94.2891 48.2262 94.2891 47.9268C94.2891 47.6338 94.2484 47.3669 94.167 47.126C94.0889 46.8818 93.9798 46.6719 93.8398 46.4961C93.6999 46.3203 93.5322 46.1852 93.3369 46.0908C93.1416 45.9932 92.93 45.9443 92.7021 45.9443C92.4482 45.9443 92.1927 45.985 91.9355 46.0664C91.6784 46.1445 91.4456 46.2617 91.2373 46.418C91.0322 46.571 90.8646 46.7614 90.7344 46.9893C90.6042 47.2171 90.5391 47.4808 90.5391 47.7803ZM96.9 46.2568C96.9977 46.0648 97.1295 45.9036 97.2955 45.7734C97.4615 45.6432 97.6422 45.5391 97.8375 45.4609C98.0328 45.3796 98.2314 45.3226 98.4332 45.29C98.6383 45.2542 98.8255 45.2363 98.9947 45.2363C99.5058 45.2363 99.9583 45.2965 100.352 45.417C100.749 45.5342 101.081 45.6969 101.348 45.9053C101.618 46.1104 101.824 46.3529 101.963 46.6328C102.103 46.9095 102.173 47.2057 102.173 47.5215C102.173 48.0033 102.103 48.4329 101.963 48.8105C101.824 49.1849 101.622 49.5023 101.358 49.7627C101.094 50.0199 100.774 50.2168 100.396 50.3535C100.018 50.487 99.5937 50.5537 99.1217 50.5537C98.832 50.5537 98.5846 50.5374 98.3795 50.5049C98.1777 50.4756 97.9856 50.4284 97.8033 50.3633V50.7441C97.8001 50.8971 97.8066 51.0534 97.8229 51.2129C97.8424 51.3724 97.8619 51.5303 97.8814 51.6865C97.9042 51.846 97.9254 52.0023 97.9449 52.1553C97.9645 52.3115 97.9742 52.4596 97.9742 52.5996C97.9742 52.6647 97.9579 52.7217 97.9254 52.7705C97.8928 52.8193 97.8505 52.86 97.7984 52.8926C97.7496 52.9251 97.6943 52.9495 97.6324 52.9658C97.5706 52.9821 97.5104 52.9902 97.4518 52.9902C97.3769 52.9902 97.3069 52.9805 97.2418 52.9609C97.1799 52.9414 97.1246 52.9089 97.0758 52.8633C97.027 52.8177 96.9879 52.7559 96.9586 52.6777C96.9326 52.5996 96.9195 52.5036 96.9195 52.3896C96.9195 52.318 96.9195 52.2318 96.9195 52.1309C96.9195 52.0299 96.9179 51.9242 96.9146 51.8135C96.9146 51.7061 96.913 51.5986 96.9098 51.4912C96.9098 51.3838 96.9098 51.2894 96.9098 51.208L96.9 50.0166V46.2568ZM97.8033 49.5186C97.7968 49.5706 97.8294 49.6113 97.901 49.6406C97.9758 49.6699 98.0621 49.6927 98.1598 49.709C98.2607 49.722 98.3616 49.7301 98.4625 49.7334C98.5634 49.7367 98.6399 49.7383 98.692 49.7383C99.0338 49.7383 99.3593 49.7025 99.6686 49.6309C99.9778 49.556 100.25 49.4388 100.484 49.2793C100.718 49.1165 100.904 48.9049 101.041 48.6445C101.181 48.3841 101.251 48.0651 101.251 47.6875C101.251 47.4206 101.199 47.1862 101.094 46.9844C100.99 46.7793 100.84 46.6084 100.645 46.4717C100.453 46.335 100.217 46.2324 99.9371 46.1641C99.6604 46.0957 99.3479 46.0615 98.9996 46.0615C98.902 46.0615 98.7848 46.0762 98.648 46.1055C98.5146 46.1315 98.3844 46.1722 98.2574 46.2275C98.1305 46.2829 98.0198 46.3512 97.9254 46.4326C97.831 46.514 97.774 46.6084 97.7545 46.7158L97.7447 48.0928C97.7447 48.1253 97.7447 48.1709 97.7447 48.2295C97.748 48.2881 97.7512 48.3548 97.7545 48.4297C97.7577 48.5013 97.761 48.5778 97.7643 48.6592C97.7675 48.7406 97.7708 48.8219 97.774 48.9033C97.7838 49.0921 97.7936 49.2972 97.8033 49.5186ZM103.569 48.1807C103.569 47.7184 103.635 47.3001 103.769 46.9258C103.902 46.5514 104.099 46.2324 104.36 45.9688C104.62 45.7051 104.939 45.5016 105.317 45.3584C105.697 45.2152 106.135 45.1436 106.63 45.1436C106.799 45.1436 106.972 45.1615 107.148 45.1973C107.327 45.2331 107.499 45.2852 107.665 45.3535C107.831 45.4219 107.988 45.5065 108.134 45.6074C108.284 45.7083 108.414 45.8255 108.525 45.959C108.635 46.0892 108.722 46.2357 108.783 46.3984C108.849 46.5579 108.881 46.7321 108.881 46.9209C108.881 47.0674 108.849 47.1732 108.783 47.2383C108.718 47.3034 108.632 47.349 108.525 47.375C108.43 47.401 108.32 47.4255 108.193 47.4482C108.069 47.4678 107.929 47.502 107.773 47.5508L104.506 48.5664C104.548 48.765 104.617 48.9342 104.711 49.0742C104.809 49.2142 104.921 49.3314 105.048 49.4258C105.178 49.5202 105.318 49.5951 105.468 49.6504C105.621 49.7057 105.774 49.748 105.927 49.7773C106.08 49.8034 106.228 49.8213 106.371 49.8311C106.518 49.8376 106.65 49.8408 106.767 49.8408C106.952 49.8408 107.136 49.8197 107.319 49.7773C107.501 49.735 107.668 49.6878 107.821 49.6357C107.974 49.5837 108.108 49.5365 108.222 49.4941C108.339 49.4518 108.424 49.4307 108.476 49.4307C108.648 49.4307 108.774 49.4697 108.852 49.5479C108.933 49.626 108.974 49.748 108.974 49.9141C108.974 50.0215 108.918 50.1143 108.808 50.1924C108.7 50.2705 108.56 50.3356 108.388 50.3877C108.215 50.4398 108.023 50.4805 107.812 50.5098C107.603 50.5423 107.398 50.5651 107.196 50.5781C106.998 50.5944 106.816 50.6042 106.65 50.6074C106.484 50.6139 106.358 50.6172 106.274 50.6172C106.049 50.6172 105.824 50.5879 105.6 50.5293C105.378 50.474 105.167 50.3942 104.965 50.29C104.766 50.1859 104.581 50.0605 104.408 49.9141C104.239 49.7643 104.091 49.5999 103.964 49.4209C103.84 49.2386 103.743 49.0433 103.671 48.835C103.603 48.6266 103.569 48.4085 103.569 48.1807ZM104.482 47.7998C104.635 47.7542 104.81 47.7021 105.009 47.6436C105.208 47.585 105.416 47.5231 105.634 47.458C105.855 47.3896 106.078 47.3197 106.303 47.248C106.531 47.1764 106.749 47.1064 106.957 47.0381C107.169 46.9665 107.363 46.8997 107.538 46.8379C107.717 46.7728 107.867 46.7126 107.988 46.6572C107.952 46.5335 107.891 46.4277 107.807 46.3398C107.722 46.2487 107.615 46.1755 107.485 46.1201C107.358 46.0615 107.21 46.0192 107.04 45.9932C106.871 45.9639 106.685 45.9492 106.484 45.9492C106.392 45.9492 106.283 45.9622 106.156 45.9883C106.033 46.0143 105.901 46.0566 105.761 46.1152C105.624 46.1706 105.484 46.2454 105.341 46.3398C105.201 46.4342 105.072 46.5498 104.955 46.6865C104.838 46.8232 104.737 46.9844 104.653 47.1699C104.568 47.3522 104.511 47.5622 104.482 47.7998ZM117.057 50.5732C116.735 50.5732 116.468 50.5098 116.256 50.3828C116.045 50.2526 115.874 50.0801 115.744 49.8652C115.613 49.6471 115.516 49.3997 115.451 49.123C115.385 48.8431 115.34 48.5534 115.314 48.2539C115.288 47.9512 115.273 47.6501 115.27 47.3506C115.267 47.0511 115.262 46.7744 115.255 46.5205C115.167 46.5205 115.088 46.5205 115.016 46.5205C114.948 46.5205 114.879 46.5221 114.811 46.5254C114.772 46.5286 114.736 46.5319 114.704 46.5352C114.671 46.5352 114.635 46.5368 114.596 46.54C114.56 46.54 114.518 46.5417 114.469 46.5449C114.424 46.5449 114.367 46.5449 114.298 46.5449C114.259 46.5449 114.207 46.5352 114.142 46.5156C114.077 46.4961 114.012 46.4684 113.947 46.4326C113.882 46.3968 113.825 46.3529 113.776 46.3008C113.73 46.2454 113.707 46.1836 113.707 46.1152C113.707 46.0469 113.722 45.9834 113.751 45.9248C113.781 45.8662 113.82 45.8174 113.869 45.7783C113.921 45.736 113.981 45.7035 114.049 45.6807C114.118 45.6579 114.189 45.6465 114.264 45.6465L115.289 45.6709C115.299 45.5895 115.309 45.5081 115.319 45.4268C115.329 45.3454 115.337 45.2656 115.343 45.1875C115.353 45.0931 115.359 45.0052 115.363 44.9238C115.366 44.8424 115.371 44.7643 115.377 44.6895C115.384 44.6113 115.39 44.5348 115.397 44.46C115.407 44.3818 115.421 44.3005 115.441 44.2158C115.451 44.1605 115.473 44.1068 115.509 44.0547C115.545 43.9993 115.586 43.9505 115.631 43.9082C115.68 43.8659 115.731 43.8317 115.783 43.8057C115.838 43.7796 115.89 43.7666 115.939 43.7666C115.978 43.7666 116.019 43.7764 116.061 43.7959C116.103 43.8154 116.142 43.8447 116.178 43.8838C116.214 43.9196 116.243 43.9635 116.266 44.0156C116.292 44.0645 116.305 44.1198 116.305 44.1816C116.305 44.3118 116.303 44.4209 116.3 44.5088C116.3 44.5967 116.297 44.6715 116.29 44.7334C116.287 44.7952 116.282 44.849 116.276 44.8945C116.269 44.9401 116.263 44.9857 116.256 45.0312C116.25 45.0671 116.243 45.1061 116.237 45.1484C116.233 45.1875 116.229 45.2331 116.222 45.2852C116.219 45.3372 116.214 45.3975 116.207 45.4658C116.201 45.5309 116.193 45.609 116.183 45.7002C116.369 45.6969 116.544 45.6937 116.71 45.6904C116.88 45.6839 117.046 45.679 117.208 45.6758C117.371 45.6693 117.537 45.6644 117.706 45.6611C117.876 45.6579 118.056 45.6562 118.248 45.6562C118.314 45.6562 118.371 45.6742 118.419 45.71C118.471 45.7425 118.514 45.7832 118.546 45.832C118.582 45.8809 118.608 45.9329 118.624 45.9883C118.644 46.0404 118.654 46.0859 118.654 46.125C118.654 46.1934 118.639 46.2552 118.61 46.3105C118.58 46.3626 118.545 46.4066 118.502 46.4424C118.46 46.4782 118.413 46.5042 118.361 46.5205C118.309 46.5368 118.261 46.5449 118.219 46.5449L116.222 46.5107C116.209 46.5238 116.203 46.5384 116.203 46.5547C116.203 46.7272 116.199 46.9258 116.193 47.1504C116.186 47.3717 116.185 47.598 116.188 47.8291C116.194 48.0602 116.209 48.2881 116.232 48.5127C116.255 48.734 116.295 48.9326 116.354 49.1084C116.416 49.2809 116.499 49.4209 116.603 49.5283C116.707 49.6357 116.844 49.6895 117.013 49.6895C117.068 49.6895 117.134 49.6797 117.208 49.6602C117.287 49.6374 117.363 49.6113 117.438 49.582C117.513 49.5527 117.583 49.5202 117.648 49.4844C117.713 49.4486 117.763 49.416 117.799 49.3867C117.835 49.3542 117.882 49.3249 117.941 49.2988C117.999 49.2728 118.048 49.2598 118.087 49.2598C118.211 49.2598 118.289 49.2907 118.322 49.3525C118.357 49.4111 118.375 49.4925 118.375 49.5967C118.375 49.6325 118.367 49.6764 118.351 49.7285C118.335 49.7773 118.314 49.818 118.287 49.8506C118.226 49.9287 118.144 50.0117 118.043 50.0996C117.946 50.1842 117.84 50.2624 117.726 50.334C117.612 50.4023 117.496 50.4593 117.379 50.5049C117.262 50.5505 117.155 50.5732 117.057 50.5732ZM119.995 47.9023C119.995 47.3978 120.076 46.9697 120.239 46.6182C120.402 46.2666 120.615 45.9818 120.879 45.7637C121.146 45.5423 121.447 45.3828 121.782 45.2852C122.121 45.1842 122.466 45.1338 122.817 45.1338C123.224 45.1338 123.589 45.2005 123.911 45.334C124.237 45.4674 124.512 45.6595 124.736 45.9102C124.961 46.1608 125.133 46.4652 125.254 46.8232C125.374 47.1781 125.435 47.5768 125.435 48.0195C125.435 48.2767 125.4 48.5192 125.332 48.7471C125.264 48.9749 125.169 49.1865 125.049 49.3818C124.928 49.5739 124.784 49.7464 124.614 49.8994C124.448 50.0524 124.266 50.1842 124.067 50.2949C123.869 50.4023 123.659 50.4837 123.438 50.5391C123.216 50.5977 122.992 50.627 122.764 50.627C122.516 50.627 122.275 50.5879 122.041 50.5098C121.81 50.4349 121.592 50.3307 121.387 50.1973C121.182 50.0638 120.993 49.9092 120.82 49.7334C120.651 49.5544 120.505 49.3639 120.381 49.1621C120.26 48.9603 120.166 48.752 120.098 48.5371C120.029 48.3223 119.995 48.1107 119.995 47.9023ZM120.84 47.7803C120.84 48.0212 120.892 48.2637 120.996 48.5078C121.1 48.7487 121.237 48.9668 121.406 49.1621C121.579 49.3574 121.774 49.5169 121.992 49.6406C122.214 49.7611 122.438 49.8213 122.666 49.8213C122.913 49.8213 123.153 49.779 123.384 49.6943C123.618 49.6097 123.823 49.486 123.999 49.3232C124.178 49.1605 124.321 48.9619 124.429 48.7275C124.536 48.4932 124.59 48.2262 124.59 47.9268C124.59 47.6338 124.549 47.3669 124.468 47.126C124.39 46.8818 124.281 46.6719 124.141 46.4961C124.001 46.3203 123.833 46.1852 123.638 46.0908C123.442 45.9932 123.231 45.9443 123.003 45.9443C122.749 45.9443 122.493 45.985 122.236 46.0664C121.979 46.1445 121.746 46.2617 121.538 46.418C121.333 46.571 121.165 46.7614 121.035 46.9893C120.905 47.2171 120.84 47.4808 120.84 47.7803ZM83.4848 61.7334C83.4848 61.6911 83.5027 61.6341 83.5385 61.5625C83.5743 61.4876 83.6182 61.4209 83.6703 61.3623C83.7257 61.3037 83.7859 61.2663 83.851 61.25C83.9161 61.2305 83.9779 61.2533 84.0365 61.3184C84.1439 61.4388 84.24 61.5332 84.3246 61.6016C84.4125 61.6699 84.5036 61.7204 84.598 61.7529C84.6957 61.7855 84.8015 61.805 84.9154 61.8115C85.0326 61.818 85.1726 61.8213 85.3354 61.8213C85.5307 61.8213 85.7292 61.8001 85.9311 61.7578C86.1361 61.7122 86.3233 61.6602 86.4926 61.6016C86.6618 61.5397 86.8002 61.4762 86.9076 61.4111C87.015 61.346 87.0688 61.2939 87.0688 61.2549C87.0688 61.2028 87.0346 61.1491 86.9662 61.0938C86.9011 61.0384 86.8116 60.9863 86.6977 60.9375C86.5837 60.8887 86.4503 60.8431 86.2973 60.8008C86.1443 60.7552 85.9815 60.7178 85.809 60.6885C85.6072 60.6624 85.4005 60.6331 85.1889 60.6006C84.9805 60.568 84.7771 60.5257 84.5785 60.4736C84.3799 60.4215 84.1928 60.3597 84.017 60.2881C83.8412 60.2132 83.6866 60.1204 83.5531 60.0098C83.4197 59.8991 83.3139 59.7673 83.2357 59.6143C83.1609 59.4613 83.1234 59.2822 83.1234 59.0771C83.1234 58.8558 83.1609 58.6507 83.2357 58.4619C83.3139 58.2731 83.418 58.1006 83.5482 57.9443C83.6817 57.7881 83.8363 57.6497 84.0121 57.5293C84.1911 57.4089 84.3832 57.3079 84.5883 57.2266C84.7934 57.1452 85.0066 57.0833 85.2279 57.041C85.4493 56.9987 85.669 56.9775 85.8871 56.9775C86.115 56.9775 86.3217 57.0068 86.5072 57.0654C86.696 57.1208 86.8555 57.1956 86.9857 57.29C87.116 57.3812 87.2169 57.487 87.2885 57.6074C87.3601 57.7279 87.3959 57.8532 87.3959 57.9834C87.3959 58.0648 87.3943 58.1576 87.391 58.2617C87.3878 58.3659 87.3731 58.4652 87.3471 58.5596C87.3243 58.6507 87.2852 58.7288 87.2299 58.7939C87.1745 58.8558 87.0948 58.8867 86.9906 58.8867C86.9255 58.8867 86.8751 58.8737 86.8393 58.8477C86.8067 58.8184 86.7823 58.7842 86.766 58.7451C86.7497 58.7061 86.74 58.6637 86.7367 58.6182C86.7335 58.5693 86.7318 58.5254 86.7318 58.4863C86.7318 58.3594 86.709 58.2568 86.6635 58.1787C86.6212 58.1006 86.5577 58.0387 86.473 57.9932C86.3884 57.9476 86.2842 57.9167 86.1605 57.9004C86.0401 57.8841 85.9018 57.876 85.7455 57.876C85.6381 57.876 85.5209 57.8906 85.3939 57.9199C85.267 57.9492 85.1384 57.9899 85.0082 58.042C84.8813 58.0908 84.7559 58.151 84.6322 58.2227C84.5118 58.2943 84.4044 58.374 84.31 58.4619C84.2188 58.5465 84.1439 58.6361 84.0854 58.7305C84.03 58.8249 84.0023 58.9225 84.0023 59.0234C84.0023 59.1504 84.0528 59.2562 84.1537 59.3408C84.2546 59.4222 84.3881 59.4906 84.5541 59.5459C84.7201 59.6012 84.9073 59.6484 85.1156 59.6875C85.3272 59.7233 85.5421 59.7575 85.7602 59.79C86.0303 59.8324 86.2956 59.8861 86.5561 59.9512C86.8197 60.013 87.0557 60.0977 87.2641 60.2051C87.4724 60.3125 87.64 60.4508 87.767 60.6201C87.8939 60.7861 87.9574 60.9928 87.9574 61.2402C87.9574 61.416 87.907 61.5739 87.8061 61.7139C87.7051 61.8506 87.5733 61.9727 87.4105 62.0801C87.251 62.1842 87.0704 62.2738 86.8686 62.3486C86.6667 62.4235 86.4633 62.4837 86.2582 62.5293C86.0564 62.5781 85.8627 62.6139 85.6771 62.6367C85.4916 62.6595 85.3354 62.6709 85.2084 62.6709C85.1107 62.6709 85.0001 62.666 84.8764 62.6562C84.7527 62.6497 84.6257 62.6351 84.4955 62.6123C84.3686 62.5895 84.2449 62.557 84.1244 62.5146C84.004 62.4723 83.8949 62.417 83.7973 62.3486C83.7029 62.277 83.6264 62.1924 83.5678 62.0947C83.5124 61.9938 83.4848 61.8734 83.4848 61.7334ZM89.4795 60.1807C89.4795 59.7184 89.5462 59.3001 89.6797 58.9258C89.8132 58.5514 90.0101 58.2324 90.2705 57.9688C90.5309 57.7051 90.8499 57.5016 91.2275 57.3584C91.6084 57.2152 92.0462 57.1436 92.541 57.1436C92.7103 57.1436 92.8828 57.1615 93.0586 57.1973C93.2376 57.2331 93.4102 57.2852 93.5762 57.3535C93.7422 57.4219 93.8984 57.5065 94.0449 57.6074C94.1947 57.7083 94.3249 57.8255 94.4355 57.959C94.5462 58.0892 94.6325 58.2357 94.6943 58.3984C94.7594 58.5579 94.792 58.7321 94.792 58.9209C94.792 59.0674 94.7594 59.1732 94.6943 59.2383C94.6292 59.3034 94.543 59.349 94.4355 59.375C94.3411 59.401 94.2305 59.4255 94.1035 59.4482C93.9798 59.4678 93.8398 59.502 93.6836 59.5508L90.417 60.5664C90.4593 60.765 90.5277 60.9342 90.6221 61.0742C90.7197 61.2142 90.832 61.3314 90.959 61.4258C91.0892 61.5202 91.2292 61.5951 91.3789 61.6504C91.5319 61.7057 91.6849 61.748 91.8379 61.7773C91.9909 61.8034 92.139 61.8213 92.2822 61.8311C92.4287 61.8376 92.5605 61.8408 92.6777 61.8408C92.8633 61.8408 93.0472 61.8197 93.2295 61.7773C93.4118 61.735 93.5794 61.6878 93.7324 61.6357C93.8854 61.5837 94.0189 61.5365 94.1328 61.4941C94.25 61.4518 94.3346 61.4307 94.3867 61.4307C94.5592 61.4307 94.6846 61.4697 94.7627 61.5479C94.8441 61.626 94.8848 61.748 94.8848 61.9141C94.8848 62.0215 94.8294 62.1143 94.7188 62.1924C94.6113 62.2705 94.4714 62.3356 94.2988 62.3877C94.1263 62.4398 93.9342 62.4805 93.7227 62.5098C93.5143 62.5423 93.3092 62.5651 93.1074 62.5781C92.9089 62.5944 92.7266 62.6042 92.5605 62.6074C92.3945 62.6139 92.2692 62.6172 92.1846 62.6172C91.96 62.6172 91.7354 62.5879 91.5107 62.5293C91.2894 62.474 91.0778 62.3942 90.876 62.29C90.6774 62.1859 90.4919 62.0605 90.3193 61.9141C90.1501 61.7643 90.002 61.5999 89.875 61.4209C89.7513 61.2386 89.6536 61.0433 89.582 60.835C89.5137 60.6266 89.4795 60.4085 89.4795 60.1807ZM90.3926 59.7998C90.5456 59.7542 90.7214 59.7021 90.9199 59.6436C91.1185 59.585 91.3268 59.5231 91.5449 59.458C91.7663 59.3896 91.9893 59.3197 92.2139 59.248C92.4417 59.1764 92.6598 59.1064 92.8682 59.0381C93.0798 58.9665 93.2734 58.8997 93.4492 58.8379C93.6283 58.7728 93.778 58.7126 93.8984 58.6572C93.8626 58.5335 93.8024 58.4277 93.7178 58.3398C93.6331 58.2487 93.5257 58.1755 93.3955 58.1201C93.2686 58.0615 93.1204 58.0192 92.9512 57.9932C92.7819 57.9639 92.5964 57.9492 92.3945 57.9492C92.3034 57.9492 92.1943 57.9622 92.0674 57.9883C91.9437 58.0143 91.8118 58.0566 91.6719 58.1152C91.5352 58.1706 91.3952 58.2454 91.252 58.3398C91.112 58.4342 90.9834 58.5498 90.8662 58.6865C90.749 58.8232 90.6481 58.9844 90.5635 59.1699C90.4788 59.3522 90.4219 59.5622 90.3926 59.7998ZM96.1529 60.1807C96.1529 59.7184 96.2197 59.3001 96.3531 58.9258C96.4866 58.5514 96.6835 58.2324 96.9439 57.9688C97.2044 57.7051 97.5234 57.5016 97.901 57.3584C98.2818 57.2152 98.7197 57.1436 99.2145 57.1436C99.3837 57.1436 99.5563 57.1615 99.732 57.1973C99.9111 57.2331 100.084 57.2852 100.25 57.3535C100.416 57.4219 100.572 57.5065 100.718 57.6074C100.868 57.7083 100.998 57.8255 101.109 57.959C101.22 58.0892 101.306 58.2357 101.368 58.3984C101.433 58.5579 101.465 58.7321 101.465 58.9209C101.465 59.0674 101.433 59.1732 101.368 59.2383C101.303 59.3034 101.216 59.349 101.109 59.375C101.015 59.401 100.904 59.4255 100.777 59.4482C100.653 59.4678 100.513 59.502 100.357 59.5508L97.0904 60.5664C97.1327 60.765 97.2011 60.9342 97.2955 61.0742C97.3932 61.2142 97.5055 61.3314 97.6324 61.4258C97.7626 61.5202 97.9026 61.5951 98.0523 61.6504C98.2053 61.7057 98.3583 61.748 98.5113 61.7773C98.6643 61.8034 98.8124 61.8213 98.9557 61.8311C99.1021 61.8376 99.234 61.8408 99.3512 61.8408C99.5367 61.8408 99.7206 61.8197 99.9029 61.7773C100.085 61.735 100.253 61.6878 100.406 61.6357C100.559 61.5837 100.692 61.5365 100.806 61.4941C100.923 61.4518 101.008 61.4307 101.06 61.4307C101.233 61.4307 101.358 61.4697 101.436 61.5479C101.518 61.626 101.558 61.748 101.558 61.9141C101.558 62.0215 101.503 62.1143 101.392 62.1924C101.285 62.2705 101.145 62.3356 100.972 62.3877C100.8 62.4398 100.608 62.4805 100.396 62.5098C100.188 62.5423 99.9827 62.5651 99.7809 62.5781C99.5823 62.5944 99.4 62.6042 99.234 62.6074C99.068 62.6139 98.9426 62.6172 98.858 62.6172C98.6334 62.6172 98.4088 62.5879 98.1842 62.5293C97.9628 62.474 97.7512 62.3942 97.5494 62.29C97.3508 62.1859 97.1653 62.0605 96.9928 61.9141C96.8235 61.7643 96.6754 61.5999 96.5484 61.4209C96.4247 61.2386 96.3271 61.0433 96.2555 60.835C96.1871 60.6266 96.1529 60.4085 96.1529 60.1807ZM97.066 59.7998C97.219 59.7542 97.3948 59.7021 97.5934 59.6436C97.7919 59.585 98.0003 59.5231 98.2184 59.458C98.4397 59.3896 98.6627 59.3197 98.8873 59.248C99.1152 59.1764 99.3333 59.1064 99.5416 59.0381C99.7532 58.9665 99.9469 58.8997 100.123 58.8379C100.302 58.7728 100.451 58.7126 100.572 58.6572C100.536 58.5335 100.476 58.4277 100.391 58.3398C100.307 58.2487 100.199 58.1755 100.069 58.1201C99.942 58.0615 99.7939 58.0192 99.6246 57.9932C99.4553 57.9639 99.2698 57.9492 99.068 57.9492C98.9768 57.9492 98.8678 57.9622 98.7408 57.9883C98.6171 58.0143 98.4853 58.0566 98.3453 58.1152C98.2086 58.1706 98.0686 58.2454 97.9254 58.3398C97.7854 58.4342 97.6568 58.5498 97.5396 58.6865C97.4225 58.8232 97.3216 58.9844 97.2369 59.1699C97.1523 59.3522 97.0953 59.5622 97.066 59.7998ZM108.435 61.9141C108.351 61.7643 108.255 61.5869 108.147 61.3818C108.04 61.1735 107.928 60.9554 107.81 60.7275C107.696 60.4964 107.581 60.2637 107.464 60.0293C107.35 59.7917 107.241 59.5671 107.137 59.3555C107.036 59.1406 106.943 58.9469 106.858 58.7744C106.777 58.6019 106.712 58.4635 106.663 58.3594C106.608 58.2454 106.568 58.1494 106.546 58.0713C106.523 57.9932 106.512 57.9313 106.512 57.8857C106.512 57.8076 106.526 57.736 106.555 57.6709C106.585 57.6058 106.624 57.5505 106.673 57.5049C106.725 57.4561 106.783 57.4186 106.848 57.3926C106.914 57.3665 106.982 57.3535 107.054 57.3535C107.122 57.3535 107.176 57.3649 107.215 57.3877C107.254 57.4105 107.286 57.4414 107.312 57.4805C107.342 57.5195 107.364 57.5651 107.381 57.6172C107.4 57.666 107.423 57.7197 107.449 57.7783C107.524 57.9541 107.605 58.1429 107.693 58.3447C107.784 58.5465 107.877 58.7516 107.971 58.96C108.069 59.165 108.165 59.3701 108.26 59.5752C108.357 59.777 108.448 59.9674 108.533 60.1465C108.621 60.3255 108.701 60.4899 108.772 60.6396C108.847 60.7861 108.909 60.9066 108.958 61.001L110.906 57.627C111.007 57.4609 111.136 57.3307 111.292 57.2363C111.448 57.1419 111.609 57.0947 111.775 57.0947C111.818 57.0947 111.857 57.1061 111.892 57.1289C111.928 57.1484 111.959 57.1761 111.985 57.2119C112.011 57.2445 112.031 57.2803 112.044 57.3193C112.057 57.3584 112.063 57.3942 112.063 57.4268C112.063 57.4788 112.055 57.5244 112.039 57.5635C112.026 57.6025 111.998 57.653 111.956 57.7148C111.914 57.7767 111.855 57.8581 111.78 57.959C111.705 58.0566 111.608 58.1934 111.487 58.3691C111.37 58.5417 111.225 58.7614 111.053 59.0283C110.883 59.292 110.683 59.6191 110.452 60.0098L109.231 62.2412C109.124 62.4268 109.015 62.6302 108.904 62.8516C108.793 63.0762 108.693 63.2943 108.601 63.5059C108.513 63.7207 108.44 63.9193 108.382 64.1016C108.326 64.2839 108.299 64.4255 108.299 64.5264C108.299 64.5882 108.287 64.6517 108.264 64.7168C108.245 64.7852 108.216 64.847 108.177 64.9023C108.138 64.9577 108.09 65.0033 108.035 65.0391C107.983 65.0749 107.924 65.0928 107.859 65.0928C107.804 65.0928 107.739 65.0765 107.664 65.0439C107.589 65.0114 107.517 64.9691 107.449 64.917C107.381 64.8682 107.322 64.8128 107.273 64.751C107.224 64.6891 107.2 64.6289 107.2 64.5703C107.2 64.4889 107.216 64.3848 107.249 64.2578C107.285 64.1309 107.332 63.9925 107.39 63.8428C107.449 63.693 107.517 63.5384 107.596 63.3789C107.677 63.2194 107.763 63.0664 107.854 62.9199L108.435 61.9141ZM112.814 59.9023C112.814 59.3978 112.895 58.9697 113.058 58.6182C113.221 58.2666 113.434 57.9818 113.698 57.7637C113.965 57.5423 114.266 57.3828 114.601 57.2852C114.94 57.1842 115.285 57.1338 115.636 57.1338C116.043 57.1338 116.408 57.2005 116.73 57.334C117.055 57.4674 117.33 57.6595 117.555 57.9102C117.78 58.1608 117.952 58.4652 118.073 58.8232C118.193 59.1781 118.253 59.5768 118.253 60.0195C118.253 60.2767 118.219 60.5192 118.151 60.7471C118.082 60.9749 117.988 61.1865 117.868 61.3818C117.747 61.5739 117.602 61.7464 117.433 61.8994C117.267 62.0524 117.085 62.1842 116.886 62.2949C116.688 62.4023 116.478 62.4837 116.256 62.5391C116.035 62.5977 115.81 62.627 115.582 62.627C115.335 62.627 115.094 62.5879 114.86 62.5098C114.629 62.4349 114.411 62.3307 114.205 62.1973C114 62.0638 113.812 61.9092 113.639 61.7334C113.47 61.5544 113.323 61.3639 113.2 61.1621C113.079 60.9603 112.985 60.752 112.916 60.5371C112.848 60.3223 112.814 60.1107 112.814 59.9023ZM113.659 59.7803C113.659 60.0212 113.711 60.2637 113.815 60.5078C113.919 60.7487 114.056 60.9668 114.225 61.1621C114.398 61.3574 114.593 61.5169 114.811 61.6406C115.032 61.7611 115.257 61.8213 115.485 61.8213C115.732 61.8213 115.971 61.779 116.203 61.6943C116.437 61.6097 116.642 61.486 116.818 61.3232C116.997 61.1605 117.14 60.9619 117.247 60.7275C117.355 60.4932 117.409 60.2262 117.409 59.9268C117.409 59.6338 117.368 59.3669 117.287 59.126C117.208 58.8818 117.099 58.6719 116.959 58.4961C116.819 58.3203 116.652 58.1852 116.456 58.0908C116.261 57.9932 116.05 57.9443 115.822 57.9443C115.568 57.9443 115.312 57.985 115.055 58.0664C114.798 58.1445 114.565 58.2617 114.357 58.418C114.152 58.571 113.984 58.7614 113.854 58.9893C113.724 59.2171 113.659 59.4808 113.659 59.7803ZM119.81 59.6826C119.81 59.5817 119.813 59.4678 119.819 59.3408C119.826 59.2139 119.836 59.082 119.849 58.9453C119.862 58.8086 119.876 58.6702 119.893 58.5303C119.912 58.387 119.933 58.2503 119.956 58.1201C119.979 57.9867 120.003 57.8646 120.029 57.7539C120.059 57.64 120.088 57.5423 120.117 57.4609C120.153 57.373 120.21 57.3014 120.288 57.2461C120.366 57.1875 120.47 57.1582 120.601 57.1582C120.718 57.1582 120.811 57.2005 120.879 57.2852C120.951 57.3698 120.986 57.4707 120.986 57.5879C120.986 57.6074 120.97 57.6693 120.938 57.7734C120.908 57.8743 120.874 58.0111 120.835 58.1836C120.799 58.3529 120.765 58.5547 120.732 58.7891C120.703 59.0202 120.688 59.2741 120.688 59.5508C120.688 59.6582 120.693 59.79 120.703 59.9463C120.716 60.1025 120.739 60.2669 120.771 60.4395C120.804 60.6087 120.85 60.7796 120.908 60.9521C120.967 61.1214 121.045 61.2744 121.143 61.4111C121.243 61.5479 121.366 61.6585 121.509 61.7432C121.652 61.8278 121.823 61.8701 122.021 61.8701C122.191 61.8701 122.347 61.8441 122.49 61.792C122.633 61.7399 122.764 61.6732 122.881 61.5918C123.001 61.5072 123.109 61.4128 123.203 61.3086C123.301 61.2044 123.387 61.1003 123.462 60.9961C123.54 60.8919 123.607 60.7943 123.662 60.7031C123.721 60.612 123.771 60.5355 123.813 60.4736C123.833 60.2848 123.848 60.1188 123.857 59.9756C123.867 59.8291 123.874 59.6956 123.877 59.5752C123.883 59.4548 123.887 59.3424 123.887 59.2383C123.89 59.1309 123.892 59.0218 123.892 58.9111C123.892 58.7972 123.89 58.6768 123.887 58.5498C123.887 58.4196 123.887 58.2715 123.887 58.1055V57.5244C123.887 57.4561 123.901 57.3991 123.931 57.3535C123.963 57.3079 124.002 57.2705 124.048 57.2412C124.093 57.2119 124.144 57.1924 124.199 57.1826C124.255 57.1696 124.305 57.1631 124.351 57.1631C124.39 57.1631 124.432 57.1696 124.478 57.1826C124.523 57.1956 124.565 57.2152 124.604 57.2412C124.644 57.2673 124.676 57.3031 124.702 57.3486C124.728 57.391 124.741 57.4414 124.741 57.5L124.731 62.1338C124.731 62.2998 124.699 62.4121 124.634 62.4707C124.569 62.526 124.469 62.5537 124.336 62.5537C124.215 62.5537 124.121 62.5439 124.053 62.5244C123.988 62.5081 123.939 62.4756 123.906 62.4268C123.877 62.3779 123.859 62.3112 123.853 62.2266C123.846 62.1419 123.843 62.0329 123.843 61.8994V61.5674C123.758 61.7204 123.662 61.8669 123.555 62.0068C123.451 62.1436 123.328 62.264 123.188 62.3682C123.049 62.4723 122.887 62.5553 122.705 62.6172C122.523 62.679 122.314 62.71 122.08 62.71C121.742 62.71 121.45 62.6579 121.206 62.5537C120.965 62.4528 120.76 62.3193 120.591 62.1533C120.425 61.984 120.29 61.792 120.186 61.5771C120.085 61.3623 120.005 61.1426 119.946 60.918C119.891 60.6934 119.854 60.4736 119.834 60.2588C119.818 60.0439 119.81 59.8519 119.81 59.6826ZM88.5584 72.4199C88.5584 72.166 88.5942 71.9023 88.6658 71.6289C88.7407 71.3522 88.8465 71.0951 88.9832 70.8574C89.1134 70.6198 89.2729 70.3968 89.4617 70.1885C89.6538 69.9801 89.867 69.7995 90.1014 69.6465C90.3357 69.4902 90.588 69.3682 90.8582 69.2803C91.1316 69.1891 91.4165 69.1436 91.7127 69.1436C91.9373 69.1436 92.1538 69.1745 92.3621 69.2363C92.5704 69.2949 92.7658 69.3763 92.948 69.4805C93.1303 69.5846 93.2964 69.7083 93.4461 69.8516C93.5991 69.9948 93.7293 70.1494 93.8367 70.3154C93.9441 70.4782 94.0271 70.6491 94.0857 70.8281C94.1443 71.0072 94.1736 71.1862 94.1736 71.3652C94.1736 71.5247 94.1639 71.6663 94.1443 71.79C94.1281 71.9105 94.1069 72.0309 94.0809 72.1514C94.0613 72.2751 94.0418 72.4036 94.0223 72.5371C94.0027 72.6673 93.993 72.8203 93.993 72.9961C93.993 73.1491 94.0044 73.276 94.0271 73.377C94.0499 73.4746 94.0825 73.5544 94.1248 73.6162C94.1671 73.6781 94.2176 73.722 94.2762 73.748C94.338 73.7708 94.4064 73.7822 94.4813 73.7822C94.5008 73.7822 94.5252 73.7773 94.5545 73.7676C94.5838 73.7546 94.6115 73.7415 94.6375 73.7285C94.6635 73.7122 94.6863 73.6976 94.7059 73.6846C94.7254 73.6683 94.7384 73.6553 94.7449 73.6455C94.7807 73.6097 94.8149 73.5788 94.8475 73.5527C94.8833 73.5234 94.9305 73.5088 94.9891 73.5088C95.1063 73.5088 95.1941 73.5365 95.2527 73.5918C95.3146 73.6471 95.3455 73.7383 95.3455 73.8652C95.3455 73.9434 95.3211 74.0247 95.2723 74.1094C95.2267 74.194 95.1616 74.2721 95.077 74.3438C94.9923 74.4121 94.8914 74.4691 94.7742 74.5146C94.657 74.5602 94.5268 74.583 94.3836 74.583C94.0971 74.583 93.8514 74.5033 93.6463 74.3438C93.4445 74.181 93.2996 73.9596 93.2117 73.6797C93.0913 73.8066 92.9594 73.9287 92.8162 74.0459C92.673 74.1598 92.5151 74.2607 92.3426 74.3486C92.1701 74.4333 91.978 74.5 91.7664 74.5488C91.5581 74.6009 91.327 74.627 91.073 74.627C90.881 74.627 90.6841 74.6009 90.4822 74.5488C90.2837 74.4967 90.09 74.4235 89.9012 74.3291C89.7156 74.2347 89.5415 74.1208 89.3787 73.9873C89.216 73.8506 89.0727 73.7008 88.949 73.5381C88.8286 73.3753 88.7326 73.1995 88.6609 73.0107C88.5926 72.8219 88.5584 72.625 88.5584 72.4199ZM89.4715 72.4102C89.4715 72.612 89.5252 72.7975 89.6326 72.9668C89.7433 73.1361 89.8849 73.2809 90.0574 73.4014C90.2299 73.5218 90.422 73.6162 90.6336 73.6846C90.8484 73.7497 91.0584 73.7822 91.2635 73.7822C91.5369 73.7822 91.7876 73.7301 92.0154 73.626C92.2466 73.5218 92.4435 73.3867 92.6063 73.2207C92.7723 73.0547 92.9008 72.8691 92.992 72.6641C93.0831 72.4557 93.1287 72.2507 93.1287 72.0488C93.1287 71.9349 93.1531 71.8356 93.202 71.751C93.254 71.6631 93.3029 71.5801 93.3484 71.502C93.3615 71.4857 93.368 71.4613 93.368 71.4287C93.3712 71.3929 93.3712 71.3571 93.368 71.3213C93.368 71.2822 93.3663 71.2464 93.3631 71.2139C93.3598 71.1813 93.3582 71.1585 93.3582 71.1455C93.3582 71.0739 93.3338 70.9958 93.285 70.9111C93.2361 70.8265 93.1694 70.7419 93.0848 70.6572C93.0034 70.5726 92.909 70.4912 92.8016 70.4131C92.6974 70.3317 92.59 70.2601 92.4793 70.1982C92.3686 70.1364 92.2579 70.0876 92.1473 70.0518C92.0366 70.0127 91.9373 69.9932 91.8494 69.9932C91.602 69.9932 91.3709 70.0273 91.1561 70.0957C90.9445 70.1641 90.7508 70.2568 90.575 70.374C90.3992 70.4912 90.2413 70.6296 90.1014 70.7891C89.9646 70.9453 89.8491 71.113 89.7547 71.292C89.6635 71.471 89.5936 71.6566 89.5447 71.8486C89.4959 72.0407 89.4715 72.2279 89.4715 72.4102ZM96.1791 72.1123C96.1791 71.8682 96.2003 71.6257 96.2426 71.3848C96.2882 71.1439 96.3549 70.9144 96.4428 70.6963C96.5339 70.4782 96.6479 70.2764 96.7846 70.0908C96.9213 69.9053 97.0808 69.7458 97.2631 69.6123C97.4486 69.4756 97.657 69.3698 97.8881 69.2949C98.1225 69.2168 98.3813 69.1777 98.6645 69.1777C98.977 69.1777 99.2569 69.2184 99.5043 69.2998C99.7549 69.3779 99.973 69.4837 100.159 69.6172C100.347 69.7474 100.505 69.8971 100.632 70.0664C100.759 70.2357 100.857 70.4115 100.925 70.5938C100.961 70.6914 100.987 70.7679 101.003 70.8232C101.023 70.8753 101.042 70.9079 101.062 70.9209C101.169 70.9925 101.252 71.0755 101.311 71.1699C101.373 71.2643 101.404 71.3538 101.404 71.4385L101.399 73.1914C101.386 73.377 101.371 73.6016 101.355 73.8652C101.342 74.1257 101.317 74.443 101.282 74.8174C101.262 75.0192 101.241 75.221 101.218 75.4229C101.195 75.6247 101.161 75.8184 101.116 76.0039C101.073 76.1927 101.015 76.3669 100.94 76.5264C100.865 76.6859 100.766 76.8242 100.642 76.9414C100.522 77.0618 100.372 77.1562 100.193 77.2246C100.014 77.293 99.7973 77.3271 99.5434 77.3271C99.4848 77.3271 99.3985 77.3223 99.2846 77.3125C99.1739 77.306 99.0518 77.2913 98.9184 77.2686C98.7849 77.2458 98.6482 77.2165 98.5082 77.1807C98.3715 77.1449 98.2462 77.0993 98.1322 77.0439C98.0183 76.9919 97.9255 76.9284 97.8539 76.8535C97.7823 76.7786 97.7465 76.6908 97.7465 76.5898C97.7465 76.528 97.7514 76.4694 97.7611 76.4141C97.7709 76.3587 97.7904 76.3099 97.8197 76.2676C97.849 76.2285 97.8913 76.196 97.9467 76.1699C98.002 76.1471 98.0753 76.1357 98.1664 76.1357C98.2348 76.1357 98.3015 76.1569 98.3666 76.1992C98.435 76.2448 98.5098 76.2839 98.5912 76.3164C98.6726 76.349 98.7654 76.3734 98.8695 76.3896C98.977 76.4059 99.0795 76.4173 99.1771 76.4238C99.2748 76.4336 99.3611 76.4385 99.4359 76.4385C99.5108 76.4385 99.5613 76.4385 99.5873 76.4385C99.737 76.4385 99.8591 76.3913 99.9535 76.2969C100.051 76.2025 100.129 76.0837 100.188 75.9404C100.246 75.8005 100.287 75.6458 100.31 75.4766C100.336 75.3073 100.354 75.1462 100.364 74.9932C100.367 74.9215 100.373 74.8385 100.383 74.7441C100.393 74.6497 100.403 74.5505 100.413 74.4463C100.422 74.3389 100.432 74.2314 100.442 74.124C100.452 74.0166 100.458 73.9157 100.461 73.8213C100.266 74.0622 100.025 74.2575 99.7387 74.4072C99.4522 74.5537 99.1104 74.627 98.7133 74.627C98.3064 74.627 97.9451 74.5749 97.6293 74.4707C97.3168 74.3665 97.0531 74.2103 96.8383 74.002C96.6234 73.7936 96.459 73.5332 96.3451 73.2207C96.2344 72.9049 96.1791 72.5355 96.1791 72.1123ZM97.1166 72.1221C97.1166 72.4606 97.1605 72.7389 97.2484 72.957C97.3396 73.1751 97.4617 73.3477 97.6146 73.4746C97.7709 73.6016 97.9532 73.6911 98.1615 73.7432C98.3699 73.792 98.5928 73.8164 98.8305 73.8164C99.1007 73.8164 99.335 73.7578 99.5336 73.6406C99.7322 73.5202 99.8998 73.3704 100.037 73.1914C100.173 73.0124 100.279 72.8171 100.354 72.6055C100.429 72.3939 100.476 72.1953 100.496 72.0098C100.505 71.9186 100.5 71.8389 100.481 71.7705C100.461 71.6989 100.439 71.6322 100.413 71.5703C100.38 71.4987 100.351 71.4287 100.325 71.3604C100.299 71.2887 100.286 71.2155 100.286 71.1406C100.286 71.0397 100.248 70.9258 100.173 70.7988C100.102 70.6686 100.001 70.5465 99.8705 70.4326C99.7436 70.3187 99.5922 70.2227 99.4164 70.1445C99.2406 70.0632 99.0518 70.0225 98.85 70.0225C98.5147 70.0225 98.2348 70.0827 98.0102 70.2031C97.7888 70.3203 97.6114 70.4766 97.4779 70.6719C97.3477 70.8672 97.2549 71.0918 97.1996 71.3457C97.1443 71.5964 97.1166 71.8551 97.1166 72.1221ZM102.94 72.4199C102.94 72.166 102.976 71.9023 103.048 71.6289C103.123 71.3522 103.229 71.0951 103.365 70.8574C103.495 70.6198 103.655 70.3968 103.844 70.1885C104.036 69.9801 104.249 69.7995 104.483 69.6465C104.718 69.4902 104.97 69.3682 105.24 69.2803C105.514 69.1891 105.799 69.1436 106.095 69.1436C106.319 69.1436 106.536 69.1745 106.744 69.2363C106.952 69.2949 107.148 69.3763 107.33 69.4805C107.512 69.5846 107.678 69.7083 107.828 69.8516C107.981 69.9948 108.111 70.1494 108.219 70.3154C108.326 70.4782 108.409 70.6491 108.468 70.8281C108.526 71.0072 108.556 71.1862 108.556 71.3652C108.556 71.5247 108.546 71.6663 108.526 71.79C108.51 71.9105 108.489 72.0309 108.463 72.1514C108.443 72.2751 108.424 72.4036 108.404 72.5371C108.385 72.6673 108.375 72.8203 108.375 72.9961C108.375 73.1491 108.386 73.276 108.409 73.377C108.432 73.4746 108.465 73.5544 108.507 73.6162C108.549 73.6781 108.6 73.722 108.658 73.748C108.72 73.7708 108.788 73.7822 108.863 73.7822C108.883 73.7822 108.907 73.7773 108.937 73.7676C108.966 73.7546 108.993 73.7415 109.02 73.7285C109.046 73.7122 109.068 73.6976 109.088 73.6846C109.107 73.6683 109.12 73.6553 109.127 73.6455C109.163 73.6097 109.197 73.5788 109.229 73.5527C109.265 73.5234 109.312 73.5088 109.371 73.5088C109.488 73.5088 109.576 73.5365 109.635 73.5918C109.697 73.6471 109.728 73.7383 109.728 73.8652C109.728 73.9434 109.703 74.0247 109.654 74.1094C109.609 74.194 109.544 74.2721 109.459 74.3438C109.374 74.4121 109.273 74.4691 109.156 74.5146C109.039 74.5602 108.909 74.583 108.766 74.583C108.479 74.583 108.233 74.5033 108.028 74.3438C107.826 74.181 107.682 73.9596 107.594 73.6797C107.473 73.8066 107.341 73.9287 107.198 74.0459C107.055 74.1598 106.897 74.2607 106.725 74.3486C106.552 74.4333 106.36 74.5 106.148 74.5488C105.94 74.6009 105.709 74.627 105.455 74.627C105.263 74.627 105.066 74.6009 104.864 74.5488C104.666 74.4967 104.472 74.4235 104.283 74.3291C104.098 74.2347 103.924 74.1208 103.761 73.9873C103.598 73.8506 103.455 73.7008 103.331 73.5381C103.211 73.3753 103.115 73.1995 103.043 73.0107C102.975 72.8219 102.94 72.625 102.94 72.4199ZM103.854 72.4102C103.854 72.612 103.907 72.7975 104.015 72.9668C104.125 73.1361 104.267 73.2809 104.439 73.4014C104.612 73.5218 104.804 73.6162 105.016 73.6846C105.23 73.7497 105.44 73.7822 105.646 73.7822C105.919 73.7822 106.17 73.7301 106.397 73.626C106.629 73.5218 106.826 73.3867 106.988 73.2207C107.154 73.0547 107.283 72.8691 107.374 72.6641C107.465 72.4557 107.511 72.2507 107.511 72.0488C107.511 71.9349 107.535 71.8356 107.584 71.751C107.636 71.6631 107.685 71.5801 107.73 71.502C107.743 71.4857 107.75 71.4613 107.75 71.4287C107.753 71.3929 107.753 71.3571 107.75 71.3213C107.75 71.2822 107.748 71.2464 107.745 71.2139C107.742 71.1813 107.74 71.1585 107.74 71.1455C107.74 71.0739 107.716 70.9958 107.667 70.9111C107.618 70.8265 107.551 70.7419 107.467 70.6572C107.385 70.5726 107.291 70.4912 107.184 70.4131C107.079 70.3317 106.972 70.2601 106.861 70.1982C106.751 70.1364 106.64 70.0876 106.529 70.0518C106.419 70.0127 106.319 69.9932 106.231 69.9932C105.984 69.9932 105.753 70.0273 105.538 70.0957C105.326 70.1641 105.133 70.2568 104.957 70.374C104.781 70.4912 104.623 70.6296 104.483 70.7891C104.347 70.9453 104.231 71.113 104.137 71.292C104.046 71.471 103.976 71.6566 103.927 71.8486C103.878 72.0407 103.854 72.2279 103.854 72.4102ZM111.728 68.0938C111.673 68.0938 111.593 68.0807 111.489 68.0547C111.388 68.0254 111.287 67.9831 111.186 67.9277C111.088 67.8724 111.002 67.8024 110.927 67.7178C110.856 67.6331 110.82 67.5339 110.82 67.4199C110.82 67.3646 110.831 67.3076 110.854 67.249C110.877 67.1904 110.908 67.1367 110.947 67.0879C110.989 67.0391 111.04 67 111.098 66.9707C111.157 66.9382 111.222 66.9219 111.294 66.9219C111.355 66.9219 111.432 66.9463 111.523 66.9951C111.617 67.0439 111.707 67.1074 111.792 67.1855C111.876 67.2604 111.949 67.3451 112.011 67.4395C112.073 67.5306 112.104 67.6201 112.104 67.708C112.104 67.7308 112.096 67.7633 112.08 67.8057C112.067 67.848 112.044 67.8903 112.011 67.9326C111.982 67.9749 111.943 68.0124 111.894 68.0449C111.849 68.0775 111.793 68.0938 111.728 68.0938ZM111.049 74.1533C111.043 74.1273 111.035 74.0768 111.025 74.002C111.018 73.9271 111.01 73.8034 111.001 73.6309C110.994 73.4583 110.988 73.2256 110.981 72.9326C110.978 72.6364 110.976 72.2555 110.976 71.79C110.976 71.4255 110.997 71.0527 111.04 70.6719C111.085 70.2878 111.141 69.9248 111.206 69.583C111.209 69.5537 111.22 69.5146 111.24 69.4658C111.263 69.4137 111.292 69.3633 111.328 69.3145C111.367 69.2624 111.412 69.2184 111.464 69.1826C111.517 69.1436 111.577 69.124 111.645 69.124C111.717 69.124 111.775 69.137 111.821 69.1631C111.866 69.1859 111.901 69.2201 111.923 69.2656C111.949 69.3079 111.967 69.3584 111.977 69.417C111.987 69.4723 111.992 69.5309 111.992 69.5928C111.992 69.7653 111.985 69.9557 111.972 70.1641C111.959 70.3691 111.945 70.5791 111.928 70.7939C111.915 71.0055 111.902 71.2139 111.889 71.4189C111.879 71.624 111.875 71.8096 111.875 71.9756C111.875 72.1221 111.884 72.2881 111.904 72.4736C111.927 72.6592 111.951 72.8496 111.977 73.0449C112.006 73.2402 112.031 73.4323 112.05 73.6211C112.073 73.8066 112.085 73.9759 112.085 74.1289C112.085 74.2884 112.044 74.4121 111.963 74.5C111.881 74.5846 111.79 74.627 111.689 74.627C111.494 74.627 111.347 74.5911 111.25 74.5195C111.152 74.4512 111.085 74.3291 111.049 74.1533ZM114.075 74.0605C114.075 74.0117 114.077 73.945 114.08 73.8604C114.084 73.7757 114.085 73.665 114.085 73.5283C114.085 73.307 114.079 73.0742 114.066 72.8301C114.053 72.5827 114.038 72.3271 114.022 72.0635C114.009 71.7965 113.996 71.5231 113.983 71.2432C113.973 70.96 113.968 70.6702 113.968 70.374C113.968 70.2601 113.973 70.1331 113.983 69.9932C113.992 69.8499 114.012 69.7181 114.041 69.5977C114.071 69.474 114.113 69.3714 114.168 69.29C114.224 69.2054 114.298 69.1631 114.393 69.1631C114.494 69.1631 114.572 69.1956 114.627 69.2607C114.686 69.3226 114.728 69.404 114.754 69.5049C114.783 69.6025 114.8 69.7148 114.803 69.8418C114.809 69.9655 114.813 70.0908 114.813 70.2178C114.927 70.0518 115.071 69.902 115.247 69.7686C115.423 69.6318 115.61 69.5163 115.809 69.4219C116.011 69.3275 116.214 69.2542 116.419 69.2021C116.624 69.1501 116.815 69.124 116.99 69.124C117.309 69.124 117.589 69.1712 117.83 69.2656C118.074 69.3568 118.284 69.4821 118.46 69.6416C118.639 69.8011 118.787 69.9867 118.904 70.1982C119.025 70.4066 119.121 70.6279 119.193 70.8623C119.264 71.0967 119.315 71.3376 119.344 71.585C119.377 71.8291 119.393 72.0651 119.393 72.293V73.123C119.393 73.3346 119.378 73.5397 119.349 73.7383C119.323 73.9336 119.284 74.1077 119.232 74.2607C119.18 74.4105 119.114 74.5309 119.036 74.6221C118.961 74.7165 118.875 74.7637 118.778 74.7637C118.706 74.7637 118.639 74.7588 118.577 74.749C118.515 74.7393 118.46 74.7148 118.411 74.6758C118.366 74.64 118.33 74.583 118.304 74.5049C118.278 74.4268 118.265 74.3193 118.265 74.1826C118.265 74.0557 118.278 73.9238 118.304 73.7871C118.33 73.6471 118.358 73.5072 118.387 73.3672C118.419 73.2272 118.449 73.0872 118.475 72.9473C118.501 72.8073 118.514 72.6689 118.514 72.5322C118.514 72.3792 118.509 72.2279 118.499 72.0781C118.493 71.9251 118.476 71.7754 118.45 71.6289C118.424 71.4824 118.387 71.3408 118.338 71.2041C118.293 71.0641 118.229 70.9307 118.148 70.8037C118.083 70.6995 118.014 70.5986 117.943 70.501C117.874 70.4001 117.79 70.3105 117.689 70.2324C117.591 70.1543 117.472 70.0924 117.332 70.0469C117.192 69.998 117.02 69.9736 116.815 69.9736C116.675 69.9736 116.515 70.0029 116.336 70.0615C116.157 70.1169 115.976 70.1982 115.794 70.3057C115.615 70.4098 115.443 70.5368 115.277 70.6865C115.114 70.833 114.977 70.9974 114.866 71.1797V72.4297C114.866 72.472 114.868 72.5273 114.871 72.5957C114.878 72.6608 114.886 72.734 114.896 72.8154C114.905 72.8968 114.917 72.9831 114.93 73.0742C114.946 73.1654 114.962 73.2549 114.979 73.3428C115.005 73.4795 115.036 73.6097 115.071 73.7334C115.107 73.8571 115.125 73.9727 115.125 74.0801C115.125 74.1549 115.122 74.2266 115.115 74.2949C115.109 74.3633 115.091 74.4235 115.062 74.4756C115.036 74.5244 114.993 74.5635 114.935 74.5928C114.876 74.6221 114.795 74.6367 114.691 74.6367C114.622 74.6367 114.552 74.6302 114.481 74.6172C114.409 74.6074 114.342 74.583 114.28 74.5439C114.222 74.5049 114.173 74.4479 114.134 74.373C114.095 74.2949 114.075 74.1908 114.075 74.0605Z" fill="#121212"/>
</svg>
