<svg fill="none" height="24" viewBox="0 0 24 24" width="24" xmlns="http://www.w3.org/2000/svg">
    <path clip-rule="evenodd" d="M5.58738 15.1914C3.08741 12.6914 3.08741 8.63814 5.58738 6.13816C8.08735 3.63819 12.1406 3.63819 14.6406 6.13816C17.1406 8.63814 17.1406 12.6914 14.6406 15.1914C12.1406 17.6913 8.08735 17.6913 5.58738 15.1914ZM4.52672 5.0775C1.44096 8.16326 1.44096 13.1663 4.52672 16.252C7.43352 19.1588 12.0416 19.3274 15.1458 16.7578L15.9103 17.5223C15.9251 17.7567 16.0221 17.9869 16.2012 18.1661L19.8467 21.8115C20.2372 22.202 20.8703 22.202 21.2609 21.8115C21.6514 21.421 21.6514 20.7878 21.2609 20.3973L17.6154 16.7518C17.4359 16.5723 17.2051 16.4753 16.9702 16.4609L16.2065 15.6972C18.7766 12.593 18.6082 7.9845 15.7012 5.0775C12.6155 1.99174 7.61248 1.99174 4.52672 5.0775Z"
        fill="#007AFF"
        fill-rule="evenodd" />
</svg>
