<svg width="16" height="16" viewBox="0 0 16 16" fill="none" xmlns="http://www.w3.org/2000/svg">
<path fill-rule="evenodd" clip-rule="evenodd" d="M6.64523 5.7777V2.66659C6.64523 1.93021 7.25178 1.33325 7.99999 1.33325C8.7482 1.33325 9.35475 1.93021 9.35475 2.66659V5.7777H11.6127C12.3609 5.7777 12.9674 6.37465 12.9674 7.11103V8.44436L14.2804 12.967C14.5276 13.8187 13.8778 14.6666 12.9777 14.6666H3.02224C2.12217 14.6666 1.47234 13.8187 1.71961 12.967L3.03254 8.44436V7.11103C3.03254 6.37465 3.63909 5.7777 4.3873 5.7777H6.64523ZM7.5484 5.7777V2.66659C7.5484 2.42113 7.75058 2.22214 7.99999 2.22214C8.24939 2.22214 8.45158 2.42113 8.45158 2.66659V5.7777H7.5484ZM4.3873 6.66659C4.1379 6.66659 3.93571 6.86557 3.93571 7.11103V7.99992H12.0643V7.11103C12.0643 6.86557 11.8621 6.66659 11.6127 6.66659H4.3873ZM6.19016 11.1662C6.22109 10.9226 6.04555 10.7005 5.79807 10.67C5.55059 10.6396 5.32489 10.8123 5.29396 11.0559L4.94827 13.7777H3.02224C2.72222 13.7777 2.50561 13.4951 2.58803 13.2112L3.84283 8.88881H12.1571L13.4119 13.2112C13.4944 13.4951 13.2778 13.7777 12.9777 13.7777H5.85847L6.19016 11.1662Z" fill="#121212"/>
</svg>
