<svg width="16" height="16" viewBox="0 0 16 16" fill="none" xmlns="http://www.w3.org/2000/svg">
<path fill-rule="evenodd" clip-rule="evenodd" d="M6.84832 1.82329L6.85713 1.82847C4.63554 2.40844 3.15862 4.70327 3.15862 7.32444V8.02122C3.15862 8.79585 3.03562 9.56179 2.79759 10.2775L2.19729 11.9245C2.00669 12.4475 2.41212 13.0001 3.00396 13.0001H12.9945C13.584 13.0001 13.9936 12.4496 13.8021 11.9245L13.2016 10.2775C12.9636 9.56178 12.8406 8.79584 12.8406 8.02122V7.32444C12.8406 4.70353 11.3642 2.40883 9.14292 1.82862L9.15198 1.8233C9.12 1.66981 9.06021 1.51508 8.95019 1.37903C8.70976 1.0817 8.34477 1 8.00015 1C7.65553 1 7.29054 1.0817 7.0501 1.37903C6.94008 1.51507 6.88029 1.66981 6.84832 1.82329ZM3.74649 10.5931C3.7435 10.6021 3.74038 10.6111 3.73713 10.62L3.23409 12.0001H12.7653L12.2621 10.6201C12.2588 10.6111 12.2557 10.6021 12.2527 10.5931C11.9801 9.77338 11.8406 8.90074 11.8406 8.02122V7.32444C11.8406 5.02551 10.5527 3.22177 8.87476 2.79216C8.70387 2.74841 8.34512 2.6667 8.00001 2.66667C7.6547 2.66664 7.29579 2.74837 7.12474 2.79216C5.44667 3.22178 4.15862 5.02556 4.15862 7.32444V8.02122C4.15862 8.90075 4.0191 9.7734 3.74649 10.5931Z" fill="#121212"/>
<path d="M7.50001 14C7.22387 14 7.00001 14.2239 7.00001 14.5C7.00001 14.7761 7.22387 15 7.50001 15H8.83334C9.10949 15 9.33334 14.7761 9.33334 14.5C9.33334 14.2239 9.10949 14 8.83334 14H7.50001Z" fill="#121212"/>
</svg>
