<svg width="24" height="24" viewBox="0 0 24 24" fill="none" xmlns="http://www.w3.org/2000/svg">
<path d="M17.5 16C16.6716 16 16 15.3284 16 14.5C16 13.6716 16.6716 13 17.5 13C18.3284 13 19 13.6716 19 14.5C19 15.3284 18.3284 16 17.5 16Z" fill="#121212"/>
<path d="M17.5 11C16.6716 11 16 10.3284 16 9.5C16 8.67155 16.6716 8 17.5 8C18.3284 8 19 8.67155 19 9.5C19 10.3284 18.3284 11 17.5 11Z" fill="#121212"/>
<path d="M17.5 6C16.6716 6 16 5.32845 16 4.5C16 3.67155 16.6716 3 17.5 3C18.3284 3 19 3.67155 19 4.5C19 5.32845 18.3284 6 17.5 6Z" fill="#121212"/>
<path d="M11.5 16C10.6716 16 10 15.3284 10 14.5C10 13.6716 10.6716 13 11.5 13C12.3284 13 13 13.6716 13 14.5C13 15.3284 12.3284 16 11.5 16Z" fill="#121212"/>
<path d="M11.5 21C10.6716 21 10 20.3284 10 19.5C10 18.6716 10.6716 18 11.5 18C12.3284 18 13 18.6716 13 19.5C13 20.3284 12.3284 21 11.5 21Z" fill="#121212"/>
<path d="M11.5 11C10.6716 11 10 10.3284 10 9.5C10 8.67155 10.6716 8 11.5 8C12.3284 8 13 8.67155 13 9.5C13 10.3284 12.3284 11 11.5 11Z" fill="#121212"/>
<path d="M11.5 6C10.6716 6 10 5.32845 10 4.5C10 3.67155 10.6716 3 11.5 3C12.3284 3 13 3.67155 13 4.5C13 5.32845 12.3284 6 11.5 6Z" fill="#121212"/>
<path d="M5.5 16C4.67158 16 4 15.3284 4 14.5C4 13.6716 4.67158 13 5.5 13C6.32842 13 7 13.6716 7 14.5C7 15.3284 6.32842 16 5.5 16Z" fill="#121212"/>
<path d="M5.5 11C4.67158 11 4 10.3284 4 9.5C4 8.67155 4.67158 8 5.5 8C6.32842 8 7 8.67155 7 9.5C7 10.3284 6.32842 11 5.5 11Z" fill="#121212"/>
<path d="M5.5 6C4.67158 6 4 5.32845 4 4.5C4 3.67155 4.67158 3 5.5 3C6.32842 3 7 3.67155 7 4.5C7 5.32845 6.32842 6 5.5 6Z" fill="#121212"/>
</svg>
