<svg width="20" height="20" viewBox="0 0 20 20" fill="none" xmlns="http://www.w3.org/2000/svg">
<path d="M8.68001 1.04124H9.65251C11.2775 1.04124 12.5588 1.04124 13.5588 1.16874C14.5838 1.29874 15.4088 1.57124 16.0625 2.18874C16.72 2.80999 17.0163 3.60374 17.1563 4.58874C17.2913 5.53874 17.2913 6.75499 17.2913 8.28374V9.24749C17.2913 9.53374 17.2913 9.67624 17.2138 9.75124C17.135 9.82499 16.9725 9.81499 16.6475 9.79624C16.0361 9.76143 15.4278 9.90612 14.8975 10.2125C14.5313 10.4237 14.23 10.7262 14.035 10.925L11.1913 13.7675C10.5788 14.38 10.3213 15.0937 10.1875 15.6175C10.0805 16.1331 9.97885 16.6498 9.88251 17.1675C9.84342 17.3629 9.81504 17.5603 9.79751 17.7587C9.79001 17.8712 9.78626 18.0225 9.80376 18.1987C9.84376 18.595 9.86376 18.7937 9.78876 18.8762C9.71376 18.9587 9.55001 18.9587 9.22001 18.9587H8.68001C7.05501 18.9587 5.77501 18.9587 4.77376 18.8312C3.74876 18.7012 2.92376 18.4287 2.27126 17.8112C1.61251 17.19 1.31751 16.3962 1.17751 15.4112C1.04126 14.4612 1.04126 13.245 1.04126 11.7162V8.28374C1.04126 6.75499 1.04126 5.53999 1.17751 4.58749C1.31751 3.60374 1.61251 2.80999 2.27126 2.18749C2.92501 1.57249 3.75001 1.29999 4.77376 1.16999C5.77501 1.04124 7.05501 1.04124 8.68001 1.04124ZM5.83376 4.99999C5.61839 5.00834 5.41461 5.09976 5.26518 5.25509C5.11576 5.41042 5.03229 5.61758 5.03229 5.83312C5.03229 6.04866 5.11576 6.25582 5.26518 6.41115C5.41461 6.56647 5.61839 6.6579 5.83376 6.66624H12.5C12.7154 6.6579 12.9192 6.56647 13.0686 6.41115C13.218 6.25582 13.3015 6.04866 13.3015 5.83312C13.3015 5.61758 13.218 5.41042 13.0686 5.25509C12.9192 5.09976 12.7154 5.00834 12.5 4.99999H5.83376ZM5.00001 9.99999C5.00001 10.46 5.37251 10.8337 5.83376 10.8337H12.5C12.7211 10.8337 12.9332 10.7459 13.0896 10.5895C13.2459 10.4332 13.3338 10.2211 13.3338 9.99999C13.3338 9.77887 13.2459 9.5668 13.0896 9.41044C12.9332 9.25409 12.7211 9.16624 12.5 9.16624H5.83376C5.61264 9.16624 5.40057 9.25409 5.24421 9.41044C5.08785 9.5668 5.00001 9.77887 5.00001 9.99999Z" fill="#121212"/>
<path d="M17.415 11.295C17.1273 11.1289 16.801 11.0415 16.4688 11.0415C16.1366 11.0415 15.8102 11.1289 15.5225 11.295C15.305 11.42 15.11 11.6163 14.8813 11.845L12.075 14.65C11.6875 15.0375 11.5063 15.5063 11.4 15.9263C11.345 16.1363 11.1675 17.115 11.1675 17.115C11.1675 17.115 11.0588 17.625 11.045 17.8363C11.03 18.0688 11.0538 18.4063 11.3225 18.6763C11.5925 18.9463 11.93 18.9688 12.1625 18.9538C12.3738 18.9413 12.8838 18.8313 12.8838 18.8313C12.8838 18.8313 13.8625 18.6538 14.0713 18.6C14.4925 18.4925 14.9613 18.3113 15.3488 17.9238L18.155 15.1175C18.3838 14.89 18.58 14.695 18.705 14.4763C19.0425 13.8913 19.0425 13.17 18.705 12.5838C18.58 12.3663 18.3338 12.1213 18.105 11.8938C17.8788 11.6663 17.6325 11.4188 17.415 11.2938V11.295Z" fill="#121212"/>
</svg>
