<svg width="28" height="28" viewBox="0 0 28 28" fill="none" xmlns="http://www.w3.org/2000/svg">
<rect width="28" height="28" rx="4" fill="#00B3FF"/>
<path d="M7.49148 22.26C6.86246 22.26 6.41538 21.9664 6.15025 21.3793C5.88513 20.7921 5.97087 20.2576 6.40748 19.7758L12.0081 13.4525V7.355H10.8338C10.6419 7.355 10.481 7.28966 10.3512 7.15898C10.2213 7.02845 10.1563 6.8666 10.1563 6.67344C10.1563 6.48042 10.2213 6.31993 10.3512 6.19196C10.481 6.06399 10.6419 6 10.8338 6H18.0605C18.2524 6 18.4134 6.06534 18.5433 6.19602C18.6731 6.32655 18.738 6.4884 18.738 6.68156C18.738 6.87458 18.6731 7.03507 18.5433 7.16304C18.4134 7.29101 18.2524 7.355 18.0605 7.355H16.8861V13.4525L22.4868 19.7758C22.9234 20.2576 23.0092 20.7921 22.744 21.3793C22.4789 21.9664 22.0318 22.26 21.4028 22.26H7.49148ZM7.22048 20.905H21.6738L15.5311 13.9493V7.355H13.3631V13.9493L7.22048 20.905Z" fill="white"/>
</svg>
