<svg width="45" height="45" viewBox="0 0 45 45" fill="none" xmlns="http://www.w3.org/2000/svg">
<path fill-rule="evenodd" clip-rule="evenodd" d="M22.5 0C34.9264 0 45 10.0736 45 22.5C45 34.9264 34.9264 45 22.5 45C10.0736 45 0 34.9264 0 22.5C0 10.0736 10.0736 0 22.5 0ZM41.25 22.5C41.25 12.1447 32.8553 3.75 22.5 3.75C12.1447 3.75 3.75 12.1447 3.75 22.5C3.75 32.8553 12.1447 41.25 22.5 41.25C32.8553 41.25 41.25 32.8553 41.25 22.5ZM31.3258 13.6742C32.0581 14.4064 32.0581 15.5936 31.3258 16.3258L25.1517 22.5L31.3258 28.6742C32.0581 29.4064 32.0581 30.5936 31.3258 31.3258C30.5936 32.0581 29.4064 32.0581 28.6742 31.3258L22.5 25.1516L16.3258 31.3258C15.5936 32.0581 14.4064 32.0581 13.6742 31.3258C12.9419 30.5936 12.9419 29.4064 13.6742 28.6742L19.8484 22.5L13.6742 16.3258C12.9419 15.5936 12.9419 14.4064 13.6742 13.6742C14.4064 12.9419 15.5936 12.9419 16.3258 13.6742L22.5 19.8484L28.6742 13.6742C29.4064 12.9419 30.5936 12.9419 31.3258 13.6742Z" fill="#121212"/>
</svg>
