<svg width="28" height="28" viewBox="0 0 28 28" fill="none" xmlns="http://www.w3.org/2000/svg">
<rect width="28" height="28" rx="8" fill="#F19937"/>
<path d="M13.7899 6.04363C13.8563 6.01485 13.9278 6 14 6C14.0722 6 14.1437 6.01485 14.2101 6.04363L21.4667 9.1896L14 12.4262L6.53333 9.1896L13.7899 6.04363ZM6 10.1325V18.4074C6 18.6232 6.128 18.8174 6.3232 18.9037L13.4667 22V13.3691L6 10.1325ZM14.5333 13.3691L22 10.1325V18.4074C22.0001 18.513 21.9695 18.6164 21.9121 18.7046C21.8546 18.7928 21.7728 18.862 21.6768 18.9037L14.5333 22V13.3691Z" fill="white"/>
</svg>
