<svg width="52" height="52" viewBox="0 0 52 52" fill="none" xmlns="http://www.w3.org/2000/svg">
<g filter="url(#filter0_b_2251_167598)">
<circle cx="26" cy="26" r="26" fill="white" fill-opacity="0.2"/>
</g>
<path d="M29.1123 15C29.5203 15 29.9212 15.1076 30.2744 15.3118C30.6276 15.5161 30.9208 15.8099 31.1243 16.1635L32.5774 18.6885H36.6786C37.9607 18.6885 39 19.7278 39 21.0099V34.9643C39 36.2464 37.9607 37.2857 36.6786 37.2857H15.3214C14.0393 37.2857 13 36.2464 13 34.9643V21.0099C13 19.7278 14.0393 18.6885 15.3214 18.6885H19.3585L20.8536 16.145C21.0585 15.7964 21.351 15.5073 21.702 15.3065C22.053 15.1057 22.4504 15 22.8548 15H29.1123ZM21.2392 23.8305C21.1902 23.7954 21.1296 23.7807 21.07 23.7895C21.0104 23.7983 20.9566 23.8299 20.9199 23.8776L20.9152 23.8839L18.7044 26.9676C18.6799 27.0018 18.6651 27.042 18.6617 27.084C18.6583 27.1259 18.6663 27.168 18.6849 27.2057C18.7036 27.2434 18.7321 27.2754 18.7675 27.2981C18.8029 27.3209 18.8438 27.3336 18.8858 27.3349L18.8931 27.335H20.0593L20.06 27.4151C20.1126 30.5753 22.759 33.1083 26 33.1083C26.6578 33.1083 27.3017 33.0037 27.9114 32.8019C27.9142 32.8009 27.9165 32.7988 27.9183 32.7952C28.3318 32.6561 28.6297 32.2653 28.6297 31.8048C28.6297 31.2279 28.162 30.7602 27.5851 30.7602C27.4391 30.7602 27.3001 30.7902 27.174 30.8442C26.799 30.9594 26.4044 31.019 26 31.019C23.9081 31.019 22.217 29.4207 22.1505 27.4403L22.149 27.3802L22.1486 27.3351H23.3147C23.3567 27.3351 23.3979 27.3237 23.434 27.3021C23.47 27.2805 23.4996 27.2495 23.5194 27.2124C23.5392 27.1754 23.5486 27.1336 23.5466 27.0916C23.5445 27.0497 23.5311 27.009 23.5078 26.9741L23.5033 26.9677L21.2925 23.8839C21.2778 23.8633 21.2597 23.8453 21.2392 23.8305V23.8305ZM26 21.5302C25.3953 21.5302 24.8022 21.6186 24.2364 21.7897C24.2335 21.7907 24.231 21.7924 24.2291 21.7949C23.7956 21.922 23.479 22.3227 23.479 22.7974C23.479 23.3744 23.9467 23.8421 24.5236 23.8421C24.6519 23.8422 24.779 23.8187 24.8987 23.7726C25.2519 23.6716 25.6217 23.6194 26 23.6194C28.0919 23.6194 29.783 25.2178 29.8495 27.1981L29.851 27.2583L29.8514 27.3041H28.6853L28.6781 27.3042C28.6369 27.3055 28.5967 27.3177 28.5618 27.3397C28.5269 27.3616 28.4984 27.3925 28.4794 27.4291C28.4603 27.4657 28.4514 27.5067 28.4535 27.5479C28.4556 27.5891 28.4686 27.629 28.4912 27.6635L28.4967 27.6715L30.7075 30.7552L30.7121 30.7615C30.7336 30.7895 30.7613 30.8122 30.7929 30.8279C30.8245 30.8436 30.8593 30.8519 30.8946 30.8521C30.9299 30.8523 30.9648 30.8445 30.9966 30.8292C31.0285 30.8139 31.0564 30.7916 31.0783 30.7639L31.0848 30.7552L33.2956 27.6715L33.3001 27.665C33.3327 27.6161 33.3455 27.5565 33.336 27.4985C33.3264 27.4404 33.2951 27.3881 33.2485 27.3522L33.2422 27.3476L33.2342 27.342C33.1991 27.3191 33.1585 27.306 33.1166 27.3043L33.1069 27.3041H31.9407L31.94 27.2233C31.8874 24.0631 29.241 21.5302 26 21.5302Z" fill="white"/>
<path d="M27.9421 32.8946C27.3224 33.0997 26.6682 33.206 26 33.206C22.7135 33.206 20.0248 30.6411 19.9627 27.4327H18.8931H18.8915V27.4327L18.8843 27.4326L18.8828 27.4325C18.8231 27.4307 18.7649 27.4126 18.7147 27.3803C18.6644 27.3479 18.6239 27.3025 18.5974 27.249C18.5709 27.1954 18.5595 27.1356 18.5644 27.076C18.5692 27.0164 18.5902 26.9593 18.625 26.9107L18.7028 26.9665L18.625 26.9107L20.8359 23.827L20.8367 23.8258L20.8368 23.8258L20.8414 23.8195L20.8424 23.8181L20.8425 23.8181C20.8946 23.7503 20.9711 23.7054 21.0557 23.6929C21.1403 23.6804 21.2265 23.7013 21.2961 23.7511L21.3368 23.7803V23.7857C21.3496 23.7985 21.3613 23.8123 21.3719 23.827L21.3023 23.877L21.3719 23.827L23.5827 26.9108L23.5835 26.9118L23.5835 26.9118L23.5879 26.9182L23.5891 26.9199L23.589 26.9199C23.6222 26.9695 23.6412 27.0273 23.6441 27.0869C23.647 27.1465 23.6337 27.2059 23.6055 27.2585C23.5773 27.3111 23.5354 27.3552 23.4842 27.3858C23.4329 27.4165 23.3744 27.4327 23.3147 27.4327H22.248M27.9421 32.8946C27.942 32.8946 27.9418 32.8947 27.9417 32.8947L27.9114 32.8019L27.9421 32.8946ZM27.9421 32.8946C27.9527 32.8911 27.9619 32.8863 27.9699 32.8807C28.4114 32.7227 28.7274 32.3008 28.7274 31.8048C28.7274 31.174 28.216 30.6625 27.5851 30.6625C27.4276 30.6625 27.2772 30.6945 27.1404 30.7524M27.1404 30.7524C26.7763 30.8637 26.393 30.9214 26 30.9214C23.9578 30.9214 22.313 29.3619 22.2482 27.4374L22.2482 27.4379L22.1506 27.4403L22.2482 27.4371L22.248 27.4327M27.1404 30.7524C27.1421 30.7519 27.1437 30.7514 27.1453 30.7509L27.174 30.8442M27.1404 30.7524C27.1388 30.7531 27.1371 30.7538 27.1355 30.7545L27.174 30.8442M22.248 27.4327H22.1504M22.248 27.4327L22.2467 27.3793L22.2467 27.3778L22.2463 27.3351H23.3147C23.3567 27.3351 23.3979 27.3237 23.434 27.3021C23.47 27.2805 23.4996 27.2495 23.5194 27.2124C23.5392 27.1754 23.5486 27.1336 23.5466 27.0916C23.5445 27.0497 23.5311 27.009 23.5078 26.9741L23.5033 26.9677L21.2925 23.8839C21.2778 23.8633 21.2597 23.8453 21.2392 23.8305L22.1504 27.4327M22.1504 27.4327L22.1505 27.4403C22.217 29.4207 23.9081 31.019 26 31.019C26.4044 31.019 26.799 30.9594 27.174 30.8442M22.1504 27.4327L27.9183 32.7952C28.3318 32.6561 28.6297 32.2653 28.6297 31.8048C28.6297 31.2279 28.162 30.7602 27.5851 30.7602C27.4391 30.7602 27.3001 30.7902 27.174 30.8442M24.2082 21.6963L24.2082 21.6963C24.7831 21.5223 25.3857 21.4325 26 21.4325C29.2867 21.4325 31.9756 23.9977 32.0374 27.2064H33.1069H33.109L33.109 27.2064L33.1187 27.2066L33.1207 27.2067L33.1207 27.2067C33.1802 27.2092 33.2379 27.2277 33.2877 27.2604L33.2897 27.2617L33.2897 27.2617L33.2977 27.2672L33.3006 27.2692L33.3006 27.2693L33.3068 27.2739L33.308 27.2748C33.3743 27.3258 33.4187 27.4001 33.4323 27.4826C33.4459 27.5651 33.4277 27.6497 33.3813 27.7192L33.3804 27.7206L33.3759 27.727L33.375 27.7284L31.1642 30.8121L31.1629 30.8139L31.1628 30.8139L31.1563 30.8226L31.1549 30.8244C31.1238 30.8638 31.0841 30.8955 31.0389 30.9172C30.9937 30.9389 30.9441 30.9501 30.894 30.9497C30.8438 30.9494 30.7944 30.9376 30.7495 30.9153C30.7045 30.893 30.6653 30.8608 30.6347 30.821L30.6338 30.8199L30.6292 30.8136L30.6281 30.8121L30.6281 30.8121L28.4173 27.7284L28.4161 27.7267L28.4161 27.7267L28.4106 27.7187L28.4095 27.717L28.4095 27.717C28.3774 27.668 28.3589 27.6113 28.3559 27.5528C28.353 27.4943 28.3657 27.436 28.3927 27.384C28.4198 27.332 28.4602 27.2882 28.5098 27.257C28.5594 27.2258 28.6165 27.2084 28.675 27.2066L28.6765 27.2065L28.6838 27.2064L28.6853 27.2064L29.752 27.2064L29.7519 27.2014C29.7518 27.2013 29.7518 27.2011 29.7518 27.2009C29.687 25.2765 28.0422 23.7171 26 23.7171C25.6321 23.7171 25.2728 23.7676 24.9296 23.8654C24.7999 23.9147 24.6623 23.9399 24.5235 23.9397M24.2082 21.6963L24.5236 23.8421M24.2082 21.6963L24.2068 21.6967C24.1993 21.6991 24.1922 21.7022 24.1855 21.706M24.2082 21.6963L24.2291 21.7949M24.5235 23.9397L24.5236 23.8421M24.5235 23.9397C24.5235 23.9397 24.5236 23.9397 24.5236 23.9397V23.8421M24.5235 23.9397C23.8927 23.9397 23.3813 23.4282 23.3813 22.7974C23.3813 22.2842 23.7198 21.8502 24.1855 21.706M24.5236 23.8421C23.9467 23.8421 23.479 23.3744 23.479 22.7974C23.479 22.3227 23.7956 21.922 24.2291 21.7949M24.1855 21.706C24.1726 21.7133 24.1612 21.7232 24.152 21.735L24.2291 21.7949M24.1855 21.706C24.1908 21.7044 24.1962 21.7027 24.2016 21.7011L24.2291 21.7949M32.4928 18.7372L32.5209 18.7861H32.5774H36.6786C37.9067 18.7861 38.9023 19.7818 38.9023 21.0099V34.9643C38.9023 36.1924 37.9067 37.1881 36.6786 37.1881H15.3214C14.0933 37.1881 13.0977 36.1924 13.0977 34.9643V21.0099C13.0977 19.7818 14.0933 18.7861 15.3214 18.7861H19.3585H19.4143L19.4426 18.7379L20.9378 16.1945C21.1341 15.8605 21.4143 15.5836 21.7505 15.3913C22.0868 15.1989 22.4674 15.0977 22.8548 15.0977H29.1123C29.5032 15.0977 29.8871 15.2007 30.2255 15.3964C30.5639 15.592 30.8447 15.8735 31.0397 16.2122L31.1214 16.1652L31.0397 16.2122L32.4928 18.7372ZM20.0593 27.335L20.06 27.4151L18.8858 27.3349L18.8931 27.335H20.0593Z" stroke="white" stroke-opacity="0.6" stroke-width="0.195312"/>
<defs>
<filter id="filter0_b_2251_167598" x="-4" y="-4" width="60" height="60" filterUnits="userSpaceOnUse" color-interpolation-filters="sRGB">
<feFlood flood-opacity="0" result="BackgroundImageFix"/>
<feGaussianBlur in="BackgroundImageFix" stdDeviation="2"/>
<feComposite in2="SourceAlpha" operator="in" result="effect1_backgroundBlur_2251_167598"/>
<feBlend mode="normal" in="SourceGraphic" in2="effect1_backgroundBlur_2251_167598" result="shape"/>
</filter>
</defs>
</svg>
