<svg width="24" height="24" viewBox="0 0 24 24" fill="none" xmlns="http://www.w3.org/2000/svg">
<circle cx="12" cy="12" r="12" fill="#EB4B35"/>
<path d="M10.8553 15.9588C10.8553 16.5839 11.2713 17 11.8965 17C12.5216 17 12.9377 16.5839 12.9377 15.9588V13.0404H15.8543C16.4794 13.0404 16.8955 12.6243 16.8955 11.9992C16.8955 11.3741 16.4794 10.958 15.8543 10.958H12.9377V8.04122C12.9377 7.41609 12.5216 7 11.8965 7C11.2713 7 10.8553 7.41609 10.8553 8.04122V10.958H8.04122C7.41609 10.958 7 11.3741 7 11.9992C7 12.6243 7.41609 13.0404 8.04122 13.0404H10.8553V15.9588Z" fill="white"/>
</svg>
