<svg width="80" height="80" viewBox="0 0 80 80" fill="none" xmlns="http://www.w3.org/2000/svg">
<circle cx="40" cy="40" r="40" fill="#121212" fill-opacity="0.04"/>
<g clip-path="url(#clip0_5105_150190)">
<path d="M45.9685 36.6978L45.0328 35.7622C44.8126 35.542 44.8126 35.1568 45.0328 34.9366C45.253 34.7164 45.6382 34.7164 45.8584 34.9366L46.794 35.8723L47.7297 34.9366C47.9499 34.7164 48.3351 34.7164 48.5553 34.9366C48.7754 35.1568 48.7754 35.542 48.5553 35.7622L47.6196 36.6978L48.5553 37.6335C48.7754 37.8537 48.7754 38.2389 48.5553 38.4591C48.3351 38.6792 47.9498 38.6792 47.7297 38.4591L46.794 37.5234L45.8584 38.4591C45.6382 38.6792 45.253 38.6792 45.0328 38.4591C44.8126 38.2389 44.8126 37.8536 45.0328 37.6335L45.9685 36.6978ZM29.0167 36.6978L28.081 35.7622C27.8608 35.542 27.8608 35.1568 28.081 34.9366C28.3012 34.7164 28.6865 34.7164 28.9066 34.9366L29.8422 35.8723L30.7779 34.9366C30.9981 34.7164 31.3833 34.7164 31.6035 34.9366C31.8237 35.1568 31.8237 35.542 31.6035 35.7622L30.6678 36.6978L31.6035 37.6335C31.8237 37.8537 31.8237 38.2389 31.6035 38.4591C31.3833 38.6792 30.998 38.6792 30.7779 38.4591L29.8422 37.5234L28.9066 38.4591C28.6864 38.6792 28.3012 38.6792 28.081 38.4591C27.8058 38.2389 27.8058 37.8536 28.026 37.6335L29.0167 36.6978ZM32.7042 45.2288C32.7042 44.8986 32.9794 44.6233 33.3097 44.6233H43.3266C43.6569 44.6233 43.9321 44.8986 43.9321 45.2288C43.9321 45.559 43.6569 45.8342 43.3266 45.8342H33.3097C32.9794 45.7792 32.7042 45.504 32.7042 45.2288V45.2288Z" fill="white"/>
<path d="M58.7927 40.9357C60.719 40.9357 63.0306 40.1102 63.0306 36.5877C63.0306 33.0652 59.1779 28.1118 58.7926 28.1118C58.4073 28.1118 54.5547 33.0102 54.5547 36.5877C54.5547 40.1652 56.8663 40.9357 58.7927 40.9357Z" fill="#A6A6A6"/>
<path d="M57.6369 27.8914V23.1031C57.6369 21.8372 56.5912 20.7915 55.3253 20.7915H21.3116C20.0457 20.7915 19 21.8372 19 23.1031V53.3191C19 54.64 20.0457 55.6858 21.3116 55.6858H33.5851L36.6673 58.7679C37.5479 59.7036 39.0339 59.6485 39.9696 58.7679L43.0517 55.6858H55.3253C56.5912 55.6858 57.6369 54.64 57.6369 53.3742V42.3665C55.4354 42.0363 53.2889 40.7153 53.2889 36.8627C53.2889 33.5053 55.9857 29.1573 57.6369 27.1209V27.8914ZM31.6038 38.4588C31.3836 38.6789 30.9983 38.6789 30.7782 38.4588L29.7875 37.5231L28.8518 38.4588C28.6317 38.6789 28.2465 38.6789 28.0263 38.4588C27.8061 38.2386 27.8061 37.8534 28.0263 37.6332L28.9619 36.6976L28.0263 35.7619C27.8061 35.5417 27.8061 35.1565 28.0263 34.9363C28.2465 34.7161 28.6317 34.7161 28.8518 34.9363L29.7875 35.872L30.7232 34.9363C30.9433 34.7161 31.3286 34.7161 31.5487 34.9363C31.7689 35.1565 31.7689 35.5417 31.5487 35.7619L30.6131 36.6976L31.5487 37.6332C31.8239 37.8534 31.8239 38.2386 31.6038 38.4588ZM43.3269 45.7789H33.31C32.9797 45.7789 32.7045 45.5037 32.7045 45.1735C32.7045 44.8432 32.9797 44.568 33.31 44.568H43.3269C43.6572 44.568 43.9324 44.8432 43.9324 45.1735C43.9324 45.5037 43.6572 45.7789 43.3269 45.7789ZM48.6106 38.4588C48.3904 38.6789 48.0052 38.6789 47.785 38.4588L46.7943 37.5231L45.8587 38.4588C45.6385 38.6789 45.2533 38.6789 45.0331 38.4588C44.8129 38.2386 44.8129 37.8534 45.0331 37.6332L45.9688 36.6976L45.0331 35.7619C44.8129 35.5417 44.8129 35.1565 45.0331 34.9363C45.2533 34.7161 45.6385 34.7161 45.8587 34.9363L46.7943 35.872L47.73 34.9363C47.9502 34.7161 48.3354 34.7161 48.5556 34.9363C48.7758 35.1565 48.7758 35.5417 48.5556 35.7619L47.6199 36.6976L48.5556 37.6332C48.8307 37.8534 48.8307 38.2386 48.6106 38.4588Z" fill="#121212" fill-opacity="0.24"/>
</g>
<defs>
<clipPath id="clip0_5105_150190">
<rect width="44" height="44" fill="white" transform="translate(19 18)"/>
</clipPath>
</defs>
</svg>
