<svg width="29" height="30" viewBox="0 0 29 30" fill="none" xmlns="http://www.w3.org/2000/svg">
<rect y="0.5" width="29" height="29" rx="8" fill="#8E8E93"/>
<path d="M14.4902 24.2852C14.3665 24.2852 14.2461 24.2819 14.1289 24.2754C14.0117 24.2754 13.8945 24.2689 13.7773 24.2559L13.2402 25.2812C13.1816 25.3984 13.097 25.4831 12.9863 25.5352C12.8757 25.5938 12.752 25.61 12.6152 25.584C12.485 25.5579 12.3776 25.4993 12.293 25.4082C12.2148 25.3171 12.1628 25.2031 12.1367 25.0664L11.9609 23.9434C11.7331 23.8783 11.5085 23.8034 11.2871 23.7188C11.0723 23.6406 10.8542 23.556 10.6328 23.4648L9.80273 24.207C9.69857 24.2982 9.58464 24.3535 9.46094 24.373C9.33724 24.3926 9.20703 24.3665 9.07031 24.2949C8.95964 24.2298 8.88151 24.1387 8.83594 24.0215C8.79688 23.9043 8.79036 23.7773 8.81641 23.6406L9.03125 22.5371C8.84896 22.4004 8.66667 22.2572 8.48438 22.1074C8.30208 21.9577 8.1263 21.8014 7.95703 21.6387L6.93164 22.0684C6.79492 22.127 6.66471 22.14 6.54102 22.1074C6.41732 22.0749 6.30664 22 6.20898 21.8828C6.13086 21.7852 6.08529 21.6745 6.07227 21.5508C6.06576 21.4206 6.09831 21.2969 6.16992 21.1797L6.76562 20.2129C6.63542 20.0241 6.51172 19.8288 6.39453 19.627C6.28385 19.4186 6.17318 19.207 6.0625 18.9922L4.92969 19.0312C4.79948 19.0443 4.67904 19.0182 4.56836 18.9531C4.45768 18.8815 4.38281 18.7773 4.34375 18.6406C4.29818 18.5104 4.29492 18.3867 4.33398 18.2695C4.37305 18.1523 4.44466 18.0514 4.54883 17.9668L5.42773 17.2637C5.36914 17.0358 5.32031 16.8079 5.28125 16.5801C5.24219 16.3457 5.21615 16.1048 5.20312 15.8574L4.11914 15.5156C3.98242 15.4766 3.87826 15.4082 3.80664 15.3105C3.73503 15.2064 3.69922 15.0859 3.69922 14.9492C3.69922 14.806 3.73503 14.6855 3.80664 14.5879C3.87826 14.4902 3.98242 14.4219 4.11914 14.3828L5.20312 14.041C5.21615 13.7936 5.24219 13.556 5.28125 13.3281C5.32031 13.0938 5.36914 12.8626 5.42773 12.6348L4.54883 11.9219C4.44466 11.8438 4.37305 11.7461 4.33398 11.6289C4.29492 11.5117 4.29818 11.3913 4.34375 11.2676C4.38281 11.1309 4.45768 11.0299 4.56836 10.9648C4.67904 10.8932 4.79948 10.8639 4.92969 10.877L6.0625 10.9062C6.17318 10.6914 6.28385 10.4831 6.39453 10.2812C6.51172 10.0794 6.63542 9.8776 6.76562 9.67578L6.16016 8.70898C6.09505 8.59831 6.06576 8.48112 6.07227 8.35742C6.08529 8.23372 6.13086 8.12305 6.20898 8.02539C6.30664 7.9082 6.41406 7.83659 6.53125 7.81055C6.65495 7.77799 6.78516 7.78776 6.92188 7.83984L7.95703 8.25C8.1263 8.10026 8.30208 7.95052 8.48438 7.80078C8.66667 7.64453 8.84896 7.49805 9.03125 7.36133L8.81641 6.26758C8.78385 6.12435 8.79036 5.99414 8.83594 5.87695C8.88151 5.75977 8.95964 5.67188 9.07031 5.61328C9.20052 5.54167 9.32747 5.51562 9.45117 5.53516C9.58138 5.54818 9.69857 5.60352 9.80273 5.70117L10.6328 6.42383C10.8542 6.33919 11.0723 6.25781 11.2871 6.17969C11.5085 6.09505 11.7331 6.02018 11.9609 5.95508L12.1367 4.8418C12.1628 4.70508 12.2148 4.59115 12.293 4.5C12.3776 4.40885 12.485 4.35026 12.6152 4.32422C12.752 4.29818 12.8757 4.31445 12.9863 4.37305C13.097 4.42513 13.1816 4.50651 13.2402 4.61719L13.7773 5.64258C13.901 5.62956 14.0182 5.62305 14.1289 5.62305C14.2461 5.61654 14.3665 5.61328 14.4902 5.61328C14.6074 5.61328 14.7246 5.61654 14.8418 5.62305C14.959 5.62305 15.0762 5.62956 15.1934 5.64258L15.7402 4.61719C15.7923 4.50651 15.8737 4.42513 15.9844 4.37305C16.1016 4.31445 16.2285 4.29818 16.3652 4.32422C16.4954 4.35026 16.6029 4.40885 16.6875 4.5C16.7786 4.59115 16.8307 4.70508 16.8438 4.8418L17.0195 5.96484C17.2409 6.02344 17.4622 6.09505 17.6836 6.17969C17.9049 6.25781 18.123 6.33919 18.3379 6.42383L19.1777 5.69141C19.2754 5.60026 19.3861 5.54818 19.5098 5.53516C19.64 5.51562 19.7702 5.54167 19.9004 5.61328C20.0111 5.67188 20.0892 5.75977 20.1348 5.87695C20.1868 5.99414 20.1966 6.12435 20.1641 6.26758L19.9395 7.36133C20.1217 7.49805 20.304 7.64453 20.4863 7.80078C20.6751 7.95052 20.8509 8.10026 21.0137 8.25L22.0586 7.83984C22.1888 7.78776 22.3158 7.77799 22.4395 7.81055C22.5632 7.83659 22.6738 7.9082 22.7715 8.02539C22.8496 8.12305 22.8919 8.23372 22.8984 8.35742C22.9115 8.48112 22.8822 8.59831 22.8105 8.70898L22.2148 9.67578C22.4688 10.0664 22.7031 10.4766 22.918 10.9062L24.0508 10.877C24.181 10.8639 24.3014 10.8932 24.4121 10.9648C24.5228 11.0299 24.5977 11.1309 24.6367 11.2676C24.6823 11.3913 24.6823 11.5117 24.6367 11.6289C24.5977 11.7461 24.5293 11.8438 24.4316 11.9219L23.5527 12.6348C23.6113 12.8626 23.6602 13.0938 23.6992 13.3281C23.7383 13.556 23.7676 13.7936 23.7871 14.041L24.8516 14.3828C25.151 14.4805 25.3008 14.6693 25.3008 14.9492C25.3008 15.2292 25.151 15.418 24.8516 15.5156L23.7871 15.8574C23.7676 16.1048 23.7383 16.3457 23.6992 16.5801C23.6602 16.8079 23.6113 17.0358 23.5527 17.2637L24.4316 17.9668C24.5293 18.0514 24.5977 18.1556 24.6367 18.2793C24.6823 18.3965 24.6823 18.5169 24.6367 18.6406C24.5977 18.7773 24.5228 18.8815 24.4121 18.9531C24.3014 19.0182 24.181 19.0443 24.0508 19.0312L22.918 18.9922C22.8073 19.207 22.6934 19.4186 22.5762 19.627C22.4655 19.8288 22.3451 20.0241 22.2148 20.2129L22.8105 21.1797C22.8822 21.2969 22.9115 21.4206 22.8984 21.5508C22.8919 21.6745 22.8496 21.7852 22.7715 21.8828C22.6738 22 22.5632 22.0749 22.4395 22.1074C22.3158 22.14 22.1855 22.127 22.0488 22.0684L21.0137 21.6387C20.8509 21.8014 20.6751 21.9577 20.4863 22.1074C20.304 22.2572 20.1217 22.4004 19.9395 22.5371L20.1641 23.6406C20.2422 23.9271 20.1543 24.1452 19.9004 24.2949C19.7702 24.3665 19.64 24.3926 19.5098 24.373C19.3861 24.3535 19.2754 24.2982 19.1777 24.207L18.3379 23.4648C18.123 23.556 17.9049 23.6406 17.6836 23.7188C17.4622 23.8034 17.2409 23.875 17.0195 23.9336L16.8438 25.0664C16.8307 25.2031 16.7786 25.3171 16.6875 25.4082C16.6029 25.4993 16.4954 25.5579 16.3652 25.584C16.2285 25.61 16.1048 25.5938 15.9941 25.5352C15.8835 25.4831 15.7988 25.3984 15.7402 25.2812L15.1934 24.2559C15.0762 24.2689 14.959 24.2754 14.8418 24.2754C14.7246 24.2819 14.6074 24.2852 14.4902 24.2852ZM14.4902 22.7129C15.5775 22.7129 16.5866 22.5143 17.5176 22.1172C18.4486 21.7201 19.2624 21.1667 19.959 20.457C20.6556 19.7474 21.196 18.9238 21.5801 17.9863C21.9707 17.0488 22.166 16.0397 22.166 14.959C22.166 13.8783 21.9707 12.8691 21.5801 11.9316C21.196 10.9876 20.6556 10.1608 19.959 9.45117C19.2624 8.74154 18.4486 8.18815 17.5176 7.79102C16.5866 7.38737 15.5775 7.18555 14.4902 7.18555C13.4095 7.18555 12.4036 7.38737 11.4727 7.79102C10.5417 8.18815 9.72786 8.74154 9.03125 9.45117C8.34115 10.1608 7.80078 10.9876 7.41016 11.9316C7.02604 12.8691 6.83398 13.8783 6.83398 14.959C6.83398 16.0397 7.02604 17.0488 7.41016 17.9863C7.80078 18.9238 8.34115 19.7474 9.03125 20.457C9.72786 21.1667 10.5417 21.7201 11.4727 22.1172C12.4036 22.5143 13.4095 22.7129 14.4902 22.7129ZM12.791 13.4551L9.48047 7.80078L10.6816 7.12695L13.9434 12.7227L12.791 13.4551ZM16.668 15.6133V14.2656H23.1621V15.6133H16.668ZM13.9629 17.2051L10.5742 22.7715L9.38281 22.0684L12.8203 16.4629L13.9629 17.2051ZM14.4707 17.5176C13.9954 17.5176 13.5658 17.4036 13.1816 17.1758C12.7975 16.9479 12.4915 16.6419 12.2637 16.2578C12.0358 15.8672 11.9219 15.4375 11.9219 14.9688C11.9219 14.4935 12.0358 14.0638 12.2637 13.6797C12.4915 13.2956 12.7975 12.9896 13.1816 12.7617C13.5658 12.5273 13.9954 12.4102 14.4707 12.4102C14.9395 12.4102 15.3659 12.5273 15.75 12.7617C16.1406 12.9896 16.4499 13.2956 16.6777 13.6797C16.9121 14.0638 17.0293 14.4935 17.0293 14.9688C17.0293 15.4375 16.9121 15.8672 16.6777 16.2578C16.4499 16.6419 16.1406 16.9479 15.75 17.1758C15.3659 17.4036 14.9395 17.5176 14.4707 17.5176ZM14.4707 16.0527C14.7832 16.0527 15.0436 15.9518 15.252 15.75C15.4668 15.5417 15.5742 15.2812 15.5742 14.9688C15.5742 14.6562 15.4668 14.3958 15.252 14.1875C15.0436 13.9727 14.7832 13.8652 14.4707 13.8652C14.1647 13.8652 13.9043 13.9727 13.6895 14.1875C13.4811 14.3958 13.377 14.6562 13.377 14.9688C13.377 15.2812 13.4811 15.5417 13.6895 15.75C13.9043 15.9518 14.1647 16.0527 14.4707 16.0527Z" fill="white"/>
</svg>
