<svg width="25" height="24" viewBox="0 0 25 24" fill="none" xmlns="http://www.w3.org/2000/svg">
<rect x="0.333984" y="3" width="24" height="18" rx="4" fill="white"/>
<path d="M5.78789 8.86H6.87789V11.87H10.6179V8.86H11.7079V16H10.6179V12.8H6.87789V16H5.78789V8.86ZM13.1121 8.86H15.7121C16.8588 8.86 17.7321 9.18333 18.3321 9.83C18.8921 10.43 19.1721 11.2967 19.1721 12.43C19.1721 13.5433 18.8854 14.4133 18.3121 15.04C17.7121 15.68 16.8388 16 15.6921 16H13.1121V8.86ZM14.2021 9.79V15.07H15.4921C16.3988 15.07 17.0621 14.8533 17.4821 14.42C17.8954 13.9867 18.1021 13.3233 18.1021 12.43C18.1021 11.5233 17.8988 10.8567 17.4921 10.43C17.0721 10.0033 16.4121 9.79 15.5121 9.79H14.2021Z" fill="#121212"/>
</svg>
