<svg width="25" height="24" viewBox="0 0 25 24" fill="none" xmlns="http://www.w3.org/2000/svg">
<rect x="0.833008" y="3.5" width="23" height="17" rx="3.5" stroke="white"/>
<path d="M5.78691 8.86H6.87691V11.87H10.6169V8.86H11.7069V16H10.6169V12.8H6.87691V16H5.78691V8.86ZM13.1111 8.86H15.7111C16.8578 8.86 17.7311 9.18333 18.3311 9.83C18.8911 10.43 19.1711 11.2967 19.1711 12.43C19.1711 13.5433 18.8845 14.4133 18.3111 15.04C17.7111 15.68 16.8378 16 15.6911 16H13.1111V8.86ZM14.2011 9.79V15.07H15.4911C16.3978 15.07 17.0611 14.8533 17.4811 14.42C17.8945 13.9867 18.1011 13.3233 18.1011 12.43C18.1011 11.5233 17.8978 10.8567 17.4911 10.43C17.0711 10.0033 16.4111 9.79 15.5111 9.79H14.2011Z" fill="white"/>
</svg>
