<svg width="20" height="21" viewBox="0 0 20 21" fill="none" xmlns="http://www.w3.org/2000/svg">
<path fill-rule="evenodd" clip-rule="evenodd" d="M1 7.5C1 5.29086 2.79086 3.5 5 3.5H12C14.2091 3.5 16 5.29086 16 7.5V7.64286L17.4188 6.62946C18.0806 6.15669 19 6.62982 19 7.44319V13.5568C19 14.3702 18.0806 14.8433 17.4188 14.3705L16 13.3571V13.5C16 15.7091 14.2091 17.5 12 17.5H5C2.79086 17.5 1 15.7091 1 13.5V7.5ZM7.5 8.25C7.5 7.83579 7.16421 7.5 6.75 7.5C6.33579 7.5 6 7.83579 6 8.25V12.25C6 12.4419 6.07322 12.6339 6.21965 12.7803L6.22126 12.7819C6.2928 12.853 6.3751 12.9068 6.4629 12.9431C6.55067 12.9795 6.64686 12.9997 6.74772 13L6.75 13H6.75039H10.75C11.1642 13 11.5 12.6642 11.5 12.25C11.5 11.8358 11.1642 11.5 10.75 11.5H8.56075L10.7806 9.28035C11.0735 8.98747 11.0735 8.51259 10.7806 8.21969C10.4877 7.92678 10.0128 7.92677 9.71993 8.21965L7.5 10.4394V8.25Z" fill="black" fill-opacity="0.44"/>
</svg>
