<svg width="24" height="24" viewBox="0 0 24 24" fill="none" xmlns="http://www.w3.org/2000/svg">
<path d="M3.3835 18.9844C3.33507 19.275 3.49618 19.56 3.77016 19.6683C4.04415 19.7767 4.3566 19.6789 4.52003 19.4338C5.63656 17.759 6.63789 16.752 7.98284 16.1789C9.25207 15.6382 10.8999 15.4522 13.375 15.587V19.0871C13.375 19.3406 13.5281 19.569 13.7626 19.6653C13.9971 19.7616 14.2665 19.7067 14.4447 19.5263L21.4447 12.4392C21.6862 12.1947 21.685 11.8011 21.4419 11.5581L14.4419 4.55806C14.2632 4.37931 13.9944 4.32584 13.7608 4.42258C13.5273 4.51931 13.375 4.74721 13.375 5V9.41688C10.3337 9.65255 8.1151 10.231 6.52227 11.651C4.82783 13.1615 3.96145 15.5167 3.3835 18.9844Z" stroke="#121212" stroke-width="1.25" stroke-linecap="round" stroke-linejoin="round"/>
</svg>
