<svg width="18" height="18" viewBox="0 0 18 18" fill="none" xmlns="http://www.w3.org/2000/svg">
<path d="M17.478 10.1173C17.7241 10.1494 17.9509 9.97577 17.9711 9.72792C17.9904 9.48776 18.0001 9.24496 18.0001 8.99997C18.0001 8.75498 17.9904 8.51218 17.9711 8.27202C17.9509 8.02417 17.7241 7.85058 17.478 7.88266C17.231 7.91474 17.0588 8.14062 17.0772 8.38847C17.0922 8.59018 17.1001 8.79409 17.1001 8.99997C17.1001 9.20585 17.0922 9.40976 17.0772 9.61147C17.0588 9.85932 17.231 10.0852 17.478 10.1173Z" fill="white"/>
<path d="M17.0429 5.63377C17.1713 5.50897 17.2152 5.31495 17.1343 5.14378C16.9252 4.70301 16.6808 4.28202 16.4057 3.88453C16.3275 3.77115 16.2053 3.70963 16.0788 3.70304C15.9768 3.69755 15.8714 3.72765 15.7835 3.7951C15.5866 3.9465 15.5506 4.2284 15.6912 4.43363C15.9197 4.76827 16.1245 5.12093 16.302 5.48897C16.4101 5.71287 16.672 5.82251 16.9014 5.72737C16.9559 5.70474 17.0034 5.67266 17.0429 5.63377Z" fill="white"/>
<path d="M14.205 2.21615C14.3561 2.01906 14.3201 1.73561 14.1153 1.59411C13.7181 1.31901 13.2971 1.0749 12.8567 0.86572C12.6317 0.759153 12.3681 0.869016 12.2731 1.09863C12.1773 1.32824 12.2872 1.59038 12.5113 1.69826C12.7284 1.80307 12.9402 1.91711 13.1459 2.04015C13.2891 2.12541 13.4298 2.21506 13.5669 2.30888C13.7172 2.41171 13.9088 2.41984 14.0599 2.3392C14.1153 2.30976 14.1645 2.26867 14.205 2.21615Z" fill="white"/>
<path d="M10.1172 0.522288C10.1497 0.275756 9.97568 0.0487791 9.72783 0.0290038C9.48789 0.00988766 9.24532 0 9.0001 0C8.75489 0 8.51231 0.00988766 8.27237 0.0290038C8.02452 0.0487791 7.8505 0.275756 7.88302 0.522288C7.91466 0.768821 8.14053 0.941086 8.38838 0.922629C8.59053 0.907687 8.79444 0.899997 9.0001 0.899997C9.20576 0.899997 9.40967 0.907687 9.61182 0.922629C9.74541 0.932516 9.87285 0.887033 9.9669 0.804197C10.0469 0.733445 10.1022 0.635667 10.1172 0.522288Z" fill="white"/>
<path d="M5.72707 1.09863C5.63214 0.869016 5.36847 0.759153 5.14347 0.86572C4.70314 1.0749 4.28215 1.31901 3.88488 1.59411C3.7759 1.6697 3.71438 1.78571 3.70383 1.90744C3.69504 2.01379 3.72492 2.12431 3.79524 2.21615C3.94641 2.41325 4.22854 2.44906 4.43332 2.30888C4.76818 2.07992 5.12062 1.87558 5.48888 1.69826C5.713 1.59038 5.82287 1.32824 5.72707 1.09863Z" fill="white"/>
<path d="M1.35188 4.25675C0.975714 4.86297 0.671613 5.5138 0.448372 6.19605C0.0185882 7.50583 -0.104458 8.89692 0.0889005 10.2616C0.282259 11.6264 0.78675 12.9284 1.56282 14.0675C2.33889 15.2068 3.36633 16.1523 4.56516 16.8314C5.76486 17.5106 7.10431 17.9052 8.48067 17.985C9.85615 18.0645 11.2325 17.827 12.5025 17.2907C13.7717 16.7543 14.9011 15.9334 15.8037 14.8915C16.2537 14.3718 16.6413 13.8041 16.9594 13.2C17.0922 12.9484 16.9454 12.6459 16.6685 12.578C16.5613 12.5518 16.4523 12.5661 16.3583 12.612C16.2686 12.6555 16.1922 12.7276 16.1421 12.8203C16.0366 13.0179 15.9232 13.211 15.8011 13.3993C15.5971 13.7151 15.3713 14.0168 15.1234 14.3024C14.8773 14.5869 14.6119 14.8532 14.3298 15.0996C14.0635 15.332 13.7831 15.5467 13.4887 15.7425C13.0677 16.0226 12.6203 16.2637 12.1518 16.4616C11.0093 16.9444 9.7709 17.158 8.53253 17.0863C7.29415 17.0147 6.08829 16.6596 5.009 16.0483C3.92971 15.4371 3.0051 14.5861 2.30637 13.5608C1.60765 12.5356 1.15413 11.3638 0.980108 10.1355C0.806086 8.90703 0.916827 7.65525 1.30354 6.47642C1.45735 6.00686 1.65335 5.55379 1.88802 5.12269L1.98294 4.95394L2.09192 4.76981C2.20706 4.5826 2.18421 4.33959 2.02776 4.18578C1.89329 4.05394 1.70081 4.02384 1.54436 4.09086C1.4679 4.12337 1.40022 4.17897 1.35188 4.25675Z" fill="white"/>
</svg>
