<svg width="24" height="24" viewBox="0 0 24 24" fill="none" xmlns="http://www.w3.org/2000/svg">
<path fill-rule="evenodd" clip-rule="evenodd" d="M2 7C2 5.89543 2.89543 5 4 5H14C15.1046 5 16 5.89543 16 7V17C16 18.1046 15.1046 19 14 19H4C2.89543 19 2 18.1046 2 17V7ZM17 9L20.6286 7.54856C21.2855 7.28581 22 7.76957 22 8.47703V15.523C22 16.2304 21.2855 16.7142 20.6286 16.4514L17 15V9ZM6 15.625H12C12.3452 15.625 12.625 15.3452 12.625 15C12.625 14.6548 12.3452 14.375 12 14.375H7.50888L12.4419 9.44194C12.686 9.19786 12.686 8.80214 12.4419 8.55806C12.1979 8.31398 11.8021 8.31398 11.5581 8.55806L6.625 13.4911V9C6.625 8.65482 6.34518 8.375 6 8.375C5.65482 8.375 5.375 8.65482 5.375 9V15C5.375 15.1658 5.44085 15.3247 5.55806 15.4419C5.67527 15.5592 5.83424 15.625 6 15.625Z" fill="#121212" fill-opacity="0.28"/>
</svg>
