<svg width="28" height="28" viewBox="0 0 28 28" fill="none" xmlns="http://www.w3.org/2000/svg">
<rect width="28" height="28" rx="8" fill="#A356D7"/>
<path d="M9.625 14C9.625 13.2957 9.65834 12.6081 9.71821 11.9439C9.7396 11.7067 9.55449 11.5 9.31636 11.5H5.90966C5.73323 11.5 5.57668 11.6153 5.53179 11.786C5.34677 12.4893 5.25 13.2301 5.25 14C5.25 14.3041 5.2692 14.6018 5.29844 14.8977C5.31834 15.099 5.48964 15.25 5.69194 15.25H9.23752C9.46795 15.25 9.65035 15.0558 9.64121 14.8256C9.6304 14.5534 9.625 14.2794 9.625 14ZM10.875 14C10.875 14.296 10.8811 14.5859 10.8932 14.874C10.9021 15.0853 11.0775 15.25 11.289 15.25H16.7235C16.935 15.25 17.1104 15.0853 17.1193 14.874C17.1314 14.5859 17.1375 14.296 17.1375 14C17.1375 13.2579 17.1015 12.5428 17.0449 11.8623C17.0277 11.6567 16.855 11.5 16.6488 11.5H11.3637C11.1575 11.5 10.9848 11.6567 10.9676 11.8623C10.911 12.5428 10.875 13.2579 10.875 14ZM22.4682 11.786C22.4233 11.6153 22.2668 11.5 22.0903 11.5H18.6836C18.4455 11.5 18.2604 11.7067 18.2818 11.9439C18.3417 12.6081 18.375 13.2957 18.375 14C18.375 14.2794 18.3696 14.5534 18.3588 14.8256C18.3497 15.0558 18.532 15.25 18.7625 15.25H22.3185C22.5163 15.25 22.6855 15.1055 22.7059 14.9088C22.7369 14.6093 22.75 14.3079 22.75 14C22.75 13.2301 22.6532 12.4893 22.4682 11.786ZM16.3515 10.25C16.5991 10.25 16.7875 10.0267 16.7397 9.78374C16.2093 7.08621 15.183 5.25 14 5.25C12.817 5.25 11.7907 7.08621 11.2603 9.78374C11.2125 10.0267 11.4009 10.25 11.6485 10.25H16.3515ZM21.2796 10.25C21.5734 10.25 21.7654 9.94423 21.6203 9.68867C20.6705 8.01515 19.1821 6.68085 17.3958 5.93229C17.0519 5.78818 16.7458 6.18605 16.9112 6.52021C17.3746 7.45629 17.7489 8.61098 18.0017 9.91909C18.0386 10.11 18.2044 10.25 18.3988 10.25H21.2796ZM11.1021 6.51816C11.2676 6.18435 10.9621 5.78655 10.6183 5.92999C8.82521 6.67786 7.34079 8.01254 6.3833 9.68699C6.23705 9.94276 6.42894 10.25 6.72357 10.25H9.60328C9.79677 10.25 9.96206 10.1113 9.99982 9.92153C10.2605 8.61146 10.6374 7.45519 11.1021 6.51816ZM6.14788 16.5C5.8806 16.5 5.68861 16.7573 5.78007 17.0085C6.61273 19.2946 8.37259 21.1305 10.6093 22.0656C10.9542 22.2097 11.2621 21.8089 11.0967 21.4738C10.4952 20.2545 10.0466 18.6588 9.80655 16.8537C9.77978 16.6524 9.60933 16.5 9.40628 16.5H6.14788ZM11.4452 16.5C11.2074 16.5 11.0218 16.7069 11.0521 16.9427C11.4861 20.326 12.6339 22.75 14 22.75C15.3661 22.75 16.5139 20.326 16.9479 16.9427C16.9782 16.7069 16.7926 16.5 16.5548 16.5H11.4452ZM16.9043 21.4743C16.7384 21.8092 17.0458 22.2097 17.3907 22.0656C19.6274 21.1305 21.3873 19.2946 22.2199 17.0085C22.3114 16.7573 22.1194 16.5 21.8521 16.5H18.5955C18.3917 16.5 18.2209 16.6536 18.1948 16.8557C17.9622 18.6603 17.5084 20.2555 16.9043 21.4743Z" fill="white"/>
</svg>
