<svg width="20" height="20" viewBox="0 0 20 20" fill="none" xmlns="http://www.w3.org/2000/svg">
    <path opacity="0.9"
        d="M9.29456 16.7654C9.28445 16.7576 9.26029 16.7396 9.22343 16.7122C8.63982 16.2781 4.87317 13.4765 3.31082 11.1729L3.29295 11.1467C2.74417 10.3422 2 9.2513 2 7.71046C2 5.11126 4.07129 3 6.60288 3C7.64431 3 8.64667 3.36037 9.45754 4.0072C9.45346 4.01174 9.44939 4.01629 9.44533 4.02084L10.005 4.52011L10.5594 4.015C10.5556 4.01087 10.5519 4.00674 10.5481 4.00262C11.3513 3.35389 12.3482 3 13.3971 3C15.9387 3 18 5.11126 18 7.71046C18 9.23995 17.2896 10.2909 16.7092 11.1448M9.29456 16.7654C9.50469 16.9249 9.74484 17 10.005 17C10.2652 17 10.5053 16.9155 10.7054 16.7654C10.8755 16.6434 15.0281 13.622 16.6892 11.1729L16.7092 11.1448M9.29456 16.7654L9.74804 16.168C9.74834 16.1683 9.74864 16.1685 9.74894 16.1687M9.29456 16.7654L9.75297 16.1718C9.75176 16.1709 9.75041 16.1698 9.74894 16.1687M16.7092 11.1448L16.0979 10.7102L16.0933 10.7167M16.7092 11.1448L16.0889 10.7232C16.0904 10.721 16.0919 10.7188 16.0933 10.7167M16.0933 10.7167L16.0779 10.7384L16.0731 10.7451L16.0685 10.7519C15.2994 11.8858 13.9145 13.1979 12.6525 14.2703C11.4056 15.3299 10.3423 16.1029 10.2684 16.1559L10.2618 16.1606L10.2554 16.1655C10.1807 16.2215 10.0974 16.25 10.005 16.25C9.89862 16.25 9.82031 16.2226 9.74894 16.1687M16.0933 10.7167C16.6728 9.86393 17.25 8.9848 17.25 7.71046C17.25 5.50886 15.5081 3.75 13.3971 3.75C12.3096 3.75 11.2926 4.20335 10.5647 5.01937L10.0109 5.64018L9.4506 5.02522C8.70853 4.21072 7.67731 3.75 6.60288 3.75C4.50088 3.75 2.75 5.50993 2.75 7.71046C2.75 9.01206 3.37491 9.93577 3.93044 10.7503L3.93153 10.7519C4.70037 11.8855 6.08494 13.1951 7.34715 14.2665C8.43538 15.1903 9.37457 15.8897 9.66714 16.1075C9.70654 16.1369 9.73421 16.1575 9.74894 16.1687"
        stroke="black" stroke-width="1.2" />
</svg>
