<svg width="40" height="40" viewBox="0 0 40 40" fill="none" xmlns="http://www.w3.org/2000/svg">
<g opacity="0.9" filter="url(#filter0_d_478_16077)">
<path d="M20.01 35C19.4897 35 19.0094 34.8391 18.5891 34.4973C18.2489 34.2158 9.94372 27.7614 6.62164 22.5134C5.52095 20.7842 4 18.4316 4 15.0938C4 9.52413 8.14259 5 13.2058 5C15.7874 5 18.2489 6.18633 20.01 8.25737C21.7511 6.16622 24.1926 5 26.7942 5C31.8774 5 36 9.52413 36 15.0938C36 18.3713 34.5791 20.6233 33.4184 22.4531L33.3784 22.5134C30.0563 27.7614 21.7511 34.2359 21.4109 34.4973C21.0106 34.819 20.5303 35 20.01 35Z" fill="#EB4B35"/>
</g>
<defs>
<filter id="filter0_d_478_16077" x="0" y="1" width="40" height="38" filterUnits="userSpaceOnUse" color-interpolation-filters="sRGB">
<feFlood flood-opacity="0" result="BackgroundImageFix"/>
<feColorMatrix in="SourceAlpha" type="matrix" values="0 0 0 0 0 0 0 0 0 0 0 0 0 0 0 0 0 0 127 0" result="hardAlpha"/>
<feOffset/>
<feGaussianBlur stdDeviation="2"/>
<feComposite in2="hardAlpha" operator="out"/>
<feColorMatrix type="matrix" values="0 0 0 0 0 0 0 0 0 0 0 0 0 0 0 0 0 0 0.16 0"/>
<feBlend mode="normal" in2="BackgroundImageFix" result="effect1_dropShadow_478_16077"/>
<feBlend mode="normal" in="SourceGraphic" in2="effect1_dropShadow_478_16077" result="shape"/>
</filter>
</defs>
</svg>
