<svg width="16" height="16" viewBox="0 0 16 16" fill="none" xmlns="http://www.w3.org/2000/svg">
<path d="M2.23103 4.3999C1.87529 4.3999 1.7142 4.62643 1.66051 4.89294C1.61352 5.09949 1.6001 5.42596 1.6001 5.81906C1.6001 9.04381 2.90225 10.4297 6.08378 10.4297H10.7755L12.42 10.3364L10.158 12.3818L8.66791 13.8876C8.56052 14.0009 8.50685 14.1541 8.50685 14.314C8.50685 14.6471 8.7619 14.887 9.09749 14.887C9.25191 14.887 9.39957 14.827 9.54722 14.6872L13.9906 10.2831C14.1316 10.1498 14.1987 9.99658 14.1987 9.83001C14.1987 9.6701 14.1316 9.5102 13.9906 9.3836L9.53382 4.95957C9.39957 4.83298 9.25191 4.77968 9.09749 4.77968C8.7619 4.77968 8.50685 5.01953 8.50685 5.35267C8.50685 5.51257 8.56728 5.66582 8.66791 5.77242L10.158 7.27819L12.4267 9.33697L10.7755 9.23703H6.14419C3.68085 9.23703 2.81499 8.23096 2.81499 5.75909C2.81499 5.43928 2.83512 5.22608 2.83512 4.98622C2.83512 4.63976 2.58007 4.3999 2.23103 4.3999Z" fill="#007AFF"/>
</svg>
