<svg width="28" height="28" viewBox="0 0 28 28" fill="none" xmlns="http://www.w3.org/2000/svg">
<rect width="28" height="28" rx="8" fill="#F19937"/>
<path d="M13.7316 9.81606V8.30021H8.79435C6.62886 8.30021 6.58555 10.0326 6.58555 11.1154V17.6985H5.02631C4.92526 18.2326 5.06096 19.3009 6.41223 19.3009H13.7316V17.6985H8.05801V11.1154C8.05801 10.6823 8.10132 9.81606 9.70378 9.81606H13.7316Z" fill="white"/>
<path fill-rule="evenodd" clip-rule="evenodd" d="M16.0704 6.78436H20.9644C22.5236 6.78436 23 8.17028 23 8.86324V18.8678C23 19.7773 22.1771 20.9034 20.9644 20.9034H16.9799C15.594 20.9034 14.4679 19.734 14.4679 18.8678V8.86324C14.4679 7.52063 15.3775 6.78436 16.0704 6.78436ZM15.8972 9.1231V18.7379C15.9549 18.9256 16.209 19.3009 16.7634 19.3009H19.5785C20.9211 19.3009 21.5708 19.3009 21.5708 18.8678V9.1231C21.5708 8.60338 21.4408 8.38683 20.9644 8.38683C20.488 8.38683 20.3148 8.51676 20.2282 9.1231C20.1505 9.66656 19.4466 9.65333 18.9896 9.64474C18.9367 9.64375 18.8872 9.64282 18.8422 9.64282C18.798 9.64282 18.7483 9.64372 18.6946 9.6447C18.223 9.65328 17.4431 9.66748 17.3264 9.1231C17.1965 8.51676 16.9799 8.30021 16.7634 8.30021C16.5468 8.30021 15.8972 8.30021 15.8972 9.1231Z" fill="white"/>
</svg>
