<svg width="60" height="60" viewBox="0 0 60 60" fill="none" xmlns="http://www.w3.org/2000/svg">
<rect width="60" height="60" rx="30" fill="#121212" fill-opacity="0.08"/>
<path d="M22.6667 28.1667V20.375C22.6667 16.578 25.7447 13.5 29.5417 13.5C33.3387 13.5 36.4167 16.578 36.4167 20.375V28.1667M19.9167 46.5H39.1667C41.1918 46.5 42.8333 44.8584 42.8333 42.8333V31.8333C42.8333 29.8082 41.1918 28.1667 39.1667 28.1667H19.9167C17.8916 28.1667 16.25 29.8082 16.25 31.8333V42.8333C16.25 44.8584 17.8916 46.5 19.9167 46.5ZM33.6667 37.3333C33.6667 39.3584 32.0251 41 30 41C27.9749 41 26.3333 39.3584 26.3333 37.3333C26.3333 35.3082 27.9749 33.6667 30 33.6667C32.0251 33.6667 33.6667 35.3082 33.6667 37.3333Z" stroke="#121212" stroke-width="2" stroke-linecap="round"/>
</svg>
