<svg width="24" height="24" viewBox="0 0 24 24" fill="none" xmlns="http://www.w3.org/2000/svg">
<path d="M6.25 11.0001H6.75V10.5001V7.75C6.75 4.8505 9.10051 2.5 12 2.5C14.8995 2.5 17.25 4.85051 17.25 7.75V10.5001V11.0001H17.75H18C18.8284 11.0001 19.5 11.6716 19.5 12.5001V20.6519C19.5 21.4804 18.8284 22.1519 18 22.1519H6C5.17157 22.1519 4.5 21.4804 4.5 20.6519V12.5001C4.5 11.6716 5.17157 11.0001 6 11.0001H6.25ZM16.25 11.0001H16.75V10.5001V7.75C16.75 5.12665 14.6234 3 12 3C9.37665 3 7.25 5.12665 7.25 7.75V10.5001V11.0001H7.75H16.25Z" fill="#FEFEFE" stroke="#FCFCFC"/>
</svg>
