<svg width="28" height="28" viewBox="0 0 28 28" fill="none" xmlns="http://www.w3.org/2000/svg">
<rect width="28" height="28" rx="8" fill="#EB4E3D"/>
<path d="M22.5685 14.1911L18.8034 10.426C18.5882 10.2108 18.2202 10.3632 18.2202 10.6676V12.9318H12.0488C11.4859 12.9318 11.0295 13.5675 11.0295 14.3515C11.0295 15.1355 11.4859 15.7711 12.0488 15.7711H18.2202V18.1979C18.2202 18.5022 18.5882 18.6547 18.8034 18.4394L22.5685 14.6743C22.702 14.5409 22.702 14.3246 22.5685 14.1911Z" fill="white"/>
<path d="M14.7003 19.6117H7.57605L7.57933 8.38832H14.7003V12.3165H16.945V8.3883C16.945 7.15061 15.938 6.14362 14.7003 6.14362H7.57605C6.33835 6.14362 5.33136 7.15061 5.33136 8.3883V19.6117C5.33136 20.8494 6.33835 21.8564 7.57605 21.8564H14.7003C15.938 21.8564 16.945 20.8494 16.945 19.6117V16.3864H14.7003V19.6117ZM7.57577 8.3883L7.57605 7.26596V8.3883H7.57577Z" fill="white"/>
</svg>
