<svg width="20" height="20" viewBox="0 0 20 20" fill="none" xmlns="http://www.w3.org/2000/svg">
<g id="Minimise">
<path id="Rectangle 346241227" d="M15.8333 7.08333V4C15.8333 3.17157 15.1618 2.5 14.3333 2.5H4C3.17157 2.5 2.5 3.17157 2.5 4V14.3333C2.5 15.1618 3.17157 15.8333 4 15.8333H7.08333" stroke="white" stroke-width="1.5"/>
<rect id="Rectangle 346241228" x="8" y="8" width="10" height="10" rx="1.5" fill="white"/>
<g id="Group 2">
<path id="Rectangle 346241231" d="M4.37116 4.73513C4.31623 4.51542 4.51523 4.31641 4.73494 4.37131L7.06923 4.95465C7.29547 5.01119 7.37353 5.29294 7.20863 5.45784L5.45789 7.20857C5.293 7.37346 5.01128 7.29543 4.95472 7.06921L4.37116 4.73513Z" fill="white"/>
<path id="Line 42" d="M7.57983 7.58314L5.91642 5.91647" stroke="white" stroke-linecap="round"/>
</g>
</g>
</svg>
