<svg width="24" height="24" viewBox="0 0 24 24" fill="none" xmlns="http://www.w3.org/2000/svg">
<path d="M12 10.5C13.933 10.5 15.5 8.933 15.5 7C15.5 5.067 13.933 3.5 12 3.5C10.067 3.5 8.5 5.067 8.5 7C8.5 8.933 10.067 10.5 12 10.5Z" stroke="black" stroke-width="1.5"/>
<path d="M20.4827 19.4977C20.5915 19.9621 20.1807 20.5 19.4388 20.5H19.4287H19.4185H19.4084H19.3982H19.388H19.3778H19.3676H19.3574H19.347H19.3367H19.3264H19.316H19.3057H19.2953H19.2849H19.2744H19.264H19.2534H19.2429H19.2324H19.2219H19.2113H19.2007H19.1901H19.1795H19.1689H19.1582H19.1474H19.1367H19.126H19.1152H19.1044H19.0937H19.0828H19.072H19.0611H19.0503H19.0394H19.0284H19.0174H19.0064H18.9954H18.9844H18.9734H18.9623H18.9513H18.9402H18.9291H18.9179H18.9068H18.8956H18.8844H18.8732H18.8619H18.8507H18.8394H18.8281H18.8168H18.8053H18.794H18.7826H18.7712H18.7598H18.7483H18.7369H18.7254H18.7139H18.7023H18.6908H18.6792H18.6676H18.656H18.6444H18.6327H18.6211H18.6094H18.5977H18.5859H18.5742H18.5624H18.5506H18.5388H18.527H18.5151H18.5033H18.4914H18.4795H18.4675H18.4556H18.4436H18.4316H18.4196H18.4076H18.3955H18.3835H18.3714H18.3593H18.3472H18.335H18.3228H18.3108H18.2986H18.2863H18.2741H18.2618H18.2495H18.2372H18.2249H18.2126H18.2002H18.1878H18.1754H18.163H18.1506H18.1381H18.1257H18.1132H18.1007H18.0881H18.0756H18.0631H18.0505H18.0379H18.0253H18.0126H18H17.9873H17.9746H17.9619H17.9491H17.9364H17.9236H17.9108H17.8981H17.8853H17.8724H17.8596H17.8467H17.8338H17.8209H17.8079H17.795H17.782H17.7691H17.7561H17.743H17.73H17.7169H17.7038H17.6907H17.6776H17.6645H17.6514H17.6382H17.625H17.6118H17.5986H17.5853H17.5721H17.5588H17.5456H17.5323H17.5189H17.5056H17.4922H17.4788H17.4654H17.452H17.4387H17.4252H17.4117H17.3982H17.3847H17.3712H17.3576H17.3442H17.3306H17.317H17.3034H17.2897H17.2761H17.2625H17.2488H17.2351H17.2214H17.2077H17.1939H17.1803H17.1665H17.1527H17.1388H17.125H17.1112H17.0974H17.0835H17.0696H17.0557H17.0417H17.0279H17.0139H16.9999H16.9859H16.9719H16.9579H16.9439H16.9298H16.9157H16.9016H16.8875H16.8735H16.8593H16.8452H16.831H16.8168H16.8027H16.7884H16.7742H16.7599H16.7456H16.7314H16.7171H16.7028H16.6884H16.6742H16.6598H16.6454H16.631H16.6166H16.6022H16.5878H16.5733H16.5588H16.5444H16.5299H16.5154H16.5008H16.4863H16.4718H16.4572H16.4425H16.4279H16.4134H16.3987H16.384H16.3693H16.3547H16.34H16.3253H16.3105H16.2959H16.2811H16.2663H16.2515H16.2367H16.2219H16.207H16.1922H16.1774H16.1625H16.1476H16.1327H16.1178H16.1028H16.0878H16.073H16.0579H16.0429H16.0279H16.0129H15.9979H15.9828H15.9678H15.9527H15.9376H15.9224H15.9074H15.8922H15.877H15.8619H15.8467H15.8315H15.8163H15.8011H15.7858H15.7706H15.7554H15.7401H15.7247H15.7095H15.6941H15.6788H15.6634H15.6481H15.6327H15.6173H15.6019H15.5865H15.571H15.5556H15.5402H15.5247H15.5092H15.4937H15.4782H15.4626H15.4471H15.4315H15.4159H15.4004H15.3848H15.3692H15.3536H15.3379H15.3223H15.3067H15.291H15.2752H15.2596H15.2439H15.2281H15.2124H15.1966H15.1808H15.1651H15.1493H15.1335H15.1177H15.1018H15.086H15.0702H15.0543H15.0384H15.0225H15.0066H14.9907H14.9748H14.9588H14.9429H14.9269H14.9109H14.8949H14.8789H14.8628H14.8469H14.8308H14.8148H14.7987H14.7826H14.7665H14.7504H14.7342H14.7182H14.702H14.6858H14.6697H14.6535H14.6373H14.6211H14.6048H14.5887H14.5724H14.5561H14.5399H14.5236H14.5074H14.491H14.4747H14.4584H14.4421H14.4258H14.4094H14.393H14.3766H14.3602H14.3439H14.3274H14.311H14.2946H14.2781H14.2617H14.2452H14.2287H14.2122H14.1957H14.1792H14.1626H14.1461H14.1296H14.113H14.0965H14.0798H14.0632H14.0467H14.03H14.0134H13.9967H13.9801H13.9634H13.9467H13.9301H13.9134H13.8967H13.88H13.8632H13.8465H13.8297H13.813H13.7962H13.7794H13.7627H13.7458H13.7291H13.7122H13.6954H13.6786H13.6617H13.6449H13.6279H13.6111H13.5942H13.5773H13.5604H13.5435H13.5265H13.5095H13.4926H13.4756H13.4587H13.4417H13.4248H13.4077H13.3907H13.3737H13.3566H13.3396H13.3225H13.3055H13.2884H13.2714H13.2542H13.2372H13.22H13.2029H13.1858H13.1686H13.1515H13.1343H13.1172H13.1H13.0828H13.0656H13.0484H13.0312H13.014H12.9967H12.9794H12.9622H12.9449H12.9277H12.9104H12.8931H12.8758H12.8585H12.8412H12.8239H12.8065H12.7892H12.7718H12.7545H12.7371H12.7198H12.7023H12.6849H12.6675H12.6501H12.6327H12.6153H12.5978H12.5804H12.5629H12.5455H12.528H12.5105H12.493H12.4755H12.458H12.4405H12.423H12.4055H12.3879H12.3704H12.3528H12.3352H12.3177H12.3001H12.2825H12.2649H12.2473H12.2297H12.2121H12.1944H12.1768H12.1591H12.1415H12.1238H12.1062H12.0885H12.0708H12.0531H12.0354H12.0177H12H11.9823H11.9646H11.9469H11.9292H11.9115H11.8938H11.8761H11.8585H11.8408H11.8232H11.8055H11.7879H11.7703H11.7527H11.7351H11.7175H11.6999H11.6823H11.6647H11.6472H11.6296H11.6121H11.5945H11.577H11.5595H11.5419H11.5244H11.5069H11.4895H11.472H11.4545H11.437H11.4196H11.4021H11.3847H11.3673H11.3498H11.3324H11.315H11.2976H11.2802H11.2629H11.2455H11.2281H11.2108H11.1934H11.1761H11.1588H11.1415H11.1242H11.1069H11.0896H11.0723H11.055H11.0378H11.0205H11.0033H10.986H10.9688H10.9516H10.9344H10.9172H10.9H10.8828H10.8656H10.8485H10.8313H10.8142H10.7971H10.7799H10.7628H10.7457H10.7286H10.7116H10.6945H10.6774H10.6604H10.6433H10.6263H10.6093H10.5923H10.5753H10.5583H10.5413H10.5243H10.5073H10.4904H10.4734H10.4565H10.4396H10.4227H10.4058H10.3889H10.372H10.3551H10.3383H10.3214H10.3046H10.2877H10.2709H10.2541H10.2373H10.2205H10.2037H10.187H10.1702H10.1535H10.1367H10.12H10.1033H10.0866H10.0699H10.0532H10.0365H10.0199H10.0032H9.98658H9.96995H9.95334H9.93674H9.92014H9.90356H9.88698H9.87042H9.85387H9.83733H9.8208H9.80429H9.78778H9.77128H9.7548H9.73833H9.72187H9.70542H9.68898H9.67256H9.65614H9.63974H9.62335H9.60697H9.5906H9.57424H9.55789H9.54156H9.52524H9.50893H9.49263H9.47635H9.46007H9.44381H9.42756H9.41132H9.39509H9.37887H9.36267H9.34648H9.3303H9.31413H9.29798H9.28184H9.26571H9.24958H9.23348H9.21739H9.2013H9.18523H9.16918H9.15313H9.1371H9.12108H9.10507H9.08908H9.07309H9.05713H9.04116H9.02522H9.00928H8.99337H8.97746H8.96157H8.94568H8.92982H8.91396H8.89812H8.88228H8.86647H8.85066H8.83488H8.81909H8.80332H8.78758H8.77183H8.75611H8.7404H8.72469H8.70901H8.69333H8.67767H8.66202H8.64639H8.63077H8.61516H8.59957H8.58399H8.56842H8.55286H8.53732H8.5218H8.50628H8.49078H8.47529H8.45982H8.44436H8.42891H8.41349H8.39807H8.38266H8.36727H8.35189H8.33653H8.32118H8.30584H8.29052H8.27521H8.25992H8.24464H8.22938H8.21413H8.19889H8.18367H8.16846H8.15326H8.13808H8.12291H8.10776H8.09262H8.0775H8.06239H8.0473H8.03222H8.01714H8.00209H7.98706H7.97204H7.95702H7.94203H7.92706H7.91209H7.89714H7.88221H7.86729H7.85238H7.83749H7.82262H7.80775H7.79291H7.77807H7.76326H7.74846H7.73367H7.7189H7.70414H7.6894H7.67467H7.65996H7.64526H7.63059H7.61592H7.60127H7.58663H7.57202H7.55741H7.54281H7.52825H7.51368H7.49914H7.48462H7.4701H7.4556H7.44113H7.42666H7.4122H7.39778H7.38336H7.36895H7.35456H7.34019H7.32584H7.3115H7.29717H7.28286H7.26857H7.25429H7.24004H7.22579H7.21156H7.19735H7.18315H7.16897H7.1548H7.14065H7.12652H7.1124H7.0983H7.08422H7.07015H7.0561H7.04207H7.02805H7.01405H7.00006H6.98609H6.97214H6.9582H6.94428H6.93038H6.91649H6.90262H6.88877H6.87494H6.86111H6.84731H6.83352H6.81976H6.806H6.79226H6.77855H6.76484H6.75116H6.73749H6.72384H6.71021H6.69658H6.68299H6.6694H6.65584H6.64228H6.62876H6.61524H6.60175H6.58826H6.5748H6.56135H6.54793H6.53452H6.52112H6.50775H6.49439H6.48104H6.46773H6.45442H6.44113H6.42786H6.41461H6.40137H6.38815H6.37496H6.36177H6.34861H6.33546H6.32233H6.30922H6.29612H6.28306H6.27H6.25696H6.24394H6.23093H6.21795H6.20498H6.19203H6.1791H6.16619H6.1533H6.14042H6.12756H6.11472H6.10189H6.08909H6.07631H6.06354H6.0508H6.03807H6.02536H6.01266H5.99999H5.98734H5.9747H5.96208H5.94948H5.93691H5.92434H5.9118H5.89928H5.88677H5.87428H5.86181H5.84936H5.83694H5.82452H5.81213H5.79976H5.78741H5.77507H5.76276H5.75046H5.73818H5.72592H5.71368H5.70146H5.68926H5.67707H5.66492H5.65277H5.64065H5.62855H5.61646H5.60439H5.59234H5.58033H5.56832H5.55633H5.54436H5.53241H5.52048H5.50858H5.49669H5.48482H5.47297H5.46114H5.44933H5.43754H5.42577H5.41402H5.40229H5.39058H5.37889H5.36722H5.35557H5.34393H5.33232H5.32073H5.30917H5.29762H5.28609H5.27457H5.26309H5.25162H5.24018H5.22874H5.21734H5.20595H5.19458H5.18324H5.17191H5.1606H5.14932H5.13805H5.12681H5.11559H5.10439H5.0932H5.08205H5.0709H5.05979H5.04869H5.03761H5.02655H5.01551H5.00451H4.99351H4.98253H4.97159H4.96065H4.94974H4.93886H4.92799H4.91714H4.90632H4.89551H4.88474H4.87397H4.86323H4.85251H4.84181H4.83114H4.82048H4.80985H4.79924H4.78865H4.77808H4.76753H4.75701H4.7465H4.73602H4.72556H4.71512H4.70471H4.6943H4.68393H4.67358H4.66325H4.65294H4.64265H4.63239H4.62215H4.61193H4.60173H4.59156H4.5814H4.57127H4.56115C3.81932 20.5 3.40854 19.9621 3.5173 19.4977C4.34761 15.9515 7.78821 13.5 12 13.5C16.2118 13.5 19.6524 15.9515 20.4827 19.4977Z" stroke="black" stroke-width="1.5"/>
</svg>
