<svg width="24" height="24" viewBox="0 0 24 24" fill="none" xmlns="http://www.w3.org/2000/svg">
<path d="M15.0067 17.8065C14.8749 17.94 14.6958 18.016 14.5082 18.0179V18.0195C14.3238 18.0162 14.1468 17.9464 14.0097 17.823C13.8788 17.6901 13.8055 17.5111 13.8055 17.3245C13.8055 17.138 13.8788 16.9589 14.0097 16.826C14.6739 16.1314 14.6739 15.0446 14.0097 14.3805C13.8775 14.2482 13.8032 14.0689 13.8032 13.8819C13.8032 13.6949 13.8775 13.5156 14.0097 13.3834C14.1419 13.2512 14.3212 13.1769 14.5082 13.1769C14.6952 13.1769 14.8745 13.2512 15.0067 13.3834C16.2304 14.591 16.2304 16.5828 15.0067 17.8065Z" fill="black"/>
<path d="M20.3052 22.0937C20.1735 22.2271 19.9943 22.3031 19.8067 22.3049L19.8065 22.3067C19.7118 22.3078 19.6181 22.2882 19.5319 22.249C19.4458 22.2098 19.3693 22.1521 19.3079 22.0801C19.1771 21.9471 19.1037 21.7681 19.1037 21.5815C19.1037 21.395 19.1771 21.2159 19.3079 21.083C22.3422 18.0637 22.3422 13.1124 19.3079 10.0781C19.1757 9.9459 19.1014 9.76657 19.1014 9.57958C19.1014 9.3926 19.1757 9.21327 19.3079 9.08105C19.4402 8.94883 19.6195 8.87455 19.8065 8.87455C19.9935 8.87455 20.1728 8.94883 20.305 9.08105C23.8983 12.6739 23.8983 18.5008 20.3052 22.0937Z" fill="black"/>
<path d="M2.1301 23.587C2.02382 23.8442 1.76753 23.9949 1.4956 23.9949L1.49379 23.9999C1.39534 24.0023 1.29913 23.9703 1.22186 23.9092C0.874701 23.7438 0.708599 23.3205 0.874701 22.9733L1.82644 20.875C2.00779 20.4638 2.3066 20.1154 2.68534 19.8734C3.06408 19.6315 3.50586 19.507 3.95518 19.5153C4.25255 19.519 4.56649 19.5235 4.88233 19.528C5.88106 19.5424 6.89886 19.557 7.47233 19.5455C7.65361 19.5455 7.91013 19.5004 8.04609 19.3495C8.18183 19.1834 8.18183 18.957 8.16665 18.8362C8.076 17.9141 8.46894 17.4158 8.7105 17.114C8.7504 17.0725 8.7858 17.027 8.8161 16.978L7.12539 15.9062C6.74764 15.6798 6.53622 15.242 6.58154 14.8042C6.62686 14.3512 6.91352 13.9891 7.33636 13.823L9.70643 12.9166L9.46487 11.6335C9.37423 11.104 9.4796 10.5757 9.79685 10.1379C9.94602 9.9219 10.1384 9.73921 10.3619 9.60143C10.5854 9.46366 10.835 9.3738 11.0951 9.33757L12.1375 9.18688L9.6167 5.05087C9.04261 4.08912 8.81847 2.95855 8.9822 1.85052L9.16348 0.597613C9.22399 0.219861 9.58565 -0.0520655 9.96363 0.0084382C10.3416 0.0689419 10.6131 0.431284 10.5528 0.808583L10.3715 2.06149C10.2664 2.84667 10.4168 3.66132 10.8247 4.34114L13.4824 8.85286C13.5787 9.01649 13.6332 9.20133 13.6411 9.39104C13.649 9.58075 13.6101 9.76949 13.5277 9.94057C13.4448 10.1113 13.3219 10.2595 13.1695 10.3725C13.017 10.4855 12.8395 10.5601 12.6521 10.5898L11.3085 10.786C11.1632 10.8126 11.0335 10.8937 10.946 11.0126C10.8553 11.1187 10.8252 11.2694 10.8553 11.4205L11.1272 12.8545C11.1778 13.1221 11.1386 13.3989 11.0156 13.6419C10.8927 13.8849 10.693 14.0805 10.4474 14.1983C10.4296 14.1983 10.4171 14.2034 10.4068 14.2076C10.3995 14.2106 10.3932 14.2132 10.3869 14.2132L8.2736 15.0134L9.67856 15.9039C9.68606 15.9113 9.69722 15.9188 9.70842 15.9262C9.71988 15.9339 9.73138 15.9416 9.73906 15.9492C10.1617 16.2964 10.3579 16.8248 10.222 17.3077C10.1313 17.625 9.96499 17.8516 9.81407 18.0329C9.61783 18.2744 9.52719 18.3952 9.55732 18.7424C9.61783 19.3612 9.45218 19.9196 9.08961 20.3275C8.81768 20.6141 8.33479 20.9765 7.48932 20.9917C6.89709 21.0031 5.87522 20.9887 4.87104 20.9744C4.54424 20.9698 4.21931 20.9652 3.91167 20.9615C3.5491 20.9615 3.23185 21.1578 3.08184 21.4886L2.1301 23.587Z" fill="black"/>
<path d="M17.6639 19.9802C17.5322 20.1138 17.3529 20.1898 17.1654 20.1916V20.1941C16.9687 20.1941 16.8028 20.1339 16.6668 19.9827C16.536 19.8498 16.4626 19.6707 16.4626 19.4842C16.4626 19.2976 16.536 19.1186 16.6668 18.9856C18.5236 17.1137 18.5236 14.0644 16.6668 12.2076C16.5346 12.0754 16.4603 11.8961 16.4603 11.7091C16.4603 11.5221 16.5346 11.3428 16.6668 11.2106C16.799 11.0784 16.9784 11.0041 17.1654 11.0041C17.3523 11.0041 17.5317 11.0784 17.6639 11.2106C20.0942 13.6251 20.0942 17.5499 17.6639 19.9802Z" fill="black"/>
</svg>
