<svg width="24" height="24" viewBox="0 0 24 24" fill="none" xmlns="http://www.w3.org/2000/svg">
<path fill-rule="evenodd" clip-rule="evenodd" d="M17.0496 7.26034C17.3314 6.95681 17.3139 6.48226 17.0103 6.20041C16.7068 5.91856 16.2323 5.93613 15.9504 6.23966L6.72999 16.1693L2.78033 12.2197C2.48744 11.9268 2.01256 11.9268 1.71967 12.2197C1.42678 12.5126 1.42678 12.9874 1.71967 13.2803L6.21967 17.7803C6.36373 17.9244 6.56019 18.0036 6.76388 17.9999C6.96757 17.9961 7.16097 17.9096 7.2996 17.7603L17.0496 7.26034ZM22.2996 7.26034C22.5814 6.95681 22.5639 6.48226 22.2603 6.20041C21.9568 5.91856 21.4823 5.93613 21.2004 6.23966L11.4504 16.7397C11.1686 17.0432 11.1861 17.5177 11.4897 17.7996C11.7932 18.0815 12.2677 18.0639 12.5496 17.7603L22.2996 7.26034Z" fill="black"/>
</svg>
