<svg width="24" height="24" viewBox="0 0 24 24" fill="none" xmlns="http://www.w3.org/2000/svg">
<path fill-rule="evenodd" clip-rule="evenodd" d="M20.2499 4.20616C20.4452 4.40142 20.7033 4.75294 20.2499 5.20618C19.7966 5.65941 19.7495 5.70611 19.2499 5.20609C19.175 5.13106 19.1089 5.0697 19.0526 5.01755C18.7345 4.72232 18.7343 4.72213 19.2495 4.20612C19.5595 3.89596 20.0128 3.96903 20.2499 4.20616ZM4 6.70605C4 5.73956 4.7835 4.95605 5.75 4.95605H14.75C15.1642 4.95605 15.5 5.29184 15.5 5.70605C15.5 6.12027 15.1642 6.45605 14.75 6.45605H5.75C5.61193 6.45605 5.5 6.56798 5.5 6.70605V18.7061C5.5 18.8441 5.61193 18.9561 5.75 18.9561H17.75C17.8881 18.9561 18 18.8441 18 18.7061V9.70605C18 9.29184 18.3358 8.95605 18.75 8.95605C19.1642 8.95605 19.5 9.29184 19.5 9.70605V18.7061C19.5 19.6726 18.7165 20.4561 17.75 20.4561H5.75C4.7835 20.4561 4 19.6726 4 18.7061V6.70605ZM19.125 6.20604C19.125 6.08104 19 5.95604 18.75 5.70604L18.75 5.70602C18.25 5.20604 18.25 5.20603 17.75 5.70605L10.2497 13.206C10.0486 13.3953 9.13336 15.0822 9.24938 15.206C9.36574 15.3299 11.0486 14.3953 11.2497 14.206L18.75 6.70608C19 6.45605 19.125 6.33104 19.125 6.20604Z" fill="black"/>
</svg>
