<svg width="24" height="24" viewBox="0 0 24 24" fill="none" xmlns="http://www.w3.org/2000/svg">
<path fill-rule="evenodd" clip-rule="evenodd" d="M7.91763 7.97754H13.8367L12.3367 9.47754H8.61943C8.59787 10.4114 8.68052 11.6192 8.96558 12.8486L7.74158 14.0726C7.72444 14.0167 7.70774 13.9607 7.69148 13.9048C7.22861 12.3146 7.09397 10.7048 7.11912 9.47754H5.32031C4.9061 9.47754 4.57031 9.14175 4.57031 8.72754C4.57031 8.31333 4.9061 7.97754 5.32031 7.97754L7.90057 7.97754H7.91763ZM11.7819 17.5434C11.1382 17.098 10.6131 16.5235 10.1886 15.8683L9.10826 16.9486C9.46587 17.458 9.88451 17.9324 10.3735 18.35C9.45036 18.7926 8.60451 19.0573 7.8937 19.2293C7.40766 19.3469 6.98384 19.4214 6.63081 19.4812L6.56445 19.4924L5.31288 20.744C5.4849 21.0528 5.85736 21.2056 6.20494 21.0897C6.29573 21.0594 6.48331 21.0276 6.87835 20.9607L6.87841 20.9607L6.88147 20.9602C7.24259 20.8989 7.7081 20.8175 8.24646 20.6872C9.23389 20.4483 10.4632 20.0463 11.8008 19.2986C15.3973 21.244 18.4696 21.3611 19.707 21.1136C20.1131 21.0324 20.3765 20.6372 20.2953 20.2311C20.214 19.8249 19.8189 19.5615 19.4127 19.6428C18.6238 19.8006 16.211 19.7854 13.1907 18.3255C14.4236 17.2039 15.191 15.6619 15.6651 14.1269C16.1425 12.581 16.3439 10.975 16.405 9.65186L14.7481 11.3087C14.6399 12.0868 14.4747 12.898 14.2319 13.6843C13.7415 15.272 12.9622 16.6732 11.7819 17.5434ZM18.2655 9.47754H16.5793L18.0793 7.97754H18.2655C18.6797 7.97754 19.0155 8.31333 19.0155 8.72754C19.0155 9.14175 18.6797 9.47754 18.2655 9.47754ZM9.73443 3.01947C9.44154 2.72658 8.96666 2.72658 8.67377 3.01947C8.38088 3.31237 8.38088 3.78724 8.67377 4.08013L11.2628 6.66917C11.5557 6.96206 12.0306 6.96206 12.3235 6.66917C12.6164 6.37627 12.6164 5.9014 12.3235 5.60851L9.73443 3.01947ZM20.5303 4.53033C20.8232 4.23744 20.8232 3.76256 20.5303 3.46967C20.2374 3.17678 19.7626 3.17678 19.4697 3.46967L3.46967 19.4697C3.17678 19.7626 3.17678 20.2374 3.46967 20.5303C3.76256 20.8232 4.23744 20.8232 4.53033 20.5303L20.5303 4.53033Z" fill="black"/>
</svg>
