<svg width="24" height="24" viewBox="0 0 24 24" fill="none" xmlns="http://www.w3.org/2000/svg">
<path d="M2.625 12C2.625 6.82233 6.82233 2.625 12 2.625C17.1777 2.625 21.375 6.82233 21.375 12C21.375 17.1777 17.1777 21.375 12 21.375C6.82233 21.375 2.625 17.1777 2.625 12Z" stroke="black" stroke-width="1.25" stroke-linecap="round" stroke-linejoin="round"/>
<path d="M13 7.99902C13 8.55131 12.5523 8.99902 12 8.99902C11.4477 8.99902 11 8.55131 11 7.99902C11 7.44674 11.4477 6.99902 12 6.99902C12.5523 6.99902 13 7.44674 13 7.99902Z" fill="black"/>
<path fill-rule="evenodd" clip-rule="evenodd" d="M12 9.99902C12.4142 9.99902 12.75 10.3348 12.75 10.749V17.2491C12.75 17.6633 12.4142 17.9991 12 17.9991C11.5858 17.9991 11.25 17.6633 11.25 17.2491V10.749C11.25 10.3348 11.5858 9.99902 12 9.99902Z" fill="black"/>
</svg>
