<svg width="24" height="24" viewBox="0 0 24 24" fill="none" xmlns="http://www.w3.org/2000/svg">
<path fill-rule="evenodd" clip-rule="evenodd" d="M17.2757 3C18.2112 3 18.6796 4.131 18.0182 4.79246L15.7071 7.10355L15.2916 10.0117L18.6167 13.7524C19.2186 14.4296 18.7379 15.5 17.8319 15.5H12.75V20.75C12.75 21.1642 12.4142 21.5 12 21.5C11.5858 21.5 11.25 21.1642 11.25 20.75V15.5H6.16802C5.26203 15.5 4.78133 14.4296 5.38324 13.7524L8.70831 10.0117L8.29286 7.10355L5.98177 4.79246C5.32031 4.131 5.78878 3 6.72423 3L17.2757 3ZM12 14L16.8298 14L14.0318 10.8523C13.8267 10.6214 13.7335 10.3119 13.7772 10.0062L14.2434 6.74293C14.2755 6.51802 14.3797 6.30961 14.5403 6.14896L16.1893 4.5L7.81063 4.5L9.45959 6.14896C9.62023 6.30961 9.72444 6.51802 9.75657 6.74293L10.2228 10.0062C10.2664 10.3119 10.1733 10.6214 9.96808 10.8523L7.1701 14H12Z" fill="black"/>
</svg>
