<svg width="20" height="20" viewBox="0 0 20 20" fill="none" xmlns="http://www.w3.org/2000/svg">
<path d="M15.8333 7.08333V4C15.8333 3.17157 15.1618 2.5 14.3333 2.5H4C3.17157 2.5 2.5 3.17157 2.5 4V14.3333C2.5 15.1618 3.17157 15.8333 4 15.8333H7.08333" stroke="white" stroke-width="1.5"/>
<rect x="9.16663" y="9.16663" width="8.33333" height="8.33333" rx="1.5" stroke="white" stroke-width="1.5"/>
<path d="M8.21185 7.848C8.26677 8.06771 8.06778 8.26672 7.84807 8.21182L5.51378 7.62848C5.28754 7.57194 5.20948 7.29019 5.37438 7.12529L7.12512 5.37456C7.29 5.20967 7.57173 5.2877 7.62829 5.51392L8.21185 7.848Z" fill="white"/>
<path d="M5.00317 5L6.66659 6.66667" stroke="white" stroke-linecap="round"/>
</svg>
