<svg width="28" height="28" viewBox="0 0 28 28" fill="none" xmlns="http://www.w3.org/2000/svg">
<g clip-path="url(#clip0_3687_412528)">
<path fill-rule="evenodd" clip-rule="evenodd" d="M14 28C21.732 28 28 21.732 28 14C28 6.26801 21.732 0 14 0C6.26801 0 0 6.26801 0 14C0 21.732 6.26801 28 14 28ZM14 17C15.6569 17 17 15.6569 17 14C17 12.3431 15.6569 11 14 11C12.3431 11 11 12.3431 11 14C11 15.6569 12.3431 17 14 17Z" fill="white"/>
<path fill-rule="evenodd" clip-rule="evenodd" d="M2.27953 19.6243C1.46072 17.9218 1.00195 16.0133 1.00195 13.9977C1.00195 13.0446 1.10453 12.1154 1.29925 11.2207H10.8691L2.27953 19.6243Z" fill="#FA5452"/>
<path fill-rule="evenodd" clip-rule="evenodd" d="M9.76804 26.2923C6.93503 25.3172 4.54489 23.3905 2.97949 20.8941L9.90287 13.9707L9.76804 26.2923Z" fill="#FF7612"/>
<path fill-rule="evenodd" clip-rule="evenodd" d="M26.4642 17.7018C25.5884 20.6543 23.6919 23.1681 21.1838 24.8342L13.9141 17.5645L26.4642 17.7018Z" fill="#9AD122"/>
<path fill-rule="evenodd" clip-rule="evenodd" d="M25.3599 7.67578C26.404 9.54748 26.999 11.704 26.999 13.9994C26.999 14.7858 26.9292 15.5558 26.7954 16.3037H16.541L25.3599 7.67578Z" fill="#66D020"/>
<path fill-rule="evenodd" clip-rule="evenodd" d="M17.6386 1.51562C20.4798 2.34234 22.9192 4.1128 24.5948 6.46506L17.5068 13.553L17.6386 1.51562Z" fill="#00B1FE"/>
<path fill-rule="evenodd" clip-rule="evenodd" d="M7.97852 2.47609C9.77882 1.53327 11.8274 1 14.0005 1C14.7662 1 15.5164 1.0662 16.2457 1.19319V10.9262L7.97852 2.47609Z" fill="#5283F0"/>
<path fill-rule="evenodd" clip-rule="evenodd" d="M1.68457 9.83136C2.60599 7.10736 4.40575 4.78819 6.74679 3.21094L13.4965 9.96061L1.68457 9.83136Z" fill="#6468F0"/>
<path fill-rule="evenodd" clip-rule="evenodd" d="M11.165 26.6863V16.5977L19.938 25.5647C18.1583 26.48 16.14 26.9966 14.0011 26.9966C13.027 26.9966 12.0779 26.8894 11.165 26.6863Z" fill="#FFC817"/>
<path fill-rule="evenodd" clip-rule="evenodd" d="M26.4642 17.7018C25.5884 20.6543 23.6919 23.1681 21.1838 24.8342L13.9141 17.5645L26.4642 17.7018Z" fill="#9AD122"/>
<path fill-rule="evenodd" clip-rule="evenodd" d="M25.3599 7.67578C26.404 9.54748 26.999 11.704 26.999 13.9994C26.999 14.7858 26.9292 15.5558 26.7954 16.3037H16.541L25.3599 7.67578Z" fill="#66D020"/>
<path fill-rule="evenodd" clip-rule="evenodd" d="M17.6386 1.51562C20.4798 2.34234 22.9192 4.1128 24.5948 6.46506L17.5068 13.553L17.6386 1.51562Z" fill="#00B1FE"/>
<path fill-rule="evenodd" clip-rule="evenodd" d="M7.97852 2.47609C9.77882 1.53327 11.8274 1 14.0005 1C14.7662 1 15.5164 1.0662 16.2457 1.19319V10.9262L7.97852 2.47609Z" fill="#5283F0"/>
<path fill-rule="evenodd" clip-rule="evenodd" d="M1.68457 9.83136C2.60599 7.10736 4.40575 4.78819 6.74679 3.21094L13.4965 9.96061L1.68457 9.83136Z" fill="#6468F0"/>
</g>
<defs>
<clipPath id="clip0_3687_412528">
<rect width="28" height="28" fill="white"/>
</clipPath>
</defs>
</svg>
