<svg width="24" height="24" viewBox="0 0 24 24" fill="none" xmlns="http://www.w3.org/2000/svg">
<path d="M10 4.49973L10.3355 5.17052L10.559 5.05872L10.6708 4.83518L10 4.49973ZM14 4.49973L13.3292 4.83519L13.441 5.05873L13.6645 5.17052L14 4.49973ZM17.5 13L18.25 13.0079V13H17.5ZM20 17.9997V18.7497C20.2911 18.7497 20.556 18.5812 20.6793 18.3175C20.8027 18.0538 20.7623 17.7425 20.5757 17.519L20 17.9997ZM4 17.9997L3.41535 17.53C3.23459 17.7549 3.19894 18.0637 3.32368 18.3239C3.44841 18.5841 3.71141 18.7497 4 18.7497V17.9997ZM6.5 12.9997L7.24983 13.0156L7.25 13.0076V12.9997H6.5ZM10.6708 4.83518C11.0856 4.00564 11.617 3.74999 12 3.75C12.383 3.75001 12.9144 4.00569 13.3292 4.83519L14.6708 4.16426C14.0856 2.99418 13.117 2.25002 12 2.25C10.883 2.24998 9.91436 2.99413 9.3292 4.16427L10.6708 4.83518ZM13.6645 5.17052C15.0385 5.85763 15.7561 6.60704 16.1741 7.70449C16.6191 8.87246 16.75 10.4927 16.75 13H18.25C18.25 10.5074 18.1309 8.62762 17.5759 7.17051C16.9939 5.64289 15.9615 4.64214 14.3355 3.82893L13.6645 5.17052ZM16.75 12.9922C16.7322 14.7057 17.4728 16.1431 19.4243 18.4804L20.5757 17.519C18.6706 15.2373 18.238 14.1574 18.25 13.0079L16.75 12.9922ZM20 17.2497H4V18.7497H20V17.2497ZM4.58465 18.4695C5.98211 16.7303 7.19585 15.5732 7.24983 13.0156L5.75017 12.9839C5.7091 14.9295 4.91252 15.6666 3.41535 17.53L4.58465 18.4695ZM7.25 12.9997C7.25 10.4925 7.38094 8.87239 7.82587 7.70446C8.24393 6.60704 8.96154 5.85763 10.3355 5.17052L9.66453 3.82893C8.03846 4.64214 7.00607 5.64288 6.42413 7.17046C5.86906 8.62753 5.75 10.5072 5.75 12.9997H7.25Z" fill="black"/>
<path d="M12 22.0003C13.3064 22.0003 14.4177 21.1653 14.8294 20H9.17065C9.58241 21.1653 10.6937 22.0003 12 22.0003Z" fill="black"/>
</svg>
