<svg width="24" height="24" viewBox="0 0 24 24" fill="none" xmlns="http://www.w3.org/2000/svg">
<path fill-rule="evenodd" clip-rule="evenodd" d="M15.0919 3.80197L9.29639 2.24906L9.68462 0.800171L15.4802 2.35309L15.0919 3.80197ZM15.4358 7L2.72412 3.59391L3.11235 2.14502L20.499 6.80376L20.1108 8.25265L17.9661 7.67798L17.3213 20.5749C17.2813 21.3732 16.6224 22 15.8231 22H8.17687C7.37756 22 6.71866 21.3732 6.67875 20.5749L6 7H15.4358ZM12.7526 18.1877L13.5026 9.18772L14.9974 9.31228L14.2474 18.3123L12.7526 18.1877ZM10.4974 9.18772L11.2474 18.1877L9.75259 18.3123L9.00259 9.31228L10.4974 9.18772Z" fill="white"/>
</svg>
