<svg width="24" height="24" viewBox="0 0 24 24" fill="none" xmlns="http://www.w3.org/2000/svg">
<path d="M18.5012 4.99997L17.6176 19.1249C17.5516 20.1789 16.6775 21 15.6215 21H8.37926C7.32309 21 6.44897 20.1788 6.38315 19.1246L5.50122 4.99993M18.5012 4.99997L19.5002 4.99993M18.5012 4.99997H15.0004M5.50122 4.99993H4.50024M5.50122 4.99993L9.00024 5.00001M9.00024 5.00001L9.00073 2.99976C9.00087 2.44757 9.44854 2 10.0007 2H14.0008C14.5531 2 15.0009 2.44783 15.0008 3.00019L15.0004 4.99997M9.00024 5.00001L15.0004 4.99997M15.0004 8.00001L14.4994 18M9.00122 8.00001L9.50024 18M12.001 8.00001L12 18" stroke="white" stroke-width="1.25" stroke-linecap="round" stroke-linejoin="round"/>
</svg>
