<svg width="21" height="22" viewBox="0 0 21 22" fill="none" xmlns="http://www.w3.org/2000/svg">
<path fill-rule="evenodd" clip-rule="evenodd" d="M18.9207 15.087H9.46582V13.9863H20.5934L20.2885 14.7425C19.3043 17.1834 17.4284 19.3025 14.9774 20.1907L14.5397 19.1807C16.4291 18.3619 17.9796 16.9071 18.9207 15.087Z" fill="#21A4F9"/>
<path fill-rule="evenodd" clip-rule="evenodd" d="M7.70121 12.0625L15.5671 19.9491L14.8042 20.2627C13.6306 20.7451 12.3457 21.0109 11.0001 21.0109C9.7683 21.0109 8.54105 20.8704 7.49595 20.3804L7.88124 19.3493C8.85121 19.7117 9.90184 19.9102 11.0001 19.9102C11.9022 19.9102 12.7723 19.7763 13.592 19.5275L6.92188 12.8398L7.70121 12.0625Z" fill="#22BE72"/>
<path fill-rule="evenodd" clip-rule="evenodd" d="M6.86635 18.8974V9.61914H7.96706V20.5803L7.20815 20.2695C5.02087 19.3738 3.17979 17.7383 2.08884 15.6613C1.9737 15.4421 1.90858 15.207 1.80957 14.9785L2.81951 14.5408C2.90757 14.744 3.00299 14.9433 3.10544 15.1384C3.94737 16.7413 5.26336 18.0564 6.86635 18.8974Z" fill="#89CC33"/>
<path fill-rule="evenodd" clip-rule="evenodd" d="M9.95552 7.67111L1.98494 15.4385L1.68158 14.6684C1.23391 13.5318 0.988281 12.2943 0.988281 11.0006C0.988281 9.60265 1.22247 8.28399 1.79369 7.06018L2.80541 7.49374C2.34447 8.56933 2.08898 9.75442 2.08898 11.0006C2.08898 11.8559 2.20931 12.6823 2.43376 13.4642L9.18732 6.88281L9.95552 7.67111Z" fill="#FDBC34"/>
<path fill-rule="evenodd" clip-rule="evenodd" d="M3.09735 6.87856C4.10983 4.94157 5.81397 3.42267 7.88114 2.65021L7.49585 1.61914C5.07491 2.37038 2.77913 4.64007 1.72629 7.22104L1.41699 7.97926H12.6627V6.87856H3.09735Z" fill="#F79442"/>
<path fill-rule="evenodd" clip-rule="evenodd" d="M8.69265 2.39055C9.42823 2.19391 10.2017 2.08898 11.0003 2.08898C12.1662 2.08898 13.2786 2.31261 14.2977 2.7188L14.7053 1.69632C13.5765 1.15222 12.3081 0.988281 11.0003 0.988281C9.76857 0.988281 8.58756 1.21098 7.49621 1.61879L6.71582 1.91041L14.1029 9.66986L14.9001 8.91091L8.69265 2.39055Z" fill="#F54C4B"/>
<path fill-rule="evenodd" clip-rule="evenodd" d="M14.0449 1.42383L14.8045 1.73607C17.2623 2.74638 19.3494 4.62961 20.2486 7.15833L19.2322 7.58093C18.4323 5.65713 16.977 4.07352 15.1456 3.10926V12.6389H14.0449V1.42383Z" fill="#595CE6"/>
<path fill-rule="evenodd" clip-rule="evenodd" d="M19.9958 6.52734L20.2974 7.28406C20.7544 8.43073 21.0054 9.68121 21.0054 10.989C21.0054 12.0325 20.8872 13.0395 20.5905 13.9864H19.3882C19.7225 13.0503 19.9047 12.0415 19.9047 10.989C19.9047 10.1162 19.7794 9.27347 19.546 8.47735L13.7638 13.992H12.1689L19.9958 6.52734Z" fill="#2876CC"/>
</svg>
