<svg width="16" height="16" viewBox="0 0 16 16" fill="none" xmlns="http://www.w3.org/2000/svg">
<path d="M6 8C6 8.53043 5.78929 9.03914 5.41421 9.41421C5.03914 9.78929 4.53043 10 4 10C3.46957 10 2.96086 9.78929 2.58579 9.41421C2.21071 9.03914 2 8.53043 2 8C2 7.46957 2.21071 6.96086 2.58579 6.58579C2.96086 6.21071 3.46957 6 4 6C4.53043 6 5.03914 6.21071 5.41421 6.58579C5.78929 6.96086 6 7.46957 6 8Z" fill="#596A95"/>
<path d="M14 8C14 8.53043 13.7893 9.03914 13.4142 9.41421C13.0391 9.78929 12.5304 10 12 10C11.4696 10 10.9609 9.78929 10.5858 9.41421C10.2107 9.03914 10 8.53043 10 8C10 7.46957 10.2107 6.96086 10.5858 6.58579C10.9609 6.21071 11.4696 6 12 6C12.5304 6 13.0391 6.21071 13.4142 6.58579C13.7893 6.96086 14 7.46957 14 8Z" fill="#596A95"/>
</svg>
