<svg width="24" height="24" viewBox="0 0 24 24" fill="none" xmlns="http://www.w3.org/2000/svg">
<path d="M18.4277 16.0237L19.0808 17.913L19.2309 18.25H18.2196L18.8151 19.75C18.8151 19.75 19.4709 19.8868 19.852 19.75C20.0203 19.6896 20.2551 19.5327 20.2551 19.5327C20.6971 19.2288 20.9229 18.651 20.7296 18.0918L19.852 15.5526C19.5041 14.4492 19.3244 13.2684 19.3244 12.0742V11C19.3244 6.94723 17.1538 3.40042 13.8912 2.51925C13.8456 2.28262 13.7605 2.04407 13.6037 1.83433C13.2611 1.37596 12.741 1.25 12.25 1.25C11.759 1.25 11.2389 1.37596 10.8963 1.83433C10.7396 2.04407 10.6544 2.28262 10.6088 2.51924C9.88588 2.71449 9.21656 3.04061 8.61256 3.47411L8 4L9 5L9.49728 4.69441C10.0659 4.28743 10.6927 4.01069 11.3508 3.88755C11.611 3.90047 12.0443 3.89903 12.3967 3.89562C12.6113 3.89354 12.8137 3.89043 12.9624 3.88784L13.1337 3.88466C15.7178 4.35841 17.8244 7.20027 17.8244 11V12.0742C17.8244 13.421 18.0275 14.7579 18.4248 16.0142L18.4277 16.0237Z" fill="#5128D4"/>
<path d="M5.17517 11C5.17517 9.16213 5.62162 7.42834 6.41387 6L7.40481 7.36497C6.943 8.41228 6.67517 9.64526 6.67517 11V12.0742C6.67517 13.421 6.47211 14.7579 6.07482 16.0142L6.07184 16.0237L5.30263 18.25H15.307L16.3945 19.75H4.94915C4.08424 19.75 3.49174 18.898 3.77029 18.0918L4.64756 15.5527C4.99542 14.4493 5.17517 13.2684 5.17517 12.0742V11Z" fill="#5128D4"/>
<path d="M5.55983 1.39285C5.89518 1.14972 6.36413 1.22448 6.60726 1.55983L21.1073 21.5598C21.3504 21.8952 21.2756 22.3641 20.9403 22.6073C20.6049 22.8504 20.136 22.7756 19.8928 22.4403L5.39285 2.44028C5.14972 2.10493 5.22448 1.63598 5.55983 1.39285Z" fill="#5128D4"/>
<path d="M10.5 22C10.5 21.5858 10.8358 21.25 11.25 21.25H13.25C13.6642 21.25 14 21.5858 14 22C14 22.4142 13.6642 22.75 13.25 22.75H11.25C10.8358 22.75 10.5 22.4142 10.5 22Z" fill="#5128D4"/>
</svg>
