<svg width="24" height="24" viewBox="0 0 24 24" fill="none" xmlns="http://www.w3.org/2000/svg">
<path fill-rule="evenodd" clip-rule="evenodd" d="M9.50687 3.75C9.50687 3.33579 9.84265 3 10.2569 3L13.7434 3C14.1576 3 14.4934 3.33579 14.4934 3.75V4.92627L9.50687 4.92627V3.75ZM15.9934 3.75V4.92627H18.4864H20.1075C20.5217 4.92627 20.8575 5.26206 20.8575 5.67627C20.8575 6.09048 20.5217 6.42627 20.1075 6.42627H19.1874L18.2797 19.8509C18.1821 21.2944 16.9827 22.4154 15.5359 22.4154H8.46381C7.01703 22.4154 5.81767 21.2944 5.72007 19.8509L4.81238 6.42627H3.89124C3.47702 6.42627 3.14124 6.09048 3.14124 5.67627C3.14124 5.26206 3.47702 4.92627 3.89124 4.92627H5.51339H8.00687V3.75C8.00687 2.50736 9.01423 1.5 10.2569 1.5L13.7434 1.5C14.986 1.5 15.9934 2.50736 15.9934 3.75ZM6.31581 6.42627L17.6839 6.42627L16.7831 19.7497C16.7387 20.4058 16.1936 20.9154 15.5359 20.9154H8.46381C7.80618 20.9154 7.26102 20.4058 7.21665 19.7497L6.31581 6.42627ZM15.4509 18.2835C15.4264 18.697 15.0714 19.0123 14.6579 18.9879C14.2444 18.9634 13.929 18.6084 13.9535 18.1949L14.494 9.05825C14.5185 8.64475 14.8735 8.32939 15.287 8.35385C15.7005 8.37831 16.0159 8.73334 15.9914 9.14683L15.4509 18.2835ZM12 8.35254C11.5858 8.35254 11.25 8.68833 11.25 9.10254V18.2392C11.25 18.6534 11.5858 18.9892 12 18.9892C12.4142 18.9892 12.75 18.6534 12.75 18.2392V9.10254C12.75 8.68833 12.4142 8.35254 12 8.35254ZM8.00818 9.14683C7.98371 8.73334 8.29908 8.37831 8.71257 8.35385C9.12606 8.32939 9.48109 8.64475 9.50556 9.05825L10.0461 18.1949C10.0706 18.6084 9.75519 18.9634 9.3417 18.9879C8.92821 19.0123 8.57318 18.697 8.54872 18.2835L8.00818 9.14683Z" fill="#007AFF"/>
</svg>
