<svg width="28" height="28" viewBox="0 0 28 28" fill="none" xmlns="http://www.w3.org/2000/svg">
<rect width="28" height="28" rx="8" fill="#EA445A"/>
<path d="M13.9997 5.50177C9.31409 5.50177 5.50183 9.31429 5.50183 14.0003C5.50183 18.6862 9.31407 22.4983 13.9997 22.4983C18.6857 22.4983 22.4982 18.6862 22.4982 14.0003C22.4982 9.31429 18.6857 5.50177 13.9997 5.50177ZM14.9136 13.1484C16.1982 13.4582 17.4984 13.9472 17.4984 15.6099C17.4984 17.3537 16.0467 18.1348 14.5789 18.3091V19.579H13.4176V18.3177C11.6587 18.168 10.421 17.2314 10.3787 15.4142H12.1431C12.2299 16.2884 12.7361 16.698 13.4176 16.8289V14.4391C13.3178 14.4169 13.2185 14.3952 13.1181 14.3711C11.818 14.0776 10.5488 13.5886 10.5488 11.8771C10.5488 10.2301 12.0579 9.60111 13.4176 9.48611V8.36993H14.5789V9.51291C15.9318 9.69259 17.0626 10.4345 17.2353 12.0564H15.3935C15.2865 11.4936 14.9842 11.1945 14.5789 11.0495V13.0761C14.6903 13.0997 14.8014 13.1232 14.9136 13.1484ZM14.5789 16.833C15.1695 16.7389 15.7678 16.4732 15.7339 15.7728C15.7061 15.1868 15.2296 14.9129 14.5789 14.7193V16.833ZM13.4176 10.9536C12.9147 11.0107 12.3134 11.2091 12.3134 11.7954C12.3134 12.3365 12.775 12.6062 13.4176 12.7991V10.9536Z" fill="white"/>
</svg>
