<svg width="24" height="24" viewBox="0 0 24 24" fill="none" xmlns="http://www.w3.org/2000/svg">
<path d="M7.89607 3C8.29605 3 8.66453 3.2169 8.85863 3.56658L10.2054 5.99243C10.3817 6.31006 10.3899 6.69424 10.2275 7.01918L8.93014 9.61391C8.93014 9.61391 9.30612 11.5469 10.8796 13.1204C12.4531 14.6939 14.3796 15.0634 14.3796 15.0634L16.9739 13.7662C17.2991 13.6036 17.6835 13.612 18.0013 13.7887L20.434 15.1412C20.7833 15.3354 21 15.7037 21 16.1034V18.8963C21 20.3185 19.6789 21.3458 18.3313 20.891C15.5635 19.9572 11.2672 18.179 8.54415 15.4559C5.82099 12.7328 4.04284 8.43644 3.10894 5.6687C2.65423 4.32107 3.68147 3 5.10371 3H7.89607Z" stroke="#007AFF" stroke-linejoin="round"/>
<path d="M21 6L15 6" stroke="#007AFF" stroke-linecap="round" stroke-linejoin="round"/>
<path d="M18 3V9" stroke="#007AFF" stroke-linecap="round" stroke-linejoin="round"/>
</svg>
