<svg width="148" height="148" viewBox="0 0 148 148" fill="none" xmlns="http://www.w3.org/2000/svg">
<path opacity="0.4" d="M143 137.01C143 140.876 112.332 144.01 74.5 144.01C36.6685 144.01 6 140.876 6 137.01C6 133.144 36.6685 130.01 74.5 130.01C112.332 130.01 143 133.144 143 137.01Z" fill="#C5C5C5"/>
<path opacity="0.5" d="M43.5937 47.0618C43.5937 47.0618 42.0318 46.9494 41.0047 44.9629C40.4876 43.963 39.4082 44.5022 38.2062 45.0791C37.0203 45.6482 35.7149 46.2537 34.7118 45.4536C31.9531 43.2536 31.4126 44.0003 30.4719 44.8691C29.7763 45.5116 28.8617 46.221 26.6695 45.8553C23.9734 45.4056 22.2737 47.356 23.3049 48.6277C24.4493 50.0385 27.4028 50.1606 30.0849 49.9001C31.1588 49.7958 33.7516 48.6277 36.8393 49.7095C39.2925 50.5689 42.0278 48.869 43.4841 49.1958C46.8297 49.9465 43.5937 47.0618 43.5937 47.0618Z" fill="#CBCBCB"/>
<path opacity="0.5" d="M112.594 71.0618C112.594 71.0618 111.032 70.9494 110.005 68.9629C109.488 67.963 108.408 68.5022 107.206 69.0791C106.02 69.6482 104.715 70.2537 103.712 69.4536C100.953 67.2536 100.413 68.0003 99.4719 68.8691C98.7763 69.5116 97.8617 70.221 95.6695 69.8553C92.9734 69.4056 91.2737 71.356 92.3049 72.6277C93.4493 74.0385 96.4028 74.1606 99.0849 73.9001C100.159 73.7958 102.752 72.6277 105.839 73.7095C108.293 74.5689 111.028 72.869 112.484 73.1958C115.83 73.9465 112.594 71.0618 112.594 71.0618Z" fill="#CBCBCB"/>
<path d="M139.28 128.515C139.287 128.548 139.769 131.187 139.769 131.187C139.815 131.444 139.648 131.692 139.392 131.737L110.408 137.142C110.162 137.185 109.918 137.029 109.862 136.78L109.037 133.098L109.811 133.033C109.811 133.033 108.645 130.556 107.826 128.387C107 126.221 106.158 120.362 106.743 120.079C107.209 119.851 114.882 118.104 118.136 117.367C118.959 117.185 119.8 117.549 120.248 118.268C121.058 119.57 122.573 121.494 124.638 121.82C127.808 122.323 134.76 122.652 136.486 124.189C137.754 125.333 138.144 126.996 138.259 127.77C138.273 127.863 138.309 127.946 138.361 128.003C138.454 128.119 138.611 128.18 138.771 128.163L138.861 128.159C139.059 128.179 139.225 128.317 139.28 128.515Z" fill="#EDB732"/>
<path d="M139.281 128.515C139.288 128.547 139.769 131.187 139.769 131.187C139.815 131.444 139.649 131.691 139.392 131.736L110.409 137.141C110.163 137.185 109.918 137.028 109.863 136.779L109.037 133.097L109.812 133.033L138.772 128.162L138.862 128.158C139.059 128.178 139.226 128.317 139.281 128.515Z" fill="#DE8C12"/>
<path d="M118.481 123.479C118.403 123.493 118.324 123.455 118.287 123.384C118.249 123.31 118.264 123.22 118.327 123.164L121.708 120.136C121.782 120.069 121.899 120.074 121.965 120.15C122.032 120.225 122.026 120.339 121.951 120.406L119.106 122.955L124.596 121.644C124.7 121.624 124.793 121.684 124.815 121.778C124.839 121.876 124.779 121.975 124.681 121.998L118.491 123.476C118.487 123.477 118.485 123.478 118.481 123.479Z" fill="white"/>
<path d="M93.4236 56.2091L127.25 119.384L104.99 124.489L88.8373 96.5437L77.2747 76.7242C75.2209 73.7651 74.6526 70.022 75.7368 66.5864L76.4145 60.8162L93.4236 56.2091Z" fill="#4C455E"/>
<path d="M67.9817 114.961L67.2617 125.509L80.1149 125.898L80.4496 115.684L67.9817 114.961Z" fill="#FF9C85"/>
<path d="M99.0272 135.514C99.0288 135.549 99.0303 138.429 99.0303 138.429C99.0296 138.709 98.8108 138.938 98.5377 138.937L66.4044 139.249C66.1421 139.247 65.9187 139.035 65.9086 138.762L65.7472 134.715L66.5596 134.796C66.5596 134.796 66.1193 132.678 66.5593 129.339C66.9993 126 68.3426 119.868 68.9998 119.681C69.5243 119.53 75.7802 119.834 79.2796 119.681C80.1641 119.647 80.9641 120.193 81.2923 121.038C81.8851 122.568 83.0877 124.891 85.1594 125.632C88.3399 126.771 95.4596 128.454 96.9532 130.409C98.0488 131.86 98.1396 133.691 98.1124 134.531C98.1101 134.631 98.1311 134.726 98.1745 134.796C98.249 134.936 98.3988 135.031 98.5679 135.043L98.6618 135.057C98.862 135.115 99.0078 135.294 99.0272 135.514Z" fill="#EDB732"/>
<path d="M99.0268 135.156C99.0283 135.196 99.0299 138.364 99.0299 138.364C99.0291 138.672 98.81 138.925 98.5365 138.923L67.5409 139.079C67.2783 139.077 67.0545 138.844 67.0444 138.543L66.8828 134.091L67.6963 134.18L98.5668 134.639L98.6608 134.654C98.8613 134.718 99.0073 134.915 99.0268 135.156Z" fill="#DE8C12"/>
<path d="M78.7192 126.331C78.6336 126.331 78.5583 126.268 78.5321 126.176C78.506 126.079 78.5401 125.974 78.6169 125.921L82.7651 123.038C82.8563 122.975 82.9791 123.006 83.0338 123.111C83.0901 123.215 83.0616 123.351 82.9696 123.414L79.4792 125.841L85.5232 125.467C85.6365 125.466 85.7237 125.558 85.7285 125.675C85.7348 125.797 85.6524 125.902 85.5446 125.908L78.7295 126.33C78.7255 126.33 78.7231 126.331 78.7192 126.331Z" fill="white"/>
<path d="M89.6552 56.9474C89.6552 56.9474 94.9901 75.7509 92.7649 93.8197C90.5398 111.889 85.8101 122.631 85.8101 122.631L64.1113 122.783L71.8747 89.8394L74.7123 54.5464L89.6552 56.9474Z" fill="#4C455E"/>
<path d="M64.9437 30.1591C64.9437 30.1591 70.9262 27.7066 76.3061 26.2793C84.6909 24.0547 91.1142 25.176 97.0908 28.2192L94.7368 37.9244C94.7368 37.9244 81.2941 33.9284 78.0917 35.6681C74.7696 37.4739 72.7761 42.784 72.7761 42.784L64.9437 30.1591Z" fill="#E03860"/>
<path d="M76.4884 68.7109C76.4123 68.7109 76.3413 68.6629 76.3155 68.5875C76.283 68.4922 76.334 68.388 76.4285 68.3555C79.8509 67.1819 79.6669 64.2872 79.658 64.1645C79.6506 64.0648 79.7245 63.9768 79.825 63.9687C79.947 63.9739 80.0135 64.0367 80.0216 64.1357C80.0238 64.1682 80.2441 67.4332 76.5475 68.7006C76.5276 68.7073 76.5076 68.7109 76.4884 68.7109Z" fill="white"/>
<path d="M101.852 26.9163C101.71 27.5585 102.537 28.2857 103.697 28.5407C104.858 28.7957 105.913 28.4823 106.054 27.8401C106.196 27.1986 105.369 26.4715 104.208 26.2165C103.048 25.9608 101.993 26.2749 101.852 26.9163Z" fill="#46467F"/>
<path d="M102.025 27.1016L101.953 27.0875C101.859 27.0476 101.815 26.939 101.854 26.8451L103.884 22.0297L101.553 21.0683C101.458 21.0298 101.414 20.9212 101.452 20.8273C101.491 20.7335 101.599 20.6877 101.694 20.7276L104.196 21.7585L104.297 21.859L104.296 22.0009L102.195 26.9892C102.165 27.0594 102.097 27.1016 102.025 27.1016Z" fill="#46467F"/>
<path d="M52.7797 12.8393C53.1588 13.3758 54.2533 13.2538 55.2236 12.568C56.194 11.8815 56.6721 10.8905 56.293 10.354C55.9131 9.81744 54.8194 9.93863 53.8491 10.6252C52.8787 11.311 52.3999 12.3027 52.7797 12.8393Z" fill="#46467F"/>
<path d="M48.431 15.9137C48.8106 16.4502 49.9047 16.329 50.8743 15.6432C51.8446 14.9567 52.3235 13.9656 51.9444 13.4291C51.5646 12.8926 50.4701 13.0138 49.5006 13.7003C48.53 14.3862 48.0514 15.3772 48.431 15.9137Z" fill="#46467F"/>
<path d="M48.5636 16.0991L48.4036 16.0067L45.2836 10.5994L45.2666 10.4553L45.3587 10.3429L49.8551 8.00915C49.9385 7.96555 50.0436 7.99288 50.0953 8.07195L53.05 12.6102C53.1055 12.696 53.0818 12.8098 52.9961 12.8659C52.9118 12.9206 52.7965 12.8977 52.7404 12.8113L49.8767 8.41413L45.7005 10.5816L48.7232 15.822C48.7745 15.9107 48.7442 16.0237 48.6559 16.074L48.5636 16.0991Z" fill="#46467F"/>
<path d="M84.5899 18.505C84.5899 18.505 78.3897 17.2516 76.2313 23.4372C74.0726 29.622 77.3935 45.9497 77.3935 45.9497L90.6871 42.3293L88.02 29.1741L84.5899 18.505Z" fill="black"/>
<path d="M89.4524 33.3698C89.4524 33.3698 95.8609 35.2144 101.756 35.1294C106.86 35.0555 113.562 32.1548 113.562 32.1548L118.307 40.683C118.307 40.683 105.863 52.3336 97.3152 48.4811C86.294 43.5135 89.4524 33.3698 89.4524 33.3698Z" fill="#F49B14"/>
<path d="M82.7859 32.8377C82.7859 32.8377 74.9255 35.7117 73.9429 40.097C72.9602 44.4823 72.1411 61.147 73.9425 61.7515C75.7438 62.3567 94.6907 62.0878 96.0007 61.0288C97.311 59.9705 97.6007 49.0597 97.4351 47.5218C97.2659 45.9499 96.3998 39.5509 94.5983 36.9806C92.7969 34.4095 88.3533 32.6684 86.552 32.6684C84.7506 32.6684 82.7859 32.8377 82.7859 32.8377Z" fill="#F49B14"/>
<path d="M81.2744 29.6627L81.693 33.9416C81.693 33.9416 82.585 35.096 85.108 35.0546C86.9879 35.0235 87.6013 34.538 87.6013 34.538L87.1296 32.3963L86.6663 30.3079L82.0492 29.7559L81.2744 29.6627Z" fill="#FF9C85"/>
<path d="M82.0498 29.7562C82.0723 29.8722 82.1301 30.006 82.2147 30.1575C83.3812 32.2009 86.0437 32.4056 87.1302 32.3967L86.6669 30.3083L82.0498 29.7562Z" fill="black"/>
<path d="M86.6673 20.4621C86.6673 20.4621 89.438 25.6071 88.8442 28.674C88.2504 31.7416 85.4799 31.4941 83.7981 31.0492C82.116 30.6035 81.2751 29.6635 81.2751 29.6635C81.2751 29.6635 79.791 30.3065 78.6533 28.9711C77.5156 27.6357 78.0101 25.9529 78.851 25.5081C79.6922 25.0632 80.7803 25.6071 80.7803 25.6071L79.8403 24.1224C79.8403 24.1224 82.6111 15.96 86.6673 20.4621Z" fill="#FF9C85"/>
<path d="M80.7793 25.6069C80.7793 25.6069 83.1095 25.904 84.5196 23.2317C85.9292 20.5609 85.7066 19.5218 85.7066 19.5218L87.4878 22.0448C87.4878 22.0448 87.7101 20.1899 86.894 19.0762C86.0776 17.964 85.3357 18.2603 85.3357 18.2603L80.3641 19.8928L79.3252 24.0483L80.7793 25.6069Z" fill="black"/>
<path d="M80.9715 28.0845L80.8616 28.0483L78.9321 26.619C78.85 26.5584 78.833 26.4424 78.8939 26.3603C78.9545 26.2791 79.0709 26.2621 79.1523 26.3227L81.0816 27.7519C81.1635 27.8125 81.1808 27.9278 81.1199 28.0098L80.9715 28.0845Z" fill="black"/>
<path d="M79.0424 28.3008L78.881 28.2062C78.8311 28.1175 78.8631 28.0044 78.9523 27.9549L80.221 27.2492C80.3091 27.1997 80.4231 27.2307 80.4722 27.3201C80.5221 27.4095 80.4898 27.5219 80.4009 27.5714L79.1322 28.2779L79.0424 28.3008Z" fill="black"/>
<path d="M103.02 35.8588C103.022 36.7648 103.117 38.0795 103.523 38.4372C103.597 38.5037 103.674 38.5259 103.768 38.5074C103.872 38.4889 103.907 38.4387 103.927 38.3921C104.107 37.9768 103.552 36.781 103.02 35.8588ZM103.71 38.8828C103.552 38.8828 103.405 38.8252 103.279 38.7143C102.535 38.0588 102.649 35.5026 102.665 35.2136C102.668 35.133 102.724 35.0651 102.802 35.0444C102.878 35.0259 102.961 35.0555 103.004 35.1227C103.172 35.3836 104.634 37.6923 104.265 38.5392C104.188 38.7195 104.038 38.834 103.834 38.8717L103.71 38.8828Z" fill="#FFBE83"/>
<path d="M117.044 40.4125C117.044 40.4125 111.21 35.259 112.322 33.7277C113.434 32.1963 114.904 31.027 114.871 32.1594C114.838 33.2916 114.287 35.2616 114.287 35.2616L116.664 33.9721C116.664 33.9721 118.134 32.8028 119.26 32.1922C120.386 31.5817 120.978 32.3742 120.978 32.3742C120.978 32.3742 122.103 31.7636 122.712 31.99C123.321 32.2171 123.131 33.0622 123.131 33.0622C123.131 33.0622 124.866 32.6788 124.535 34.1581C124.205 35.6375 121.325 38.6847 119.854 39.8541C118.384 41.0231 117.044 40.4125 117.044 40.4125Z" fill="#FF9C85"/>
<path d="M81.5106 33.3696C81.5106 33.3696 81.0072 33.4597 80.9711 33.7827C80.9356 34.1056 83.3129 39.3822 84.8845 39.7539C86.456 40.1241 87.294 35.2407 87.3734 35.3161C87.4522 35.3922 90.358 37.2279 90.6488 37.1407C90.9391 37.0528 89.4865 34.7951 88.6147 33.932C87.7429 33.0673 87.2097 32.7614 87.2097 32.7614C87.2097 32.7614 87.3908 33.8743 87.4008 34.1145C87.4109 34.3547 86.5002 34.9562 84.7909 34.8114C82.3467 34.6037 81.5106 33.3696 81.5106 33.3696Z" fill="white"/>
<path d="M116.67 41.6415L111.166 33.3328C111.024 33.1184 111.083 32.8287 111.298 32.6869L113.254 31.3914C113.468 31.2487 113.758 31.3071 113.901 31.5222L119.404 39.8302C119.547 40.0445 119.488 40.3342 119.273 40.476L117.317 41.7723C117.102 41.9149 116.813 41.8558 116.67 41.6415Z" fill="white"/>
<path d="M97.2537 48.4551C97.1451 48.4521 97.0653 48.3664 97.069 48.2644C97.3121 41.0635 93.9777 39.0763 93.9442 39.0571C93.8553 39.0068 93.8244 38.8937 93.8747 38.8051C93.9243 38.7164 94.0366 38.6846 94.1258 38.7356C94.2716 38.8169 97.6897 40.8299 97.4385 48.277C97.4348 48.3767 97.3528 48.4551 97.2537 48.4551Z" fill="#FFBE83"/>
<path d="M96.7777 28.4126C96.7777 28.4126 99.5071 28.6672 100.438 28.9234C101.37 29.1796 102.556 30.9357 102.556 30.9357C102.556 30.9357 105.188 33.6853 105.046 34.6348C104.903 35.5836 103.265 36.0624 103.265 36.0624C103.265 36.0624 100.97 39.8805 98.4776 40.458C95.9865 41.0359 91.6637 33.7407 91.6637 33.7407L94.8378 30.9357L96.7777 28.4126Z" fill="#FF9C85"/>
<path d="M96.9992 40.1601C96.9992 40.1601 93.2831 37.954 94.2376 36.3157C95.1927 34.6765 97.4769 32.5504 97.4769 32.5504L101.986 35.484L96.9992 40.1601Z" fill="#FF9C85"/>
<path d="M101.211 29.44C101.211 29.44 102.473 34.5474 100.814 34.72C99.154 34.8937 98.8132 32.4468 98.8132 32.4468C98.8132 32.4468 95.3498 33.6733 94.5965 31.2674L101.211 29.44Z" fill="#FF9C85"/>
<path d="M94.4723 31.4884C94.449 31.3945 94.5034 31.2973 94.5965 31.2674C94.6941 31.2372 94.7981 31.2914 94.8283 31.389C95.5221 33.604 98.7335 32.2761 98.77 32.2671C98.8204 32.2554 98.8745 32.2648 98.9168 32.294C98.9606 32.3235 98.9892 32.3712 98.9969 32.4211C98.999 32.4419 99.3332 34.6895 100.795 34.5359C100.957 34.5195 101.087 34.4393 101.19 34.2912C101.815 33.4029 101.288 30.5201 101.032 29.4842C101.007 29.3852 101.068 29.285 101.167 29.2605C101.266 29.236 101.366 29.2965 101.391 29.3955C101.43 29.5548 102.341 33.2956 101.493 34.5042C101.327 34.7409 101.105 34.8749 100.833 34.904C99.4791 35.0455 98.8388 33.6013 98.6636 32.6679C97.8484 32.8284 95.1791 33.7467 94.4749 31.4992C94.474 31.4956 94.4731 31.492 94.4723 31.4884Z" fill="black"/>
<path d="M96.0041 36.7038C96.0041 36.7038 96.1418 35.1365 96.9554 34.8676C97.7689 34.5987 101.267 38.0617 101.267 38.0617L96.0041 36.7038Z" fill="#FF9C85"/>
<path d="M95.8237 36.748C95.8191 36.7293 95.817 36.7085 95.8187 36.6876C95.8253 36.6189 95.9781 34.9954 96.8966 34.6922C97.7508 34.4094 100.556 37.0988 101.396 37.9296C101.468 38.0016 101.468 38.118 101.397 38.1913C101.326 38.2637 101.209 38.2644 101.136 38.1926C99.4921 36.5657 97.4484 34.8983 97.0129 35.0426C96.4394 35.2323 96.2227 36.3174 96.1867 36.7199C96.1777 36.8218 96.0882 36.8972 95.987 36.888C95.9062 36.8814 95.8422 36.8226 95.8237 36.748Z" fill="black"/>
<path d="M94.4827 37.7818C94.4827 37.7818 95.0318 36.3199 96.0037 36.7038C96.975 37.0887 98.8346 40.0249 98.8346 40.0249L94.4827 37.7818Z" fill="#FF9C85"/>
<path d="M94.3032 37.8254C94.2947 37.791 94.2968 37.7531 94.3098 37.7164C94.3237 37.6803 94.6523 36.8202 95.2794 36.5426C95.5353 36.4291 95.8017 36.4257 96.0717 36.5325C97.0869 36.9346 98.9133 39.8044 98.9913 39.926C99.0463 40.0129 99.0196 40.1268 98.9333 40.1809C98.8478 40.2355 98.7334 40.2098 98.6786 40.1236C98.1703 39.3213 96.6868 37.1729 95.9351 36.8761C95.7588 36.8062 95.5931 36.8076 95.4298 36.88C94.9453 37.0942 94.6584 37.8396 94.6555 37.8464C94.6198 37.942 94.513 37.9905 94.4172 37.954C94.3585 37.932 94.3174 37.8828 94.3032 37.8254Z" fill="black"/>
<path d="M97.1198 34.8215C97.0566 34.5661 96.9873 34.0549 97.2895 33.6452C97.5969 33.2289 98.1883 33.0469 99.0489 33.1036C99.1503 33.1105 99.2257 33.1969 99.2208 33.3002C99.2141 33.4023 99.1257 33.479 99.0236 33.4723C98.299 33.4238 97.8162 33.5553 97.5885 33.8629C97.2955 34.2573 97.5114 34.8442 97.5135 34.8497C97.5448 34.9425 97.5017 35.0513 97.4064 35.0878C97.311 35.1236 97.2041 35.0762 97.1685 34.9815C97.1647 34.9725 97.1427 34.914 97.1198 34.8215Z" fill="black"/>
<path d="M55.6101 82.0446L64.8889 86.9625L58.6925 96.8946L48.8267 91.1441L55.6101 82.0446Z" fill="#FF9C85"/>
<path d="M46.6012 79.0743C46.988 78.2818 47.9694 77.9482 48.8362 78.3181C52.26 79.7778 60.1148 82.6311 59.8485 83.2558C59.5086 84.0528 53.9119 91.1207 53.9119 91.1207C53.9119 91.1207 58.5591 93.3734 56.299 96.3115C54.5643 98.5648 50.2951 100.212 48.4027 100.858C47.8015 101.062 47.2877 101.428 46.9165 101.918C45.3205 104.026 40.6146 109.692 37.0921 108.298C32.786 106.595 34.0015 105.096 34.3418 104.299C34.6332 103.615 43.9645 84.4801 46.6012 79.0743Z" fill="#7B839E"/>
<path d="M39.7151 118.805L38.9951 129.354L51.8483 129.743L52.183 119.529L39.7151 118.805Z" fill="#FF9C85"/>
<path d="M59.1708 56.6437C59.1708 56.6437 64.5057 75.4472 62.2806 93.5159C60.0554 111.585 55.3257 122.327 55.3257 122.327L33.627 122.479L41.3904 89.5357L44.228 54.2427L59.1708 56.6437Z" fill="#29165C"/>
<path d="M50.2557 67.571C50.2557 67.571 57.029 67.1819 60.2324 74.7764C62.6541 80.5163 71.7561 91.3018 71.7561 91.3018C71.7561 91.3018 71.0005 110.624 82.1414 107.216C95.9552 102.992 87.4411 87.1225 87.4411 87.1225L67.119 55.1002L50.2557 67.571Z" fill="#29165C"/>
<path d="M39.7083 138.501C38.8287 138.442 38.1512 137.657 38.1674 136.715C38.2323 132.994 37.9219 124.642 38.601 124.655C39.4673 124.669 48.1213 127.197 48.1213 127.197C48.1213 127.197 48.4605 122.044 52.0321 123.033C54.7731 123.793 57.9058 127.129 59.2153 128.64C59.6307 129.12 60.1628 129.459 60.7569 129.618C63.3102 130.303 70.3294 132.535 70.3634 136.322C70.4047 140.951 68.5579 140.39 67.6918 140.374C66.9484 140.362 45.7091 138.912 39.7083 138.501Z" fill="#7B839E"/>
<path d="M58.3133 98.1919L61.1242 81.7933L68.3827 84.3511L81.1589 107.465C81.1589 107.465 76.3982 109.925 58.3133 98.1919Z" fill="#29165C"/>
<path d="M61.2676 100.292C61.2038 100.317 61.1283 100.306 61.074 100.256C60.9989 100.187 60.994 100.071 61.063 99.9955C61.1 99.9544 62.6727 93.4912 62.5679 83.4255C62.4914 76.0453 59.8743 64.6591 59.8479 64.5447C59.8308 64.4736 59.8586 64.3997 59.9167 64.3558L64.7238 60.7354C64.8076 60.6742 64.9216 60.6909 64.9826 60.7724C65.0437 60.8539 65.0276 60.9693 64.9464 61.031L60.2344 64.5786C60.5133 65.811 62.865 76.4065 62.9376 83.4212C63.0445 93.6502 61.492 100.074 61.3353 100.246C61.3158 100.266 61.2926 100.282 61.2676 100.292Z" fill="white"/>
<path d="M92.3672 99.7373C92.3034 99.7626 92.2279 99.751 92.1736 99.7012C92.0985 99.6326 92.0936 99.5158 92.1626 99.4409C92.1997 99.3997 93.7723 92.9365 93.6675 82.8708C93.591 75.4907 90.9739 64.1044 90.9475 63.99C90.9304 63.9189 90.9582 63.845 91.0164 63.8012L95 61.5C95.0838 61.4388 95.1978 61.4555 95.2589 61.537C95.3199 61.6185 95.3038 61.7338 95.2226 61.7956L91.3341 64.0239C91.6129 65.2563 93.9646 75.8518 94.0373 82.8666C94.1441 93.0955 92.5917 99.5196 92.4349 99.691C92.4154 99.7116 92.3922 99.7273 92.3672 99.7373Z" fill="white"/>
<path d="M65.8274 84.086C66.4679 86.0387 67.4558 88.2847 68.057 88.1781C68.3443 88.1137 68.4085 87.9883 68.433 87.8983C68.6259 87.1901 67.0996 85.3615 65.8274 84.086ZM68.1251 88.5413C66.8819 88.7617 65.5191 84.3846 65.2571 83.5004C65.2336 83.4205 65.2661 83.3344 65.3371 83.2903C65.4093 83.246 65.4995 83.2555 65.5606 83.3122C65.928 83.6561 69.1397 86.7064 68.7895 87.9957C68.7372 88.1882 68.5833 88.4384 68.1491 88.537C68.1411 88.5385 68.1329 88.5399 68.1251 88.5413Z" fill="white"/>
<path d="M46.3388 43.1159C46.3388 43.1159 40.9385 41.513 36.147 37.6494C31.2132 33.6706 28.4102 23.9511 28.4102 23.9511L34.1725 20.5967C34.1725 20.5967 38.819 26.8502 42.8547 28.7044C46.8904 30.5586 50.2463 31.5186 50.2463 31.5186L46.3388 43.1159Z" fill="#FF9C85"/>
<path d="M58.5636 30.4275L61.0881 29.2532L68.2594 33.453L67.7273 62.6167L43.3672 59.8646L45.8183 47.6665L58.5636 30.4275Z" fill="white"/>
<path d="M45.0553 42.2068L40.7041 58.0756L51.9028 59.5034C51.9028 59.5034 59.9337 29.5571 60.1908 29.1359C56.8948 28.3259 50.1123 28.4117 46.8414 30.2311L45.0553 42.2068Z" fill="#E03860"/>
<path d="M72.7741 51.5594L71.9834 61.6299H67.7429C67.4362 52.4905 68.1427 43.1937 66.695 33.4617C66.5886 32.7559 66.1984 31.8188 66.0742 31.2505C67.8124 32.1056 71.2769 34.6485 72.7837 36.298C73.9684 37.595 72.7741 51.5594 72.7741 51.5594Z" fill="#E03860"/>
<path d="M60.2061 26.4415L59.793 31.1121C59.793 31.1121 60.5741 32.5465 63.471 33.0646C65.629 33.4511 66.433 33.0683 66.433 33.0683L66.3391 30.6724L66.2438 28.3349L61.0729 26.7142L60.2061 26.4415Z" fill="#FF9C85"/>
<path d="M61.0713 26.7207C61.0713 26.8589 61.1082 27.0245 61.1711 27.2166C62.0505 29.8172 65.0531 30.6449 66.2991 30.877L66.2348 28.3828L61.0713 26.7207Z" fill="black"/>
<path d="M68.4313 17.1109C68.4313 17.1109 70.4555 23.6194 69.0913 26.9981C67.7278 30.3769 64.6106 29.4761 62.7845 28.5907C60.9584 27.7061 60.2054 26.4424 60.2054 26.4424C60.2054 26.4424 58.3623 26.8481 57.358 25.0649C56.3529 23.2816 57.2944 21.4666 58.3571 21.1444C59.4191 20.8222 60.5438 21.6883 60.5438 21.6883L59.7982 19.7795C59.7982 19.7795 64.791 11.0517 68.4313 17.1109Z" fill="#FF9C85"/>
<path d="M60.8042 22.2505C60.8042 22.2505 61.875 22.0776 62.9118 20.6646C64.0344 19.1341 64.0994 17.9967 64.0994 17.9967C64.0994 17.9967 65.746 19.4097 67.2927 19.2087C69.6975 18.8954 68.1847 17.0981 68.1847 17.0981L69.277 20.6934C69.277 20.6934 70.0145 20.1428 70.1098 19.2782C70.2059 18.4135 69.4676 17.7248 69.4676 17.7248C69.4676 17.7248 70.2266 15.4087 68.4241 14.3164C66.621 13.2242 64.5798 14.9136 64.5798 14.9136C64.5798 14.9136 65.4053 12.6995 62.6857 13.0054C59.9654 13.3114 59.154 17.1203 59.154 17.1203C59.154 17.1203 57.3345 17.3516 56.4713 18.4956C55.6082 19.6388 57.4306 21.8854 57.4306 21.8854C57.4306 21.8854 58.1836 20.0105 60.8042 22.2505Z" fill="#AF4D04"/>
<path d="M60.1507 24.4219C60.0997 24.4219 60.0494 24.4004 60.0125 24.3598L58.3334 22.4672C58.2662 22.3911 58.2728 22.2743 58.349 22.2071C58.4251 22.1376 58.5418 22.1457 58.6098 22.2218L60.2889 24.1144C60.3568 24.1906 60.3495 24.3081 60.2733 24.3746C60.2379 24.4064 60.1943 24.4219 60.1507 24.4219Z" fill="black"/>
<path d="M58.1231 24.1655C58.0389 24.1655 57.9628 24.1086 57.9435 24.0236C57.9199 23.9239 57.9812 23.8241 58.0803 23.8012L59.5686 23.4494C59.6677 23.4228 59.7682 23.4871 59.7911 23.5869C59.8147 23.6866 59.7534 23.7857 59.6536 23.8093L58.1653 24.1603C58.1512 24.164 58.1372 24.1655 58.1231 24.1655Z" fill="black"/>
<path d="M53.5808 46.786C53.5808 46.786 48.6661 47.2354 39.7661 40.6411C32.2954 35.1052 29.1934 28.3514 29.1934 28.3514L38.0991 20.7358C38.0991 20.7358 40.9899 24.4427 45.0579 26.9081C49.1259 29.3734 52.213 28.9256 52.213 28.9256L54.7996 40.6411L53.5808 46.786Z" fill="#E03860"/>
<path d="M64.3614 33.4917C60.8488 33.4917 59.642 31.2229 59.6287 31.1956C59.5822 31.1054 59.6184 30.9938 59.7085 30.948C59.8017 30.8985 59.9118 30.9369 59.9576 31.0271C60.0197 31.1468 61.5265 33.9506 66.3937 32.8879C66.4956 32.8665 66.5917 32.93 66.6131 33.0283C66.6353 33.1281 66.5718 33.2271 66.472 33.2486C65.6909 33.42 64.9888 33.4917 64.3614 33.4917Z" fill="#AF4D04"/>
<path d="M116.045 38.8747L122.69 37.2685C123.076 37.1752 123.304 36.7478 123.199 36.3136L120.437 24.8875C120.332 24.4538 119.934 24.1771 119.548 24.2704L112.903 25.8766C112.517 25.9699 112.289 26.3979 112.394 26.8316L115.156 38.2576C115.261 38.6918 115.658 38.968 116.045 38.8747Z" fill="#0F0F0F"/>
<path d="M116.433 37.7406L122.413 36.2951C122.76 36.2111 122.963 35.8165 122.866 35.4135L120.302 24.8081C120.205 24.4056 119.844 24.1466 119.497 24.2306L113.517 25.6761C113.169 25.76 112.966 26.1552 113.064 26.5578L115.627 37.1631C115.724 37.5661 116.085 37.8246 116.433 37.7406Z" fill="#47414B"/>
<path d="M125.01 32.4018C125.025 29.8777 121.608 26.2911 120.924 26.8454C120.924 26.8454 121.201 27.9539 121.201 28.5082C121.201 29.3828 119.584 27.6332 119.417 28.3738C119.251 29.1137 119.646 29.5552 119.646 29.5552C119.646 29.5552 118.63 29.2807 118.703 30.1748C118.776 31.0678 119.202 31.376 119.202 31.376C119.202 31.376 118.105 31.5113 118.8 33.0264C119.496 34.5417 123.418 37.0993 124.25 36.5391C125.081 35.9789 125 34.0066 125.01 32.4018Z" fill="#FF9C85"/>
<path d="M119.603 29.7265C119.55 29.6923 119.52 29.5987 119.535 29.5066C119.551 29.4078 119.613 29.3495 119.674 29.3766L122.47 30.5875C122.535 30.6144 122.567 30.7154 122.551 30.8139C122.534 30.9124 122.472 30.9711 122.411 30.9439L119.615 29.7328L119.603 29.7265Z" fill="black"/>
<path d="M121.834 33.2608L119.161 31.5478C119.102 31.5104 119.073 31.403 119.097 31.3081C119.12 31.2133 119.186 31.1667 119.244 31.2042L121.918 32.9171C121.976 32.9543 122.005 33.062 121.982 33.1568C121.959 33.2517 121.892 33.298 121.834 33.2608Z" fill="black"/>
<path fill-rule="evenodd" clip-rule="evenodd" d="M67.9862 25.3932C68.0162 25.5433 67.9189 25.6893 67.7688 25.7193L65.2392 26.2253C65.2722 26.4309 65.3515 26.672 65.5006 26.8792C65.6986 27.1542 66.0311 27.3875 66.6059 27.3875C66.759 27.3875 66.8831 27.5116 66.8831 27.6646C66.8831 27.8177 66.759 27.9418 66.6059 27.9418C65.8505 27.9418 65.3516 27.6208 65.0508 27.203C64.7602 26.7994 64.666 26.3233 64.666 26.0019V25.7747L67.6601 25.1758C67.8102 25.1458 67.9562 25.2432 67.9862 25.3932Z" fill="black"/>
<path fill-rule="evenodd" clip-rule="evenodd" d="M87.9292 28.1259C87.9807 28.27 87.9056 28.4286 87.7614 28.4801L86.0692 29.0844C86.0722 29.0894 86.0753 29.0945 86.0785 29.0997C86.1335 29.1877 86.2145 29.2809 86.3105 29.3649C86.4066 29.4489 86.5097 29.5168 86.6042 29.5597C86.703 29.6045 86.7688 29.6114 86.8 29.6072C86.9517 29.5869 87.0912 29.6934 87.1115 29.8451C87.1318 29.9968 87.0253 30.1362 86.8736 30.1566C86.6988 30.18 86.523 30.1314 86.3753 30.0645C86.2234 29.9956 86.0751 29.8954 85.9455 29.782C85.8159 29.6686 85.697 29.535 85.6086 29.3935C85.5226 29.2561 85.4512 29.0882 85.4512 28.9119V28.7166L87.575 27.9581C87.7191 27.9066 87.8777 27.9818 87.9292 28.1259Z" fill="black"/>
<path d="M112.055 29.3272L109.561 30.4357C111.501 27.6644 109.755 27.3267 106.79 28.7729C109.154 26.637 109.129 25.3196 107.066 24.0617C109.881 25.1194 110.997 25.2265 110.115 22.3989C110.115 22.3989 112.055 25.1702 113.163 24.0617" stroke="#FFA63B" stroke-linecap="round"/>
<path d="M33.2409 22.6495C33.2409 22.6495 32.8396 15.5767 31.9777 13.9385C31.1158 12.2996 29.0845 7.04053 28.3458 7.80945C27.5995 8.58642 28.6794 12.6688 28.6794 12.6688C28.6794 12.6688 26.7603 9.43445 26.0648 9.12381C25.3682 8.81343 24.8727 9.70998 25.3554 11.1887C25.8371 12.6685 27.1972 15.3752 27.1972 15.3752C27.1972 15.3752 26.2481 18.6041 26.4934 19.1512C26.5931 19.3734 26.7733 20.0008 26.9516 20.6667C27.2676 21.8459 28.3672 22.6405 29.585 22.5676L33.2409 22.6495Z" fill="#FF9C85"/>
<path d="M28.6118 12.054C28.5721 12.038 28.5259 12.039 28.4851 12.0604C28.4112 12.0991 28.3827 12.1906 28.4215 12.2643L29.6919 14.6789C29.7305 14.7532 29.8227 14.7806 29.8957 14.7428C29.9699 14.7036 29.9984 14.612 29.9593 14.5382L28.6892 12.1237C28.6719 12.0907 28.644 12.067 28.6118 12.054Z" fill="black"/>
<path d="M34.383 21.8559C34.383 21.8559 35.1668 18.612 35.0536 17.7516C34.9412 16.8909 33.5255 15.6179 33.5255 15.6179C33.5255 15.6179 32.1749 14.7662 31.3128 14.7755C29.7232 15.2235 27.657 14.8994 27.657 14.8994C27.657 14.8994 26.1579 16.3579 24.5466 18.0661C23.7243 20.2118 29.6798 24.9619 29.6798 24.9619L33.5886 24.3934L34.383 21.8559Z" fill="#FF9C85"/>
<path d="M25.0408 19.4194C25.0408 19.4194 26.4431 22.7592 27.914 22.1567C29.3848 21.5529 31.414 19.9025 31.414 19.9025L29.5002 15.8203L25.0408 19.4194Z" fill="#FF9C85"/>
<path d="M32.2943 22.9025C32.368 22.9362 32.4557 22.9044 32.4907 22.8306C32.526 22.7563 32.4942 22.6673 32.4198 22.632C30.6582 21.7989 31.7833 18.8897 31.7947 18.8603C31.8098 18.8214 31.8086 18.7776 31.7899 18.7398C31.7707 18.7017 31.7358 18.6732 31.697 18.6621C31.6784 18.6563 29.8474 18.1193 30.1442 16.9175C30.1776 16.7831 30.2602 16.6838 30.3966 16.6138C31.2086 16.1972 33.5431 16.9687 34.3742 17.3011C34.4506 17.3319 34.5375 17.2945 34.5676 17.2184C34.5987 17.1415 34.5696 17.0451 34.4852 17.0245C34.3575 16.9735 31.359 15.785 30.2603 16.3487C30.0459 16.4583 29.9095 16.6261 29.855 16.8459C29.581 17.9525 30.711 18.6441 31.4623 18.9008C31.2376 19.5503 30.5068 22.0576 32.2921 22.9015C32.2932 22.902 32.2938 22.9023 32.2943 22.9025Z" fill="black"/>
<path d="M27.7332 20.782C27.7503 20.7898 27.7683 20.794 27.7878 20.795C27.8456 20.7981 29.2075 20.8581 29.5645 20.1346C29.9047 19.4434 27.8181 16.5944 27.3967 16.0302C27.347 15.9643 27.2542 15.9505 27.1877 16C27.1218 16.0497 27.1086 16.1427 27.1575 16.2089C28.3453 17.7975 29.4702 19.6506 29.2969 20.0024C29.0718 20.4589 28.142 20.5145 27.8028 20.4972C27.7203 20.4928 27.6505 20.5567 27.6464 20.6386C27.6429 20.7015 27.6793 20.7574 27.7332 20.782Z" fill="black"/>
<path d="M26.6635 21.9201C26.6921 21.9332 26.7248 21.9375 26.7581 21.9301C26.7892 21.923 27.5395 21.7496 27.8412 21.2636C27.9642 21.0657 27.9973 20.846 27.9403 20.6112C27.7249 19.7227 25.5542 17.8762 25.4618 17.7974C25.3979 17.7436 25.3048 17.7523 25.2516 17.8151C25.1983 17.8779 25.2062 17.9726 25.2693 18.0254C25.8773 18.5405 27.4904 20.022 27.6501 20.6815C27.6884 20.838 27.6681 20.977 27.588 21.106C27.3917 21.4221 26.8752 21.5978 26.6928 21.6389C26.6123 21.6567 26.5617 21.7367 26.5795 21.8173C26.5904 21.8648 26.6222 21.9013 26.6635 21.9201Z" fill="black"/>
<path d="M117.871 53.14C114.994 49.2721 109.959 53.6235 112.357 57.4914C111.238 57.4914 109 57.8782 109 59.4254C109 61.3594 118.123 60.6341 121 59.4254C123.877 58.2167 124.836 61.3593 128.433 60.1506C132.029 58.9418 140.889 58.9419 139.93 56.7662C138.971 54.5905 135.374 56.5245 134.895 55.5575C134.415 54.5905 134.175 50.9643 129.62 53.8652C125.064 56.7661 128.421 48.5469 122.906 49.0304C117.392 49.5138 120.748 57.0079 117.871 53.14Z" fill="#CBCBCB"/>
<path d="M17 70.5096C14.1534 72.128 9.95896 73.6234 12.3566 77.4913C11.2377 77.4913 9 77.8781 9 79.4253C9 81.3593 18.1227 80.634 21 79.4253C23.8773 78.2166 24.8362 81.3592 28.4327 80.1505C32.0292 78.9417 40.8888 78.9418 39.9297 76.7661C38.9707 74.5904 35.3742 76.5244 34.8946 75.5574C34.4151 74.5904 34.1753 70.9642 29.6198 73.8651C25.0643 76.766 21.4332 67.9891 17 70.5096Z" fill="#CBCBCB"/>
</svg>
