<svg width="148" height="149" viewBox="0 0 148 149" fill="none" xmlns="http://www.w3.org/2000/svg">
<path d="M38.2441 58.2209C84.4704 54.7268 67.2873 83.3868 58.9998 90C9.5 129.5 74.5 147 105.5 120" stroke="black" stroke-width="3" stroke-dasharray="6 6"/>
<path d="M104.483 63.083C116.734 63.083 126.833 73.4621 126.833 86.3034C126.833 92.7743 124.618 98.7818 120.973 103.874C116.951 109.49 111.994 114.384 106.414 118.225C105.137 119.113 103.985 119.18 102.583 118.225C96.9715 114.384 92.0144 109.49 88.027 103.874C84.3788 98.7818 82.1665 92.7743 82.1665 86.3034C82.1665 73.4621 92.2661 63.083 104.483 63.083ZM104.483 79.21C100.432 79.21 97.1278 82.7581 97.1278 87.0264C97.1278 91.3283 100.432 94.7117 104.483 94.7117C108.536 94.7117 111.872 91.3283 111.872 87.0264C111.872 82.7581 108.536 79.21 104.483 79.21Z" fill="#EB4B35"/>
<path d="M38.4869 14.75C47.8122 14.75 55.5 22.6505 55.5 32.4252C55.5 37.3508 53.814 41.9237 51.039 45.7996C47.9776 50.075 44.2043 53.8 39.9571 56.7239C38.985 57.3996 38.1077 57.4506 37.0409 56.7239C32.7695 53.8 28.9962 50.075 25.961 45.7996C23.184 41.9237 21.5 37.3508 21.5 32.4252C21.5 22.6505 29.1878 14.75 38.4869 14.75ZM38.4869 27.0258C35.4033 27.0258 32.8885 29.7266 32.8885 32.9756C32.8885 36.2501 35.4033 38.8255 38.4869 38.8255C41.5725 38.8255 44.1115 36.2501 44.1115 32.9756C44.1115 29.7266 41.5725 27.0258 38.4869 27.0258Z" fill="#7B839E"/>
</svg>
