<svg width="148" height="148" viewBox="0 0 148 148" fill="none" xmlns="http://www.w3.org/2000/svg">
<circle cx="74.5" cy="74.5" r="66.5" fill="#E8E8E8"/>
<path d="M110.925 96.362L81.2607 99.9222L81.9574 121.279L111.529 117.73L110.925 96.362Z" fill="white"/>
<path d="M111.359 95.3673L83.7556 98.7084L81 117.861L110.545 114.284L111.359 95.3673Z" fill="#D9F1FF"/>
<path d="M114.925 93.3618L85.2607 96.922L85.9574 118.279L115.529 114.73L114.925 93.3618Z" fill="white"/>
<path d="M115.359 95.3674L87.7556 98.7085L85 117.861L114.545 114.285L115.359 95.3674Z" fill="#D9F1FF"/>
<path d="M116.498 97.381L85.2731 101.109L86.0078 123.483L117.136 119.767L116.498 97.381Z" fill="white"/>
<path d="M118.92 102.36L88.667 102L80 104.78L81.8432 131.379L90.5429 132.743L118.485 131.379L118.92 102.36Z" fill="#F0AE02"/>
<path d="M90.4658 132.743L81.8278 131.379L80.6989 115.988L80.6339 115.103L80 104.616L88.4907 102.081L90.4658 132.743Z" fill="#E78B01"/>
<path d="M61.3539 117.264C61.3539 117.264 64.8268 122.136 64.9621 123.087C65.0975 124.037 62.4417 125.758 62.4417 125.758L68.8412 133.723H54.6568L53.9605 118.352L61.3539 117.264Z" fill="#9B4002"/>
<path d="M61.257 29.473C61.257 29.473 65.3775 35.4365 72.6403 39.6684C77.8551 42.7071 88.6495 43.4173 88.6495 43.4173L90.471 49.9761C90.471 49.9761 76.3069 57.4868 64.7192 51.2473C53.1321 45.0078 61.257 29.473 61.257 29.473Z" fill="#FF9C85"/>
<path d="M52.0546 12.7033C52.0546 12.7033 46.6422 10.1988 44.2192 14.642C41.8661 18.9556 45.3499 22.9623 45.3499 22.9623L51.3275 16.7421L52.0546 12.7033Z" fill="black"/>
<path d="M56.6105 131.938L45.9172 131.693L46.199 119.396L56.8923 119.641L56.6105 131.938Z" fill="#FF9C85"/>
<path d="M45.0833 61.9405C45.0833 61.9405 43.1196 68.9293 43.0066 82.6554C42.9088 94.5065 40.7217 120.805 41.6133 122.052C42.5045 123.3 60.6877 122.587 61.4009 122.23C62.1137 121.874 62.2921 113.674 62.2921 113.674C62.2921 113.674 74.4144 93.3514 76.0188 89.9645C77.6231 86.5776 67.1053 57.0519 67.1053 57.0519L45.0833 61.9405Z" fill="#FCBC49"/>
<path d="M49.2784 28.5727C49.2784 28.5727 40.7216 31.7002 39.652 36.4743C38.5824 41.2484 46.0696 60.344 48.0308 61.0028C49.9916 61.6612 65.6791 58.2042 67.1051 57.0517C68.5314 55.8992 66.927 44.047 66.5703 42.4009C66.2139 40.7543 64.7875 34.1693 62.8267 31.3707C60.8659 28.5726 59.2615 28.3876 57.3003 28.3876C55.3395 28.3876 49.2784 28.5727 49.2784 28.5727Z" fill="#E03860"/>
<path d="M45.1885 13.9146C45.1885 13.9146 39.2104 12.3803 36.8679 20.7814C34.5253 29.1826 40.3934 31.6549 43.2494 29.9094C46.1578 28.1322 45.6729 23.2046 45.6729 23.2046L45.1885 13.9146Z" fill="black"/>
<path d="M47.6334 25.1154L48.0893 29.773C48.0893 29.773 49.06 31.0298 51.8067 30.9848C53.8525 30.9512 54.5208 30.4228 54.5208 30.4228L54.0073 28.0916L53.5032 25.8182L48.477 25.2171L47.6334 25.1154Z" fill="#FF9C85"/>
<path d="M53.5034 15.0997C53.5034 15.0997 56.519 20.7006 55.873 24.0394C55.2267 27.3781 52.2107 27.1091 50.3799 26.6241C48.5488 26.1395 47.6331 25.1165 47.6331 25.1165C47.6331 25.1165 46.0175 25.8165 44.7789 24.3624C43.5405 22.9083 44.0789 21.0771 44.9945 20.5926C45.9099 20.1081 47.0946 20.7006 47.0946 20.7006L46.0716 19.085C46.0716 19.085 49.0871 10.1988 53.5034 15.0997Z" fill="#FF9C85"/>
<path d="M51.0404 27.1421L50.9093 27.1414L47.5168 25.4525C47.4332 25.4163 47.3955 25.3189 47.4313 25.2362C47.4671 25.1536 47.564 25.1146 47.6478 25.1514L51.0412 26.8407C51.1241 26.8771 51.1616 26.9739 51.1258 27.0566L51.0404 27.1421Z" fill="black"/>
<path d="M47.1213 23.4318C47.078 23.4318 47.0337 23.4179 46.997 23.3885L45.0583 21.8542C44.9716 21.7852 44.957 21.659 45.0258 21.5723C45.094 21.4857 45.2208 21.4707 45.3073 21.5397L47.246 23.074C47.3327 23.143 47.3475 23.2692 47.2788 23.3559C47.2393 23.4056 47.1806 23.4318 47.1213 23.4318Z" fill="black"/>
<path d="M45.1833 23.4318C45.1138 23.4318 45.0463 23.396 45.0091 23.3313C44.954 23.2356 44.987 23.1131 45.0831 23.0575L46.2053 22.4114C46.3014 22.3569 46.4234 22.3895 46.4791 22.4852C46.5343 22.581 46.5013 22.704 46.4052 22.7591L45.283 23.4051C45.2514 23.4233 45.2172 23.4318 45.1833 23.4318Z" fill="black"/>
<path d="M47.0944 20.7007C47.0944 20.7007 49.6312 21.0237 51.1658 18.1155C52.7008 15.2072 52.4585 14.0767 52.4585 14.0767L54.3972 16.8229C54.3972 16.8229 54.6395 14.8035 53.751 13.5916C52.8626 12.3803 52.0545 12.7033 52.0545 12.7033L46.6422 14.4804L45.5114 19.0038L47.0944 20.7007Z" fill="black"/>
<path d="M87.3462 43.2636C87.3462 43.2636 88.8987 40.2949 90.97 39.3055C93.0402 38.3162 95.2832 37.9204 94.5927 39.1077C93.9029 40.2949 92.1776 42.0763 92.1776 42.0763H95.4559C95.4559 42.0763 97.6989 41.6806 99.2514 41.6806C100.804 41.6806 100.977 42.8678 100.977 42.8678C100.977 42.8678 102.53 42.8678 103.048 43.4614C103.565 44.0551 102.875 44.8471 102.875 44.8471C102.875 44.8471 104.945 45.4407 103.738 46.8259C102.53 48.2115 97.6989 49.7945 95.4559 50.1903C93.2124 50.586 88.5538 49.9924 88.5538 49.9924C88.5538 49.9924 83.5502 45.8365 87.3462 43.2636Z" fill="#FF9C85"/>
<path d="M89.6389 46.8394C89.5624 46.8394 89.4886 46.795 89.4555 46.7206C89.4105 46.619 89.4565 46.5008 89.5576 46.4559C92.576 45.1141 92.1359 42.5075 92.1161 42.3973C92.0958 42.2882 92.168 42.1839 92.2765 42.1636C92.3888 42.1417 92.4899 42.2155 92.5102 42.3235C92.5156 42.354 93.0359 45.3489 89.7207 46.8222C89.694 46.834 89.6667 46.8394 89.6389 46.8394Z" fill="black"/>
<path d="M98.9465 46.6022C98.8995 46.6022 98.8524 46.5862 98.8144 46.553L94.5361 42.8094C94.4526 42.7362 94.4441 42.6094 94.5168 42.526C94.5901 42.4426 94.7163 42.4346 94.8002 42.5073L99.0786 46.2509C99.1615 46.3236 99.1701 46.4509 99.0973 46.5343C99.0578 46.5792 99.0022 46.6022 98.9465 46.6022Z" fill="black"/>
<path d="M62.6483 112.448C62.5335 112.445 62.4455 112.354 62.4478 112.243C62.4515 112.075 62.8004 95.372 62.4484 89.9181C62.1052 84.6017 62.2414 76.3872 62.8447 75.5823C63.3781 74.871 68.5191 69.0439 68.7373 68.7962C68.8111 68.7133 68.9373 68.7059 69.0208 68.7786C69.1037 68.8513 69.1117 68.9786 69.0384 69.0615C68.9849 69.1219 63.6895 75.1245 63.1654 75.823C62.7204 76.4166 62.4729 84.0669 62.8484 89.8919C63.2017 95.364 62.8524 112.083 62.8489 112.252C62.8466 112.361 62.7572 112.448 62.6483 112.448Z" fill="white"/>
<path d="M61.4008 117.46H41.4348C41.3241 117.46 41.2343 117.37 41.2343 117.259C41.2343 117.148 41.3241 117.058 41.4348 117.058H61.4008C61.5115 117.058 61.6013 117.148 61.6013 117.259C61.6013 117.37 61.5115 117.46 61.4008 117.46Z" fill="white"/>
<path d="M73.7068 41.1317C73.2474 42.2564 72.81 43.6447 73.0388 44.0661C73.0677 44.1191 73.103 44.1437 73.1613 44.1522C73.2228 44.1597 73.2715 44.1442 73.3223 44.0955C73.6849 43.7506 73.7517 42.3221 73.7068 41.1317ZM73.1913 44.5555C73.1635 44.5555 73.134 44.5533 73.1052 44.549C72.9207 44.5234 72.7757 44.4223 72.6864 44.257C72.2131 43.3848 73.5223 40.5284 73.6731 40.2054C73.7116 40.123 73.7972 40.076 73.8897 40.0931C73.9785 40.1081 74.0464 40.1819 74.0544 40.2723C74.086 40.6188 74.3395 43.6816 73.5988 44.3865C73.4817 44.4977 73.3426 44.5555 73.1913 44.5555Z" fill="#CC504A"/>
<path d="M47.1214 72.6943C47.022 72.6943 46.9356 72.62 46.9229 72.5189C46.9091 72.4093 46.9869 72.3087 47.0965 72.2948C47.216 72.2798 50.0316 71.875 51.0486 68.063C51.0772 67.9565 51.1881 67.8918 51.2941 67.9207C51.401 67.9496 51.4645 68.0592 51.4361 68.1662C50.3469 72.2494 47.1784 72.6884 47.1465 72.6927C47.1381 72.6938 47.1297 72.6943 47.1214 72.6943Z" fill="white"/>
<path d="M95.2995 24.0331L65.6813 27.9552L66.6388 49.3023L96.1648 45.3923L95.2995 24.0331Z" fill="white"/>
<path d="M96.1648 24.8355L68.6039 28.5134L66.0824 47.6981L95.582 43.7612L96.1648 24.8355Z" fill="#D9F1FF"/>
<path d="M99.7117 25.6374L70.0934 29.5595L71.0509 50.9066L100.577 46.9966L99.7117 25.6374Z" fill="white"/>
<path d="M100.176 26.8409L72.615 30.5188L70.0934 49.7036L99.593 45.7667L100.176 26.8409Z" fill="#D9F1FF"/>
<path d="M102.073 28.445L70.8956 32.5539L71.9035 54.9175L102.983 50.8213L102.073 28.445Z" fill="white"/>
<path d="M98.1703 19.4684C96.7108 22.82 96.4242 29.915 96.4242 29.915C96.4242 29.915 89.0629 30.8634 82.9285 31.6537C83.1259 26.3549 85.5449 18.4175 85.5449 18.4175L98.1703 19.4684Z" fill="white"/>
<path d="M96.8602 21.6264L85.7363 20.678L85.8908 20.022L96.9671 20.9833L96.8602 21.6264Z" fill="#D9F1FF"/>
<path d="M96.458 23.2306L85.3352 22.305L85.4912 21.6262L96.5659 22.565L96.458 23.2306Z" fill="#D9F1FF"/>
<path d="M96.056 24.8355L84.9341 23.935L85.0916 23.2311L96.1649 24.146L96.056 24.8355Z" fill="#D9F1FF"/>
<path d="M92.0229 26.4397L84.5329 25.9121L84.6974 25.2364L92.1538 25.7734L92.0229 26.4397Z" fill="#D9F1FF"/>
<path d="M104.989 34.9028L56.8571 34.4617L59.5187 70.4926L70.188 72.1649L104.456 70.4926L104.989 34.9028Z" fill="#F0AE02"/>
<path d="M70.0934 72.1649L59.4998 70.4926L58.1153 51.6166L58.0356 50.5309L56.8571 34.4617L67.6711 34.5614L70.0934 72.1649Z" fill="#E78B01"/>
<path d="M67.6868 34.4616L73.2546 42.8847L109 42.137L104.752 34.8088L67.6868 34.4616Z" fill="#FCD573"/>
<path d="M56.7948 34.4615L67.6868 34.5622L63.4189 42.4835L51.6428 41.4433L56.7948 34.4615Z" fill="#FCD573"/>
<path d="M45.8602 140.134C45.0582 140.096 44.4269 139.404 44.4242 138.557C44.4144 135.212 44.4584 127.468 45.0768 127.467C45.8656 127.464 53.3089 129.822 53.3089 129.822C53.3089 129.822 53.522 125.187 56.7922 126.01C59.3014 126.642 62.2146 129.582 63.4346 130.916C63.8217 131.34 64.3126 131.633 64.856 131.766C67.1931 132.335 73.6241 134.21 73.7252 137.613C73.8487 141.771 72.1571 141.301 71.3688 141.303C70.6912 141.304 51.3302 140.392 45.8602 140.134Z" fill="#AF4D04"/>
<path d="M60.2668 133.758C60.1932 133.758 60.1222 133.717 60.0871 133.646C60.0376 133.548 60.0779 133.427 60.1769 133.378L63.0379 131.95C63.1367 131.901 63.2577 131.941 63.3069 132.04C63.3565 132.139 63.3159 132.26 63.2172 132.309L60.3562 133.737C60.3274 133.751 60.2968 133.758 60.2668 133.758Z" fill="black"/>
<path d="M40.4851 34.4614C40.4851 34.4614 33.0565 41.6149 37.32 57.646C40.6993 70.3523 52.6656 66.6568 58.37 64.8738C64.0748 63.0913 69.0663 58.4562 69.0663 58.4562L67.8181 51.6825C67.8181 51.6825 55.8744 54.1778 50.17 53.643C44.4652 53.1082 40.4851 34.4614 40.4851 34.4614Z" fill="#FF9C85"/>
<path d="M66.4683 51.9495C66.4683 51.9495 75.1422 50.1922 77.3199 51.0634C79.497 51.934 77.7552 59.1201 77.1022 60.4272C76.4487 61.7332 67.5021 59.771 67.5021 59.771L64.9075 56.0718L66.4683 51.9495Z" fill="#FF9C85"/>
<path d="M77.3199 51.0632C77.3199 51.0632 82.5855 54.6394 82.7882 56.8653C82.9904 59.0916 76.5145 54.4367 76.5145 54.4367L77.3199 51.0632Z" fill="#FF9C85"/>
<path d="M73.8831 60.1033C73.8831 60.1033 69.4309 61.1157 70.8476 62.3297C72.2638 63.5442 76.678 61.559 77.1021 60.4269C77.5262 59.2941 74.288 57.8769 74.288 57.8769L73.8831 60.1033Z" fill="#FF9C85"/>
<path d="M78.2878 55.6263C78.2242 55.6263 78.1616 55.5958 78.1226 55.5397C78.1124 55.5252 77.0786 54.0465 76.0689 53.3304C75.9786 53.2663 75.9572 53.1416 76.0213 53.0513C76.0855 52.9609 76.2096 52.9384 76.301 53.0037C77.3685 53.7604 78.4082 55.2482 78.452 55.3113C78.5151 55.4022 78.4927 55.5268 78.4017 55.5905C78.367 55.6146 78.3269 55.6263 78.2878 55.6263Z" fill="black"/>
<path d="M77.4472 58.6558C77.3894 58.6558 77.3316 58.6306 77.2921 58.5825L75.1657 55.9941C75.0951 55.9085 75.108 55.7823 75.1935 55.7117C75.2786 55.6411 75.4053 55.6539 75.4754 55.739L77.6017 58.3274C77.6723 58.413 77.66 58.5397 77.5744 58.6098C77.537 58.6408 77.4921 58.6558 77.4472 58.6558Z" fill="black"/>
<path d="M67.5014 59.9714C67.4121 59.9714 67.3308 59.9115 67.3073 59.8206L66.9704 58.505C66.9431 58.3975 67.0078 58.2884 67.1148 58.2606C67.2201 58.2338 67.3314 58.2975 67.3592 58.4049L67.6961 59.7211C67.7234 59.828 67.6587 59.9377 67.5517 59.965C67.5351 59.9692 67.518 59.9714 67.5014 59.9714Z" fill="black"/>
<path d="M48.4419 53.6803C47.7241 54.59 46.7894 56.0869 47.3762 56.7902C47.4253 56.8485 47.4926 56.9067 47.5279 56.895C47.8536 56.795 48.2329 55.2574 48.4419 53.6803ZM47.5151 57.2982C47.3879 57.2982 47.231 57.2421 47.0687 57.0469C45.9816 55.7457 48.4646 53.0236 48.5708 52.9081C48.6291 52.845 48.7218 52.8257 48.8006 52.8615C48.8791 52.8968 48.9263 52.9786 48.9177 53.0642C48.8246 53.99 48.4573 57.0292 47.6457 57.2784C47.6073 57.2902 47.5634 57.2982 47.5151 57.2982Z" fill="#E06258"/>
</svg>
