<svg width="40" height="40" viewBox="0 0 40 40" fill="none" xmlns="http://www.w3.org/2000/svg">
<rect width="40" height="40" rx="20" fill="url(#paint0_linear_122_1017)"/>
<rect width="40" height="40" rx="20" fill="url(#paint1_linear_122_1017)"/>
<path d="M20 26.7494L24.8499 29.8186C25.738 30.3811 26.8249 29.5496 26.5911 28.498L25.3056 22.7264L29.5945 18.8378C30.3775 18.1286 29.9568 16.7835 28.9284 16.6979L23.2839 16.1966L21.0751 10.7429C20.6778 9.75238 19.3222 9.75238 18.9249 10.7429L16.7161 16.1843L11.0716 16.6857C10.0432 16.7713 9.62248 18.1164 10.4055 18.8256L14.6944 22.7141L13.4089 28.4858C13.1751 29.5374 14.262 30.3689 15.1501 29.8064L20 26.7494Z" fill="url(#paint2_linear_122_1017)"/>
<path d="M20 26.7494L24.8499 29.8186C25.738 30.3811 26.8249 29.5496 26.5911 28.498L25.3056 22.7264L29.5945 18.8378C30.3775 18.1286 29.9568 16.7835 28.9284 16.6979L23.2839 16.1966L21.0751 10.7429C20.6778 9.75238 19.3222 9.75238 18.9249 10.7429L16.7161 16.1843L11.0716 16.6857C10.0432 16.7713 9.62248 18.1164 10.4055 18.8256L14.6944 22.7141L13.4089 28.4858C13.1751 29.5374 14.262 30.3689 15.1501 29.8064L20 26.7494Z" fill="url(#paint3_linear_122_1017)"/>
<defs>
<linearGradient id="paint0_linear_122_1017" x1="6" y1="1.92225e-07" x2="33.5" y2="45.5" gradientUnits="userSpaceOnUse">
<stop stop-color="#FDFDFD"/>
<stop offset="0.0001" stop-color="#DDD5CE"/>
<stop offset="1" stop-color="#383A3F"/>
</linearGradient>
<linearGradient id="paint1_linear_122_1017" x1="35" y1="38" x2="3.5" y2="-7.5" gradientUnits="userSpaceOnUse">
<stop stop-color="#EAE3D9"/>
<stop offset="1" stop-color="#F5F7F8"/>
</linearGradient>
<linearGradient id="paint2_linear_122_1017" x1="6" y1="-4" x2="23" y2="35" gradientUnits="userSpaceOnUse">
<stop stop-color="#F0C662"/>
<stop offset="0.489583" stop-color="#FFDB86"/>
<stop offset="1" stop-color="#D29C1C"/>
</linearGradient>
<linearGradient id="paint3_linear_122_1017" x1="-4" y1="-12" x2="29" y2="34.5" gradientUnits="userSpaceOnUse">
<stop stop-color="#E0B03F"/>
<stop offset="0.408785" stop-color="#F7E6AC"/>
<stop offset="0.671094" stop-color="#DBAA00"/>
<stop offset="1" stop-color="#A8850A"/>
</linearGradient>
</defs>
</svg>
