<svg width="28" height="28" viewBox="0 0 28 28" fill="none" xmlns="http://www.w3.org/2000/svg">
<rect width="28" height="28" rx="8" fill="#EB4E3D"/>
<path d="M20.2821 10.0961C19.6539 10.0961 19.1229 9.87925 18.6891 9.44549C18.2554 9.01172 18.0385 8.48074 18.0385 7.85254C18.0385 7.23929 18.2554 6.7119 18.6891 6.27036C19.1229 5.82942 19.6539 5.60895 20.2821 5.60895C20.9103 5.60895 21.4413 5.82942 21.875 6.27036C22.3088 6.7119 22.5257 7.23929 22.5257 7.85254C22.5257 8.48074 22.3088 9.01172 21.875 9.44549C21.4413 9.87925 20.9103 10.0961 20.2821 10.0961ZM8.68271 19.5641L7.15707 21.0897C6.93271 21.3141 6.67096 21.3664 6.37181 21.2468C6.07267 21.1271 5.9231 20.9027 5.9231 20.5737V8.45831C5.9231 8.0395 6.0616 7.6916 6.33861 7.41459C6.61502 7.13818 6.96263 6.99997 7.38143 6.99997H16.3334C16.3034 7.14955 16.2849 7.29523 16.2777 7.43702C16.2699 7.57942 16.266 7.73288 16.266 7.89741C16.3109 9.06408 16.7222 10.0213 17.5 10.7692C18.2778 11.5171 19.2051 11.891 20.2821 11.891C20.5812 11.891 20.8878 11.8536 21.2019 11.7788C21.516 11.704 21.8077 11.5919 22.0769 11.4423V18.1057C22.0769 18.5245 21.9387 18.8725 21.6623 19.1495C21.3853 19.4259 21.0374 19.5641 20.6186 19.5641H8.68271Z" fill="white"/>
</svg>
