<svg width="60" height="60" viewBox="0 0 60 60" fill="none" xmlns="http://www.w3.org/2000/svg">
<rect width="60" height="60" rx="30" fill="#DDDCE0"/>
<path d="M34.3 16.7778H26.7M21 23.2V16.7778C21 14.6914 22.7013 13 24.8 13H36.2C38.2987 13 40 14.6914 40 16.7778V43.2222C40 45.3087 38.2987 47 36.2 47H24.8C22.7013 47 21 45.3087 21 43.2222V35.5" stroke="#121212" stroke-width="2" stroke-linecap="round"/>
<rect x="14" y="26" width="19" height="7" rx="3.5" fill="#121212" fill-opacity="0.32"/>
<path d="M17.5 31C16.6716 31 16 30.3284 16 29.5C16 28.6716 16.6716 28 17.5 28C18.3284 28 19 28.6716 19 29.5C19 30.3284 18.3284 31 17.5 31Z" fill="black"/>
<path d="M23.5 31C22.6716 31 22 30.3284 22 29.5C22 28.6716 22.6716 28 23.5 28C24.3284 28 25 28.6716 25 29.5C25 30.3284 24.3284 31 23.5 31Z" fill="black"/>
<path d="M29.5 31C28.6716 31 28 30.3284 28 29.5C28 28.6716 28.6716 28 29.5 28C30.3284 28 31 28.6716 31 29.5C31 30.3284 30.3284 31 29.5 31Z" fill="black"/>
</svg>
