<svg width="24" height="24" viewBox="0 0 24 24" fill="none" xmlns="http://www.w3.org/2000/svg">
<path fill-rule="evenodd" clip-rule="evenodd" d="M2 7C2 5.89543 2.89543 5 4 5H14C15.1046 5 16 5.89543 16 7V17C16 18.1046 15.1046 19 14 19H4C2.89543 19 2 18.1046 2 17V7ZM17 9L20.6286 7.54856C21.2855 7.28581 22 7.76957 22 8.47703V15.523C22 16.2304 21.2855 16.7142 20.6286 16.4514L17 15V9ZM12 8.375L6 8.375C5.65482 8.375 5.375 8.65482 5.375 9C5.375 9.34518 5.65482 9.625 6 9.625L10.4911 9.625L5.55806 14.5581C5.31398 14.8021 5.31398 15.1979 5.55806 15.4419C5.80214 15.686 6.19786 15.686 6.44194 15.4419L11.375 10.5089V15C11.375 15.3452 11.6548 15.625 12 15.625C12.3452 15.625 12.625 15.3452 12.625 15V9C12.625 8.83424 12.5592 8.67527 12.4419 8.55806C12.3247 8.44085 12.1658 8.375 12 8.375Z" fill="#121212" fill-opacity="0.28"/>
</svg>
