<svg width="28" height="28" viewBox="0 0 28 28" fill="none" xmlns="http://www.w3.org/2000/svg">
<path d="M22.4584 3.5C23.6187 3.5 24.7315 3.96094 25.5519 4.78141C26.3724 5.60188 26.8334 6.71468 26.8334 7.875V20.125C26.8334 21.2853 26.3724 22.3981 25.5519 23.2186C24.7315 24.0391 23.6187 24.5 22.4584 24.5H5.54169C4.96715 24.5 4.39825 24.3868 3.86745 24.167C3.33665 23.9471 2.85435 23.6248 2.44809 23.2186C1.62762 22.3981 1.16669 21.2853 1.16669 20.125V7.875C1.16669 6.71468 1.62762 5.60188 2.44809 4.78141C3.26857 3.96094 4.38137 3.5 5.54169 3.5H22.4584ZM17.6779 14.0192L17.5689 14.0916L5.23019 22.7319C5.33227 22.7436 5.4361 22.75 5.54169 22.75H22.4584C23.1545 22.75 23.8222 22.4734 24.3145 21.9812C24.8068 21.4889 25.0834 20.8212 25.0834 20.125L25.0804 20.2428L21.2246 14.7362C20.8384 14.1844 20.2548 13.8022 19.5947 13.6687C18.9345 13.5351 18.2483 13.6604 17.6779 14.0187V14.0192ZM22.4584 5.25H5.54169C5.19697 5.25 4.85562 5.3179 4.53714 5.44982C4.21866 5.58174 3.92929 5.77509 3.68553 6.01884C3.44178 6.2626 3.24842 6.55198 3.1165 6.87046C2.98458 7.18894 2.91669 7.53028 2.91669 7.875V20.125C2.91669 20.7591 3.14185 21.3407 3.51577 21.7945L16.5649 12.6583C17.4937 12.0082 18.6385 11.7441 19.7582 11.9214C20.8779 12.0988 21.8851 12.7039 22.5674 13.6092L22.6579 13.7328L25.0834 17.1967V7.875C25.0834 7.20022 24.8235 6.55135 24.3577 6.0631C23.892 5.57484 23.2561 5.28471 22.582 5.25292L22.4584 5.25ZM5.83335 6.41667C6.06317 6.41667 6.29073 6.46193 6.50305 6.54988C6.71537 6.63782 6.90829 6.76673 7.07079 6.92923C7.23329 7.09173 7.3622 7.28465 7.45014 7.49697C7.53809 7.70929 7.58335 7.93685 7.58335 8.16667C7.58335 8.39648 7.53809 8.62404 7.45014 8.83636C7.3622 9.04868 7.23329 9.2416 7.07079 9.4041C6.90829 9.56661 6.71537 9.69551 6.50305 9.78346C6.29073 9.8714 6.06317 9.91667 5.83335 9.91667C5.36922 9.91667 4.92411 9.73229 4.59592 9.4041C4.26773 9.07592 4.08335 8.6308 4.08335 8.16667C4.08335 7.70254 4.26773 7.25742 4.59592 6.92923C4.92411 6.60104 5.36922 6.41667 5.83335 6.41667Z" fill="#121212"/>
</svg>
