<svg width="28" height="28" viewBox="0 0 28 28" fill="none" xmlns="http://www.w3.org/2000/svg">
<rect width="28" height="28" rx="8" fill="#8E8E93"/>
<path fill-rule="evenodd" clip-rule="evenodd" d="M9.02135 12.7972L9.02097 9.34557C9.02097 7.6176 9.85843 6.49348 10.9335 5.83379C11.97 5.19773 13.206 4.99988 14.1011 4.99988C14.998 4.99988 16.1822 5.19844 17.1645 5.84534C18.1861 6.51807 18.9365 7.64532 18.9365 9.34557V12.6858C20.2656 13.2383 21.2002 14.5492 21.2002 16.0783V19.2611C21.2002 21.2893 19.556 22.9335 17.5278 22.9335H10.6726C8.64438 22.9335 7.00018 21.2893 7.00018 19.2611V16.0783C7.00018 14.644 7.82247 13.4017 9.02135 12.7972ZM10.3675 9.34557C10.3675 8.1356 10.9174 7.42351 11.6378 6.98148C12.3966 6.51582 13.3641 6.34643 14.1011 6.34643C14.8364 6.34643 15.7333 6.5151 16.4239 6.96994C17.0754 7.39893 17.5899 8.10789 17.5899 9.34557V12.4064C17.5693 12.4061 17.5485 12.4059 17.5278 12.4059H10.6726C10.57 12.4059 10.4683 12.4101 10.3678 12.4184L10.3675 9.34557Z" fill="white"/>
</svg>
