<svg width="24" height="24" viewBox="0 0 24 24" fill="none" xmlns="http://www.w3.org/2000/svg">
<path fill-rule="evenodd" clip-rule="evenodd" d="M3.74999 11.9997C3.74999 7.4434 7.44364 3.74974 12 3.74974C16.5563 3.74974 20.25 7.4434 20.25 11.9997C20.25 16.5561 16.5563 20.2497 12 20.2497C7.44364 20.2497 3.74999 16.5561 3.74999 11.9997ZM12 2.24974C6.61521 2.24974 2.24999 6.61497 2.24999 11.9997C2.24999 17.3845 6.61521 21.7497 12 21.7497C17.3848 21.7497 21.75 17.3845 21.75 11.9997C21.75 6.61497 17.3848 2.24974 12 2.24974ZM14.584 14.6236C14.9287 14.8534 15.3943 14.7603 15.6241 14.4156C15.8538 14.071 15.7607 13.6053 15.4161 13.3756L12.75 11.5982V5.99961C12.75 5.58539 12.4143 5.24961 12 5.24961C11.5858 5.24961 11.25 5.58539 11.25 5.99961V11.9996V12.401L11.584 12.6236L14.584 14.6236Z" fill="black"/>
</svg>
