<svg width="24" height="24" viewBox="0 0 24 24" fill="none" xmlns="http://www.w3.org/2000/svg">
<path fill-rule="evenodd" clip-rule="evenodd" d="M13.7194 6.28033C13.4265 5.98744 13.4265 5.51256 13.7194 5.21967C14.0123 4.92678 14.4872 4.92678 14.7801 5.21967L17.7801 8.21967C18.073 8.51256 18.073 8.98744 17.7801 9.28033L14.7801 12.2803C14.4872 12.5732 14.0123 12.5732 13.7194 12.2803C13.4265 11.9874 13.4265 11.5126 13.7194 11.2197L15.4391 9.5H11.2499C8.90263 9.5 6.99982 11.4029 6.99988 13.7501C6.99994 16.0973 8.90271 18 11.2499 18H17.2498C17.664 18 17.9998 18.3358 17.9998 18.75C17.9998 19.1642 17.664 19.5 17.2498 19.5H11.2499C8.0743 19.5 5.49996 16.9257 5.49988 13.7501C5.4998 10.5745 8.07419 8 11.2499 8H15.4391L13.7194 6.28033Z" fill="#121212"/>
</svg>
