<svg width="25" height="24" viewBox="0 0 25 24" fill="none" xmlns="http://www.w3.org/2000/svg">
<path fill-rule="evenodd" clip-rule="evenodd" d="M17.3071 7.74286H19.0214C20.2838 7.74286 21.3071 8.76617 21.3071 10.0286V11H21.3086V19H21.3071V19.7143C21.3071 20.9767 20.2838 22 19.0214 22H5.53571C4.27331 22 3.25 20.9767 3.25 19.7143V10.0286C3.25 8.76617 4.27331 7.74286 5.53571 7.74286H7.25V6.02857C7.25 3.25131 9.50132 1 12.2786 1C15.0558 1 17.3071 3.25143 17.3071 6.02857V7.74286ZM19.7071 10.0286V11V19V19.7143C19.7071 20.0923 19.3996 20.4 19.0214 20.4H5.53571C5.15754 20.4 4.85 20.0923 4.85 19.7143V10.0286C4.85 9.65051 5.15754 9.34286 5.53571 9.34286H19.0214C19.3996 9.34286 19.7071 9.65051 19.7071 10.0286ZM12.2786 2.6C10.3881 2.6 8.85 4.13806 8.85 6.02857V7.74286H15.7071V6.02857C15.7071 4.13806 14.1691 2.6 12.2786 2.6ZM11.6561 13.146C11.8136 12.9885 12.0273 12.9 12.25 12.9C12.4728 12.9 12.6865 12.9885 12.844 13.146C13.0015 13.3036 13.09 13.5172 13.09 13.74V17.82C13.09 17.9303 13.0683 18.0395 13.0261 18.1414C12.9839 18.2434 12.922 18.336 12.844 18.414C12.766 18.492 12.6734 18.5538 12.5715 18.5961C12.4696 18.6383 12.3603 18.66 12.25 18.66C12.1397 18.66 12.0305 18.6383 11.9286 18.5961C11.8267 18.5538 11.7341 18.492 11.6561 18.414C11.5781 18.336 11.5162 18.2434 11.474 18.1414C11.4318 18.0395 11.41 17.9303 11.41 17.82V13.74C11.41 13.5172 11.4985 13.3036 11.6561 13.146Z" fill="#121212"/>
</svg>
