<svg width="24" height="25" viewBox="0 0 24 25" fill="none" xmlns="http://www.w3.org/2000/svg">
<path d="M9.9417 19.2997C14.6517 19.2997 15.7603 20.1997 19.2603 23.1997C19.6643 23.5453 20.25 23.6997 20.25 22.1997C20.25 18.1997 17.2448 11.1997 9.9417 12.0997V9.39966C9.9417 8.43014 9.5 7.899 9.25 7.69919C9 7.49938 8.5 8.00344 8.5 8.00344L1.12419 14.999C1.12419 14.999 0.75 15.1962 0.75 15.6995C0.75 16.2027 1.5 16.8796 1.5 16.8796L8.16276 23.1997C8.16276 23.1997 8.83832 23.6995 9.25 23.6995C9.66168 23.6995 9.9417 23.4783 9.9417 21.9997V19.2997Z" stroke="#007AFF" stroke-width="1.5" stroke-linecap="round" stroke-linejoin="round"/>
<path fill-rule="evenodd" clip-rule="evenodd" d="M18.0006 2.7C18.0006 3.91503 17.0156 4.9 15.8006 4.9C14.5856 4.9 13.6006 3.91503 13.6006 2.7C13.6006 1.48497 14.5856 0.5 15.8006 0.5C17.0156 0.5 18.0006 1.48497 18.0006 2.7ZM15.8006 3.7C16.3529 3.7 16.8006 3.25228 16.8006 2.7C16.8006 2.14772 16.3529 1.7 15.8006 1.7C15.2483 1.7 14.8006 2.14772 14.8006 2.7C14.8006 3.25228 15.2483 3.7 15.8006 3.7Z" fill="#007AFF"/>
<path fill-rule="evenodd" clip-rule="evenodd" d="M17.0508 2.7002C17.0508 2.28598 17.3866 1.9502 17.8008 1.9502H22.8008C23.215 1.9502 23.5508 2.28598 23.5508 2.7002C23.5508 3.11441 23.215 3.4502 22.8008 3.4502H17.8008C17.3866 3.4502 17.0508 3.11441 17.0508 2.7002Z" fill="#007AFF"/>
<path fill-rule="evenodd" clip-rule="evenodd" d="M14.1953 7.7002C14.1953 7.28598 14.5311 6.9502 14.9453 6.9502L19.3008 6.9502C19.715 6.9502 20.0508 7.28598 20.0508 7.7002C20.0508 8.11441 19.715 8.4502 19.3008 8.4502L14.9453 8.4502C14.5311 8.4502 14.1953 8.11441 14.1953 7.7002Z" fill="#007AFF"/>
<path fill-rule="evenodd" clip-rule="evenodd" d="M24.0006 7.7C24.0006 8.91503 23.0156 9.9 21.8006 9.9C20.5856 9.9 19.6006 8.91503 19.6006 7.7C19.6006 6.48497 20.5856 5.5 21.8006 5.5C23.0156 5.5 24.0006 6.48497 24.0006 7.7ZM21.8006 8.7C22.3529 8.7 22.8006 8.25228 22.8006 7.7C22.8006 7.14772 22.3529 6.7 21.8006 6.7C21.2483 6.7 20.8006 7.14772 20.8006 7.7C20.8006 8.25228 21.2483 8.7 21.8006 8.7Z" fill="#007AFF"/>
</svg>
