<svg width="24" height="24" viewBox="0 0 24 24" fill="none" xmlns="http://www.w3.org/2000/svg">
<path fill-rule="evenodd" clip-rule="evenodd" d="M4.99484 6.13094L2.21967 3.35577C1.92678 3.06288 1.92678 2.588 2.21967 2.29511C2.51256 2.00222 2.98744 2.00222 3.28033 2.29511L6.0555 5.07028L7.41557 3.71021C8.29425 2.83153 9.71887 2.83153 10.5975 3.71021L18.9174 12.03L19.5669 11.3805C19.8598 11.0876 20.3347 11.0876 20.6276 11.3805C20.9205 11.6734 20.9205 12.1483 20.6276 12.4412L17.1038 15.9649L19.598 18.4591L21.5428 16.5144C21.8357 16.2215 22.3106 16.2215 22.6035 16.5144C22.8964 16.8073 22.8964 17.2821 22.6035 17.575L20.1796 19.9989C20.1644 20.0174 20.1481 20.0353 20.1308 20.0526C20.1135 20.0698 20.0956 20.0861 20.0771 20.1013L17.6481 22.5304C17.3552 22.8233 16.8803 22.8233 16.5874 22.5304C16.2945 22.2375 16.2945 21.7627 16.5874 21.4698L18.5374 19.5198L16.0432 17.0256L12.3685 20.7002C12.0757 20.9931 11.6008 20.9931 11.3079 20.7002C11.015 20.4073 11.015 19.9324 11.3079 19.6395L11.9574 18.99L3.63759 10.6702C2.75891 9.79148 2.75891 8.36686 3.63759 7.48818L4.99484 6.13094ZM9.53689 4.77087L17.8567 13.0907L13.0181 17.9293L10.7233 15.6345C10.7394 15.6209 10.7551 15.6065 10.7703 15.5913L13.248 13.1136C13.5409 12.8207 13.5409 12.3458 13.248 12.0529C12.9551 11.76 12.4802 11.76 12.1873 12.0529L9.70963 14.5306C9.69444 14.5458 9.68003 14.5615 9.66641 14.5777L7.41293 12.3242C7.42694 12.3121 7.4406 12.2994 7.45389 12.2861L9.93159 9.80842C10.2245 9.51553 10.2245 9.04066 9.93159 8.74776C9.6387 8.45487 9.16383 8.45487 8.87093 8.74776L6.39323 11.2255C6.37994 11.2388 6.36725 11.2524 6.35517 11.2664L4.69825 9.6095C4.40536 9.31661 4.40536 8.84174 4.69825 8.54884L8.47623 4.77087C8.76912 4.47797 9.244 4.47797 9.53689 4.77087Z" fill="black"/>
</svg>
