<svg width="24" height="24" viewBox="0 0 24 24" fill="none" xmlns="http://www.w3.org/2000/svg">
    <path fill-rule="evenodd" clip-rule="evenodd" d="M16.5 11C16.5 14.0376 14.0376 16.5 11 16.5C7.96243 16.5 5.5 14.0376 5.5 11C5.5 7.96243 7.96243 5.5 11 5.5C14.0376 5.5 16.5 7.96243 16.5 11ZM15.3974 16.4467C14.1956 17.4182 12.6657 18 11 18C7.13401 18 4 14.866 4 11C4 7.13401 7.13401 4 11 4C14.866 4 18 7.13401 18 11C18 12.6657 17.4182 14.1956 16.4467 15.3974C16.4759 15.4191 16.5038 15.4432 16.5303 15.4697L20.5303 19.4697C20.8232 19.7626 20.8232 20.2374 20.5303 20.5303C20.2374 20.8232 19.7626 20.8232 19.4697 20.5303L15.4697 16.5303C15.4432 16.5038 15.4191 16.4759 15.3974 16.4467Z" fill="#121212" fill-opacity="0.4"/>
</svg>
