<svg width="24" height="24" viewBox="0 0 24 24" fill="none" xmlns="http://www.w3.org/2000/svg">
<path fill-rule="evenodd" clip-rule="evenodd" d="M15.75 1.5C15.75 1.08579 15.4142 0.75 15 0.75C14.5858 0.75 14.25 1.08579 14.25 1.5V2.25H7.75V1.5C7.75 1.08579 7.41421 0.75 7 0.75C6.58579 0.75 6.25 1.08579 6.25 1.5V2.25H6C3.37665 2.25 1.25 4.37665 1.25 7V16C1.25 18.6234 3.37665 20.75 6 20.75H10.5C10.9142 20.75 11.25 20.4142 11.25 20C11.25 19.5858 10.9142 19.25 10.5 19.25H6C4.20507 19.25 2.75 17.7949 2.75 16V7C2.75 5.20507 4.20507 3.75 6 3.75H6.25V4.5C6.25 4.91421 6.58579 5.25 7 5.25C7.41421 5.25 7.75 4.91421 7.75 4.5V3.75H14.25V4.5C14.25 4.91421 14.5858 5.25 15 5.25C15.4142 5.25 15.75 4.91421 15.75 4.5V3.75H16C17.7949 3.75 19.25 5.20507 19.25 7V10.5C19.25 10.9142 19.5858 11.25 20 11.25C20.4142 11.25 20.75 10.9142 20.75 10.5V7C20.75 4.37665 18.6234 2.25 16 2.25H15.75V1.5ZM17 8.75C17.4142 8.75 17.75 8.41421 17.75 8C17.75 7.58579 17.4142 7.25 17 7.25H5C4.58579 7.25 4.25 7.58579 4.25 8C4.25 8.41421 4.58579 8.75 5 8.75H17ZM16 12.75C14.2051 12.75 12.75 14.2051 12.75 16C12.75 17.7949 14.2051 19.25 16 19.25C17.7949 19.25 19.25 17.7949 19.25 16C19.25 14.2051 17.7949 12.75 16 12.75ZM11.25 16C11.25 13.3766 13.3766 11.25 16 11.25C18.6234 11.25 20.75 13.3766 20.75 16C20.75 17.041 20.4151 18.0038 19.8472 18.7865L23.0303 21.9697C23.3232 22.2626 23.3232 22.7374 23.0303 23.0303C22.7374 23.3232 22.2626 23.3232 21.9697 23.0303L18.7865 19.8472C18.0038 20.4151 17.041 20.75 16 20.75C13.3766 20.75 11.25 18.6234 11.25 16Z" fill="#007AFF"/>
</svg>
