<svg width="24" height="24" viewBox="0 0 24 24" fill="none" xmlns="http://www.w3.org/2000/svg">
<path fill-rule="evenodd" clip-rule="evenodd" d="M7.26153 5.25C7.26153 3.45507 8.71661 2 10.5115 2C12.3065 2 13.7615 3.45507 13.7615 5.25C13.7615 7.04493 12.3065 8.5 10.5115 8.5C8.71661 8.5 7.26153 7.04493 7.26153 5.25ZM10.5115 0.5C7.88818 0.5 5.76153 2.62665 5.76153 5.25C5.76153 7.87335 7.88818 10 10.5115 10C13.1349 10 15.2615 7.87335 15.2615 5.25C15.2615 2.62665 13.1349 0.5 10.5115 0.5ZM12.2615 16.25C12.2615 14.4551 13.7166 13 15.5115 13C17.3065 13 18.7615 14.4551 18.7615 16.25C18.7615 18.0449 17.3065 19.5 15.5115 19.5C13.7166 19.5 12.2615 18.0449 12.2615 16.25ZM15.5115 11.5C12.8882 11.5 10.7615 13.6266 10.7615 16.25C10.7615 18.8734 12.8882 21 15.5115 21C16.5525 21 17.5153 20.6651 18.2981 20.0972L21.4812 23.2803C21.7741 23.5732 22.249 23.5732 22.5419 23.2803C22.8348 22.9874 22.8348 22.5126 22.5419 22.2197L19.3587 19.0365C19.9266 18.2538 20.2615 17.291 20.2615 16.25C20.2615 13.6266 18.1349 11.5 15.5115 11.5ZM3.70872 13.7867C5.29355 12.4878 7.53249 11.5 9.98398 11.5C10.3982 11.5 10.734 11.8358 10.734 12.25C10.734 12.6642 10.3982 13 9.98398 13C7.92803 13 6.01662 13.8346 4.65957 14.9468C3.98249 15.5018 3.46386 16.1094 3.13712 16.6878C2.80593 17.274 2.70111 17.7755 2.7526 18.147C2.81352 18.5866 2.90975 18.7867 3.01617 18.9052C3.12065 19.0216 3.32502 19.1588 3.82167 19.2672C4.32272 19.3766 5.03159 19.438 6.05516 19.4691C7.07161 19.4999 8.35196 19.5 9.98157 19.5C10.3958 19.5 10.7316 19.8358 10.7316 20.25C10.7316 20.6642 10.3958 21 9.98157 21H9.97006C8.35459 21 7.05163 21 6.00968 20.9684C4.97239 20.9369 4.14656 20.8734 3.50188 20.7327C2.85281 20.5911 2.30044 20.3534 1.89996 19.9072C1.50142 19.4633 1.34447 18.9134 1.2668 18.353C1.15509 17.5469 1.40203 16.7095 1.83112 15.95C2.26467 15.1825 2.91486 14.4374 3.70872 13.7867Z" fill="#007AFF"/>
</svg>
