<svg width="25" height="24" viewBox="0 0 25 24" fill="none" xmlns="http://www.w3.org/2000/svg">
<path fill-rule="evenodd" clip-rule="evenodd" d="M18 11C18 14.0376 15.5376 16.5 12.5 16.5C9.46243 16.5 7 14.0376 7 11C7 7.96243 9.46243 5.5 12.5 5.5C15.5376 5.5 18 7.96243 18 11ZM16.8974 16.4467C15.6956 17.4182 14.1657 18 12.5 18C8.63401 18 5.5 14.866 5.5 11C5.5 7.13401 8.63401 4 12.5 4C16.366 4 19.5 7.13401 19.5 11C19.5 12.6657 18.9182 14.1956 17.9467 15.3974C17.9759 15.4191 18.0038 15.4432 18.0303 15.4697L22.0303 19.4697C22.3232 19.7626 22.3232 20.2374 22.0303 20.5303C21.7374 20.8232 21.2626 20.8232 20.9697 20.5303L16.9697 16.5303C16.9432 16.5038 16.9191 16.4759 16.8974 16.4467Z" fill="black"/>
</svg>
