<svg width="16" height="16" viewBox="0 0 16 16" fill="none" xmlns="http://www.w3.org/2000/svg">
<g clip-path="url(#clip0_6691_77807)">
<path d="M14.9476 7.18414L13.4796 6.21214C13.2196 6.04014 13.0916 5.72814 13.1516 5.42014L13.4996 3.69214C13.5636 3.36814 13.4636 3.03214 13.2316 2.79614C12.9956 2.56014 12.6636 2.46014 12.3356 2.52814L10.6076 2.87614C10.2996 2.94014 9.99155 2.80814 9.81555 2.54814L8.83955 1.08014C8.65555 0.804137 8.34755 0.640137 8.01555 0.640137C7.68355 0.640137 7.37555 0.804137 7.19155 1.08014L6.21555 2.54814C6.04355 2.80814 5.73155 2.93614 5.42355 2.87614L3.69555 2.52814C3.37155 2.46414 3.03555 2.56414 2.79955 2.79614C2.56355 3.03214 2.46355 3.36414 2.53155 3.69214L2.87955 5.42014C2.93955 5.72814 2.81155 6.03614 2.55155 6.21214L1.08355 7.18814C0.807555 7.37214 0.643555 7.68014 0.643555 8.01214C0.643555 8.34414 0.807555 8.65214 1.08355 8.83614L2.55155 9.81214C2.81155 9.98414 2.93955 10.2961 2.87955 10.6041L2.53155 12.3321C2.46755 12.6561 2.56755 12.9921 2.79955 13.2281C3.03555 13.4641 3.36755 13.5641 3.69555 13.4961L5.42355 13.1481C5.73155 13.0841 6.03955 13.2161 6.21555 13.4761L7.19155 14.9441C7.37555 15.2201 7.68355 15.3841 8.01555 15.3841C8.34755 15.3841 8.65555 15.2201 8.83955 14.9441L9.81555 13.4761C9.98755 13.2161 10.2996 13.0881 10.6076 13.1481L12.3356 13.4961C12.6596 13.5601 12.9956 13.4601 13.2316 13.2281C13.4676 12.9921 13.5676 12.6601 13.4996 12.3321L13.1516 10.6041C13.0916 10.2961 13.2196 9.98814 13.4796 9.81214L14.9476 8.83614C15.2236 8.65214 15.3876 8.34414 15.3876 8.01214C15.3876 7.68014 15.2236 7.36814 14.9476 7.18414ZM11.0516 6.84014L7.74755 10.2001C7.65555 10.2961 7.53155 10.3441 7.40355 10.3441C7.29155 10.3441 7.17555 10.3041 7.08755 10.2241L4.92755 8.31614C4.72755 8.14014 4.71155 7.83614 4.88355 7.64014C5.05955 7.44014 5.36355 7.42414 5.55955 7.59614L7.37955 9.20414L10.3636 6.16814C10.5476 5.98014 10.8516 5.97614 11.0436 6.16414C11.2356 6.34414 11.2356 6.64814 11.0516 6.84014Z" fill="#007AFF"/>
</g>
<defs>
<clipPath id="clip0_6691_77807">
<rect width="16" height="16" fill="white"/>
</clipPath>
</defs>
</svg>
