<svg width="28" height="28" viewBox="0 0 28 28" fill="none" xmlns="http://www.w3.org/2000/svg">
<rect width="28" height="28" rx="8" fill="#3478F6"/>
<path fill-rule="evenodd" clip-rule="evenodd" d="M22.7719 14C22.7719 18.8446 18.8446 22.7719 14 22.7719C9.1554 22.7719 5.22807 18.8446 5.22807 14C5.22807 9.1554 9.1554 5.22807 14 5.22807C18.8446 5.22807 22.7719 9.1554 22.7719 14ZM24 14C24 19.5228 19.5228 24 14 24C8.47715 24 4 19.5228 4 14C4 8.47715 8.47715 4 14 4C19.5228 4 24 8.47715 24 14ZM10.5381 12.3637C10.6402 12.5378 10.8921 12.537 10.993 12.3622L14.2766 6.67492C14.3805 6.49487 14.2431 6.27143 14.0356 6.28409C11.3307 6.44915 10.4137 6.92444 8.51617 8.47681C8.4162 8.55859 8.39067 8.70136 8.456 8.81278L10.5381 12.3637ZM13.9265 10.6227C13.7247 10.6227 13.598 10.405 13.6977 10.2295L15.7319 6.65091C15.7957 6.53863 15.9321 6.48934 16.0529 6.53503C18.3461 7.40218 19.2162 7.95863 20.7116 10.2187C20.8263 10.392 20.7015 10.6227 20.4936 10.6227H13.9265ZM17.0844 11.8697C16.8826 11.8711 16.7573 12.0897 16.8582 12.2645L20.1418 17.9518C20.2457 18.1318 20.5079 18.1245 20.6007 17.9385C21.8103 15.5134 21.8571 14.4817 21.4615 12.0621C21.4407 11.9347 21.3298 11.8412 21.2006 11.8421L17.0844 11.8697ZM16.998 15.6197C17.0989 15.445 17.3509 15.4441 17.453 15.6182L19.5351 19.1692C19.6004 19.2806 19.5749 19.4234 19.4749 19.5051C17.5773 21.0575 16.6604 21.5328 13.9554 21.6978C13.7479 21.7105 13.6105 21.4871 13.7145 21.307L16.998 15.6197ZM14.0745 17.3771C14.2763 17.3771 14.403 17.5949 14.3033 17.7703L12.2691 21.349C12.2053 21.4613 12.0689 21.5105 11.9481 21.4649C9.65492 20.5977 8.78484 20.0413 7.28942 17.7812C7.1747 17.6078 7.2995 17.3771 7.50741 17.3771H14.0745ZM11.1328 15.7175C11.2337 15.8922 11.1085 16.1109 10.9067 16.1122L6.79043 16.1399C6.66128 16.1408 6.55039 16.0473 6.52955 15.9198C6.13394 13.5003 6.1808 12.4685 7.39033 10.0434C7.48313 9.8574 7.74533 9.85013 7.84928 10.0302L11.1328 15.7175Z" fill="white"/>
</svg>
