<svg width="28" height="29" viewBox="0 0 28 29" fill="none" xmlns="http://www.w3.org/2000/svg">
<rect y="0.5" width="28" height="28" rx="8" fill="#5AC63A"/>
<path d="M15.1629 15.8054L14.1676 15.3724L13.1723 14.9393C13.1723 14.9393 12.8822 14.6338 12.842 14.2203L12.8576 13.9308C13.324 13.6046 13.6766 13.1153 13.8976 12.5364C14.567 12.518 14.5804 10.8548 14.2479 10.6756C14.364 9.32022 14.3617 6.9931 11.3156 6.96094H11.2576C8.21146 6.9931 8.207 9.32252 8.32527 10.6779C7.99276 10.8548 8.00615 12.5203 8.67563 12.5387C8.89879 13.1176 9.24915 13.6069 9.71555 13.9331L9.73118 14.2226C9.68878 14.6361 9.4009 14.9416 9.4009 14.9416L7.41032 15.8054C4.71902 17.379 5.00913 20.4551 5.00913 20.4551C5.00913 20.4551 6.39048 22.031 11.2687 22.0379H11.3C16.1782 22.031 17.5596 20.4551 17.5596 20.4551C17.5596 20.4551 17.8519 17.379 15.1629 15.8054ZM22.0404 15.1461L20.4247 14.4431C20.4247 14.4431 20.1904 14.195 20.1569 13.8573L20.1681 13.623C20.5475 13.3588 20.8331 12.9614 21.0139 12.4904C21.5584 12.4767 21.5673 11.1259 21.2995 10.9811C21.3932 9.88305 21.391 7.99241 18.9206 7.96714H18.8715C16.3989 7.99241 16.3967 9.88076 16.4927 10.9811C16.2226 11.1259 16.2338 12.4767 16.7783 12.4904C16.9591 12.9591 17.2447 13.3565 17.6241 13.623L17.6352 13.8573C17.6018 14.1927 17.3674 14.4431 17.3674 14.4431L15.7027 15.1622C15.7027 15.1622 16.9033 16.0466 17.4545 17.255C18.0525 18.5621 18.1217 20.184 18.1217 20.184C18.1217 20.184 18.5837 20.2024 18.8872 20.2046H18.9117C22.8728 20.2001 23.993 18.9205 23.993 18.9205C23.993 18.9205 24.2229 16.4211 22.0404 15.1461Z" fill="white"/>
</svg>
