<svg width="24" height="24" viewBox="0 0 24 24" fill="none" xmlns="http://www.w3.org/2000/svg">
<g clip-path="url(#clip0_34_14898)">
<path d="M7.23913 10.9074C6.85294 10.217 6.11209 9.74995 5.2616 9.74995C4.01255 9.74995 3 10.7573 3 12C3 13.2426 4.01255 14.25 5.2616 14.25C6.11209 14.25 6.85294 13.7829 7.23913 13.0926M7.23913 10.9074C7.42011 11.2309 7.52321 11.6034 7.52321 12C7.52321 12.3965 7.42011 12.769 7.23913 13.0926M7.23913 10.9074L15.665 6.15001M15.665 6.15001C16.014 6.94468 16.811 7.50002 17.7384 7.50002C18.9874 7.50002 20 6.49266 20 5.25001C20 4.00736 18.9874 3 17.7384 3C16.4893 3 15.4768 4.00736 15.4768 5.25001C15.4768 5.57001 15.5439 5.87441 15.665 6.15001ZM15.665 17.85C15.5439 18.1256 15.4768 18.43 15.4768 18.75C15.4768 19.9926 16.4893 21 17.7384 21C18.9874 21 20 19.9926 20 18.75C20 17.5073 18.9874 16.5 17.7384 16.5C16.811 16.5 16.014 17.0553 15.665 17.85ZM15.665 17.85L7.23913 13.0926" stroke="#121212" stroke-width="1.5"/>
</g>
<defs>
<clipPath id="clip0_34_14898">
<rect width="24" height="24" fill="white"/>
</clipPath>
</defs>
</svg>
