<svg width="18" height="18" viewBox="0 0 18 18" fill="none" xmlns="http://www.w3.org/2000/svg">
<path d="M9.9 0.9C9.9 0.3 9.6 0 9 0C8.4 0 8.1 0.3 8.1 0.9V9.9C8.1 10.5 8.4 10.8 9 10.8C9.6 10.8 9.9 10.5 9.9 9.9V0.9Z" fill="white"/>
<path d="M4.9767 1.01654C4.85925 1.02993 4.74559 1.06633 4.6422 1.12365C3.23517 1.90187 2.06241 3.04296 1.24599 4.42817C0.429567 5.81339 -0.000688339 7.39209 8.26607e-07 9C8.26607e-07 13.9707 4.0293 18 9 18C13.9707 18 18 13.9707 18 9C18.0007 7.44205 17.5968 5.91062 16.8278 4.55571C16.0587 3.2008 14.951 2.06887 13.6129 1.2708C13.5115 1.21014 13.3991 1.17005 13.2822 1.15283C13.1653 1.1356 13.0461 1.14158 12.9315 1.17041C12.8168 1.19924 12.709 1.25037 12.6142 1.32087C12.5193 1.39137 12.4393 1.47987 12.3786 1.5813C12.3179 1.68274 12.2779 1.79513 12.2606 1.91206C12.2434 2.02899 12.2494 2.14816 12.2782 2.26278C12.307 2.3774 12.3582 2.48522 12.4287 2.58008C12.4992 2.67495 12.5877 2.75499 12.6891 2.81565C14.85 4.1076 16.2 6.43635 16.2 9C16.2 12.9767 12.9766 16.2 9 16.2C5.02335 16.2 1.8 12.9767 1.8 9C1.79943 7.7134 2.14378 6.45018 2.79719 5.34185C3.4506 4.23353 4.38918 3.32062 5.5152 2.6982C5.61859 2.64088 5.70967 2.56376 5.78325 2.47123C5.85683 2.37871 5.91147 2.2726 5.94404 2.15896C5.97661 2.04533 5.98648 1.92638 5.97309 1.80893C5.95969 1.69148 5.9233 1.57781 5.86597 1.47443C5.80865 1.37104 5.73153 1.27996 5.63901 1.20638C5.54648 1.1328 5.44037 1.07816 5.32674 1.04559C5.2131 1.01302 5.09416 1.00314 4.9767 1.01654Z" fill="white"/>
</svg>
