<svg width="24" height="24" viewBox="0 0 24 24" fill="none" xmlns="http://www.w3.org/2000/svg">
<path d="M6.60726 1.55983C6.36413 1.22448 5.89518 1.14972 5.55983 1.39285C5.22448 1.63598 5.14972 2.10493 5.39285 2.44028L19.8928 22.4403C20.136 22.7756 20.6049 22.8504 20.9403 22.6073C21.2756 22.3641 21.3504 21.8952 21.1073 21.5598L15.9999 14.5153V5.40121C15.9999 3.35084 13.5542 2.24727 11.976 3.58553C11.2506 4.20066 10.3485 4.96597 9.56106 5.63403L6.60726 1.55983Z" fill="#121212"/>
<path d="M20.9824 6.06346C20.6653 5.79702 20.1922 5.83814 19.9257 6.15529C19.6593 6.47244 19.7004 6.94553 20.0176 7.21197C21.3837 8.35963 22.25 10.0782 22.25 11.9998C22.25 13.9215 21.3837 15.64 20.0176 16.7877C19.7004 17.0541 19.6593 17.5272 19.9257 17.8444C20.1922 18.1615 20.6653 18.2026 20.9824 17.9362C22.6733 16.5157 23.75 14.3832 23.75 11.9998C23.75 9.6165 22.6733 7.48394 20.9824 6.06346Z" fill="#121212"/>
<path d="M18.7905 8.15559C18.4555 7.91203 17.9864 7.98619 17.7428 8.32123C17.4993 8.65626 17.5734 9.12531 17.9085 9.36887C18.7229 9.96094 19.25 10.9188 19.25 11.9998C19.25 13.0809 18.7229 14.0387 17.9085 14.6308C17.5734 14.8743 17.4993 15.3434 17.7428 15.6784C17.9864 16.0135 18.4555 16.0876 18.7905 15.8441C19.9765 14.9819 20.75 13.5812 20.75 11.9998C20.75 10.4185 19.9765 9.01775 18.7905 8.15559Z" fill="#121212"/>
<path d="M7.08214 7.28516H3.82609C1.71299 7.28516 0 8.97126 0 11.0512V12.9474C0 15.0274 1.71301 16.7134 3.82609 16.7134H7.48333C7.56669 16.7134 7.64728 16.7429 7.71036 16.7964L11.9761 20.4138C13.3865 21.6097 15.4901 20.8555 15.9211 19.2178L7.08214 7.28516Z" fill="#121212"/>
</svg>
