<svg width="28" height="28" viewBox="0 0 28 28" fill="none" xmlns="http://www.w3.org/2000/svg">
<path fill-rule="evenodd" clip-rule="evenodd" d="M2.5809 13.9188C1.79986 14.6998 1.79985 15.9662 2.5809 16.7472L11.3019 25.4682C12.0829 26.2492 13.3493 26.2492 14.1303 25.4682L24.3627 15.2358C24.8194 14.7791 25.0275 14.1299 24.9213 13.4928L23.6754 6.01767C23.5349 5.17472 22.8744 4.51417 22.0314 4.37368L14.5563 3.12782C13.9192 3.02164 13.27 3.22968 12.8133 3.6864L2.5809 13.9188ZM18.4906 12.8586C19.4018 11.9473 19.4018 10.4699 18.4906 9.55872C17.5794 8.6475 16.102 8.6475 15.1908 9.55872C14.2796 10.4699 14.2796 11.9473 15.1908 12.8586C16.102 13.7698 17.5794 13.7698 18.4906 12.8586Z" fill="white"/>
</svg>
