<svg width="17" height="16" viewBox="0 0 17 16" fill="none" xmlns="http://www.w3.org/2000/svg">
<path fill-rule="evenodd" clip-rule="evenodd" d="M8.5 14C11.8137 14 14.5 11.3137 14.5 8C14.5 4.68629 11.8137 2 8.5 2C5.18629 2 2.5 4.68629 2.5 8C2.5 11.3137 5.18629 14 8.5 14ZM9 4C9 3.72386 8.77614 3.5 8.5 3.5C8.22386 3.5 8 3.72386 8 4V8C8 8.16072 8.07726 8.31165 8.20764 8.40562C8.33803 8.4996 8.50564 8.52517 8.65811 8.47434L11.6581 7.47434C11.9201 7.38702 12.0617 7.10386 11.9743 6.84189C11.887 6.57991 11.6039 6.43833 11.3419 6.52566L9 7.30629V4Z" fill="#007AFF"/>
</svg>
