<svg width="24" height="24" viewBox="0 0 24 24" fill="none" xmlns="http://www.w3.org/2000/svg">
<path fill-rule="evenodd" clip-rule="evenodd" d="M10.2803 6.28033C10.5732 5.98744 10.5732 5.51256 10.2803 5.21967C9.98744 4.92678 9.51256 4.92678 9.21967 5.21967L6.21967 8.21967C5.92678 8.51256 5.92678 8.98744 6.21967 9.28033L9.21967 12.2803C9.51256 12.5732 9.98744 12.5732 10.2803 12.2803C10.5732 11.9874 10.5732 11.5126 10.2803 11.2197L8.56066 9.5H12.7499C15.0971 9.5 16.9999 11.4029 16.9999 13.7501C16.9998 16.0973 15.097 18 12.7499 18H6.75C6.33579 18 6 18.3358 6 18.75C6 19.1642 6.33579 19.5 6.75 19.5H12.7499C15.9255 19.5 18.4998 16.9257 18.4999 13.7501C18.5 10.5745 15.9256 8 12.7499 8H8.56066L10.2803 6.28033Z" fill="#121212"/>
</svg>
