<svg width="24" height="24" viewBox="0 0 24 24" fill="none" xmlns="http://www.w3.org/2000/svg">
<path d="M8 7.75H8.24035L8.43593 7.6103L13.8547 3.73976C14.0202 3.62157 14.25 3.73985 14.25 3.94319V20.0568C14.25 20.2602 14.0202 20.3784 13.8547 20.2602L8.43593 16.3897L8.24035 16.25H8H5C3.75736 16.25 2.75 15.2426 2.75 14V10C2.75 8.75736 3.75736 7.75 5 7.75H8Z" stroke="white" stroke-width="1.5" stroke-linecap="round"/>
<path d="M17 10C17.636 10.5883 18 11.2714 18 12C18 12.7286 17.636 13.4117 17 14" stroke="white" stroke-width="1.5" stroke-linecap="round"/>
<path d="M18 6C19.908 7.76504 21 9.81428 21 12C21 14.1857 19.908 16.235 18 18" stroke="white" stroke-width="1.5" stroke-linecap="round"/>
</svg>
