<svg width="40" height="40" viewBox="0 0 40 40" fill="none" xmlns="http://www.w3.org/2000/svg">
<path fill-rule="evenodd" clip-rule="evenodd" d="M8.51741 6.79217C8.12783 6.4007 7.49467 6.39916 7.1032 6.78874C6.71173 7.17832 6.7102 7.81148 7.09978 8.20295L31.2433 32.4637C31.6329 32.8552 32.2661 32.8567 32.6575 32.4671C33.049 32.0775 33.0505 31.4444 32.661 31.0529L8.51741 6.79217ZM9.46971 15.65C10.1713 15.2636 10.8192 14.9411 11.4275 14.6781L24.5596 27.874C24.418 28.2224 24.2656 28.567 24.1094 28.9199L24.1094 28.92L24.1092 28.9204C23.9761 29.2214 23.8402 29.5285 23.706 29.8494L23.6149 29.9437L23.5244 30.0353C23.0583 30.5066 22.2978 30.5088 21.8291 30.0401C19.4039 27.4667 17.5266 25.6202 15.6494 23.7736C13.7722 21.9271 11.8949 20.0805 9.46971 17.5072C9.00286 17.0404 9.00286 16.1168 9.46971 15.65ZM25.0147 20.8957C25.0439 21.0417 25.0711 21.1848 25.0963 21.3251L18.0007 14.195C18.0926 14.2235 18.185 14.2533 18.2782 14.2843L22.339 8.42422C23.4033 6.88833 25.5976 6.68862 26.9217 8.00714L31.323 12.39C32.6684 13.7297 32.4466 15.9664 30.8644 17.0158L25.0147 20.8957ZM4.58496 34.6323L13.1157 23.4068L16.0381 26.2201L4.58496 34.6323Z" fill="white"/>
</svg>
