<svg width="20" height="19" viewBox="0 0 20 19" fill="none" xmlns="http://www.w3.org/2000/svg">
<path fill-rule="evenodd" clip-rule="evenodd" d="M9.64286 18.683C14.9685 18.683 19.2857 14.5007 19.2857 9.34152C19.2857 4.18234 14.9685 0 9.64286 0C4.31725 0 0 4.18234 0 9.34152C0 11.7965 0.97759 14.0304 2.57623 15.6976C3.1026 16.2466 2.57623 18.683 2.57623 18.683C2.57623 18.683 5.57694 17.8434 6.25196 18.0891C7.30681 18.473 8.44952 18.683 9.64286 18.683ZM10.3684 8.96744C10.7078 8.72648 10.9869 8.34562 10.9869 7.91702C10.9869 7.18846 10.385 7.10515 9.64255 7.10515C8.90007 7.10515 8.29818 7.18846 8.29818 7.91702C8.29818 8.29415 8.5143 8.63431 8.79739 8.87473C8.86424 9.72335 8.32812 10.5287 7.49799 10.757C6.56051 11.0147 5.59177 10.4644 5.32422 9.52214L5.31349 9.48433C5.19667 9.07289 4.77132 8.83489 4.36345 8.95272C3.95558 9.07056 3.71963 9.49963 3.83645 9.91107L3.84719 9.94888C4.34625 11.7066 6.15331 12.7331 7.90205 12.2523C8.60097 12.0601 9.18444 11.6542 9.60512 11.124C10.0329 11.6361 10.6189 12.0227 11.3141 12.198L11.4021 12.2202C13.1349 12.6572 14.9043 11.6521 15.4322 9.93081L15.4767 9.78564C15.6021 9.37678 15.3752 8.9428 14.9698 8.81631C14.5645 8.68983 14.1343 8.91874 14.0089 9.3276L13.9644 9.47277C13.6776 10.408 12.7163 10.9541 11.7748 10.7166L11.6868 10.6944C10.8853 10.4923 10.3571 9.7615 10.3684 8.96744Z" fill="white"/>
</svg>
