<svg width="25" height="24" viewBox="0 0 25 24" fill="none" xmlns="http://www.w3.org/2000/svg">
<g opacity="0.8">
<path d="M18.5394 5.88981C18.2324 5.61167 17.7581 5.63502 17.48 5.94196C17.2019 6.2489 17.2252 6.7232 17.5322 7.00134L18.5394 5.88981ZM10.5772 5.19632C10.9807 5.10238 11.2315 4.69919 11.1376 4.29577C11.0437 3.89235 10.6405 3.64146 10.237 3.7354L10.5772 5.19632ZM17.5322 7.00134C19.854 9.1053 20.7538 12.5034 19.5379 15.5886L20.9334 16.1386C22.3857 12.4538 21.3086 8.39911 18.5394 5.88981L17.5322 7.00134ZM19.5379 15.5886C17.9684 19.5707 13.468 21.5265 9.48595 19.9571L8.93594 21.3526C13.6887 23.2258 19.0602 20.8914 20.9334 16.1386L19.5379 15.5886ZM9.48595 19.9571C5.50387 18.3876 3.54803 13.8872 5.11747 9.90512L3.72195 9.35511C1.84874 14.1079 4.18313 19.4794 8.93594 21.3526L9.48595 19.9571ZM5.11747 9.90512C6.08787 7.44298 8.17823 5.75495 10.5772 5.19632L10.237 3.7354C7.37852 4.40104 4.88069 6.41509 3.72195 9.35511L5.11747 9.90512Z" fill="white"/>
<path d="M15.7596 4.06811C16.0904 4.26105 16.0904 4.73895 15.7596 4.93189L11.2519 7.56137C10.9186 7.75581 10.5 7.51538 10.5 7.12948L10.5 1.87052C10.5 1.48462 10.9186 1.24419 11.2519 1.43863L15.7596 4.06811Z" fill="white"/>
<path d="M14.6367 16.3975C14.0768 16.3975 13.5967 16.2477 13.1963 15.9482C12.7992 15.6488 12.4932 15.2223 12.2783 14.6689C12.0635 14.1156 11.9561 13.4596 11.9561 12.7012V12.6914C11.9561 11.9329 12.0635 11.2786 12.2783 10.7285C12.4932 10.1751 12.7992 9.7487 13.1963 9.44922C13.5967 9.14974 14.0768 9 14.6367 9C15.1966 9 15.6768 9.14974 16.0771 9.44922C16.4775 9.7487 16.7852 10.1751 17 10.7285C17.2148 11.2786 17.3223 11.9329 17.3223 12.6914V12.7012C17.3223 13.4596 17.2148 14.1156 17 14.6689C16.7852 15.2223 16.4775 15.6488 16.0771 15.9482C15.6768 16.2477 15.1966 16.3975 14.6367 16.3975ZM14.6367 15.377C14.9362 15.377 15.1917 15.2695 15.4033 15.0547C15.6149 14.8398 15.776 14.5339 15.8867 14.1367C16.0007 13.7363 16.0576 13.2578 16.0576 12.7012V12.6914C16.0576 12.1348 16.0007 11.6579 15.8867 11.2607C15.776 10.8604 15.6149 10.5544 15.4033 10.3428C15.1917 10.1279 14.9362 10.0205 14.6367 10.0205C14.3372 10.0205 14.0817 10.1279 13.8701 10.3428C13.6618 10.5544 13.5007 10.8604 13.3867 11.2607C13.276 11.6579 13.2207 12.1348 13.2207 12.6914V12.7012C13.2207 13.2578 13.276 13.7363 13.3867 14.1367C13.5007 14.5339 13.6618 14.8398 13.8701 15.0547C14.0817 15.2695 14.3372 15.377 14.6367 15.377Z" fill="white"/>
<path d="M9.34082 16.2217V10.416H9.25293L7.5 11.6514V10.4697L9.34082 9.17578H10.5957V16.2217H9.34082Z" fill="white"/>
</g>
</svg>
