<svg width="24" height="24" viewBox="0 0 24 24" fill="none" xmlns="http://www.w3.org/2000/svg">
    <g clip-path="url(#clip0_433_17522)">
        <path
            d="M13.8007 10.999H20.9727C21.1054 11.005 21.2379 10.984 21.3622 10.9374C21.4866 10.8907 21.6002 10.8194 21.6962 10.7276C21.7922 10.6358 21.8687 10.5255 21.9209 10.4034C21.9731 10.2813 22 10.1498 22 10.017C22 9.88418 21.9731 9.75273 21.9209 9.6306C21.8687 9.50847 21.7922 9.39819 21.6962 9.30641C21.6002 9.21464 21.4866 9.14327 21.3622 9.09662C21.2379 9.04997 21.1054 9.02901 20.9727 9.035H16.2557L21.4427 3.856C21.5809 3.71898 21.6752 3.54391 21.7136 3.3531C21.7519 3.16229 21.7326 2.96438 21.658 2.7846C21.5835 2.60481 21.4571 2.4513 21.2949 2.34362C21.1328 2.23595 20.9423 2.17899 20.7477 2.18C20.6186 2.17975 20.4907 2.20507 20.3714 2.2545C20.2521 2.30393 20.1438 2.37649 20.0527 2.468L14.7857 7.729V3.055C14.7857 2.79416 14.6821 2.544 14.4976 2.35956C14.3132 2.17512 14.063 2.0715 13.8022 2.0715C13.5413 2.0715 13.2912 2.17512 13.1067 2.35956C12.9223 2.544 12.8187 2.79416 12.8187 3.055V10.02C12.8185 10.1488 12.8438 10.2764 12.8931 10.3954C12.9424 10.5144 13.0146 10.6226 13.1058 10.7136C13.1969 10.8047 13.3051 10.8768 13.4242 10.926C13.5433 10.9751 13.6709 11.0003 13.7997 11L13.8007 10.999Z"
            fill="black" />
        <path
            d="M10.1993 13.001H3.02733C2.89464 12.995 2.76212 13.016 2.63776 13.0626C2.5134 13.1093 2.39978 13.1806 2.30377 13.2724C2.20775 13.3642 2.13134 13.4745 2.07913 13.5966C2.02692 13.7187 2 13.8502 2 13.983C2 14.1158 2.02692 14.2473 2.07913 14.3694C2.13134 14.4915 2.20775 14.6018 2.30377 14.6936C2.39978 14.7854 2.5134 14.8567 2.63776 14.9034C2.76212 14.95 2.89464 14.971 3.02733 14.965H7.74433L2.55733 20.144C2.4191 20.281 2.3248 20.4561 2.28645 20.6469C2.24809 20.8377 2.26743 21.0356 2.34198 21.2154C2.41653 21.3952 2.54293 21.5487 2.70506 21.6564C2.86718 21.7641 3.0577 21.821 3.25233 21.82C3.38145 21.8203 3.50934 21.7949 3.62863 21.7455C3.74791 21.6961 3.85623 21.6235 3.94733 21.532L9.21433 16.271V20.945C9.21433 21.2058 9.31795 21.456 9.50239 21.6404C9.68683 21.8249 9.93699 21.9285 10.1978 21.9285C10.4587 21.9285 10.7088 21.8249 10.8933 21.6404C11.0777 21.456 11.1813 21.2058 11.1813 20.945V13.98C11.1815 13.8512 11.1562 13.7236 11.1069 13.6046C11.0576 13.4856 10.9854 13.3774 10.8942 13.2864C10.8031 13.1953 10.6949 13.1232 10.5758 13.074C10.4567 13.0249 10.3291 12.9997 10.2003 13L10.1993 13.001Z"
            fill="black" />
        <path
            d="M-7.35834 74.95H-46.6917L-3.46667 31.7833C-2.03535 30.2271 -1.26118 28.1777 -1.30611 26.0639C-1.35103 23.95 -2.21156 21.9354 -3.70771 20.4414C-5.20386 18.9474 -7.21973 18.0898 -9.33366 18.0479C-11.4476 18.006 -13.4959 18.7831 -15.05 20.2167L-58.9583 64.05V25.1C-58.9583 22.9274 -59.8214 20.8439 -61.3576 19.3076C-62.8939 17.7714 -64.9774 16.9083 -67.15 16.9083C-69.3226 16.9083 -71.4062 17.7714 -72.9424 19.3076C-74.4786 20.8439 -75.3417 22.9274 -75.3417 25.1V83.1417C-75.3417 87.6583 -71.675 91.325 -67.15 91.325H-7.37501C-5.24867 91.2594 -3.23126 90.3691 -1.74961 88.8425C-0.267952 87.316 0.561714 85.2729 0.563881 83.1456C0.566048 81.0182 -0.259468 78.9735 -1.73801 77.4439C-3.21655 75.9144 -5.23214 75.02 -7.35834 74.95ZM83.1417 -75.3333H23.375C22.2693 -75.3832 21.1649 -75.2086 20.1286 -74.8198C19.0922 -74.4311 18.1454 -73.8363 17.3453 -73.0715C16.5452 -72.3067 15.9084 -71.3877 15.4733 -70.37C15.0382 -69.3522 14.8139 -68.2568 14.8139 -67.15C14.8139 -66.0431 15.0382 -64.9478 15.4733 -63.93C15.9084 -62.9123 16.5452 -61.9933 17.3453 -61.2284C18.1454 -60.4636 19.0922 -59.8689 20.1286 -59.4802C21.1649 -59.0914 22.2693 -58.9167 23.375 -58.9667H62.6833L19.4583 -15.8083C18.3064 -14.6665 17.5206 -13.2076 17.201 -11.6175C16.8814 -10.0274 17.0425 -8.37817 17.6637 -6.87997C18.285 -5.38178 19.3383 -4.10251 20.6894 -3.20521C22.0405 -2.30791 23.6281 -1.83322 25.25 -1.84165C26.326 -1.83956 27.3918 -2.05057 28.3858 -2.46249C29.3799 -2.87441 30.2825 -3.4791 31.0417 -4.24165L74.9333 -48.0833V-9.13332C74.9333 -6.95966 75.7968 -4.87501 77.3338 -3.338C78.8708 -1.80098 80.9555 -0.937492 83.1292 -0.937492C85.3028 -0.937492 87.3875 -1.80098 88.9245 -3.338C90.4615 -4.87501 91.325 -6.95966 91.325 -9.13332V-67.175C91.3261 -68.2485 91.1153 -69.3116 90.7048 -70.3035C90.2942 -71.2953 89.692 -72.1964 88.9325 -72.9551C88.1731 -73.7138 87.2714 -74.3151 86.2791 -74.7246C85.2868 -75.1342 84.2235 -75.3439 83.15 -75.3417L83.1417 -75.3333Z"
            fill="black" />
    </g>
    <defs>
        <clipPath id="clip0_433_17522">
            <rect width="24" height="24" fill="white" />
        </clipPath>
    </defs>
</svg>
