<svg width="24" height="24" viewBox="0 0 24 24" fill="none" xmlns="http://www.w3.org/2000/svg">
    <path
        d="M10.158 20.0349H5.43797L10.625 14.8549C10.7967 14.6682 10.8896 14.4223 10.8842 14.1686C10.8788 13.9149 10.7756 13.6732 10.596 13.4939C10.4165 13.3146 10.1746 13.2117 9.92093 13.2067C9.66726 13.2017 9.42147 13.2949 9.23497 13.4669L3.96597 18.7269V14.0529C3.96597 13.7922 3.8624 13.5422 3.67806 13.3579C3.49371 13.1735 3.24368 13.0699 2.98297 13.0699C2.72226 13.0699 2.47223 13.1735 2.28788 13.3579C2.10354 13.5422 1.99997 13.7922 1.99997 14.0529V21.0179C1.99997 21.5599 2.43997 21.9999 2.98297 21.9999H10.156C10.4111 21.9921 10.6532 21.8852 10.831 21.702C11.0088 21.5189 11.1084 21.2737 11.1086 21.0184C11.1089 20.7631 11.0098 20.5178 10.8324 20.3342C10.655 20.1507 10.4131 20.0433 10.158 20.0349ZM21.018 2.00094H13.846C13.7133 1.99495 13.5808 2.01591 13.4564 2.06256C13.332 2.10921 13.2184 2.18058 13.1224 2.27236C13.0264 2.36413 12.95 2.47442 12.8978 2.59655C12.8456 2.71868 12.8186 2.85012 12.8186 2.98294C12.8186 3.11576 12.8456 3.24721 12.8978 3.36934C12.95 3.49147 13.0264 3.60175 13.1224 3.69353C13.2184 3.7853 13.332 3.85667 13.4564 3.90332C13.5808 3.94997 13.7133 3.97093 13.846 3.96494H18.563L13.376 9.14394C13.2377 9.28096 13.1434 9.45603 13.1051 9.64684C13.0667 9.83765 13.0861 10.0356 13.1606 10.2153C13.2352 10.3951 13.3616 10.5486 13.5237 10.6563C13.6858 10.764 13.8763 10.821 14.071 10.8199C14.2001 10.8202 14.328 10.7949 14.4473 10.7454C14.5666 10.696 14.6749 10.6234 14.766 10.5319L20.033 5.27094V9.94494C20.033 10.2058 20.1366 10.4559 20.321 10.6404C20.5055 10.8248 20.7556 10.9284 21.0165 10.9284C21.2773 10.9284 21.5275 10.8248 21.7119 10.6404C21.8963 10.4559 22 10.2058 22 9.94494V2.97994C22.0001 2.85112 21.9748 2.72355 21.9255 2.60452C21.8763 2.4855 21.804 2.37737 21.7129 2.28633C21.6217 2.19529 21.5135 2.12313 21.3945 2.07398C21.2754 2.02484 21.1478 1.99968 21.019 1.99994L21.018 2.00094Z"
        fill="black" />
</svg>
