<svg width="28" height="28" viewBox="0 0 28 28" fill="none" xmlns="http://www.w3.org/2000/svg">
<path d="M14.5917 25.8012C13.8804 25.8012 13.2976 25.2184 13.2976 24.5071V3.49085C13.2976 2.77964 13.8804 2.19684 14.5917 2.19684C15.3029 2.19684 15.8857 2.77964 15.8857 3.49085V24.5071C15.8857 25.2203 15.3029 25.8012 14.5917 25.8012ZM9.09558 21.9863C8.38436 21.9863 7.80157 21.4035 7.80157 20.6923V7.6297C7.80157 6.91849 8.38436 6.33569 9.09558 6.33569C9.80679 6.33569 10.3896 6.91849 10.3896 7.6297V20.6923C10.3896 21.4035 9.80679 21.9863 9.09558 21.9863ZM3.59949 18.5587C2.88828 18.5587 2.30548 17.9759 2.30548 17.2646V11.3813C2.30548 10.6701 2.88828 10.0873 3.59949 10.0873C4.3107 10.0873 4.8935 10.6701 4.8935 11.3813V17.2666C4.95672 17.9778 4.37392 18.5587 3.59949 18.5587ZM25.5858 18.5587C24.8746 18.5587 24.2918 17.9759 24.2918 17.2646V11.3813C24.2918 10.6701 24.8746 10.0873 25.5858 10.0873C26.297 10.0873 26.8798 10.6701 26.8798 11.3813V17.2666C26.8778 17.9778 26.297 18.5587 25.5858 18.5587ZM20.1529 21.9211C19.4417 21.9211 18.8589 21.3383 18.8589 20.6271V7.56649C18.8589 6.85527 19.4417 6.27248 20.1529 6.27248C20.8641 6.27248 21.4469 6.85527 21.4469 7.56649V20.6291C21.4469 21.3403 20.8641 21.9211 20.1529 21.9211Z" fill="#121212"/>
</svg>
