<svg width="40" height="40" viewBox="0 0 40 40" fill="none" xmlns="http://www.w3.org/2000/svg">
<path fill-rule="evenodd" clip-rule="evenodd" d="M8.70711 7.29289C8.31658 6.90237 7.68342 6.90237 7.29289 7.29289C6.90237 7.68342 6.90237 8.31658 7.29289 8.70711L31.2929 32.7071C31.6834 33.0976 32.3166 33.0976 32.7071 32.7071C33.0976 32.3166 33.0976 31.6834 32.7071 31.2929L8.70711 7.29289ZM10.4999 14.9999L11.4643 14.9999L26.5 30.0355V30.9655C26.5 32.7038 24.4352 33.6146 23.1515 32.4425L15 25H10.5C9.39543 25 8.5 24.1046 8.5 23V16.9999C8.5 15.8954 9.39539 14.9999 10.4999 14.9999ZM26.5 9.03408V22.9645L16.848 13.3125L23.1515 7.55711C24.4352 6.385 26.5 7.29575 26.5 9.03408Z" fill="white"/>
</svg>
