<svg width="296" height="296" viewBox="0 0 296 296" fill="none" xmlns="http://www.w3.org/2000/svg">
<g clip-path="url(#clip0_542_464)">
<circle opacity="0.45" cx="149" cy="149" r="133" fill="#FEFEFE"/>
<path d="M192 118.922C186.307 122.158 177.918 125.149 182.713 132.885C180.475 132.885 176 133.659 176 136.753C176 140.621 194.245 139.17 200 136.753C205.755 134.335 207.672 140.621 214.865 138.203C222.058 135.786 239.778 135.786 237.859 131.435C235.941 127.083 228.748 130.951 227.789 129.017C226.83 127.083 226.351 119.831 217.24 125.633C208.129 131.434 200.866 113.881 192 118.922Z" fill="#E6E6E6"/>
<path d="M232.742 164.261C226.988 156.525 216.918 165.227 221.713 172.963C219.475 172.963 215 173.737 215 176.831C215 180.699 233.245 179.249 239 176.831C244.755 174.414 246.672 180.699 253.865 178.282C261.058 175.864 278.778 175.864 276.859 171.513C274.941 167.162 267.748 171.029 266.789 169.095C265.83 167.162 265.351 159.909 256.24 165.711C247.129 171.513 253.842 155.074 242.813 156.041C231.784 157.008 238.497 171.996 232.742 164.261Z" fill="#E6E6E6"/>
<path opacity="0.5" d="M179.187 78.1041C179.187 78.1041 176.064 77.8793 174.009 73.9063C172.975 71.9066 170.816 72.9849 168.412 74.1387C166.041 75.2768 163.43 76.4879 161.424 74.8878C155.906 70.4877 154.825 71.9811 152.944 73.7186C151.553 75.0037 149.723 76.4225 145.339 75.691C139.947 74.7916 136.547 78.6925 138.61 81.2358C140.899 84.0575 146.806 84.3016 152.17 83.7807C154.318 83.5721 159.503 81.2358 165.679 83.3994C170.585 85.1183 176.056 81.7184 178.968 82.3721C185.659 83.8735 179.187 78.1041 179.187 78.1041Z" fill="#E6E6E6"/>
<path opacity="0.5" d="M71.1874 157.104C71.1874 157.104 68.0636 156.879 66.0093 152.906C64.9751 150.907 62.8165 151.985 60.4124 153.139C58.0405 154.277 55.4298 155.488 53.4237 153.888C47.9061 149.488 46.8251 150.981 44.9438 152.719C43.5526 154.004 41.7234 155.423 37.339 154.691C31.9469 153.792 28.5473 157.692 30.6099 160.236C32.8985 163.057 38.8055 163.302 44.1699 162.781C46.3176 162.572 51.5032 160.236 57.6787 162.399C62.585 164.118 68.0556 160.718 70.9683 161.372C77.6594 162.874 71.1874 157.104 71.1874 157.104Z" fill="#E6E6E6"/>
<mask id="mask0_542_464" style="mask-type:alpha" maskUnits="userSpaceOnUse" x="17" y="19" width="266" height="266">
<circle cx="150" cy="152" r="133" fill="#5128D4"/>
</mask>
<g mask="url(#mask0_542_464)">
<path d="M109.3 192.987C109.3 192.987 99.8119 246.451 96.3152 303.912C92.8199 361.375 96.3152 382.86 96.3152 382.86C96.3152 382.86 140.762 385.359 142.759 382.86C144.757 380.361 154 270.001 154 270.001C154 270.001 161.081 384.359 163.078 384.359C165.075 384.359 213.52 385.359 214.02 382.86C214.519 380.363 212.895 321.641 205.183 283.427C197.652 246.105 187.643 190.489 187.643 190.489L109.3 192.987Z" fill="black"/>
<path d="M144.538 354C144.184 353.962 143.97 353.688 144.003 353.385L152.927 270.491C152.962 270.187 153.235 269.987 153.521 270.001C153.816 270.035 154.03 270.31 153.997 270.612L145.073 353.506C145.041 353.79 144.809 354 144.538 354Z" fill="#6D9198"/>
<path opacity="0.54" fill-rule="evenodd" clip-rule="evenodd" d="M106.135 89.4991C106.411 89.0212 107.023 88.858 107.501 89.1347L117.5 96.0002L106.499 90.8656C106.021 90.5889 105.858 89.9771 106.135 89.4991Z" fill="black"/>
<path opacity="0.54" fill-rule="evenodd" clip-rule="evenodd" d="M105.054 107.481C104.875 106.958 105.155 106.39 105.678 106.212L117 103.001L106.323 108.105C105.8 108.283 105.232 108.003 105.054 107.481Z" fill="black"/>
</g>
<path d="M208.325 114.94C208.325 114.94 225.965 109.209 232.193 89.8252C238.185 71.1641 234.786 29.7741 234.786 29.7741L211.793 39.728C211.793 39.728 207.719 65.3753 201.623 76.3617C195.531 87.3507 189.49 95.1618 189.49 95.1618L208.325 114.94Z" fill="#FF9C85"/>
<path d="M217.942 48.4838C217.942 48.4838 212.327 41.6038 210.237 35.8581C208.809 31.932 207.346 24.8609 207.346 24.8609C207.346 24.8609 209.12 16.3122 218.655 27.1164C218.655 27.1164 218.376 19.4149 218.632 14.4909C218.827 10.735 221.227 9.54797 222.906 9.78826C223.785 9.91408 224.695 11.1914 224.695 11.1914C224.695 11.1914 224.79 10.4727 226.295 10.0015C228.396 9.34331 228.871 13.8007 228.871 13.8007C228.871 13.8007 233.097 12.142 234.549 20.8087C236.287 31.1822 235.63 47.0493 235.63 47.0493L224.839 53.2309L217.942 48.4838Z" fill="#FF9C85"/>
<path fill-rule="evenodd" clip-rule="evenodd" d="M225.288 23.1147C224.98 23.1427 224.702 22.9238 224.669 22.626L223.53 12.5329C223.496 12.235 223.719 11.9709 224.028 11.9429C224.337 11.915 224.614 12.1338 224.648 12.4317L225.786 22.5248C225.82 22.8227 225.597 23.0868 225.288 23.1147Z" fill="black"/>
<path fill-rule="evenodd" clip-rule="evenodd" d="M229.323 26.513C229.013 26.5375 228.738 26.3162 228.708 26.0188L227.536 14.4671C227.506 14.1697 227.732 13.9087 228.042 13.8843C228.352 13.8598 228.627 14.081 228.657 14.3784L229.829 25.9302C229.86 26.2276 229.633 26.4885 229.323 26.513Z" fill="black"/>
<path d="M163.203 108.023C156.387 114.663 152.094 132.001 193.17 132.612C234.247 133.223 237.772 68.558 237.772 68.558L205.447 57.9302L180.468 90.5132C180.468 90.5132 172.593 98.8766 163.203 108.023Z" fill="#353D46"/>
<path fill-rule="evenodd" clip-rule="evenodd" d="M150.914 211.004C151.464 210.956 151.949 211.363 151.996 211.913L151 212L150.004 212.087C149.956 211.536 150.363 211.052 150.914 211.004ZM148.208 244.022L148.217 244.024L148.262 244.033C148.303 244.04 148.366 244.052 148.448 244.065C148.611 244.093 148.847 244.127 149.129 244.156C149.701 244.216 150.427 244.247 151.111 244.161C151.817 244.072 152.343 243.874 152.653 243.591C152.902 243.363 153.129 242.975 153.01 242.141C152.506 238.613 151.754 231.086 151.13 224.469C150.817 221.155 150.535 218.059 150.332 215.792C150.231 214.659 150.149 213.733 150.092 213.09L150.004 212.087C150.004 212.087 150.004 212.087 151 212C151.996 211.913 151.996 211.913 151.996 211.913L152.084 212.914C152.141 213.556 152.223 214.482 152.324 215.614C152.527 217.878 152.808 220.971 153.121 224.281C153.746 230.914 154.494 238.387 154.99 241.859C155.186 243.229 154.821 244.318 154.003 245.066C153.247 245.758 152.235 246.035 151.361 246.145C150.467 246.258 149.575 246.213 148.924 246.146C148.594 246.112 148.317 246.071 148.12 246.038C148.021 246.022 147.943 246.008 147.887 245.997L147.821 245.984L147.802 245.98L147.796 245.979L147.794 245.979C147.794 245.978 147.792 245.978 148 245L147.794 245.979C147.254 245.864 146.907 245.333 147.022 244.792C147.137 244.252 147.668 243.907 148.208 244.022C148.208 244.022 148.208 244.022 148.208 244.022Z" fill="#CDCDCD"/>
<path fill-rule="evenodd" clip-rule="evenodd" d="M121.012 205.847L121.011 205.851L121.009 205.866L120.998 205.929C120.989 205.986 120.975 206.07 120.956 206.179C120.918 206.398 120.86 206.714 120.782 207.103C120.625 207.882 120.389 208.944 120.069 210.079C119.749 211.218 119.351 212.412 118.875 213.461C118.392 214.528 117.865 215.363 117.323 215.861C116.306 216.797 114.655 217.053 113.046 216.992C112.271 216.962 111.569 216.862 111.058 216.769C110.804 216.722 110.601 216.678 110.463 216.645C110.394 216.629 110.341 216.616 110.308 216.608L110.271 216.598L110.264 216.596C109.732 216.451 109.182 216.764 109.036 217.296C108.889 217.829 109.203 218.379 109.735 218.525L110 217.561C109.735 218.525 109.735 218.525 109.735 218.525L109.739 218.526L109.744 218.527L109.759 218.532L109.814 218.546C109.86 218.557 109.925 218.574 110.008 218.593C110.173 218.631 110.408 218.683 110.698 218.736C111.274 218.842 112.075 218.956 112.97 218.99C114.7 219.056 117.049 218.83 118.677 217.334C119.511 216.566 120.172 215.444 120.697 214.287C121.229 213.112 121.659 211.815 121.995 210.621C122.331 209.423 122.579 208.31 122.742 207.497C122.824 207.09 122.885 206.757 122.926 206.524C122.946 206.408 122.962 206.316 122.972 206.253L122.984 206.181L122.987 206.161L122.988 206.153C122.988 206.153 122.988 206.153 122 206L122.988 206.153C123.073 205.608 122.699 205.096 122.153 205.012C121.607 204.927 121.096 205.302 121.012 205.847Z" fill="#CDCDCD"/>
<path fill-rule="evenodd" clip-rule="evenodd" d="M175.988 204.847L175.989 204.851L175.991 204.866L176.002 204.929C176.011 204.986 176.025 205.07 176.044 205.179C176.082 205.398 176.14 205.714 176.218 206.103C176.375 206.882 176.611 207.944 176.931 209.079C177.251 210.218 177.649 211.412 178.125 212.461C178.608 213.528 179.135 214.363 179.677 214.861C180.694 215.797 182.345 216.053 183.954 215.992C184.729 215.962 185.431 215.862 185.942 215.769C186.196 215.722 186.399 215.678 186.537 215.645C186.606 215.629 186.659 215.616 186.692 215.608L186.729 215.598L186.736 215.596C187.268 215.451 187.818 215.764 187.964 216.296C188.111 216.829 187.797 217.379 187.265 217.525L187 216.561C187.265 217.525 187.265 217.525 187.265 217.525L187.261 217.526L187.256 217.527L187.241 217.532L187.186 217.546C187.14 217.557 187.075 217.574 186.992 217.593C186.827 217.631 186.592 217.683 186.302 217.736C185.726 217.842 184.925 217.956 184.03 217.99C182.3 218.056 179.951 217.83 178.323 216.334C177.489 215.566 176.828 214.444 176.303 213.287C175.771 212.112 175.341 210.815 175.005 209.621C174.669 208.423 174.421 207.31 174.258 206.497C174.176 206.09 174.115 205.757 174.074 205.524C174.054 205.408 174.038 205.316 174.028 205.253L174.016 205.181L174.013 205.161L174.012 205.153C174.012 205.153 174.012 205.153 175 205L174.012 205.153C173.927 204.608 174.301 204.096 174.847 204.012C175.393 203.927 175.904 204.302 175.988 204.847Z" fill="#CDCDCD"/>
<path d="M80.9998 203C75.0021 202.764 68.6819 155.789 106.315 131C115.983 124.632 130.08 107.425 130.08 107.425L143.974 106.058C143.974 106.058 169.282 97.6089 177.5 93.5001C181.5 91.5001 182.149 107.425 182.149 107.425C195.337 107.425 222 117 222 117C213.956 132.213 205.922 142.06 194.5 150C194.5 150 203.446 205 194.446 212C191.054 214.638 161.446 218.789 157.446 217C155.554 216.153 156.446 213 156.446 213L154 199L132 201C132 201 135.446 218.089 133.446 218C117.963 217.307 107.327 216.241 106.315 212C102.879 197.601 106.315 182.172 106.315 182.172L101.882 205.198L80.9998 203Z" fill="#353D46"/>
<path d="M128.575 109.336C128.575 109.336 126.198 142.2 127.891 168.69C129.585 195.178 132.292 203.126 132.292 203.126C132.292 203.126 139.062 205.277 144.648 205.112C150.233 204.947 154.803 203.126 154.803 203.126C154.803 203.126 155.477 184.69 153.62 162.397C151.757 140.047 146.003 105.942 146.003 105.942L128.575 109.336Z" fill="white"/>
<path d="M128.909 99.6843L129 109.385C129 109.385 132.908 112.444 137.852 112.445C144.527 112.447 146.794 107.556 146.794 107.556L146.543 96.1864L128.909 99.6843Z" fill="#FF9C85"/>
<path d="M128.909 99.0607C128.909 99.0607 133.008 107.21 138.795 105.771C144.582 104.334 145.168 96.1861 145.168 96.1861L128.909 99.0607Z" fill="black"/>
<path d="M148.788 69.8663C148.788 69.8663 152.664 87.8353 146.807 96.5626C140.947 105.29 133.095 102.886 129.55 100.318C124.768 96.854 123.715 91.9566 123.715 91.9566C123.715 91.9566 117.249 93.3244 114.994 88.1965C112.629 82.8115 116.595 78.3691 119.836 78.0583C123.078 77.7461 123.465 78.317 123.465 78.317L122.414 72.5409C122.414 72.5409 141.779 50.8223 148.788 69.8663Z" fill="#FF9C85"/>
<path fill-rule="evenodd" clip-rule="evenodd" d="M140.747 92.5398C141.119 92.4655 141.494 92.649 141.663 92.9877C142.003 93.6678 142.307 94.7701 142.119 95.9329C141.922 97.1477 141.196 98.3591 139.608 99.1533C139.193 99.3608 138.689 99.1926 138.481 98.7778C138.274 98.3629 138.442 97.8585 138.857 97.651C139.956 97.1016 140.349 96.3534 140.461 95.6647C140.537 95.1938 140.484 94.7212 140.379 94.3264L132.679 95.8664C132.224 95.9574 131.781 95.6624 131.69 95.2076C131.599 94.7528 131.894 94.3104 132.349 94.2194L140.747 92.5398Z" fill="black"/>
<path d="M146.793 78.0224C146.793 78.0224 157.15 73.3084 158.099 81.5187C159.194 91.0289 148.012 91.3086 148.012 91.3086L146.793 78.0224Z" fill="#FF9C85"/>
<path d="M152.239 86.4316C152.186 86.4316 152.128 86.4241 152.074 86.409C151.773 86.3169 151.603 86.0028 151.693 85.7023L153.806 78.705C153.896 78.406 154.211 78.2368 154.516 78.3259C154.816 78.4165 154.986 78.7321 154.897 79.0311L152.784 86.0285C152.709 86.2746 152.483 86.4316 152.239 86.4316Z" fill="black"/>
<path d="M155.836 83.1797C155.762 83.178 152.307 82.8519 152.307 82.8519C151.917 82.8154 151.633 82.4945 151.673 82.1372C151.712 81.7798 152.07 81.5179 152.451 81.5578L155.908 81.8822C156.299 81.9186 156.583 82.2395 156.543 82.5969C156.505 82.9317 156.196 83.1797 155.836 83.1797Z" fill="black"/>
<path d="M121.927 88.0566C121.74 88.0566 121.563 87.92 121.487 87.6933L119.186 80.7279C119.088 80.4298 119.205 80.0896 119.449 79.9701C119.692 79.8489 119.968 79.9934 120.067 80.2915L122.368 87.2569C122.467 87.5535 122.349 87.8936 122.106 88.0147C122.048 88.0427 121.987 88.0566 121.927 88.0566Z" fill="black"/>
<path d="M118.243 86.4316C117.906 86.4316 117.606 86.2495 117.539 85.9866C117.462 85.6885 117.717 85.3991 118.105 85.3403L121.548 84.8174C121.946 84.7543 122.313 84.9541 122.389 85.2508C122.466 85.5489 122.212 85.8397 121.823 85.8985L118.382 86.4199C118.335 86.4273 118.289 86.4316 118.243 86.4316Z" fill="black"/>
<path d="M144.451 78.7301C144.451 78.7301 142.868 77.9566 142.028 75.8189C141.189 73.6797 141.195 72.5805 141.195 72.5805C141.195 72.5805 136.82 75.8523 132.067 73.9075C127.313 71.9641 125.947 69.6094 125.947 69.6094C125.947 69.6094 126.04 75.6063 123.816 77.8806C121.589 80.1534 117.782 77.1261 117.782 77.1261C117.782 77.1261 114.381 72.6337 114.258 65.1155C114.138 57.5987 121.589 49.9968 125.239 50.8348C128.886 51.6744 131.984 56.6952 138.325 60.471C144.664 64.2468 149.232 62.4827 152.045 67.1026C154.858 71.7225 152.044 80.7676 152.044 80.7676C152.044 80.7676 149.421 77.5717 144.451 78.7301Z" fill="black"/>
<path d="M121.595 76.2725C121.595 76.2725 123.241 82.389 124.046 82.445C124.852 82.5009 124.954 75.7268 124.954 75.7268L121.595 76.2725Z" fill="black"/>
<path d="M145.166 77.3545C145.166 77.3545 145.966 83.0982 147.101 83.179C148.237 83.2567 150.044 76.6761 150.044 76.6761L145.166 77.3545Z" fill="black"/>
<path d="M136.015 114.072C128.887 114.072 127.367 108.624 127.306 108.39C127.217 108.056 127.386 107.706 127.681 107.604C127.971 107.498 128.289 107.691 128.381 108.025C128.434 108.221 129.756 112.804 136.017 112.804C136.057 112.804 136.096 112.804 136.135 112.804C144.559 112.727 145.668 106.524 145.678 106.462C145.735 106.118 146.022 105.892 146.333 105.953C146.637 106.017 146.839 106.347 146.784 106.691C146.77 106.764 145.484 113.986 136.144 114.072C136.102 114.072 136.059 114.072 136.015 114.072Z" fill="#385432"/>
<path d="M157.674 138.015C157.712 139.712 158.065 144.802 160.803 147.853C162.204 149.416 164.056 150.234 166.306 150.286C168.944 150.355 171.069 149.517 172.515 147.815C175.124 144.745 174.998 139.638 174.883 138.015H157.674ZM166.585 151.469C166.484 151.469 166.384 151.467 166.284 151.466C163.72 151.406 161.601 150.462 159.987 148.66C156.357 144.613 156.544 137.698 156.553 137.405C156.563 137.087 156.811 136.836 157.112 136.836H175.392C175.673 136.836 175.91 137.054 175.947 137.347C175.983 137.638 176.813 144.52 173.352 148.598C171.736 150.503 169.459 151.469 166.585 151.469Z" fill="white"/>
<path d="M101.358 205.074C101.639 205.115 101.906 204.93 101.964 204.65L106.785 182.023C106.849 181.73 106.66 181.442 106.369 181.38C106.066 181.295 105.788 181.504 105.724 181.797L100.904 204.424C100.842 204.717 101.03 205.005 101.321 205.067L101.358 205.074Z" fill="white"/>
<path d="M129 109C129 109 86 116 65.9994 179C58.1674 203.67 56.0002 243.12 56.0002 243.12L87.9997 246L111 185L129 109Z" fill="#353D46"/>
<path d="M82.3573 244.299C82.3573 244.299 87.3124 254.694 88.1207 257.224C89.4605 261.422 86.5113 266.832 86.5113 266.832L81.7574 264.612C81.7574 264.612 79.2026 277.209 75.9712 276.434C72.7385 275.661 66.7576 271.199 63.7093 271.75C60.6605 272.298 57.3144 268.695 56.7685 261.578C56.2232 254.463 65.4115 242.99 65.4115 242.99L82.3573 244.299Z" fill="#FF9C85"/>
<path d="M81.2696 264.757L81.2585 264.522L82.6528 256.735C82.7032 256.457 82.9659 256.274 83.2431 256.323C83.5208 256.373 83.7026 256.641 83.653 256.914L82.2593 264.703C82.2083 264.979 81.9462 265.164 81.6691 265.115C81.472 265.079 81.3215 264.934 81.2696 264.757Z" fill="black"/>
</g>
<defs>
<clipPath id="clip0_542_464">
<rect width="296" height="296" fill="white"/>
</clipPath>
</defs>
</svg>
