<svg width="14" height="14" viewBox="0 0 14 14" fill="none" xmlns="http://www.w3.org/2000/svg">
<path d="M8.5587 9.12248C8.71178 9.28172 8.96577 9.28423 9.12196 9.12804C9.27566 8.97434 9.27605 8.72527 9.12284 8.57109L7.4125 6.85V4.7125C7.4125 4.50539 7.24461 4.3375 7.0375 4.3375C6.83039 4.3375 6.6625 4.50539 6.6625 4.7125V7.15L8.5587 9.12248ZM7 12C6.31667 12 5.67083 11.8688 5.0625 11.6063C4.45417 11.3438 3.92292 10.9854 3.46875 10.5313C3.01458 10.0771 2.65625 9.54583 2.39375 8.9375C2.13125 8.32917 2 7.68333 2 7C2 6.31667 2.13125 5.67083 2.39375 5.0625C2.65625 4.45417 3.01458 3.92292 3.46875 3.46875C3.92292 3.01458 4.45417 2.65625 5.0625 2.39375C5.67083 2.13125 6.31667 2 7 2C7.68333 2 8.32917 2.13125 8.9375 2.39375C9.54583 2.65625 10.0771 3.01458 10.5313 3.46875C10.9854 3.92292 11.3438 4.45417 11.6063 5.0625C11.8688 5.67083 12 6.31667 12 7C12 7.68333 11.8688 8.32917 11.6063 8.9375C11.3438 9.54583 10.9854 10.0771 10.5313 10.5313C10.0771 10.9854 9.54583 11.3438 8.9375 11.6063C8.32917 11.8688 7.68333 12 7 12ZM7 11.25C8.16667 11.25 9.16667 10.8333 10 10C10.8333 9.16667 11.25 8.16667 11.25 7C11.25 5.83333 10.8333 4.83333 10 4C9.16667 3.16667 8.16667 2.75 7 2.75C5.83333 2.75 4.83333 3.16667 4 4C3.16667 4.83333 2.75 5.83333 2.75 7C2.75 8.16667 3.16667 9.16667 4 10C4.83333 10.8333 5.83333 11.25 7 11.25Z" fill="#FEFEFE"/>
</svg>
