<svg width="28" height="28" viewBox="0 0 28 28" fill="none" xmlns="http://www.w3.org/2000/svg">
<path d="M22.6427 12.054V14.0045C22.6427 16.2482 21.8916 18.1972 20.3985 19.8551C18.9003 21.5156 17.0497 22.4667 14.8488 22.7073V24.7145H18.7427C18.9456 24.7145 19.1311 24.7727 19.2939 24.8876C19.3403 24.9206 19.3846 24.9587 19.4268 25.0014C19.5196 25.0901 19.5927 25.1962 19.6422 25.3142C19.6917 25.4316 19.7174 25.5584 19.7154 25.6861C19.7154 25.8314 19.6855 25.9674 19.6267 26.0921C19.5793 26.1926 19.5134 26.2858 19.4289 26.3708C19.3403 26.4631 19.2342 26.5367 19.1167 26.5867C18.9982 26.6362 18.8715 26.6614 18.7437 26.6609H9.00232C8.87455 26.6619 8.74884 26.6367 8.63035 26.5872C8.51288 26.5378 8.40675 26.4646 8.31814 26.3724C8.22643 26.2838 8.15327 26.1776 8.10382 26.0597C8.05333 25.9422 8.0286 25.8155 8.02963 25.6877C8.02963 25.4255 8.12545 25.1941 8.31814 25.003C8.40675 24.9108 8.51288 24.8376 8.63035 24.7876C8.74781 24.7382 8.87455 24.7134 9.00232 24.7145H12.8983V22.7073C11.6309 22.5671 10.4809 22.1931 9.44745 21.5841L8.10072 22.9309C7.90083 23.1308 7.64117 23.2338 7.37945 23.24C7.10124 23.2462 6.82097 23.1431 6.60871 22.9309C6.19655 22.5187 6.19655 21.851 6.60871 21.4388L21.3063 6.74127C21.7184 6.32911 22.3861 6.32911 22.7983 6.74127C23.2105 7.15343 23.2105 7.82164 22.7983 8.23328L18.7468 12.2848V14.0004C18.7468 14.6032 18.6499 15.1679 18.4562 15.6934C18.2192 16.3343 17.839 16.9175 17.3145 17.4409C16.8694 17.902 16.3346 18.2673 15.7432 18.5136C15.1507 18.7598 14.5149 18.8824 13.874 18.8732C13.5412 18.8778 13.2105 18.8469 12.8849 18.782C12.7148 18.748 12.5459 18.7042 12.38 18.6511L10.8838 20.1472C11.7875 20.595 12.7839 20.8191 13.8709 20.8191C15.7473 20.8191 17.3527 20.1534 18.6891 18.8175C19.6463 17.8623 20.2584 16.7706 20.5294 15.5367C20.6376 15.0473 20.6911 14.5352 20.6911 14.0004V12.0514C20.6911 11.7892 20.788 11.5589 20.9797 11.3667C21.0683 11.274 21.1744 11.2008 21.2929 11.1514C21.4104 11.1019 21.5371 11.0767 21.6649 11.0782C21.9266 11.0782 22.1584 11.174 22.349 11.3667C22.5459 11.562 22.6407 11.7892 22.6427 12.054Z" fill="white" fill-opacity="0.6"/>
<path d="M5.10742 13.9973C5.10742 15.716 5.54534 17.2647 6.42324 18.6403L7.84519 17.2183C7.31762 16.2518 7.05384 15.1782 7.05384 13.9973V12.0483C7.05384 11.7861 6.95698 11.5558 6.76533 11.3636C6.67259 11.2714 6.57162 11.2008 6.46239 11.1529C6.3439 11.1009 6.21613 11.0751 6.08012 11.0751C5.95235 11.0741 5.82561 11.0988 5.70814 11.1483C5.63602 11.1787 5.56801 11.2183 5.50619 11.2657C5.46703 11.2951 5.42994 11.3281 5.39593 11.3636C5.27538 11.4837 5.19294 11.6187 5.14761 11.767C5.12082 11.8562 5.10742 11.9499 5.10742 12.0483V13.9973Z" fill="white" fill-opacity="0.6"/>
<path d="M9.00232 14.0004C9.00232 14.6269 9.10639 15.2101 9.3135 15.75L18.7468 6.31674V6.20958C18.7468 4.86955 18.2666 3.72324 17.3145 2.76909C16.3624 1.81494 15.2156 1.33838 13.874 1.33838C13.2331 1.32911 12.5974 1.45121 12.0059 1.69748C11.4134 1.94322 10.8787 2.30799 10.4335 2.76909C9.47939 3.72324 9.00232 4.87213 9.00232 6.20958V14.0004Z" fill="white" fill-opacity="0.6"/>
</svg>
