<svg width="16" height="16" viewBox="0 0 16 16" fill="none" xmlns="http://www.w3.org/2000/svg">
    <g clip-path="url(#clip0_10555_17102)">
        <rect y="-1008" width="1024" height="1024" fill="#D9D9D9" />
        <rect y="-1008" width="1024" height="1024" fill="url(#paint0_linear_10555_17102)" />
        <circle opacity="0.1" cx="2.12332" cy="2.08816" r="7.71902" fill="#D9D9D9" />
        <path
            d="M10.709 10.3514C10.6307 10.4622 10.5072 10.5323 10.372 10.5427C10.0086 10.5709 9.76085 10.1821 9.93982 9.86458L12.4964 5.32851C12.6221 5.10545 12.8566 4.96568 13.1126 4.9612C13.7038 4.95084 14.056 5.61678 13.7147 6.09963L10.709 10.3514Z"
            fill="white" />
        <path
            d="M9.90793 11.5467C10.1425 11.536 10.3294 11.3424 10.3294 11.1051C10.3294 10.8679 10.1425 10.6743 9.90793 10.6636V10.6631H9.88829C9.88799 10.6631 9.88769 10.6631 9.88738 10.6631C9.88708 10.6631 9.88678 10.6631 9.88647 10.6631H9.61394C9.36979 10.6631 9.17188 10.861 9.17188 11.1051C9.17188 11.3493 9.36979 11.5472 9.61394 11.5472H9.90793V11.5467Z"
            fill="#FF9500" />
        <path
            d="M6.30161 9.20028C6.3356 9.40057 6.23056 9.59866 6.0457 9.68291C5.81343 9.78875 5.5398 9.67943 5.4444 9.44268L4.44973 6.97413C4.30039 6.6035 4.47447 6.18145 4.84169 6.02387C5.279 5.83622 5.77666 6.10723 5.85628 6.5764L6.30161 9.20028Z"
            fill="white" />
        <path
            d="M4.60354 9.74041C4.68485 9.92658 4.63071 10.1442 4.47163 10.2705C4.27176 10.4293 3.97983 10.3892 3.83014 10.1824L2.2693 8.02679C2.03495 7.70313 2.10207 7.25155 2.42042 7.01004C2.79954 6.72242 3.34788 6.86537 3.53835 7.30147L4.60354 9.74041Z"
            fill="white" />
        <path
            d="M5.34464 7.63126C5.60276 7.54144 5.87517 7.72339 5.89105 7.99624C5.90098 8.16674 5.80462 8.32568 5.64885 8.39572L4.35494 8.97757C4.04149 9.11853 3.6869 8.8895 3.68648 8.54581C3.68623 8.34384 3.81398 8.16389 4.00473 8.09751L5.34464 7.63126Z"
            fill="white" />
        <path
            d="M11.2357 7.51544C11.2416 7.59914 11.2246 7.68285 11.1867 7.75768C10.9975 8.13099 10.4497 8.08297 10.3283 7.68243L9.63559 5.39643C9.48867 4.9116 9.86581 4.42734 10.3719 4.45103C10.7436 4.46843 11.0433 4.7614 11.0693 5.1326L11.2357 7.51544Z"
            fill="white" />
        <path fill-rule="evenodd" clip-rule="evenodd"
            d="M7.27523 6.17101C7.631 5.9126 8.06369 5.80088 8.49181 5.85691C9.24384 5.95532 9.66468 6.87664 9.20116 7.47696C9.08803 7.62349 8.74059 7.79523 8.43028 7.92733C8.20988 8.02115 7.99613 7.80902 8.06903 7.58085C8.16394 7.28375 8.49181 7.04894 8.49181 6.90658C8.49181 6.8298 8.49249 6.77826 8.41552 6.72679C8.24704 6.61415 7.98264 6.80797 7.87907 6.90658C7.77872 7.00211 7.58148 7.221 7.5214 7.47696C7.45944 7.74093 7.49345 7.95458 7.59742 8.1671C7.76184 8.50319 8.14539 8.66869 8.51934 8.65654C8.60956 8.65361 8.69653 8.64597 8.76836 8.63082C8.99352 8.58334 9.2333 8.32264 9.40809 8.0451C9.48815 7.91799 9.6513 7.86233 9.78486 7.93111C9.86633 7.97307 9.92332 8.05418 9.91647 8.14556C9.87163 8.74403 9.26381 9.32479 8.88996 9.4717C8.48552 9.63063 8.04018 9.62744 7.6378 9.46274C7.23542 9.29804 6.86469 9.00731 6.66621 8.60159C6.46773 8.19587 6.39642 7.75063 6.50139 7.3074C6.60637 6.86417 6.91945 6.42942 7.27523 6.17101Z"
            fill="white" />
    </g>
    <defs>
        <linearGradient id="paint0_linear_10555_17102" x1="0" y1="-1008" x2="830.906" y2="141.6"
            gradientUnits="userSpaceOnUse">
            <stop stop-color="#9B61E5" />
            <stop offset="1" stop-color="#0a86ed" />
        </linearGradient>
        <clipPath id="clip0_10555_17102">
            <rect width="16" height="16" rx="4" fill="white" />
        </clipPath>
    </defs>
</svg>
