<svg width="24" height="24" viewBox="0 0 24 24" fill="none" xmlns="http://www.w3.org/2000/svg">
<rect width="24" height="24" rx="5" fill="#A4A4D8"/>
<path d="M11.9984 18.9996C8.03639 18.9839 4.88818 15.7408 5.00305 11.7899C5.11277 8.01518 8.20457 4.97344 12.0543 5.00017C15.9315 5.02725 19.038 8.19375 18.9996 12.0565C18.9612 15.9075 15.8038 19.0387 11.9984 18.9996ZM12.1469 11.0036C11.4373 11.0269 10.8028 11.2725 10.217 11.6596C10.1674 11.6924 10.1199 11.7328 10.0824 11.7786C9.94866 11.9417 9.99444 12.0799 10.1961 12.1325C10.2735 12.1527 10.3531 12.1666 10.4292 12.1909C10.7512 12.2936 10.8379 12.4514 10.7563 12.7851C10.5578 13.5962 10.3553 14.4064 10.1602 15.2184C10.0155 15.821 10.3209 16.3137 10.8995 16.3584C11.7558 16.4244 12.5201 16.142 13.2076 15.646C13.2805 15.5936 13.3369 15.463 13.3292 15.3749C13.3245 15.3214 13.1834 15.2774 13.1008 15.2345C13.066 15.2165 13.0238 15.2131 12.9851 15.2027C12.6021 15.1003 12.5025 14.9403 12.5952 14.5583C12.7872 13.7662 12.9914 12.977 13.1708 12.182C13.2133 11.9938 13.2162 11.7775 13.1685 11.5919C13.0617 11.1786 12.6998 10.9875 12.1469 11.0036ZM13.9285 8.57746C13.9296 7.84637 13.3643 7.26952 12.642 7.26473C11.9076 7.25976 11.3178 7.84346 11.324 8.56889C11.3301 9.29192 11.905 9.85952 12.6338 9.86192C13.3444 9.86432 13.9273 9.28592 13.9285 8.57746Z" fill="#FEFEFE"/>
</svg>
