<svg width="24" height="24" viewBox="0 0 24 24" fill="none" xmlns="http://www.w3.org/2000/svg">
    <path
        d="M21.5 12C21.5 6.75329 17.2467 2.5 12 2.5C6.75329 2.5 2.5 6.75329 2.5 12C2.5 17.2467 6.75329 21.5 12 21.5C13.429 21.5 14.7843 21.1845 16 20.6194M21.5 12.25C21.5 13.4926 20.4926 14.5 19.25 14.5C18.0074 14.5 17 13.4926 17 12.25V7M17 12C17 14.7614 14.7614 17 12 17C9.23858 17 7 14.7614 7 12C7 9.23858 9.23858 7 12 7C14.7614 7 17 9.23858 17 12Z"
        stroke="black" stroke-width="1.5" stroke-linecap="round" />
</svg>
