<svg width="28" height="28" viewBox="0 0 28 28" fill="none" xmlns="http://www.w3.org/2000/svg">
<path fill-rule="evenodd" clip-rule="evenodd" d="M5 5.3335C2.79086 5.3335 1 7.12436 1 9.3335V18.6668C1 20.876 2.79086 22.6668 5 22.6668H15.4167C17.6258 22.6668 19.4167 20.876 19.4167 18.6668V9.3335C19.4167 7.12436 17.6258 5.3335 15.4167 5.3335H5ZM20.7929 11.5406C20.6054 11.7281 20.5 11.9825 20.5 12.2477V15.7526C20.5 16.0178 20.6054 16.2722 20.7929 16.4597L25.2929 20.9597C25.9229 21.5897 27 21.1435 27 20.2526V7.74771C27 6.8568 25.9229 6.41064 25.2929 7.0406L20.7929 11.5406Z" fill="#121212"/>
</svg>
