<svg width="28" height="28" viewBox="0 0 28 28" fill="none" xmlns="http://www.w3.org/2000/svg">
<path fill-rule="evenodd" clip-rule="evenodd" d="M21.3708 23.5262C20.8311 24.4396 19.849 25 18.788 25H9.21174C8.15078 25 7.16873 24.4396 6.62898 23.5262L1.90161 15.5262C1.3453 14.5848 1.3453 13.4152 1.90161 12.4738L6.62898 4.47379C7.16873 3.56039 8.15078 3 9.21174 3H18.788C19.849 3 20.8311 3.56041 21.3708 4.47385L26.0979 12.4738C26.6542 13.4152 26.6542 14.5848 26.0979 15.5262L21.3708 23.5262ZM18 14C18 16.2091 16.2091 18 14 18C11.7909 18 10 16.2091 10 14C10 11.7909 11.7909 10 14 10C16.2091 10 18 11.7909 18 14Z" fill="#121212"/>
</svg>
