<svg width="28" height="28" viewBox="0 0 28 28" fill="none" xmlns="http://www.w3.org/2000/svg">
<path fill-rule="evenodd" clip-rule="evenodd" d="M6 2C3.79086 2 2 3.79086 2 6V22C2 24.2091 3.79086 26 6 26H22C24.2091 26 26 24.2091 26 22V6C26 3.79086 24.2091 2 22 2H6ZM16.8369 6.84403C17.1739 6.60327 17.6423 6.68134 17.8831 7.0184L20.6104 10.8366C20.7737 11.0652 20.7955 11.3659 20.667 11.6157C20.5384 11.8655 20.281 12.0225 20.0001 12.0225H8.00008C7.58586 12.0225 7.25008 11.6867 7.25008 11.2725C7.25008 10.8583 7.58586 10.5225 8.00008 10.5225H18.5427L16.6625 7.89026C16.4217 7.5532 16.4998 7.08478 16.8369 6.84403ZM7.31869 16.4136C7.44108 16.1475 7.70718 15.977 8.00008 15.977H20.0001C20.4143 15.977 20.7501 16.3128 20.7501 16.727C20.7501 17.1412 20.4143 17.477 20.0001 17.477H9.63074L11.8422 20.0571C12.1118 20.3716 12.0754 20.8451 11.7609 21.1146C11.4464 21.3842 10.9729 21.3478 10.7034 21.0333L7.43063 17.2151C7.24002 16.9927 7.1963 16.6797 7.31869 16.4136Z" fill="#121212"/>
</svg>
