<svg width="28" height="28" viewBox="0 0 28 28" fill="none" xmlns="http://www.w3.org/2000/svg">
<path fill-rule="evenodd" clip-rule="evenodd" d="M5.31594 4.11244C6.38219 3.19831 7.9876 3.32163 8.90173 4.38788C8.97755 4.47631 9.0472 4.56985 9.1102 4.66784L11.0383 7.66685C11.7535 8.77169 11.6652 10.2038 10.821 11.1881L10.0359 12.0654C9.37161 12.8078 9.37995 13.9398 10.0553 14.6933C10.6702 15.5511 11.3458 16.3481 12.0822 17.0845L12.4554 17.4476C13.0859 18.0444 13.7585 18.5989 14.4734 19.1114C15.1892 19.7529 16.2466 19.7925 16.987 19.2253L17.1012 19.1307L17.9785 18.3456C18.9181 17.5399 20.2657 17.4228 21.3472 18.0358L21.4998 18.1284L24.4988 20.0565C24.5968 20.1195 24.6904 20.1891 24.7788 20.2649C25.845 21.1791 25.9684 22.7845 25.0542 23.8507C22.5835 26.3215 17.1665 27.2807 9.73657 20.0155L9.44224 19.7244C1.86102 12.1432 2.81268 6.6157 5.31594 4.11244Z" fill="#121212"/>
</svg>
