<svg width="28" height="28" viewBox="0 0 28 28" fill="none" xmlns="http://www.w3.org/2000/svg">
    <path
        d="M26.5188 8.71458V19.3102C26.5188 19.6605 26.4312 19.9669 26.2561 20.2296C26.0809 20.4923 25.8182 20.6237 25.468 20.6237C25.3366 20.6237 25.2053 20.5799 24.9864 20.4924C24.8112 20.4048 24.5923 20.2734 24.4172 20.1859C24.242 20.0983 24.0231 19.9232 23.8918 19.8356C23.7166 19.7042 23.5853 19.6167 23.5415 19.5291C23.3226 19.354 23.0161 19.0475 22.622 18.6534C22.228 18.2156 21.7902 17.7778 21.3961 17.2524C21.0021 16.727 20.608 16.2016 20.3015 15.6324C19.995 15.0632 19.8199 14.5816 19.8199 14.1C19.8199 13.6183 19.995 13.0929 20.3453 12.5237C20.6956 11.9108 21.0896 11.3416 21.5712 10.7724C22.0529 10.2032 22.5345 9.67782 23.0599 9.1962C23.5853 8.71458 24.0231 8.36431 24.3734 8.10161C24.5047 8.01404 24.6799 7.88269 24.9426 7.75134C25.1615 7.61999 25.3804 7.57621 25.5993 7.53242C26.0372 7.53242 26.2999 7.66377 26.3874 7.88269C26.5188 8.10161 26.5626 8.40809 26.5626 8.75836C26.5188 8.6708 26.5188 8.71458 26.5188 8.71458ZM19.5134 7.75134C19.5134 6.7881 18.7253 6 17.7621 6H3.75134C2.7881 6 2 6.7881 2 7.75134V20.0107C2 20.974 2.7881 21.7621 3.75134 21.7621H17.7621C18.7253 21.7621 19.5134 20.974 19.5134 20.0107C19.5134 15.6907 19.5134 11.9715 19.5134 7.75134Z"
        fill="black" fill-opacity="1" />
</svg>
