<svg width="24" height="24" viewBox="0 0 24 24" fill="none" xmlns="http://www.w3.org/2000/svg">
  <path d="M13.0316 15.5858C13.33 15.8244 13.7602 15.8005 14.0303 15.5303C14.3375 15.2231 14.9758 14.656 15.6195 14.2217C15.9435 14.0031 16.2373 13.8398 16.4709 13.7529C16.607 13.7023 16.679 13.6935 16.7053 13.6915C17.1454 13.9182 17.8314 14.3735 18.55 14.9125C19.2852 15.4639 20.0044 16.0651 20.4697 16.5303C20.9305 16.9911 21.1054 17.2829 21.1786 17.466C21.2458 17.634 21.25 17.7569 21.25 18C21.25 17.9976 21.2495 18.0007 21.248 18.009C21.24 18.0538 21.2051 18.2509 21.083 18.5621C20.9495 18.9026 20.7347 19.3185 20.4143 19.719C19.7888 20.5009 18.745 21.25 17 21.25C15.1923 21.25 13.4582 20.5726 11.7806 19.4941C10.1004 18.414 8.52138 16.9607 7.03033 15.4697C4.12627 12.5656 2.75 9.24571 2.75 7C2.75 5.94083 3.17847 4.8525 3.83565 4.03102C4.50336 3.19638 5.30916 2.75 6 2.75C6.69065 2.75 6.8633 2.83445 6.92236 2.87288C6.95408 2.89352 6.99537 2.92864 7.07465 3.02692C7.11521 3.07721 7.15762 3.13354 7.21445 3.20903L7.21691 3.2123C7.27259 3.28626 7.33852 3.37369 7.41425 3.4684C7.54114 3.62708 7.67584 3.79474 7.81529 3.96833C8.24073 4.49789 8.71048 5.08261 9.13812 5.63578C9.69892 6.36119 10.1322 6.9634 10.3085 7.29526C10.3064 7.32206 10.2973 7.39402 10.2471 7.52907C10.1602 7.7627 9.99691 8.05648 9.77828 8.38052C9.344 9.02419 8.77687 9.66247 8.46967 9.96967C8.1958 10.2435 8.17551 10.6809 8.42285 10.979C10.1976 13.1175 11.2186 14.1361 13.0316 15.5858Z" stroke="#007AFF" stroke-width="1.5" stroke-linejoin="round"/>
</svg>