<svg width="148" height="148" viewBox="0 0 148 148" fill="none" xmlns="http://www.w3.org/2000/svg">
<g clip-path="url(#clip0_6008_890310)">
<path opacity="0.4" d="M113 143C113 145.209 94.4198 147 71.5 147C48.5802 147 30 145.209 30 143C30 140.791 48.5802 139 71.5 139C94.4198 139 113 140.791 113 143Z" fill="#C5C5C5"/>
<path opacity="0.5" d="M90.4063 30.052C90.4063 30.052 91.9682 29.9397 92.9953 27.9532C93.5124 26.9533 94.5918 27.4925 95.7938 28.0694C96.9797 28.6384 98.2851 29.2439 99.2882 28.4439C102.047 26.2439 102.587 26.9905 103.528 27.8593C104.224 28.5018 105.138 29.2113 107.331 28.8455C110.027 28.3958 111.726 30.3462 110.695 31.6179C109.551 33.0287 106.597 33.1508 103.915 32.8903C102.841 32.786 100.248 31.6179 97.1607 32.6997C94.7075 33.5592 91.9722 31.8592 90.5159 32.186C87.1703 32.9368 90.4063 30.052 90.4063 30.052Z" fill="#FFA63B"/>
<path opacity="0.5" d="M53.5937 76.052C53.5937 76.052 52.0318 75.9397 51.0047 73.9532C50.4876 72.9533 49.4082 73.4925 48.2062 74.0694C47.0203 74.6384 45.7149 75.2439 44.7118 74.4439C41.9531 72.2439 41.4126 72.9905 40.4719 73.8593C39.7763 74.5018 38.8617 75.2113 36.6695 74.8455C33.9734 74.3958 32.2737 76.3462 33.3049 77.6179C34.4493 79.0287 37.4028 79.1508 40.0849 78.8903C41.1588 78.786 43.7516 77.6179 46.8393 78.6997C49.2925 79.5592 52.0278 77.8592 53.4841 78.186C56.8297 78.9368 53.5937 76.052 53.5937 76.052Z" fill="#FFA63B"/>
<path d="M35.1307 53.1303C38.0079 49.2624 43.043 53.6137 40.6453 57.4816C41.7642 57.4816 44.002 57.8684 44.002 59.4156C44.002 61.3496 34.8792 60.6243 32.002 59.4156C29.1247 58.2069 28.1657 61.3496 24.5692 60.1408C20.9728 58.932 12.1132 58.9321 13.0722 56.7564C14.0313 54.5808 17.6278 56.5147 18.1073 55.5477C18.5868 54.5808 18.8266 50.9545 23.3821 53.8555C27.9377 56.7564 24.581 48.5371 30.0956 49.0206C35.6102 49.5041 32.2536 56.9981 35.1307 53.1303Z" fill="#FFA63B"/>
<path d="M108 78.4608C105.153 80.0792 100.959 81.5746 103.357 85.4425C102.238 85.4425 100 85.8293 100 87.3764C100 89.3104 109.123 88.5852 112 87.3764C114.877 86.1677 115.836 89.3104 119.433 88.1016C123.029 86.8929 131.889 86.893 130.93 84.7173C129.971 82.5416 126.374 84.4755 125.895 83.5085C125.415 82.5416 125.175 78.9154 120.62 81.8163C116.064 84.7172 112.433 75.9403 108 78.4608Z" fill="#FFA63B"/>
<path d="M58.6674 115.883C58.6674 115.883 84.4817 105.686 87.4714 86.2964C91.1487 62.4446 86.0453 51.3959 86.0453 51.3959L67.7109 74.9386L62.6815 99.1065L56.0545 103.901L52.3662 111.716L58.6674 115.883Z" fill="#F28D79"/>
<path d="M64.0767 129.422C64.2529 129.587 64.5392 129.562 64.7079 129.373C65.508 128.474 67.6474 125.847 67.5682 123.521C67.4709 120.663 64.9786 116.514 64.776 114.44C64.5732 112.365 65.5112 109.108 64.443 108.632C63.3738 108.156 60.244 108.155 58.7225 105.742C57.2008 103.329 56.914 101.882 55.8921 101.724C54.87 101.567 47.038 107.302 46.7946 107.917C46.5516 108.532 49.4903 111.291 49.6371 111.619C49.7844 111.947 52.2033 111.26 52.3466 111.984C52.4908 112.708 52.1507 114.004 52.3723 115.062C52.579 116.049 61.9691 127.45 64.0767 129.422Z" fill="black"/>
<path d="M61.0512 116.483C60.9802 117.746 62.2971 119.352 63.3724 120.444C62.5983 120.111 61.738 119.883 61.2534 120.209C60.943 120.418 60.8175 120.8 60.8816 121.341C60.9523 121.935 61.2126 122.413 61.6575 122.762C62.868 123.713 65.0318 123.364 65.1231 123.349C65.2451 123.328 65.3273 123.208 65.3096 123.082C65.2911 122.955 65.1771 122.869 65.0551 122.888C65.0347 122.892 62.9844 123.221 61.9255 122.388C61.5763 122.114 61.3795 121.752 61.3239 121.282C61.2817 120.933 61.3396 120.705 61.493 120.601C62.045 120.229 63.7729 121.076 64.7325 121.696C64.8329 121.762 64.9648 121.733 65.0323 121.632C65.1006 121.53 65.081 121.391 64.9888 121.315C63.9057 120.426 61.1785 117.793 61.5233 116.318C61.5418 116.24 61.5936 116.058 61.6802 116.044C62.1344 115.973 63.4238 117.723 64.3576 119.385C64.4203 119.496 64.556 119.533 64.6622 119.467C64.7682 119.401 64.804 119.259 64.7413 119.147C64.2504 118.273 62.5735 115.433 61.6169 115.583C61.438 115.611 61.2011 115.742 61.091 116.208C61.0699 116.298 61.0564 116.39 61.0512 116.483Z" fill="#FFAE43"/>
<path d="M76.3251 74.9383C76.3251 74.9383 75.7045 130.086 73.7349 134.999C71.7649 139.914 61 134.999 61 134.999L57.6086 75.97L76.3251 74.9383Z" fill="#FF9C85"/>
<path d="M88.8427 147.798C89.1301 147.813 89.3732 147.572 89.3823 147.269C89.4261 145.835 89.37 141.793 87.5161 139.726C85.2379 137.187 79.7798 135.301 78.0058 133.559C76.2313 131.817 74.594 128.119 73.2524 128.502C71.91 128.886 69.0461 131.282 65.8064 130.241C62.5661 129.199 61.1957 128.096 60.14 128.734C59.085 129.373 56.3146 140.618 56.5628 141.367C56.8116 142.115 61.6129 142.388 61.9984 142.575C62.3844 142.762 64.071 140.282 64.7565 140.834C65.4428 141.386 66.1247 142.832 67.138 143.63C68.083 144.374 85.4044 147.608 88.8427 147.798Z" fill="black"/>
<path d="M73.9377 134.818C74.8298 135.715 76.9051 135.808 78.4354 135.737C77.6709 136.091 76.9261 136.579 76.8453 137.157C76.7936 137.528 76.9936 137.877 77.439 138.19C77.9285 138.535 78.458 138.661 79.0148 138.563C80.5312 138.297 81.7172 136.454 81.7672 136.376C81.833 136.272 81.7987 136.13 81.6929 136.059C81.5862 135.988 81.4455 136.015 81.3788 136.119C81.368 136.137 80.2427 137.882 78.9155 138.113C78.4785 138.19 78.0774 138.095 77.6904 137.822C77.4028 137.62 77.2716 137.424 77.2966 137.241C77.3888 136.582 79.1734 135.862 80.2763 135.563C80.3921 135.532 80.4589 135.414 80.4285 135.296C80.3987 135.178 80.2819 135.099 80.1636 135.117C78.7784 135.329 74.9975 135.599 74.1302 134.357C74.0845 134.291 73.9837 134.131 74.0312 134.057C74.2819 133.671 76.4456 133.882 78.3064 134.297C78.4306 134.325 78.5487 134.248 78.5708 134.126C78.5923 134.002 78.5103 133.881 78.3856 133.853C77.4074 133.634 74.1734 132.984 73.6457 133.796C73.5474 133.948 73.4867 134.212 73.7598 134.605C73.8125 134.681 73.8719 134.752 73.9377 134.818Z" fill="#FFAE43"/>
<path d="M66.5824 13.8405C66.5824 13.8405 63.1345 12.5013 61.5807 15.1347C60.6388 16.7287 61.1827 18.7395 61.1827 18.7395C61.1827 18.7395 58.1585 17.6862 56.3066 20.1587C54.7754 22.2024 55.814 24.634 55.814 24.634C55.814 24.634 51.4252 25.8202 50.3754 29.1142C49.3255 32.4093 50.8113 34.5 50.8113 34.5L71.6303 33.0619L73 17.889L66.5824 13.8405Z" fill="black"/>
<path d="M75.1386 9.85671C75.1386 9.85671 78.4366 8.45374 79.9228 11.2125C80.8238 12.8825 80.3035 14.989 80.3035 14.989C80.3035 14.989 83.1962 13.8855 84.9676 16.4757C86.4322 18.6168 85.4388 21.1642 85.4388 21.1642C85.4388 21.1642 89.6367 22.4069 90.641 25.8578C91.6452 29.3097 90.2239 31.5 90.2239 31.5L70.3102 29.9934L69 14.098L75.1386 9.85671Z" fill="black"/>
<path d="M67.6951 5.71014C67.6951 5.71014 64.7888 -2.16146 61.2396 1.44618C57.232 5.51927 64.0121 11.2399 66.4651 8.99406C68.9181 6.74822 67.6951 5.71014 67.6951 5.71014Z" fill="black"/>
<path d="M75.4269 23.4601C70.9292 23.4601 64.9934 19.0176 64.9934 14.5723C64.9934 10.127 68.6395 6.52344 73.1372 6.52344C77.6349 6.52344 81.281 10.127 81.281 14.5723C81.281 19.0176 79.9246 23.4601 75.4269 23.4601Z" fill="#FF9C85"/>
<path d="M70.6485 18.9258L70.4444 18.8366L68.2489 16.4905C68.143 16.3779 68.1497 16.2006 68.2612 16.0958C68.3727 15.991 68.55 15.9954 68.6559 16.1091L70.8526 18.4563C70.9574 18.569 70.9507 18.7451 70.8392 18.85L70.6485 18.9258Z" fill="black"/>
<path d="M75.7004 25.0538L75.0418 22.043H71.0901L70.4315 25.0538H75.7004Z" fill="#FF9C85"/>
<path d="M73.6716 23.2009L73.4501 23.2236L70.3847 22.2603C70.2371 22.2143 70.1557 22.0566 70.2013 21.9105C70.2468 21.7644 70.4034 21.6811 70.5516 21.7281L73.6185 22.6918C73.7651 22.7383 73.8459 22.895 73.8004 23.0411L73.6716 23.2009Z" fill="black"/>
<path d="M69.0263 16.6692L68.8727 16.7002L66.8892 16.4151C66.7936 16.4016 66.7557 16.3202 66.8031 16.2348C66.8504 16.1494 66.9665 16.0899 67.0623 16.1039L69.0468 16.3891C69.1416 16.403 69.1793 16.4839 69.1319 16.5693L69.0263 16.6692Z" fill="black"/>
<path d="M56.167 63.8479L90.8582 60.5L92.2346 88.1895C93.8761 89.3274 92.3665 90.8446 92.3665 90.8446C92.3665 90.8446 80.9054 93.4688 72.758 93.4998C64.3177 93.5319 51.8824 90.086 51.8824 90.086C51.8824 90.086 49.7565 88.9481 52.1042 86.6722C52.1042 85.9136 52.5735 81.1662 53.0136 78.19C53.8527 72.5162 56.167 63.8479 56.167 63.8479Z" fill="#4D4D8C"/>
<path opacity="0.5" d="M81 73.5L79 77L79.5 87.5" stroke="white" stroke-linecap="round"/>
<path d="M50.1362 39.4218C46.0436 41.8952 34.2186 47.7973 30.2699 41.0875C27.5302 36.432 30.232 26.1598 30.232 26.1598L49.3566 27.4514L50.1362 39.4218Z" fill="#F68571"/>
<path d="M29.6775 40.1675C29.6775 40.1675 24.6396 30.5424 31.4422 24.0178C37.9915 17.7379 55.9045 10.7547 55.9045 10.7547L56.4276 22.3419C56.4276 22.3419 46.5819 29.2411 43.2471 34.0067C39.9105 38.7716 37.8858 42.8701 37.8858 42.8701L29.6775 40.1675Z" fill="#F98875"/>
<path d="M48.3313 28.203L44.6517 31.4156" stroke="black" stroke-linecap="round"/>
<path d="M108.443 45.3765C105.456 41.9197 101.559 40.0894 93.132 37.8494L90.6016 50.6371L100.515 53.6562L108.443 45.3765Z" fill="#F68571"/>
<path d="M93.0127 62.438C93.0127 62.438 92.4081 54.2213 91.0056 45.8674C89.5645 37.284 82.6723 25.0546 82.6723 25.0546C82.6723 25.0546 62.5629 25.0546 59.1404 25.5276C56.0844 30.8489 52.3453 63.6502 52.3453 63.6502C52.3453 63.6502 76.584 65.4787 93.0127 62.438Z" fill="#E03860"/>
<path d="M81.7221 63.6514C81.7221 63.6514 81.4664 54.2223 80.873 45.8685C80.2633 37.2851 77.3474 25.0556 77.3474 25.0556C77.3474 25.0556 69.4854 25.0556 68.0374 25.5286C66.7445 30.85 65.1626 64.1965 65.1626 64.1965C65.1626 64.1965 74.7715 66.6921 81.7221 63.6514Z" fill="#FFBE83"/>
<path d="M97.1526 70.5933C95.288 71.4947 95.8082 73.0979 93.9436 73.9993C94.4973 74.6751 95.2805 75.0023 93.8885 75.8879C93.8885 75.8879 94.6195 75.8293 94.5181 76.6146C94.4067 77.4777 93.3753 77.873 91.8853 78.1206C90.3774 78.371 89.4164 78.4045 88.0448 77.7837C84.8351 76.3309 83.2919 73.0712 85.4847 68.3348C86.9921 65.0791 93.1405 59.4065 94.0614 57.591C95.4502 54.8521 96.7997 51.9944 98.1179 49.2181C99.2924 46.7458 101.102 44.5686 103.588 43.5886C106.073 42.6085 106.797 42.6305 108.452 44.7868C109.406 46.029 109.798 47.6527 109.949 49.2181C110.325 53.1465 109.271 57.0633 107.213 60.3855C104.691 64.4562 101.461 68.5101 97.1526 70.5933Z" fill="#F68571"/>
<path d="M78.7113 25.0556C78.7113 25.0556 76.0814 30.3236 73.066 30.3236C70.0505 30.3236 67.4207 25.0556 67.4207 25.0556C67.4207 25.0556 69.9481 25.0547 73.066 25.0547C76.1838 25.0547 78.7113 25.0556 78.7113 25.0556Z" fill="#F98875"/>
<path d="M93.4648 74.058L90.7536 74.9291" stroke="black" stroke-linecap="round"/>
<path d="M97.6944 49.8944L96.7663 52.5867" stroke="black" stroke-linecap="round"/>
<path d="M93.7662 75.8359L92.2612 76.3978" stroke="black" stroke-linecap="round"/>
<path d="M111.078 50.2689C112.959 60.4304 96.3998 74.3555 96.3998 74.3555L86.6146 65.6993L92.6362 53.2797L81.5691 25.0671C89.233 21.736 109.196 40.1073 111.078 50.2689Z" fill="#E03860"/>
<path opacity="0.5" d="M91.7475 50.615C91.5621 50.6327 91.3974 50.5297 91.3762 50.3796C90.6185 45.1565 87.8092 37.0433 87.7806 36.9627C87.7289 36.815 87.8366 36.6558 88.0218 36.6077C88.2033 36.5644 88.3976 36.6408 88.4494 36.7893C88.4781 36.8712 91.3011 45.0259 92.0656 50.2911C92.0872 50.4451 91.9516 50.589 91.7613 50.6137L91.7475 50.615Z" fill="white"/>
<path d="M69.2161 15.6399C69.2161 15.6399 70.5525 15.4879 71.9921 13.8855C73.4296 12.2843 73.4524 9.29629 73.4524 9.29629C73.4524 9.29629 74.8236 10.0857 76.5011 10.2801C78.1798 10.4757 79.3826 9.61205 79.3826 9.61205C79.3826 9.61205 81.0927 8.5316 80.996 6.39546C80.8983 4.25932 78.7426 4.48201 78.7426 4.48201C78.7426 4.48201 77.0879 2.79362 74.1217 2.52852C71.1533 2.26224 70.0874 3.94827 70.0874 3.94827C70.0874 3.94827 67.4375 3.73973 66.3032 5.01458C65.1689 6.28942 64.97 8.3042 64.97 8.3042C64.97 8.3042 63.7444 8.55753 63.1045 11.2003C62.4645 13.8443 64.9733 16.5 64.9733 16.5C64.9733 16.5 66.5552 14.2967 69.2161 15.6399Z" fill="black"/>
<path d="M68.9331 19.1157L64.8968 11.1489C66.7857 10.1918 64.9656 5.61329 63.706 5.3975C60.1034 4.78031 54.6015 8.10589 57.2614 12.8282C60.264 18.1588 59.6414 24.33 64.8929 26.5092C67.2941 27.5056 69.7789 26.2645 71.5305 24.5356C72.9318 23.1525 72.037 20.7605 71.4145 19.7374C70.7919 18.7143 68.9331 19.1157 68.9331 19.1157Z" fill="#C90101"/>
<path d="M49.9477 15.7558C49.9477 15.7558 52.2432 12.3451 54.5088 10.6485C56.0569 9.48914 60.0777 6.43779 62.4811 6.2624C64.5605 6.11066 62.8575 9.27323 62.8575 9.27323C62.8575 9.27323 63.3357 10.0313 63.9865 10.0259C65.4612 10.0138 66.6236 9.05596 67.1634 10.9269C67.2773 11.3218 66.7816 11.9077 66.7816 11.9077C66.7816 11.9077 67.3395 12.4332 67.7501 13.0368C68.3236 13.8798 66.7816 15.9471 66.7816 15.9471C66.7816 15.9471 68.0832 17.5969 64.4378 19.4027C60.0744 21.5641 52.9557 23.4012 52.9557 23.4012L48.7693 19.4486L49.9477 15.7558Z" fill="#F98875"/>
<path d="M67.3938 15.0561L64.4951 16.5181" stroke="black" stroke-linecap="round"/>
<path d="M66.6802 12.1415L63.3197 13.7035" stroke="black" stroke-linecap="round"/>
<path d="M53.8734 24.6777L61.0242 20.9141L51.2389 11.5054C51.2389 11.5054 21.1485 23.4702 24.8925 35.2153C27.3163 42.8187 31.6666 45.377 43.4536 43.2565C54.0947 41.342 64.4098 31.0755 64.4098 31.0755C66.2915 23.9248 53.8734 24.6777 53.8734 24.6777Z" fill="#E03860"/>
<path opacity="0.5" d="M55.3463 44.5C55.5318 44.5 55.6855 44.3926 55.6924 44.2549C55.9513 39.4633 57.9725 31.8798 57.9933 31.8044C58.0306 31.6663 57.9088 31.5314 57.7205 31.5039C57.5364 31.4804 57.3509 31.5662 57.3135 31.705C57.2928 31.7816 55.2619 39.4038 55.0002 44.2342C54.9933 44.3755 55.1414 44.494 55.3325 44.5H55.3463Z" fill="white"/>
<path opacity="0.5" d="M54 25.5L49.2111 27.9094M49.2111 27.9094L44.4223 30.3189C44.4223 30.3189 41.4132 31.1692 44.1486 29.185C45.8153 27.976 48.7094 27.7677 49.2111 27.9094Z" stroke="white" stroke-linecap="round"/>
</g>
<defs>
<clipPath id="clip0_6008_890310">
<rect width="148" height="148" fill="white"/>
</clipPath>
</defs>
</svg>
