<svg width="52" height="52" viewBox="0 0 52 52" fill="none" xmlns="http://www.w3.org/2000/svg">
<path fill-rule="evenodd" clip-rule="evenodd" d="M26 52C40.3594 52 52 40.3594 52 26C52 11.6406 40.3594 0 26 0C11.6406 0 0 11.6406 0 26C0 40.3594 11.6406 52 26 52ZM21.3135 27.7504C21.1064 27.2105 21.0023 26.6273 21.0023 26.0008V18.21C21.0023 16.8725 21.4794 15.7236 22.4335 14.7695C22.8787 14.3084 23.4135 13.9436 24.0059 13.6979C24.5974 13.4516 25.2331 13.3295 25.874 13.3388C27.2156 13.3388 28.3624 13.8153 29.3145 14.7695C30.2666 15.7236 30.7468 16.8699 30.7468 18.21V18.3171L21.3135 27.7504ZM34.6427 24.0544V26.0049C34.6427 28.2486 33.8916 30.1976 32.3985 31.8555C30.9003 33.516 29.0497 34.4671 26.8488 34.7077V36.7149H30.7427C30.9457 36.7149 31.1311 36.7731 31.2939 36.888C31.3403 36.9209 31.3846 36.9591 31.4268 37.0018C31.5196 37.0905 31.5927 37.1966 31.6422 37.3146C31.6917 37.432 31.7174 37.5588 31.7154 37.6865C31.7154 37.8318 31.6855 37.9678 31.6267 38.0925C31.5793 38.193 31.5134 38.2862 31.4289 38.3712C31.3403 38.4635 31.2342 38.5371 31.1167 38.5871C30.9982 38.6366 30.8715 38.6618 30.7437 38.6613H21.0023C20.8746 38.6623 20.7488 38.6371 20.6303 38.5876C20.5129 38.5382 20.4068 38.465 20.3181 38.3728C20.2264 38.2842 20.1533 38.178 20.1038 38.0601C20.0533 37.9426 20.0286 37.8158 20.0296 37.6881C20.0296 37.4258 20.1255 37.1945 20.3181 37.0034C20.4068 36.9112 20.5129 36.838 20.6303 36.788C20.7478 36.7386 20.8746 36.7138 21.0023 36.7149H24.8983V34.7077C23.6309 34.5675 22.4809 34.1935 21.4475 33.5845L20.1007 34.9313C19.9008 35.1311 19.6412 35.2342 19.3794 35.2404C19.1012 35.2466 18.821 35.1435 18.6087 34.9313C18.1966 34.5191 18.1966 33.8514 18.6087 33.4392L33.3063 18.7417C33.7184 18.3295 34.3861 18.3295 34.7983 18.7417C35.2105 19.1538 35.2105 19.822 34.7983 20.2337L30.7468 24.2852V26.0008C30.7468 26.6036 30.6499 27.1682 30.4562 27.6937C30.2192 28.3347 29.839 28.9179 29.3145 29.4413C28.8694 29.9024 28.3346 30.2677 27.7432 30.5139C27.1507 30.7602 26.5149 30.8828 25.874 30.8736C25.5412 30.8782 25.2105 30.8473 24.8849 30.7824C24.7148 30.7484 24.5459 30.7046 24.38 30.6515L22.8838 32.1476C23.7875 32.5953 24.7839 32.8195 25.8709 32.8195C27.7473 32.8195 29.3527 32.1538 30.6891 30.8179C31.6463 29.8627 32.2584 28.771 32.5294 27.5371C32.6376 27.0477 32.6911 26.5356 32.6911 26.0008V24.0518C32.6911 23.7896 32.788 23.5593 32.9797 23.3671C33.0683 23.2744 33.1744 23.2012 33.2929 23.1518C33.4104 23.1023 33.5371 23.0771 33.6649 23.0786C33.9266 23.0786 34.1584 23.1744 34.349 23.3671C34.5459 23.5624 34.6407 23.7896 34.6427 24.0544ZM17.1074 25.9977C17.1074 27.7164 17.5453 29.2651 18.4232 30.6407L19.8452 29.2187C19.3176 28.2522 19.0538 27.1785 19.0538 25.9977V24.0487C19.0538 23.7865 18.957 23.5562 18.7653 23.364C18.6726 23.2718 18.5716 23.2012 18.4624 23.1533C18.3439 23.1013 18.2161 23.0755 18.0801 23.0755C17.9523 23.0745 17.8256 23.0992 17.7081 23.1487C17.636 23.1791 17.568 23.2187 17.5062 23.2661C17.467 23.2955 17.4299 23.3285 17.3959 23.364C17.2754 23.4841 17.1929 23.619 17.1476 23.7674C17.1208 23.8565 17.1074 23.9503 17.1074 24.0487V25.9977Z" fill="white"/>
</svg>
