<svg width="24" height="24" viewBox="0 0 24 24" fill="none" xmlns="http://www.w3.org/2000/svg">
<path d="M22.4228 10.7769L20.2208 9.31894C19.8308 9.06094 19.6388 8.59294 19.7288 8.13094L20.2508 5.53894C20.3468 5.05294 20.1968 4.54894 19.8488 4.19494C19.4948 3.84094 18.9968 3.69094 18.5048 3.79294L15.9128 4.31494C15.4508 4.41094 14.9888 4.21294 14.7248 3.82294L13.2608 1.62094C12.9848 1.20694 12.5228 0.960938 12.0248 0.960938C11.5268 0.960938 11.0648 1.20694 10.7888 1.62094L9.3248 3.82294C9.0668 4.21294 8.5988 4.40494 8.1368 4.31494L5.5448 3.79294C5.0588 3.69694 4.5548 3.84694 4.2008 4.19494C3.8468 4.54894 3.6968 5.04694 3.7988 5.53894L4.3208 8.13094C4.4108 8.59294 4.2188 9.05494 3.8288 9.31894L1.6268 10.7829C1.2128 11.0589 0.966797 11.5209 0.966797 12.0189C0.966797 12.5169 1.2128 12.9789 1.6268 13.2549L3.8288 14.7189C4.2188 14.9769 4.4108 15.4449 4.3208 15.9069L3.7988 18.4989C3.7028 18.9849 3.8528 19.4889 4.2008 19.8429C4.5548 20.1969 5.0528 20.3469 5.5448 20.2449L8.1368 19.7229C8.5988 19.6269 9.0608 19.8249 9.3248 20.2149L10.7888 22.4169C11.0648 22.8309 11.5268 23.0769 12.0248 23.0769C12.5228 23.0769 12.9848 22.8309 13.2608 22.4169L14.7248 20.2149C14.9828 19.8249 15.4508 19.6329 15.9128 19.7229L18.5048 20.2449C18.9908 20.3409 19.4948 20.1909 19.8488 19.8429C20.2028 19.4889 20.3528 18.9909 20.2508 18.4989L19.7288 15.9069C19.6388 15.4449 19.8308 14.9829 20.2208 14.7189L22.4228 13.2549C22.8368 12.9789 23.0828 12.5169 23.0828 12.0189C23.0828 11.5209 22.8368 11.0529 22.4228 10.7769ZM16.5788 10.2609L11.6228 15.3009C11.4848 15.4449 11.2988 15.5169 11.1068 15.5169C10.9388 15.5169 10.7648 15.4569 10.6328 15.3369L7.3928 12.4749C7.0928 12.2109 7.0688 11.7549 7.3268 11.4609C7.5908 11.1609 8.0468 11.1369 8.3408 11.3949L11.0708 13.8069L15.5468 9.25294C15.8228 8.97094 16.2788 8.96494 16.5668 9.24694C16.8548 9.51694 16.8548 9.97294 16.5788 10.2609Z" fill="#007AFF"/>
</svg>
