<svg width="20" height="20" viewBox="0 0 20 20" fill="none" xmlns="http://www.w3.org/2000/svg">
<path fill-rule="evenodd" clip-rule="evenodd" d="M13.4004 13.6839V17.5164H14.6004V13.6839H17.7981C18.6446 13.6839 19.3221 12.9626 19.3221 12.0839V11.0839C19.3221 10.2052 18.6446 9.48389 17.7981 9.48389H17.3235C17.1214 9.48389 16.9488 9.30977 16.9488 9.08389V5.83389C16.9488 5.74608 17.0151 5.68389 17.0861 5.68389C17.8016 5.68389 18.3728 5.07451 18.3728 4.33389V4.08389C18.3728 3.2052 17.6953 2.48389 16.8488 2.48389H11.153C10.3065 2.48389 9.62899 3.2052 9.62899 4.08389V4.33389C9.62899 5.07451 10.2002 5.68389 10.9156 5.68389C10.9866 5.68389 11.053 5.74608 11.053 5.83389V9.08389C11.053 9.30977 10.8804 9.48389 10.6783 9.48389H10.2036C9.35715 9.48389 8.67969 10.2052 8.67969 11.0839V12.0839C8.67969 12.9626 9.35715 13.6839 10.2036 13.6839H13.4004ZM18.1728 12.0839C18.1728 12.3098 18.0002 12.4839 17.7981 12.4839H10.2036C10.0016 12.4839 9.829 12.3098 9.829 12.0839V11.0839C9.829 10.858 10.0016 10.6839 10.2036 10.6839H10.6783C11.5248 10.6839 12.2023 9.96258 12.2023 9.08389V5.83389C12.2023 5.09327 11.6311 4.48389 10.9156 4.48389C10.8446 4.48389 10.7783 4.42169 10.7783 4.33389V4.08389C10.7783 3.85801 10.9509 3.68389 11.153 3.68389H16.8488C17.0509 3.68389 17.2235 3.85801 17.2235 4.08389V4.33389C17.2235 4.42169 17.1571 4.48389 17.0861 4.48389C16.3707 4.48389 15.7995 5.09327 15.7995 5.83389V9.08389C15.7995 9.96258 16.477 10.6839 17.3235 10.6839H17.7981C18.0002 10.6839 18.1728 10.858 18.1728 11.0839V12.0839Z" fill="#007AFF"/>
<path fill-rule="evenodd" clip-rule="evenodd" d="M7.87969 8.84912H0.679688V10.0491H7.87969V8.84912Z" fill="#007AFF"/>
<path fill-rule="evenodd" clip-rule="evenodd" d="M7.87969 13.8201V12.6201H0.679688V13.8201H7.87969Z" fill="#007AFF"/>
<path fill-rule="evenodd" clip-rule="evenodd" d="M11.7527 16.3164H0.679688V17.5164H11.7527V16.3164Z" fill="#007AFF"/>
</svg>
