<svg width="23" height="22" viewBox="0 0 23 22" fill="none" xmlns="http://www.w3.org/2000/svg">
<path fill-rule="evenodd" clip-rule="evenodd" d="M13.684 3.18262C15.3884 3.9977 16.7304 5.64641 17.346 7.69964H17.3467V12.7084L17.692 13.6256C17.8589 14.069 18.0817 14.4894 18.355 14.8766L19.0612 15.8771C19.4642 16.0061 19.7559 16.3838 19.7559 16.8296C19.7559 17.3819 19.3081 17.8296 18.7559 17.8296H3.74414C3.19186 17.8296 2.74414 17.3819 2.74414 16.8296C2.74414 16.3744 3.04825 15.9903 3.46438 15.8692L4.16511 14.8766C4.43837 14.4894 4.66118 14.069 4.82813 13.6256L5.17341 12.7084V7.69964H5.17269C5.78552 5.65566 7.11821 4.01256 8.81165 3.19369C9.17038 2.01383 10.1264 1.16992 11.2495 1.16992C12.3691 1.16992 13.3227 2.00855 13.684 3.18262ZM11.2607 20.8296C9.95452 20.8296 8.84328 19.906 8.43145 18.6169H14.09C13.6782 19.906 12.567 20.8296 11.2607 20.8296Z" fill="#007AFF"/>
</svg>
