<svg width="23" height="22" viewBox="0 0 23 22" fill="none" xmlns="http://www.w3.org/2000/svg">
<path fill-rule="evenodd" clip-rule="evenodd" d="M1.5166 6.75C1.5166 4.54086 3.30746 2.75 5.5166 2.75H17.6833C19.8924 2.75 21.6833 4.54086 21.6833 6.75V14.3333C21.6833 16.5425 19.8924 18.3333 17.6833 18.3333H15.7249L11.5999 20.1667L7.47494 18.3333H5.5166C3.30746 18.3333 1.5166 16.5425 1.5166 14.3333V6.75ZM8.22632 10.5417C8.22632 11.4276 7.50811 12.1458 6.62215 12.1458C5.73619 12.1458 5.01798 11.4276 5.01798 10.5417C5.01798 9.65571 5.73619 8.9375 6.62215 8.9375C7.50811 8.9375 8.22632 9.65571 8.22632 10.5417ZM13.2026 10.5417C13.2026 11.4276 12.4844 12.1458 11.5985 12.1458C10.7125 12.1458 9.9943 11.4276 9.9943 10.5417C9.9943 9.65571 10.7125 8.9375 11.5985 8.9375C12.4844 8.9375 13.2026 9.65571 13.2026 10.5417ZM16.5739 12.1458C17.4598 12.1458 18.1781 11.4276 18.1781 10.5417C18.1781 9.65571 17.4598 8.9375 16.5739 8.9375C15.6879 8.9375 14.9697 9.65571 14.9697 10.5417C14.9697 11.4276 15.6879 12.1458 16.5739 12.1458Z" fill="#007AFF"/>
</svg>
