<svg width="23" height="22" viewBox="0 0 23 22" fill="none" xmlns="http://www.w3.org/2000/svg">
<path fill-rule="evenodd" clip-rule="evenodd" d="M13.057 3.13936C14.7614 3.95443 16.1034 5.60316 16.719 7.65642H16.7197V12.6652L17.065 13.5824C17.232 14.0258 17.4548 14.4462 17.728 14.8333L18.4343 15.8339C18.8372 15.9629 19.1289 16.3406 19.1289 16.7864C19.1289 17.2869 18.7611 17.7016 18.281 17.7749L20.1774 19.6786C20.4502 19.9525 20.4494 20.3958 20.1755 20.6686C19.9087 20.9344 19.4812 20.9404 19.2071 20.6874C19.1838 20.654 19.1573 20.6221 19.1276 20.5922L2.26332 3.66205C2.25625 3.65494 2.24906 3.64803 2.24176 3.64129C2.05185 3.36796 2.07915 2.98962 2.32318 2.74654C2.59708 2.47371 3.04029 2.47457 3.31313 2.74847L5.75919 5.20409C6.41554 4.31377 7.24456 3.60506 8.18478 3.15043C8.54358 1.97072 9.49959 1.12695 10.6226 1.12695C11.742 1.12695 12.6956 1.96545 13.057 3.13936ZM14.3566 17.7864L4.54646 7.93788V12.6652L4.20118 13.5824C4.03423 14.0258 3.81142 14.4462 3.53816 14.8333L2.83743 15.826C2.4213 15.9471 2.11719 16.3312 2.11719 16.7864C2.11719 17.3387 2.5649 17.7864 3.11719 17.7864H14.3566ZM10.6338 20.7864C9.32757 20.7864 8.21633 19.8628 7.80449 18.5737H13.4631C13.0512 19.8628 11.94 20.7864 10.6338 20.7864Z" fill="#007AFF"/>
</svg>
