<svg width="22" height="22" viewBox="0 0 22 22" fill="none" xmlns="http://www.w3.org/2000/svg">
    <path
        d="M10.0866 2.04906C10.439 1.25857 11.561 1.25857 11.9134 2.04906L13.804 6.29058C13.9494 6.61661 14.2575 6.84045 14.6124 6.87792L19.2306 7.36534C20.0913 7.45618 20.438 8.52328 19.7951 9.10267L16.3454 12.2115C16.0803 12.4505 15.9626 12.8126 16.0366 13.1618L17.0002 17.7046C17.1797 18.5512 16.272 19.2107 15.5223 18.7783L11.4996 16.4582C11.1904 16.2798 10.8096 16.2798 10.5004 16.4582L6.4777 18.7783C5.728 19.2107 4.82027 18.5512 4.99984 17.7046L5.96337 13.1618C6.03743 12.8126 5.91975 12.4505 5.65458 12.2115L2.2049 9.10267C1.56199 8.52328 1.90871 7.45618 2.7694 7.36534L7.38757 6.87792C7.74255 6.84045 8.05064 6.61661 8.19597 6.29058L10.0866 2.04906Z"
        fill="#007AFF" />
</svg>
