<svg width="22" height="23" viewBox="0 0 22 23" fill="none" xmlns="http://www.w3.org/2000/svg">
<path fill-rule="evenodd" clip-rule="evenodd" d="M4.03398 10.1964C5.24901 10.1964 6.23398 11.1814 6.23398 12.3964C6.23398 13.6115 5.24901 14.5964 4.03398 14.5964C2.81896 14.5964 1.83398 13.6115 1.83398 12.3964C1.83398 11.1814 2.81896 10.1964 4.03398 10.1964ZM10.909 10.1964C12.124 10.1964 13.109 11.1814 13.109 12.3964C13.109 13.6115 12.124 14.5964 10.909 14.5964C9.69396 14.5964 8.70898 13.6115 8.70898 12.3964C8.70898 11.1814 9.69396 10.1964 10.909 10.1964ZM19.984 12.3964C19.984 11.1814 18.999 10.1964 17.784 10.1964C16.569 10.1964 15.584 11.1814 15.584 12.3964C15.584 13.6115 16.569 14.5964 17.784 14.5964C18.999 14.5964 19.984 13.6115 19.984 12.3964Z" fill="#007AFF"/>
</svg>
