<svg width="20" height="20" viewBox="0 0 20 20" fill="none" xmlns="http://www.w3.org/2000/svg">
<path fill-rule="evenodd" clip-rule="evenodd" d="M2.92893 17.0711C6.83417 20.9764 13.1658 20.9764 17.0711 17.0711C20.9763 13.1659 20.9763 6.83422 17.0711 2.92898C13.1658 -0.976265 6.83418 -0.976265 2.92893 2.92898C-0.97631 6.83422 -0.976311 13.1659 2.92893 17.0711ZM14.2426 5.7574C14.6332 6.14793 14.6332 6.78109 14.2426 7.17162L11.4142 10.0001L14.2426 12.8285C14.6332 13.219 14.6332 13.8522 14.2426 14.2427C13.8521 14.6332 13.2189 14.6332 12.8284 14.2427L9.99999 11.4143L7.17157 14.2427C6.78105 14.6332 6.14788 14.6332 5.75736 14.2427C5.36684 13.8522 5.36683 13.219 5.75736 12.8285L8.58578 10.0001L5.75735 7.17163C5.36682 6.7811 5.36682 6.14794 5.75735 5.75742C6.14787 5.36689 6.78104 5.36689 7.17156 5.75742L9.99999 8.58584L12.8284 5.7574C13.219 5.36688 13.8521 5.36688 14.2426 5.7574Z" fill="#121212" fill-opacity="0.48"/>
</svg>
