<svg width="24" height="24" viewBox="0 0 24 24" fill="none" xmlns="http://www.w3.org/2000/svg">
<path fill-rule="evenodd" clip-rule="evenodd" d="M15 20.25C15.4142 20.25 15.75 19.9142 15.75 19.5L15.75 9C15.75 8.58579 15.4142 8.25 15 8.25L4.5 8.25C4.08579 8.25 3.75 8.58579 3.75 9L3.75 19.5C3.75 19.9142 4.08579 20.25 4.5 20.25L15 20.25ZM17.25 19.5C17.25 20.7426 16.2426 21.75 15 21.75L4.5 21.75C3.25736 21.75 2.25 20.7426 2.25 19.5L2.25 9C2.25 7.75736 3.25736 6.75 4.5 6.75L15 6.75C16.2426 6.75 17.25 7.75736 17.25 9L17.25 19.5ZM20.0357 15.75C20.1541 15.75 20.25 15.6541 20.25 15.5357L20.25 5.5C20.25 4.79053 20.0703 4.38833 19.841 4.15901C19.6117 3.92969 19.2095 3.75 18.5 3.75L9 3.75C8.70309 3.75 8.56299 3.85359 8.46702 3.99206C8.34406 4.1695 8.25 4.48091 8.25 4.92857L8.25 5.5L6.75 5.5L6.75 4.92857C6.75 4.31111 6.87338 3.65824 7.23414 3.13767C7.62189 2.57814 8.23178 2.25 9 2.25L18.5 2.25C19.4474 2.25 20.2952 2.49188 20.9017 3.09835C21.5081 3.70482 21.75 4.55262 21.75 5.5L21.75 15.5357C21.75 16.4825 20.9825 17.25 20.0357 17.25L18.5 17.25L18.5 15.75L20.0357 15.75Z" fill="#007AFF"/>
</svg>
