<svg width="28" height="28" viewBox="0 0 28 28" fill="none" xmlns="http://www.w3.org/2000/svg">
<rect width="28" height="28" rx="8" fill="#5AC63A"/>
<mask id="mask0_6406_42568" style="mask-type:alpha" maskUnits="userSpaceOnUse" x="3" y="3" width="22" height="22">
<rect x="3.23047" y="3.23047" width="21.5385" height="21.5385" fill="#FCFCFC"/>
</mask>
<g mask="url(#mask0_6406_42568)">
<path d="M7.26901 20.2827C6.89507 20.2827 6.57738 20.1516 6.31593 19.8896C6.05388 19.6281 5.92285 19.3104 5.92285 18.9365V9.84996C5.92285 9.47603 6.06854 9.14308 6.3599 8.85111C6.65187 8.55975 6.9923 8.41406 7.38118 8.41406H12.5414C12.6461 8.41406 12.7547 8.4365 12.8672 8.48137C12.9791 8.52624 13.0724 8.58607 13.1472 8.66086L13.9998 9.51342H20.6184C20.9325 9.51342 21.2056 9.59569 21.4377 9.76022C21.6693 9.92475 21.8299 10.1416 21.9196 10.4109H8.27862C7.87477 10.4109 7.53076 10.553 7.24657 10.8371C6.96238 11.1213 6.82029 11.4653 6.82029 11.8692V18.8243C6.82029 18.9589 6.8502 19.0675 6.91003 19.1501C6.96986 19.2321 7.05212 19.2955 7.15683 19.3403L9.10875 12.8564C9.16858 12.6619 9.28076 12.5049 9.44529 12.3852C9.60982 12.2656 9.7893 12.2057 9.98375 12.2057H22.6376C22.9367 12.2057 23.1761 12.3254 23.3555 12.5647C23.535 12.804 23.5874 13.0658 23.5126 13.35L21.7177 19.3403C21.628 19.6245 21.4634 19.8525 21.2241 20.0242C20.9848 20.1965 20.7156 20.2827 20.4164 20.2827H7.26901Z" fill="white"/>
</g>
</svg>
