<svg width="24" height="24" viewBox="0 0 24 24" fill="none" xmlns="http://www.w3.org/2000/svg">
<rect width="24" height="24" rx="4" fill="#A4A4D8"/>
<path d="M5 11H19V17C19 17.5523 18.5523 18 18 18H6C5.44772 18 5 17.5523 5 17V11Z" fill="#FEFEFE"/>
<path d="M5 10H19V8C19 7.44772 18.5523 7 18 7H6C5.44772 7 5 7.44772 5 8V10Z" fill="#FEFEFE"/>
<path d="M17 21C14.2386 21 12 18.7614 12 16C12 13.2386 14.2386 11 17 11C19.7614 11 22 13.2386 22 16C22 18.7614 19.7614 21 17 21Z" fill="#FEFEFE" stroke="#A4A4D8" stroke-width="1.5" stroke-linecap="round"/>
<path d="M16 21C13.2386 21 11 18.7614 11 16C11 13.2386 13.2386 11 16 11C18.7614 11 21 13.2386 21 16C21 18.7614 18.7614 21 16 21Z" fill="#FEFEFE" stroke="#A4A4D8" stroke-width="1.5" stroke-linecap="round"/>
<path d="M16 20C13.7909 20 12 18.2091 12 16C12 13.7909 13.7909 12 16 12C18.2091 12 20 13.7909 20 16C20 18.2091 18.2091 20 16 20Z" fill="#FEFEFE" stroke="#FEFEFE" stroke-linecap="round"/>
<path d="M16 13V15.25C16 15.6642 16.3358 16 16.75 16H19" stroke="#A4A4D8" stroke-linecap="round"/>
<rect x="7.5" y="4.5" width="2" height="4" rx="1" fill="#FEFEFE" stroke="#A4A4D8"/>
<path d="M16.5 7.5V5.5C16.5 4.94772 16.0523 4.5 15.5 4.5C14.9477 4.5 14.5 4.94772 14.5 5.5V7.5C14.5 8.05228 14.9477 8.5 15.5 8.5C16.0523 8.5 16.5 8.05228 16.5 7.5Z" fill="#FEFEFE" stroke="#A4A4D8"/>
</svg>
