<svg width="24" height="24" viewBox="0 0 24 24" fill="none" xmlns="http://www.w3.org/2000/svg">
    <path fill-rule="evenodd" clip-rule="evenodd"
        d="M15.0002 2.5C15.2763 2.5 15.5002 2.72386 15.5002 3C15.5002 3.27614 15.2763 3.5 15.0002 3.5H9.0002C8.72405 3.5 8.5002 3.27614 8.5002 3C8.5002 2.72386 8.72405 2.5 9.0002 2.5H15.0002ZM19.8002 4.9C20.0763 4.9 20.3002 5.12386 20.3002 5.4C20.3002 5.67614 20.0763 5.9 19.8002 5.9H4.2002C3.92405 5.9 3.7002 5.67614 3.7002 5.4C3.7002 5.12386 3.92405 4.9 4.2002 4.9H19.8002ZM18.3924 7.49332C18.2987 7.39955 18.1715 7.34688 18.0389 7.34688H5.8977C5.62156 7.34688 5.3977 7.57073 5.3977 7.84688V17.9998C5.3977 19.9328 6.9647 21.4998 8.8977 21.4998H15.0388C16.9718 21.4998 18.5387 19.9328 18.5388 17.9998L18.5389 7.84688C18.5389 7.71427 18.4862 7.58709 18.3924 7.49332ZM17.5389 8.34688L17.5388 17.9998C17.5388 19.3805 16.4195 20.4998 15.0388 20.4998H8.8977C7.51699 20.4998 6.3977 19.3805 6.3977 17.9998V8.34688H17.5389ZM15.217 9.95801V17.3799L14.217 17.3799V9.95801H15.217ZM12.4889 17.3799V9.95801H11.4889L11.4889 17.3799L12.4889 17.3799ZM9.75957 9.95801L9.75957 17.3799L8.75957 17.3799L8.75957 9.95801H9.75957Z"
        fill="white" />
</svg>
