<svg fill="none" height="16" viewBox="0 0 16 16" width="16" xmlns="http://www.w3.org/2000/svg">
    <path
        d="M12.2851 10.6824L12.7205 11.9419L12.8205 12.1666H12.1463L12.5434 13.1666C12.5434 13.1666 12.9805 13.2578 13.2346 13.1666C13.3468 13.1263 13.5033 13.0217 13.5033 13.0217C13.798 12.8191 13.9486 12.4339 13.8197 12.0611L13.2346 10.3683C13.0027 9.63273 12.8829 8.84552 12.8829 8.04938V7.33325C12.8829 4.63141 11.4358 2.26687 9.26076 1.67942C9.23039 1.52167 9.17359 1.36263 9.06909 1.22281C8.84069 0.917225 8.49398 0.833252 8.16663 0.833252C7.83927 0.833252 7.49256 0.917225 7.26417 1.22281C7.15966 1.36263 7.10286 1.52167 7.07249 1.67941C6.59055 1.80958 6.14433 2.02699 5.74167 2.31599L5.33329 2.66659L5.99996 3.33325L6.33148 3.12952C6.71058 2.8582 7.12845 2.67371 7.56713 2.59162C7.74065 2.60023 8.02947 2.59927 8.26443 2.597C8.40747 2.59561 8.54245 2.59354 8.64156 2.59181L8.75573 2.58969C10.4785 2.90552 11.8829 4.8001 11.8829 7.33325V8.04938C11.8829 8.94727 12.0183 9.83853 12.2831 10.6761L12.2851 10.6824Z"
        fill="#121212" />
    <path
        d="M3.45007 7.33325C3.45007 6.10801 3.74771 4.95215 4.27587 3.99992L4.9365 4.9099C4.62863 5.60811 4.45007 6.43009 4.45007 7.33325V8.04938C4.45007 8.94727 4.3147 9.83853 4.04984 10.6761L4.04785 10.6824L3.53505 12.1666H10.2046L10.9296 13.1666H3.29939C2.72278 13.1666 2.32779 12.5986 2.51348 12.0611L3.09833 10.3684C3.33024 9.63275 3.45007 8.84553 3.45007 8.04938V7.33325Z"
        fill="#121212" />
    <path
        d="M3.70651 0.928483C3.93008 0.766396 4.24271 0.816236 4.4048 1.0398L14.0715 14.3731C14.2336 14.5967 14.1837 14.9093 13.9601 15.0714C13.7366 15.2335 13.4239 15.1837 13.2619 14.9601L3.59519 1.62677C3.4331 1.4032 3.48294 1.09057 3.70651 0.928483Z"
        fill="#121212" />
    <path
        d="M6.99996 14.6666C6.99996 14.3904 7.22382 14.1666 7.49996 14.1666H8.83329C9.10943 14.1666 9.33329 14.3904 9.33329 14.6666C9.33329 14.9427 9.10943 15.1666 8.83329 15.1666H7.49996C7.22382 15.1666 6.99996 14.9427 6.99996 14.6666Z"
        fill="#121212" />
</svg>
