<svg width="16" height="16" viewBox="0 0 16 16" fill="none" xmlns="http://www.w3.org/2000/svg">
<path d="M3.21301 1.09302C3.44356 0.934699 3.76596 0.98338 3.93311 1.20175L13.9018 14.2249C14.0689 14.4433 14.0175 14.7487 13.787 14.907C13.5564 15.0653 13.234 15.0166 13.0669 14.7983L3.09821 1.77506C2.93106 1.55669 2.98245 1.25133 3.21301 1.09302Z" fill="#121212"/>
<path d="M4.66431 5.12745C3.96468 5.13841 3.25921 5.30053 2.62092 5.63569C1.92834 5.99938 1.78688 6.92977 2.34008 7.48265L5.09596 10.2368L2.75204 12.5793C2.5671 12.7641 2.5671 13.0638 2.75205 13.2486C2.937 13.4335 3.23685 13.4335 3.42179 13.2486L5.7657 10.9061L8.52142 13.6601C9.07464 14.213 10.0055 14.0716 10.3694 13.3794C10.4558 13.2151 10.531 13.0469 10.5952 12.8757L9.83301 11.8799C9.77151 12.2378 9.65602 12.5875 9.48432 12.9141C9.43413 13.0095 9.30508 13.0295 9.2283 12.9528L3.04699 6.77533C2.96094 6.6927 3 6.56611 3.08583 6.52104C3.81224 6.13963 4.67539 6.04153 5.48397 6.19826L4.66431 5.12745Z" fill="#121212"/>
<path d="M9.75198 10.11C9.70424 9.53915 9.81356 8.91616 10.2257 8.41644L12.7744 5.32583C13.0981 4.93328 13.0705 4.35934 12.7105 3.99957L12 3.28954C11.6419 2.93164 11.0708 2.90186 10.6773 3.22074L7.51311 5.78487C7.27624 5.97682 7.01223 6.10167 6.73967 6.17468L6.03814 5.25819C6.37034 5.26584 6.66681 5.18356 6.88353 5.00794L10.0477 2.44381C10.8389 1.80273 11.9867 1.86247 12.7069 2.58221L13.4174 3.29224C14.1419 4.01628 14.1975 5.17188 13.5459 5.96206L10.9972 9.05267C10.7522 9.34968 10.6853 9.79909 10.7864 10.2862C10.8737 10.7073 10.9046 11.1428 10.875 11.5771L9.75198 10.11Z" fill="#121212"/>
</svg>
