<svg width="31" height="26" viewBox="0 0 31 26" fill="none" xmlns="http://www.w3.org/2000/svg">
<path fill-rule="evenodd" clip-rule="evenodd" d="M15.25 25.5C22.1536 25.5 27.75 19.9036 27.75 13C27.75 6.09644 22.1536 0.5 15.25 0.5C8.34644 0.5 2.75 6.09644 2.75 13C2.75 19.9036 8.34644 25.5 15.25 25.5ZM13.4532 10.1876L21.0375 6.81679C21.2885 6.70521 21.545 6.96173 21.4335 7.21277L18.0627 14.7971C17.8616 15.2495 17.4998 15.6113 17.0473 15.8124L9.46301 19.1832C9.21197 19.2948 8.95546 19.0383 9.06703 18.7872L12.4378 11.2029C12.6389 10.7505 13.0007 10.3887 13.4532 10.1876ZM16.7502 13C16.7502 13.8284 16.0787 14.5 15.2502 14.5C14.4218 14.5 13.7502 13.8284 13.7502 13C13.7502 12.1716 14.4218 11.5 15.2502 11.5C16.0787 11.5 16.7502 12.1716 16.7502 13Z" fill="#007AFF"/>
</svg>
