<svg width="148" height="148" viewBox="0 0 148 148" fill="none" xmlns="http://www.w3.org/2000/svg">
<circle cx="74.5" cy="74.5" r="66.5" fill="white"/>
<mask id="mask0_6530_250006" style="mask-type:alpha" maskUnits="userSpaceOnUse" x="8" y="8" width="133" height="133">
<circle cx="74.5" cy="74.5" r="66.5" fill="#FFE7A8"/>
</mask>
<g mask="url(#mask0_6530_250006)">
<path d="M95.1241 48.916C95.9337 47.5136 96.7127 47.6052 97.5987 48.0593C98.5259 48.5346 98.9623 49.4699 98.2427 50.7165C97.6129 51.8073 96.0693 50.7083 95.3496 51.9548" stroke="black" stroke-linecap="round"/>
<path d="M94.5234 53.5586L94.2984 53.9484" stroke="black" stroke-linecap="round"/>
<path d="M51.6605 77.6353C51.6605 77.6353 31.211 75.7433 43.4987 51.5313C55.7864 27.3193 70.8408 46.0869 70.8408 46.0869L51.6605 77.6353Z" fill="black"/>
<path d="M77.7504 48.978C77.7504 48.978 79.4799 68.212 73.6925 76.7587C67.9002 85.3066 59.8049 80.9547 55.273 77.4159C50.741 73.8772 49.41 69.9269 49.41 69.9269C49.41 69.9269 44.0649 69.9514 42.3424 64.4143C40.6216 58.8798 44.3113 54.4102 47.4449 54.1508C50.5784 53.8915 53.1784 56.9591 53.1784 56.9591L52.251 51.229C52.251 51.229 71.2769 30.0289 77.7504 48.978Z" fill="#FF9C85"/>
<path d="M53.1775 56.9582C53.1775 56.9582 61.5412 58.1458 66.5824 54.1637C71.195 50.5209 74.0384 45.5303 74.0384 45.5303C74.0384 45.5303 75.3627 47.4115 76.5533 51.1925C77.4868 54.1543 77.9679 57.5896 77.9679 57.5896C77.9679 57.5896 84.2393 47.2278 75.244 40.3287C66.2492 33.4274 55.5635 37.5843 51.0652 43.1415C46.562 48.6999 53.1775 56.9582 53.1775 56.9582Z" fill="black"/>
<path d="M53.7024 44.5496C53.7024 44.5496 59.4779 30.1445 47.0698 25.7271C34.6605 21.3047 30.4992 46.9292 46.9872 50.3544C63.4752 53.7796 53.7024 44.5496 53.7024 44.5496Z" fill="black"/>
<path d="M44.4494 50.0823C44.7058 50.1408 44.9738 50.0159 45.0903 49.7704C48.1924 43.1574 52.276 41.4963 52.3164 41.4823C52.6078 41.3673 52.7506 41.0372 52.6379 40.7463C52.5213 40.4523 52.1938 40.3078 51.9019 40.4249C51.7181 40.4969 47.3573 42.2715 44.0624 49.2917C43.9307 49.5732 44.0514 49.9101 44.3374 50.0428L44.4494 50.0823Z" fill="white"/>
<path d="M50.245 63.8385L50.6813 63.7613C50.9439 63.5887 51.0192 63.2384 50.8465 62.9758L46.7457 56.6912C46.5731 56.4286 46.2207 56.3528 45.963 56.5242C45.7003 56.6968 45.6251 57.0471 45.7977 57.3098L49.8957 63.596L50.245 63.8385Z" fill="black"/>
<path d="M45.2213 61.3185L48.8841 61.645C49.1965 61.6721 49.4723 61.442 49.4994 61.1296C49.526 60.8194 49.3079 60.572 48.9839 60.5143L45.3974 60.2006C45.0845 60.1757 44.8087 60.4058 44.7821 60.716C44.7588 61.0014 44.9494 61.2565 45.2213 61.3185Z" fill="black"/>
<path d="M133.098 110.605L115.093 133.111C115.093 133.111 109.241 129.06 97.0876 130.411C88.2479 131.393 68.2794 130.411 68.2794 130.411L63.6748 151.059C63.6748 151.059 48.6404 86.4071 72.4203 90.072C122.387 97.7729 133.098 110.605 133.098 110.605Z" fill="#A0A2D0"/>
<path d="M133.098 110.605L115.093 133.111C115.093 133.111 109.241 129.06 97.0876 130.411C88.2479 131.393 68.2794 130.411 68.2794 130.411L63.6748 151.059C63.6748 151.059 48.6404 86.4071 72.4203 90.072C122.387 97.7729 133.098 110.605 133.098 110.605Z" fill="#A0A2D0"/>
<path d="M-14.2815 143.892C-14.2815 143.892 -2.06142 120.474 6.99708 106.204C16.3044 91.543 38.1585 74.334 38.1585 74.334C38.1585 74.334 71.1571 88.4663 76.8628 91.9375C78.1059 104.03 54.2703 175.884 54.2703 175.884C54.2703 175.884 12.5015 161.968 -14.2815 143.892Z" fill="#A0A2D0"/>
<path d="M-10.8926 88.0707C-10.8926 88.0707 1.02905 106.746 2.41748 118.888C3.80832 131.03 39.7012 75.5133 39.7012 75.5133C28.4109 63.4838 2.68585 65.4779 -10.8926 88.0707Z" fill="#A0A2D0"/>
<path opacity="0.5" d="M0.197943 116.651C0.520117 116.789 0.879131 116.688 1.00932 116.418C5.5712 107.008 15.5897 93.3147 15.6905 93.1791C15.8739 92.9301 15.7781 92.5693 15.4748 92.374C15.1752 92.19 14.7794 92.224 14.5953 92.4743C14.4935 92.6124 4.42489 106.376 -0.175024 115.861C-0.308283 116.139 -0.152713 116.487 0.173907 116.641L0.197943 116.651Z" fill="white"/>
<path d="M48.5434 78.8883C48.5434 78.8883 49.7942 84.5622 53.6308 86.2053C57.4675 87.8484 62.4372 84.8386 62.4372 84.8386C62.4372 84.8386 59.3273 83.5059 55.4906 81.8627C51.6539 80.2196 48.5434 78.8883 48.5434 78.8883Z" fill="#FF9C85"/>
<path opacity="0.5" d="M62.3509 150.569C62.0287 150.431 61.854 150.102 61.9601 149.821C65.6228 140.026 68.6208 123.326 68.6495 123.16C68.7031 122.855 69.0304 122.676 69.381 122.76C69.7209 122.85 69.9695 123.16 69.9152 123.466C69.8856 123.635 66.8712 140.42 63.1801 150.294C63.0708 150.583 62.7119 150.71 62.3749 150.58L62.3509 150.569Z" fill="white"/>
<g opacity="0.5" filter="url(#filter0_d_6530_250006)">
<path d="M61.9648 85.5723C61.9648 85.5723 57.2632 88.3931 53.4251 86.7493C49.587 85.1056 47.8966 79.5473 47.8966 79.5473" stroke="white" stroke-linecap="round"/>
</g>
<g opacity="0.5" filter="url(#filter1_d_6530_250006)">
<path d="M70.5293 90.8086C70.5293 90.8086 74.4006 90.6116 78.5086 91.3582C82.6166 92.1048 85.5867 93.5453 85.5867 93.5453" stroke="white" stroke-linecap="round"/>
</g>
<path d="M59.9503 85.8293L60.8791 80.0613L53.0638 76.7143L49.5299 81.3666L59.9503 85.8293Z" fill="#FF9C85"/>
<path d="M57.8337 80.696L57.3534 80.546L51.8443 75.8193C51.5786 75.5926 51.5499 75.1928 51.7745 74.9299C51.999 74.667 52.3983 74.6332 52.6642 74.8625L58.1761 79.5915C58.4393 79.8186 58.4677 80.2158 58.2431 80.4787L57.8337 80.696Z" fill="black"/>
<circle cx="1.69795" cy="1.69795" r="1.69795" transform="matrix(-0.986518 0.163652 0.163652 0.986518 83.4043 69.707)" fill="#8D8D8D"/>
<path d="M85.5541 71.7795L85.5556 71.7729L83.9381 70.5L80.9607 74.2423L83.9791 76.6317L83.979 76.6323L95.9239 86.0887C95.9239 86.0887 97.2428 85.395 97.999 84.4445C98.7311 83.524 98.9013 82.3461 98.9013 82.3461L85.5541 71.7795Z" fill="#13181C"/>
<path d="M71.4194 54.9406C65.933 55.6649 62.0737 60.7195 62.8026 66.2352L82.6774 63.6122C81.9474 58.0966 76.9057 54.217 71.4194 54.9406ZM71.4194 54.9406L71.354 54.4449L71.4194 54.9406ZM62.9867 66.2105L62.987 66.2124C63.7121 71.6171 68.6459 75.4185 74.0345 74.7167L74.0361 74.7165C79.4227 73.997 83.1988 69.0446 82.493 63.6369L82.4927 63.6352C81.7683 58.2304 76.8342 54.4282 71.4458 55.1298L71.444 55.1301C66.0574 55.8509 62.2813 60.8025 62.9867 66.2105ZM74.0609 74.9065C68.5735 75.6295 63.5328 71.7505 62.8026 66.2353L74.0609 74.9065ZM82.6775 63.6123C83.4069 69.1274 79.5473 74.1814 74.0611 74.9065L82.6775 63.6123Z" fill="#DBDCD9" stroke="black"/>
<path d="M99.7377 70.0498C95.3953 68.1901 87.9598 70.6518 87.0313 70.6719C85.4903 70.7058 84.0361 72.296 84.0361 72.296C84.0361 72.296 81.4344 75.8925 82.0579 76.8732C82.6807 77.8547 91.2367 89.8994 98.7882 90.0248C99.8058 90.0417 101.371 89.6766 101.371 89.6766L111.016 93.4364L114.485 85.336C114.485 85.336 103.336 71.5911 99.7377 70.0498Z" fill="#FF9C85"/>
<path d="M136.461 114.839L154.701 93.4355C154.701 93.4355 142.207 84.0186 132.828 81.2599C124.182 78.7165 109.826 79.3745 109.826 79.3745L105.301 91.0641C107.187 98.9829 114.456 112.989 136.461 114.839Z" fill="#A0A2D0"/>
<path d="M92.7736 74.0317L84.4289 80.2248" stroke="black" stroke-linecap="round"/>
<path d="M95.7707 78.3481L88.1846 83.6542" stroke="black" stroke-linecap="round"/>
<path d="M98.5753 83.1055L92.3631 87.2677" stroke="black" stroke-linecap="round"/>
<path d="M103.516 88.2176L99.1361 89.9213" stroke="black" stroke-linecap="round"/>
<g opacity="0.5" filter="url(#filter2_d_6530_250006)">
<path d="M113.451 102.936C113.451 102.936 110.99 100.818 108.93 97.9908C106.87 95.1638 105.901 92.5738 105.901 92.5738" stroke="white" stroke-linecap="round"/>
</g>
</g>
<defs>
<filter id="filter0_d_6530_250006" x="43.3965" y="79.0469" width="23.0684" height="16.7168" filterUnits="userSpaceOnUse" color-interpolation-filters="sRGB">
<feFlood flood-opacity="0" result="BackgroundImageFix"/>
<feColorMatrix in="SourceAlpha" type="matrix" values="0 0 0 0 0 0 0 0 0 0 0 0 0 0 0 0 0 0 127 0" result="hardAlpha"/>
<feOffset dy="4"/>
<feGaussianBlur stdDeviation="2"/>
<feComposite in2="hardAlpha" operator="out"/>
<feColorMatrix type="matrix" values="0 0 0 0 0 0 0 0 0 0 0 0 0 0 0 0 0 0 0.25 0"/>
<feBlend mode="normal" in2="BackgroundImageFix" result="effect1_dropShadow_6530_250006"/>
<feBlend mode="normal" in="SourceGraphic" in2="effect1_dropShadow_6530_250006" result="shape"/>
</filter>
<filter id="filter1_d_6530_250006" x="66.0293" y="90.2852" width="24.0566" height="11.7598" filterUnits="userSpaceOnUse" color-interpolation-filters="sRGB">
<feFlood flood-opacity="0" result="BackgroundImageFix"/>
<feColorMatrix in="SourceAlpha" type="matrix" values="0 0 0 0 0 0 0 0 0 0 0 0 0 0 0 0 0 0 127 0" result="hardAlpha"/>
<feOffset dy="4"/>
<feGaussianBlur stdDeviation="2"/>
<feComposite in2="hardAlpha" operator="out"/>
<feColorMatrix type="matrix" values="0 0 0 0 0 0 0 0 0 0 0 0 0 0 0 0 0 0 0.25 0"/>
<feBlend mode="normal" in2="BackgroundImageFix" result="effect1_dropShadow_6530_250006"/>
<feBlend mode="normal" in="SourceGraphic" in2="effect1_dropShadow_6530_250006" result="shape"/>
</filter>
<filter id="filter2_d_6530_250006" x="101.4" y="92.0742" width="16.5508" height="19.3613" filterUnits="userSpaceOnUse" color-interpolation-filters="sRGB">
<feFlood flood-opacity="0" result="BackgroundImageFix"/>
<feColorMatrix in="SourceAlpha" type="matrix" values="0 0 0 0 0 0 0 0 0 0 0 0 0 0 0 0 0 0 127 0" result="hardAlpha"/>
<feOffset dy="4"/>
<feGaussianBlur stdDeviation="2"/>
<feComposite in2="hardAlpha" operator="out"/>
<feColorMatrix type="matrix" values="0 0 0 0 0 0 0 0 0 0 0 0 0 0 0 0 0 0 0.25 0"/>
<feBlend mode="normal" in2="BackgroundImageFix" result="effect1_dropShadow_6530_250006"/>
<feBlend mode="normal" in="SourceGraphic" in2="effect1_dropShadow_6530_250006" result="shape"/>
</filter>
</defs>
</svg>
