<svg width="24" height="24" viewBox="0 0 24 24" fill="none" xmlns="http://www.w3.org/2000/svg">
<path d="M4.0001 17C4.02497 17.717 4.5 21 7 21C9.5 21 10.5 19 11 18C11.5671 16.8657 12.7286 15.3494 13.3823 14.7933C14.0356 14.2162 14.6 13.5322 15.0546 12.7667C15.6787 11.6517 16.0057 10.3746 16 9.07433C16.0095 7.21362 15.3309 5.42464 14.1127 4.09885C12.8946 2.77305 11.2361 2.0184 9.5001 2C7.76411 2.0184 6.1056 2.77305 4.88745 4.09885C3.66931 5.42464 2.99064 7.21362 3.0001 9.07433" stroke="black" stroke-width="1.25" stroke-linecap="round"/>
<path d="M7.02513 13C6.69867 12.1191 6.02171 9.93986 6 9.01533C6 8.21561 6.36875 7.44865 7.02513 6.88317C7.6815 6.31769 8.57174 6 9.5 6C10.4283 6 11.3185 6.31769 11.9749 6.88317C12.6313 7.44865 13 8.21561 13 9.01533" stroke="black" stroke-width="1.25" stroke-linecap="round"/>
<path d="M6 16C8.29147 15.9293 9.21496 15.4086 9 12" stroke="black" stroke-width="1.25" stroke-linecap="round"/>
<path d="M20 8.53513C21.1956 9.22675 22 10.5194 22 12C22 13.4806 21.1956 14.7733 20 15.4649" stroke="black" stroke-width="1.25" stroke-linecap="round"/>
<path d="M18 10C18.5978 10.3992 19 11.1454 19 12C19 12.8546 18.5978 13.6008 18 14" stroke="black" stroke-width="1.25" stroke-linecap="round"/>
</svg>
