<svg width="100" height="100" viewBox="0 0 100 100" fill="none" xmlns="http://www.w3.org/2000/svg">
<rect width="100" height="100" rx="50" fill="#E5E7F6"/>
<path fill-rule="evenodd" clip-rule="evenodd" d="M43.3965 31.5215C42.6788 31.5215 42.0161 31.9061 41.6601 32.5292L39.1303 36.9563H32.2607C30.0516 36.9563 28.2607 38.7471 28.2607 40.9563V64.478C28.2607 66.6871 30.0516 68.478 32.2607 68.478H67.739C69.9481 68.478 71.739 66.6871 71.739 64.478V40.9563C71.739 38.7471 69.9481 36.9563 67.739 36.9563L60.8694 36.9563L58.3397 32.5292C57.9836 31.9061 57.3209 31.5215 56.6032 31.5215H43.3965ZM60.8694 52.1737C60.8694 58.1768 56.003 63.0432 49.9998 63.0432C43.9967 63.0432 39.1303 58.1768 39.1303 52.1737C39.1303 46.1705 43.9967 41.3041 49.9998 41.3041C56.003 41.3041 60.8694 46.1705 60.8694 52.1737ZM57.6084 52.1737C57.6084 56.3759 54.2019 59.7824 49.9997 59.7824C45.7975 59.7824 42.391 56.3759 42.391 52.1737C42.391 47.9715 45.7975 44.565 49.9997 44.565C54.2019 44.565 57.6084 47.9715 57.6084 52.1737ZM60.326 43.478C61.2264 43.478 61.9564 42.748 61.9564 41.8476C61.9564 40.9471 61.2264 40.2171 60.326 40.2171C59.4255 40.2171 58.6955 40.9471 58.6955 41.8476C58.6955 42.748 59.4255 43.478 60.326 43.478Z" fill="#007AFF"/>
</svg>
