<svg width="148" height="148" viewBox="0 0 148 148" fill="none" xmlns="http://www.w3.org/2000/svg">
<path d="M141 74.5C141 111.227 111.227 141 74.5 141C37.7731 141 8 111.227 8 74.5C8 37.7731 37.7731 8 74.5 8C111.227 8 141 37.7731 141 74.5Z" fill="#FFE7A8"/>
<path d="M134.528 63.9998C130.794 77.3101 115.914 86.4473 106.453 87.4032" stroke="black" stroke-linecap="round"/>
<path d="M114 79.2529C110.141 81.8218 108.392 82.3189 108 82.2463" stroke="black" stroke-linecap="round"/>
<path fill-rule="evenodd" clip-rule="evenodd" d="M123.137 119.851C110.999 132.864 93.6995 141 74.5 141C55.4457 141 38.2631 132.986 26.1388 120.145C36.4491 115.848 54.4801 113 75 113C95.0478 113 112.72 115.718 123.137 119.851Z" fill="#F0AE02"/>
<path d="M70 122H77V71H70V122Z" fill="#CFDBE1"/>
<path opacity="0.12" d="M73 85V76H77V84.0796C75.6651 84.3811 74.3322 84.6881 73 85Z" fill="black"/>
<path d="M62 72.0294C62 74.2222 63.839 76 66.1072 76H80.8928C83.161 76 85 74.2222 85 72.0294V70.9706C85 68.7778 83.161 67 80.8928 67H66.1072C63.839 67 62 68.7778 62 70.9706V72.0294Z" fill="#CFDBE1"/>
<path d="M89 124V122.947C89 120.767 87.2013 119 84.9824 119H63.0176C60.7987 119 59 120.767 59 122.947V124H89Z" fill="#CFDBE1"/>
<path opacity="0.23" d="M59 124H89V123H59V124Z" fill="black"/>
<path d="M56.5978 38.553C61.803 38.0169 67.2389 37.9428 73.3107 38.032C79.3825 37.9428 86.197 38.0169 91.4022 38.553C103.485 39.7976 101.935 54.5765 101.935 54.5765V72H46.0645V54.5765C46.0645 54.5765 44.5154 39.7976 56.5978 38.553Z" fill="#C90101"/>
<path d="M56.5978 38.553C61.803 38.0169 67.2389 37.9428 73.3107 38.032C79.3825 37.9428 86.197 38.0169 91.4022 38.553C103.485 39.7976 101.935 54.5765 101.935 54.5765V72H46.0645V54.5765C46.0645 54.5765 44.5154 39.7976 56.5978 38.553Z" fill="black" fill-opacity="0.2"/>
<path d="M46.9823 71.0917H101.018L101.02 54.5407C101.027 54.4702 101.719 47.4351 98.0933 42.9999C96.4128 40.9445 94.0494 39.7482 91.0684 39.4444C87.5789 39.0886 83.0014 38.9086 77.4621 38.9086C76.0649 38.9086 74.678 38.9203 73.3287 38.9398C71.9659 38.9203 70.5797 38.9086 69.1821 38.9086C63.6429 38.9086 60.4209 39.0886 56.9315 39.4444C53.9491 39.7482 51.5846 40.9459 49.9041 43.0034C46.276 47.4453 46.9724 54.4702 46.9799 54.5407L46.9823 54.5879V71.0917ZM101.932 72H46.0684V54.6112C46.0137 54.0624 45.4027 47.0731 49.1943 42.4307C51.0335 40.1789 53.6052 38.87 56.8382 38.5405C60.3586 38.182 63.6119 38 69.1821 38C70.5842 38 71.9748 38.0116 73.3287 38.0311C74.6691 38.0116 76.0605 38 77.4621 38C83.0324 38 87.6416 38.182 91.1616 38.5405C94.3946 38.87 96.9663 40.1789 98.8059 42.4307C102.597 47.0731 101.986 54.0624 101.932 54.6112V72Z" fill="#DD624F"/>
<path d="M58.7869 102C57.4438 101.921 57.6307 101.824 56.5291 101.712C53.3931 101.394 50.9068 100.143 49.1393 97.9943C45.3251 93.3562 46.0526 86.0003 46.0602 85.9266L46.0627 72H72.9371V85.8769L72.9396 85.9266C72.9476 86.0003 73.6747 93.3562 69.8605 97.9943C68.093 100.143 65.6067 101.394 62.4707 101.712C61.3695 101.824 60.13 101.921 58.7869 102Z" fill="#A10101"/>
<path d="M58.8348 102L58.8081 101.998C57.5318 101.922 57.6845 101.83 56.6369 101.723C53.464 101.399 50.9401 100.112 49.1351 97.8974C46.4024 94.5447 45.9997 89.9479 46 87.5287C46 86.6537 46.053 86.0636 46.0672 85.9203V72H72.9331V72.2715V76.6264V85.9203C72.9473 86.0636 73 86.6537 73 87.5287C73.0003 89.8729 72.6226 94.2618 70.1126 97.5819C70.0325 97.6882 69.9497 97.7935 69.8649 97.8974C68.0603 100.112 65.536 101.399 62.3631 101.723C61.3155 101.83 60.1375 101.922 58.8615 101.998L58.8348 102ZM46.9642 72.8932L46.9618 85.9896C46.9547 86.0589 46.276 92.9763 49.8344 97.338C51.4833 99.3588 53.8028 100.535 56.7284 100.834C57.7561 100.939 57.5818 101.03 58.8348 101.105C60.0878 101.03 61.2442 100.939 62.2715 100.834C65.1972 100.535 67.5167 99.3588 69.1656 97.338C72.724 92.9763 72.0456 86.0589 72.0382 85.9896L72.0358 85.9428V72.8932H46.9642Z" fill="#C90101"/>
<path d="M62.4199 38.5367C61.3174 38.4234 60.1375 38.3327 58.9101 38.2587C63.3198 37.9936 68.3792 37.9636 73 38.0311C78.9069 37.9444 86.6263 38.0164 91.6901 38.5367C103.444 39.7448 101.937 54.0889 101.937 54.0889V71H72.6674V54.0889C72.6674 54.0889 74.1744 39.7448 62.4199 38.5367Z" fill="#C90101"/>
<g opacity="0.12">
<path fill-rule="evenodd" clip-rule="evenodd" d="M72.815 53C72.869 50.5342 72.5601 44.4692 68.5591 41H97.8019C101.803 44.4692 102.112 50.5342 102.058 53H72.815Z" fill="white"/>
</g>
<path d="M81 54C81 55.6568 79.6568 57 78 57C76.3429 57 75 55.6568 75 54C75 52.3432 76.3429 51 78 51C79.6568 51 81 52.3432 81 54Z" fill="#B04033"/>
<path d="M77.9998 50.9544C76.797 50.9544 75.8184 52.0966 75.8184 53.5C75.8184 54.9035 76.797 56.0456 77.9998 56.0456C79.2031 56.0456 80.1819 54.9035 80.1819 53.5C80.1819 52.0966 79.2031 50.9544 77.9998 50.9544ZM77.9998 57C76.3459 57 75 55.4298 75 53.5C75 51.5703 76.3459 50 77.9998 50C79.6544 50 81 51.5703 81 53.5C81 55.4298 79.6544 57 77.9998 57Z" fill="#903B38"/>
<path d="M77.8754 29.0115L84 30.3796V31.5207L78.8964 33.0777V53.0301C78.8964 53.5658 78.4717 54 77.9482 54C77.4245 54 77 53.5658 77 53.0301V29.9802C77 29.4545 77.2914 28.9138 77.8754 29.0115Z" fill="#FABA29"/>
<path d="M17.6046 74.3661C17.5683 74.4533 17.5342 74.5 17.5 74.5C17.528 74.458 17.5629 74.4134 17.6046 74.3661C18.0987 73.1778 18.9783 64.4658 25.5 64C32.5 63.5 30.5 66 29.5 67C28.528 67.972 19.052 72.7235 17.6046 74.3661Z" fill="#6CA412"/>
<path d="M99.1093 107.42C99.0713 107.514 99.0356 107.565 99 107.565C99.0326 107.516 99.0691 107.468 99.1093 107.42C99.6043 106.188 100.499 97.5296 107 97.0652C114 96.5652 110.5 101.5 108 103C104.731 104.961 100.3 105.996 99.1093 107.42Z" fill="#6CA412"/>
<path d="M105.163 39.3676C105.101 39.4951 105.048 39.5654 105 39.5654C105.04 39.5049 105.095 39.4388 105.163 39.3676C105.749 38.1725 107.175 31.9517 113.5 31.4999C120.5 30.9999 118 31.0654 117 32.0654C116.04 33.0251 106.791 37.669 105.163 39.3676Z" fill="#A1A412"/>
<path d="M84.926 99.0945C84.9543 99.0336 84.9782 99 85 99C84.9818 99.0289 84.9569 99.0605 84.926 99.0945C84.6613 99.6656 84.0161 102.638 81.1544 102.854C77.9875 103.093 79.1186 103.062 79.571 102.584C80.0052 102.125 84.1897 99.9062 84.926 99.0945Z" fill="#A1A412"/>
<path d="M59.5 38.5C59.9138 38.5 60.3139 38.5 60.7023 38.5C67.6337 38.5 73.1504 44.3533 72.9817 51.2826C72.8455 56.8788 72.7884 63.8051 73 71" stroke="white" stroke-linecap="round"/>
</svg>
