<svg width="148" height="148" viewBox="0 0 148 148" fill="none" xmlns="http://www.w3.org/2000/svg">
<path d="M141 74.5C141 111.227 111.227 141 74.5 141C37.7731 141 8 111.227 8 74.5C8 37.7731 37.7731 8 74.5 8C111.227 8 141 37.7731 141 74.5Z" fill="#FFE7A8"/>
<mask id="mask0_3199_4812" style="mask-type:alpha" maskUnits="userSpaceOnUse" x="8" y="8" width="133" height="133">
<path d="M141 74.5C141 111.227 111.227 141 74.5 141C37.7731 141 8 111.227 8 74.5C8 37.7731 37.7731 8 74.5 8C111.227 8 141 37.7731 141 74.5Z" fill="#FFE7A8"/>
</mask>
<g mask="url(#mask0_3199_4812)">
<path d="M34.3432 169.104C33.1522 168.577 32.6675 166.95 33.24 165.404L52.18 114.271L60 117.73L37.7158 167.342C37.0352 168.856 35.5448 169.635 34.3432 169.104Z" fill="#7D496C"/>
<path d="M80.5969 169.11C79.3651 169.628 77.8473 168.856 77.1483 167.354L54 117.675L62.0898 114.271L81.7483 165.376C82.3487 166.937 81.8397 168.587 80.5969 169.11Z" fill="#7D496C"/>
<path d="M44.6146 54.2706C44.6146 54.2706 18.9517 64.0057 22.3016 94.0481C25.3786 121.644 50.1717 130.764 68.6346 124.27C87.0975 117.778 81.0539 98.7303 81.0539 98.7303L44.6146 54.2706Z" fill="#F0AE02"/>
<path d="M75.795 62.4025L74.112 52.6731L77.869 45.1591C77.869 45.1591 96.8413 68.5927 90.3076 76.4671C84.2715 83.7418 74.1117 82.3216 74.1117 82.3216L75.795 62.4025Z" fill="#FF9C85"/>
<path d="M82 82.2706H111.558L120 62.2706H91.6069C90.8985 62.2706 90.2574 62.7078 89.9701 63.3861L82 82.2706Z" fill="#F0AE02"/>
<path d="M54.4995 112.271C46.4919 112.271 40 110.255 40 107.77C40 105.285 46.4919 103.271 54.4995 103.271C62.5081 103.271 69 105.285 69 107.77C69 110.255 62.5081 112.271 54.4995 112.271Z" fill="#ADA3B1"/>
<path d="M85 82.2706H114.384L121.874 64.4203C122.299 63.4087 121.596 62.2706 120.544 62.2706H93.3914L85 82.2706Z" fill="black"/>
<path d="M100 71.7702C100 73.1514 101.119 74.2706 102.5 74.2706C103.881 74.2706 105 73.1514 105 71.7702C105 70.3899 103.881 69.2706 102.5 69.2706C101.119 69.2706 100 70.3899 100 71.7702Z" fill="white"/>
<path d="M115.395 118.271L123 125.874L112.024 134.271L105 126.224L115.395 118.271Z" fill="#FF9C85"/>
<path d="M28.8067 106.271L28.6622 106.192C25.0572 101.302 25 92.5912 25 92.5046C24.9992 92.375 25.0858 92.2716 25.1925 92.2706C25.2991 92.2706 25.3857 92.3741 25.3865 92.5036C25.3865 92.5884 25.4444 101.126 28.9512 105.883C29.0223 105.979 29.0146 106.126 28.935 106.212L28.8067 106.271Z" fill="#D2CAD8"/>
<path d="M93 120.346V149.271H67.7135L63 109.354L83.1421 107.271L93 120.346Z" fill="#2E2E6C"/>
<path d="M122 114.118C122 114.118 102.086 89.8592 90.0547 86.0288C78.0236 82.1983 40.6858 83.4748 40.6858 83.4748C40.6858 83.4748 36.952 101.351 46.9091 106.032C56.8652 110.714 76.0829 109.863 79.335 111.565C82.5872 113.267 102.5 133.271 102.5 133.271L122 114.118Z" fill="#2E2E6C"/>
<path d="M34 71.1763C34 71.1763 37.4006 52.645 46.5522 50.3179C55.7037 47.9908 62.0585 49.9542 67.1806 52.2008C74 54.3373 79 68.2706 79 68.2706L74 84.7373L72.125 80.9373L73.375 87.2706H43.1L39.6772 72.8034L34 71.1763Z" fill="#933232"/>
<path d="M116.685 88.2706H31.3155C30.0365 88.2706 29 87.1513 29 85.7701C29 84.3899 30.0365 83.2706 31.3155 83.2706H116.685C117.963 83.2706 119 84.3899 119 85.7701C119 87.1513 117.963 88.2706 116.685 88.2706Z" fill="#7561E5"/>
<path d="M34.7049 71.2706C34.7049 71.2706 32.9504 80.382 34.9771 84.7874C37.8657 91.0676 63 83.455 63 83.455L60.9751 76.1096L52.2923 76.4039L52.3372 76.1096C52.3372 76.1096 44.6925 73.347 34.7049 71.2706Z" fill="#FF9C85"/>
<path d="M89.7803 122.271L89.6183 122.197C89.5302 122.096 80.7519 112.154 77.9636 111.5C75.1214 110.833 63.3197 109.742 63.2008 109.731C63.0792 109.72 62.9903 109.608 63.0009 109.481C63.0114 109.355 63.1189 109.261 63.2386 109.271C63.7257 109.317 75.1893 110.376 78.0596 111.049C80.9818 111.735 89.5769 121.47 89.9415 121.884C90.0243 121.977 90.0181 122.124 89.93 122.21L89.7803 122.271Z" fill="#7561E5"/>
<path d="M80.9416 106.717L80.8578 106.735C80.1988 107.007 79.7676 109.279 79.6112 111.195C80.8512 109.508 82.0654 107.267 81.117 106.769L80.9416 106.717ZM79.2794 112.271L79.1945 112.26C79.0761 112.23 78.9957 112.14 79.0002 112.041C79.0348 111.185 79.2739 106.889 80.5998 106.339C80.7819 106.264 81.0723 106.213 81.4242 106.397C83.3355 107.402 79.9095 111.685 79.5129 112.17L79.2794 112.271Z" fill="#7561E5"/>
<path d="M95.2495 127.271L95.0673 127.197C94.9728 127.104 94.9787 126.959 95.0793 126.872L116.58 108.332C116.682 108.247 116.839 108.25 116.933 108.344C117.027 108.436 117.021 108.582 116.921 108.668L95.4197 127.208L95.2495 127.271Z" fill="#7561E5"/>
<path d="M122.63 121.022C122.63 121.022 119.111 117.936 117.271 119.053C115.431 120.17 116.126 125.94 116.126 125.94C116.126 125.94 109.061 130.461 109 131.328C108.938 132.196 117.936 143.454 118.544 143.268C119.151 143.083 146.753 122.212 147.871 121.092C148.99 119.973 142.559 115.53 139.267 116.377C135.975 117.225 133.307 119.237 133.307 119.237L122.63 121.022Z" fill="#7772D3"/>
<path d="M73.1478 83.2706H112.852C113.486 83.2706 114 83.0467 114 82.7704C114 82.4945 113.486 82.2706 112.852 82.2706H73.1478C72.5138 82.2706 72 82.4945 72 82.7704C72 83.0467 72.5138 83.2706 73.1478 83.2706Z" fill="black"/>
<path d="M59 77.0756C59 77.0756 62.0503 74.8161 63.8755 73.2416C65.8825 71.51 69.0923 69.5693 69.8971 68.183C70.702 66.7975 71.2376 67.1656 71.5441 68.1227C71.8514 69.0789 70.9261 70.6918 70.9261 70.6918C70.9261 70.6918 77.1056 74.9522 76.9986 75.923C76.8925 76.8929 73.8872 76.6162 73.8872 76.6162C73.8872 76.6162 73.9483 77.2929 73.6113 77.7578C73.2751 78.2218 72.4839 78.5323 72.4839 78.5323C72.4839 78.5323 72.7912 79.2044 72.2207 80.03C71.6502 80.8547 68.982 83.2411 68.5235 82.4758C68.0651 81.7105 69.4667 79.8373 69.4667 79.8373L68.8062 78.9104C68.8062 78.9104 67.5218 82.463 65.0335 83.1398C62.5452 83.8174 60.1282 81.6429 60.1282 81.6429L59 77.0756Z" fill="#FF9C85"/>
<path d="M53.4774 69.8151C53.3245 70.056 53.2869 72.2192 53.3402 74.4985C53.6441 72.6278 53.8615 70.4175 53.51 69.8567L53.4774 69.8151ZM53.2312 76.2706C53.1359 76.2498 53.0802 76.1447 53.0751 76.0154C52.9793 73.688 52.8922 69.722 53.3715 69.3167C53.4367 69.262 53.5695 69.2094 53.7218 69.4525C54.4668 70.6431 53.4924 75.5346 53.3784 76.0888C53.3558 76.1984 53.2963 76.2706 53.2312 76.2706Z" fill="#CD6F00"/>
<path d="M15.0848 168.122C14.1683 167.73 13.7509 166.69 14.1532 165.799L49.6586 87.4232C49.7169 87.2942 49.8711 87.2357 50.0027 87.2924L52.8443 88.5061C52.9759 88.5619 53.036 88.7119 52.9777 88.8399L17.4723 167.215C17.071 168.107 16.0013 168.513 15.0848 168.122Z" fill="#7561E5"/>
<path d="M132.916 168.122C133.832 167.73 134.249 166.69 133.847 165.799L98.3414 87.4232C98.2841 87.2942 98.1299 87.2357 97.9974 87.2924L95.1557 88.5061C95.0241 88.5619 94.964 88.7119 95.0223 88.8399L130.528 167.215C130.93 168.107 131.999 168.513 132.916 168.122Z" fill="#7561E5"/>
<path d="M55 46.0001L53 51.5495C53 51.5495 54.0509 53.0506 57.3704 53.2456C59.8424 53.3909 60.6996 52.8557 60.6996 52.8557L62 48.0206L55 46.0001Z" fill="#FF9C85"/>
<path d="M55.1572 45.7849C55.134 45.8807 55.1506 46.0145 55.1948 46.1803C55.8323 48.4352 59.3661 50.5089 60.8507 51.2911L61.1929 49.5164L55.1572 45.7849Z" fill="black"/>
<path d="M66.8724 37.4519C66.8724 37.4519 66.5015 45.2312 63.6474 48.2403C60.7937 51.2485 57.7179 48.9623 56.0583 47.2436C54.3991 45.524 54.0744 43.8598 54.0744 43.8598C54.0744 43.8598 51.8801 43.5051 51.4856 41.1816C51.0906 38.859 52.8538 37.3313 54.1537 37.4422C55.4536 37.5531 56.3472 38.952 56.3472 38.952L56.2885 36.6062C56.2885 36.6062 65.2814 29.4622 66.8724 37.4519Z" fill="#FF9C85"/>
<path d="M55.0154 43.1076L54.9036 42.9198L54.5245 39.3077C54.5059 39.1341 54.6167 38.9333 54.7691 38.8596C54.9214 38.7858 55.062 38.865 55.08 39.0399L55.4593 42.6538C55.477 42.827 55.3669 43.0265 55.2145 43.1002L55.0154 43.1076Z" fill="black"/>
<path d="M57.1638 41.6685L56.9706 41.7686L53.9012 42.0128C53.7535 42.0249 53.6311 41.9132 53.627 41.7661C53.6228 41.619 53.7385 41.488 53.887 41.4766L56.9579 41.2323C57.1048 41.221 57.2265 41.3321 57.2306 41.4791L57.1638 41.6685Z" fill="black"/>
<path d="M56.5325 39.6627C56.5325 39.6627 58.9225 39.3894 59.765 37.5203C60.6075 35.6512 60.4509 34.9799 60.4509 34.9799C60.4509 34.9799 62.5674 35.9502 64.5602 36.2844C65.8582 36.5025 66.5442 36.3526 66.5442 36.3526L66.7272 37.1637C67.2594 37.4119 70.0985 34.876 69.6089 33.905C69.1189 32.935 64.1631 32.2068 64.1631 32.2068C64.1631 32.2068 60.2926 28.8595 56.0711 30.656C51.8482 32.453 52.8009 37.6677 52.8009 37.6677C52.8009 37.6677 54.4124 36.4446 56.5325 39.6627Z" fill="black"/>
<path d="M73.8886 76.2706L73.8128 76.2227L72.0356 73.5805C71.9905 73.5133 71.9879 73.4003 72.0298 73.3281C72.0717 73.2559 72.1422 73.2509 72.1872 73.3181L73.9644 75.961C74.0095 76.0282 74.0121 76.1412 73.9702 76.2134L73.8886 76.2706Z" fill="black"/>
<path d="M72.7608 79.2706L72.5908 79.1815L69.0683 74.7686C68.9757 74.6536 68.9776 74.4671 69.0721 74.3545C69.1666 74.2419 69.3175 74.2419 69.4101 74.3592L72.9317 78.7721C73.0243 78.8871 73.0224 79.0736 72.9279 79.1874L72.7608 79.2706Z" fill="black"/>
<path d="M57.4934 54C54.4458 54 53.1136 51.6037 53.0424 51.4704C52.972 51.3407 52.9915 51.1567 53.0848 51.0588C53.1789 50.9621 53.3103 50.9869 53.3816 51.1166C53.4689 51.277 55.5744 55.0095 60.72 52.6013C60.8303 52.5495 60.9515 52.6332 60.9889 52.7865C61.0262 52.941 60.9668 53.1084 60.8557 53.1603C59.5591 53.7665 58.4423 54 57.4934 54Z" fill="#CD6F00"/>
<path d="M66.4638 66.317C66.4026 66.3106 66.3387 66.3167 66.273 66.3336C66.0828 66.3842 66.059 66.4816 66.0496 66.5187C65.9231 67.0365 66.8712 68.4346 67.7339 69.4698C67.6307 68.5955 67.3657 66.9939 66.7819 66.4711C66.6807 66.3801 66.5753 66.3286 66.4638 66.317ZM67.9408 70.239C67.9055 70.2353 67.8708 70.2182 67.8437 70.1874C67.4444 69.7421 65.464 67.4656 65.7216 66.4136C65.7646 66.2377 65.8851 66.0106 66.2152 65.9237C66.4965 65.8488 66.7582 65.9174 66.9928 66.128C67.9249 66.9647 68.1251 69.8804 68.1336 70.0041C68.1384 70.0909 68.1001 70.1742 68.036 70.2158C68.0052 70.2346 67.9728 70.2423 67.9408 70.239Z" fill="#CD6F00"/>
<path d="M73.4798 42.6086C73.4798 42.6086 72.3349 40.1711 73.5822 38.4737C74.8302 36.7771 77 46.2706 77 46.2706L73.4798 42.6086Z" fill="#FF9C85"/>
<path d="M78.5395 46.2204C78.5395 46.2204 73.0722 39.2951 70.7382 38.4171C68.4032 37.539 67.9845 40.8967 67.9845 40.8967C67.9845 40.8967 65.0475 46.0935 65.0006 47.2608C64.9537 48.429 67.6025 51.8307 68.1849 52.1709C68.7665 52.5102 70.2274 50.6142 70.2274 50.6142C70.2274 50.6142 71.8417 52.5905 74.1161 53.1992C76.3896 53.8088 79 50.3163 79 50.3163L78.5395 46.2204Z" fill="#FF9C85"/>
<path d="M69.7766 51.2706L69.681 51.2359L68.127 50.0912C68.0162 50.0091 67.9688 49.8019 68.0216 49.6281C68.0743 49.4542 68.2065 49.3833 68.3191 49.4625L69.5532 50.3722V48.6183C69.5532 48.4264 69.6533 48.2706 69.7766 48.2706C69.8999 48.2706 70 48.4264 70 48.6183V50.9229L69.8963 51.2164L69.7766 51.2706Z" fill="black"/>
</g>
<path d="M125.883 20.4862C125.785 18.9551 124.873 17.5984 123.505 16.9399L105.792 8.40965C104.658 7.86353 103.341 7.86353 102.207 8.40965L84.4941 16.9399C83.127 17.5984 82.2149 18.9551 82.1172 20.4862C80.4557 46.5274 96.9231 56.0159 102.321 58.413C103.392 58.8881 104.608 58.8881 105.679 58.413C111.077 56.0159 127.544 46.5274 125.883 20.4862Z" fill="#C4C0EA"/>
<path d="M121.421 21.8933C121.402 21.5363 121.176 21.2177 120.833 21.0644L104.442 13.7348C104.162 13.6098 103.837 13.6098 103.558 13.7348L87.1664 21.0644C86.8236 21.2177 86.598 21.5363 86.5786 21.8933C86.0939 30.8223 88.2844 38.2724 93.0939 44.0469C96.7605 48.4489 101.05 50.8083 103.563 51.909C103.84 52.0303 104.159 52.0303 104.436 51.909C106.95 50.8083 111.239 48.4489 114.906 44.0469C119.715 38.2724 121.906 30.8223 121.421 21.8933Z" fill="#5128D4"/>
<path d="M104.594 31.7748V34.1339C104.594 34.4476 104.328 34.7086 104.002 34.7086C103.67 34.7086 103.405 34.4476 103.405 34.1339V31.7695C102.902 31.5503 102.548 31.0605 102.548 30.4965C102.548 29.7241 103.2 29.101 104.002 29.101C104.804 29.101 105.451 29.7241 105.451 30.4965C105.451 31.0658 105.102 31.5557 104.594 31.7748ZM98.1235 27.3543V35.6776C98.1235 36.6047 109.875 36.6047 109.875 35.6776V27.3543H98.1235Z" fill="white"/>
<path d="M108.782 26.5347H107.608V25.9776C107.608 24.0494 105.989 22.4797 104 22.4797C102.01 22.4797 100.391 24.0494 100.391 25.9776V26.5347H99.2168V25.9776C99.2168 23.4219 101.362 21.3421 104 21.3421C106.636 21.3421 108.782 23.4219 108.782 25.9776V26.5347Z" fill="white"/>
<path d="M98.6706 40.6104C98.6706 41.2886 98.1199 41.8391 97.4406 41.8391C96.7614 41.8391 96.2109 41.2886 96.2109 40.6104C96.2109 39.93 96.7614 39.3795 97.4406 39.3795C98.1199 39.3795 98.6706 39.93 98.6706 40.6104Z" fill="white"/>
<path d="M103.044 40.6104C103.044 41.2886 102.493 41.8391 101.814 41.8391C101.134 41.8391 100.584 41.2886 100.584 40.6104C100.584 39.93 101.134 39.3795 101.814 39.3795C102.493 39.3795 103.044 39.93 103.044 40.6104Z" fill="white"/>
<path d="M107.416 40.6104C107.416 41.2886 106.865 41.8391 106.186 41.8391C105.507 41.8391 104.957 41.2886 104.957 40.6104C104.957 39.93 105.507 39.3795 106.186 39.3795C106.865 39.3795 107.416 39.93 107.416 40.6104Z" fill="white"/>
<path d="M111.789 40.6104C111.789 41.2886 111.238 41.8391 110.559 41.8391C109.88 41.8391 109.329 41.2886 109.329 40.6104C109.329 39.93 109.88 39.3795 110.559 39.3795C111.238 39.3795 111.789 39.93 111.789 40.6104Z" fill="white"/>
</svg>
