<svg width="28" height="28" viewBox="0 0 28 28" fill="none" xmlns="http://www.w3.org/2000/svg">
<rect width="28" height="28" rx="8" fill="#007AFF"/>
<g clip-path="url(#clip0_8174_3953)">
<path d="M19.0905 12.9626C19.6125 16.3152 17.8066 17.8029 17.8066 17.8029C15.9999 19.8355 13.2837 19.3329 13.2837 19.3329C11.2573 18.9978 10.2966 17.8449 10.2966 17.8449C8.91764 16.6715 8.77148 14.534 8.77148 14.534C8.64962 12.9548 9.46088 11.5609 9.46088 11.5609C10.1397 10.3052 11.3836 9.56776 11.3836 9.56776C13.1606 8.56174 15.2265 9.04378 15.2265 9.04378L16.0411 8.24764C14.5786 7.63978 12.6147 8.01706 12.6147 8.01706C10.2747 8.39416 8.91746 10.4269 8.91746 10.4269C7.2044 12.8578 7.8308 15.3303 7.8308 15.3303C8.45792 18.3269 10.9018 19.6683 10.9018 19.6683C14.077 21.4074 16.7518 19.8359 16.7518 19.8359C19.446 18.4736 20.0726 15.8539 20.0726 15.8539C20.6367 13.9259 19.9263 12.1238 19.9263 12.1238L19.0911 12.9624L19.0905 12.9626ZM14.345 13.0545H14.3439C14.2489 13.1631 14.1995 13.3042 14.2059 13.4483C14.2123 13.5925 14.274 13.7286 14.3783 13.8284C14.4825 13.9281 14.6212 13.9838 14.7655 13.9838C14.9098 13.9839 15.0485 13.9282 15.1528 13.8285H15.1539L17.4111 11.5839L18.8576 11.681L21.2696 9.20398L19.1859 8.99176L18.973 6.82474L16.4656 9.2434L16.5813 10.7527L14.3947 13.0027C14.3768 13.0186 14.3601 13.0358 14.3446 13.0542L14.345 13.0545ZM14.0007 22.8109C9.1295 22.8109 5.18066 18.8622 5.18066 13.9909C5.18066 9.11956 9.1295 5.1709 14.0007 5.1709C18.8718 5.1709 22.8207 9.11956 22.8207 13.9909C22.8207 18.8622 18.872 22.8109 14.0007 22.8109ZM14.5587 11.5789C12.5328 11.3903 11.8227 12.7309 11.8227 12.7309C10.6527 14.7215 12.1985 16.0839 12.1985 16.0839C14.2665 17.4879 15.7085 16.2099 15.7085 16.2099C17.0871 15.225 16.5441 13.4187 16.5441 13.4187L15.5415 14.4704C15.4369 14.8484 15.1654 15.1832 15.1654 15.1832C14.2861 16.2319 13.1169 15.4563 13.1169 15.4563C12.2811 14.9523 12.448 13.8291 12.448 13.8291C12.6985 12.7473 13.618 12.6479 13.618 12.6479L14.5587 11.5789Z" fill="white"/>
</g>
<defs>
<clipPath id="clip0_8174_3953">
<rect width="18" height="18" fill="white" transform="translate(5 5)"/>
</clipPath>
</defs>
</svg>
