<svg width="20" height="20" viewBox="0 0 20 20" fill="none" xmlns="http://www.w3.org/2000/svg">
<path d="M13.0427 2.29166C16.2669 2.29166 18.3334 4.87707 18.3334 8.35666C18.3334 11.0569 15.89 14.0306 11.0761 17.3721C10.7599 17.591 10.3846 17.7083 10 17.7083C9.61549 17.7083 9.2401 17.591 8.92398 17.3721C4.11002 14.0306 1.66669 11.0569 1.66669 8.35666C1.66669 4.87707 3.73314 2.29166 6.95731 2.29166C8.12169 2.29166 8.91148 2.69853 10 3.62166C11.0888 2.69874 11.8784 2.29166 13.0427 2.29166ZM13.0427 3.52499C12.2334 3.52499 11.6704 3.82166 10.7584 4.59999C10.7161 4.63603 10.4771 4.84166 10.4079 4.90041C10.2939 4.99694 10.1494 5.04991 10 5.04991C9.85064 5.04991 9.7061 4.99694 9.5921 4.90041C9.52294 4.84145 9.28398 4.63603 9.24169 4.59999C8.3296 3.82166 7.76669 3.52499 6.95731 3.52499C4.49585 3.52499 2.91669 5.49332 2.91669 8.33395C2.91669 10.5 5.13398 13.1883 9.64127 16.3052C9.74676 16.378 9.87188 16.4169 10 16.4169C10.1282 16.4169 10.2533 16.378 10.3588 16.3052C14.8661 13.1885 17.0834 10.5 17.0834 8.33395C17.0834 5.49332 15.5042 3.52499 13.0427 3.52499Z" fill="#121212"/>
</svg>
