<svg width="40" height="40" viewBox="0 0 40 40" fill="none" xmlns="http://www.w3.org/2000/svg">
<g clip-path="url(#clip0_492_673)">
<g opacity="0.9" filter="url(#filter0_d_492_673)">
<path d="M20 35.2245C19.4694 35.2245 18.9796 35.0612 18.551 34.7143C18.2041 34.4286 9.73469 27.8776 6.34693 22.551C5.22448 20.7959 3.67346 18.4082 3.67346 15.0204C3.67346 9.36735 7.89795 4.77551 13.0612 4.77551C15.6939 4.77551 18.2041 5.97959 20 8.08163C21.7755 5.95918 24.2653 4.77551 26.9184 4.77551C32.102 4.77551 36.3061 9.36735 36.3061 15.0204C36.3061 18.3469 34.8571 20.6327 33.6735 22.4898L33.6326 22.551C30.2449 27.8776 21.7755 34.449 21.4286 34.7143C21.0204 35.0408 20.5306 35.2245 20 35.2245Z" fill="white"/>
</g>
</g>
<defs>
<filter id="filter0_d_492_673" x="-0.326538" y="0.77551" width="40.6326" height="38.449" filterUnits="userSpaceOnUse" color-interpolation-filters="sRGB">
<feFlood flood-opacity="0" result="BackgroundImageFix"/>
<feColorMatrix in="SourceAlpha" type="matrix" values="0 0 0 0 0 0 0 0 0 0 0 0 0 0 0 0 0 0 127 0" result="hardAlpha"/>
<feOffset/>
<feGaussianBlur stdDeviation="2"/>
<feComposite in2="hardAlpha" operator="out"/>
<feColorMatrix type="matrix" values="0 0 0 0 0 0 0 0 0 0 0 0 0 0 0 0 0 0 0.16 0"/>
<feBlend mode="normal" in2="BackgroundImageFix" result="effect1_dropShadow_492_673"/>
<feBlend mode="normal" in="SourceGraphic" in2="effect1_dropShadow_492_673" result="shape"/>
</filter>
<clipPath id="clip0_492_673">
<rect width="40" height="40" fill="white"/>
</clipPath>
</defs>
</svg>
