<svg width="24" height="24" viewBox="0 0 24 24" fill="none" xmlns="http://www.w3.org/2000/svg">
<path fill-rule="evenodd" clip-rule="evenodd" d="M10.5509 3C9.83051 2.9999 9.24647 3.63605 9.24638 4.42088C9.24629 5.2057 9.83019 5.84201 10.5506 5.84211C13.6478 5.84252 16.1914 8.42416 16.4678 11.72L15.8338 11.0094C15.3316 10.4467 14.5058 10.434 13.9893 10.9811C13.4728 11.5282 13.4612 12.4279 13.9633 12.9906L16.8619 16.2387C17.1075 16.5139 17.4448 16.6692 17.7971 16.6692C18.1494 16.6692 18.4867 16.5139 18.7323 16.2387L21.6309 12.9906C22.133 12.4279 22.1214 11.5282 21.6049 10.9811C21.0884 10.434 20.2626 10.4467 19.7604 11.0094L19.0867 11.7644C18.8244 6.87648 15.1032 3.00061 10.5509 3ZM7.13811 7.7613C6.89253 7.48609 6.5552 7.33083 6.2029 7.33083C5.85059 7.33083 5.51327 7.48609 5.26769 7.7613L2.36914 11.0094C1.86698 11.5721 1.87861 12.4718 2.39512 13.0189C2.91162 13.566 3.7374 13.5533 4.23956 12.9906L4.84876 12.3079C5.17672 17.1525 8.89059 21 13.4493 21C14.1696 21 14.7536 20.3638 14.7536 19.5789C14.7536 18.7941 14.1696 18.1579 13.4493 18.1579C10.3016 18.1579 7.73131 15.528 7.45798 12.1969L8.16624 12.9906C8.66839 13.5533 9.49418 13.566 10.0107 13.0189C10.5272 12.4718 10.5388 11.5721 10.0367 11.0094L7.13811 7.7613Z" fill="#121212"/>
</svg>
