<svg width="28" height="28" viewBox="0 0 28 28" fill="none" xmlns="http://www.w3.org/2000/svg">
<path d="M27.8493 16.9449C26.9389 9.11373 25.328 3.5 20.2135 3.5C17.6222 3.5 16.2915 6.13375 13.9794 6.34189C11.5982 6.13375 10.3365 3.5 7.74424 3.5C2.63067 3.5 1.01987 9.11373 0.178444 16.8759C-0.311802 21.0337 0.108408 24.499 2.70071 24.499C6.34253 24.499 6.5 22.5 9 20.5C10 19.7 11 18.9543 14.0484 18.9543C17 18.9543 18.0195 20.0147 19 20.5C21.5 22.5 21.7543 24.499 25.3981 24.499C27.9193 24.569 28.2695 21.1027 27.8493 16.9449Z" fill="#007AFF"/>
<circle cx="19.5" cy="12.5" r="2.75" stroke="white" stroke-width="1.5"/>
<path d="M5 12.5H12" stroke="white" stroke-width="1.5" stroke-linecap="round"/>
<path d="M8.5 9.5V15.5" stroke="white" stroke-width="1.5" stroke-linecap="round"/>
</svg>
