<svg width="28" height="28" viewBox="0 0 28 28" fill="none" xmlns="http://www.w3.org/2000/svg">
<rect width="28" height="28" rx="8" fill="#EB4B35"/>
<path d="M13.2176 18.2189C14.2551 17.9601 15.2539 17.5657 16.1882 17.0458C16.5288 16.8698 16.8394 16.6419 17.1708 16.4505L17.2036 16.4111C17.2381 17.7908 16.773 19.1366 15.8938 20.2006C15.2077 21.0318 14.3032 21.655 13.282 22C13.4753 21.4062 13.5709 20.785 13.565 20.1606C13.5655 19.4979 13.4479 18.8403 13.2176 18.2189ZM10.5296 17.7759C10.8044 18.0507 11.083 18.3219 11.352 18.603C10.0164 19.4882 8.68296 20.3766 7.3516 21.2681C7.29745 21.2159 7.24244 21.1645 7.1866 21.1141C8.0348 20.2614 8.88861 19.4135 9.73801 18.5616C10.0028 18.3009 10.26 18.0321 10.5294 17.7757L10.5296 17.7759ZM9.42001 16.6617C9.68914 16.937 9.96163 17.2089 10.2374 17.4776C9.39161 18.3295 8.53841 19.1734 7.693 20.0254C7.428 20.288 7.167 20.555 6.898 20.8143L6.7454 20.6644C7.6384 19.3315 8.52221 17.9915 9.42001 16.6617ZM17.0824 6.91389C17.9174 8.30431 19.0528 9.50976 20.3698 10.4542C20.5974 10.6374 20.857 10.7748 21.0946 10.9442C20.861 11.4661 20.6138 11.9827 20.3174 12.4722C19.1415 14.4207 17.4327 15.9924 15.3926 17.0016C14.2916 17.5432 13.1127 17.9095 11.8986 18.0875C11.7862 17.9587 11.6812 17.8239 11.5744 17.6911L11.5644 17.6965C11.0681 17.1131 10.5139 16.5814 9.91041 16.1097C10.2728 13.5351 11.5304 11.1 13.4096 9.30479C14.377 8.37178 15.497 7.61123 16.721 7.05607C16.8386 7.00207 16.955 6.94248 17.0824 6.91389ZM11.5828 10.793C11.3182 11.2129 11.0366 11.6243 10.8156 12.0702C10.3642 12.9289 10.0174 13.8385 9.78241 14.7797C8.56347 14.3402 7.23311 14.3177 6 14.7157C6.38793 13.5672 7.12666 12.5694 8.11201 11.8631C9.12333 11.1416 10.3408 10.7663 11.5828 10.793ZM16.7578 9.69894C16.4127 9.73934 16.0958 9.90949 15.8714 10.1749C15.5814 10.4934 15.4802 10.9564 15.566 11.3739C15.684 11.9419 16.1934 12.3988 16.7704 12.4566C17.2708 12.5154 17.7952 12.2766 18.073 11.8553C18.2176 11.6351 18.3118 11.3745 18.3076 11.1088C18.3284 10.6448 18.0854 10.1855 17.702 9.92731C17.4254 9.73913 17.0898 9.65796 16.7578 9.69894ZM21.9958 6C22.0354 7.54041 21.7928 9.09041 21.2496 10.534C21.0108 10.4048 20.798 10.2333 20.5682 10.0891C19.3239 9.18939 18.267 8.05571 17.4566 6.75151C18.8555 6.22847 20.3409 5.97536 21.834 6.0056L21.994 6.01L21.996 6H21.9958Z" fill="white"/>
</svg>
