<svg width="24" height="24" viewBox="0 0 24 24" fill="none" xmlns="http://www.w3.org/2000/svg">
    <path d="M14.973 3c2.09 0 3.784 1.66 3.784 3.706 0 2.047-1.694 3.706-3.784 3.706m3.243 2.117C20.378 14.118 22 15.8 22 18.353c0 .794-.54 1.059-1.405 1.588m-3.46-1.615C17.135 21 12.641 21 9.568 21 6.495 21 2 21 2 18.326c0-3.201 3.388-5.797 7.568-5.797 4.179 0 7.567 2.596 7.567 5.797Zm-3.784-11.62c0 2.047-1.694 3.706-3.783 3.706-2.09 0-3.784-1.66-3.784-3.706C5.784 4.659 7.478 3 9.568 3s3.783 1.66 3.783 3.706Z" stroke="#121212" stroke-width="1.5" stroke-linecap="round"/>
</svg>