<svg width="60" height="60" viewBox="0 0 60 60" fill="none" xmlns="http://www.w3.org/2000/svg">
<g clip-path="url(#clip0_361_9384)">
<rect width="60" height="60" rx="30" fill="#EFEEF5"/>
<path fill-rule="evenodd" clip-rule="evenodd" d="M30 60C46.5685 60 60 46.5685 60 30C60 13.4315 46.5685 0 30 0C13.4315 0 0 13.4315 0 30C0 46.5685 13.4315 60 30 60ZM46.9431 19.7491C46.9431 23.7602 43.7193 26.9982 39.6956 26.9982C35.6719 26.9982 32.4239 23.7602 32.4239 19.7491C32.4239 15.7379 35.6719 12.5 39.6956 12.5C43.7193 12.5 46.9431 15.7379 46.9431 19.7491ZM37.2717 49.9536C31.2119 52.3699 22.7533 51.5438 16.2872 46.329C11.9815 42.8567 9.86683 39.1478 8.75 34.3538C12.4492 32.6732 17.2217 31.8309 20.3044 31.8309C25.9521 31.8309 37.2717 34.658 37.2717 40.2881L37.2717 49.9536ZM39.6956 31.8309C42.7783 31.8309 47.5508 32.6732 51.25 34.3538C50.1332 39.1478 47.426 43.3337 43.7128 46.329L42.1195 47.5372L42.1195 40.2881C42.1195 36.7361 40.2046 34.0539 37.4414 32.0484C37.4389 32.0459 37.4365 32.0432 37.434 32.0403L37.4276 32.0326L37.4187 32.0211C37.4002 31.9971 37.3782 31.9685 37.3444 31.9517C38.1928 31.8792 38.9927 31.8309 39.6956 31.8309ZM20.3044 26.9982C24.3281 26.9982 27.5519 23.7602 27.5519 19.7491C27.5519 15.7379 24.3281 12.5 20.3044 12.5C16.2807 12.5 13.0327 15.7379 13.0327 19.7491C13.0327 23.7602 16.2807 26.9982 20.3044 26.9982Z" fill="#121212" fill-opacity="0.2"/>
</g>
<defs>
<clipPath id="clip0_361_9384">
<rect width="60" height="60" rx="30" fill="white"/>
</clipPath>
</defs>
</svg>
