<svg width="28" height="28" viewBox="0 0 28 28" fill="none" xmlns="http://www.w3.org/2000/svg">
<rect width="28" height="28" rx="8" fill="#5AC63A"/>
<g clip-path="url(#clip0_8174_3973)">
<path d="M14.6037 7.81088C14.7459 7.70535 14.9148 7.64159 15.0912 7.62678C15.2677 7.61197 15.4449 7.64669 15.6027 7.72704C15.7605 7.80739 15.8928 7.93018 15.9847 8.0816C16.0766 8.23303 16.1243 8.40708 16.1227 8.58418L16.0752 12.4953L19.2767 14.7563C19.4143 14.8528 19.5237 14.9841 19.5938 15.1368C19.6639 15.2895 19.6922 15.458 19.6758 15.6252C19.6594 15.7924 19.5988 15.9523 19.5003 16.0884C19.4018 16.2245 19.2689 16.332 19.1152 16.3998L19.0126 16.4378L15.2725 17.5949L14.1135 21.3284C13.8912 22.0447 12.9754 22.2195 12.4966 21.6752L12.431 21.5925L10.1653 18.3967L6.24936 18.4433C6.08093 18.4458 5.91487 18.4035 5.76819 18.3207C5.6215 18.2379 5.49946 18.1176 5.41459 17.9721C5.32971 17.8266 5.28504 17.6612 5.28516 17.4927C5.28527 17.3243 5.33017 17.1589 5.41525 17.0135L5.47415 16.9261L7.81306 13.793L6.55146 10.088C6.49766 9.92927 6.48691 9.75909 6.52031 9.59482C6.55371 9.43056 6.63007 9.27809 6.74159 9.15295C6.85312 9.0278 6.99583 8.93447 7.15518 8.88245C7.31453 8.83043 7.48483 8.82159 7.64871 8.85683L7.75511 8.88628L11.4658 10.146L14.6037 7.81088ZM14.1999 10.4804L12.2049 11.9662C12.0812 12.0582 11.9371 12.1187 11.7848 12.1425C11.6325 12.1664 11.4768 12.1528 11.3309 12.103L8.97206 11.3012L9.77481 13.6591C9.81796 13.786 9.83367 13.9207 9.8209 14.0542C9.80812 14.1876 9.76716 14.3169 9.70071 14.4333L9.63706 14.5312L8.14841 16.5224L10.6403 16.4939C10.9139 16.491 11.1742 16.605 11.3556 16.8045L11.4288 16.8957L12.869 18.9268L13.6062 16.5537C13.6458 16.4255 13.7124 16.3071 13.8013 16.2066C13.8902 16.106 13.9996 16.0255 14.122 15.9704L14.2313 15.9296L16.6091 15.1933L14.5733 13.755C14.4636 13.6775 14.3716 13.5777 14.3034 13.4621C14.2351 13.3465 14.192 13.2178 14.1771 13.0843L14.1714 12.9684L14.2009 10.4794L14.1999 10.4804ZM20.7378 7.13923C20.8309 7.18538 20.9064 7.2608 20.9525 7.35393L21.6441 8.75233L23.3798 9.00408C23.4499 9.01427 23.5158 9.04387 23.57 9.08953C23.6242 9.1352 23.6645 9.19512 23.6865 9.26251C23.7084 9.32991 23.7111 9.40209 23.6941 9.47092C23.6772 9.53974 23.6414 9.60246 23.5907 9.65198L22.3348 10.8727L22.5989 12.407C22.614 12.4943 22.6043 12.5842 22.571 12.6664C22.5377 12.7485 22.4821 12.8197 22.4104 12.8719C22.3388 12.9241 22.2539 12.9552 22.1655 12.9617C22.0771 12.9682 21.9886 12.9498 21.9101 12.9086L20.5269 12.1828L19.1437 12.9086C19.0652 12.9498 18.9767 12.9682 18.8883 12.9617C18.7999 12.9552 18.715 12.9241 18.6434 12.8719C18.5717 12.8197 18.5161 12.7485 18.4828 12.6664C18.4495 12.5842 18.4398 12.4943 18.455 12.407L18.7191 10.8727L17.6019 9.78688C17.5383 9.72503 17.4934 9.64663 17.4721 9.56057C17.4509 9.47451 17.4541 9.38421 17.4815 9.29989C17.5089 9.21557 17.5593 9.1406 17.6271 9.08345C17.6949 9.02631 17.7773 8.98927 17.865 8.97653L19.4097 8.75233L20.1013 7.35393C20.1572 7.24105 20.2557 7.15502 20.3751 7.11476C20.4945 7.0745 20.6249 7.0833 20.7378 7.13923Z" fill="white"/>
<path d="M14.1999 10.4804L12.2049 11.9662C12.0812 12.0582 11.9371 12.1187 11.7848 12.1425C11.6325 12.1664 11.4768 12.1528 11.3309 12.103L8.97206 11.3012L9.77481 13.6591C9.81796 13.786 9.83367 13.9207 9.8209 14.0542C9.80812 14.1876 9.76716 14.3169 9.70071 14.4333L9.63706 14.5312L8.14841 16.5224L10.6403 16.4939C10.9139 16.491 11.1742 16.605 11.3556 16.8045L11.4288 16.8957L12.869 18.9268L13.6062 16.5537C13.6458 16.4255 13.7124 16.3071 13.8013 16.2066C13.8902 16.106 13.9996 16.0255 14.122 15.9704L14.2313 15.9296L16.6091 15.1933L14.5733 13.755C14.4636 13.6775 14.3716 13.5777 14.3034 13.4621C14.2351 13.3465 14.192 13.2178 14.1771 13.0843L14.1714 12.9684L14.2009 10.4794L14.1999 10.4804Z" fill="white"/>
</g>
<defs>
<clipPath id="clip0_8174_3973">
<rect width="19" height="19" fill="white" transform="translate(5 5)"/>
</clipPath>
</defs>
</svg>
