<svg width="24" height="24" viewBox="0 0 24 24" fill="none" xmlns="http://www.w3.org/2000/svg">
<path d="M10.5711 11.3174C10.7831 11.3174 10.9902 11.2532 11.1664 11.1328C11.3426 11.0125 11.4799 10.8414 11.561 10.6413C11.6421 10.4412 11.6633 10.221 11.622 10.0085C11.5806 9.79607 11.4786 9.60091 11.3288 9.44774C11.1789 9.29457 10.988 9.19026 10.7802 9.148C10.5723 9.10574 10.3569 9.12743 10.1611 9.21032C9.96535 9.29322 9.79802 9.4336 9.68029 9.61371C9.56256 9.79382 9.49972 10.0056 9.49972 10.2222C9.49972 10.5127 9.6126 10.7912 9.81353 10.9966C10.0145 11.202 10.287 11.3174 10.5711 11.3174Z" fill="#121212" fill-opacity="0.48"/>
<path d="M6.95639 10.9966C6.75546 10.7912 6.64258 10.5127 6.64258 10.2222C6.64258 9.93172 6.75546 9.65314 6.95639 9.44774C7.15732 9.24234 7.42985 9.12695 7.71401 9.12695C7.99817 9.12695 8.27069 9.24234 8.47162 9.44774C8.67255 9.65314 8.78543 9.93172 8.78543 10.2222C8.78543 10.5127 8.67255 10.7912 8.47162 10.9966C8.27069 11.202 7.99817 11.3174 7.71401 11.3174C7.42985 11.3174 7.15732 11.202 6.95639 10.9966Z" fill="#121212" fill-opacity="0.48"/>
<path d="M12.833 9.31153C13.0092 9.19119 13.2164 9.12695 13.4283 9.12695C13.7125 9.12695 13.985 9.24234 14.1859 9.44774C14.3868 9.65314 14.4997 9.93172 14.4997 10.2222C14.4997 10.4388 14.4369 10.6506 14.3191 10.8307C14.2014 11.0108 14.0341 11.1512 13.8383 11.2341C13.6425 11.317 13.4271 11.3386 13.2193 11.2964C13.0114 11.2541 12.8205 11.1498 12.6707 10.9966C12.5208 10.8435 12.4188 10.6483 12.3774 10.4359C12.3361 10.2234 12.3573 10.0032 12.4384 9.80306C12.5195 9.60293 12.6568 9.43188 12.833 9.31153Z" fill="#121212" fill-opacity="0.48"/>
<path d="M16.2854 9.12695C16.0735 9.12695 15.8664 9.19119 15.6902 9.31153C15.514 9.43188 15.3767 9.60293 15.2956 9.80306C15.2145 10.0032 15.1932 10.2234 15.2346 10.4359C15.2759 10.6483 15.378 10.8435 15.5278 10.9966C15.6777 11.1498 15.8686 11.2541 16.0764 11.2964C16.2842 11.3386 16.4997 11.317 16.6954 11.2341C16.8912 11.1512 17.0586 11.0108 17.1763 10.8307C17.294 10.6506 17.3569 10.4388 17.3569 10.2222C17.3569 9.93172 17.244 9.65314 17.043 9.44774C16.8421 9.24234 16.5696 9.12695 16.2854 9.12695Z" fill="#121212" fill-opacity="0.48"/>
<path d="M6.64258 13.1428C6.64258 13.4333 6.75546 13.7119 6.95639 13.9173C7.15732 14.1227 7.42985 14.2381 7.71401 14.2381C7.99817 14.2381 8.27069 14.1227 8.47162 13.9173C8.67255 13.7119 8.78543 13.4333 8.78543 13.1428C8.78543 12.8524 8.67255 12.5738 8.47162 12.3684C8.27069 12.163 7.99817 12.0476 7.71401 12.0476C7.42985 12.0476 7.15732 12.163 6.95639 12.3684C6.75546 12.5738 6.64258 12.8524 6.64258 13.1428Z" fill="#121212" fill-opacity="0.48"/>
<path d="M10.5711 14.2381C10.7831 14.2381 10.9902 14.1738 11.1664 14.0535C11.3426 13.9331 11.4799 13.7621 11.561 13.562C11.6421 13.3618 11.6633 13.1416 11.622 12.9292C11.5806 12.7167 11.4786 12.5215 11.3288 12.3684C11.1789 12.2152 10.988 12.1109 10.7802 12.0686C10.5723 12.0264 10.3569 12.0481 10.1611 12.131C9.96535 12.2139 9.79802 12.3542 9.68029 12.5343C9.56256 12.7145 9.49972 12.9262 9.49972 13.1428C9.49972 13.4333 9.6126 13.7119 9.81353 13.9173C10.0145 14.1227 10.287 14.2381 10.5711 14.2381Z" fill="#121212" fill-opacity="0.48"/>
<path d="M10.5711 15.6984L13.4283 15.6984C13.7125 15.6984 13.985 15.8138 14.1859 16.0192C14.3868 16.2246 14.4997 16.5031 14.4997 16.7936C14.4997 17.0841 14.3868 17.3627 14.1859 17.5681C13.985 17.7735 13.7125 17.8889 13.4283 17.8889H10.5711C10.287 17.8889 10.0145 17.7735 9.81353 17.5681C9.6126 17.3627 9.49972 17.0841 9.49972 16.7936C9.49972 16.5031 9.6126 16.2246 9.81353 16.0192C10.0145 15.8138 10.287 15.6984 10.5711 15.6984Z" fill="#121212" fill-opacity="0.48"/>
<path d="M13.4283 12.0476C13.2164 12.0476 13.0092 12.1118 12.833 12.2322C12.6568 12.3525 12.5195 12.5236 12.4384 12.7237C12.3573 12.9238 12.3361 13.144 12.3774 13.3565C12.4188 13.569 12.5208 13.7641 12.6707 13.9173C12.8205 14.0704 13.0114 14.1748 13.2193 14.217C13.4271 14.2593 13.6425 14.2376 13.8383 14.1547C14.0341 14.0718 14.2014 13.9314 14.3191 13.7513C14.4369 13.5712 14.4997 13.3594 14.4997 13.1428C14.4997 12.8524 14.3868 12.5738 14.1859 12.3684C13.985 12.163 13.7125 12.0476 13.4283 12.0476Z" fill="#121212" fill-opacity="0.48"/>
<path d="M15.6902 12.2322C15.8664 12.1118 16.0735 12.0476 16.2854 12.0476C16.5696 12.0476 16.8421 12.163 17.043 12.3684C17.244 12.5738 17.3569 12.8524 17.3569 13.1428C17.3569 13.3594 17.294 13.5712 17.1763 13.7513C17.0586 13.9314 16.8912 14.0718 16.6954 14.1547C16.4997 14.2376 16.2842 14.2593 16.0764 14.217C15.8686 14.1748 15.6777 14.0704 15.5278 13.9173C15.378 13.7641 15.2759 13.569 15.2346 13.3565C15.1932 13.144 15.2145 12.9238 15.2956 12.7237C15.3767 12.5236 15.514 12.3525 15.6902 12.2322Z" fill="#121212" fill-opacity="0.48"/>
<path d="M13.5 1.5L12 0L10.5 1.5L13.5 1.5Z" fill="#121212" fill-opacity="0.48"/>
<circle cx="12" cy="13" r="10.25" transform="rotate(-180 12 13)" stroke="#121212" stroke-opacity="0.48" stroke-width="1.5"/>
</svg>
