<svg width="28" height="28" viewBox="0 0 28 28" fill="none" xmlns="http://www.w3.org/2000/svg">
<rect width="28" height="28" rx="8" fill="#007AFF"/>
<path d="M15.0325 21.5827C14.7184 21.5827 14.4941 21.4855 14.3594 21.291C14.2248 21.0966 14.2174 20.8647 14.337 20.5955L17.1191 13.2141C17.1939 13.0047 17.3359 12.8288 17.5453 12.6864C17.7547 12.5446 17.9716 12.4737 18.196 12.4737C18.4203 12.4737 18.6372 12.5485 18.8466 12.6981C19.056 12.8476 19.1981 13.0196 19.2729 13.2141L22.055 20.5955C22.1597 20.8797 22.1486 21.1151 22.0218 21.3018C21.8943 21.489 21.6736 21.5827 21.3595 21.5827C21.2248 21.5827 21.0941 21.5378 20.9673 21.4481C20.8398 21.3583 20.7537 21.2536 20.7088 21.134L20.0582 19.2718H16.3787L15.728 21.1115C15.6682 21.2312 15.571 21.3398 15.4364 21.4373C15.3018 21.5342 15.1671 21.5827 15.0325 21.5827ZM16.8274 17.9481H19.5421L18.2184 14.1788H18.1736L16.8274 17.9481ZM10.2986 11.3295C10.508 11.7034 10.7287 12.0474 10.9609 12.3615C11.1924 12.6756 11.4577 13.0047 11.7569 13.3487C12.3253 12.7355 12.7964 12.1111 13.1703 11.4758C13.5443 10.8398 13.8509 10.1628 14.0902 9.44486H6.43958C6.23018 9.44486 6.05069 9.37008 5.90112 9.2205C5.75154 9.07093 5.67676 8.89144 5.67676 8.68204C5.67676 8.47264 5.75154 8.29315 5.90112 8.14358C6.05069 7.99401 6.23018 7.91922 6.43958 7.91922H10.9941V7.1564C10.9941 6.947 11.0689 6.7711 11.2184 6.62871C11.368 6.48691 11.5475 6.41602 11.7569 6.41602C11.9663 6.41602 12.1458 6.48691 12.2953 6.62871C12.4449 6.7711 12.5197 6.947 12.5197 7.1564V7.91922H17.0742C17.2836 7.91922 17.4631 7.99401 17.6127 8.14358C17.7622 8.29315 17.837 8.47264 17.837 8.68204C17.837 8.89144 17.7622 9.07093 17.6127 9.2205C17.4631 9.37008 17.2836 9.44486 17.0742 9.44486H15.6159C15.3466 10.3273 14.9841 11.1949 14.5282 12.0474C14.0717 12.9 13.5144 13.6927 12.8562 14.4256L14.6511 16.2878L14.0902 17.8583L11.7569 15.525L8.50368 18.7782C8.35411 18.9278 8.17462 19.0026 7.96522 19.0026C7.75582 19.0026 7.57633 18.9278 7.42676 18.7782C7.26223 18.6286 7.17996 18.4491 7.17996 18.2397C7.17996 18.0303 7.26223 17.8434 7.42676 17.6788L10.7248 14.3808C10.3808 14.0068 10.0667 13.6215 9.78253 13.2249C9.49834 12.8288 9.24407 12.4139 9.01971 11.9801C8.88509 11.7109 8.8815 11.4752 9.00894 11.2729C9.13578 11.0713 9.35625 10.9705 9.67035 10.9705C9.79001 10.9705 9.90966 11.0079 10.0293 11.0827C10.149 11.1575 10.2387 11.2397 10.2986 11.3295Z" fill="white"/>
</svg>
