<svg width="24" height="24" viewBox="0 0 24 24" fill="none" xmlns="http://www.w3.org/2000/svg">
<rect width="24" height="24" rx="4" fill="#5AC63A"/>
<path d="M4 14V7C4 6.44772 4.44772 6 5 6H17C17.5523 6 18 6.44772 18 7V14" stroke="#FEFEFE"/>
<path d="M4.5 16H17C17.5523 16 18 15.5523 18 15H4V15.5C4 15.7761 4.22386 16 4.5 16Z" fill="#FEFEFE" stroke="#FEFEFE"/>
<path d="M10 19V16H13V19H10Z" fill="#FEFEFE"/>
<path d="M9 19H10.7857H12.2143H14" stroke="#FEFEFE" stroke-linecap="round"/>
<path d="M21.3125 9.5L21.3125 17.5C21.3125 18.7426 20.3051 19.75 19.0625 19.75L15.9375 19.75C14.6949 19.75 13.6875 18.7426 13.6875 17.5L13.6875 9.5C13.6875 8.25736 14.6949 7.25 15.9375 7.25L19.0625 7.25C20.3051 7.25 21.3125 8.25736 21.3125 9.5Z" fill="#5AC63A" stroke="#5AC63A" stroke-width="0.5"/>
<path d="M20.4375 17.375L20.4375 9.625C20.4375 8.79657 19.7659 8.125 18.9375 8.125L16.0625 8.125C15.2341 8.125 14.5625 8.79657 14.5625 9.625L14.5625 17.375C14.5625 18.2034 15.2341 18.875 16.0625 18.875L18.9375 18.875C19.7659 18.875 20.4375 18.2034 20.4375 17.375Z" stroke="#FEFEFE"/>
<path d="M16.6875 8.625L18.3125 8.625" stroke="#FEFEFE" stroke-width="1.5" stroke-linecap="round"/>
</svg>
