<svg width="24" height="24" viewBox="0 0 24 24" fill="none" xmlns="http://www.w3.org/2000/svg">
<path d="M3.99997 18C3.99997 19.8 5.19999 21 6.99999 21C9.39999 21 10.4 19.2 11 18C12.2 15.6 15.5 13.5846 15.5 10C15.5 6 13.4506 2 8.99999 2C4.64103 2 2 6.5 2.99993 10M5.99997 13C5.24137 11.7527 4.5055 7.13414 6.99998 6C10.3 4.49961 13 7 12 10M7.99998 12C10.5 15 8.74041 16.9473 5.99997 17M18.9999 8C21.4518 10.0311 21.478 14.4526 18.9999 17M18 11C18.4999 12.0004 18.4999 13 17.9999 14" stroke="black" stroke-width="1.25" stroke-linecap="round"/>
</svg>
