<svg width="24" height="24" viewBox="0 0 24 24" fill="none" xmlns="http://www.w3.org/2000/svg">
<g clip-path="url(#clip0_5756_149579)">
<path d="M3 5.375C2.65482 5.375 2.375 5.65482 2.375 6C2.375 6.34518 2.65482 6.625 3 6.625V5.375ZM17 6.625C17.3452 6.625 17.625 6.34518 17.625 6C17.625 5.65482 17.3452 5.375 17 5.375V6.625ZM2.91537 15.3808C2.57337 15.4275 2.33402 15.7426 2.38076 16.0846C2.42749 16.4266 2.74263 16.666 3.08463 16.6192L2.91537 15.3808ZM10.625 3C10.625 2.65482 10.3452 2.375 10 2.375C9.65482 2.375 9.375 2.65482 9.375 3H10.625ZM12.7186 15.5581L13.2766 15.8395L13.8395 14.7234L13.2814 14.4419L12.7186 15.5581ZM14 6.625H17V5.375H14V6.625ZM3 6.625H6V5.375H3V6.625ZM5.38426 6.10718C5.97556 9.50407 7.60656 11.7705 9.5931 13.4744L10.4069 12.5256C8.6018 10.9774 7.14917 8.95721 6.61574 5.89282L5.38426 6.10718ZM13.383 5.90043C12.8746 9.05035 11.4046 11.0782 9.60995 12.5117L10.3901 13.4883C12.4029 11.8806 14.0544 9.58559 14.617 6.09957L13.383 5.90043ZM9.60995 12.5117C7.79433 13.9618 5.21765 15.0661 2.91537 15.3808L3.08463 16.6192C5.61041 16.2741 8.39817 15.0793 10.3901 13.4883L9.60995 12.5117ZM6 6.625H10V5.375H6V6.625ZM10 6.625H14V5.375H10V6.625ZM10.625 6V3H9.375V6H10.625ZM9.5931 13.4744C9.81778 13.6671 10.494 14.1347 11.1283 14.5576C11.7626 14.9804 12.4543 15.4248 12.7186 15.5581L13.2814 14.4419C13.1005 14.3507 12.4815 13.9574 11.8217 13.5175C11.1619 13.0776 10.5607 12.6575 10.4069 12.5256L9.5931 13.4744Z" fill="black"/>
<path d="M12 21L14 17M22 21L20 17M14 17L17 11L20 17M14 17L20 17" stroke="black" stroke-width="1.25" stroke-linecap="round" stroke-linejoin="round"/>
</g>
<defs>
<clipPath id="clip0_5756_149579">
<rect width="24" height="24" fill="white"/>
</clipPath>
</defs>
</svg>
