<svg width="24" height="24" viewBox="0 0 24 24" fill="none" xmlns="http://www.w3.org/2000/svg">
<path d="M4.4 7.625H14.6C15.5803 7.625 16.375 8.41969 16.375 9.4V19.6C16.375 20.5803 15.5803 21.375 14.6 21.375H4.4C3.41969 21.375 2.625 20.5803 2.625 19.6V9.4C2.625 8.41969 3.41969 7.625 4.4 7.625Z" stroke="black" stroke-width="1.25" stroke-linecap="round"/>
<path fill-rule="evenodd" clip-rule="evenodd" d="M9.4 3.25H19.6C20.2351 3.25 20.75 3.76487 20.75 4.4V14.6C20.75 15.2351 20.2351 15.75 19.6 15.75H18.0001V17H19.6C20.9255 17 22 15.9255 22 14.6V4.4C22 3.07452 20.9255 2 19.6 2H9.4C8.07452 2 7 3.07452 7 4.4V6.00039H8.25V4.4C8.25 3.76487 8.76487 3.25 9.4 3.25Z" fill="black"/>
</svg>
