<svg width="24" height="24" viewBox="0 0 24 24" fill="none" xmlns="http://www.w3.org/2000/svg">
<g clip-path="url(#clip0_5734_136012)">
<path d="M9.44201 15.4419L9.88388 14.9999L8.99987 14.1161L8.55799 14.5581L9.44201 15.4419ZM4.55853 18.5588C4.31449 18.8029 4.31455 19.1986 4.55867 19.4427C4.80278 19.6867 5.19851 19.6866 5.44255 19.4425L4.55853 18.5588ZM8.55799 14.5581L4.55853 18.5588L5.44255 19.4425L9.44201 15.4419L8.55799 14.5581Z" fill="black"/>
<path d="M4.26517 10.149L13.851 19.7348C14.8746 20.7585 16.625 20.0335 16.625 18.5858V14.2003L20.5238 8.74195C21.2697 7.69776 21.1513 6.2674 20.2439 5.36004L18.64 3.75608C17.7326 2.84872 16.3022 2.73034 15.2581 3.47618L9.79971 7.375L5.41421 7.375C3.96649 7.375 3.24147 9.12536 4.26517 10.149Z" stroke="black" stroke-width="1.25"/>
</g>
<defs>
<clipPath id="clip0_5734_136012">
<rect width="24" height="24" fill="white"/>
</clipPath>
</defs>
</svg>
