<svg width="24" height="24" viewBox="0 0 24 24" fill="none" xmlns="http://www.w3.org/2000/svg">
<path d="M21.6165 18.9844C21.6649 19.275 21.5038 19.56 21.2298 19.6683C20.9558 19.7767 20.6434 19.6789 20.48 19.4338C19.3634 17.759 18.3621 16.752 17.0172 16.1789C15.7479 15.6382 14.1001 15.4522 11.625 15.587V19.0871C11.625 19.339 11.4738 19.5663 11.2415 19.6636C11.0091 19.7609 10.7411 19.7092 10.5616 19.5325L3.36161 12.4454C3.24178 12.3274 3.17453 12.1662 3.17505 11.998C3.17557 11.8299 3.24382 11.6691 3.36437 11.5518L10.5643 4.55188C10.7444 4.37678 11.0119 4.32652 11.2432 4.42427C11.4746 4.52203 11.625 4.74881 11.625 5V9.41688C14.6663 9.65255 16.8849 10.231 18.4777 11.651C20.1722 13.1615 21.0386 15.5167 21.6165 18.9844Z" stroke="black" stroke-width="1.25" stroke-linecap="round" stroke-linejoin="round"/>
</svg>
