<svg width="24" height="24" viewBox="0 0 24 24" fill="none" xmlns="http://www.w3.org/2000/svg">
<path d="M12 16.4351C12.5304 16.4351 13.0391 16.6383 13.4142 17C13.7893 17.3617 14 17.8522 14 18.3637C14 18.8752 13.7893 19.3657 13.4142 19.7274C13.0391 20.0891 12.5304 20.2923 12 20.2923C11.4696 20.2923 10.9609 20.0891 10.5858 19.7274C10.2107 19.3657 10 18.8752 10 18.3637C10 17.8522 10.2107 17.3617 10.5858 17C10.9609 16.6383 11.4696 16.4351 12 16.4351ZM12 10.0716C12.5304 10.0716 13.0391 10.2747 13.4142 10.6364C13.7893 10.9981 14 11.4886 14 12.0001C14 12.5116 13.7893 13.0021 13.4142 13.3638C13.0391 13.7255 12.5304 13.9287 12 13.9287C11.4696 13.9287 10.9609 13.7255 10.5858 13.3638C10.2107 13.0021 10 12.5116 10 12.0001C10 11.4886 10.2107 10.9981 10.5858 10.6364C10.9609 10.2747 11.4696 10.0716 12 10.0716ZM12 3.70776C12.5304 3.70776 13.0391 3.91095 13.4142 4.27263C13.7893 4.63431 14 5.12484 14 5.63633C14 6.14782 13.7893 6.63836 13.4142 7.00004C13.0391 7.36171 12.5304 7.5649 12 7.5649C11.4696 7.5649 10.9609 7.36171 10.5858 7.00004C10.2107 6.63836 10 6.14782 10 5.63633C10 5.12484 10.2107 4.63431 10.5858 4.27263C10.9609 3.91095 11.4696 3.70776 12 3.70776Z" fill="#121212"/>
</svg>
