<svg width="24" height="24" viewBox="0 0 24 24" fill="none" xmlns="http://www.w3.org/2000/svg">
<path fill-rule="evenodd" clip-rule="evenodd" d="M4 9.22223C4.55228 9.22223 5 9.66994 5 10.2222C5 13.9391 8.10727 17 12 17C15.8927 17 19 13.9391 19 10.2222C19 9.66994 19.4477 9.22223 20 9.22223C20.5523 9.22223 21 9.66994 21 10.2222C21 14.7634 17.4792 18.462 13 18.9463V21.9999C13 22.5522 12.5523 22.9999 12 22.9999C11.4477 22.9999 11 22.5522 11 21.9999V18.9463C6.5208 18.462 3 14.7634 3 10.2222C3 9.66994 3.44772 9.22223 4 9.22223Z" fill="#121212" fill-opacity="0.32"/>
<path d="M12 1C9.23857 1 7 3.23858 7 6V10C7 12.7614 9.23857 15 12 15C14.7614 15 17 12.7614 17 10V6C17 3.23857 14.7614 1 12 1Z" fill="#121212" fill-opacity="0.32"/>
</svg>
