<svg width="24" height="24" viewBox="0 0 24 24" fill="none" xmlns="http://www.w3.org/2000/svg">
<path fill-rule="evenodd" clip-rule="evenodd" d="M14.5 5V12C14.5 13.3807 13.3807 14.5 12 14.5C10.6193 14.5 9.5 13.3807 9.5 12V5C9.5 3.61929 10.6193 2.5 12 2.5C13.3807 2.5 14.5 3.61929 14.5 5ZM8 5C8 2.79086 9.79086 1 12 1C14.2091 1 16 2.79086 16 5V12C16 14.2091 14.2091 16 12 16C9.79086 16 8 14.2091 8 12V5ZM5 11.25C5.41421 11.25 5.75 11.5858 5.75 12C5.75 15.4518 8.54822 18.25 12 18.25C15.4518 18.25 18.25 15.4518 18.25 12C18.25 11.5858 18.5858 11.25 19 11.25C19.4142 11.25 19.75 11.5858 19.75 12C19.75 16.0272 16.6783 19.337 12.75 19.7142V21.5C12.75 21.9142 12.4142 22.25 12 22.25C11.5858 22.25 11.25 21.9142 11.25 21.5V19.7142C7.3217 19.337 4.25 16.0272 4.25 12C4.25 11.5858 4.58579 11.25 5 11.25Z" fill="#121212" fill-opacity="0.48"/>
</svg>
