<svg width="16" height="17" viewBox="0 0 16 17" fill="none" xmlns="http://www.w3.org/2000/svg">
<path fill-rule="evenodd" clip-rule="evenodd" d="M2.5 7.58268C2.5 6.7259 3.03875 5.99495 3.79595 5.71012L6.5 8.41417L10 11.9142V13.4999C10 13.8119 9.664 14.0039 9.392 13.8439L6.5 11H4.5C3.39543 11 2.5 10.1045 2.5 8.99996V7.58268ZM10 2.99989V9.08574L6.5 5.58574L6.49694 5.58268H6.5L9 2.90154C9.272 2.74154 10 2.68789 10 2.99989ZM3.35355 3.14632C3.15829 2.95106 2.84171 2.95106 2.64645 3.14632C2.45118 3.34159 2.45118 3.65817 2.64645 3.85343L12.6464 13.8534C12.8417 14.0487 13.1583 14.0487 13.3536 13.8534C13.5488 13.6582 13.5488 13.3416 13.3536 13.1463L3.35355 3.14632Z" fill="#121212" fill-opacity="0.32"/>
</svg>
