<svg width="24" height="24" viewBox="0 0 24 24" fill="none" xmlns="http://www.w3.org/2000/svg">
<path d="M9.25001 10C9.25001 9.58579 9.58579 9.25 10 9.25H14C14.2883 9.25 14.5511 9.41526 14.676 9.67511C14.8009 9.93496 14.7658 10.2434 14.5857 10.4685L11.5605 14.25H14C14.4142 14.25 14.75 14.5858 14.75 15C14.75 15.4142 14.4142 15.75 14 15.75H10C9.7117 15.75 9.44892 15.5847 9.32403 15.3249C9.19914 15.065 9.23425 14.7566 9.41436 14.5315L12.4395 10.75H10C9.58579 10.75 9.25001 10.4142 9.25001 10Z" fill="#5128D4"/>
<path fill-rule="evenodd" clip-rule="evenodd" d="M10.6088 2.51924C7.34623 3.40041 5.17517 6.94716 5.17517 11V12.0742C5.17517 13.2684 4.99542 14.4493 4.64756 15.5527L3.77029 18.0918C3.49174 18.898 4.08424 19.75 4.94915 19.75H19.5494C20.4109 19.75 21.0094 18.9013 20.7296 18.0918L19.852 15.5526C19.5041 14.4492 19.3244 13.2684 19.3244 12.0742V11C19.3244 6.94723 17.1538 3.40042 13.8912 2.51925C13.8456 2.28262 13.7605 2.04407 13.6037 1.83433C13.2611 1.37596 12.741 1.25 12.25 1.25C11.759 1.25 11.2389 1.37596 10.8963 1.83433C10.7396 2.04407 10.6544 2.28262 10.6088 2.51924ZM11.3508 3.88755C8.77364 4.36985 6.67517 7.20798 6.67517 11V12.0742C6.67517 13.421 6.47211 14.7579 6.07482 16.0142L6.07184 16.0237L5.30263 18.25H19.1972L18.4277 16.0237L18.4248 16.0142C18.0275 14.7579 17.8244 13.421 17.8244 12.0742V11C17.8244 7.20027 15.7178 4.35841 13.1337 3.88466L12.9624 3.88784C12.8137 3.89043 12.6113 3.89354 12.3967 3.89562C12.0443 3.89903 11.611 3.90047 11.3508 3.88755Z" fill="#5128D4"/>
<path d="M10.5 22C10.5 21.5858 10.8358 21.25 11.25 21.25H13.25C13.6642 21.25 14 21.5858 14 22C14 22.4142 13.6642 22.75 13.25 22.75H11.25C10.8358 22.75 10.5 22.4142 10.5 22Z" fill="#5128D4"/>
<path d="M18.25 2C18.25 2.41421 18.5858 2.75 19 2.75H20.1894L18.4697 4.46967C18.2552 4.68417 18.191 5.00676 18.3071 5.28701C18.4232 5.56727 18.6967 5.75 19 5.75H22C22.4142 5.75 22.75 5.41421 22.75 5C22.75 4.58579 22.4142 4.25 22 4.25H20.8107L22.5304 2.53033C22.7449 2.31583 22.809 1.99324 22.6929 1.71299C22.5768 1.43273 22.3034 1.25 22 1.25H19C18.5858 1.25 18.25 1.58579 18.25 2Z" fill="#5128D4"/>
</svg>
