<svg width="28" height="28" viewBox="0 0 28 28" fill="none" xmlns="http://www.w3.org/2000/svg">
<rect width="28" height="28" rx="8" fill="#E49E4C"/>
<path d="M14.0225 22.0777C13.7682 22.0777 13.5549 21.9915 13.3826 21.8192C13.2109 21.6475 13.1251 21.4345 13.1251 21.1802V20.1482C12.452 19.9986 11.8612 19.7369 11.3526 19.3629C10.8441 18.989 10.4328 18.4655 10.1187 17.7924C10.014 17.583 10.0101 17.3625 10.107 17.131C10.2045 16.8989 10.3804 16.7305 10.6347 16.6258C10.8441 16.536 11.061 16.5399 11.2853 16.6374C11.5097 16.7343 11.6817 16.895 11.8014 17.1193C12.0556 17.5681 12.3772 17.9085 12.7661 18.1406C13.155 18.3722 13.6336 18.4879 14.202 18.4879C14.8152 18.4879 15.3352 18.3497 15.7617 18.0733C16.1877 17.7963 16.4007 17.3661 16.4007 16.7828C16.4007 16.2593 16.2362 15.8441 15.9071 15.5372C15.5781 15.2308 14.8152 14.8832 13.6187 14.4943C12.3323 14.0905 11.4499 13.6083 10.9712 13.0477C10.4926 12.4865 10.2533 11.802 10.2533 10.9943C10.2533 10.0221 10.5674 9.26678 11.1956 8.72832C11.8238 8.18985 12.467 7.88323 13.1251 7.80844V6.82126C13.1251 6.56699 13.2109 6.3537 13.3826 6.18139C13.5549 6.00968 13.7682 5.92383 14.0225 5.92383C14.2768 5.92383 14.4901 6.00968 14.6624 6.18139C14.8341 6.3537 14.9199 6.56699 14.9199 6.82126V7.80844C15.4883 7.89819 15.9819 8.08156 16.4007 8.35857C16.8195 8.63498 17.1635 8.97511 17.4328 9.37896C17.5674 9.5734 17.5937 9.79028 17.5117 10.0296C17.4292 10.2689 17.2608 10.4409 17.0065 10.5456C16.7971 10.6354 16.5802 10.639 16.3558 10.5564C16.1315 10.4744 15.9221 10.3287 15.7276 10.1193C15.5332 9.90994 15.3052 9.749 15.0438 9.63652C14.7817 9.52464 14.4563 9.4687 14.0674 9.4687C13.4093 9.4687 12.9082 9.61468 12.5642 9.90665C12.2202 10.198 12.0482 10.5606 12.0482 10.9943C12.0482 11.4879 12.2725 11.8768 12.7212 12.161C13.1699 12.4452 13.9477 12.7443 15.0546 13.0584C16.0866 13.3576 16.8683 13.8323 17.3996 14.4827C17.9302 15.1336 18.1956 15.8854 18.1956 16.7379C18.1956 17.7999 17.8815 18.6076 17.2533 19.161C16.6251 19.7144 15.8473 20.0584 14.9199 20.1931V21.1802C14.9199 21.4345 14.8341 21.6475 14.6624 21.8192C14.4901 21.9915 14.2768 22.0777 14.0225 22.0777Z" fill="white"/>
</svg>
