<svg width="28" height="28" viewBox="0 0 28 28" fill="none" xmlns="http://www.w3.org/2000/svg">
<rect width="28" height="28" rx="8" fill="#EB4B35"/>
<path d="M20.2818 10.0966C19.6536 10.0966 19.1226 9.87967 18.6889 9.44591C18.2551 9.01215 18.0382 8.48117 18.0382 7.85296C18.0382 7.23972 18.2551 6.71232 18.6889 6.27079C19.1226 5.82985 19.6536 5.60938 20.2818 5.60938C20.91 5.60938 21.441 5.82985 21.8748 6.27079C22.3085 6.71232 22.5254 7.23972 22.5254 7.85296C22.5254 8.48117 22.3085 9.01215 21.8748 9.44591C21.441 9.87967 20.91 10.0966 20.2818 10.0966ZM8.68247 19.5645L7.15683 21.0901C6.93247 21.3145 6.67071 21.3669 6.37157 21.2472C6.07242 21.1275 5.92285 20.9032 5.92285 20.5741V8.45873C5.92285 8.03993 6.06136 7.69202 6.33836 7.41502C6.61477 7.13861 6.96238 7.0004 7.38118 7.0004H16.3331C16.3032 7.14997 16.2846 7.29566 16.2775 7.43745C16.2697 7.57985 16.2658 7.73331 16.2658 7.89784C16.3107 9.0645 16.722 10.0218 17.4998 10.7696C18.2776 11.5175 19.2049 11.8914 20.2818 11.8914C20.581 11.8914 20.8876 11.854 21.2017 11.7792C21.5158 11.7045 21.8075 11.5923 22.0767 11.4427V18.1062C22.0767 18.525 21.9385 18.8729 21.6621 19.1499C21.3851 19.4263 21.0372 19.5645 20.6184 19.5645H8.68247Z" fill="white"/>
</svg>
