<svg width="76" height="89" viewBox="0 0 76 89" fill="none" xmlns="http://www.w3.org/2000/svg">
    <mask id="mask0_3294_85546" style="mask-type:luminance" maskUnits="userSpaceOnUse" x="18" y="0" width="58" height="89">
        <path d="M57.0188 88.0625C54.6665 88.0625 52.2227 88.0485 49.7639 88.024C38.2287 87.9119 26.337 87.5774 21.7415 87.4023C20.1804 87.3427 18.929 85.884 18.8797 84.0671C18.753 79.3641 18.7336 72.311 18.7794 64.2615C18.7917 61.9857 18.8102 59.6286 18.8322 57.2241C18.8383 56.4877 18.8454 55.7504 18.8533 55.0062C18.8639 53.9572 18.8753 52.8968 18.8867 51.8356C18.973 44.2081 19.0918 36.3301 19.2141 29.1036C19.2423 27.4426 19.2713 25.8131 19.2995 24.2326C19.4499 15.7785 19.5969 8.63432 19.6858 4.48827C19.7342 2.19415 21.276 0.318581 23.2437 0.169724C24.8005 0.0523911 26.7145 -0.000152588 28.8758 -0.000152588C32.1249 -0.000152588 35.9327 0.118065 39.9289 0.307198C40.3741 0.328217 40.8212 0.350105 41.27 0.372871C41.5085 0.385132 41.7478 0.397385 41.9872 0.410522C42.5267 0.438538 43.0696 0.468307 43.6126 0.498085C44.446 0.545364 45.2785 0.594398 46.1154 0.64518C56.3016 1.2695 66.4957 2.19503 70.9838 2.71777C72.9339 2.94543 74.4669 4.75533 74.6315 7.02931C75.7658 22.6713 75.5722 53.5658 75.3214 72.1867C75.31 73.064 75.2977 73.9151 75.2862 74.7347C75.2651 76.2136 75.2431 77.5954 75.2229 78.8615C75.2026 80.0681 75.1841 81.1696 75.1665 82.153C75.112 85.2167 73.0202 87.6965 70.3898 87.8243C66.8829 87.996 62.1687 88.0625 57.0188 88.0625ZM30.3199 5.05042C28.7333 5.05042 27.3455 5.08282 26.2243 5.15374C24.5409 5.26057 23.2024 6.83318 23.1302 8.79368C22.7148 20.118 21.4036 57.7933 21.8198 71.7252C21.8806 73.761 23.2595 75.4081 25.0064 75.5272C30.0876 75.873 43.8247 76.514 55.1734 76.514C59.8947 76.514 64.2006 76.4028 67.3009 76.1138C69.2009 75.9369 70.6925 74.1481 70.7955 71.9319C71.3297 60.3781 72.8653 25.2973 72.4666 11.5221C72.4033 9.32431 70.9407 7.53017 69.0592 7.33315C62.2487 6.62128 41.4266 5.05042 30.3199 5.05042ZM40.6126 1.78962C40.2017 1.78962 39.8048 1.79662 39.4308 1.81238C39.0576 1.82814 38.7646 2.18715 38.7646 2.62145C38.7646 3.05226 39.0532 3.40688 39.422 3.42965C41.2462 3.54086 46.382 3.85519 48.678 4.01018C48.6921 4.01105 48.7061 4.01193 48.7193 4.01193C49.1523 4.01193 49.4832 3.55136 49.4005 3.04875L49.3855 2.96032C49.3266 2.60744 49.0749 2.34126 48.7669 2.30798C47.402 2.16264 43.6161 1.78962 40.6126 1.78962Z" fill="white"/>
    </mask>
    <g mask="url(#mask0_3294_85546)">
        <path d="M57.0188 88.0625C54.6665 88.0625 52.2227 88.0485 49.7639 88.024C38.2287 87.9119 26.337 87.5774 21.7415 87.4023C20.1804 87.3427 18.929 85.884 18.8797 84.0671C18.753 79.3641 18.7336 72.311 18.7794 64.2615C18.7917 61.9857 18.8102 59.6286 18.8322 57.2241C18.8383 56.4877 18.8454 55.7504 18.8533 55.0062C18.8639 53.9572 18.8753 52.8968 18.8867 51.8356C18.973 44.2081 19.0918 36.3301 19.2141 29.1036C19.2423 27.4426 19.2713 25.8131 19.2995 24.2326C19.4499 15.7785 19.5969 8.63432 19.6858 4.48827C19.7342 2.19415 21.276 0.318581 23.2437 0.169724C24.8005 0.0523911 26.7145 -0.000152588 28.8758 -0.000152588C32.1249 -0.000152588 35.9327 0.118065 39.9289 0.307198C40.3741 0.328217 40.8212 0.350105 41.27 0.372871C41.5085 0.385132 41.7478 0.397385 41.9872 0.410522C42.5267 0.438538 43.0696 0.468307 43.6126 0.498085C44.446 0.545364 45.2785 0.594398 46.1154 0.64518C56.3016 1.2695 66.4957 2.19503 70.9838 2.71777C72.9339 2.94543 74.4669 4.75533 74.6315 7.02931C75.7658 22.6713 75.5722 53.5658 75.3214 72.1867C75.31 73.064 75.2977 73.9151 75.2862 74.7347C75.2651 76.2136 75.2431 77.5954 75.2229 78.8615C75.2026 80.0681 75.1841 81.1696 75.1665 82.153C75.112 85.2167 73.0202 87.6965 70.3898 87.8243C66.8829 87.996 62.1687 88.0625 57.0188 88.0625ZM30.3199 5.05042C28.7333 5.05042 27.3455 5.08282 26.2243 5.15374C24.5409 5.26057 23.2024 6.83318 23.1302 8.79368C22.7148 20.118 21.4036 57.7933 21.8198 71.7252C21.8806 73.761 23.2595 75.4081 25.0064 75.5272C30.0876 75.873 43.8247 76.514 55.1734 76.514C59.8947 76.514 64.2006 76.4028 67.3009 76.1138C69.2009 75.9369 70.6925 74.1481 70.7955 71.9319C71.3297 60.3781 72.8653 25.2973 72.4666 11.5221C72.4033 9.32431 70.9407 7.53017 69.0592 7.33315C62.2487 6.62128 41.4266 5.05042 30.3199 5.05042ZM40.6126 1.78962C40.2017 1.78962 39.8048 1.79662 39.4308 1.81238C39.0576 1.82814 38.7646 2.18715 38.7646 2.62145C38.7646 3.05226 39.0532 3.40688 39.422 3.42965C41.2462 3.54086 46.382 3.85519 48.678 4.01018C48.6921 4.01105 48.7061 4.01193 48.7193 4.01193C49.1523 4.01193 49.4832 3.55136 49.4005 3.04875L49.3855 2.96032C49.3266 2.60744 49.0749 2.34126 48.7669 2.30798C47.402 2.16264 43.6161 1.78962 40.6126 1.78962Z" fill="#C0C0C0"/>
    </g>
    <path d="M23.1302 8.79053C22.7148 20.1149 21.4036 57.7901 21.8198 71.7221C21.8806 73.7579 23.2596 75.4049 25.0064 75.524C32.2014 76.0135 56.7486 77.094 67.3009 76.1107C69.2009 75.9338 70.6925 74.1449 70.7955 71.9287C71.3297 60.3749 72.8653 25.2942 72.4666 11.519C72.4033 9.32116 70.9407 7.52702 69.0592 7.33C61.2755 6.51656 35.1917 4.58144 26.2243 5.1506C24.5409 5.25742 23.2024 6.83002 23.1302 8.79053Z" fill="#F0F9FF"/>
    <mask id="mask1_3294_85546" style="mask-type:luminance" maskUnits="userSpaceOnUse" x="38" y="1" width="12" height="4">
        <path d="M48.7194 4.00977C48.7062 4.00977 48.6921 4.00889 48.6781 4.00801C46.3821 3.85303 41.2463 3.53868 39.422 3.42748C39.0533 3.40471 38.7646 3.05009 38.7646 2.61929C38.7646 2.18498 39.0577 1.82597 39.4308 1.81021C39.8048 1.79445 40.2017 1.78745 40.6127 1.78745C43.6162 1.78745 47.402 2.16046 48.7669 2.30582C49.0749 2.33909 49.3266 2.60528 49.3856 2.95815L49.4005 3.04659C49.4833 3.54919 49.1524 4.00977 48.7194 4.00977Z" fill="white"/>
    </mask>
    <g mask="url(#mask1_3294_85546)">
        <path d="M48.7194 4.00977C48.7062 4.00977 48.6921 4.00889 48.6781 4.00801C46.3821 3.85303 41.2463 3.53868 39.422 3.42748C39.0533 3.40471 38.7646 3.05009 38.7646 2.61929C38.7646 2.18498 39.0577 1.82597 39.4308 1.81021C39.8048 1.79445 40.2017 1.78745 40.6127 1.78745C43.6162 1.78745 47.402 2.16046 48.7669 2.30582C49.0749 2.33909 49.3266 2.60528 49.3856 2.95815L49.4005 3.04659C49.4833 3.54919 49.1524 4.00977 48.7194 4.00977Z" fill="#F0F9FF"/>
    </g>
    <mask id="mask2_3294_85546" style="mask-type:luminance" maskUnits="userSpaceOnUse" x="22" y="5" width="51" height="11">
        <path d="M72.5294 15.8066L22.9219 14.6885C23.0196 11.9487 23.0662 10.5643 23.1304 8.80783C23.2026 6.84732 24.5411 5.26244 26.2246 5.15562C27.344 5.08469 28.7282 5.0523 30.3123 5.0523C41.4172 5.0523 62.2472 6.62666 69.0595 7.33853C70.9409 7.53555 72.4035 9.33757 72.4669 11.5345C72.503 12.7884 72.5232 14.2848 72.5294 15.8066ZM36.0685 10.2053C35.3081 10.2053 34.6912 10.8182 34.6912 11.5748C34.6912 12.3313 35.3081 12.9451 36.0685 12.9451C36.8288 12.9451 37.4448 12.3313 37.4448 11.5748C37.4448 10.8182 36.8288 10.2053 36.0685 10.2053ZM31.7845 9.95138C31.0242 9.95138 30.4082 10.5643 30.4082 11.3209C30.4082 12.0783 31.0242 12.6912 31.7845 12.6912C32.5449 12.6912 33.1618 12.0783 33.1618 11.3209C33.1618 10.5643 32.5449 9.95138 31.7845 9.95138ZM27.1953 9.81917C26.4349 9.81917 25.818 10.433 25.818 11.1895C25.818 11.946 26.4349 12.559 27.1953 12.559C27.9556 12.559 28.5716 11.946 28.5716 11.1895C28.5716 10.433 27.9556 9.81917 27.1953 9.81917Z" fill="white"/>
    </mask>
    <g mask="url(#mask2_3294_85546)">
        <path d="M72.5294 15.8066L22.9219 14.6885C23.0196 11.9487 23.0662 10.5643 23.1304 8.80783C23.2026 6.84732 24.5411 5.26244 26.2246 5.15562C27.344 5.08469 28.7282 5.0523 30.3123 5.0523C41.4172 5.0523 62.2472 6.62666 69.0595 7.33853C70.9409 7.53555 72.4035 9.33757 72.4669 11.5345C72.503 12.7884 72.5232 14.2848 72.5294 15.8066ZM36.0685 10.2053C35.3081 10.2053 34.6912 10.8182 34.6912 11.5748C34.6912 12.3313 35.3081 12.9451 36.0685 12.9451C36.8288 12.9451 37.4448 12.3313 37.4448 11.5748C37.4448 10.8182 36.8288 10.2053 36.0685 10.2053ZM31.7845 9.95138C31.0242 9.95138 30.4082 10.5643 30.4082 11.3209C30.4082 12.0783 31.0242 12.6912 31.7845 12.6912C32.5449 12.6912 33.1618 12.0783 33.1618 11.3209C33.1618 10.5643 32.5449 9.95138 31.7845 9.95138ZM27.1953 9.81917C26.4349 9.81917 25.818 10.433 25.818 11.1895C25.818 11.946 26.4349 12.559 27.1953 12.559C27.9556 12.559 28.5716 11.946 28.5716 11.1895C28.5716 10.433 27.9556 9.81917 27.1953 9.81917Z" fill="#B1B1B1"/>
    </g>
    <mask id="mask3_3294_85546" style="mask-type:luminance" maskUnits="userSpaceOnUse" x="25" y="9" width="4" height="4">
        <path d="M27.1956 12.5552C26.4353 12.5552 25.8184 11.9422 25.8184 11.1857C25.8184 10.4292 26.4353 9.81537 27.1956 9.81537C27.9559 9.81537 28.5719 10.4292 28.5719 11.1857C28.5719 11.9422 27.9559 12.5552 27.1956 12.5552Z" fill="white"/>
    </mask>
    <g mask="url(#mask3_3294_85546)">
        <path d="M27.1956 12.5552C26.4353 12.5552 25.8184 11.9422 25.8184 11.1857C25.8184 10.4292 26.4353 9.81537 27.1956 9.81537C27.9559 9.81537 28.5719 10.4292 28.5719 11.1857C28.5719 11.9422 27.9559 12.5552 27.1956 12.5552Z" fill="#F0F9FF"/>
    </g>
    <mask id="mask4_3294_85546" style="mask-type:luminance" maskUnits="userSpaceOnUse" x="30" y="9" width="4" height="4">
        <path d="M31.7846 12.689C31.0242 12.689 30.4082 12.076 30.4082 11.3186C30.4082 10.5621 31.0242 9.94915 31.7846 9.94915C32.5449 9.94915 33.1618 10.5621 33.1618 11.3186C33.1618 12.076 32.5449 12.689 31.7846 12.689Z" fill="white"/>
    </mask>
    <g mask="url(#mask4_3294_85546)">
        <path d="M31.7846 12.689C31.0242 12.689 30.4082 12.076 30.4082 11.3186C30.4082 10.5621 31.0242 9.94915 31.7846 9.94915C32.5449 9.94915 33.1618 10.5621 33.1618 11.3186C33.1618 12.076 32.5449 12.689 31.7846 12.689Z" fill="#F0F9FF"/>
    </g>
    <mask id="mask5_3294_85546" style="mask-type:luminance" maskUnits="userSpaceOnUse" x="34" y="10" width="4" height="3">
        <path d="M36.0686 12.9438C35.3083 12.9438 34.6914 12.33 34.6914 11.5735C34.6914 10.817 35.3083 10.204 36.0686 10.204C36.829 10.204 37.445 10.817 37.445 11.5735C37.445 12.33 36.829 12.9438 36.0686 12.9438Z" fill="white"/>
    </mask>
    <g mask="url(#mask5_3294_85546)">
        <path d="M36.0686 12.9438C35.3083 12.9438 34.6914 12.33 34.6914 11.5735C34.6914 10.817 35.3083 10.204 36.0686 10.204C36.829 10.204 37.445 10.817 37.445 11.5735C37.445 12.33 36.829 12.9438 36.0686 12.9438Z" fill="#F0F9FF"/>
    </g>
    <path d="M43.6479 45.7894H6.88586C3.35123 45.7894 0.485855 42.9241 0.485855 39.3894V30.8713C0.485855 27.4733 3.14139 24.6677 6.53429 24.481L44.146 22.4117C47.7717 22.2123 50.6909 25.0642 50.5438 28.6924C50.4043 32.135 50.2561 35.7735 50.2537 36.5714C50.2523 37.0372 50.2512 37.395 50.2512 37.5626C50.2512 44.8017 53.2569 47.485 54.5409 48.6313C55.0257 49.0641 55.265 49.2777 55.0044 49.4348C50.1133 50.1866 45.2842 47.5322 43.6479 45.7894Z" fill="#7B839E"/>
    <ellipse cx="16.1539" cy="37.6457" rx="2.7027" ry="2.68919" fill="white"/>
    <ellipse cx="25.6138" cy="37.6457" rx="2.7027" ry="2.68919" fill="white"/>
    <ellipse cx="35.0728" cy="37.6457" rx="2.7027" ry="2.68919" fill="white"/>
</svg>
