<svg width="20" height="20" viewBox="0 0 20 20" fill="none" xmlns="http://www.w3.org/2000/svg">
<path d="M6.35206 2C6.7076 2 7.03514 2.1928 7.20767 2.50363L8.40478 4.65994C8.5615 4.94227 8.56884 5.28377 8.42445 5.57261L7.27123 7.87903C7.27123 7.87903 7.60544 9.59726 9.00409 10.9959C10.4027 12.3946 12.1152 12.723 12.1152 12.723L14.4213 11.57C14.7103 11.4254 15.052 11.4329 15.3345 11.5899L17.4969 12.7922C17.8074 12.9648 18 13.2922 18 13.6475V16.13C18 17.3943 16.8257 18.3074 15.6278 17.9032C13.1676 17.073 9.34866 15.4925 6.92813 13.0719C4.50755 10.6513 2.92697 6.83239 2.09683 4.37218C1.69265 3.17429 2.60575 2 3.86996 2H6.35206Z" fill="#121212" fill-opacity="0.32"/>
<path fill-rule="evenodd" clip-rule="evenodd" d="M16 7.5C16 7.77614 16.2239 8 16.5 8C16.7761 8 17 7.77614 17 7.5V3.5C17 3.22386 16.7761 3 16.5 3H12.5C12.2239 3 12 3.22386 12 3.5C12 3.77614 12.2239 4 12.5 4H15.2927L12.6463 6.64642C12.4511 6.84168 12.4511 7.15826 12.6463 7.35352C12.8416 7.54879 13.1582 7.54879 13.3534 7.35352L16 4.70696V7.5Z" fill="#121212" fill-opacity="0.32"/>
</svg>
