<svg width="28" height="28" viewBox="0 0 28 28" fill="none" xmlns="http://www.w3.org/2000/svg">
<rect width="28" height="28" rx="8" fill="#121212" fill-opacity="0.48"/>
<path d="M9.17611 22.0777C8.77226 22.0777 8.42824 21.9356 8.14406 21.6514C7.85987 21.3672 7.71777 21.0232 7.71777 20.6193V12.7668C7.71777 12.3629 7.85987 12.0189 8.14406 11.7347C8.42824 11.4505 8.77226 11.3084 9.17611 11.3084H10.4101V9.51357C10.4101 8.51144 10.758 7.66246 11.4538 6.96665C12.149 6.27144 12.9977 5.92383 13.9998 5.92383C15.002 5.92383 15.8509 6.27144 16.5467 6.96665C17.242 7.66246 17.5896 8.51144 17.5896 9.51357V11.3084H18.8235C19.2274 11.3084 19.5714 11.4505 19.8556 11.7347C20.1398 12.0189 20.2819 12.3629 20.2819 12.7668V20.6193C20.2819 21.0232 20.1398 21.3672 19.8556 21.6514C19.5714 21.9356 19.2274 22.0777 18.8235 22.0777H9.17611ZM11.3075 11.3084H16.6921V9.51357C16.6921 8.76571 16.4304 8.13002 15.9069 7.60652C15.3834 7.08302 14.7477 6.82126 13.9998 6.82126C13.252 6.82126 12.6163 7.08302 12.0928 7.60652C11.5693 8.13002 11.3075 8.76571 11.3075 9.51357V11.3084Z" fill="white"/>
</svg>
