<svg width="30" height="26" viewBox="0 0 30 26" fill="none" xmlns="http://www.w3.org/2000/svg">
<path fill-rule="evenodd" clip-rule="evenodd" d="M5 5C5 2.79086 6.79086 1 9 1H21C23.2091 1 25 2.79086 25 5V6.1741C24.195 6.5209 23.2141 6.89076 22.1248 7.23363C19.859 7.94677 17.259 8.5 15 8.5C11.5146 8.5 7.6558 7.18776 5 6.0533V5ZM22.7252 9.14137C23.5298 8.88812 24.2985 8.61456 25 8.33732V21C25 23.2091 23.2091 25 21 25H9C6.79086 25 5 23.2091 5 21V8.21923C7.74923 9.32882 11.4943 10.5 15 10.5C17.541 10.5 20.3576 9.88657 22.7252 9.14137ZM13.4539 13H12L13.9659 16.4118H12.6655V17.0588H14.3447L14.3549 17.0686V17.8824H12.6655V18.5294H14.3549V20H15.6451V18.5294H17.3447V17.8824H15.6451V17.0686L15.6553 17.0588H17.3447V16.4118H16.0341L18 13H16.5461L15 15.951L13.4539 13Z" fill="#121212" fill-opacity="1"/>
</svg>
