<svg width="20" height="20" viewBox="0 0 20 20" fill="none" xmlns="http://www.w3.org/2000/svg">
<path fill-rule="evenodd" clip-rule="evenodd" d="M16.8475 13.2262C15.6708 9.76629 13.4103 7.60517 9.38066 7.58213C8.98157 7.57984 8.56512 7.59853 8.13066 7.63901V4.16679L2.50003 9.95383L8.13066 15.7409V12.2686C11.1897 10.7924 13.8279 12.1332 15.7583 13.9165C16.4281 14.5353 17.0127 15.2073 17.5 15.8335C17.3352 14.9014 17.1205 14.0289 16.8475 13.2262ZM9.38066 13.11V15.7409C9.38066 16.2496 9.07239 16.7075 8.60109 16.899C8.1298 17.0904 7.58949 16.9772 7.23475 16.6126L1.60412 10.8255C1.132 10.3403 1.132 9.56737 1.60412 9.08213L7.23475 3.29509C7.58949 2.9305 8.1298 2.81724 8.60109 3.00869C9.07239 3.20014 9.38066 3.65809 9.38066 4.16679V6.33238C11.9304 6.3462 13.9736 7.13049 15.5202 8.62943C17.2855 10.3404 18.2372 12.8251 18.7309 15.6157C18.831 16.1814 18.5327 16.7424 18.0077 16.9757C17.4828 17.209 16.8665 17.0545 16.5136 16.6012C15.6115 15.4423 14.4299 14.2153 13.0696 13.5005C11.9546 12.9146 10.7355 12.6742 9.38066 13.11Z" fill="#121212"/>
</svg>
