<svg width="24" height="24" viewBox="0 0 24 24" fill="none" xmlns="http://www.w3.org/2000/svg">
<path d="M11.5 13.5C11.5 13.5 11 10 11 8.00004C11 7.5 11.4474 6.9894 11.9994 7.00004C12.541 7.01048 13 7.44794 13 8.00004C13 10 12.5 13.5 12.5 13.5C12.5 13.5 12.3513 13.8849 12 13.8831C11.6487 13.8814 11.5 13.5 11.5 13.5Z" fill="black"/>
<path d="M12.9998 16C12.9998 16.5523 12.5521 17 11.9998 17C11.4475 17 10.9998 16.5523 10.9998 16C10.9998 15.4477 11.4475 15 11.9998 15C12.5521 15 12.9998 15.4477 12.9998 16Z" fill="black"/>
<path d="M3.36677 13.5001C2.83087 12.5719 2.83087 11.4283 3.36677 10.5001L6.38472 5.27283C6.92062 4.34462 7.911 3.77283 8.9828 3.77283H15.0187C16.0905 3.77283 17.0809 4.34462 17.6168 5.27283L20.6347 10.5001C21.1706 11.4283 21.1706 12.5719 20.6347 13.5001L17.6168 18.7273C17.0809 19.6556 16.0905 20.2273 15.0187 20.2273H8.9828C7.911 20.2273 6.92062 19.6556 6.38472 18.7273L3.36677 13.5001Z" stroke="black" stroke-width="1.5" stroke-linecap="round"/>
</svg>
