<svg width="28" height="28" viewBox="0 0 28 28" fill="none" xmlns="http://www.w3.org/2000/svg">
<path fill-rule="evenodd" clip-rule="evenodd" d="M3.20801 6.41634C3.20801 4.64443 4.64443 3.20801 6.41634 3.20801H8.74967C9.23292 3.20801 9.62467 3.59976 9.62467 4.08301C9.62467 4.56626 9.23292 4.95801 8.74967 4.95801H6.41634C5.61093 4.95801 4.95801 5.61093 4.95801 6.41634V8.74967C4.95801 9.23292 4.56626 9.62467 4.08301 9.62467C3.59976 9.62467 3.20801 9.23292 3.20801 8.74967V6.41634ZM18.3747 4.08301C18.3747 3.59976 18.7664 3.20801 19.2497 3.20801H21.583C23.355 3.20801 24.7913 4.64444 24.7913 6.41634V8.74967C24.7913 9.23292 24.3996 9.62467 23.9163 9.62467C23.4331 9.62467 23.0413 9.23292 23.0413 8.74967V6.41634C23.0413 5.61092 22.3885 4.95801 21.583 4.95801H19.2497C18.7664 4.95801 18.3747 4.56626 18.3747 4.08301ZM7.52472 13.9997C7.52472 13.5164 7.91647 13.1247 8.39972 13.1247H19.5997C20.0829 13.1247 20.4747 13.5164 20.4747 13.9997C20.4747 14.4829 20.0829 14.8747 19.5997 14.8747H8.39972C7.91647 14.8747 7.52472 14.4829 7.52472 13.9997ZM4.08301 18.3747C4.56626 18.3747 4.95801 18.7664 4.95801 19.2497V21.583C4.95801 22.3885 5.61092 23.0413 6.41634 23.0413H8.74967C9.23292 23.0413 9.62467 23.4331 9.62467 23.9163C9.62467 24.3996 9.23292 24.7913 8.74967 24.7913H6.41634C4.64444 24.7913 3.20801 23.355 3.20801 21.583V19.2497C3.20801 18.7664 3.59976 18.3747 4.08301 18.3747ZM23.9163 18.3747C24.3996 18.3747 24.7913 18.7664 24.7913 19.2497V21.583C24.7913 23.355 23.355 24.7913 21.583 24.7913H19.2497C18.7664 24.7913 18.3747 24.3996 18.3747 23.9163C18.3747 23.4331 18.7664 23.0413 19.2497 23.0413H21.583C22.3885 23.0413 23.0413 22.3885 23.0413 21.583V19.2497C23.0413 18.7664 23.4331 18.3747 23.9163 18.3747Z" fill="#007AFF"/>
</svg>
