<svg width="23" height="23" viewBox="0 0 23 23" fill="none" xmlns="http://www.w3.org/2000/svg">
<path fill-rule="evenodd" clip-rule="evenodd" d="M15.983 10.3787C15.983 13.5267 13.431 16.0787 10.283 16.0787C7.13498 16.0787 4.58301 13.5267 4.58301 10.3787C4.58301 7.23069 7.13498 4.67871 10.283 4.67871C13.431 4.67871 15.983 7.23069 15.983 10.3787ZM14.2867 16.9573C13.1201 17.6688 11.7494 18.0787 10.283 18.0787C6.03042 18.0787 2.58301 14.6313 2.58301 10.3787C2.58301 6.12612 6.03042 2.67871 10.283 2.67871C14.5356 2.67871 17.983 6.12612 17.983 10.3787C17.983 12.0807 17.4308 13.6538 16.4957 14.9284L21.0603 19.4931C21.6461 20.0788 21.6461 21.0286 21.0603 21.6144C20.4745 22.2002 19.5248 22.2002 18.939 21.6144L14.3557 17.031C14.3317 17.0071 14.3087 16.9825 14.2867 16.9573Z" fill="#007AFF"/>
</svg>
