<svg width="24" height="24" viewBox="0 0 24 24" fill="none" xmlns="http://www.w3.org/2000/svg">
<path fill-rule="evenodd" clip-rule="evenodd" d="M4.39313 5.27349C1.20229 8.30481 1.20229 13.2196 4.39313 16.2509C7.39891 19.1064 12.1639 19.272 15.3738 16.7477L16.1644 17.4988C16.1797 17.729 16.2799 17.9552 16.4652 18.1311L20.2348 21.7123C20.6386 22.0959 21.2933 22.0959 21.6971 21.7123C22.101 21.3286 22.101 20.7066 21.6971 20.323L17.9276 16.7419C17.7419 16.5655 17.5032 16.4702 17.2603 16.456L16.4706 15.7058C19.1283 12.6564 18.9542 8.1292 15.9482 5.27349C12.7573 2.24217 7.58397 2.24217 4.39313 5.27349ZM5.48991 15.2089C2.9048 12.7531 2.9048 8.77131 5.48991 6.31544C8.07501 3.85957 12.2663 3.85957 14.8514 6.31544C17.4365 8.77131 17.4365 12.7531 14.8514 15.2089C12.2663 17.6648 8.07501 17.6648 5.48991 15.2089Z" fill="black"/>
</svg>
