<svg width="24" height="24" viewBox="0 0 24 24" fill="none" xmlns="http://www.w3.org/2000/svg">
<path fill-rule="evenodd" clip-rule="evenodd" d="M19.6553 9.90282C19.4829 9.23732 19.2131 8.6002 18.8731 7.99179C18.764 7.78714 18.7897 7.56258 18.9387 7.41342L19.4574 6.89401C19.8776 6.47331 19.8921 5.77882 19.4535 5.36817L18.5614 4.47499C18.141 4.05408 17.4466 4.03955 17.0363 4.479L16.5215 4.9944C16.3732 5.14291 16.1504 5.16888 15.947 5.06114C15.3609 4.71942 14.7244 4.44961 14.0377 4.27715C13.8367 4.21755 13.6996 4.02882 13.6996 3.84298V3.08748C13.6996 2.49256 13.2082 2 12.6131 2H11.3397C10.7446 2 10.2532 2.49256 10.2532 3.08748V3.84298C10.2532 4.05432 10.1144 4.24089 9.89341 4.3003C9.22859 4.473 8.59217 4.74311 7.98443 5.08362C7.78039 5.19266 7.55659 5.16704 7.40774 5.01801L6.88897 4.4986C6.46857 4.0777 5.77427 4.06316 5.36391 4.50259L4.47183 5.39576C4.05163 5.81647 4.03713 6.51096 4.47581 6.92161L4.9906 7.43703C5.13907 7.58568 5.16511 7.80922 5.05731 8.01329C4.71602 8.60006 4.44657 9.23729 4.27434 9.92465C4.21468 10.1264 4.02606 10.2633 3.84111 10.2633H3.08653C2.49142 10.2633 2 10.7558 2 11.3507V12.6256C2 13.2206 2.49142 13.7131 3.08653 13.7131H3.84111C4.0515 13.7131 4.23799 13.8517 4.29747 14.0735C4.46993 14.739 4.73968 15.3761 5.07976 15.9846C5.18887 16.1892 5.16317 16.4138 5.01418 16.563L4.49541 17.0824C4.07521 17.5031 4.06071 18.1976 4.49939 18.6082L5.39147 19.5014C5.81187 19.9223 6.50618 19.9368 6.91654 19.4974L7.43132 18.982C7.57965 18.8335 7.80242 18.8075 8.00589 18.9153C8.59199 19.257 9.22851 19.5268 9.91513 19.6993C10.1249 19.7613 10.2768 19.9561 10.2768 20.157V20.9125C10.2768 21.5074 10.7682 22 11.3633 22H12.6367C13.2318 22 13.7232 21.5074 13.7232 20.9125V20.157C13.7232 19.9457 13.862 19.7591 14.083 19.6997C14.7478 19.527 15.3842 19.2569 15.992 18.9164C16.196 18.8073 16.4198 18.833 16.5687 18.982L17.0875 19.5014C17.5079 19.9223 18.2022 19.9368 18.6125 19.4974L19.5046 18.6042C19.9248 18.1835 19.9393 17.489 19.5006 17.0784L18.9858 16.563C18.8374 16.4143 18.8113 16.1908 18.9191 15.9867C19.2604 15.3999 19.5299 14.7627 19.7021 14.0753C19.7642 13.8649 19.9589 13.7131 20.1589 13.7131H20.9135C21.5086 13.7131 22 13.2206 22 12.6256V11.3337L21.9981 11.3167C21.9358 10.7554 21.4671 10.2633 20.8663 10.2633H20.1117C19.9013 10.2633 19.7148 10.1247 19.6553 9.90282ZM16.4049 12.0001C16.4049 14.4331 14.4326 16.4054 11.9997 16.4054C9.56668 16.4054 7.59437 14.4331 7.59437 12.0001C7.59437 9.56711 9.56668 7.5948 11.9997 7.5948C14.4326 7.5948 16.4049 9.56711 16.4049 12.0001Z" stroke="black" stroke-width="1.5"/>
</svg>
