<svg width="56" height="56" viewBox="0 0 56 56" fill="none" xmlns="http://www.w3.org/2000/svg">
<rect width="56" height="56" rx="28" fill="#121212" fill-opacity="0.32"/>
<rect x="0.25" y="0.25" width="55.5" height="55.5" rx="27.75" stroke="#FCFCFC" stroke-opacity="0.32" stroke-width="0.5"/>
<g clip-path="url(#clip0_343_398)">
<path d="M23.2391 26.9074C22.8529 26.217 22.1121 25.75 21.2616 25.75C20.0126 25.75 19 26.7573 19 28C19 29.2426 20.0126 30.25 21.2616 30.25C22.1121 30.25 22.8529 29.7829 23.2391 29.0926M23.2391 26.9074C23.4201 27.2309 23.5232 27.6034 23.5232 28C23.5232 28.3965 23.4201 28.769 23.2391 29.0926M23.2391 26.9074L31.665 22.15M31.665 22.15C32.014 22.9447 32.811 23.5 33.7384 23.5C34.9874 23.5 36 22.4927 36 21.25C36 20.0074 34.9874 19 33.7384 19C32.4893 19 31.4768 20.0074 31.4768 21.25C31.4768 21.57 31.5439 21.8744 31.665 22.15ZM31.665 33.85C31.5439 34.1256 31.4768 34.43 31.4768 34.75C31.4768 35.9926 32.4893 37 33.7384 37C34.9874 37 36 35.9926 36 34.75C36 33.5073 34.9874 32.5 33.7384 32.5C32.811 32.5 32.014 33.0553 31.665 33.85ZM31.665 33.85L23.2391 29.0926" stroke="#FEFEFE" stroke-width="1.5"/>
</g>
<defs>
<clipPath id="clip0_343_398">
<rect width="28" height="28" fill="white" transform="translate(14 14)"/>
</clipPath>
</defs>
</svg>
