<svg width="24" height="24" viewBox="0 0 24 24" fill="none" xmlns="http://www.w3.org/2000/svg">
<path fill-rule="evenodd" clip-rule="evenodd" d="M4.71135 4.75C4.60488 4.75 4.5101 4.81742 4.47518 4.918L2.76383 9.84683C2.75795 9.86377 2.75548 9.87516 2.75451 9.88117L2.75416 9.88365L2.7539 9.87981C2.75412 9.88312 2.75402 9.88493 2.75401 9.88506C2.75401 9.88514 2.75403 9.88467 2.75416 9.88365C2.81677 10.8086 3.57972 11.5305 4.5 11.5305C5.4608 11.5305 6.25 10.7436 6.25 9.76016V9.69554L6.26105 9.63188L7.10857 4.75H4.71135ZM8.63101 4.75L7.75095 9.81929C7.78183 10.775 8.55853 11.5305 9.5 11.5305C10.4608 11.5305 11.25 10.7436 11.25 9.76016V4.75H8.63101ZM12.75 4.75V9.76016C12.75 10.7436 13.5392 11.5305 14.5 11.5305C15.4415 11.5305 16.2182 10.775 16.249 9.81929L15.369 4.75H12.75ZM17 11.8498C16.4048 12.5704 15.5074 13.0305 14.5 13.0305C13.4926 13.0305 12.5952 12.5704 12 11.8498C11.4048 12.5704 10.5074 13.0305 9.5 13.0305C8.49262 13.0305 7.5952 12.5704 7 11.8498C6.45451 12.5102 5.65518 12.9518 4.75 13.021V20C4.75 20.1381 4.86193 20.25 5 20.25H9.25013L9.25013 17C9.25013 15.4812 10.4813 14.25 12.0001 14.25C13.5189 14.25 14.7501 15.4812 14.7501 17V20.25H19C19.1381 20.25 19.25 20.1381 19.25 20V13.021C18.3448 12.9518 17.5455 12.5102 17 11.8498ZM14.7501 21.75H14.0001L10.0001 21.75H9.25013L5 21.75C4.0335 21.75 3.25 20.9665 3.25 20V12.7801C2.13689 12.3131 1.33994 11.2414 1.25712 9.97793C1.24173 9.74316 1.28595 9.53011 1.34681 9.35482L3.05816 4.42599C3.30261 3.72197 3.9661 3.25 4.71135 3.25H8H12H16H19.2886C20.0339 3.25 20.6974 3.72197 20.9418 4.42599L22.6532 9.35483C22.714 9.53011 22.7583 9.74317 22.7429 9.97793C22.6601 11.2414 21.8631 12.3131 20.75 12.7801V20C20.75 20.9665 19.9665 21.75 19 21.75H14.7501ZM13.2501 20.25V17C13.2501 16.3096 12.6905 15.75 12.0001 15.75C11.3098 15.75 10.7501 16.3096 10.7501 17V20.25H13.2501ZM17.75 9.76016C17.75 10.7436 18.5392 11.5305 19.5 11.5305C20.4203 11.5305 21.1832 10.8086 21.2458 9.88366L21.2455 9.88117C21.2445 9.87516 21.2421 9.86377 21.2362 9.84683L19.5248 4.918C19.4899 4.81742 19.3951 4.75 19.2886 4.75H16.8914L17.7389 9.63188L17.75 9.69554V9.76016Z" fill="black"/>
</svg>
