<svg width="24" height="24" viewBox="0 0 24 24" fill="none" xmlns="http://www.w3.org/2000/svg">
<path d="M13.4289 12.6826C13.2169 12.6826 13.0098 12.7468 12.8336 12.8672C12.6574 12.9875 12.5201 13.1586 12.439 13.3587C12.3579 13.5588 12.3367 13.779 12.378 13.9915C12.4194 14.2039 12.5214 14.3991 12.6712 14.5523C12.8211 14.7054 13.012 14.8097 13.2198 14.852C13.4277 14.8943 13.6431 14.8726 13.8389 14.7897C14.0346 14.7068 14.202 14.5664 14.3197 14.3863C14.4374 14.2062 14.5003 13.9944 14.5003 13.7778C14.5003 13.4873 14.3874 13.2088 14.1865 13.0034C13.9855 12.798 13.713 12.6826 13.4289 12.6826Z" fill="#121212" fill-opacity="0.48"/>
<path d="M17.0436 13.0034C17.2445 13.2088 17.3574 13.4873 17.3574 13.7778C17.3574 14.0683 17.2445 14.3469 17.0436 14.5523C16.8427 14.7577 16.5702 14.873 16.286 14.873C16.0018 14.873 15.7293 14.7577 15.5284 14.5523C15.3274 14.3469 15.2146 14.0683 15.2146 13.7778C15.2146 13.4873 15.3274 13.2088 15.5284 13.0034C15.7293 12.798 16.0018 12.6826 16.286 12.6826C16.5702 12.6826 16.8427 12.798 17.0436 13.0034Z" fill="#121212" fill-opacity="0.48"/>
<path d="M11.167 14.6885C10.9908 14.8088 10.7836 14.873 10.5717 14.873C10.2875 14.873 10.015 14.7577 9.8141 14.5523C9.61316 14.3469 9.50028 14.0683 9.50028 13.7778C9.50028 13.5612 9.56312 13.3494 9.68085 13.1693C9.79858 12.9892 9.96591 12.8488 10.1617 12.7659C10.3575 12.683 10.5729 12.6614 10.7807 12.7036C10.9886 12.7459 11.1795 12.8502 11.3293 13.0034C11.4792 13.1565 11.5812 13.3517 11.6226 13.5641C11.6639 13.7766 11.6427 13.9968 11.5616 14.1969C11.4805 14.3971 11.3432 14.5681 11.167 14.6885Z" fill="#121212" fill-opacity="0.48"/>
<path d="M7.71457 14.873C7.92648 14.873 8.13363 14.8088 8.30982 14.6885C8.48602 14.5681 8.62334 14.3971 8.70444 14.1969C8.78553 13.9968 8.80675 13.7766 8.76541 13.5641C8.72407 13.3517 8.62202 13.1565 8.47218 13.0034C8.32234 12.8502 8.13143 12.7459 7.92359 12.7036C7.71576 12.6614 7.50033 12.683 7.30455 12.7659C7.10877 12.8488 6.94144 12.9892 6.82371 13.1693C6.70598 13.3494 6.64314 13.5612 6.64314 13.7778C6.64314 14.0683 6.75602 14.3469 6.95695 14.5523C7.15788 14.7577 7.43041 14.873 7.71457 14.873Z" fill="#121212" fill-opacity="0.48"/>
<path d="M17.3574 10.8572C17.3574 10.5667 17.2445 10.2881 17.0436 10.0827C16.8427 9.87733 16.5702 9.76194 16.286 9.76194C16.0018 9.76194 15.7293 9.87733 15.5284 10.0827C15.3274 10.2881 15.2146 10.5667 15.2146 10.8572C15.2146 11.1476 15.3274 11.4262 15.5284 11.6316C15.7293 11.837 16.0018 11.9524 16.286 11.9524C16.5702 11.9524 16.8427 11.837 17.0436 11.6316C17.2445 11.4262 17.3574 11.1476 17.3574 10.8572Z" fill="#121212" fill-opacity="0.48"/>
<path d="M13.4289 9.76194C13.2169 9.76194 13.0098 9.82617 12.8336 9.94652C12.6574 10.0669 12.5201 10.2379 12.439 10.438C12.3579 10.6382 12.3367 10.8584 12.378 11.0708C12.4194 11.2833 12.5214 11.4785 12.6712 11.6316C12.8211 11.7848 13.012 11.8891 13.2198 11.9314C13.4277 11.9736 13.6431 11.9519 13.8389 11.869C14.0346 11.7861 14.202 11.6458 14.3197 11.4657C14.4374 11.2855 14.5003 11.0738 14.5003 10.8572C14.5003 10.5667 14.3874 10.2881 14.1865 10.0827C13.9855 9.87733 13.713 9.76194 13.4289 9.76194Z" fill="#121212" fill-opacity="0.48"/>
<path d="M13.4289 8.30162H10.5717C10.2875 8.30162 10.015 8.18623 9.8141 7.98083C9.61316 7.77543 9.50028 7.49686 9.50028 7.20638C9.50028 6.91591 9.61316 6.63733 9.8141 6.43193C10.015 6.22654 10.2875 6.11114 10.5717 6.11114H13.4289C13.713 6.11114 13.9855 6.22654 14.1865 6.43193C14.3874 6.63733 14.5003 6.91591 14.5003 7.20638C14.5003 7.49686 14.3874 7.77543 14.1865 7.98083C13.9855 8.18623 13.713 8.30162 13.4289 8.30162Z" fill="#121212" fill-opacity="0.48"/>
<path d="M10.5717 11.9524C10.7836 11.9524 10.9908 11.8882 11.167 11.7678C11.3432 11.6475 11.4805 11.4764 11.5616 11.2763C11.6427 11.0762 11.6639 10.856 11.6226 10.6435C11.5812 10.431 11.4792 10.2359 11.3293 10.0827C11.1795 9.92955 10.9886 9.82524 10.7807 9.78298C10.5729 9.74072 10.3575 9.76241 10.1617 9.84531C9.96591 9.9282 9.79858 10.0686 9.68085 10.2487C9.56312 10.4288 9.50028 10.6406 9.50028 10.8572C9.50028 11.1476 9.61316 11.4262 9.8141 11.6316C10.015 11.837 10.2875 11.9524 10.5717 11.9524Z" fill="#121212" fill-opacity="0.48"/>
<path d="M8.30982 11.7678C8.13363 11.8882 7.92648 11.9524 7.71457 11.9524C7.43041 11.9524 7.15788 11.837 6.95695 11.6316C6.75602 11.4262 6.64314 11.1476 6.64314 10.8572C6.64314 10.6406 6.70598 10.4288 6.82371 10.2487C6.94144 10.0686 7.10877 9.9282 7.30455 9.84531C7.50033 9.76241 7.71576 9.74072 7.92359 9.78298C8.13143 9.82524 8.32234 9.92955 8.47218 10.0827C8.62202 10.2359 8.72407 10.431 8.76541 10.6435C8.80675 10.856 8.78553 11.0762 8.70444 11.2763C8.62334 11.4764 8.48602 11.6475 8.30982 11.7678Z" fill="#121212" fill-opacity="0.48"/>
<path d="M10.5 22.5L12 24L13.5 22.5H10.5Z" fill="#121212" fill-opacity="0.48"/>
<circle cx="12" cy="11" r="10.25" stroke="#121212" stroke-opacity="0.48" stroke-width="1.5"/>
</svg>
