<svg width="24" height="24" viewBox="0 0 24 24" fill="none" xmlns="http://www.w3.org/2000/svg">
<path d="M21.2167 10.0527L14.2714 3.10751C13.4531 2.2892 12.351 1.81761 11.1941 1.7907L6.30747 1.67705C6.27184 1.6762 6.23621 1.67578 6.20057 1.67578C3.68306 1.67606 1.64519 3.74962 1.70406 6.28045L1.81771 11.1671C1.84462 12.324 2.31621 13.4261 3.13453 14.2444L10.0798 21.1897C10.9584 22.0684 12.1101 22.5077 13.2617 22.5077C14.4134 22.5077 15.565 22.0684 16.4437 21.1897L21.2167 16.4167C22.974 14.6593 22.974 11.8101 21.2167 10.0527ZM19.8909 15.0909L15.1179 19.8638C14.6221 20.3596 13.9629 20.6327 13.2617 20.6327C12.5605 20.6327 11.9013 20.3596 11.4056 19.8638L4.46036 12.9186C3.98076 12.439 3.70795 11.8015 3.69222 11.1235L3.57857 6.23684C3.562 5.5245 3.82706 4.85159 4.32489 4.34196C4.82322 3.83187 5.48931 3.5509 6.2006 3.55078L6.2639 3.55153L11.1505 3.66518C11.8285 3.68095 12.466 3.95374 12.9456 4.4333L19.8909 11.3785C20.3866 11.8743 20.6597 12.5335 20.6597 13.2347C20.6597 13.9359 20.3866 14.5951 19.8909 15.0909Z" fill="#121212"/>
<path d="M9.01905 5.99205C8.25128 5.99205 7.48349 6.28495 6.89772 6.87075C5.72615 8.04229 5.72615 9.94181 6.89772 11.1134C7.48359 11.6992 8.25119 11.9921 9.01905 11.9921C9.78672 11.9921 10.5547 11.6991 11.1404 11.1134C12.3119 9.94183 12.3119 8.04234 11.1404 6.87075C10.5546 6.28495 9.78681 5.99205 9.01905 5.99205ZM9.81457 9.78757C9.60208 10.0001 9.31956 10.1171 9.01907 10.1171C8.71858 10.1171 8.43606 10.0001 8.22358 9.78757C8.0111 9.57506 7.89407 9.29257 7.89407 8.9921C7.89407 8.6916 8.01107 8.40909 8.2236 8.1966C8.43606 7.98412 8.71858 7.8671 9.01907 7.8671C9.31956 7.8671 9.60208 7.9841 9.81457 8.1966C10.027 8.40909 10.1441 8.6916 10.1441 8.9921C10.1441 9.29259 10.027 9.57508 9.81457 9.78757Z" fill="#121212"/>
</svg>
