<svg width="24" height="24" viewBox="0 0 24 24" fill="none" xmlns="http://www.w3.org/2000/svg">
<path fill-rule="evenodd" clip-rule="evenodd" d="M22 18.25C22 19.9069 20.6569 21.25 19 21.25L5 21.25C3.34315 21.25 2 19.9069 2 18.25L2.00001 6.75C2.00001 5.09315 3.34315 3.75 5.00001 3.75L19 3.75C20.6569 3.75 22 5.09315 22 6.75L22 18.25ZM18.25 17.75C18.25 18.3023 17.8023 18.75 17.25 18.75L10.5 18.75C9.94772 18.75 9.5 18.3023 9.5 17.75L9.5 17.25C9.5 16.6977 9.94772 16.25 10.5 16.25L17.25 16.25C17.8023 16.25 18.25 16.6977 18.25 17.25L18.25 17.75ZM18.5 13.75C19.0523 13.75 19.5 13.3023 19.5 12.75L19.5 12.25C19.5 11.6977 19.0523 11.25 18.5 11.25L10.5 11.25C9.94772 11.25 9.5 11.6977 9.5 12.25L9.5 12.75C9.5 13.3023 9.94772 13.75 10.5 13.75L18.5 13.75ZM18.25 7.75C18.25 8.30228 17.8023 8.75 17.25 8.75L10.5 8.75C9.94772 8.75 9.5 8.30228 9.5 7.75L9.5 7.25C9.5 6.69771 9.94772 6.25 10.5 6.25L17.25 6.25C17.8023 6.25 18.25 6.69772 18.25 7.25L18.25 7.75ZM5.75 16.25C5.05965 16.25 4.5 16.8096 4.5 17.5C4.5 18.1904 5.05964 18.75 5.75 18.75C6.44036 18.75 7 18.1904 7 17.5C7 16.8096 6.44036 16.25 5.75 16.25ZM4.5 12.5C4.5 11.8096 5.05964 11.25 5.75 11.25C6.44036 11.25 7 11.8096 7 12.5C7 13.1904 6.44036 13.75 5.75 13.75C5.05964 13.75 4.5 13.1904 4.5 12.5ZM5.75 6.25C5.05964 6.25 4.5 6.80964 4.5 7.5C4.5 8.19036 5.05964 8.75 5.75 8.75C6.44036 8.75 7 8.19036 7 7.5C7 6.80964 6.44036 6.25 5.75 6.25Z" fill="#121212" fill-opacity="1"/>
</svg>
