<svg width="30" height="26" viewBox="0 0 30 26" fill="none" xmlns="http://www.w3.org/2000/svg">
<path fill-rule="evenodd" clip-rule="evenodd" d="M6.5 1C4.29086 1 2.5 2.79086 2.5 5V21C2.5 23.2091 4.29086 25 6.5 25H23.5C25.7091 25 27.5 23.2091 27.5 21V5C27.5 2.79086 25.7091 1 23.5 1H6.5ZM17.5641 6.38976C17.9011 6.149 18.3696 6.22707 18.6103 6.56413L21.1103 10.0641C21.2736 10.2927 21.2954 10.5934 21.1669 10.8432C21.0383 11.093 20.781 11.2501 20.5 11.2501H9.50001C9.0858 11.2501 8.75001 10.9143 8.75001 10.5001C8.75001 10.0858 9.0858 9.75006 9.50001 9.75006H19.0426L17.3897 7.43599C17.149 7.09893 17.227 6.63052 17.5641 6.38976ZM8.81863 15.1867C8.94102 14.9206 9.20711 14.75 9.50001 14.75H20.5C20.9142 14.75 21.25 15.0858 21.25 15.5C21.25 15.9143 20.9142 16.25 20.5 16.25H11.1307L13.0695 18.512C13.339 18.8264 13.3026 19.2999 12.9881 19.5695C12.6736 19.8391 12.2001 19.8026 11.9306 19.4881L8.93057 15.9881C8.73995 15.7658 8.69624 15.4528 8.81863 15.1867Z" fill="#007AFF"/>
</svg>
