<svg width="24" height="24" viewBox="0 0 24 24" fill="none" xmlns="http://www.w3.org/2000/svg">
<g clip-path="url(#clip0_4380_376639)">
<path fill-rule="evenodd" clip-rule="evenodd" d="M12 3.75C7.44365 3.75 3.75 7.44365 3.75 12C3.75 16.5563 7.44365 20.25 12 20.25H15.9996C16.4138 20.25 16.75 20.5858 16.75 21C16.75 21.4142 16.4142 21.75 16 21.75H12C6.61522 21.75 2.25 17.3848 2.25 12C2.25 6.61522 6.61522 2.25 12 2.25C17.3848 2.25 21.75 6.61522 21.75 12C21.75 13.2287 21.7218 14.6085 21.3422 15.6866C21.1467 16.2418 20.8411 16.7703 20.3519 17.1581C19.8533 17.5533 19.23 17.75 18.5 17.75C16.9654 17.75 16.0487 17.0142 15.603 16.1319C15.5808 16.0879 15.5598 16.0438 15.5401 15.9996C14.5837 16.7816 13.3457 17.25 12 17.25C9.01542 17.25 6.53571 14.932 6.53571 12C6.53571 9.06801 9.01542 6.75 12 6.75C14.9846 6.75 17.4643 9.06801 17.4643 12C17.4643 12.9311 17.2114 13.8061 16.7697 14.5635C16.7664 14.5896 16.7546 14.6707 16.7654 14.8132C16.7801 15.0093 16.8332 15.2406 16.9418 15.4556C17.1339 15.8358 17.5346 16.25 18.5 16.25C18.9497 16.25 19.2287 16.1342 19.4201 15.9826C19.6208 15.8235 19.7927 15.5707 19.9273 15.1884C20.2079 14.3915 20.25 13.2713 20.25 12C20.25 7.44365 16.5563 3.75 12 3.75ZM12 8.25C9.77732 8.25 8.03571 9.96143 8.03571 12C8.03571 14.0386 9.77732 15.75 12 15.75C13.4832 15.75 14.7633 14.9816 15.4422 13.8613C15.7751 13.3119 15.9643 12.6772 15.9643 12C15.9643 9.96143 14.2227 8.25 12 8.25Z" fill="#121212"/>
</g>
<defs>
<clipPath id="clip0_4380_376639">
<rect width="24" height="24" fill="white"/>
</clipPath>
</defs>
</svg>
