<svg width="25" height="24" viewBox="0 0 25 24" fill="none" xmlns="http://www.w3.org/2000/svg">
<g opacity="0.8">
<path d="M5.91631 5.88981C6.22325 5.61167 6.69755 5.63502 6.97568 5.94196C7.25382 6.2489 7.23047 6.7232 6.92353 7.00134L5.91631 5.88981ZM13.8785 5.19632C13.475 5.10238 13.2241 4.69919 13.3181 4.29577C13.412 3.89235 13.8152 3.64146 14.2186 3.7354L13.8785 5.19632ZM6.92353 7.00134C4.60167 9.1053 3.70184 12.5034 4.9178 15.5886L3.52228 16.1386C2.07002 12.4538 3.14714 8.39911 5.91631 5.88981L6.92353 7.00134ZM4.9178 15.5886C6.48724 19.5707 10.9877 21.5265 14.9697 19.9571L15.5197 21.3526C10.767 23.2258 5.39548 20.8914 3.52228 16.1386L4.9178 15.5886ZM14.9697 19.9571C18.9518 18.3876 20.9077 13.8872 19.3382 9.90512L20.7337 9.35511C22.6069 14.1079 20.2726 19.4794 15.5197 21.3526L14.9697 19.9571ZM19.3382 9.90512C18.3678 7.44298 16.2775 5.75495 13.8785 5.19632L14.2186 3.7354C17.0772 4.40104 19.575 6.41509 20.7337 9.35511L19.3382 9.90512Z" fill="white"/>
<path d="M8.69607 4.06811C8.36532 4.26105 8.36532 4.73895 8.69607 4.93189L13.2038 7.56137C13.5371 7.75581 13.9557 7.51538 13.9557 7.12948L13.9557 1.87052C13.9557 1.48462 13.5371 1.24419 13.2038 1.43863L8.69607 4.06811Z" fill="white"/>
<path d="M14.6367 16.3975C14.0768 16.3975 13.5967 16.2477 13.1963 15.9482C12.7992 15.6488 12.4932 15.2223 12.2783 14.6689C12.0635 14.1156 11.9561 13.4596 11.9561 12.7012V12.6914C11.9561 11.9329 12.0635 11.2786 12.2783 10.7285C12.4932 10.1751 12.7992 9.7487 13.1963 9.44922C13.5967 9.14974 14.0768 9 14.6367 9C15.1966 9 15.6768 9.14974 16.0771 9.44922C16.4775 9.7487 16.7852 10.1751 17 10.7285C17.2148 11.2786 17.3223 11.9329 17.3223 12.6914V12.7012C17.3223 13.4596 17.2148 14.1156 17 14.6689C16.7852 15.2223 16.4775 15.6488 16.0771 15.9482C15.6768 16.2477 15.1966 16.3975 14.6367 16.3975ZM14.6367 15.377C14.9362 15.377 15.1917 15.2695 15.4033 15.0547C15.6149 14.8398 15.776 14.5339 15.8867 14.1367C16.0007 13.7363 16.0576 13.2578 16.0576 12.7012V12.6914C16.0576 12.1348 16.0007 11.6579 15.8867 11.2607C15.776 10.8604 15.6149 10.5544 15.4033 10.3428C15.1917 10.1279 14.9362 10.0205 14.6367 10.0205C14.3372 10.0205 14.0817 10.1279 13.8701 10.3428C13.6618 10.5544 13.5007 10.8604 13.3867 11.2607C13.276 11.6579 13.2207 12.1348 13.2207 12.6914V12.7012C13.2207 13.2578 13.276 13.7363 13.3867 14.1367C13.5007 14.5339 13.6618 14.8398 13.8701 15.0547C14.0817 15.2695 14.3372 15.377 14.6367 15.377Z" fill="white"/>
<path d="M9.34082 16.2217V10.416H9.25293L7.5 11.6514V10.4697L9.34082 9.17578H10.5957V16.2217H9.34082Z" fill="white"/>
</g>
</svg>
