<svg width="24" height="24" viewBox="0 0 24 24" fill="none" xmlns="http://www.w3.org/2000/svg">
<path d="M2 8C2 6.89543 2.89543 6 4 6L14.4445 6C15.549 6 16.4445 6.89543 16.4445 8V16C16.4445 17.1046 15.549 18 14.4445 18H4C2.89543 18 2 17.1046 2 16V8Z" stroke="#5AC63A" stroke-width="1.5"/>
<path d="M16.4445 9.66667L20.0823 7.64445C20.1754 7.59268 20.2625 7.53019 20.3544 7.47643C21.0741 7.05583 22 7.59517 22 8.50001V15.5C22 16.4048 21.0741 16.9442 20.3544 16.5236C20.2625 16.4698 20.1754 16.4073 20.0823 16.3556L16.4445 14.3333V9.66667Z" stroke="#5AC63A" stroke-width="1.5"/>
</svg>
