<svg width="20" height="20" viewBox="0 0 20 20" fill="none" xmlns="http://www.w3.org/2000/svg">
    <path fill-rule="evenodd" clip-rule="evenodd" d="M9.99984 18.3334C14.6022 18.3334 18.3332 14.6024 18.3332 10C18.3332 5.39764 14.6022 1.66669 9.99984 1.66669C5.39746 1.66669 1.6665 5.39764 1.6665 10C1.6665 14.6024 5.39746 18.3334 9.99984 18.3334ZM7.52511 6.64141C7.28104 6.39734 6.88531 6.39733 6.64123 6.64141C6.39715 6.88549 6.39715 7.28122 6.64123 7.52529L9.11595 10L6.64123 12.4748C6.39715 12.7188 6.39715 13.1146 6.64123 13.3586C6.88531 13.6027 7.28104 13.6027 7.52511 13.3586L9.99983 10.8839L12.4746 13.3586C12.7186 13.6027 13.1144 13.6027 13.3584 13.3586C13.6025 13.1146 13.6025 12.7188 13.3584 12.4748L10.8837 10L13.3584 7.52529C13.6025 7.28122 13.6025 6.88549 13.3584 6.64141C13.1144 6.39733 12.7186 6.39733 12.4746 6.64141L9.99983 9.11614L7.52511 6.64141Z" fill="#121212"/>
</svg>
