<svg width="96" height="95" viewBox="0 0 96 95" fill="none" xmlns="http://www.w3.org/2000/svg">
<path d="M60.2705 76.6731L64.2288 83.5606C60.4288 85.3023 56.2726 86.4502 51.958 86.8856V78.8897C54.8872 78.5335 57.658 77.7814 60.2705 76.6731ZM16.6101 51.4585H8.61426C9.04967 55.8127 10.1976 59.9293 11.9393 63.7293L18.8268 59.771C17.7184 57.1585 16.9663 54.3877 16.6101 51.4585ZM60.2705 18.3272L64.2288 11.4397C60.4288 9.69808 56.3122 8.55016 51.958 8.11475V16.1106C54.8872 16.4668 57.658 17.2189 60.2705 18.3272ZM79.3893 43.5418H87.3851C86.9497 39.1877 85.8018 35.071 84.0601 31.271L77.1726 35.2293C78.2809 37.8418 79.033 40.6127 79.3893 43.5418ZM35.7288 76.6731L31.7705 83.5606C35.5705 85.3023 39.7268 86.4502 44.0413 86.8856V78.8897C41.1122 78.5335 38.3413 77.7814 35.7288 76.6731ZM44.0413 16.1106V8.11475C39.6872 8.55016 35.5705 9.69808 31.7705 11.4397L35.7288 18.3272C38.3413 17.2189 41.1122 16.4668 44.0413 16.1106ZM73.1747 28.3814L80.0622 24.3835C77.5684 20.9397 74.5205 17.8918 71.0768 15.3981L67.0788 22.2856C69.4143 24.0668 71.433 26.0856 73.1747 28.3814ZM18.8268 35.2293L11.9393 31.271C10.1976 35.071 9.04967 39.1877 8.61426 43.5418H16.6101C16.9663 40.6127 17.7184 37.8418 18.8268 35.2293ZM79.3893 51.4585C79.033 54.3877 78.2809 57.1585 77.1726 59.771L84.0601 63.7293C85.8018 59.9293 86.9497 55.7731 87.3851 51.4585H79.3893ZM67.1184 72.6752L71.1163 79.5627C74.5601 77.0689 77.608 74.021 80.1018 70.5772L73.2143 66.5793C71.433 68.9147 69.4143 70.9335 67.1184 72.6752ZM28.8809 22.3252L24.9226 15.3981C21.4393 17.9314 18.4309 20.9397 15.9372 24.4231L22.8247 28.421C24.5663 26.0856 26.5851 24.0668 28.8809 22.3252ZM22.8247 66.6189L15.9372 70.5772C18.4309 74.021 21.4788 77.0689 24.9226 79.5627L28.9205 72.6752C26.5851 70.9335 24.5663 68.9147 22.8247 66.6189ZM51.958 27.7085H44.0413V49.1231L61.0226 66.1043L66.6038 60.5231L51.958 45.8772V27.7085Z" fill="#FF9500"/>
</svg>
