<svg width="28" height="28" viewBox="0 0 28 28" fill="none" xmlns="http://www.w3.org/2000/svg">
<g clip-path="url(#clip0_9118_14902)">
<path fill-rule="evenodd" clip-rule="evenodd" d="M2.75 3.5C2.75 3.08579 3.08579 2.75 3.5 2.75H9.33333C9.74755 2.75 10.0833 3.08579 10.0833 3.5C10.0833 3.91421 9.74755 4.25 9.33333 4.25H4.25V9.33333C4.25 9.74755 3.91421 10.0833 3.5 10.0833C3.08579 10.0833 2.75 9.74755 2.75 9.33333V3.5ZM25.25 3.5C25.25 3.08579 24.9142 2.75 24.5 2.75H18.6667C18.2525 2.75 17.9167 3.08579 17.9167 3.5C17.9167 3.91421 18.2525 4.25 18.6667 4.25H23.75V9.33333C23.75 9.74755 24.0858 10.0833 24.5 10.0833C24.9142 10.0833 25.25 9.74755 25.25 9.33333V3.5ZM3.5 25.25C3.08579 25.25 2.75 24.9142 2.75 24.5V18.6667C2.75 18.2525 3.08579 17.9167 3.5 17.9167C3.91421 17.9167 4.25 18.2525 4.25 18.6667V23.75H9.33333C9.74755 23.75 10.0833 24.0858 10.0833 24.5C10.0833 24.9142 9.74755 25.25 9.33333 25.25H3.5ZM25.25 24.5C25.25 24.9142 24.9142 25.25 24.5 25.25H18.6667C18.2525 25.25 17.9167 24.9142 17.9167 24.5C17.9167 24.0858 18.2525 23.75 18.6667 23.75H23.75V18.6667C23.75 18.2525 24.0858 17.9167 24.5 17.9167C24.9142 17.9167 25.25 18.2525 25.25 18.6667V24.5ZM20.965 9.84507C21.2476 9.54226 21.2312 9.06767 20.9284 8.78504C20.6256 8.50242 20.151 8.51878 19.8684 8.82159L12.3019 16.9285L8.75868 12.3729C8.50438 12.0459 8.03317 11.987 7.70621 12.2413C7.37925 12.4956 7.32035 12.9668 7.57465 13.2938L11.658 18.5438C11.7928 18.7172 11.9969 18.8227 12.2163 18.8326C12.4357 18.8424 12.6484 18.7556 12.7983 18.5951L20.965 9.84507Z" fill="#007AFF"/>
</g>
<defs>
<clipPath id="clip0_9118_14902">
<rect width="28" height="28" fill="white"/>
</clipPath>
</defs>
</svg>
