<svg width="20" height="20" viewBox="0 0 20 20" fill="none" xmlns="http://www.w3.org/2000/svg">
<path fill-rule="evenodd" clip-rule="evenodd" d="M13.5 8.75C13.5 11.3734 11.3734 13.5 8.75 13.5C6.12665 13.5 4 11.3734 4 8.75C4 6.12665 6.12665 4 8.75 4C11.3734 4 13.5 6.12665 13.5 8.75ZM12.1608 13.9881C11.18 14.6281 10.0084 15 8.75 15C5.29822 15 2.5 12.2018 2.5 8.75C2.5 5.29822 5.29822 2.5 8.75 2.5C12.2018 2.5 15 5.29822 15 8.75C15 10.2218 14.4913 11.5747 13.6401 12.6426L18.2071 17.2096C18.5976 17.6001 18.5976 18.2332 18.2071 18.6238C17.8166 19.0143 17.1834 19.0143 16.7929 18.6238L12.2096 14.0404C12.1926 14.0234 12.1763 14.006 12.1608 13.9881Z" fill="#121212" fill-opacity="0.32"/>
</svg>
