<svg width="40" height="40" viewBox="0 0 40 40" fill="none" xmlns="http://www.w3.org/2000/svg">
<circle opacity="0.1" cx="20" cy="20" r="20" fill="white"/>
<path fill-rule="evenodd" clip-rule="evenodd" d="M24.9704 11.5587C24.7268 11.2237 24.2577 11.1496 23.9228 11.3933C23.5878 11.6369 23.5137 12.1059 23.7573 12.4409L26.5274 16.2498H12.0002C11.586 16.2498 11.2502 16.5856 11.2502 16.9998C11.2502 17.414 11.586 17.7498 12.0002 17.7498H28.0002C28.2823 17.7498 28.5406 17.5915 28.6686 17.3401C28.7966 17.0888 28.7727 16.7868 28.6068 16.5587L24.9704 11.5587ZM12.0003 22.2498C11.7062 22.2498 11.4392 22.4217 11.3175 22.6895C11.1958 22.9572 11.2418 23.2714 11.4352 23.493L15.7989 28.493C16.0712 28.805 16.545 28.8372 16.8571 28.5649C17.1691 28.2925 17.2013 27.8187 16.929 27.5067L13.6503 23.7498H28.0003C28.4145 23.7498 28.7503 23.414 28.7503 22.9998C28.7503 22.5856 28.4145 22.2498 28.0003 22.2498H12.0003Z" fill="white"/>
</svg>
