<svg width="8" height="8" viewBox="0 0 8 8" fill="none" xmlns="http://www.w3.org/2000/svg">
<path d="M0 1C0 0.723858 0.223858 0.5 0.5 0.5H7.5C7.77614 0.5 8 0.723858 8 1C8 1.27614 7.77614 1.5 7.5 1.5H0.5C0.223858 1.5 0 1.27614 0 1Z" fill="#121212" fill-opacity="0.2"/>
<path d="M0 4C0 3.72386 0.223858 3.5 0.5 3.5H7.5C7.77614 3.5 8 3.72386 8 4C8 4.27614 7.77614 4.5 7.5 4.5H0.5C0.223858 4.5 0 4.27614 0 4Z" fill="#121212" fill-opacity="0.2"/>
<path d="M0 7C0 6.72386 0.223858 6.5 0.5 6.5H7.5C7.77614 6.5 8 6.72386 8 7C8 7.27614 7.77614 7.5 7.5 7.5H0.5C0.223858 7.5 0 7.27614 0 7Z" fill="#121212" fill-opacity="0.2"/>
</svg>
